<svg width="15" height="15" viewBox="0 0 15 15" fill="none" xmlns="http://www.w3.org/2000/svg">
<path d="M3.2313 14.3252H0.4862C0.217554 14.3252 0 14.1077 0 13.839V11.0939C0 10.8252 0.217554 10.6077 0.4862 10.6077H3.2313C3.50007 10.6077 3.7175 10.8252 3.7175 11.0939V13.839C3.7175 14.1077 3.50007 14.3252 3.2313 14.3252ZM2.7451 11.5801H0.97198V13.3533H2.74513V11.5801H2.7451Z" fill="black"/>
<path d="M8.82115 14.3252H6.07604C5.80722 14.3252 5.58984 14.1077 5.58984 13.839V11.0939C5.58984 10.8252 5.80722 10.6077 6.07604 10.6077H8.82115C9.08992 10.6077 9.30735 10.8252 9.30735 11.0939V13.839C9.30735 14.1077 9.08992 14.3252 8.82115 14.3252ZM8.33498 11.5801H6.56176V13.3533H8.33498V11.5801Z" fill="black"/>
<path d="M14.411 14.3252H11.6659C11.3971 14.3252 11.1797 14.1077 11.1797 13.839V11.0939C11.1797 10.8252 11.3971 10.6077 11.6659 10.6077H14.411C14.6798 10.6077 14.8972 10.8252 14.8972 11.0939V13.839C14.8972 14.1077 14.6798 14.3252 14.411 14.3252ZM13.9252 11.5801H12.1521V13.3533H13.9252V11.5801Z" fill="black"/>
<path d="M3.2313 9.021H0.4862C0.217554 9.021 0 8.80449 0 8.53581V5.78963C0 5.5214 0.217554 5.30445 0.4862 5.30445H3.2313C3.50007 5.30445 3.7175 5.5214 3.7175 5.78963V8.53581C3.7175 8.80449 3.50007 9.021 3.2313 9.021ZM2.7451 6.27586H0.97198V8.04952H2.74513V6.27586H2.7451Z" fill="black"/>
<path d="M8.82115 9.021H6.07604C5.80722 9.021 5.58984 8.80449 5.58984 8.53581V5.78963C5.58984 5.5214 5.80722 5.30445 6.07604 5.30445H8.82115C9.08992 5.30445 9.30735 5.5214 9.30735 5.78963V8.53581C9.30735 8.80449 9.08992 9.021 8.82115 9.021Z" fill="black"/>
<path d="M14.411 9.021H11.6659C11.3971 9.021 11.1797 8.80449 11.1797 8.53581V5.78963C11.1797 5.5214 11.3971 5.30445 11.6659 5.30445H14.411C14.6798 5.30445 14.8972 5.5214 14.8972 5.78963V8.53581C14.8972 8.80449 14.6798 9.021 14.411 9.021ZM13.9252 6.27586H12.1521V8.04952H13.9252V6.27586Z" fill="black"/>
<path d="M3.2313 3.71765H0.4862C0.217554 3.71765 0 3.50016 0 3.23148V0.486377C0 0.217671 0.217554 0.000176668 0.4862 0.000176668H3.2313C3.50007 0.000176668 3.7175 0.217671 3.7175 0.486377V3.23148C3.7175 3.50016 3.50007 3.71765 3.2313 3.71765ZM2.7451 0.972068H0.97198V2.74528H2.74513V0.972068H2.7451Z" fill="black"/>
<path d="M8.82115 3.71765H6.07604C5.80722 3.71765 5.58984 3.50016 5.58984 3.23145V0.486347C5.58984 0.217641 5.80722 0.000146627 6.07604 0.000146627H8.82115C9.08992 0.000146627 9.30735 0.217641 9.30735 0.486347V3.23145C9.30735 3.50016 9.08992 3.71765 8.82115 3.71765ZM8.33498 0.972068H6.56176V2.74528H8.33498V0.972068Z" fill="black"/>
<path d="M14.411 3.71765H11.6659C11.3971 3.71765 11.1797 3.50016 11.1797 3.23145V0.486347C11.1797 0.217641 11.3971 0.000146627 11.6659 0.000146627H14.411C14.6798 0.000146627 14.8972 0.217641 14.8972 0.486347V3.23145C14.8972 3.50016 14.6798 3.71765 14.411 3.71765ZM13.9252 0.972068H12.1521V2.74528H13.9252V0.972068Z" fill="black"/>
</svg>
