<svg width="20" height="18" viewBox="0 0 20 18" fill="none" xmlns="http://www.w3.org/2000/svg">
<path d="M17.7345 3.04708C18.5746 3.04708 19.258 2.36364 19.258 1.52354C19.258 0.683445 18.5746 0 17.7345 0C16.8944 0 16.2109 0.683445 16.2109 1.52354C16.2109 2.36364 16.8944 3.04708 17.7345 3.04708ZM17.7345 0.585977C18.2514 0.585977 18.672 1.00659 18.672 1.52354C18.672 2.04049 18.2514 2.4611 17.7345 2.4611C17.2175 2.4611 16.7969 2.04049 16.7969 1.52354C16.7969 1.00659 17.2175 0.585977 17.7345 0.585977Z" fill="black"/>
<path d="M17.7341 3.45703H17.7155C16.482 3.45703 15.4785 4.46054 15.4785 5.69398V5.86891C15.4785 6.42024 15.9271 6.86883 16.4784 6.86883H18.9711C19.529 6.86883 20.0003 6.40071 20.0003 5.84657V5.69031C20.0003 4.45886 18.9837 3.45703 17.7341 3.45703ZM19.4144 5.84653C19.4144 6.07487 19.2031 6.28281 18.9711 6.28281H16.4784C16.2502 6.28281 16.0645 6.09713 16.0645 5.86888V5.69394C16.0645 4.78361 16.8051 4.04297 17.7155 4.04297H17.7341C18.6606 4.04297 19.4144 4.78193 19.4144 5.69023V5.84653Z" fill="black"/>
<path d="M19.258 11.836C19.258 10.9959 18.5746 10.3125 17.7345 10.3125C16.8944 10.3125 16.2109 10.9959 16.2109 11.836C16.2109 12.6761 16.8944 13.3596 17.7345 13.3596C18.5746 13.3596 19.258 12.6761 19.258 11.836ZM16.7969 11.836C16.7969 11.3191 17.2175 10.8985 17.7345 10.8985C18.2514 10.8985 18.672 11.3191 18.672 11.836C18.672 12.353 18.2514 12.7736 17.7345 12.7736C17.2175 12.7736 16.7969 12.353 16.7969 11.836Z" fill="black"/>
<path d="M17.7341 13.7695H17.7155C16.482 13.7695 15.4785 14.773 15.4785 16.0065V16.1814C15.4785 16.7327 15.9271 17.1813 16.4784 17.1813H18.9711C19.529 17.1813 20.0003 16.7132 20.0003 16.1591V16.0028C20.0003 14.7714 18.9837 13.7695 17.7341 13.7695ZM19.4144 16.159C19.4144 16.3874 19.2031 16.5953 18.9711 16.5953H16.4784C16.2502 16.5953 16.0645 16.4096 16.0645 16.1814V16.0064C16.0645 15.0961 16.8051 14.3555 17.7155 14.3555H17.7341C18.6606 14.3555 19.4144 15.0944 19.4144 16.0027V16.159Z" fill="black"/>
<path d="M11.3094 1.19141H7.40285C5.42783 1.19141 3.56923 1.96271 2.16937 3.36323C0.7706 4.76262 0.000351587 6.61982 3.90652e-05 8.59312C3.90652e-05 8.59351 0 8.59386 0 8.59425C0 8.59449 3.90652e-05 8.59472 3.90652e-05 8.59496C3.90652e-05 8.59597 0 8.59695 0 8.59796C0.00105476 10.7549 0.964793 12.8054 2.64405 14.2238C2.76703 14.3278 2.95212 14.3131 3.05693 14.189C3.16135 14.0654 3.14576 13.8805 3.02216 13.7761C1.55038 12.533 0.675828 10.7645 0.593048 8.88724H3.9189C4.06825 10.6785 5.57362 12.0906 7.40285 12.0906H8.6334V15.4111H7.46434C6.29461 15.4111 5.13422 15.1065 4.10852 14.5302C3.9675 14.4509 3.78881 14.501 3.70959 14.642C3.63033 14.7831 3.68041 14.9618 3.82147 15.041C4.9346 15.6665 6.19429 15.9971 7.46434 15.9971H11.3094C11.4712 15.9971 11.6024 15.866 11.6024 15.7041V11.7976C11.6024 11.6357 11.4712 11.5046 11.3094 11.5046H7.40285C5.79809 11.5046 4.4925 10.199 4.4925 8.59425C4.4925 7.86752 4.76181 7.17173 5.25075 6.63498C5.35974 6.51536 5.35111 6.33004 5.23149 6.22108C5.11191 6.11209 4.92659 6.12076 4.8176 6.24034C4.29615 6.81269 3.98324 7.53563 3.91929 8.30126H0.592502C0.664538 6.5938 1.36486 4.99698 2.58381 3.77744C3.87304 2.4877 5.58444 1.77738 7.40285 1.77738H8.6334V5.09792H7.40285C6.93102 5.09792 6.4731 5.19039 6.04182 5.37282C5.89283 5.43583 5.82306 5.60776 5.88615 5.75679C5.94916 5.90583 6.12108 5.97552 6.27012 5.91247C6.62877 5.76078 7.00989 5.68386 7.40285 5.68386H11.3094C11.4712 5.68386 11.6024 5.55272 11.6024 5.39087V1.48439C11.6024 1.32255 11.4712 1.19141 11.3094 1.19141ZM11.0164 15.4111H9.21938V12.0906H11.0164V15.4111ZM11.0164 5.09792H9.21938V1.77738H11.0164V5.09792Z" fill="black"/>
<path d="M12.4414 1.77738H14.5509C14.7128 1.77738 14.8439 1.64624 14.8439 1.48439C14.8439 1.32255 14.7128 1.19141 14.5509 1.19141H12.4414C12.2796 1.19141 12.1484 1.32255 12.1484 1.48439C12.1484 1.64624 12.2796 1.77738 12.4414 1.77738Z" fill="black"/>
<path d="M12.2266 5.39064C12.2266 5.55249 12.3577 5.68363 12.5196 5.68363H14.1603C14.3221 5.68363 14.4533 5.55249 14.4533 5.39064C14.4533 5.2288 14.3221 5.09766 14.1603 5.09766H12.5196C12.3577 5.09766 12.2266 5.2288 12.2266 5.39064Z" fill="black"/>
<path d="M14.3945 3.43752C14.3945 3.59937 14.5257 3.73051 14.6875 3.73051H15.5274C15.6893 3.73051 15.8204 3.59937 15.8204 3.43752C15.8204 3.27567 15.6893 3.14453 15.5274 3.14453H14.6875C14.5257 3.14453 14.3945 3.27567 14.3945 3.43752Z" fill="black"/>
<path d="M13.4376 3.73051C13.5994 3.73051 13.7306 3.59937 13.7306 3.43752C13.7306 3.27567 13.5994 3.14453 13.4376 3.14453H12.6758C12.514 3.14453 12.3828 3.27567 12.3828 3.43752C12.3828 3.59937 12.514 3.73051 12.6758 3.73051H13.4376Z" fill="black"/>
<path d="M14.5509 15.4102H12.4414C12.2796 15.4102 12.1484 15.5413 12.1484 15.7031C12.1484 15.865 12.2796 15.9961 12.4414 15.9961H14.5509C14.7128 15.9961 14.8439 15.865 14.8439 15.7031C14.8439 15.5413 14.7128 15.4102 14.5509 15.4102Z" fill="black"/>
<path d="M14.4533 11.7969C14.4533 11.635 14.3221 11.5039 14.1603 11.5039H12.5196C12.3577 11.5039 12.2266 11.635 12.2266 11.7969C12.2266 11.9587 12.3577 12.0899 12.5196 12.0899H14.1603C14.3221 12.0899 14.4533 11.9587 14.4533 11.7969Z" fill="black"/>
<path d="M14.2969 14.043H15.5274C15.6893 14.043 15.8204 13.9119 15.8204 13.75C15.8204 13.5882 15.6893 13.457 15.5274 13.457H14.2969C14.135 13.457 14.0039 13.5882 14.0039 13.75C14.0039 13.9119 14.135 14.043 14.2969 14.043Z" fill="black"/>
<path d="M12.6758 13.457C12.514 13.457 12.3828 13.5882 12.3828 13.75C12.3828 13.9119 12.514 14.043 12.6758 14.043H13.0469C13.2088 14.043 13.3399 13.9119 13.3399 13.75C13.3399 13.5882 13.2088 13.457 13.0469 13.457H12.6758Z" fill="black"/>
</svg>
