<svg width="9" height="9" viewBox="0 0 9 9" fill="none" xmlns="http://www.w3.org/2000/svg">
<path d="M3.6976 7.82812H4.30799C4.36225 7.82812 4.38938 7.801 4.38938 7.74674V0.584746C4.38938 0.530488 4.36225 0.503359 4.30799 0.503359H3.6976C3.64334 0.503359 3.61621 0.530488 3.61621 0.584746V7.74674C3.61621 7.801 3.64334 7.82812 3.6976 7.82812Z" fill="#E9E9E9" stroke="#E9E9E9"/>
<path d="M0.585293 4.55103H7.42174C7.476 4.55103 7.50313 4.5239 7.50313 4.46964V3.85924C7.50313 3.80498 7.476 3.77786 7.42174 3.77786H0.585293C0.531035 3.77786 0.503906 3.80498 0.503906 3.85924V4.46964C0.503906 4.5239 0.531035 4.55103 0.585293 4.55103Z" fill="#E9E9E9" stroke="#E9E9E9"/>
</svg>
