<svg width="20" height="19" viewBox="0 0 20 19" fill="none" xmlns="http://www.w3.org/2000/svg">
<path d="M7.12598 9.87404C7.12598 10.8619 7.92967 11.6656 8.91751 11.6656C9.90535 11.6656 10.709 10.8619 10.709 9.87404C10.709 9.25371 10.392 8.70616 9.9116 8.38448C10.2461 8.1015 10.4591 7.67903 10.4591 7.20757C10.4591 6.35755 9.76753 5.66602 8.91751 5.66602C8.06749 5.66602 7.37596 6.35755 7.37596 7.20757C7.37596 7.67903 7.5889 8.10146 7.92342 8.38448C7.44304 8.70612 7.12598 9.25371 7.12598 9.87404ZM8.04258 7.20757C8.04258 6.7251 8.43509 6.33263 8.91751 6.33263C9.39993 6.33263 9.79244 6.7251 9.79244 7.20757C9.79244 7.69003 9.39993 8.0825 8.91751 8.0825C8.43509 8.0825 8.04258 7.68999 8.04258 7.20757ZM8.91751 8.74912C9.5378 8.74912 10.0424 9.25375 10.0424 9.87404C10.0424 10.4943 9.5378 10.999 8.91751 10.999C8.29722 10.999 7.79259 10.4943 7.79259 9.87404C7.79259 9.25375 8.29726 8.74912 8.91751 8.74912Z" fill="black"/>
<path d="M5.55342 11.6671C5.73749 11.6671 5.88673 11.5179 5.88673 11.3338V6.29254C5.88673 6.06306 5.65983 5.90249 5.44397 5.97773L4.72494 6.22772C4.55103 6.28817 4.45912 6.47811 4.51954 6.65198C4.58003 6.82584 4.76993 6.91779 4.94384 6.85734L5.22011 6.7613V11.3338C5.22011 11.5179 5.36935 11.6671 5.55342 11.6671Z" fill="black"/>
<path d="M12.5422 7.45898C12.3582 7.45898 12.2089 7.60822 12.2089 7.79229V8.08394H11.9173C11.7332 8.08394 11.584 8.23318 11.584 8.41725C11.584 8.60132 11.7332 8.75056 11.9173 8.75056H12.2089V9.0422C12.2089 9.22627 12.3582 9.37551 12.5422 9.37551C12.7263 9.37551 12.8756 9.22627 12.8756 9.0422V8.75056H13.1672C13.3513 8.75056 13.5005 8.60132 13.5005 8.41725C13.5005 8.23318 13.3513 8.08394 13.1672 8.08394H12.8756V7.79229C12.8756 7.60818 12.7263 7.45898 12.5422 7.45898Z" fill="black"/>
<path d="M15.0394 10.3172C16.1343 6.1964 12.9425 2.08367 8.66751 2.08367C5.05128 2.08367 2.08466 5.05103 2.08466 8.66651C2.08466 12.9189 6.11628 16.0738 10.2266 15.0604C10.4054 15.0163 10.5145 14.8357 10.4705 14.657C10.4264 14.4782 10.2459 14.3692 10.0671 14.4131C6.36459 15.3261 2.75128 12.4758 2.75128 8.66647C2.75128 5.40425 5.40529 2.75024 8.66751 2.75024C12.6119 2.75024 15.582 6.67295 14.2784 10.5314C12.0785 11.3824 11.0349 13.8533 11.8709 15.9877C10.8576 16.4374 9.78167 16.6659 8.66755 16.6659C4.25667 16.6659 0.668143 13.0773 0.668143 8.66647C0.668143 4.25559 4.25667 0.667064 8.66755 0.667064C13.1388 0.667064 16.9341 4.4742 16.6525 9.14548C16.6415 9.32925 16.7814 9.48716 16.9652 9.49824C17.1492 9.50953 17.3069 9.36933 17.3179 9.1856C17.5398 5.5057 15.3905 2.17991 12.1535 0.740267C9.01777 -0.654254 5.19514 -0.0935873 2.5513 2.55026C-0.849702 5.9513 -0.851161 11.3803 2.5513 14.7828C5.21497 17.4464 9.17409 18.0638 12.4537 16.4519C12.6205 16.3699 12.6858 16.1696 12.6063 16.0068C11.4687 13.6715 13.1725 10.9163 15.792 10.9163C17.7447 10.9163 19.3334 12.505 19.3334 14.4577C19.3334 16.4105 17.7447 17.9991 15.792 17.9991C15.1529 17.9991 14.5266 17.8271 13.9809 17.5017C13.8227 17.4074 13.6181 17.4591 13.5239 17.6172C13.4296 17.7753 13.4813 17.9799 13.6394 18.0742C14.2883 18.4612 15.0326 18.6658 15.792 18.6658C18.1123 18.6658 20 16.778 20 14.4577C20 11.848 17.6303 9.84755 15.0394 10.3172Z" fill="black"/>
<path d="M15.5894 15.8403L17.3608 14.069C17.491 13.9388 17.491 13.7278 17.3608 13.5976C17.2306 13.4675 17.0197 13.4674 16.8894 13.5976L15.3594 15.1276L14.7415 14.4796C14.6145 14.3464 14.4036 14.3413 14.2703 14.4684C14.1371 14.5954 14.132 14.8064 14.259 14.9396L15.1124 15.8347C15.2409 15.9693 15.4561 15.9735 15.5894 15.8403Z" fill="black"/>
</svg>
