<svg width="94" height="115" viewBox="0 0 94 115" fill="none" xmlns="http://www.w3.org/2000/svg">
<path d="M68.9053 0C69.1725 0 69.4398 0 69.7222 0C70.3777 8.0982 67.2867 14.1492 63.53 18.5311C59.844 22.8827 54.7965 27.1033 46.6327 26.4629C46.0881 18.4806 49.1842 12.8785 52.9358 8.50664C56.4151 4.43233 62.7938 0.806794 68.9053 0Z" fill="black"/>
<path d="M93.6184 84.2896C93.6184 84.3703 93.6184 84.4409 93.6184 84.5165C91.3241 91.465 88.0515 97.4202 84.0579 102.947C80.4122 107.964 75.9446 114.716 67.9674 114.716C61.0743 114.716 56.4958 110.284 49.4313 110.162C41.9584 110.041 37.8487 113.869 31.0162 114.832C30.2346 114.832 29.453 114.832 28.6866 114.832C23.6693 114.106 19.6202 110.132 16.6704 106.552C7.97214 95.973 1.25053 82.3079 0 64.8206C0 63.1062 0 61.3968 0 59.6824C0.529459 47.167 6.61067 36.9913 14.6937 32.0597C18.9597 29.4377 24.8241 27.2038 31.354 28.2023C34.1526 28.6359 37.0117 29.594 39.5178 30.542C41.8928 31.4546 44.8628 33.0733 47.6765 32.9876C49.5826 32.9321 51.4785 31.9387 53.3997 31.2378C59.0271 29.2057 64.5436 26.8761 71.8148 27.9703C80.5534 29.2914 86.7556 33.1741 90.5879 39.1646C83.1956 43.8692 77.3514 50.9589 78.3498 63.0659C79.2373 74.0635 85.6311 80.4977 93.6184 84.2896Z" fill="black"/>
</svg>
