<svg width="98" height="43" viewBox="0 0 98 43" fill="none" xmlns="http://www.w3.org/2000/svg">
<g clip-path="url(#clip0_1219_2)">
<path d="M76.3 42.6C88.0445 42.6 97.6 33.0445 97.6 21.3C97.6 9.55547 88.0445 0 76.3 0C64.5555 0 55 9.55547 55 21.3C55 33.0445 64.5555 42.6 76.3 42.6ZM76.3 2.12826C86.8718 2.12826 95.4717 10.7282 95.4717 21.3C95.4717 31.8718 86.8718 40.4717 76.3 40.4717C65.7282 40.4717 57.1283 31.8718 57.1283 21.3C57.1283 10.7282 65.7282 2.12826 76.3 2.12826Z" fill="black"/>
<path d="M67.0489 22.3685H82.9805L78.8109 26.5381C78.3939 26.9551 78.3939 27.624 78.8109 28.0409C79.0193 28.2494 79.2886 28.3537 79.5666 28.3537C79.8446 28.3537 80.1139 28.2494 80.3224 28.0409L86.3075 22.0557C86.7245 21.6388 86.7245 20.9699 86.3075 20.5529L80.3224 14.5677C79.9054 14.1508 79.2365 14.1508 78.8195 14.5677C78.4026 14.9847 78.4026 15.6536 78.8195 16.0705L82.9892 20.2402H67.0489C66.4582 20.2402 65.9805 20.718 65.9805 21.3087C65.9805 21.8994 66.4582 22.3685 67.0489 22.3685Z" fill="black"/>
</g>
<g clip-path="url(#clip1_1219_2)">
<rect width="42.6" height="42.6" transform="matrix(-1 0 0 1 42.5996 0)" fill="white"/>
<path d="M21.2996 42.6C9.55507 42.6 -0.000396729 33.0445 -0.000396729 21.3C-0.000396729 9.55547 9.55507 0 21.2996 0C33.0441 0 42.5996 9.55547 42.5996 21.3C42.5996 33.0445 33.0441 42.6 21.2996 42.6ZM21.2996 2.12826C10.7278 2.12826 2.12786 10.7282 2.12786 21.3C2.12786 31.8718 10.7278 40.4717 21.2996 40.4717C31.8714 40.4717 40.4713 31.8718 40.4713 21.3C40.4713 10.7282 31.8714 2.12826 21.2996 2.12826Z" fill="black"/>
<path d="M30.5507 22.3685H14.6191L18.7888 26.5381C19.2057 26.9551 19.2057 27.624 18.7888 28.0409C18.5803 28.2494 18.311 28.3537 18.033 28.3537C17.755 28.3537 17.4857 28.2494 17.2773 28.0409L11.2921 22.0557C10.8751 21.6388 10.8751 20.9699 11.2921 20.5529L17.2773 14.5677C17.6942 14.1508 18.3631 14.1508 18.7801 14.5677C19.197 14.9847 19.197 15.6536 18.7801 16.0705L14.6104 20.2402H30.5507C31.1414 20.2402 31.6191 20.718 31.6191 21.3087C31.6191 21.8994 31.1414 22.3685 30.5507 22.3685Z" fill="black"/>
</g>
<defs>
<clipPath id="clip0_1219_2">
<rect width="42.6" height="42.6" fill="white" transform="translate(55)"/>
</clipPath>
<clipPath id="clip1_1219_2">
<rect width="42.6" height="42.6" fill="white" transform="matrix(-1 0 0 1 42.5996 0)"/>
</clipPath>
</defs>
</svg>
