<svg width="43" height="43" viewBox="0 0 43 43" fill="none" xmlns="http://www.w3.org/2000/svg">
<circle cx="21.6" cy="21.5996" r="20" transform="rotate(-180 21.6 21.5996)" fill="white"/>
<path d="M21.3 -0.000389099C9.55548 -0.000389099 -2.28882e-05 9.55511 -2.28882e-05 21.2996C-2.28882e-05 33.0441 9.55548 42.5996 21.3 42.5996C33.0445 42.5996 42.6 33.0441 42.6 21.2996C42.6 9.55511 33.0445 -0.000389099 21.3 -0.000389099ZM21.3 40.4713C10.7282 40.4713 2.12828 31.8714 2.12828 21.2996C2.12828 10.7278 10.7282 2.12791 21.3 2.12791C31.8718 2.12791 40.4717 10.7278 40.4717 21.2996C40.4717 31.8714 31.8718 40.4713 21.3 40.4713Z" fill="black"/>
<path d="M30.5511 20.2303H14.6195L18.7891 16.0606C19.2061 15.6437 19.2061 14.9748 18.7891 14.5578C18.5807 14.3493 18.3114 14.2451 18.0334 14.2451C17.7554 14.2451 17.4861 14.3493 17.2776 14.5578L11.2925 20.543C10.8755 20.96 10.8755 21.6289 11.2925 22.0458L17.2776 28.031C17.6946 28.448 18.3635 28.448 18.7805 28.031C19.1974 27.6141 19.1974 26.9452 18.7805 26.5282L14.6108 22.3585H30.5511C31.1418 22.3585 31.6195 21.8808 31.6195 21.2901C31.6195 20.6994 31.1418 20.2303 30.5511 20.2303Z" fill="black"/>
</svg>
