<svg width="43" height="43" viewBox="0 0 43 43" fill="none" xmlns="http://www.w3.org/2000/svg">
<circle cx="21" cy="21" r="20" fill="white"/>
<path d="M21.3 42.6C33.0445 42.6 42.6 33.0445 42.6 21.3C42.6 9.55547 33.0445 0 21.3 0C9.55547 0 0 9.55547 0 21.3C0 33.0445 9.55547 42.6 21.3 42.6ZM21.3 2.12826C31.8718 2.12826 40.4717 10.7282 40.4717 21.3C40.4717 31.8718 31.8718 40.4717 21.3 40.4717C10.7282 40.4717 2.12826 31.8718 2.12826 21.3C2.12826 10.7282 10.7282 2.12826 21.3 2.12826Z" fill="black"/>
<path d="M12.0489 22.3693H27.9805L23.8109 26.539C23.3939 26.9559 23.3939 27.6248 23.8109 28.0418C24.0193 28.2503 24.2886 28.3545 24.5666 28.3545C24.8446 28.3545 25.1139 28.2503 25.3224 28.0418L31.3075 22.0566C31.7245 21.6396 31.7245 20.9707 31.3075 20.5538L25.3224 14.5686C24.9054 14.1516 24.2365 14.1516 23.8195 14.5686C23.4026 14.9855 23.4026 15.6544 23.8195 16.0714L27.9892 20.2411H12.0489C11.4582 20.2411 10.9805 20.7188 10.9805 21.3095C10.9805 21.9002 11.4582 22.3693 12.0489 22.3693Z" fill="black"/>
</svg>
