<svg width="37" height="26" viewBox="0 0 37 26" fill="none" xmlns="http://www.w3.org/2000/svg">
<path d="M36.2567 9.91071C35.8463 9.91071 35.5134 10.2437 35.5134 10.654V14.0402H1.48661V0.743304C1.48661 0.332938 1.15367 0 0.743304 0C0.332938 0 0 0.332938 0 0.743304V24.6942C0 25.1046 0.332938 25.4375 0.743304 25.4375C1.15367 25.4375 1.48661 25.1046 1.48661 24.6942V19.6562H35.5134V24.6942C35.5134 25.1046 35.8463 25.4375 36.2567 25.4375C36.6671 25.4375 37 25.1046 37 24.6942V10.654C37 10.2437 36.6671 9.91071 36.2567 9.91071ZM1.48661 18.1696V15.5268H35.5134V18.1696H1.48661Z" fill="#4E337A"/>
<path d="M7.73438 13.043C9.96945 13.043 11.7812 11.2312 11.7812 8.99609C11.7812 6.76102 9.96945 4.94922 7.73438 4.94922C5.4993 4.94922 3.6875 6.76102 3.6875 8.99609C3.69008 11.2304 5.50059 13.0404 7.73438 13.043ZM7.73438 6.43583C9.1482 6.43583 10.2946 7.58227 10.2946 8.99609C10.2946 10.4102 9.1482 11.5564 7.73438 11.5564C6.32029 11.5564 5.17411 10.4102 5.17411 8.99609C5.17566 7.58278 6.32107 6.43763 7.73438 6.43583Z" fill="#4E337A"/>
<path d="M13.8253 13.0544H32.8209C33.2317 13.0544 33.5642 12.7215 33.5642 12.3111C33.5595 7.7976 29.9016 4.13993 25.3878 4.13477H13.8253C13.415 4.13477 13.082 4.4677 13.082 4.87807V12.3111C13.082 12.7215 13.415 13.0544 13.8253 13.0544ZM14.5686 5.62137H25.3878C28.7933 5.62602 31.6538 8.18396 32.0363 11.5678H14.5686V5.62137Z" fill="#4E337A"/>
</svg>
