<svg width="23" height="22" viewBox="0 0 23 22" fill="none" xmlns="http://www.w3.org/2000/svg">
<path d="M22.6167 19.9336C21.8227 19.9336 21.4075 20.1625 21.0414 20.3647C20.7146 20.5447 20.4324 20.7003 19.836 20.7003C19.2393 20.7003 18.957 20.5447 18.6302 20.3645C18.2641 20.1625 17.8486 19.9336 17.0549 19.9336C16.2617 19.9336 15.8466 20.1625 15.4804 20.3647C15.154 20.5447 14.8721 20.7003 14.2762 20.7003C13.6798 20.7003 13.3979 20.5447 13.0715 20.3647C12.705 20.1625 12.2899 19.9336 11.4962 19.9336C10.703 19.9336 10.2878 20.1625 9.92171 20.3647C9.59527 20.5447 9.31338 20.7003 8.71745 20.7003C8.12187 20.7003 7.83999 20.5447 7.5139 20.3647C7.14779 20.1627 6.73262 19.9336 5.93939 19.9336C5.14616 19.9336 4.73099 20.1627 4.36488 20.3647C4.03884 20.5447 3.75695 20.7003 3.16133 20.7003C2.56571 20.7003 2.28387 20.5447 1.95779 20.3647C1.59167 20.1627 1.1765 19.9336 0.383273 19.9336C0.171467 19.9336 0 20.1052 0 20.3169C0 20.5286 0.171467 20.7002 0.383318 20.7002C0.979297 20.7002 1.26118 20.8558 1.58722 21.0358C1.95334 21.238 2.3681 21.4669 3.16138 21.4669C3.95465 21.4669 4.36942 21.238 4.73553 21.0358C5.06157 20.8558 5.34346 20.7002 5.93944 20.7002C6.53541 20.7002 6.8173 20.8558 7.14334 21.0358C7.50946 21.238 7.92422 21.4669 8.71749 21.4669C9.51113 21.4669 9.92625 21.2378 10.2924 21.0358C10.6188 20.8558 10.9003 20.7002 11.4963 20.7002C12.0926 20.7002 12.3745 20.8558 12.7009 21.0358C13.0674 21.238 13.4826 21.4669 14.2762 21.4669C15.0699 21.4669 15.485 21.2378 15.8511 21.0358C16.1775 20.8558 16.459 20.7002 17.055 20.7002C17.6513 20.7002 17.9336 20.8558 18.2604 21.0358C18.6265 21.238 19.042 21.4669 19.836 21.4669C20.63 21.4669 21.0452 21.238 21.4113 21.0358C21.7381 20.8558 22.0203 20.7002 22.6167 20.7002C22.8286 20.7002 23 20.5286 23 20.3169C23 20.1052 22.8285 19.9336 22.6167 19.9336Z" fill="#333333"/>
<path d="M22.6167 16.8711C21.8227 16.8711 21.4076 17.1 21.0415 17.3022C20.7146 17.4822 20.4324 17.6378 19.8361 17.6378C19.2394 17.6378 18.9571 17.4822 18.6303 17.302C18.2642 17.1 17.8486 16.8711 17.055 16.8711C16.2618 16.8711 15.8466 17.1 15.4805 17.3022C15.154 17.4822 14.8722 17.6378 14.2762 17.6378C13.6799 17.6378 13.398 17.4822 13.0715 17.3022C12.7051 17.1 12.2899 16.8711 11.4963 16.8711C10.703 16.8711 10.2879 17.1 9.92176 17.3022C9.59531 17.4822 9.31343 17.6378 8.71749 17.6378C8.12192 17.6378 7.84004 17.4822 7.51395 17.3022C7.14783 17.1002 6.73267 16.8711 5.93944 16.8711C5.14621 16.8711 4.73104 17.1002 4.36492 17.3022C4.03888 17.4822 3.757 17.6378 3.16138 17.6378C2.56576 17.6378 2.28392 17.4822 1.95783 17.3022C1.59172 17.1002 1.17655 16.8711 0.383318 16.8711C0.171422 16.8711 0 17.0427 0 17.2544C0 17.4661 0.171467 17.6377 0.383318 17.6377C0.979297 17.6377 1.26118 17.7933 1.58722 17.9733C1.95334 18.1755 2.3681 18.4044 3.16138 18.4044C3.95465 18.4044 4.36942 18.1755 4.73553 17.9733C5.06157 17.7933 5.34346 17.6377 5.93944 17.6377C6.53541 17.6377 6.8173 17.7933 7.14334 17.9733C7.50946 18.1755 7.92422 18.4044 8.71749 18.4044C9.51113 18.4044 9.92625 18.1753 10.2924 17.9733C10.6188 17.7933 10.9003 17.6377 11.4963 17.6377C12.0926 17.6377 12.3745 17.7933 12.7009 17.9733C13.0674 18.1755 13.4826 18.4044 14.2762 18.4044C15.0699 18.4044 15.485 18.1753 15.8511 17.9733C16.1775 17.7933 16.459 17.6377 17.055 17.6377C17.6513 17.6377 17.9336 17.7933 18.2604 17.9733C18.6265 18.1755 19.042 18.4044 19.836 18.4044C20.63 18.4044 21.0452 18.1755 21.4113 17.9733C21.7381 17.7933 22.0203 17.6377 22.6167 17.6377C22.8286 17.6377 23 17.4661 23 17.2544C23 17.0427 22.8286 16.8711 22.6167 16.8711Z" fill="#333333"/>
<path d="M0.383318 14.5733C0.979297 14.5733 1.26118 14.7288 1.58722 14.9089C1.95334 15.111 2.3681 15.34 3.16138 15.34C3.95465 15.34 4.36942 15.111 4.73553 14.9089C5.06157 14.7288 5.34346 14.5733 5.93944 14.5733C6.53541 14.5733 6.8173 14.7288 7.14334 14.9089C7.50946 15.111 7.92422 15.34 8.71749 15.34C9.51113 15.34 9.92625 15.1109 10.2924 14.9089C10.6188 14.7288 10.9003 14.5733 11.4963 14.5733C12.0926 14.5733 12.3745 14.7288 12.7009 14.9089C13.0674 15.111 13.4826 15.34 14.2762 15.34C15.0699 15.34 15.485 15.1109 15.8511 14.9089C16.1775 14.7288 16.459 14.5733 17.055 14.5733C17.6513 14.5733 17.9336 14.7288 18.2604 14.9089C18.6265 15.111 19.042 15.34 19.836 15.34C20.63 15.34 21.0452 15.111 21.4113 14.9089C21.7381 14.7288 22.0203 14.5733 22.6167 14.5733C22.8286 14.5733 23 14.4016 23 14.19C23 13.9782 22.8285 13.8066 22.6167 13.8066C21.8227 13.8066 21.4075 14.0356 21.0414 14.2377C20.7146 14.4178 20.4324 14.5733 19.836 14.5733C19.2393 14.5733 18.957 14.4178 18.6302 14.2375C18.2641 14.0356 17.8486 13.8066 17.0549 13.8066C16.2617 13.8066 15.8466 14.0356 15.4804 14.2377C15.154 14.4178 14.8721 14.5733 14.2762 14.5733C13.6798 14.5733 13.3979 14.4178 13.0715 14.2377C12.705 14.0356 12.2899 13.8066 11.4962 13.8066C10.703 13.8066 10.2878 14.0356 9.92171 14.2377C9.59527 14.4178 9.31338 14.5733 8.71745 14.5733C8.12187 14.5733 7.83999 14.4178 7.5139 14.2377C7.14779 14.0357 6.73262 13.8066 5.93939 13.8066C5.14616 13.8066 4.73099 14.0357 4.36488 14.2377C4.03884 14.4178 3.75695 14.5733 3.16133 14.5733C2.56571 14.5733 2.28387 14.4178 1.95779 14.2377C1.59167 14.0357 1.1765 13.8066 0.383273 13.8066C0.171467 13.8066 0 13.9782 0 14.19C0 14.4017 0.171467 14.5733 0.383318 14.5733Z" fill="#333333"/>
<path d="M13.1681 11.1292C14.5761 10.5993 15.7635 11.1943 16.2101 12.0551C16.2783 12.1862 16.4119 12.262 16.5508 12.262C16.605 12.262 16.6601 12.2505 16.7125 12.226C16.8985 12.1394 16.9831 11.9213 16.9045 11.7315C16.4205 10.5663 16.8386 9.08413 17.8561 8.3573C18.0283 8.23412 18.0684 7.99473 17.9452 7.82255C17.822 7.65036 17.5824 7.61065 17.4106 7.73329C16.4916 8.38969 15.9559 9.52868 15.9417 10.6641C15.1675 10.1548 14.0879 9.96424 12.8986 10.4116C12.7001 10.4861 12.5998 10.7071 12.6747 10.9054C12.7492 11.1037 12.9712 11.2029 13.1681 11.1292Z" fill="#333333"/>
<path d="M18.9788 9.71991C19.3913 9.47639 19.969 9.53816 20.322 9.8633C20.395 9.9305 20.4882 9.96473 20.5818 9.96473C20.6548 9.96473 20.7281 9.94394 20.7925 9.90148C20.9396 9.80472 21.0018 9.62014 20.9434 9.45415C20.7626 8.94092 20.9277 8.30977 21.3357 7.95358C21.4952 7.81432 21.5116 7.57211 21.3724 7.41263C21.2331 7.2528 20.9909 7.23667 20.8318 7.37593C20.3972 7.75534 20.1412 8.31444 20.1075 8.88661C19.6066 8.7376 19.0462 8.78985 18.5888 9.05992C18.4065 9.16755 18.3462 9.40263 18.4536 9.58497C18.5614 9.76748 18.7961 9.82754 18.9788 9.71991Z" fill="#333333"/>
<path d="M6.89969 8.44C8.59064 8.44 9.96637 7.06427 9.96637 5.37332C9.96637 3.68237 8.59064 2.30664 6.89969 2.30664C5.20874 2.30664 3.83301 3.68237 3.83301 5.37332C3.83301 7.06427 5.20874 8.44 6.89969 8.44ZM6.89969 3.07332C8.16797 3.07332 9.19969 4.10504 9.19969 5.37332C9.19969 6.6416 8.16797 7.67332 6.89969 7.67332C5.63141 7.67332 4.59969 6.6416 4.59969 5.37332C4.59969 4.10504 5.63141 3.07332 6.89969 3.07332Z" fill="#333333"/>
<path d="M6.89992 1.91664C7.11182 1.91664 7.28324 1.74499 7.28324 1.53332V0.383318C7.28324 0.171602 7.11177 0 6.89992 0C6.68802 0 6.5166 0.171647 6.5166 0.383318V1.53332C6.5166 1.74504 6.68802 1.91664 6.89992 1.91664Z" fill="#333333"/>
<path d="M6.5166 9.19972V10.3497C6.5166 10.5614 6.68807 10.733 6.89992 10.733C7.11182 10.733 7.28324 10.5614 7.28324 10.3497V9.19972C7.28324 8.98801 7.11177 8.81641 6.89992 8.81641C6.68802 8.81636 6.5166 8.98801 6.5166 9.19972Z" fill="#333333"/>
<path d="M10.3501 5.35793C10.3501 5.56964 10.5216 5.74125 10.7334 5.74125H11.8834C12.0953 5.74125 12.2667 5.5696 12.2667 5.35793C12.2667 5.14626 12.0953 4.97461 11.8834 4.97461H10.7334C10.5216 4.97461 10.3501 5.14626 10.3501 5.35793Z" fill="#333333"/>
<path d="M1.91652 5.74129H3.06652C3.27842 5.74129 3.44984 5.56964 3.44984 5.35797C3.44984 5.1463 3.27837 4.97461 3.06652 4.97461H1.91652C1.70463 4.97461 1.5332 5.14626 1.5332 5.35793C1.5332 5.5696 1.70463 5.74129 1.91652 5.74129Z" fill="#333333"/>
<path d="M9.61089 3.03679C9.70896 3.03679 9.80707 2.99937 9.8819 2.92448L10.695 2.1114C10.8447 1.96167 10.8447 1.71909 10.695 1.56932C10.5453 1.4196 10.3027 1.4196 10.1529 1.56932L9.33983 2.38241C9.19011 2.53214 9.19011 2.77471 9.33983 2.92448C9.41472 2.99937 9.51278 3.03679 9.61089 3.03679Z" fill="#333333"/>
<path d="M3.91854 7.8135L3.10546 8.62659C2.95573 8.77631 2.95573 9.01889 3.10546 9.16866C3.18034 9.24354 3.27841 9.28096 3.37647 9.28096C3.47454 9.28096 3.57265 9.24354 3.64748 9.16866L4.46057 8.35557C4.6103 8.20585 4.6103 7.96327 4.46057 7.8135C4.31085 7.66373 4.06827 7.66373 3.91854 7.8135Z" fill="#333333"/>
<path d="M9.8819 7.81347C9.73218 7.66374 9.4896 7.66374 9.33983 7.81347C9.19011 7.96319 9.19011 8.20577 9.33983 8.35554L10.1529 9.16862C10.2278 9.24351 10.3259 9.28093 10.4239 9.28093C10.522 9.28093 10.6201 9.24351 10.6949 9.16862C10.8447 9.0189 10.8447 8.77632 10.6949 8.62655L9.8819 7.81347Z" fill="#333333"/>
<path d="M3.91859 2.92448C3.99347 2.99937 4.09154 3.03679 4.1896 3.03679C4.28767 3.03679 4.38578 2.99937 4.46062 2.92448C4.61034 2.77476 4.61034 2.53218 4.46062 2.38241L3.64753 1.56932C3.49781 1.4196 3.25523 1.4196 3.10546 1.56932C2.95573 1.71905 2.95573 1.96163 3.10546 2.1114L3.91859 2.92448Z" fill="#333333"/>
</svg>
