<svg width="28" height="29" viewBox="0 0 28 29" fill="none" xmlns="http://www.w3.org/2000/svg">
<path d="M25.9513 0H2.05078C1.50745 0 0.98638 0.215836 0.602189 0.600027C0.217999 0.984217 0.00216244 1.50529 0.00216244 2.04862V26.2906C-0.0239756 26.8925 0.18768 27.4806 0.591423 27.9277C0.995166 28.3749 1.5586 28.6454 2.16004 28.6807H20.4883C20.5779 28.6818 20.6667 28.6641 20.749 28.6288C20.8314 28.5935 20.9054 28.5414 20.9664 28.4758L27.7951 21.6471C27.8607 21.5861 27.9128 21.5121 27.9481 21.4297C27.9834 21.3474 28.001 21.2586 28 21.1691V2.04862C28 1.50529 27.7841 0.984217 27.3999 0.600027C27.0157 0.215836 26.4947 0 25.9513 0ZM21.1712 26.3452V22.5348C21.1712 22.3537 21.2432 22.18 21.3712 22.0519C21.4993 21.9239 21.673 21.8519 21.8541 21.8519H25.6645L21.1712 26.3452ZM21.8541 20.4862C21.3108 20.4862 20.7897 20.702 20.4055 21.0862C20.0213 21.4704 19.8055 21.9915 19.8055 22.5348V27.3149H2.16004C1.92213 27.2777 1.70749 27.1508 1.56019 26.9604C1.41288 26.7699 1.34408 26.5302 1.36791 26.2906V2.04862C1.36791 1.86751 1.43985 1.69382 1.56792 1.56575C1.69598 1.43769 1.86967 1.36575 2.05078 1.36575H25.9513C26.1324 1.36575 26.3061 1.43769 26.4342 1.56575C26.5623 1.69382 26.6342 1.86751 26.6342 2.04862V20.4862H21.8541Z" fill="black"/>
</svg>
