<svg width="31" height="35" viewBox="0 0 31 35" fill="none" xmlns="http://www.w3.org/2000/svg">
<path d="M23.7059 27.3529V22.7941C23.7059 22.2906 24.1141 21.8824 24.6176 21.8824C25.1212 21.8824 25.5294 22.2906 25.5294 22.7941V27.3529H30.0882C30.5918 27.3529 31 27.7612 31 28.2647C31 28.7683 30.5918 29.1765 30.0882 29.1765H25.5294V33.7353C25.5294 34.2389 25.1212 34.6471 24.6176 34.6471C24.1141 34.6471 23.7059 34.2389 23.7059 33.7353V29.1765H19.1471C18.6435 29.1765 18.2353 28.7683 18.2353 28.2647C18.2353 27.7612 18.6435 27.3529 19.1471 27.3529H23.7059ZM18.3128 17.4423C17.1756 17.9519 15.915 18.2353 14.5882 18.2353C13.2641 18.2353 12.0059 17.953 10.8705 17.4454L3.42695 20.8289C2.45047 21.2727 1.82353 22.2464 1.82353 23.319V24.6177C1.82353 26.1283 3.04816 27.3529 4.55882 27.3529H13.6765C14.18 27.3529 14.5882 27.7612 14.5882 28.2647C14.5882 28.7683 14.18 29.1765 13.6765 29.1765H4.55882C2.04105 29.1765 0 27.1354 0 24.6177V23.319C0 21.5313 1.0449 19.9085 2.67237 19.1688L8.9757 16.3036C6.84205 14.6348 5.47059 12.0364 5.47059 9.11765C5.47059 4.08211 9.5527 0 14.5882 0C19.6238 0 23.7059 4.08211 23.7059 9.11765C23.7059 12.0224 22.3475 14.6099 20.2314 16.2796L24.9762 18.3087C25.4392 18.5068 25.654 19.0426 25.456 19.5056C25.258 19.9686 24.7221 20.1834 24.2591 19.9854L18.3128 17.4423ZM14.5882 16.4118C18.6167 16.4118 21.8824 13.1461 21.8824 9.11765C21.8824 5.08922 18.6167 1.82353 14.5882 1.82353C10.5598 1.82353 7.29412 5.08922 7.29412 9.11765C7.29412 13.1461 10.5598 16.4118 14.5882 16.4118Z" fill="black"/>
</svg>
