<svg width="29" height="41" viewBox="0 0 29 41" fill="none" xmlns="http://www.w3.org/2000/svg">
<path d="M14.0081 29.9545H14.0125C15.9927 29.9533 17.5972 28.3472 17.596 26.3667C17.5947 24.3865 15.9887 22.782 14.0081 22.7832H14.0066C12.0264 22.7838 10.4216 24.3893 10.4219 26.3698C10.4222 28.35 12.0279 29.9551 14.0081 29.9545ZM14.0097 24.0581H14.0109C15.2871 24.0578 16.322 25.0921 16.3223 26.3682C16.3226 27.6444 15.2883 28.6793 14.0122 28.6796H14.0097C14.0091 28.6796 14.0088 28.6678 14.0081 28.6681C12.7407 28.66 11.7173 27.6301 11.7176 26.3623C11.7179 25.0946 12.7423 24.0653 14.0097 24.0581Z" fill="black"/>
<path d="M22.3391 27.6425H22.388C24.3464 27.6294 25.9232 26.0311 25.9098 24.0727C25.8967 22.1146 24.2984 20.5378 22.34 20.5509H22.3385C20.3804 20.5512 18.793 22.1389 18.793 24.097C18.7933 26.0554 20.381 27.6428 22.3391 27.6425ZM22.3419 21.8258H22.3428C22.951 21.8251 23.5346 22.0664 23.9651 22.4962C24.3952 22.9264 24.6371 23.5096 24.6368 24.1181C24.6399 24.717 24.4024 25.2922 23.9778 25.7152C23.5536 26.1379 22.9775 26.3729 22.3783 26.3676H22.34C21.086 26.3673 20.0697 25.3501 20.07 24.096C20.0704 22.8417 21.0875 21.8254 22.3416 21.8258H22.3419Z" fill="black"/>
<path d="M0.610023 38.4004H8.28711V40.0796C8.29769 40.4345 8.59058 40.7155 8.94573 40.7112H19.0718C19.2374 40.7115 19.3961 40.6442 19.5109 40.525C19.6261 40.4061 19.6874 40.2452 19.6815 40.0796V38.4004H27.4383C27.6011 38.4066 27.7592 38.345 27.8747 38.2302C27.9904 38.1156 28.053 37.9578 28.048 37.795V33.1225C28.0549 31.8168 27.5398 30.5624 26.6175 29.6383C25.6949 28.7139 24.4412 28.1969 23.1355 28.2013H21.634C19.7033 28.2016 17.9444 29.3109 17.1121 31.053C16.3931 30.6536 15.586 30.4404 14.764 30.4323H13.2606C12.4405 30.4404 11.6356 30.6527 10.9178 31.0492C10.0939 29.309 8.34034 28.1997 6.41461 28.2013H4.92463C3.61954 28.1938 2.36519 28.7074 1.44076 29.6287C0.516025 30.55 -0.00252517 31.8021 0.000276118 33.1072V37.795C-0.00470396 37.9578 0.0578581 38.1156 0.173645 38.2302C0.28912 38.345 0.447237 38.4066 0.610023 38.4004ZM21.634 29.4761H23.1293C24.0979 29.4699 25.0286 29.8521 25.7133 30.5372C26.3981 31.2223 26.7797 32.1529 26.7731 33.1216V37.1255H19.6815V35.4071C19.6915 34.0948 19.1763 32.8333 18.2507 31.903C18.2186 31.8709 18.1928 31.8604 18.1601 31.8295C18.7294 30.4096 20.1045 29.4783 21.634 29.4761ZM13.2616 31.7072H14.7628C15.7357 31.7081 16.667 32.1006 17.3477 32.7957C18.0344 33.4901 18.4156 34.4298 18.4066 35.4062V39.4363H9.56201V35.3928C9.57415 33.3569 11.2257 31.7119 13.2616 31.7072ZM1.27517 33.1085C1.27206 32.1408 1.65646 31.2123 2.34215 30.5301C3.02816 29.8478 3.9585 29.4681 4.92588 29.4761H6.41305C7.93259 29.4758 9.29713 30.4071 9.84992 31.8227C8.85826 32.7431 8.2924 34.0335 8.28711 35.3865V37.1255H1.27517V33.1085Z" fill="black"/>
<path d="M5.67041 27.6424H5.67227C7.6366 27.6424 9.20439 26.0961 9.24205 24.1007C9.24205 24.0966 9.24205 24.1059 9.24205 24.1019C9.23738 22.1348 7.63785 20.5443 5.67041 20.5508H5.66885C3.69892 20.5505 2.10156 22.1469 2.10156 24.1168C2.10374 25.0587 2.4816 25.961 3.15174 26.6227C3.82187 27.2848 4.72855 27.6518 5.67041 27.6424ZM4.04753 22.4905C4.4783 22.0604 5.06346 21.8207 5.67227 21.8257H5.67352C6.28078 21.8213 6.86469 22.0601 7.29484 22.489C7.725 22.9095 7.96746 23.4853 7.96715 24.087C7.93976 25.3777 6.93285 26.3675 5.67227 26.3675H5.67072C5.06439 26.3716 4.48173 26.1335 4.05095 25.7064C3.62048 25.2797 3.37771 24.6986 3.37677 24.0923C3.3749 23.4897 3.61675 22.912 4.04753 22.4905Z" fill="black"/>
<path d="M6.98453 13.6064C7.10468 13.724 7.26715 13.7884 7.43523 13.7856L7.43585 13.7856L10.9826 13.7891C11.151 13.7897 11.3125 13.7234 11.432 13.6048C11.5513 13.4862 11.6188 13.325 11.6191 13.1566L11.6303 7.48585C11.6331 5.99743 12.8358 4.79007 14.3242 4.78167L14.3276 4.78167C15.8114 4.78976 17.0088 5.99681 17.0051 7.48056L16.9985 10.6603C16.9963 10.6827 16.9954 10.7051 16.9954 10.7276C16.9954 10.7465 16.9966 10.7662 16.9982 10.7851L16.9938 13.1463C16.9932 13.3156 17.0601 13.4781 17.1797 13.5983C17.2992 13.7181 17.4617 13.7856 17.6313 13.7856L17.6329 13.7856L21.1793 13.7751C21.5298 13.7738 21.8133 13.4893 21.813 13.1388L21.8161 10.7201L21.8161 10.7185L21.8242 7.47931C21.8283 5.49506 21.042 3.59112 19.6395 2.18799C18.237 0.784852 16.3334 -0.00231028 14.3494 0.000801387L14.3261 0.000801385C10.1886 0.000801023 6.81521 3.37573 6.80587 7.51355L6.80183 10.4614C6.79685 10.5047 6.79685 10.5486 6.80183 10.5919L6.79809 13.1591C6.79778 13.3272 6.8647 13.4884 6.98453 13.6064ZM8.07361 12.5254L8.07548 11.1605L10.3483 11.1562L10.3455 12.5226L8.07361 12.5254ZM18.27 12.5086L18.2722 11.3638L20.5437 11.3594L20.5412 12.502L18.27 12.5086ZM14.3295 1.2757L14.3488 1.2757C15.995 1.27228 17.575 1.92498 18.7391 3.08938C19.9031 4.25378 20.5552 5.83402 20.5515 7.48056L20.5462 10.0861L18.2747 10.0895L18.28 7.48927C18.2884 5.29804 16.5189 3.51486 14.3276 3.50677L14.3227 3.50677C12.1317 3.51766 10.3601 5.29462 10.3554 7.48585L10.3507 9.87472L8.07735 9.88282L8.08077 7.51448C8.09353 4.07045 10.8852 1.28317 14.3295 1.2757Z" fill="black"/>
<path d="M19.6474 15.1385C19.2935 15.1454 19.0099 15.4342 19.0099 15.7884L19.0034 18.0077C19.0028 18.1764 19.0694 18.3385 19.1886 18.458C19.3081 18.5776 19.47 18.6445 19.6387 18.6445L19.6409 18.6445C19.8086 18.6467 19.9702 18.5816 20.0897 18.4643C20.2095 18.3466 20.2774 18.1863 20.2783 18.0185L20.2851 15.7875C20.287 15.4336 20.0035 15.1438 19.6496 15.1385L19.6474 15.1385Z" fill="black"/>
<path d="M16.8532 13.9555L15.2835 15.5251C15.0345 15.7741 15.0345 16.1775 15.2835 16.4265C15.5325 16.6755 15.9362 16.6755 16.1849 16.4265L17.7549 14.8569C18.0036 14.6079 18.0036 14.2045 17.7549 13.9555C17.5059 13.7065 17.1022 13.7065 16.8532 13.9555Z" fill="black"/>
<path d="M21.1597 14.353C20.9107 14.6017 20.9107 15.0054 21.1597 15.2544L22.7294 16.824C22.979 17.0684 23.3787 17.0662 23.6258 16.8191C23.8726 16.5722 23.8751 16.1726 23.6308 15.9226L22.0611 14.353C21.8121 14.104 21.4088 14.104 21.1597 14.353Z" fill="black"/>
<path d="M9.08521 15.2178C8.91806 15.2141 8.75652 15.2776 8.63669 15.394C8.51686 15.5104 8.44869 15.6701 8.44776 15.8372L8.44402 18.0337C8.44496 18.1999 8.51312 18.3587 8.63327 18.4738C8.7531 18.5887 8.91464 18.6503 9.08054 18.6441L9.08178 18.6441C9.24862 18.6485 9.41016 18.5856 9.52999 18.4695C9.64982 18.3537 9.71799 18.1943 9.71923 18.0275L9.72266 15.8294C9.72203 15.6632 9.65387 15.5042 9.53404 15.389C9.41389 15.2735 9.25235 15.2119 9.08614 15.2178L9.08521 15.2178Z" fill="black"/>
<path d="M4.86612 15.7354C4.6221 15.985 4.62427 16.3847 4.8711 16.6318C5.11824 16.8786 5.51789 16.8808 5.76751 16.6368L7.34059 15.0637C7.58959 14.8147 7.58959 14.411 7.34059 14.162C7.09159 13.913 6.68789 13.913 6.43889 14.162L4.86612 15.7354Z" fill="black"/>
<path d="M10.9869 14.1933C10.7292 14.1933 10.4967 14.3486 10.398 14.5867C10.2993 14.8248 10.3538 15.099 10.5362 15.2814L12.1059 16.8511C12.3555 17.0976 12.757 17.0964 13.0048 16.8483C13.2525 16.6005 13.2538 16.199 13.0076 15.9497L11.4376 14.38C11.3184 14.2602 11.1562 14.193 10.9869 14.1933Z" fill="black"/>
</svg>
