<svg width="43" height="30" viewBox="0 0 43 30" fill="none" xmlns="http://www.w3.org/2000/svg">
<path d="M42.1362 11.5179C41.6592 11.5179 41.2723 11.9048 41.2723 12.3817V16.317H1.72768V0.863839C1.72768 0.386928 1.34075 0 0.863839 0C0.386928 0 0 0.386928 0 0.863839V28.6987C0 29.1756 0.386928 29.5625 0.863839 29.5625C1.34075 29.5625 1.72768 29.1756 1.72768 28.6987V22.8438H41.2723V28.6987C41.2723 29.1756 41.6592 29.5625 42.1362 29.5625C42.6131 29.5625 43 29.1756 43 28.6987V12.3817C43 11.9048 42.6131 11.5179 42.1362 11.5179ZM1.72768 21.1161V18.0446H41.2723V21.1161H1.72768Z" fill="black"/>
<path d="M9 15.1523C11.5975 15.1523 13.7031 13.0467 13.7031 10.4492C13.7031 7.8517 11.5975 5.74609 9 5.74609C6.40248 5.74609 4.29688 7.8517 4.29688 10.4492C4.29987 13.0458 6.40398 15.1493 9 15.1523ZM9 7.47377C10.6431 7.47377 11.9754 8.80612 11.9754 10.4492C11.9754 12.0926 10.6431 13.4247 9 13.4247C7.35661 13.4247 6.02455 12.0926 6.02455 10.4492C6.02635 8.80672 7.35751 7.47587 9 7.47377Z" fill="black"/>
<path d="M16.0787 15.1688H38.1546C38.6321 15.1688 39.0184 14.7819 39.0184 14.305C39.013 9.05954 34.7619 4.80873 29.5162 4.80273H16.0787C15.6018 4.80273 15.2148 5.18966 15.2148 5.66657V14.305C15.2148 14.7819 15.6018 15.1688 16.0787 15.1688ZM16.9425 6.53041H29.5162C33.4739 6.53581 36.7982 9.50856 37.2427 13.4411H16.9425V6.53041Z" fill="black"/>
</svg>
