<svg width="47" height="47" viewBox="0 0 47 47" fill="none" xmlns="http://www.w3.org/2000/svg">
<path d="M13.9822 27.4117C13.9839 27.2422 13.9167 27.0751 13.7981 26.954C13.679 26.8325 13.5138 26.7624 13.3443 26.7607C13.1738 26.759 13.0077 26.8262 12.8867 26.9448C12.7651 27.064 12.6945 27.2286 12.6928 27.3992C12.6911 27.5687 12.7578 27.7353 12.8769 27.8568C12.9955 27.9778 13.1613 28.0484 13.3307 28.0501C13.5007 28.0513 13.6674 27.9846 13.7889 27.8655C13.9099 27.7469 13.98 27.5817 13.9822 27.4117Z" fill="black"/>
<path d="M27.6066 8.05652C27.6357 5.17758 26.2643 2.44578 23.9381 0.749063C23.7158 0.586937 23.4149 0.583895 23.1892 0.741668C20.8292 2.39066 19.4028 5.09418 19.3737 7.97312L19.3085 14.4235L17.6928 15.7309C17.6018 15.5514 17.4834 15.3848 17.3387 15.2372C16.9684 14.8594 16.4733 14.6484 15.9446 14.643C15.4157 14.6379 14.9162 14.8386 14.5386 15.2087C14.1608 15.5789 13.9498 16.0741 13.9446 16.603L13.9224 18.7807L12.3265 20.0719C12.0067 19.4222 11.3413 18.9709 10.5694 18.9631C9.47759 18.9522 8.58065 19.8312 8.56943 20.923L8.54713 23.1294L6.48389 24.7985C6.33436 24.9196 6.24653 25.1009 6.24459 25.2932L6.20351 29.3574C6.20143 29.5628 6.29722 29.7566 6.46155 29.8797C6.6257 30.0029 6.83861 30.0403 7.03506 29.9807L11.0649 28.7583C11.1675 28.7271 11.2569 28.6726 11.3287 28.6023C11.4947 28.4396 11.5666 28.1922 11.4946 27.9543C11.3914 27.6137 11.0314 27.4212 10.6906 27.5246L7.50143 28.4922L7.53057 25.6097L19.2918 16.0953L19.2024 24.9425L15.6251 26.0278C15.2846 26.1311 15.0922 26.4909 15.1956 26.8316C15.299 27.1724 15.6588 27.3647 15.9995 27.2613L19.1885 26.2939L19.1743 27.7254C19.1598 29.1509 19.3016 30.5567 19.5922 31.9245L15.6608 35.9222C15.5439 36.041 15.4776 36.2007 15.4758 36.3675L15.4543 38.4867C15.4521 38.7096 15.5652 38.9178 15.7536 39.0373C15.9418 39.1568 16.1786 39.1704 16.3794 39.0734L21.298 36.6972C21.696 37.4676 22.1485 38.215 22.6539 38.9351C22.7733 39.1051 22.9672 39.2069 23.175 39.2092C23.3473 39.211 23.5116 39.1437 23.6326 39.0251C23.6574 39.0008 23.6805 38.9743 23.7014 38.9457C24.2213 38.236 24.6887 37.4977 25.1023 36.7356L29.9719 39.2108C30.1707 39.3118 30.4074 39.303 30.5981 39.1872C30.641 39.1615 30.6801 39.1309 30.715 39.0967C30.8356 38.9785 30.9067 38.8157 30.9084 38.6427L30.9299 36.5239C30.9316 36.3569 30.8682 36.1955 30.7533 36.0744L26.9024 32.0052C27.2219 30.6413 27.3924 29.2365 27.4068 27.8088L27.4214 26.3773L39.4978 30.3089C39.693 30.3724 39.9068 30.3392 40.0734 30.2196C40.1003 30.2003 40.1254 30.1792 40.1486 30.1564C40.2698 30.0377 40.34 29.8748 40.3419 29.7026L40.383 25.6381C40.3848 25.446 40.3008 25.2628 40.1539 25.1388L38.1247 23.4282L38.147 21.2218C38.158 20.1302 37.2788 19.2331 36.187 19.2219C35.415 19.2142 34.7406 19.652 34.4077 20.2951L32.8382 18.9719L32.8602 16.794C32.8655 16.2653 32.6646 15.766 32.2945 15.3884C31.9243 15.0105 31.4293 14.7994 30.9004 14.7942C30.3715 14.7887 29.8722 14.9896 29.4944 15.3599C29.3468 15.5045 29.225 15.6687 29.1306 15.8465L27.5414 14.5069L27.6066 8.05652ZM15.2337 16.6158C15.2355 16.4314 15.3092 16.2587 15.441 16.1295C15.5728 16.0004 15.747 15.9302 15.9316 15.9323C16.1162 15.9339 16.2888 16.0076 16.418 16.1394C16.5408 16.2648 16.6095 16.4287 16.6145 16.6032L15.2224 17.7291L15.2337 16.6158ZM9.85866 20.9361C9.86251 20.5551 10.1756 20.2483 10.5565 20.2521C10.9371 20.256 11.2439 20.5691 11.2403 20.9498L11.2403 20.9509L9.84711 22.0779L9.85866 20.9361ZM16.7541 37.4608L16.7622 36.6406L19.964 33.3852C20.1809 34.1152 20.4418 34.8318 20.7458 35.5322L16.7541 37.4608ZM29.6382 36.7713L29.6299 37.5909L25.6778 35.5822C25.9951 34.8898 26.2699 34.1803 26.5014 33.4564L29.6382 36.7713ZM26.1179 27.7957C26.1035 29.2284 25.9204 30.6363 25.5775 31.9986C25.5709 32.0195 25.5655 32.041 25.561 32.0627C25.0763 33.9569 24.2809 35.7615 23.1931 37.418C21.3694 34.5153 20.4284 31.1882 20.4633 27.7386L20.663 7.98615C20.6834 5.94551 21.5245 4.00805 22.9603 2.60093C23.1471 2.41783 23.3439 2.24374 23.5501 2.07971C25.3143 3.5418 26.3409 5.73724 26.3176 8.04331L26.1413 25.4811C26.1413 25.4832 26.1413 25.4854 26.1413 25.4875L26.1179 27.7957ZM35.4763 21.1948C35.4802 20.8139 35.7932 20.5074 36.174 20.5111C36.555 20.5149 36.8618 20.828 36.8579 21.209L36.8464 22.3508L35.4763 21.1959L35.4763 21.1948ZM30.3969 16.2807C30.5287 16.1516 30.7028 16.0814 30.8876 16.0833C31.072 16.0851 31.2447 16.1588 31.3738 16.2906C31.503 16.4224 31.5732 16.5965 31.5711 16.7811L31.5599 17.8945L30.191 16.7405C30.1996 16.5661 30.2715 16.4035 30.3969 16.2807ZM39.0909 25.9289L39.0617 28.8114L27.4349 25.0259L27.5245 16.1785L39.0909 25.9289Z" fill="black"/>
<path d="M24.0369 18.0886C24.0407 17.7328 23.7551 17.4413 23.399 17.4377C23.043 17.4341 22.7515 17.7198 22.7479 18.0758L22.6744 25.3469C22.6706 25.7027 22.9563 25.9942 23.3123 25.9978C23.4903 25.9996 23.6522 25.9291 23.77 25.8137C23.8879 25.6981 23.9616 25.5377 23.9634 25.3597L24.0369 18.0886Z" fill="black"/>
<path d="M23.8666 15.9717C23.9844 15.8563 24.0581 15.6959 24.0599 15.5179L24.0599 15.5099C24.0636 15.154 23.778 14.8625 23.4219 14.859C23.0661 14.8552 22.7746 15.1408 22.771 15.4969L22.7709 15.5047C22.7673 15.8607 23.053 16.1522 23.409 16.1558C23.587 16.1576 23.7489 16.0872 23.8666 15.9717Z" fill="black"/>
</svg>
