<svg width="26" height="16" viewBox="0 0 26 16" fill="none" xmlns="http://www.w3.org/2000/svg">
<path d="M24.1524 6.93009H23.8962V2.694C23.8962 1.20854 22.6876 0 21.2022 0H4.79769C3.31231 0 2.10376 1.20854 2.10376 2.694V6.93009H1.8474C0.828778 6.93009 0 7.75887 0 8.77757V11.5147C0 12.5334 0.828778 13.3622 1.84748 13.3622H4.13151V15.1008C4.13151 15.4199 4.39019 15.6786 4.70929 15.6786C5.02838 15.6786 5.28706 15.4199 5.28706 15.1008V13.3622H20.7129V15.1008C20.7129 15.4199 20.9716 15.6786 21.2907 15.6786C21.6098 15.6786 21.8685 15.4199 21.8685 15.1008V13.3622H24.1525C25.1712 13.3622 26 12.5334 26 11.5147V8.77757C25.9999 7.75887 25.1711 6.93009 24.1524 6.93009ZM3.25932 2.694C3.25932 1.84575 3.94935 1.15555 4.79769 1.15555H21.2022C22.0505 1.15555 22.7406 1.84566 22.7406 2.694V6.93009H21.9999V5.76984C21.9999 5.02995 21.398 4.42807 20.6582 4.42807H14.7357C13.9957 4.42807 13.3938 5.02995 13.3938 5.76984V6.93009H12.6061V5.76984C12.6061 5.02995 12.0041 4.42807 11.2642 4.42807H5.3417C4.6019 4.42807 4.00003 5.02995 4.00003 5.76984V6.93009H3.25932V2.694ZM14.5493 6.93009V5.76984C14.5493 5.66889 14.6347 5.58363 14.7357 5.58363H20.6582C20.7592 5.58363 20.8443 5.66889 20.8443 5.76984V6.93009H14.5493ZM5.15558 6.93009V5.76984C5.15558 5.66889 5.24076 5.58363 5.3417 5.58363H11.2642C11.3653 5.58363 11.4506 5.66889 11.4506 5.76984V6.93009H5.15558ZM24.8444 11.5147C24.8444 11.8962 24.5339 12.2067 24.1524 12.2067H1.84748C1.46598 12.2067 1.15555 11.8962 1.15555 11.5147V8.77757C1.15555 8.39607 1.46598 8.08564 1.84748 8.08564H24.1524C24.5339 8.08564 24.8444 8.39607 24.8444 8.77757V11.5147Z" fill="black"/>
</svg>
