<svg width="102" height="88" viewBox="0 0 102 88" fill="none" xmlns="http://www.w3.org/2000/svg">
<path d="M4.51489 46.5L5.01489 80.5C4.84823 82.3333 5.61489 85.9 10.0149 85.5C14.4149 85.5 67.1816 85.5 93.0149 85.5C94.5149 85.5 97.6149 84.5 98.0149 80.5C98.0149 76.1 98.0149 54.6667 98.0149 46.5" stroke="black" stroke-width="3.5"/>
<path d="M43.0149 51.0004L7.51486 43.0004C5.01489 42.5 2.01486 41.8004 2.01486 37.0004C2.01486 32.2004 2.01486 25.3337 2.01486 22.5004C1.84819 21.0004 3.01486 18.1004 9.01486 18.5004C15.0149 18.5004 67.8482 18.5004 93.5149 18.5004C95.3482 18.5005 99.1149 19.3007 99.5149 22.5004C99.5149 26.1001 99.5149 33.6669 99.5149 37.0004C99.5149 39.5 98.0149 42.1929 94.5149 43.0004C89.3149 44.2001 68.3482 48.8336 58.5149 51.0004" stroke="black" stroke-width="3.5"/>
<path d="M34.5149 10V6C34.3482 4.83333 35.0149 2.4 39.0149 2C43.0149 2 56.6816 2 63.0149 2C64.8482 2.16667 68.2149 4 67.0149 10" stroke="black" stroke-width="3.5"/>
<rect x="43.7649" y="47.75" width="13.5" height="11.5" stroke="black" stroke-width="3.5"/>
</svg>
