<svg width="25" height="31" viewBox="0 0 25 31" fill="none" xmlns="http://www.w3.org/2000/svg">
<path d="M23.9756 30.597C23.9754 30.597 23.975 30.597 23.9747 30.597L12.6032 30.5753H0.434617C0.194535 30.5753 0 30.3808 0 30.1407V10.588C0 10.3479 0.194535 10.1533 0.434617 10.1533H6.50378V0.434617C6.50378 0.194535 6.69832 0 6.9384 0H23.9754C24.2155 0 24.41 0.194535 24.41 0.434617V30.1624C24.41 30.2778 24.3641 30.3884 24.2824 30.4701C24.201 30.5513 24.0906 30.597 23.9756 30.597ZM13.0385 29.7069L23.5408 29.7269V0.869234H7.37302V10.1533H12.6039C12.844 10.1533 13.0385 10.3479 13.0385 10.588V29.7069ZM0.869234 29.7061H12.1693V11.0226H0.869234V29.7061ZM10.8275 26.8826H7.38901C7.14893 26.8826 6.95439 26.6881 6.95439 26.448V24.4357C6.95439 24.1956 7.14893 24.0011 7.38901 24.0011H10.8275C11.0676 24.0011 11.2621 24.1956 11.2621 24.4357V26.448C11.2621 26.6881 11.0676 26.8826 10.8275 26.8826ZM7.82363 26.0134H10.3929V24.8703H7.82363V26.0134ZM5.64967 26.8826H2.21116C1.97107 26.8826 1.77654 26.6881 1.77654 26.448V24.4357C1.77654 24.1956 1.97107 24.0011 2.21116 24.0011H5.64967C5.88976 24.0011 6.08429 24.1956 6.08429 24.4357V26.448C6.08429 26.6881 5.88976 26.8826 5.64967 26.8826ZM2.64577 26.0134H5.21506V24.8703H2.64577V26.0134ZM21.0216 26.6594H19.3591C19.119 26.6594 18.9244 26.4649 18.9244 26.2248V24.4182C18.9244 24.1781 19.119 23.9836 19.3591 23.9836H21.0216C21.2616 23.9836 21.4562 24.1781 21.4562 24.4182V26.2248C21.4562 26.4649 21.2616 26.6594 21.0216 26.6594ZM19.7938 25.7902H20.5871V24.8528H19.7938V25.7902ZM16.227 26.6594H14.5645C14.3245 26.6594 14.1299 26.4649 14.1299 26.2248V24.4182C14.1299 24.1781 14.3245 23.9836 14.5645 23.9836H16.227C16.4671 23.9836 16.6616 24.1781 16.6616 24.4182V26.2248C16.6616 26.4649 16.4671 26.6594 16.227 26.6594ZM14.9992 25.7902H15.7924V24.8528H14.9992V25.7902ZM10.8275 22.9507H7.38901C7.14893 22.9507 6.95439 22.7562 6.95439 22.5161V20.5038C6.95439 20.2638 7.14893 20.0692 7.38901 20.0692H10.8275C11.0676 20.0692 11.2621 20.2638 11.2621 20.5038V22.5161C11.2621 22.756 11.0676 22.9507 10.8275 22.9507ZM7.82363 22.0815H10.3929V20.9385H7.82363V22.0815ZM5.64967 22.9507H2.21116C1.97107 22.9507 1.77654 22.7562 1.77654 22.5161V20.5038C1.77654 20.2638 1.97107 20.0692 2.21116 20.0692H5.64967C5.88976 20.0692 6.08429 20.2638 6.08429 20.5038V22.5161C6.08429 22.756 5.88976 22.9507 5.64967 22.9507ZM2.64577 22.0815H5.21506V20.9385H2.64577V22.0815ZM21.0216 22.3287H19.3591C19.119 22.3287 18.9244 22.1342 18.9244 21.8941V20.0876C18.9244 19.8476 19.119 19.653 19.3591 19.653H21.0216C21.2616 19.653 21.4562 19.8476 21.4562 20.0876V21.8941C21.4562 22.1342 21.2616 22.3287 21.0216 22.3287ZM19.7938 21.4595H20.5871V20.5223H19.7938V21.4595ZM16.227 22.3287H14.5645C14.3245 22.3287 14.1299 22.1342 14.1299 21.8941V20.0876C14.1299 19.8476 14.3245 19.653 14.5645 19.653H16.227C16.4671 19.653 16.6616 19.8476 16.6616 20.0876V21.8941C16.6616 22.1342 16.4671 22.3287 16.227 22.3287ZM14.9992 21.4595H15.7924V20.5223H14.9992V21.4595ZM10.8275 19.0187H7.38901C7.14893 19.0187 6.95439 18.8241 6.95439 18.584V16.5718C6.95439 16.3317 7.14893 16.1372 7.38901 16.1372H10.8275C11.0676 16.1372 11.2621 16.3317 11.2621 16.5718V18.584C11.2621 18.8241 11.0676 19.0187 10.8275 19.0187ZM7.82363 18.1494H10.3929V17.0064H7.82363V18.1494ZM5.64967 19.0187H2.21116C1.97107 19.0187 1.77654 18.8241 1.77654 18.584V16.5718C1.77654 16.3317 1.97107 16.1372 2.21116 16.1372H5.64967C5.88976 16.1372 6.08429 16.3317 6.08429 16.5718V18.584C6.08429 18.8241 5.88976 19.0187 5.64967 19.0187ZM2.64577 18.1494H5.21506V17.0064H2.64577V18.1494ZM21.0216 17.998H19.3591C19.119 17.998 18.9244 17.8035 18.9244 17.5634V15.7569C18.9244 15.5169 19.119 15.3223 19.3591 15.3223H21.0216C21.2616 15.3223 21.4562 15.5169 21.4562 15.7569V17.5636C21.4562 17.8035 21.2616 17.998 21.0216 17.998ZM19.7938 17.1288H20.5871V16.1914H19.7938V17.1288ZM16.227 17.998H14.5645C14.3245 17.998 14.1299 17.8035 14.1299 17.5634V15.7569C14.1299 15.5169 14.3245 15.3223 14.5645 15.3223H16.227C16.4671 15.3223 16.6616 15.5169 16.6616 15.7569V17.5636C16.6616 17.8035 16.4671 17.998 16.227 17.998ZM14.9992 17.1288H15.7924V16.1914H14.9992V17.1288ZM10.8275 15.0866H7.38901C7.14893 15.0866 6.95439 14.8921 6.95439 14.652V12.6397C6.95439 12.3996 7.14893 12.2051 7.38901 12.2051H10.8275C11.0676 12.2051 11.2621 12.3996 11.2621 12.6397V14.6522C11.2621 14.8921 11.0676 15.0866 10.8275 15.0866ZM7.82363 14.2174H10.3929V13.0741H7.82363V14.2174ZM5.64967 15.0866H2.21116C1.97107 15.0866 1.77654 14.8921 1.77654 14.652V12.6397C1.77654 12.3996 1.97107 12.2051 2.21116 12.2051H5.64967C5.88976 12.2051 6.08429 12.3996 6.08429 12.6397V14.6522C6.08429 14.8921 5.88976 15.0866 5.64967 15.0866ZM2.64577 14.2174H5.21506V13.0741H2.64577V14.2174ZM21.0216 13.6673H19.3591C19.119 13.6673 18.9244 13.4728 18.9244 13.2327V11.4263C18.9244 11.1862 19.119 10.9916 19.3591 10.9916H21.0216C21.2616 10.9916 21.4562 11.1862 21.4562 11.4263V13.2327C21.4562 13.4728 21.2616 13.6673 21.0216 13.6673ZM19.7938 12.7981H20.5871V11.8609H19.7938V12.7981ZM16.227 13.6673H14.5645C14.3245 13.6673 14.1299 13.4728 14.1299 13.2327V11.4263C14.1299 11.1862 14.3245 10.9916 14.5645 10.9916H16.227C16.4671 10.9916 16.6616 11.1862 16.6616 11.4263V13.2327C16.6616 13.4728 16.4671 13.6673 16.227 13.6673ZM14.9992 12.7981H15.7924V11.8609H14.9992V12.7981ZM21.0216 9.33679H19.3591C19.119 9.33679 18.9244 9.14225 18.9244 8.90217V7.09556C18.9244 6.85547 19.119 6.66094 19.3591 6.66094H21.0216C21.2616 6.66094 21.4562 6.85547 21.4562 7.09556V8.90217C21.4562 9.14208 21.2616 9.33679 21.0216 9.33679ZM19.7938 8.46756H20.5871V7.53017H19.7938V8.46756ZM16.227 9.33679H14.5645C14.3245 9.33679 14.1299 9.14225 14.1299 8.90217V7.09556C14.1299 6.85547 14.3245 6.66094 14.5645 6.66094H16.227C16.4671 6.66094 16.6616 6.85547 16.6616 7.09556V8.90217C16.6616 9.14208 16.4671 9.33679 16.227 9.33679ZM14.9992 8.46756H15.7924V7.53017H14.9992V8.46756ZM11.4323 9.33679H9.76984C9.52976 9.33679 9.33522 9.14225 9.33522 8.90217V7.09556C9.33522 6.85547 9.52976 6.66094 9.76984 6.66094H11.4323C11.6724 6.66094 11.867 6.85547 11.867 7.09556V8.90217C11.867 9.14208 11.6724 9.33679 11.4323 9.33679ZM10.2046 8.46756H10.9979V7.53017H10.2046V8.46756ZM21.0216 5.00592H19.3591C19.119 5.00592 18.9244 4.81138 18.9244 4.5713V2.76486C18.9244 2.52478 19.119 2.33024 19.3591 2.33024H21.0216C21.2616 2.33024 21.4562 2.52478 21.4562 2.76486V4.57147C21.4562 4.81138 21.2616 5.00592 21.0216 5.00592ZM19.7938 4.13668H20.5871V3.1993H19.7938V4.13668ZM16.227 5.00592H14.5645C14.3245 5.00592 14.1299 4.81138 14.1299 4.5713V2.76486C14.1299 2.52478 14.3245 2.33024 14.5645 2.33024H16.227C16.4671 2.33024 16.6616 2.52478 16.6616 2.76486V4.57147C16.6616 4.81138 16.4671 5.00592 16.227 5.00592ZM14.9992 4.13668H15.7924V3.1993H14.9992V4.13668ZM11.4323 5.00592H9.76984C9.52976 5.00592 9.33522 4.81138 9.33522 4.5713V2.76486C9.33522 2.52478 9.52976 2.33024 9.76984 2.33024H11.4323C11.6724 2.33024 11.867 2.52478 11.867 2.76486V4.57147C11.867 4.81138 11.6724 5.00592 11.4323 5.00592ZM10.2046 4.13668H10.9979V3.1993H10.2046V4.13668Z" fill="url(#paint0_linear_787_12869)"/>
<defs>
<linearGradient id="paint0_linear_787_12869" x1="24.2874" y1="22.7739" x2="7.07662" y2="4.34617" gradientUnits="userSpaceOnUse">
<stop stop-color="#7D3891"/>
<stop offset="1" stop-color="#CB298B"/>
</linearGradient>
</defs>
</svg>
