<svg width="25" height="24" viewBox="0 0 25 24" fill="none" xmlns="http://www.w3.org/2000/svg">
<path d="M24.8703 23.1521L21.8652 20.4054L24.731 19.0958L16.9346 16.4703L19.807 23.5969L21.2402 20.9771L24.2448 23.7234C24.3319 23.8022 24.4446 23.8418 24.5578 23.8418C24.6709 23.8418 24.7841 23.8022 24.8703 23.7234C25.0431 23.5654 25.0431 23.3101 24.8703 23.1521ZM18.4269 17.834L22.508 19.2086L20.7897 19.9936L19.9308 21.5646L18.4269 17.834Z" fill="#8C69A1"/>
<path d="M19.8913 8.48303H15.9128H15.0287H11.9343H11.0502H7.95584H7.07173H3.09326V12.1195V12.9276V15.7559V16.564V20.2004H7.07173H7.95584H11.9343V16.564H15.9128V12.9276H19.8913V8.48303ZM11.9343 9.29113H15.0287V12.1195H11.9343V9.29113ZM7.95584 9.29113H11.0502V12.1195H7.95584V9.29113ZM11.0502 15.7559H7.95584V12.9276H11.0502V15.7559ZM3.97737 9.29113H7.07173V12.1195H3.97737V9.29113ZM3.97737 12.9276H7.07173V15.7559H3.97737V12.9276ZM7.07173 19.3923H3.97737V16.564H7.07173V19.3923ZM11.0502 19.3923H7.95584V16.564H11.0502V19.3923ZM15.0287 15.7559H11.9343V12.9276H15.0287V15.7559ZM19.0071 12.1195H15.9128V9.29113H19.0071V12.1195Z" fill="#8C69A1"/>
<path d="M14.5877 22.2227H0.884105V6.46477H22.1026V14.5457C22.1026 14.7692 22.3002 14.9498 22.5447 14.9498C22.7891 14.9498 22.9867 14.7692 22.9867 14.5457V6.06073V2.02024C22.9867 1.7968 22.7891 1.61619 22.5447 1.61619H20.3344V0.404048C20.3344 0.18061 20.1368 0 19.8924 0H16.798C16.5535 0 16.3559 0.18061 16.3559 0.404048V1.61619H6.63078V0.404048C6.63078 0.18061 6.43319 0 6.18873 0H3.09437C2.84991 0 2.65231 0.18061 2.65231 0.404048V1.61619H0.442052C0.197597 1.61619 0 1.7968 0 2.02024V6.06073V22.6267C0 22.8501 0.197597 23.0308 0.442052 23.0308H14.5877C14.8322 23.0308 15.0298 22.8501 15.0298 22.6267C15.0298 22.4033 14.8317 22.2227 14.5877 22.2227ZM17.24 0.808097H19.4503V2.02024V3.23239H17.24V2.02024V0.808097ZM3.53642 0.808097H5.74668V2.02024V3.23239H3.53642V2.02024V0.808097ZM0.884105 2.42429H2.65231V3.63644C2.65231 3.85987 2.84991 4.04048 3.09437 4.04048H6.18873C6.43319 4.04048 6.63078 3.85987 6.63078 3.63644V2.42429H16.3559V3.63644C16.3559 3.85987 16.5535 4.04048 16.798 4.04048H19.8924C20.1368 4.04048 20.3344 3.85987 20.3344 3.63644V2.42429H22.1026V5.65668H0.884105V2.42429Z" fill="#8C69A1"/>
</svg>
