<svg width="38" height="38" viewBox="0 0 38 38" fill="none" xmlns="http://www.w3.org/2000/svg">
<g clip-path="url(#clip0_2959_4697)">
<path d="M9.17157 17.9572L26.7477 0.429717C27.3236 -0.144214 28.2559 -0.14325 28.8308 0.432686C29.4052 1.00855 29.4037 1.9414 28.8278 2.51578L12.2979 19.0001L28.8284 35.4843C29.4043 36.0587 29.4058 36.991 28.8314 37.5669C28.5432 37.8556 28.1656 38 27.7881 38C27.4115 38 27.0354 37.8566 26.7478 37.5699L9.17157 20.0428C8.89422 19.7669 8.73858 19.3913 8.73858 19.0001C8.73858 18.6088 8.89467 18.2337 9.17157 17.9572Z" fill="black"/>
</g>
<defs>
<clipPath id="clip0_2959_4697">
<rect width="38" height="38" fill="white" transform="matrix(-1 0 0 1 38 0)"/>
</clipPath>
</defs>
</svg>
