<svg width="33" height="33" viewBox="0 0 33 33" fill="none" xmlns="http://www.w3.org/2000/svg">
<path d="M30.25 3.3H27.5V2.2C27.5 1.61652 27.2682 1.05694 26.8556 0.644365C26.4431 0.231785 25.8835 0 25.3 0C24.7165 0 24.1569 0.231785 23.7444 0.644365C23.3318 1.05694 23.1 1.61652 23.1 2.2V3.3H18.7V2.2C18.7 1.61652 18.4682 1.05694 18.0556 0.644365C17.6431 0.231785 17.0835 0 16.5 0C15.9165 0 15.3569 0.231785 14.9444 0.644365C14.5318 1.05694 14.3 1.61652 14.3 2.2V3.3H9.9V2.2C9.9 1.61652 9.66821 1.05694 9.25563 0.644365C8.84305 0.231785 8.28348 0 7.7 0C7.11652 0 6.55695 0.231785 6.14437 0.644365C5.73179 1.05694 5.5 1.61652 5.5 2.2V3.3H2.75C2.02065 3.3 1.32118 3.58973 0.805456 4.10545C0.289731 4.62118 0 5.32065 0 6.05V28.05C0 28.7793 0.289731 29.4788 0.805456 29.9945C1.32118 30.5103 2.02065 30.8 2.75 30.8H18.15C18.2959 30.8 18.4358 30.742 18.5389 30.6389C18.6421 30.5357 18.7 30.3959 18.7 30.25C18.7 30.1041 18.6421 29.9642 18.5389 29.8611C18.4358 29.7579 18.2959 29.7 18.15 29.7H2.75C2.31279 29.6987 1.89387 29.5244 1.58472 29.2153C1.27556 28.9061 1.10131 28.4872 1.1 28.05V11H31.9V20.35C31.9 20.4959 31.9579 20.6358 32.0611 20.7389C32.1642 20.842 32.3041 20.9 32.45 20.9C32.5959 20.9 32.7358 20.842 32.8389 20.7389C32.9421 20.6358 33 20.4959 33 20.35V6.05C33 5.32065 32.7103 4.62118 32.1945 4.10545C31.6788 3.58973 30.9793 3.3 30.25 3.3ZM24.2 2.2C24.2 1.90826 24.3159 1.62847 24.5222 1.42218C24.7285 1.21589 25.0083 1.1 25.3 1.1C25.5917 1.1 25.8715 1.21589 26.0778 1.42218C26.2841 1.62847 26.4 1.90826 26.4 2.2V5.5C26.4 5.79174 26.2841 6.07152 26.0778 6.27781C25.8715 6.4841 25.5917 6.6 25.3 6.6C25.0083 6.6 24.7285 6.4841 24.5222 6.27781C24.3159 6.07152 24.2 5.79174 24.2 5.5V2.2ZM15.4 2.2C15.4 1.90826 15.5159 1.62847 15.7222 1.42218C15.9285 1.21589 16.2083 1.1 16.5 1.1C16.7917 1.1 17.0715 1.21589 17.2778 1.42218C17.4841 1.62847 17.6 1.90826 17.6 2.2V5.5C17.6 5.79174 17.4841 6.07152 17.2778 6.27781C17.0715 6.4841 16.7917 6.6 16.5 6.6C16.2083 6.6 15.9285 6.4841 15.7222 6.27781C15.5159 6.07152 15.4 5.79174 15.4 5.5V2.2ZM6.6 2.2C6.6 1.90826 6.71589 1.62847 6.92218 1.42218C7.12847 1.21589 7.40826 1.1 7.7 1.1C7.99174 1.1 8.27153 1.21589 8.47782 1.42218C8.68411 1.62847 8.8 1.90826 8.8 2.2V5.5C8.8 5.79174 8.68411 6.07152 8.47782 6.27781C8.27153 6.4841 7.99174 6.6 7.7 6.6C7.40826 6.6 7.12847 6.4841 6.92218 6.27781C6.71589 6.07152 6.6 5.79174 6.6 5.5V2.2ZM31.9 9.89999H1.1V6.05C1.10131 5.61279 1.27556 5.19387 1.58472 4.88471C1.89387 4.57556 2.31279 4.4013 2.75 4.4H5.5V5.5C5.5 6.08347 5.73179 6.64305 6.14437 7.05563C6.55695 7.46821 7.11652 7.7 7.7 7.7C8.28348 7.7 8.84305 7.46821 9.25563 7.05563C9.66821 6.64305 9.9 6.08347 9.9 5.5V4.4H14.3V5.5C14.3 6.08347 14.5318 6.64305 14.9444 7.05563C15.3569 7.46821 15.9165 7.7 16.5 7.7C17.0835 7.7 17.6431 7.46821 18.0556 7.05563C18.4682 6.64305 18.7 6.08347 18.7 5.5V4.4H23.1V5.5C23.1 6.08347 23.3318 6.64305 23.7444 7.05563C24.1569 7.46821 24.7165 7.7 25.3 7.7C25.8835 7.7 26.4431 7.46821 26.8556 7.05563C27.2682 6.64305 27.5 6.08347 27.5 5.5V4.4H30.25C30.6872 4.4013 31.1061 4.57556 31.4153 4.88471C31.7244 5.19387 31.8987 5.61279 31.9 6.05V9.89999Z" fill="black"/>
<path d="M15.3961 14.848C15.3961 14.5563 15.2802 14.2765 15.0739 14.0702C14.8676 13.8639 14.5878 13.748 14.2961 13.748H12.0961C11.8044 13.748 11.5246 13.8639 11.3183 14.0702C11.112 14.2765 10.9961 14.5563 10.9961 14.848V16.498C10.9961 16.7898 11.112 17.0696 11.3183 17.2759C11.5246 17.4822 11.8044 17.598 12.0961 17.598H14.2961C14.5878 17.598 14.8676 17.4822 15.0739 17.2759C15.2802 17.0696 15.3961 16.7898 15.3961 16.498V14.848ZM12.0961 16.498V14.848H14.2961V16.498H12.0961Z" fill="black"/>
<path d="M8.79844 14.848C8.79844 14.5563 8.68255 14.2765 8.47626 14.0702C8.26997 13.8639 7.99018 13.748 7.69844 13.748H5.49844C5.2067 13.748 4.92691 13.8639 4.72062 14.0702C4.51433 14.2765 4.39844 14.5563 4.39844 14.848V16.498C4.39844 16.7898 4.51433 17.0696 4.72062 17.2759C4.92691 17.4822 5.2067 17.598 5.49844 17.598H7.69844C7.99018 17.598 8.26997 17.4822 8.47626 17.2759C8.68255 17.0696 8.79844 16.7898 8.79844 16.498V14.848ZM5.49844 16.498V14.848H7.69844V16.498H5.49844Z" fill="black"/>
<path d="M27.5031 17.598C27.7949 17.598 28.0747 17.4822 28.2809 17.2759C28.4872 17.0696 28.6031 16.7898 28.6031 16.498V14.848C28.6031 14.5563 28.4872 14.2765 28.2809 14.0702C28.0747 13.8639 27.7949 13.748 27.5031 13.748H25.3031C25.0114 13.748 24.7316 13.8639 24.5253 14.0702C24.319 14.2765 24.2031 14.5563 24.2031 14.848V16.498C24.2031 16.7898 24.319 17.0696 24.5253 17.2759C24.7316 17.4822 25.0114 17.598 25.3031 17.598H27.5031ZM25.3031 14.848H27.5031V16.498H25.3031V14.848Z" fill="black"/>
<path d="M15.3961 19.7992C15.3961 19.5075 15.2802 19.2277 15.0739 19.0214C14.8676 18.8151 14.5878 18.6992 14.2961 18.6992H12.0961C11.8044 18.6992 11.5246 18.8151 11.3183 19.0214C11.112 19.2277 10.9961 19.5075 10.9961 19.7992V21.4492C10.9961 21.741 11.112 22.0207 11.3183 22.227C11.5246 22.4333 11.8044 22.5492 12.0961 22.5492H14.2961C14.5878 22.5492 14.8676 22.4333 15.0739 22.227C15.2802 22.0207 15.3961 21.741 15.3961 21.4492V19.7992ZM12.0961 21.4492V19.7992H14.2961V21.4492H12.0961Z" fill="black"/>
<path d="M8.79844 19.7992C8.79844 19.5075 8.68255 19.2277 8.47626 19.0214C8.26997 18.8151 7.99018 18.6992 7.69844 18.6992H5.49844C5.2067 18.6992 4.92691 18.8151 4.72062 19.0214C4.51433 19.2277 4.39844 19.5075 4.39844 19.7992V21.4492C4.39844 21.741 4.51433 22.0207 4.72062 22.227C4.92691 22.4333 5.2067 22.5492 5.49844 22.5492H7.69844C7.99018 22.5492 8.26997 22.4333 8.47626 22.227C8.68255 22.0207 8.79844 21.741 8.79844 21.4492V19.7992ZM5.49844 21.4492V19.7992H7.69844V21.4492H5.49844Z" fill="black"/>
<path d="M14.2961 23.6504H12.0961C11.8044 23.6504 11.5246 23.7663 11.3183 23.9726C11.112 24.1789 10.9961 24.4587 10.9961 24.7504V26.4004C10.9961 26.6921 11.112 26.9719 11.3183 27.1782C11.5246 27.3845 11.8044 27.5004 12.0961 27.5004H14.2961C14.5878 27.5004 14.8676 27.3845 15.0739 27.1782C15.2802 26.9719 15.3961 26.6921 15.3961 26.4004V24.7504C15.3961 24.4587 15.2802 24.1789 15.0739 23.9726C14.8676 23.7663 14.5878 23.6504 14.2961 23.6504ZM12.0961 26.4004V24.7504H14.2961V26.4004H12.0961Z" fill="black"/>
<path d="M18.7055 17.598H20.9055C21.1972 17.598 21.477 17.4822 21.6833 17.2759C21.8896 17.0696 22.0055 16.7898 22.0055 16.498V14.848C22.0055 14.5563 21.8896 14.2765 21.6833 14.0702C21.477 13.8639 21.1972 13.748 20.9055 13.748H18.7055C18.4137 13.748 18.1339 13.8639 17.9277 14.0702C17.7214 14.2765 17.6055 14.5563 17.6055 14.848V16.498C17.6055 16.7898 17.7214 17.0696 17.9277 17.2759C18.1339 17.4822 18.4137 17.598 18.7055 17.598ZM18.7055 14.848H20.9055V16.498H18.7055V14.848Z" fill="black"/>
<path d="M17.6055 21.4492C17.6055 21.741 17.7214 22.0207 17.9277 22.227C18.1339 22.4333 18.4137 22.5492 18.7055 22.5492C18.8513 22.5492 18.9912 22.4913 19.0944 22.3881C19.1975 22.285 19.2555 22.1451 19.2555 21.9992C19.2555 21.8533 19.1975 21.7135 19.0944 21.6103C18.9912 21.5072 18.8513 21.4492 18.7055 21.4492V19.7992H20.9055C21.0513 19.7992 21.1912 19.7413 21.2944 19.6381C21.3975 19.535 21.4555 19.3951 21.4555 19.2492C21.4555 19.1033 21.3975 18.9635 21.2944 18.8603C21.1912 18.7572 21.0513 18.6992 20.9055 18.6992H18.7055C18.4137 18.6992 18.1339 18.8151 17.9277 19.0214C17.7214 19.2277 17.6055 19.5075 17.6055 19.7992V21.4492Z" fill="black"/>
<path d="M7.69844 23.6504H5.49844C5.2067 23.6504 4.92691 23.7663 4.72062 23.9726C4.51433 24.1789 4.39844 24.4587 4.39844 24.7504V26.4004C4.39844 26.6921 4.51433 26.9719 4.72062 27.1782C4.92691 27.3845 5.2067 27.5004 5.49844 27.5004H7.69844C7.99018 27.5004 8.26997 27.3845 8.47626 27.1782C8.68255 26.9719 8.79844 26.6921 8.79844 26.4004V24.7504C8.79844 24.4587 8.68255 24.1789 8.47626 23.9726C8.26997 23.7663 7.99018 23.6504 7.69844 23.6504ZM5.49844 26.4004V24.7504H7.69844V26.4004H5.49844Z" fill="black"/>
<path d="M25.8492 18.6992C24.4351 18.6992 23.0527 19.1186 21.8769 19.9042C20.7011 20.6899 19.7847 21.8065 19.2435 23.113C18.7023 24.4195 18.5607 25.8572 18.8366 27.2441C19.1125 28.6311 19.7935 29.9051 20.7934 30.905C21.7934 31.905 23.0674 32.586 24.4543 32.8618C25.8413 33.1377 27.2789 32.9961 28.5854 32.455C29.8919 31.9138 31.0086 30.9974 31.7942 29.8215C32.5799 28.6457 32.9992 27.2634 32.9992 25.8492C32.997 23.9536 32.243 22.1362 30.9026 20.7958C29.5622 19.4554 27.7449 18.7014 25.8492 18.6992ZM25.8492 31.8992C24.6526 31.8992 23.4829 31.5444 22.488 30.8796C21.4931 30.2148 20.7177 29.27 20.2598 28.1645C19.8018 27.059 19.682 25.8425 19.9155 24.6689C20.1489 23.4953 20.7251 22.4173 21.5712 21.5712C22.4173 20.7251 23.4953 20.1489 24.6689 19.9155C25.8425 19.682 27.059 19.8018 28.1645 20.2597C29.27 20.7177 30.2148 21.4931 30.8796 22.488C31.5444 23.4829 31.8992 24.6526 31.8992 25.8492C31.8973 27.4532 31.2593 28.9909 30.1251 30.1251C28.9909 31.2593 27.4532 31.8973 25.8492 31.8992Z" fill="black"/>
<path d="M29.0292 23.545L24.7513 27.8229L22.8071 25.8781C22.7034 25.7779 22.5644 25.7225 22.4202 25.7237C22.276 25.725 22.1381 25.7828 22.0361 25.8848C21.9341 25.9868 21.8763 26.1247 21.875 26.2689C21.8738 26.4132 21.9292 26.5521 22.0294 26.6558L24.3625 28.9895C24.4656 29.0926 24.6055 29.1505 24.7513 29.1505C24.8972 29.1505 25.0371 29.0926 25.1402 28.9895L29.8069 24.3227C29.9071 24.219 29.9626 24.0801 29.9613 23.9358C29.9601 23.7916 29.9022 23.6537 29.8002 23.5517C29.6983 23.4497 29.5603 23.3919 29.4161 23.3906C29.2719 23.3894 29.133 23.4448 29.0292 23.545Z" fill="black"/>
</svg>
