<svg width="20" height="17" viewBox="0 0 20 17" fill="none" xmlns="http://www.w3.org/2000/svg">
<path d="M3.44402 15.7047C4.26248 16.0004 5.12658 16.1498 5.9968 16.1461C6.94707 16.1428 7.89007 15.9804 8.78669 15.6657C10.589 15.0388 12.0855 13.8722 13.0005 12.3809C13.9278 10.8695 14.1494 9.206 13.6245 7.69676C13.6143 7.66802 13.6025 7.63986 13.5893 7.61239C13.721 7.70565 13.8718 7.76848 14.0308 7.79635C14.1898 7.82422 14.3529 7.81644 14.5085 7.77356L19.4686 5.36678C19.5806 5.31293 19.6809 5.23731 19.7635 5.14434C19.846 5.05137 19.9093 4.9429 19.9495 4.82525C19.9898 4.70759 20.0062 4.58311 19.9979 4.45904C19.9896 4.33497 19.9566 4.2138 19.901 4.10258L19.8278 3.95622C19.7199 3.73936 19.532 3.57283 19.3038 3.49163C19.0755 3.41044 18.8247 3.42091 18.604 3.52084L13.9331 5.65357C13.7003 5.71815 13.4952 5.85737 13.3493 6.04984C13.2034 6.24232 13.1247 6.47738 13.1254 6.71891C13.1254 6.84291 13.1465 6.96601 13.1879 7.08288L13.096 7.14417C11.8698 6.53091 8.89606 7.02531 6.11758 7.99179C5.95433 8.04856 5.79158 8.10707 5.62932 8.16733C5.32226 7.02976 6.11688 6.20179 6.16012 6.15792L5.7174 5.71685C5.4146 6.0443 5.1881 6.43478 5.05419 6.8602C4.89607 7.35851 4.8917 7.8929 5.04165 8.39373C4.54167 8.59337 4.06122 8.80442 3.60659 9.02374C3.35445 8.08776 3.33207 7.12202 3.3664 6.42416C3.37314 6.28331 3.35166 6.14253 3.30323 6.01009C3.25479 5.87765 3.18038 5.75623 3.08436 5.65296C2.98834 5.54968 2.87265 5.46664 2.74409 5.4087C2.61553 5.35076 2.47668 5.3191 2.33571 5.31558C2.19474 5.31205 2.05448 5.33674 1.92319 5.38818C1.79189 5.43962 1.67219 5.51678 1.57113 5.61513C1.47007 5.71347 1.38969 5.83102 1.3347 5.96088C1.2797 6.09073 1.25122 6.23026 1.25091 6.37127V8.58134C1.25081 8.6261 1.23298 8.66899 1.20131 8.70062C1.16964 8.73225 1.12673 8.75004 1.08197 8.75008C0.977318 8.75004 0.873695 8.7707 0.77706 8.81087C0.680426 8.85103 0.592688 8.90991 0.518897 8.98411C0.445106 9.05832 0.386719 9.14638 0.347095 9.24324C0.307471 9.3401 0.287392 9.44384 0.288016 9.54849C0.301869 10.0555 0.392221 10.5575 0.556012 11.0376C0.077868 11.5495 -0.0931405 12.0135 0.0478302 12.4189C0.572848 13.9281 1.77897 15.0951 3.44402 15.7047ZM8.58139 15.0752C6.91497 15.6548 5.16684 15.67 3.65889 15.1179C2.54472 14.7099 1.66288 14.0278 1.0965 13.1517C1.42324 13.2157 1.75573 13.2456 2.08864 13.241C2.28007 13.241 2.48449 13.2336 2.7019 13.2187C3.77932 13.1448 5.07598 12.8877 6.43679 12.4837C6.46413 12.4881 7.20925 12.244 7.55494 12.1238C8.34345 11.8509 9.11729 11.5373 9.87336 11.1844L9.8893 11.177C10.7068 10.7923 11.4384 10.3831 12.0399 9.97065C12.5781 9.60166 12.9835 9.25247 13.2561 8.92308C13.4912 11.4186 11.5849 14.0305 8.58139 15.0752ZM11.8347 8.78637C11.7688 9.3465 11.6591 9.46189 11.6545 9.46654L11.6606 9.47259C11.4019 9.64876 11.1181 9.82445 10.8129 9.99784C11.0168 9.59423 11.1516 9.15924 11.2114 8.71102C11.2217 8.63534 11.2591 8.56595 11.3166 8.51568C11.3741 8.46542 11.4479 8.43768 11.5243 8.43759C11.5684 8.43758 11.612 8.44691 11.6523 8.46496C11.6925 8.48302 11.7285 8.50939 11.7578 8.54234C11.7871 8.57529 11.8091 8.61408 11.8224 8.65616C11.8357 8.69823 11.8399 8.74263 11.8347 8.78645L11.8347 8.78637ZM18.8616 4.09012C18.9351 4.05698 19.0186 4.05361 19.0945 4.08072C19.1705 4.10783 19.2329 4.16331 19.2688 4.2355L19.342 4.38186C19.3606 4.41906 19.3716 4.4596 19.3744 4.5011C19.3771 4.5426 19.3715 4.58423 19.3579 4.62355C19.3444 4.66286 19.3231 4.69907 19.2954 4.73006C19.2676 4.76104 19.234 4.78618 19.1964 4.80399L15.3123 6.69606C15.3091 6.54155 15.2732 6.38947 15.2068 6.2499C15.1405 6.11032 15.0452 5.98642 14.9274 5.88641L18.8616 4.09012ZM14.2191 6.25018C14.3169 6.25007 14.4123 6.28057 14.4918 6.33741C14.5714 6.39425 14.6312 6.47458 14.6628 6.56712C14.6944 6.65966 14.6962 6.75977 14.668 6.8534C14.6398 6.94703 14.583 7.02947 14.5055 7.08917L14.3336 7.17296C14.2781 7.18763 14.2202 7.19137 14.1631 7.18397L14.2363 7.13519C14.2709 7.11262 14.3007 7.08342 14.3239 7.04928C14.3472 7.01514 14.3634 6.97673 14.3717 6.93628C14.38 6.89582 14.3802 6.85412 14.3723 6.81359C14.3644 6.77306 14.3485 6.7345 14.3256 6.70014C14.3027 6.66578 14.2732 6.6363 14.2388 6.61341C14.2045 6.59052 14.1659 6.57466 14.1253 6.56676C14.0848 6.55887 14.0431 6.55908 14.0027 6.5674C13.9622 6.57571 13.9238 6.59196 13.8897 6.61521L13.7511 6.70759C13.7541 6.58539 13.8047 6.4692 13.8921 6.38377C13.9796 6.29833 14.0969 6.2504 14.2191 6.25018ZM5.69814 9.57513L6.17828 9.17502C6.06481 9.03985 5.96289 8.89537 5.87361 8.74313C6.0227 8.68809 6.17281 8.63427 6.32281 8.58204C8.03172 7.98765 9.69767 7.61056 11.0133 7.52033C11.6255 7.47838 12.1416 7.50283 12.5054 7.59114C12.8016 7.66294 12.9893 7.77332 13.034 7.90195C13.0787 8.03058 13 8.23358 12.8124 8.47365C12.7039 8.60917 12.5846 8.73578 12.4558 8.85226C12.4822 8.60682 12.4109 8.36086 12.2572 8.16764C12.1036 7.97441 11.88 7.84948 11.635 7.81987C11.3899 7.79027 11.143 7.85838 10.9478 8.00947C10.7526 8.16055 10.6247 8.38245 10.5919 8.62712C10.4331 9.79547 9.74247 10.4763 9.54982 10.6459C8.83164 10.9784 8.09722 11.2746 7.34933 11.5335C7.03054 11.6444 6.71394 11.7475 6.39952 11.8429C5.16492 11.6047 4.29199 10.8586 3.80318 9.62239C4.26926 9.39505 4.76564 9.17647 5.28293 8.97007C5.40121 9.18485 5.54029 9.38751 5.69814 9.57513ZM0.961855 9.42498C0.977551 9.40909 0.996259 9.39649 1.01688 9.38792C1.03751 9.37934 1.05963 9.37497 1.08197 9.37506C1.29245 9.37482 1.49425 9.2911 1.64309 9.14226C1.79192 8.99342 1.87564 8.79163 1.87588 8.58114V6.37127C1.87595 6.2563 1.92166 6.14606 2.00295 6.06477C2.08425 5.98347 2.19449 5.93777 2.30946 5.9377C2.36823 5.93773 2.42639 5.94971 2.4804 5.97291C2.5344 5.99611 2.58312 6.03006 2.6236 6.07267C2.66408 6.11529 2.69547 6.16569 2.71587 6.22082C2.73627 6.27594 2.74524 6.33464 2.74225 6.39334C2.69757 7.30123 2.74401 8.63688 3.21907 9.84406C3.49269 10.5393 3.8797 11.1115 4.36929 11.5445C4.6481 11.7904 4.96191 11.9935 5.30043 12.1471C4.58575 12.3321 3.85915 12.4674 3.12583 12.5523L2.86478 12.5042C2.16684 12.3879 1.63679 11.9469 1.2893 11.1936C1.05732 10.6738 0.929499 10.1136 0.913068 9.54458C0.91285 9.5224 0.917052 9.5004 0.925428 9.47987C0.933805 9.45933 0.946188 9.44067 0.961855 9.42498ZM0.638157 12.2136C0.594917 12.0893 0.666477 11.8998 0.833149 11.6774C1.01762 12.0278 1.26971 12.3382 1.57484 12.5907C1.43745 12.5779 1.3011 12.5557 1.16673 12.5243C0.870765 12.4525 0.683117 12.3422 0.638275 12.2137V12.2135L0.638157 12.2136Z" fill="black"/>
<path d="M2.81344 2.1875C2.62803 2.1875 2.44678 2.24248 2.29261 2.34549C2.13845 2.4485 2.01829 2.59491 1.94734 2.76621C1.87638 2.93751 1.85782 3.126 1.89399 3.30785C1.93016 3.4897 2.01945 3.65674 2.15055 3.78785C2.28166 3.91895 2.4487 4.00824 2.63055 4.04441C2.8124 4.08058 3.00089 4.06202 3.17219 3.99106C3.34349 3.92011 3.4899 3.79995 3.59291 3.64579C3.69592 3.49162 3.7509 3.31037 3.7509 3.12496C3.75062 2.87642 3.65176 2.63813 3.47602 2.46238C3.30027 2.28664 3.06198 2.18778 2.81344 2.1875ZM2.81344 3.43745C2.75163 3.43745 2.69122 3.41912 2.63983 3.38479C2.58844 3.35045 2.54839 3.30164 2.52474 3.24454C2.50109 3.18745 2.4949 3.12461 2.50696 3.064C2.51901 3.00338 2.54877 2.9477 2.59248 2.904C2.63618 2.8603 2.69186 2.83054 2.75248 2.81848C2.81309 2.80642 2.87592 2.81261 2.93302 2.83626C2.99012 2.85991 3.03893 2.89996 3.07326 2.95135C3.1076 3.00274 3.12593 3.06316 3.12593 3.12496C3.12583 3.20781 3.09288 3.28724 3.0343 3.34582C2.97571 3.4044 2.89629 3.43736 2.81344 3.43745Z" fill="black"/>
<path d="M5.9384 0.937462C5.9384 0.752049 5.88342 0.570801 5.78041 0.416636C5.6774 0.262471 5.53099 0.142315 5.35969 0.0713604C5.18839 0.000406189 4.9999 -0.0181587 4.81805 0.0180135C4.6362 0.0541856 4.46916 0.14347 4.33805 0.274576C4.20695 0.405683 4.11766 0.572722 4.08149 0.754572C4.04532 0.936422 4.06388 1.12491 4.13484 1.29621C4.20579 1.46751 4.32595 1.61392 4.48011 1.71693C4.63428 1.81994 4.81553 1.87492 5.00094 1.87492C5.24948 1.87464 5.48777 1.77579 5.66352 1.60004C5.83926 1.42429 5.93812 1.18601 5.9384 0.937462ZM4.68845 0.937462C4.68845 0.875658 4.70678 0.815241 4.74111 0.763853C4.77545 0.712465 4.82426 0.672413 4.88135 0.648761C4.93845 0.62511 5.00129 0.618922 5.0619 0.630979C5.12252 0.643036 5.1782 0.672798 5.2219 0.7165C5.2656 0.760202 5.29536 0.815882 5.30742 0.876499C5.31948 0.937115 5.31329 0.999946 5.28964 1.05705C5.26599 1.11415 5.22594 1.16295 5.17455 1.19729C5.12316 1.23162 5.06274 1.24995 5.00094 1.24995C4.91809 1.24986 4.83866 1.2169 4.78008 1.15832C4.7215 1.09974 4.68854 1.02031 4.68845 0.937462Z" fill="black"/>
<path d="M4.06348 4.375H4.68845V4.99997H4.06348V4.375Z" fill="black"/>
<path d="M3.75098 7.1875H4.37595V7.81247H3.75098V7.1875Z" fill="black"/>
<path d="M5.62598 10H6.25095V10.625H5.62598V10Z" fill="black"/>
<path d="M0.625977 4.0625H1.25095V4.68747H0.625977V4.0625Z" fill="black"/>
<path d="M3.26511 12.4476L3.61178 11.9277C2.84806 11.4185 2.81435 10.9494 2.81345 10.9297C2.81372 10.935 2.81345 10.9377 2.81345 10.9377H2.18848C2.18848 11.0188 2.21867 11.7502 3.26511 12.4476Z" fill="black"/>
<path d="M6.34816 2.95683C6.47724 2.76155 6.62331 2.57805 6.78467 2.40846L6.34246 1.9668C6.30047 2.00883 5.31348 3.00804 5.31348 4.06269H5.93845C5.93845 3.74403 6.08012 3.36162 6.34816 2.95683Z" fill="black"/>
</svg>
