<svg width="28" height="26" viewBox="0 0 28 26" fill="none" xmlns="http://www.w3.org/2000/svg">
<path d="M14 5.46875C13.6982 5.46875 13.4531 5.71378 13.4531 6.01562C13.4531 6.31747 13.6982 6.5625 14 6.5625C14.3018 6.5625 14.5469 6.31747 14.5469 6.01562C14.5469 5.71378 14.3018 5.46875 14 5.46875Z" fill="#AF6AB3"/>
<path d="M4.92188 15.3125C5.22372 15.3125 5.46875 15.0675 5.46875 14.7656C5.46875 14.4638 5.22372 14.2188 4.92188 14.2188C4.62003 14.2188 4.375 14.4638 4.375 14.7656C4.375 15.0675 4.62003 15.3125 4.92188 15.3125Z" fill="#AF6AB3"/>
<path d="M18.375 0C13.4516 0 9.41074 3.39447 9.09821 7.67014C4.40939 7.90533 0 11.2863 0 15.8594C0 17.7704 0.756226 19.6221 2.13281 21.0893C2.40518 22.2121 2.07449 23.4022 1.25397 24.2227C1.0976 24.3791 1.05081 24.6143 1.13541 24.8187C1.22 25.0229 1.41931 25.1562 1.64062 25.1562C3.20029 25.1562 4.70334 24.5446 5.82016 23.4669C6.90814 23.8378 8.32767 24.0625 9.625 24.0625C14.5477 24.0625 18.5882 20.6689 18.9016 16.3941C20.0466 16.3432 21.2375 16.1317 22.1798 15.8107C23.2967 16.8884 24.7997 17.5 26.3594 17.5C26.5807 17.5 26.78 17.3667 26.8646 17.1625C26.9492 16.958 26.9024 16.7228 26.746 16.5665C25.9255 15.7459 25.5948 14.5558 25.8672 13.433C27.2438 11.9659 28 10.1142 28 8.20312C28 3.45151 23.2509 0 18.375 0ZM9.625 22.9688C8.33429 22.9688 6.86349 22.7154 5.87827 22.3234C5.66721 22.2392 5.42603 22.2946 5.27243 22.4622C4.61212 23.1841 3.75357 23.6874 2.81812 23.9187C3.33359 22.9312 3.46518 21.7669 3.15158 20.6638C3.1268 20.5768 3.08087 20.4973 3.01785 20.4326C1.77713 19.1547 1.09375 17.5305 1.09375 15.8594C1.09375 12.0056 5.00049 8.75 9.625 8.75C13.9919 8.75 17.8281 11.7867 17.8281 15.8594C17.8281 19.7796 14.1483 22.9688 9.625 22.9688ZM24.9821 12.7764C24.9191 12.8413 24.8732 12.9208 24.8484 13.0075C24.5348 14.1107 24.6664 15.2749 25.1819 16.2625C24.2464 16.0313 23.3879 15.5278 22.7276 14.806C22.574 14.6385 22.3328 14.583 22.1217 14.6671C21.2679 15.0068 20.0498 15.242 18.8999 15.2988C18.7401 13.2307 17.7085 11.287 15.9448 9.84375H23.0781C23.3802 9.84375 23.625 9.59894 23.625 9.29688C23.625 8.99481 23.3802 8.75 23.0781 8.75H14.2647C13.0233 8.1181 11.6294 7.7496 10.1947 7.67227C10.509 3.99924 14.0579 1.09375 18.375 1.09375C22.9995 1.09375 26.9062 4.34937 26.9062 8.20312C26.9062 9.8743 26.2229 11.4985 24.9821 12.7764Z" fill="#AF6AB3"/>
<path d="M14 14.2188H7.10938C6.80731 14.2188 6.5625 14.4636 6.5625 14.7656C6.5625 15.0677 6.80731 15.3125 7.10938 15.3125H14C14.3021 15.3125 14.5469 15.0677 14.5469 14.7656C14.5469 14.4636 14.3021 14.2188 14 14.2188Z" fill="#AF6AB3"/>
<path d="M14 17.5H4.92188C4.61981 17.5 4.375 17.7448 4.375 18.0469C4.375 18.3489 4.61981 18.5938 4.92188 18.5938H14C14.3021 18.5938 14.5469 18.3489 14.5469 18.0469C14.5469 17.7448 14.3021 17.5 14 17.5Z" fill="#AF6AB3"/>
<path d="M23.0781 5.46875H16.1875C15.8854 5.46875 15.6406 5.71356 15.6406 6.01562C15.6406 6.31769 15.8854 6.5625 16.1875 6.5625H23.0781C23.3802 6.5625 23.625 6.31769 23.625 6.01562C23.625 5.71356 23.3802 5.46875 23.0781 5.46875Z" fill="#AF6AB3"/>
</svg>
