<svg width="15" height="11" viewBox="0 0 15 11" fill="none" xmlns="http://www.w3.org/2000/svg">
<path d="M5.00041 9.29289L4.64685 8.93934L1.35746 5.64995C1.26344 5.56044 1.13825 5.51096 1.00835 5.51209C0.877252 5.51323 0.751846 5.56582 0.659142 5.65852C0.566438 5.75123 0.513853 5.87663 0.512714 6.00773C0.511585 6.13763 0.561056 6.26282 0.650566 6.35684L4.64691 10.3532C4.64693 10.3532 4.64694 10.3532 4.64696 10.3532C4.74072 10.4469 4.86785 10.4996 5.00041 10.4996C5.13297 10.4996 5.2601 10.4469 5.35385 10.3532L5.00041 9.29289ZM5.00041 9.29289L5.35396 8.93934L13.6469 0.646393C13.6469 0.646376 13.6469 0.646358 13.647 0.64634C13.7407 0.552638 13.8678 0.5 14.0004 0.5C14.133 0.5 14.2601 0.552658 14.3539 0.646393C14.4476 0.740146 14.5002 0.867253 14.5002 0.999786C14.5002 1.13234 14.4476 1.25947 14.3539 1.35323C14.3538 1.35325 14.3538 1.35327 14.3538 1.35329L5.35391 10.3532L5.00041 9.29289Z" fill="black" stroke="#653D93"/>
</svg>
