<svg width="29" height="29" viewBox="0 0 29 29" fill="none" xmlns="http://www.w3.org/2000/svg">
<path d="M14.04 0C11.2632 0 8.54867 0.823432 6.2398 2.36617C3.93093 3.9089 2.13139 6.10165 1.06874 8.66712C0.00608326 11.2326 -0.271955 14.0556 0.269781 16.7791C0.811517 19.5026 2.1487 22.0042 4.11223 23.9678C6.07576 25.9313 8.57744 27.2685 11.3009 27.8102C14.0244 28.352 16.8474 28.0739 19.4129 27.0113C21.9784 25.9486 24.1711 24.1491 25.7138 21.8402C27.2566 19.5313 28.08 16.8168 28.08 14.04C28.0765 10.3174 26.5961 6.74837 23.9639 4.11613C21.3316 1.48389 17.7626 0.00354023 14.04 0ZM14.04 26.7429C11.5276 26.7429 9.07165 25.9978 6.98268 24.602C4.8937 23.2062 3.26555 21.2223 2.3041 18.9012C1.34265 16.58 1.09109 14.0259 1.58123 11.5618C2.07137 9.09768 3.2812 6.83425 5.05773 5.05772C6.83425 3.2812 9.09769 2.07137 11.5618 1.58122C14.0259 1.09108 16.58 1.34264 18.9012 2.30409C21.2223 3.26554 23.2062 4.8937 24.602 6.98267C25.9978 9.07164 26.7429 11.5276 26.7429 14.04C26.7393 17.4079 25.3998 20.6369 23.0184 23.0184C20.6369 25.3998 17.4079 26.7393 14.04 26.7429Z" fill="white"/>
<path d="M18.7275 14.8913L14.7161 13.5541V6.02599C14.7161 5.84868 14.6456 5.67862 14.5202 5.55324C14.3949 5.42786 14.2248 5.35742 14.0475 5.35742C13.8702 5.35742 13.7001 5.42786 13.5747 5.55324C13.4494 5.67862 13.3789 5.84868 13.3789 6.02599V14.0489C13.3779 14.1884 13.4215 14.3246 13.5032 14.4376C13.585 14.5506 13.7007 14.6346 13.8336 14.6773L18.2729 16.1615C18.3435 16.1756 18.4162 16.1756 18.4868 16.1615C18.6275 16.1596 18.7639 16.1133 18.8768 16.0293C18.9896 15.9452 19.0731 15.8278 19.1153 15.6935C19.1637 15.5356 19.1507 15.3651 19.0788 15.2163C19.0069 15.0676 18.8814 14.9514 18.7275 14.8913Z" fill="white"/>
</svg>
