<svg width="72" height="72" viewBox="0 0 72 72" fill="none" xmlns="http://www.w3.org/2000/svg">
<path d="M17.6091 53.2595L18.8232 54.4736C18.9311 54.5815 19.116 54.5045 19.3779 54.2427L53.9476 19.673C54.2095 19.4111 54.2865 19.2262 54.1786 19.1183L52.9645 17.9042C52.8566 17.7963 52.6717 17.8733 52.4098 18.1352L17.8401 52.7048C17.5782 52.9667 17.5012 53.1516 17.6091 53.2595Z" fill="black" stroke="black"/>
<path d="M17.4111 20.0654L51.9442 54.5985C52.2183 54.8726 52.4134 54.9516 52.5294 54.8355L53.8351 53.5298C53.9512 53.4138 53.8722 53.2187 53.5981 52.9446L19.065 18.4115C18.7909 18.1374 18.5959 18.0584 18.4798 18.1745L17.1741 19.4802C17.058 19.5963 17.137 19.7913 17.4111 20.0654Z" fill="black" stroke="black"/>
</svg>
