<svg width="155" height="152" viewBox="0 0 155 152" fill="none" xmlns="http://www.w3.org/2000/svg">
<path d="M39.7531 85.355C47.3197 89.4323 59.7205 87.9033 64.9751 86.6291C69.3889 62.4198 69.389 64.9681 71.9112 54.7746C73.929 46.6199 79.4778 48.8285 82 50.9521C81.3695 40.1216 76.9556 16.5494 74.4334 7.63016C71.9112 -1.28908 63.0835 5.08181 61.1919 6.99307C59.3002 8.90434 51.7336 13.364 41.6448 18.4607C31.5561 23.5574 10.7479 20.3719 6.33403 20.3719C2.80295 20.3719 2.76092 25.4686 3.18128 28.017C3.81183 33.7508 9.48678 45.2184 15.1617 55.4118C20.8367 65.6052 30.2949 80.2582 39.7531 85.355Z" stroke="black" stroke-width="5"/>
<path d="M37 61.5C43 61.5 56.8 60 64 54C62.1667 62.3333 54.2 75.5 37 61.5Z" stroke="black" stroke-width="4"/>
<path d="M18 46.0443C22.5 42.5443 33.4 37.1443 41 43.5443C36.3333 36.8775 25.5 23.5 18 46.0443Z" stroke="black" stroke-width="4"/>
<path d="M73.5 30.5436C63.5 26.5436 56 34.5436 53.5 39.0436C55.4968 13.5403 67.4622 24.8411 73.4716 30.5168L73.5 30.5436Z" stroke="black" stroke-width="4"/>
<path d="M83 88C86 91.1667 94.5 96.3 104.5 91.5C99.6667 97.1667 87.5 111 83 88Z" stroke="black" stroke-width="4"/>
<path d="M117 99C118.167 102.333 123.1 108.9 133.5 108.5C127.333 112 113 122 117 99Z" stroke="black" stroke-width="4"/>
<path d="M90.1802 62.3947C86.6169 58.3397 82.7566 64.0843 81.2719 67.4634C73 83.3033 73 103.578 73 114.983C73 126.388 75.5452 139.059 86.9986 146.029C98.4521 152.998 113.723 146.663 123.904 137.792C132.049 130.696 145.538 106.535 151.265 95.3415C152.326 92.8071 153.047 87.3582 147.447 85.8376C141.848 84.317 133.237 84.3592 129.631 84.5704C109.906 83.9368 94.6343 67.4634 90.1802 62.3947Z" stroke="black" stroke-width="5"/>
<path d="M83 120.353C89.3333 119.686 104 121.053 112 131.853C111 121.519 106 97 83 120.353Z" stroke="black" stroke-width="4"/>
</svg>
