<svg width="58" height="58" viewBox="0 0 58 58" fill="none" xmlns="http://www.w3.org/2000/svg">
<path d="M16.2906 57.9998H0.828573C0.608822 57.9998 0.398071 57.9125 0.242683 57.7571C0.0872958 57.6017 0 57.3909 0 57.1712V14.8725C0 14.6528 0.0872958 14.442 0.242683 14.2866C0.398071 14.1312 0.608822 14.0439 0.828573 14.0439H16.2906C16.5103 14.0439 16.7211 14.1312 16.8765 14.2866C17.0319 14.442 17.1191 14.6528 17.1191 14.8725V57.1712C17.1191 57.3909 17.0319 57.6017 16.8765 57.7571C16.7211 57.9125 16.5103 57.9998 16.2906 57.9998ZM1.65715 56.3426H15.462V15.7011H1.65715V56.3426Z" fill="#4E337A"/>
<path d="M57.1716 57.9997H41.7096C41.4898 57.9997 41.2791 57.9124 41.1237 57.7571C40.9683 57.6017 40.881 57.3909 40.881 57.1712V26.9887C40.881 26.769 40.9683 26.5582 41.1237 26.4028C41.2791 26.2475 41.4898 26.1602 41.7096 26.1602H57.1716C57.3913 26.1602 57.6021 26.2475 57.7574 26.4028C57.9128 26.5582 58.0001 26.769 58.0001 26.9887V57.1712C58.0001 57.3909 57.9128 57.6017 57.7574 57.7571C57.6021 57.9124 57.3913 57.9997 57.1716 57.9997ZM42.5381 56.3426H56.343V27.8173H42.5381V56.3426Z" fill="#4E337A"/>
<path d="M41.7096 58.0001H16.2906C16.0709 58.0001 15.8601 57.9128 15.7047 57.7574C15.5493 57.6021 15.462 57.3913 15.462 57.1715V0.828573C15.462 0.608822 15.5493 0.398071 15.7047 0.242683C15.8601 0.0872958 16.0709 0 16.2906 0H41.7096C41.9293 0 42.1401 0.0872958 42.2955 0.242683C42.4509 0.398071 42.5382 0.608822 42.5382 0.828573V57.1715C42.5382 57.3913 42.4509 57.6021 42.2955 57.7574C42.1401 57.9128 41.9293 58.0001 41.7096 58.0001ZM17.1192 56.343H40.881V1.65715H17.1192V56.343Z" fill="#4E337A"/>
<path d="M35.4207 58H22.5778C22.3581 58 22.1473 57.9127 21.992 57.7574C21.8366 57.602 21.7493 57.3912 21.7493 57.1715V37.5815C21.7493 37.3618 21.8366 37.151 21.992 36.9956C22.1473 36.8402 22.3581 36.7529 22.5778 36.7529H35.4207C35.6405 36.7529 35.8512 36.8402 36.0066 36.9956C36.162 37.151 36.2493 37.3618 36.2493 37.5815V57.1715C36.2493 57.3912 36.162 57.602 36.0066 57.7574C35.8512 57.9127 35.6405 58 35.4207 58ZM23.4064 56.3429H34.5922V38.4101H23.4064V56.3429Z" fill="#4E337A"/>
<path d="M11.1857 28.6348H5.93587C5.71612 28.6348 5.50537 28.5475 5.34998 28.3921C5.1946 28.2367 5.1073 28.026 5.1073 27.8062V22.5581C5.1073 22.3383 5.1946 22.1276 5.34998 21.9722C5.50537 21.8168 5.71612 21.7295 5.93587 21.7295H11.1857C11.4055 21.7295 11.6162 21.8168 11.7716 21.9722C11.927 22.1276 12.0143 22.3383 12.0143 22.5581V27.8062C12.0143 28.026 11.927 28.2367 11.7716 28.3921C11.6162 28.5475 11.4055 28.6348 11.1857 28.6348ZM6.76693 26.9777H10.3571V23.3866H6.76445L6.76693 26.9777Z" fill="#4E337A"/>
<path d="M11.1857 39.4748H5.93587C5.71612 39.4748 5.50537 39.3875 5.34998 39.2321C5.1946 39.0767 5.1073 38.866 5.1073 38.6462V33.3989C5.1073 33.1791 5.1946 32.9684 5.34998 32.813C5.50537 32.6576 5.71612 32.5703 5.93587 32.5703H11.1857C11.4055 32.5703 11.6162 32.6576 11.7716 32.813C11.927 32.9684 12.0143 33.1791 12.0143 33.3989V38.6462C12.0143 38.866 11.927 39.0767 11.7716 39.2321C11.6162 39.3875 11.4055 39.4748 11.1857 39.4748ZM6.76693 37.8177H10.3571V34.2275H6.76445L6.76693 37.8177Z" fill="#4E337A"/>
<path d="M11.1857 50.3147H5.93587C5.71612 50.3147 5.50537 50.2274 5.34998 50.072C5.1946 49.9166 5.1073 49.7058 5.1073 49.4861V44.2387C5.1073 44.019 5.1946 43.8082 5.34998 43.6528C5.50537 43.4975 5.71612 43.4102 5.93587 43.4102H11.1857C11.4055 43.4102 11.6162 43.4975 11.7716 43.6528C11.927 43.8082 12.0143 44.019 12.0143 44.2387V49.4861C12.0143 49.7058 11.927 49.9166 11.7716 50.072C11.6162 50.2274 11.4055 50.3147 11.1857 50.3147ZM6.76693 48.6575H10.3571V45.0673H6.76445L6.76693 48.6575Z" fill="#4E337A"/>
<path d="M52.0643 39.4748H46.8144C46.5947 39.4748 46.3839 39.3875 46.2285 39.2321C46.0731 39.0767 45.9858 38.866 45.9858 38.6462V33.3989C45.9858 33.1791 46.0731 32.9684 46.2285 32.813C46.3839 32.6576 46.5947 32.5703 46.8144 32.5703H52.0618C52.2815 32.5703 52.4923 32.6576 52.6477 32.813C52.803 32.9684 52.8903 33.1791 52.8903 33.3989V38.6462C52.8903 38.8656 52.8034 39.0759 52.6485 39.2313C52.4937 39.3866 52.2836 39.4742 52.0643 39.4748V39.4748ZM47.6455 37.8177H51.2357V34.2275H47.643L47.6455 37.8177Z" fill="#4E337A"/>
<path d="M52.0643 50.3147H46.8144C46.5947 50.3147 46.3839 50.2274 46.2285 50.072C46.0731 49.9166 45.9858 49.7058 45.9858 49.4861V44.2387C45.9858 44.019 46.0731 43.8082 46.2285 43.6528C46.3839 43.4975 46.5947 43.4102 46.8144 43.4102H52.0618C52.2815 43.4102 52.4923 43.4975 52.6477 43.6528C52.803 43.8082 52.8903 44.019 52.8903 44.2387V49.4861C52.8903 49.7054 52.8034 49.9158 52.6485 50.0711C52.4937 50.2264 52.2836 50.314 52.0643 50.3147V50.3147ZM47.6455 48.6575H51.2357V45.0673H47.643L47.6455 48.6575Z" fill="#4E337A"/>
<path d="M26.1829 11.5764H20.9339C20.7142 11.5764 20.5034 11.4891 20.348 11.3337C20.1926 11.1783 20.1053 10.9676 20.1053 10.7478V5.50045C20.1053 5.2807 20.1926 5.06995 20.348 4.91456C20.5034 4.75917 20.7142 4.67187 20.9339 4.67188H26.1829C26.4027 4.67188 26.6134 4.75917 26.7688 4.91456C26.9242 5.06995 27.0115 5.2807 27.0115 5.50045V10.7478C27.0115 10.9676 26.9242 11.1783 26.7688 11.3337C26.6134 11.4891 26.4027 11.5764 26.1829 11.5764ZM21.7642 9.91923H25.3544V6.32902H21.7625L21.7642 9.91923Z" fill="#4E337A"/>
<path d="M26.1829 22.417H20.9339C20.7142 22.417 20.5034 22.3298 20.348 22.1744C20.1926 22.019 20.1053 21.8082 20.1053 21.5885V16.3403C20.1053 16.1205 20.1926 15.9098 20.348 15.7544C20.5034 15.599 20.7142 15.5117 20.9339 15.5117H26.1829C26.4027 15.5117 26.6134 15.599 26.7688 15.7544C26.9242 15.9098 27.0115 16.1205 27.0115 16.3403V21.5885C27.0115 21.8082 26.9242 22.019 26.7688 22.1744C26.6134 22.3298 26.4027 22.417 26.1829 22.417ZM21.7642 20.7599H25.3544V17.1689H21.7625L21.7642 20.7599Z" fill="#4E337A"/>
<path d="M26.1829 33.257H20.9339C20.7142 33.257 20.5034 33.1697 20.348 33.0144C20.1926 32.859 20.1053 32.6482 20.1053 32.4285V27.1811C20.1053 26.9614 20.1926 26.7506 20.348 26.5952C20.5034 26.4398 20.7142 26.3525 20.9339 26.3525H26.1829C26.4027 26.3525 26.6134 26.4398 26.7688 26.5952C26.9242 26.7506 27.0115 26.9614 27.0115 27.1811V32.4285C27.0115 32.6482 26.9242 32.859 26.7688 33.0144C26.6134 33.1697 26.4027 33.257 26.1829 33.257ZM21.7642 31.5999H25.3544V28.0097H21.7625L21.7642 31.5999Z" fill="#4E337A"/>
<path d="M37.0662 11.5764H31.8172C31.5975 11.5764 31.3867 11.4891 31.2313 11.3337C31.0759 11.1783 30.9886 10.9676 30.9886 10.7478V5.50045C30.9886 5.2807 31.0759 5.06995 31.2313 4.91456C31.3867 4.75917 31.5975 4.67187 31.8172 4.67188H37.0646C37.2843 4.67188 37.4951 4.75917 37.6505 4.91456C37.8058 5.06995 37.8931 5.2807 37.8931 5.50045V10.7478C37.8931 10.9673 37.8061 11.1778 37.651 11.3331C37.496 11.4884 37.2857 11.5759 37.0662 11.5764ZM32.6475 9.91923H36.2377V6.32902H32.6458L32.6475 9.91923Z" fill="#4E337A"/>
<path d="M37.0662 22.417H31.8172C31.5975 22.417 31.3867 22.3298 31.2313 22.1744C31.0759 22.019 30.9886 21.8082 30.9886 21.5885V16.3403C30.9886 16.1205 31.0759 15.9098 31.2313 15.7544C31.3867 15.599 31.5975 15.5117 31.8172 15.5117H37.0646C37.2843 15.5117 37.4951 15.599 37.6505 15.7544C37.8058 15.9098 37.8931 16.1205 37.8931 16.3403V21.5885C37.8931 21.8079 37.8061 22.0184 37.651 22.1738C37.496 22.3291 37.2857 22.4166 37.0662 22.417ZM32.6475 20.7599H36.2377V17.1689H32.6458L32.6475 20.7599Z" fill="#4E337A"/>
<path d="M37.0662 33.257H31.8172C31.5975 33.257 31.3867 33.1697 31.2313 33.0144C31.0759 32.859 30.9886 32.6482 30.9886 32.4285V27.1811C30.9886 26.9614 31.0759 26.7506 31.2313 26.5952C31.3867 26.4398 31.5975 26.3525 31.8172 26.3525H37.0646C37.2843 26.3525 37.4951 26.4398 37.6505 26.5952C37.8058 26.7506 37.8931 26.9614 37.8931 27.1811V32.4285C37.8931 32.6479 37.8061 32.8584 37.651 33.0138C37.496 33.1691 37.2857 33.2566 37.0662 33.257ZM32.6475 31.5999H36.2377V28.0097H32.6458L32.6475 31.5999Z" fill="#4E337A"/>
</svg>
