<svg width="42" height="42" viewBox="0 0 42 42" fill="none" xmlns="http://www.w3.org/2000/svg">
<g clip-path="url(#clip0_3312_2373)">
<path d="M21 42C32.598 42 42 32.598 42 21C42 9.40202 32.598 0 21 0C9.40202 0 0 9.40202 0 21C0 32.598 9.40202 42 21 42Z" fill="#00BA00"/>
<path d="M14.4353 31.2519L6.77939 23.0007C6.2715 22.4565 6.0002 21.7331 6.025 20.9891C6.0498 20.2452 6.36867 19.5414 6.91168 19.0322C7.45802 18.5264 8.1827 18.258 8.92671 18.2859C9.67071 18.3138 10.3733 18.6358 10.8802 19.1811L16.7999 25.5141L26.1755 16.7504C26.2592 16.6734 26.3476 16.6016 26.44 16.5354L30.8384 12.4181C31.3827 11.9102 32.1061 11.6389 32.8501 11.6637C33.594 11.6885 34.2978 12.0073 34.807 12.5504C35.3148 13.0946 35.5861 13.818 35.5613 14.562C35.5365 15.3059 35.2177 16.0097 34.6747 16.5189L21.1983 29.0858L16.5188 33.4346L14.4518 31.2189L14.4353 31.2519Z" fill="white"/>
</g>
<defs>
<clipPath id="clip0_3312_2373">
<rect width="42" height="42" fill="white"/>
</clipPath>
</defs>
</svg>
