<svg width="76" height="59" viewBox="0 0 76 59" fill="none" xmlns="http://www.w3.org/2000/svg">
<path d="M2.0579 51.3189V41.012C9.70371 38.1636 9.74122 31.8295 9.74122 28.4564C9.17903 23.0218 4.11929 19.7112 2.05792 18.3369V6.34346C2.05792 1.84608 4.30669 2.03318 6.74284 2.03332H69.1462C73.8312 1.65851 74.206 4.53195 73.8312 6.34346V18.3369C68.4341 20.7356 67.0224 26.8322 67.0849 29.2059C66.785 36.402 71.5199 39.8251 73.8312 41.012C73.7687 42.6361 73.6813 46.9712 73.8312 51.3189C73.9811 55.6665 70.7704 57.1282 69.1462 57.3156H8.24202C2.54514 57.4655 1.74557 53.3802 2.0579 51.3189Z" stroke="#4E337A" stroke-width="3"/>
<rect x="34.103" y="8.78027" width="8.62029" height="8.24549" fill="#4E337A"/>
<rect x="34.103" y="24.8955" width="8.62029" height="8.24549" fill="#4E337A"/>
<rect x="34.103" y="41.0117" width="8.62029" height="8.24549" fill="#4E337A"/>
</svg>
