<svg width="12" height="12" viewBox="0 0 12 12" fill="none" xmlns="http://www.w3.org/2000/svg">
<path d="M2.336 2.6L2.1694 1.6H1.5714C1.4822 1.256 1.1718 1 0.8 1C0.3588 1 0 1.3588 0 1.8C0 2.2412 0.3588 2.6 0.8 2.6C1.1718 2.6 1.4822 2.344 1.5716 2H1.8304L1.9304 2.6H1.9228L2.957 7.8032C2.464 7.8408 2.0534 8.2204 2.005 8.698C1.9766 8.979 2.069 9.2604 2.2586 9.4696C2.4484 9.6794 2.7188 9.8 3 9.8H3.4C3.4 10.4618 3.9382 11 4.6 11C5.2618 11 5.8 10.4618 5.8 9.8H8C8 10.4618 8.5382 11 9.2 11C9.8618 11 10.4 10.4618 10.4 9.8H11.2C11.3106 9.8 11.4 9.7106 11.4 9.6C11.4 9.4894 11.3106 9.4 11.2 9.4H10.33C10.1648 8.9346 9.7214 8.6 9.2 8.6C8.6786 8.6 8.2352 8.9346 8.07 9.4H5.73C5.5648 8.9346 5.1214 8.6 4.6 8.6C4.0786 8.6 3.6352 8.9346 3.47 9.4H3C2.8316 9.4 2.6696 9.3276 2.5552 9.2014C2.4398 9.0736 2.3856 8.9092 2.403 8.7382C2.4334 8.4364 2.7122 8.2002 3.0376 8.2002H3.1958C3.1986 8.2002 3.2008 8.2002 3.2036 8.2002H11.0024C11.5526 8.2 12 7.7526 12 7.2026V2.6H2.336ZM0.8 2.2C0.5794 2.2 0.4 2.0206 0.4 1.8C0.4 1.5794 0.5794 1.4 0.8 1.4C1.0206 1.4 1.2 1.5794 1.2 1.8C1.2 2.0206 1.0206 2.2 0.8 2.2ZM9.2 9C9.6412 9 10 9.3588 10 9.8C10 10.2412 9.6412 10.6 9.2 10.6C8.7588 10.6 8.4 10.2412 8.4 9.8C8.4 9.3588 8.7588 9 9.2 9ZM4.6 9C5.0412 9 5.4 9.3588 5.4 9.8C5.4 10.2412 5.0412 10.6 4.6 10.6C4.1588 10.6 3.8 10.2412 3.8 9.8C3.8 9.3588 4.1588 9 4.6 9ZM11.6 7.2026C11.6 7.532 11.332 7.8 11.0026 7.8H3.3642L2.4102 3H11.6V7.2026Z" fill="black"/>
</svg>
