<svg width="20" height="10" viewBox="0 0 20 10" fill="none" xmlns="http://www.w3.org/2000/svg">
<path d="M12.5254 3.73828C12.5254 3.90007 12.6566 4.03125 12.8184 4.03125H13.4446C13.6064 4.03125 13.7376 3.90007 13.7376 3.73828C13.7376 3.57648 13.6064 3.44531 13.4446 3.44531H12.8184C12.6566 3.44531 12.5254 3.57648 12.5254 3.73828Z" fill="black"/>
<path d="M11.5657 3.44531H10.9395C10.7777 3.44531 10.6465 3.57648 10.6465 3.73828C10.6465 3.90007 10.7777 4.03125 10.9395 4.03125H11.5657C11.7275 4.03125 11.8587 3.90007 11.8587 3.73828C11.8587 3.57648 11.7275 3.44531 11.5657 3.44531Z" fill="black"/>
<path d="M9.68679 3.44531H9.06054C8.89875 3.44531 8.76758 3.57648 8.76758 3.73828C8.76758 3.90007 8.89875 4.03125 9.06054 4.03125H9.68679C9.84859 4.03125 9.97976 3.90007 9.97976 3.73828C9.97976 3.57648 9.84859 3.44531 9.68679 3.44531Z" fill="black"/>
<path d="M12.7981 2.48437C12.7981 2.32258 12.6669 2.19141 12.5052 2.19141H11.8789C11.7171 2.19141 11.5859 2.32258 11.5859 2.48437C11.5859 2.64617 11.7171 2.77734 11.8789 2.77734H12.5052C12.6669 2.77734 12.7981 2.64617 12.7981 2.48437Z" fill="black"/>
<path d="M10.9192 2.48437C10.9192 2.32258 10.788 2.19141 10.6262 2.19141H10C9.8382 2.19141 9.70703 2.32258 9.70703 2.48437C9.70703 2.64617 9.8382 2.77734 10 2.77734H10.6262C10.788 2.77734 10.9192 2.64617 10.9192 2.48437Z" fill="black"/>
<path d="M7.80788 3.44531H7.18164C7.01984 3.44531 6.88867 3.57648 6.88867 3.73828C6.88867 3.90007 7.01984 4.03125 7.18164 4.03125H7.80788C7.96968 4.03125 8.10085 3.90007 8.10085 3.73828C8.10085 3.57648 7.96968 3.44531 7.80788 3.44531Z" fill="black"/>
<path d="M5.92898 3.44531H5.30273C5.14094 3.44531 5.00977 3.57648 5.00977 3.73828C5.00977 3.90007 5.14094 4.03125 5.30273 4.03125H5.92898C6.09077 4.03125 6.22194 3.90007 6.22194 3.73828C6.22194 3.57648 6.09077 3.44531 5.92898 3.44531Z" fill="black"/>
<path d="M4.05007 3.44531H3.42383C3.26203 3.44531 3.13086 3.57648 3.13086 3.73828C3.13086 3.90007 3.26203 4.03125 3.42383 4.03125H4.05007C4.21187 4.03125 4.34304 3.90007 4.34304 3.73828C4.34304 3.57648 4.21187 3.44531 4.05007 3.44531Z" fill="black"/>
<path d="M13.4446 5.94922H12.8184C12.6566 5.94922 12.5254 6.08039 12.5254 6.24219C12.5254 6.40398 12.6566 6.53515 12.8184 6.53515H13.4446C13.6064 6.53515 13.7376 6.40398 13.7376 6.24219C13.7376 6.08039 13.6064 5.94922 13.4446 5.94922Z" fill="black"/>
<path d="M11.5657 5.94922H10.9395C10.7777 5.94922 10.6465 6.08039 10.6465 6.24219C10.6465 6.40398 10.7777 6.53515 10.9395 6.53515H11.5657C11.7275 6.53515 11.8587 6.40398 11.8587 6.24219C11.8587 6.08039 11.7275 5.94922 11.5657 5.94922Z" fill="black"/>
<path d="M9.68679 5.94922H9.06054C8.89875 5.94922 8.76758 6.08039 8.76758 6.24219C8.76758 6.40398 8.89875 6.53515 9.06054 6.53515H9.68679C9.84859 6.53515 9.97976 6.40398 9.97976 6.24219C9.97976 6.08039 9.84859 5.94922 9.68679 5.94922Z" fill="black"/>
<path d="M7.80788 5.94922H7.18164C7.01984 5.94922 6.88867 6.08039 6.88867 6.24219C6.88867 6.40398 7.01984 6.53515 7.18164 6.53515H7.80788C7.96968 6.53515 8.10085 6.40398 8.10085 6.24219C8.10085 6.08039 7.96968 5.94922 7.80788 5.94922Z" fill="black"/>
<path d="M5.92898 5.94922H5.30273C5.14094 5.94922 5.00977 6.08039 5.00977 6.24219C5.00977 6.40398 5.14094 6.53515 5.30273 6.53515H5.92898C6.09077 6.53515 6.22194 6.40398 6.22194 6.24219C6.22194 6.08039 6.09077 5.94922 5.92898 5.94922Z" fill="black"/>
<path d="M4.05007 5.94922H3.42383C3.26203 5.94922 3.13086 6.08039 3.13086 6.24219C3.13086 6.40398 3.26203 6.53515 3.42383 6.53515H4.05007C4.21187 6.53515 4.34304 6.40398 4.34304 6.24219C4.34304 6.08039 4.21187 5.94922 4.05007 5.94922Z" fill="black"/>
<path d="M19.6317 7.26785C19.3658 7.3384 19.1758 7.45531 19.0082 7.55847C18.7633 7.70914 18.5699 7.82812 18.1412 7.82812C17.7154 7.82812 17.522 7.70914 17.2771 7.55843C17.2199 7.52324 17.1609 7.48711 17.0982 7.45195L19.8899 5.21862C19.987 5.14088 20.0245 5.0103 19.9833 4.89288C19.9421 4.77546 19.8313 4.69686 19.7069 4.69686H16.7324L14.6862 1.62756C14.3989 1.19663 13.9182 0.939365 13.4003 0.939365H10.9192V0.606087C10.9192 0.444292 10.788 0.313122 10.6262 0.313122C10.4644 0.313122 10.3332 0.444292 10.3332 0.606087V0.939365H9.66669V0.292966C9.66669 0.13117 9.53552 0 9.37373 0C9.21193 0 9.08076 0.13117 9.08076 0.292966V1.13468L8.48178 1.9333C8.36038 2.09521 8.16702 2.19189 7.96464 2.19189H5.59603V1.23237C5.59603 1.07057 5.46486 0.939404 5.30307 0.939404H2.79798C2.63618 0.939404 2.50501 1.07057 2.50501 1.23237V2.19189H2.12603C1.65623 2.19189 1.23389 2.4529 1.02378 2.87309L0.0309372 4.85881L0.0311325 4.85893C0.0114061 4.89834 0 4.94272 0 4.98983V7.49484C0 7.65722 0.0705852 7.79441 0.220701 7.83421C0.403238 7.88261 0.534916 7.96362 0.687414 8.05749C0.959013 8.22464 1.26686 8.41405 1.86143 8.41405C2.45318 8.41405 2.76102 8.2246 3.03262 8.05745C3.27746 7.90679 3.47082 7.78781 3.89675 7.78781C4.32269 7.78781 4.51605 7.90679 4.76089 8.05749C5.03248 8.22464 5.34033 8.41405 5.93208 8.41405C6.52384 8.41405 6.83168 8.2246 7.10328 8.05745C7.34812 7.90679 7.54148 7.78781 7.96741 7.78781C8.39335 7.78781 8.5867 7.90679 8.83154 8.05745C9.10252 8.22421 9.40959 8.41315 9.99868 8.41405H10.0014H10.0041C10.5931 8.41319 10.9002 8.22421 11.1712 8.05745C11.416 7.90679 11.6094 7.78781 12.0353 7.78781C12.4612 7.78781 12.6546 7.90679 12.8994 8.05745C13.171 8.2246 13.4789 8.41405 14.0706 8.41405C14.6624 8.41405 14.9702 8.2246 15.2418 8.05745C15.4867 7.90679 15.68 7.78781 16.106 7.78781C16.5319 7.78781 16.7252 7.90679 16.9701 8.05749C17.2417 8.22464 17.5495 8.41405 18.1441 8.41405C18.7359 8.41405 19.0437 8.2246 19.3153 8.05749C19.4678 7.96366 19.5994 7.88261 19.782 7.83421C19.9384 7.79273 20.0316 7.63234 19.9901 7.47593C19.9485 7.31953 19.7881 7.22629 19.6317 7.26785ZM3.09094 1.52526H5.01002V2.19181H3.09094V1.52526ZM16.4433 7.22543C16.3417 7.21063 16.2304 7.20184 16.1059 7.20184C15.5141 7.20184 15.2063 7.39129 14.9347 7.55843C14.6898 7.7091 14.4965 7.82808 14.0706 7.82808C13.6446 7.82808 13.4513 7.7091 13.2064 7.55839C12.9348 7.39125 12.627 7.20184 12.0352 7.20184C11.4435 7.20184 11.1356 7.39129 10.864 7.55843C10.6195 7.70894 10.4262 7.82781 10.0013 7.82808C9.57638 7.82781 9.3831 7.7089 9.13857 7.55839C8.86697 7.39125 8.55913 7.20184 7.96737 7.20184C7.37562 7.20184 7.06778 7.39129 6.79618 7.55843C6.55134 7.7091 6.35798 7.82808 5.93205 7.82808C5.50611 7.82808 5.31276 7.7091 5.06791 7.55839C4.79632 7.39125 4.48847 7.20184 3.89672 7.20184C3.30496 7.20184 2.99712 7.39129 2.72552 7.55843C2.48068 7.7091 2.28732 7.82808 1.85861 7.82808C1.43272 7.82808 1.23932 7.7091 0.994481 7.55843C0.876006 7.4855 0.745695 7.40601 0.585931 7.34058V5.28276H11.5655C11.7273 5.28276 11.8585 5.15158 11.8585 4.98979C11.8585 4.82799 11.7273 4.69682 11.5655 4.69682H0.766984L1.54783 3.13508C1.65803 2.91466 1.87959 2.77774 2.12603 2.77774H7.96456C8.35038 2.77774 8.71893 2.59345 8.95045 2.28478L9.52013 1.52522H13.4002C13.7218 1.52522 14.0203 1.68494 14.1986 1.95248L14.3582 2.19177H13.7574C13.5956 2.19177 13.4645 2.32294 13.4645 2.48474C13.4645 2.64653 13.5956 2.7777 13.7574 2.7777H14.7488L15.1932 3.44426H14.6968C14.535 3.44426 14.4038 3.57543 14.4038 3.73723C14.4038 3.89902 14.535 4.03019 14.6968 4.03019H15.5838L16.0281 4.69675H12.818C12.6562 4.69675 12.5251 4.82792 12.5251 4.98971C12.5251 5.15151 12.6562 5.28268 12.818 5.28268H18.8716L16.4433 7.22543Z" fill="black"/>
<path d="M19.6319 8.83355C19.3659 8.9041 19.1759 9.02101 19.0083 9.12418C18.7635 9.27484 18.5701 9.39382 18.1414 9.39382C17.7155 9.39382 17.5221 9.27484 17.2773 9.12414C17.0057 8.95699 16.6978 8.76758 16.1061 8.76758C15.5143 8.76758 15.2065 8.95703 14.9349 9.12418C14.69 9.27484 14.4967 9.39382 14.0707 9.39382C13.6448 9.39382 13.4514 9.27484 13.2066 9.12414C12.935 8.95699 12.6271 8.76758 12.0354 8.76758C11.4436 8.76758 11.1358 8.95703 10.8642 9.12418C10.6196 9.27468 10.4264 9.39355 10.0015 9.39382C9.57656 9.39355 9.38328 9.27464 9.13875 9.12414C8.86715 8.95699 8.5593 8.76758 7.96755 8.76758C7.3758 8.76758 7.06795 8.95703 6.79635 9.12418C6.55151 9.27484 6.35816 9.39382 5.93222 9.39382C5.50629 9.39382 5.31293 9.27484 5.06809 9.12414C4.79649 8.95699 4.48864 8.76758 3.89689 8.76758C3.30514 8.76758 2.99729 8.95703 2.72569 9.12418C2.48085 9.27484 2.2875 9.39382 1.85879 9.39382C1.4329 9.39382 1.2395 9.27484 0.994658 9.12418C0.827004 9.02101 0.637006 8.9041 0.371071 8.83355C0.214628 8.79203 0.0542778 8.88523 0.0127939 9.04164C-0.0286901 9.19804 0.064473 9.35843 0.220878 9.39992C0.403415 9.44831 0.535093 9.52933 0.687591 9.62319C0.95919 9.79034 1.26704 9.97975 1.8616 9.97975C2.45335 9.97975 2.7612 9.7903 3.0328 9.62316C3.27764 9.47249 3.471 9.35351 3.89693 9.35351C4.32287 9.35351 4.51622 9.47249 4.76106 9.62319C5.03266 9.79034 5.34051 9.97975 5.93226 9.97975C6.52401 9.97975 6.83186 9.7903 7.10346 9.62316C7.3483 9.47249 7.54166 9.35351 7.96759 9.35351C8.39352 9.35351 8.58688 9.47249 8.83172 9.62316C9.1027 9.78991 9.40976 9.97885 9.99886 9.97975H10.0016H10.0042C10.5933 9.97889 10.9004 9.78991 11.1713 9.62316C11.4162 9.47249 11.6095 9.35351 12.0355 9.35351C12.4614 9.35351 12.6548 9.47249 12.8996 9.62316C13.1712 9.7903 13.4791 9.97975 14.0708 9.97975C14.6626 9.97975 14.9704 9.7903 15.242 9.62316C15.4868 9.47249 15.6802 9.35351 16.1061 9.35351C16.5321 9.35351 16.7254 9.47249 16.9703 9.62319C17.2419 9.79034 17.5497 9.97975 18.1443 9.97975C18.736 9.97975 19.0439 9.7903 19.3155 9.62319C19.4679 9.52937 19.5996 9.44831 19.7822 9.39992C19.9386 9.35843 20.0318 9.19804 19.9903 9.04164C19.9487 8.88523 19.7882 8.79199 19.6319 8.83355Z" fill="black"/>
</svg>
