<svg width="57" height="40" viewBox="0 0 57 40" fill="none" xmlns="http://www.w3.org/2000/svg">
<path d="M49.6833 1.07219L19.975 30.7805L6.473 17.2746C5.75263 16.5789 4.78782 16.1939 3.78635 16.2026C2.78488 16.2113 1.8269 16.613 1.11872 17.3211C0.410553 18.0293 0.00884687 18.9873 0.000144388 19.9888C-0.0085581 20.9902 0.376429 21.9551 1.07219 22.6754L17.2746 38.8817C17.9909 39.5977 18.9622 40 19.975 40C20.9878 40 21.9592 39.5977 22.6754 38.8817L55.0841 6.473C55.7799 5.75263 56.1649 4.78782 56.1562 3.78635C56.1475 2.78488 55.7458 1.8269 55.0376 1.11872C54.3294 0.410553 53.3714 0.00884687 52.37 0.000144388C51.3685 -0.0085581 50.4037 0.376429 49.6833 1.07219Z" fill="#FCFCFC"/>
</svg>
