<svg width="43" height="43" viewBox="0 0 43 43" fill="none" xmlns="http://www.w3.org/2000/svg">
<path d="M33.5596 32.8795C34.6265 32.1326 36.8884 30.4469 37.4005 29.6787" stroke="url(#paint0_linear_2927_105)" stroke-width="1.8"/>
<path d="M18.1318 8.61821L20.6284 11.883L26.0698 5.48145" stroke="url(#paint1_linear_2927_105)" stroke-width="1.8"/>
<path d="M27.0939 39.5371C26.7312 40.6681 24.4693 43.186 20.1162 40.4973" stroke="url(#paint2_linear_2927_105)" stroke-width="1.8"/>
<path d="M6.7373 29.167L9.36195 32.3038" stroke="url(#paint3_linear_2927_105)" stroke-width="1.8"/>
<path d="M29.2067 37.1689C29.3987 37.6811 29.6164 38.8077 28.9506 39.2174C28.1184 39.7296 26.9661 40.1777 22.293 37.1689" stroke="url(#paint4_linear_2927_105)" stroke-width="1.8"/>
<path d="M11.8738 20.0762L5.45684 31.407L2 29.3585L9.16975 16.9395L12.5626 18.8599L11.8738 20.0762ZM11.8738 20.0762C12.4021 20.9084 14.0862 22.5344 16.5956 22.3808" stroke="url(#paint5_linear_2927_105)" stroke-width="1.8"/>
<path d="M32.0234 20.5891C30.6791 21.9335 27.8624 20.9732 25.3658 20.5891C22.8692 20.205 22.9972 20.4611 20.5646 20.5891C18.6185 20.6915 17.1078 21.8267 16.5956 22.3815C15.4434 23.6832 13.382 26.5681 14.3551 27.6948C15.3281 28.8215 17.2358 28.1642 18.068 27.6948C18.9002 27.1827 20.5646 26.0304 20.5646 25.5183L21.7809 25.0061C23.7654 26.1157 28.08 28.5654 29.4628 29.4872C31.2979 30.6182 34.7248 33.1361 33.7518 34.1604C32.5355 35.4407 30.423 34.4164 25.8779 31.2797M32.0234 20.5891L31.5753 19.5008C31.4473 19.266 31.3576 18.6942 32.0234 18.2845C32.6892 17.8748 33.7518 17.2602 34.1999 17.0042C34.5414 16.9188 35.2754 16.8633 35.4802 17.3242C35.6851 17.7852 39.7906 24.9421 41.8178 28.463C42.0098 28.7831 42.2147 29.5128 41.4977 29.8713C40.7807 30.2298 39.6626 30.9596 39.1932 31.2797C38.9371 31.3223 38.3481 31.2541 38.0409 30.6395C37.7336 30.025 33.9012 23.6832 32.0234 20.5891Z" stroke="url(#paint6_linear_2927_105)" stroke-width="1.8"/>
<path d="M31.0633 34.4157C31.6394 34.9918 32.5229 36.2977 31.4474 36.9123C30.3719 37.5268 29.0361 37.1684 28.5027 36.9123L23.8936 34.2236" stroke="url(#paint7_linear_2927_105)" stroke-width="1.8"/>
<path d="M11.7944 34.544C10.7701 36.0804 9.57519 35.5256 9.10575 35.0562C8.18392 34.2368 8.89236 32.9223 9.36181 32.3675C10.4885 31.1896 11.453 31.6207 11.7944 31.9834C13.0235 32.598 12.3065 33.9466 11.7944 34.544ZM11.7944 34.544L14.163 31.7914C14.483 31.4926 15.3152 31.0744 16.0834 31.7914C17.0437 32.6876 17.2357 33.1997 16.6596 34.0319M11.7944 34.544L10.8982 36.2724C10.6933 38.0649 12.4345 38.385 13.3308 38.3209M16.6596 34.0319C17.1504 33.9039 18.2216 33.8655 18.58 34.7361C18.8361 35.0348 19.2458 35.8371 18.8361 36.6565M16.6596 34.0319L13.3308 38.3209M18.8361 36.6565C19.3696 36.6565 20.5005 36.8486 20.7566 37.6168C21.0126 37.9155 21.3967 38.705 20.8846 39.4732C20.3725 40.2414 19.4336 41.3724 19.0281 41.8418C18.2386 42.0979 16.6596 42.1491 16.6596 40.3054M18.8361 36.6565L16.6596 40.3054M16.6596 40.3054C15.8274 40.4335 13.9965 40.2158 13.3308 38.3209" stroke="url(#paint8_linear_2927_105)" stroke-width="1.8"/>
<circle cx="22.1007" cy="9.12999" r="8.12999" stroke="url(#paint9_linear_2927_105)" stroke-width="1.8"/>
<defs>
<linearGradient id="paint0_linear_2927_105" x1="36.8113" y1="32.5902" x2="36.8583" y2="33.0477" gradientUnits="userSpaceOnUse">
<stop stop-color="#7A3991"/>
<stop offset="1" stop-color="#D2288A"/>
</linearGradient>
<linearGradient id="paint1_linear_2927_105" x1="24.8522" y1="11.3044" x2="24.9431" y2="12.2201" gradientUnits="userSpaceOnUse">
<stop stop-color="#7A3991"/>
<stop offset="1" stop-color="#D2288A"/>
</linearGradient>
<linearGradient id="paint2_linear_2927_105" x1="26.1512" y1="41.3232" x2="26.1624" y2="41.6063" gradientUnits="userSpaceOnUse">
<stop stop-color="#7A3991"/>
<stop offset="1" stop-color="#D2288A"/>
</linearGradient>
<linearGradient id="paint3_linear_2927_105" x1="8.95935" y1="32.0203" x2="9.02461" y2="32.4637" gradientUnits="userSpaceOnUse">
<stop stop-color="#7A3991"/>
<stop offset="1" stop-color="#D2288A"/>
</linearGradient>
<linearGradient id="paint4_linear_2927_105" x1="28.3102" y1="39.3691" x2="28.3248" y2="39.7179" gradientUnits="userSpaceOnUse">
<stop stop-color="#7A3991"/>
<stop offset="1" stop-color="#D2288A"/>
</linearGradient>
<linearGradient id="paint5_linear_2927_105" x1="14.3567" y1="30.0994" x2="14.608" y2="32.1585" gradientUnits="userSpaceOnUse">
<stop stop-color="#7A3991"/>
<stop offset="1" stop-color="#D2288A"/>
</linearGradient>
<linearGradient id="paint6_linear_2927_105" x1="37.7206" y1="33.0936" x2="37.9203" y2="35.6421" gradientUnits="userSpaceOnUse">
<stop stop-color="#7A3991"/>
<stop offset="1" stop-color="#D2288A"/>
</linearGradient>
<linearGradient id="paint7_linear_2927_105" x1="30.7177" y1="36.9779" x2="30.7379" y2="37.4144" gradientUnits="userSpaceOnUse">
<stop stop-color="#7A3991"/>
<stop offset="1" stop-color="#D2288A"/>
</linearGradient>
<linearGradient id="paint8_linear_2927_105" x1="19.2227" y1="41.0158" x2="19.3803" y2="42.5271" gradientUnits="userSpaceOnUse">
<stop stop-color="#7A3991"/>
<stop offset="1" stop-color="#D2288A"/>
</linearGradient>
<linearGradient id="paint9_linear_2927_105" x1="27.7365" y1="15.7904" x2="28.0214" y2="18.104" gradientUnits="userSpaceOnUse">
<stop stop-color="#7A3991"/>
<stop offset="1" stop-color="#D2288A"/>
</linearGradient>
</defs>
</svg>
