<svg width="44" height="42" viewBox="0 0 44 42" fill="none" xmlns="http://www.w3.org/2000/svg">
<path d="M22 40.0004L2 18.5146L8.51163 10.5146H35.4884L42 18.5146L22 40.0004Z" stroke="url(#paint0_linear_2927_135)" stroke-width="1.8"/>
<path d="M2.46533 18.5146H41.5351" stroke="url(#paint1_linear_2927_135)" stroke-width="1.8"/>
<path d="M12.4653 18.286L16.8839 10.5H26.8839L31.5351 18.286L22.0002 39.3145L12.4653 18.286Z" stroke="url(#paint2_linear_2927_135)" stroke-width="1.8"/>
<rect x="21.4187" y="0.348837" width="0.697674" height="5.70233" stroke="url(#paint3_linear_2927_135)" stroke-width="0.697674"/>
<rect x="-0.013396" y="0.484463" width="0.69139" height="5.76775" transform="matrix(0.693536 0.720422 -0.732287 0.680996 30.8013 1.07826)" stroke="url(#paint4_linear_2927_135)" stroke-width="0.69139"/>
<rect x="0.49333" y="-4.12297e-08" width="0.69172" height="5.76434" transform="matrix(0.713193 -0.700967 0.713193 0.700967 12.3739 2.2296)" stroke="url(#paint5_linear_2927_135)" stroke-width="0.69172"/>
<rect x="17.2266" y="21.3712" width="6.75615" height="0.685714" stroke="url(#paint6_linear_2927_135)" stroke-width="0.685714"/>
<ellipse cx="26.8837" cy="21.714" rx="0.697674" ry="0.685714" stroke="url(#paint7_linear_2927_135)" stroke-width="1.8"/>
<defs>
<linearGradient id="paint0_linear_2927_135" x1="35.8643" y1="37.3355" x2="36.2477" y2="41.5597" gradientUnits="userSpaceOnUse">
<stop stop-color="#7A3991"/>
<stop offset="1" stop-color="#D2288A"/>
</linearGradient>
<linearGradient id="paint1_linear_2927_135" x1="35.5421" y1="19.4243" x2="35.5426" y2="19.5687" gradientUnits="userSpaceOnUse">
<stop stop-color="#7A3991"/>
<stop offset="1" stop-color="#D2288A"/>
</linearGradient>
<linearGradient id="paint2_linear_2927_135" x1="28.6099" y1="36.7529" x2="29.3349" y2="40.7142" gradientUnits="userSpaceOnUse">
<stop stop-color="#7A3991"/>
<stop offset="1" stop-color="#D2288A"/>
</linearGradient>
<linearGradient id="paint3_linear_2927_135" x1="22.2511" y1="5.82157" x2="22.647" y2="6.52245" gradientUnits="userSpaceOnUse">
<stop stop-color="#7A3991"/>
<stop offset="1" stop-color="#D2288A"/>
</linearGradient>
<linearGradient id="paint4_linear_2927_135" x1="1.17067" y1="5.87537" x2="1.57391" y2="6.57642" gradientUnits="userSpaceOnUse">
<stop stop-color="#7A3991"/>
<stop offset="1" stop-color="#D2288A"/>
</linearGradient>
<linearGradient id="paint5_linear_2927_135" x1="1.17123" y1="5.87256" x2="1.57408" y2="6.57361" gradientUnits="userSpaceOnUse">
<stop stop-color="#7A3991"/>
<stop offset="1" stop-color="#D2288A"/>
</linearGradient>
<linearGradient id="paint6_linear_2927_135" x1="23.1841" y1="22.2758" x2="23.1886" y2="22.4738" gradientUnits="userSpaceOnUse">
<stop stop-color="#7A3991"/>
<stop offset="1" stop-color="#D2288A"/>
</linearGradient>
<linearGradient id="paint7_linear_2927_135" x1="27.3673" y1="22.2758" x2="27.391" y2="22.471" gradientUnits="userSpaceOnUse">
<stop stop-color="#7A3991"/>
<stop offset="1" stop-color="#D2288A"/>
</linearGradient>
</defs>
</svg>
