<svg width="42" height="42" viewBox="0 0 42 42" fill="none" xmlns="http://www.w3.org/2000/svg">
<path fill-rule="evenodd" clip-rule="evenodd" d="M19.5842 22.0629C19.8677 22.2283 19.9589 22.5965 19.7945 22.8809C19.6207 23.166 19.2553 23.2578 18.9719 23.0924C18.6974 22.9176 18.5968 22.5498 18.7706 22.265C18.9351 21.9893 19.3008 21.8975 19.5842 22.0629Z" stroke="url(#paint0_linear_2927_214)" stroke-width="1.8"/>
<path d="M19.7325 4.30295C15.5135 3.87046 5.0199 5.80311 1.59368 16.9532C0.0888355 23.1161 0.513419 36.4312 14.2505 40.3885C18.1739 41.5238 27.5523 41.8643 33.6792 34.1445C34.8347 32.9281 37.2747 28.9546 37.7907 22.7917" stroke="url(#paint1_linear_2927_214)" stroke-width="1.8"/>
<path d="M22.554 7.62808C17.4349 6.12787 7.44002 8.6007 4.58712 17.9004C3.33408 23.0405 3.68761 34.146 15.1261 37.4465C18.3929 38.3934 26.2021 38.6775 31.3037 32.2387C32.1003 31.3988 34.3941 27.7536 34.5196 22.5894M34.2838 19.1835C34.478 20.3768 34.5457 21.5159 34.5196 22.5894M34.5196 22.5894H31.0591" stroke="url(#paint2_linear_2927_214)" stroke-width="1.8"/>
<path d="M30.0917 33.6173L27.4717 31.1035" stroke="url(#paint3_linear_2927_214)" stroke-width="1.8"/>
<path d="M19.168 37.9556V34.5498" stroke="url(#paint4_linear_2927_214)" stroke-width="1.8"/>
<path d="M8.24463 33.5764L10.7841 30.9814" stroke="url(#paint5_linear_2927_214)" stroke-width="1.8"/>
<path d="M4.05273 22.6299H7.35803" stroke="url(#paint6_linear_2927_214)" stroke-width="1.8"/>
<path d="M8.36572 11.6826L10.8245 14.237" stroke="url(#paint7_linear_2927_214)" stroke-width="1.8"/>
<path d="M19.2891 7.22266V10.7501" stroke="url(#paint8_linear_2927_214)" stroke-width="1.8"/>
<ellipse cx="19.2086" cy="22.6708" rx="2.94252" ry="2.95983" stroke="url(#paint9_linear_2927_214)" stroke-width="1.8"/>
<path d="M16.8706 11.1152L18.6039 19.792" stroke="url(#paint10_linear_2927_214)" stroke-width="1.8"/>
<path d="M22.0303 21.7787L24.2472 20.9678" stroke="url(#paint11_linear_2927_214)" stroke-width="1.8"/>
<path d="M21.8286 24.0088L27.8346 27.2119" stroke="url(#paint12_linear_2927_214)" stroke-width="1.8"/>
<path d="M10.8242 25.6308L16.3868 23.6035" stroke="url(#paint13_linear_2927_214)" stroke-width="1.8"/>
<path d="M24.8515 15.3318C24.1421 17.4726 25.6039 17.332 26.4235 16.9942M24.8515 15.3318L26.9598 12.7369M24.8515 15.3318L22.5539 14.2776L24.005 12.5342L26.9598 12.7369M26.4235 16.9942L29.0436 14.8317M26.4235 16.9942L27.5925 19.2242L29.3258 17.8457L29.0436 14.8317M29.5953 9.49327L21.4253 4.14125L23.1989 3.12758L32.626 5.76307M29.5953 9.49327L32.626 5.76307M29.5953 9.49327L26.9598 12.7369M32.626 5.76307L34.7674 3.12758C35.681 2.14097 38.0888 0.378587 40.4106 1.22193C41.8214 2.19506 40.4374 5.16839 38.9998 6.61453L35.896 9.17616M35.896 9.17616L38.6773 18.5755L37.589 20.3595L32.228 12.2036M35.896 9.17616L32.228 12.2036M32.228 12.2036L29.0436 14.8317M37.0247 3.37089C37.4681 3.35737 38.4194 3.57361 38.6773 4.54671" stroke="url(#paint14_linear_2927_214)" stroke-width="1.8"/>
<defs>
<linearGradient id="paint0_linear_2927_214" x1="19.6933" y1="23.0666" x2="19.7143" y2="23.2364" gradientUnits="userSpaceOnUse">
<stop stop-color="#7A3991"/>
<stop offset="1" stop-color="#D2288A"/>
</linearGradient>
<linearGradient id="paint1_linear_2927_214" x1="32.1473" y1="37.6779" x2="32.7905" y2="42.9074" gradientUnits="userSpaceOnUse">
<stop stop-color="#7A3991"/>
<stop offset="1" stop-color="#D2288A"/>
</linearGradient>
<linearGradient id="paint2_linear_2927_214" x1="30.0281" y1="35.1858" x2="30.5655" y2="39.5472" gradientUnits="userSpaceOnUse">
<stop stop-color="#7A3991"/>
<stop offset="1" stop-color="#D2288A"/>
</linearGradient>
<linearGradient id="paint3_linear_2927_214" x1="29.6898" y1="33.3901" x2="29.7321" y2="33.7483" gradientUnits="userSpaceOnUse">
<stop stop-color="#7A3991"/>
<stop offset="1" stop-color="#D2288A"/>
</linearGradient>
<linearGradient id="paint4_linear_2927_214" x1="20.0146" y1="37.6478" x2="20.19" y2="38.0662" gradientUnits="userSpaceOnUse">
<stop stop-color="#7A3991"/>
<stop offset="1" stop-color="#D2288A"/>
</linearGradient>
<linearGradient id="paint5_linear_2927_214" x1="10.3945" y1="33.3418" x2="10.441" y2="33.7108" gradientUnits="userSpaceOnUse">
<stop stop-color="#7A3991"/>
<stop offset="1" stop-color="#D2288A"/>
</linearGradient>
<linearGradient id="paint6_linear_2927_214" x1="6.85102" y1="23.5395" x2="6.85639" y2="23.6837" gradientUnits="userSpaceOnUse">
<stop stop-color="#7A3991"/>
<stop offset="1" stop-color="#D2288A"/>
</linearGradient>
<linearGradient id="paint7_linear_2927_214" x1="10.4474" y1="14.0061" x2="10.4938" y2="14.3692" gradientUnits="userSpaceOnUse">
<stop stop-color="#7A3991"/>
<stop offset="1" stop-color="#D2288A"/>
</linearGradient>
<linearGradient id="paint8_linear_2927_214" x1="20.1357" y1="10.4313" x2="20.3219" y2="10.86" gradientUnits="userSpaceOnUse">
<stop stop-color="#7A3991"/>
<stop offset="1" stop-color="#D2288A"/>
</linearGradient>
<linearGradient id="paint9_linear_2927_214" x1="21.2484" y1="25.0956" x2="21.3527" y2="25.9377" gradientUnits="userSpaceOnUse">
<stop stop-color="#7A3991"/>
<stop offset="1" stop-color="#D2288A"/>
</linearGradient>
<linearGradient id="paint10_linear_2927_214" x1="18.338" y1="19.0078" x2="18.8978" y2="19.916" gradientUnits="userSpaceOnUse">
<stop stop-color="#7A3991"/>
<stop offset="1" stop-color="#D2288A"/>
</linearGradient>
<linearGradient id="paint11_linear_2927_214" x1="23.9072" y1="21.7054" x2="23.9124" y2="21.8223" gradientUnits="userSpaceOnUse">
<stop stop-color="#7A3991"/>
<stop offset="1" stop-color="#D2288A"/>
</linearGradient>
<linearGradient id="paint12_linear_2927_214" x1="26.9133" y1="26.9224" x2="26.9436" y2="27.3831" gradientUnits="userSpaceOnUse">
<stop stop-color="#7A3991"/>
<stop offset="1" stop-color="#D2288A"/>
</linearGradient>
<linearGradient id="paint13_linear_2927_214" x1="15.5335" y1="25.4476" x2="15.5466" y2="25.7398" gradientUnits="userSpaceOnUse">
<stop stop-color="#7A3991"/>
<stop offset="1" stop-color="#D2288A"/>
</linearGradient>
<linearGradient id="paint14_linear_2927_214" x1="37.9973" y1="18.6098" x2="38.3328" y2="21.3653" gradientUnits="userSpaceOnUse">
<stop stop-color="#7A3991"/>
<stop offset="1" stop-color="#D2288A"/>
</linearGradient>
</defs>
</svg>
