<svg width="40" height="40" viewBox="0 0 40 40" fill="none" xmlns="http://www.w3.org/2000/svg">
<g clip-path="url(#clip0_2924_1077)">
<path d="M22.3866 22.7734L27.5 13.5156L38.8281 34.0625H29.8828M20.0781 19.2969L10.1172 33.8672L7.34375 29.2969H9.0625L6.875 25.1562H8.4375L5.46875 20L2.5 25.1562H4.0625L1.79688 29.2969H3.59375L0.9375 34.0625H15.9375M20.0781 19.2969V27.2656M20.0781 19.2969L25.2503 27.086M29.8828 34.0625H25M29.8828 34.0625L25.2503 27.086M20.0781 27.2656L15.9375 34.0625M20.0781 27.2656L25 34.0625M20.0781 27.2656L25.2503 27.086M15.9375 34.0625H25M25 34.0625L25.2503 27.086M25.2503 27.086C25.4251 26.9172 26.8229 25.7292 27.5 25.1562C27.9167 24.8828 28.9141 24.5 29.5703 25.1562L32.4609 27.4609C32.8516 27.8099 33.8594 28.2236 34.7656 27.086" stroke="url(#paint0_linear_2924_1077)" stroke-width="1.8"/>
<path d="M6.875 22.4219L15.8203 5.23438L22.2656 17.2266" stroke="url(#paint1_linear_2924_1077)" stroke-width="1.8"/>
<path d="M8.82812 18.75L10.7422 19.961C11.1328 20.1693 12.0703 20.3203 12.6953 19.2578C13.3203 18.1953 14.3359 16.4453 14.7656 15.7032C15.0521 15.3646 15.8125 14.7891 16.5625 15.1953C16.849 15.5469 17.6406 16.0391 18.5156 15.1953C19.3906 14.3516 20.0521 13.6979 20.2734 13.4766" stroke="url(#paint2_linear_2924_1077)"/>
<path d="M0.429688 8.86712C0.833333 8.8541 1.75781 9.00775 2.22656 9.7265C2.52604 9.32284 3.32031 8.58585 4.10156 8.86712" stroke="url(#paint3_linear_2924_1077)" stroke-width="1.8"/>
<path d="M6.71875 5.76556C7.1224 5.75254 8.04688 5.90619 8.51562 6.62494C8.8151 6.22128 9.60938 5.48429 10.3906 5.76556" stroke="url(#paint4_linear_2924_1077)" stroke-width="1.8"/>
<path d="M3.20312 0.687435C3.60677 0.674414 4.53125 0.82806 5 1.54681C5.29948 1.14316 6.09375 0.406167 6.875 0.687435" stroke="url(#paint5_linear_2924_1077)" stroke-width="1.8"/>
<path d="M30.4297 6.40599H23.3203C23.5286 5.03881 24.7109 2.60131 27.7734 3.78881C28.2422 2.69506 29.7422 0.570069 31.9922 0.820069C34.8047 1.13257 35.7031 2.65603 36.1328 3.78881C37.0833 3.73673 39.0469 4.18727 39.2969 6.40599H35.4297" stroke="url(#paint6_linear_2924_1077)" stroke-width="1.8"/>
<path d="M28.2031 9.20306C28.6068 9.19004 29.5312 9.34369 30 10.0624C30.2995 9.65878 31.0938 8.92179 31.875 9.20306" stroke="url(#paint7_linear_2924_1077)" stroke-width="1.8"/>
<path d="M34.7656 15.5312C35.1693 15.5182 36.0938 15.6718 36.5625 16.3906C36.862 15.9869 37.6562 15.2499 38.4375 15.5312" stroke="url(#paint8_linear_2924_1077)" stroke-width="1.8"/>
<path d="M4.29688 36.8359H11.6406" stroke="url(#paint9_linear_2924_1077)" stroke-width="1.8"/>
<path d="M15.7812 39.2969H27.3047" stroke="url(#paint10_linear_2924_1077)" stroke-width="1.8"/>
<path d="M28.4766 36.7578H39.9219" stroke="url(#paint11_linear_2924_1077)" stroke-width="1.8"/>
</g>
<defs>
<linearGradient id="paint0_linear_2924_1077" x1="19.8828" y1="13.5156" x2="26.9622" y2="44.7492" gradientUnits="userSpaceOnUse">
<stop stop-color="#7A3991"/>
<stop offset="1" stop-color="#D2288A"/>
</linearGradient>
<linearGradient id="paint1_linear_2924_1077" x1="14.5703" y1="5.23438" x2="25.0985" y2="27.7892" gradientUnits="userSpaceOnUse">
<stop stop-color="#7A3991"/>
<stop offset="1" stop-color="#D2288A"/>
</linearGradient>
<linearGradient id="paint2_linear_2924_1077" x1="14.5508" y1="13.4766" x2="16.9768" y2="23.4908" gradientUnits="userSpaceOnUse">
<stop stop-color="#7A3991"/>
<stop offset="1" stop-color="#D2288A"/>
</linearGradient>
<linearGradient id="paint3_linear_2924_1077" x1="2.26562" y1="8.80469" x2="2.41853" y2="10.2619" gradientUnits="userSpaceOnUse">
<stop stop-color="#7A3991"/>
<stop offset="1" stop-color="#D2288A"/>
</linearGradient>
<linearGradient id="paint4_linear_2924_1077" x1="8.55469" y1="5.70312" x2="8.7076" y2="7.16032" gradientUnits="userSpaceOnUse">
<stop stop-color="#7A3991"/>
<stop offset="1" stop-color="#D2288A"/>
</linearGradient>
<linearGradient id="paint5_linear_2924_1077" x1="5.03906" y1="0.625" x2="5.19197" y2="2.0822" gradientUnits="userSpaceOnUse">
<stop stop-color="#7A3991"/>
<stop offset="1" stop-color="#D2288A"/>
</linearGradient>
<linearGradient id="paint6_linear_2924_1077" x1="31.3086" y1="0.799805" x2="32.5951" y2="9.57098" gradientUnits="userSpaceOnUse">
<stop stop-color="#7A3991"/>
<stop offset="1" stop-color="#D2288A"/>
</linearGradient>
<linearGradient id="paint7_linear_2924_1077" x1="30.0391" y1="9.14062" x2="30.192" y2="10.5978" gradientUnits="userSpaceOnUse">
<stop stop-color="#7A3991"/>
<stop offset="1" stop-color="#D2288A"/>
</linearGradient>
<linearGradient id="paint8_linear_2924_1077" x1="36.6016" y1="15.4688" x2="36.7545" y2="16.9259" gradientUnits="userSpaceOnUse">
<stop stop-color="#7A3991"/>
<stop offset="1" stop-color="#D2288A"/>
</linearGradient>
<linearGradient id="paint9_linear_2924_1077" x1="7.96875" y1="36.8359" x2="8.05942" y2="38.429" gradientUnits="userSpaceOnUse">
<stop stop-color="#7A3991"/>
<stop offset="1" stop-color="#D2288A"/>
</linearGradient>
<linearGradient id="paint10_linear_2924_1077" x1="21.543" y1="39.2969" x2="21.6009" y2="40.893" gradientUnits="userSpaceOnUse">
<stop stop-color="#7A3991"/>
<stop offset="1" stop-color="#D2288A"/>
</linearGradient>
<linearGradient id="paint11_linear_2924_1077" x1="34.1992" y1="36.7578" x2="34.2575" y2="38.3539" gradientUnits="userSpaceOnUse">
<stop stop-color="#7A3991"/>
<stop offset="1" stop-color="#D2288A"/>
</linearGradient>
<clipPath id="clip0_2924_1077">
<rect width="40" height="40" fill="white"/>
</clipPath>
</defs>
</svg>
