<svg width="44" height="45" viewBox="0 0 44 45" fill="none" xmlns="http://www.w3.org/2000/svg">
<ellipse rx="1.97361" ry="10.4128" transform="matrix(0.696564 -0.717494 0.718201 0.695835 18.7395 26.1586)" stroke="url(#paint0_linear_2927_91)" stroke-width="1.8"/>
<path d="M26.1463 33.4979L2 43.0004L11.187 19.041" stroke="url(#paint1_linear_2927_91)" stroke-width="1.8"/>
<path d="M12.0409 39.0205H3.54492" stroke="url(#paint2_linear_2927_91)" stroke-width="1.8"/>
<path d="M4.96729 35.2031H21.7966" stroke="url(#paint3_linear_2927_91)" stroke-width="1.8"/>
<path d="M6.39014 31.4668H21.9186" stroke="url(#paint4_linear_2927_91)" stroke-width="1.8"/>
<path d="M7.93506 27.4873H17.244" stroke="url(#paint5_linear_2927_91)" stroke-width="1.8"/>
<path d="M9.43896 23.6699H13.7073" stroke="url(#paint6_linear_2927_91)" stroke-width="1.8"/>
<path d="M24.5205 27.3244C25.9839 25.9166 30.0977 23.4097 34.8457 24.6442" stroke="url(#paint7_linear_2927_91)" stroke-width="1.8"/>
<path d="M20.252 22.5333C20.3875 22.1678 20.9105 21.4775 21.9186 21.6399C23.1788 21.843 24.6422 22.6958 25.2926 22.0054C25.943 21.3151 25.6991 20.0562 25.2926 18.8785C24.8861 17.7008 25.8211 16.5638 26.9186 16.7262C28.0162 16.8887 29.0731 17.2947 29.6015 17.2135C30.13 17.1323 31.2276 16.848 30.8211 14.9394C30.4146 13.0308 30.4552 11.2034 32.1219 11.6095C33.7885 12.0156 34.7235 12.7465 35.9024 11.3252" stroke="url(#paint8_linear_2927_91)" stroke-width="1.8"/>
<path d="M16.4717 19.8937C17.2169 19.095 18.8375 17.0429 19.3579 15.2236" stroke="url(#paint9_linear_2927_91)" stroke-width="1.8"/>
<path d="M19.6831 13.721C19.8593 13.0848 20.1059 11.3413 19.6831 9.45703" stroke="url(#paint10_linear_2927_91)" stroke-width="1.8"/>
<path d="M37.9758 17.6195L38.2197 20.0154L39.5611 17.9444L41.8376 18.5129L40.5367 16.6449L41.5937 14.4926L39.3579 15.386L37.7725 13.5586V15.8733L35.6587 16.9292L37.9758 17.6195Z" stroke="url(#paint11_linear_2927_91)" stroke-width="1.8"/>
<path d="M35.4961 27.1621V32.0352" stroke="url(#paint12_linear_2927_91)" stroke-width="1.8"/>
<path d="M33.3413 30.8582L37.569 28.2998" stroke="url(#paint13_linear_2927_91)" stroke-width="1.8"/>
<path d="M33.3819 28.3811L37.6096 30.8989M23.8291 8.3202L25.1706 6.24914L23.8291 4.13746L26.1868 4.94965L27.6502 3.04102V5.55878L29.9673 6.24914L27.6502 7.10193V9.57909L26.1868 7.58924L23.8291 8.3202Z" stroke="url(#paint14_linear_2927_91)" stroke-width="1.8"/>
<path d="M39.8862 3V7.95431" stroke="url(#paint15_linear_2927_91)" stroke-width="1.8"/>
<path d="M37.8535 6.81733L41.9999 4.17773M37.8535 4.17773L41.9999 6.81733" stroke="url(#paint16_linear_2927_91)" stroke-width="1.8"/>
<path d="M39.8457 3V7.95431" stroke="url(#paint17_linear_2927_91)" stroke-width="1.8"/>
<path d="M15.0083 8.11719V12.9903" stroke="url(#paint18_linear_2927_91)" stroke-width="1.8"/>
<path d="M12.9756 11.8933L17.1219 9.33496M12.9756 9.33496L17.1219 11.8933" stroke="url(#paint19_linear_2927_91)" stroke-width="1.8"/>
<path d="M15.0083 8.07617V13.0305" stroke="url(#paint20_linear_2927_91)" stroke-width="1.8"/>
<ellipse cx="8.34132" cy="11.2435" rx="0.650406" ry="0.649746" stroke="url(#paint21_linear_2927_91)" stroke-width="1.8"/>
<ellipse cx="5.73976" cy="16.1165" rx="0.650406" ry="0.649746" stroke="url(#paint22_linear_2927_91)" stroke-width="1.8"/>
<ellipse cx="13.4634" cy="16.2796" rx="0.650406" ry="0.649746" stroke="url(#paint23_linear_2927_91)" stroke-width="1.8"/>
<ellipse cx="19.8047" cy="6.12729" rx="0.650406" ry="0.649746" stroke="url(#paint24_linear_2927_91)" stroke-width="1.8"/>
<ellipse cx="22.4063" cy="9.94369" rx="0.650406" ry="0.649746" stroke="url(#paint25_linear_2927_91)" stroke-width="1.8"/>
<ellipse cx="32.5689" cy="4.82748" rx="0.650406" ry="0.649746" stroke="url(#paint26_linear_2927_91)" stroke-width="1.8"/>
<ellipse cx="36.3902" cy="9.94369" rx="0.650406" ry="0.649746" stroke="url(#paint27_linear_2927_91)" stroke-width="1.8"/>
<ellipse cx="23.7075" cy="13.7611" rx="0.650406" ry="0.649746" stroke="url(#paint28_linear_2927_91)" stroke-width="1.8"/>
<ellipse cx="27.4473" cy="22.6956" rx="0.650406" ry="0.649746" stroke="url(#paint29_linear_2927_91)" stroke-width="1.8"/>
<ellipse cx="33.8701" cy="20.096" rx="0.650406" ry="0.649746" stroke="url(#paint30_linear_2927_91)" stroke-width="1.8"/>
<ellipse cx="37.5283" cy="23.9134" rx="0.650406" ry="0.649746" stroke="url(#paint31_linear_2927_91)" stroke-width="1.8"/>
<ellipse cx="28.8291" cy="27.7308" rx="0.650406" ry="0.649746" stroke="url(#paint32_linear_2927_91)" stroke-width="1.8"/>
<ellipse cx="30.0488" cy="35.2845" rx="0.650406" ry="0.649746" stroke="url(#paint33_linear_2927_91)" stroke-width="1.8"/>
<ellipse cx="36.3902" cy="36.5833" rx="0.650406" ry="0.649746" stroke="url(#paint34_linear_2927_91)" stroke-width="1.8"/>
<ellipse cx="27.5283" cy="39.1019" rx="0.650406" ry="0.649746" stroke="url(#paint35_linear_2927_91)" stroke-width="1.8"/>
<ellipse cx="13.4634" cy="16.2796" rx="0.650406" ry="0.649746" stroke="url(#paint36_linear_2927_91)" stroke-width="1.8"/>
<defs>
<linearGradient id="paint0_linear_2927_91" x1="1.97361" y1="0" x2="14.4922" y2="5.67669" gradientUnits="userSpaceOnUse">
<stop stop-color="#7A3991"/>
<stop offset="1" stop-color="#D2288A"/>
</linearGradient>
<linearGradient id="paint1_linear_2927_91" x1="14.0732" y1="18.9598" x2="27.7022" y2="51.71" gradientUnits="userSpaceOnUse">
<stop stop-color="#7A3991"/>
<stop offset="1" stop-color="#D2288A"/>
</linearGradient>
<linearGradient id="paint2_linear_2927_91" x1="8.46362" y1="39.0205" x2="8.53254" y2="40.6157" gradientUnits="userSpaceOnUse">
<stop stop-color="#7A3991"/>
<stop offset="1" stop-color="#D2288A"/>
</linearGradient>
<linearGradient id="paint3_linear_2927_91" x1="13.8697" y1="35.2031" x2="13.9061" y2="36.8005" gradientUnits="userSpaceOnUse">
<stop stop-color="#7A3991"/>
<stop offset="1" stop-color="#D2288A"/>
</linearGradient>
<linearGradient id="paint4_linear_2927_91" x1="13.7885" y1="31.4668" x2="13.8313" y2="33.0639" gradientUnits="userSpaceOnUse">
<stop stop-color="#7A3991"/>
<stop offset="1" stop-color="#D2288A"/>
</linearGradient>
<linearGradient id="paint5_linear_2927_91" x1="12.5286" y1="27.4873" x2="12.5963" y2="29.0826" gradientUnits="userSpaceOnUse">
<stop stop-color="#7A3991"/>
<stop offset="1" stop-color="#D2288A"/>
</linearGradient>
<linearGradient id="paint6_linear_2927_91" x1="11.9593" y1="23.6699" x2="12.0975" y2="25.2561" gradientUnits="userSpaceOnUse">
<stop stop-color="#7A3991"/>
<stop offset="1" stop-color="#D2288A"/>
</linearGradient>
<linearGradient id="paint7_linear_2927_91" x1="29.6831" y1="24.3125" x2="30.2614" y2="29.0557" gradientUnits="userSpaceOnUse">
<stop stop-color="#7A3991"/>
<stop offset="1" stop-color="#D2288A"/>
</linearGradient>
<linearGradient id="paint8_linear_2927_91" x1="28.0772" y1="11.3252" x2="32.9982" y2="27.765" gradientUnits="userSpaceOnUse">
<stop stop-color="#7A3991"/>
<stop offset="1" stop-color="#D2288A"/>
</linearGradient>
<linearGradient id="paint9_linear_2927_91" x1="17.9148" y1="15.2236" x2="21.3784" y2="20.3448" gradientUnits="userSpaceOnUse">
<stop stop-color="#7A3991"/>
<stop offset="1" stop-color="#D2288A"/>
</linearGradient>
<linearGradient id="paint10_linear_2927_91" x1="19.7998" y1="9.45703" x2="20.6773" y2="9.57196" gradientUnits="userSpaceOnUse">
<stop stop-color="#7A3991"/>
<stop offset="1" stop-color="#D2288A"/>
</linearGradient>
<linearGradient id="paint11_linear_2927_91" x1="38.7481" y1="13.5586" x2="42.5333" y2="22.2247" gradientUnits="userSpaceOnUse">
<stop stop-color="#7A3991"/>
<stop offset="1" stop-color="#D2288A"/>
</linearGradient>
<linearGradient id="paint12_linear_2927_91" x1="35.9961" y1="27.1621" x2="39.0771" y2="28.6747" gradientUnits="userSpaceOnUse">
<stop stop-color="#7A3991"/>
<stop offset="1" stop-color="#D2288A"/>
</linearGradient>
<linearGradient id="paint13_linear_2927_91" x1="35.4551" y1="28.2998" x2="36.4272" y2="32.1427" gradientUnits="userSpaceOnUse">
<stop stop-color="#7A3991"/>
<stop offset="1" stop-color="#D2288A"/>
</linearGradient>
<linearGradient id="paint14_linear_2927_91" x1="35.4958" y1="28.3811" x2="36.439" y2="32.1702" gradientUnits="userSpaceOnUse">
<stop stop-color="#7A3991"/>
<stop offset="1" stop-color="#D2288A"/>
</linearGradient>
<linearGradient id="paint15_linear_2927_91" x1="40.7328" y1="7.50655" x2="41.051" y2="8.02807" gradientUnits="userSpaceOnUse">
<stop stop-color="#7A3991"/>
<stop offset="1" stop-color="#D2288A"/>
</linearGradient>
<linearGradient id="paint16_linear_2927_91" x1="41.3638" y1="6.57876" x2="41.3935" y2="6.95771" gradientUnits="userSpaceOnUse">
<stop stop-color="#7A3991"/>
<stop offset="1" stop-color="#D2288A"/>
</linearGradient>
<linearGradient id="paint17_linear_2927_91" x1="40.6923" y1="7.50655" x2="41.0105" y2="8.02807" gradientUnits="userSpaceOnUse">
<stop stop-color="#7A3991"/>
<stop offset="1" stop-color="#D2288A"/>
</linearGradient>
<linearGradient id="paint18_linear_2927_91" x1="15.8549" y1="12.5499" x2="16.1655" y2="13.0674" gradientUnits="userSpaceOnUse">
<stop stop-color="#7A3991"/>
<stop offset="1" stop-color="#D2288A"/>
</linearGradient>
<linearGradient id="paint19_linear_2927_91" x1="16.4859" y1="11.6621" x2="16.5138" y2="12.0295" gradientUnits="userSpaceOnUse">
<stop stop-color="#7A3991"/>
<stop offset="1" stop-color="#D2288A"/>
</linearGradient>
<linearGradient id="paint20_linear_2927_91" x1="15.8549" y1="12.5827" x2="16.1731" y2="13.1042" gradientUnits="userSpaceOnUse">
<stop stop-color="#7A3991"/>
<stop offset="1" stop-color="#D2288A"/>
</linearGradient>
<linearGradient id="paint21_linear_2927_91" x1="8.7922" y1="11.7758" x2="8.81494" y2="11.9607" gradientUnits="userSpaceOnUse">
<stop stop-color="#7A3991"/>
<stop offset="1" stop-color="#D2288A"/>
</linearGradient>
<linearGradient id="paint22_linear_2927_91" x1="6.19063" y1="16.6488" x2="6.21338" y2="16.8337" gradientUnits="userSpaceOnUse">
<stop stop-color="#7A3991"/>
<stop offset="1" stop-color="#D2288A"/>
</linearGradient>
<linearGradient id="paint23_linear_2927_91" x1="13.9143" y1="16.8119" x2="13.937" y2="16.9968" gradientUnits="userSpaceOnUse">
<stop stop-color="#7A3991"/>
<stop offset="1" stop-color="#D2288A"/>
</linearGradient>
<linearGradient id="paint24_linear_2927_91" x1="20.2556" y1="6.65958" x2="20.2783" y2="6.84449" gradientUnits="userSpaceOnUse">
<stop stop-color="#7A3991"/>
<stop offset="1" stop-color="#D2288A"/>
</linearGradient>
<linearGradient id="paint25_linear_2927_91" x1="22.8571" y1="10.476" x2="22.8799" y2="10.6609" gradientUnits="userSpaceOnUse">
<stop stop-color="#7A3991"/>
<stop offset="1" stop-color="#D2288A"/>
</linearGradient>
<linearGradient id="paint26_linear_2927_91" x1="33.0197" y1="5.35978" x2="33.0425" y2="5.54469" gradientUnits="userSpaceOnUse">
<stop stop-color="#7A3991"/>
<stop offset="1" stop-color="#D2288A"/>
</linearGradient>
<linearGradient id="paint27_linear_2927_91" x1="36.841" y1="10.476" x2="36.8638" y2="10.6609" gradientUnits="userSpaceOnUse">
<stop stop-color="#7A3991"/>
<stop offset="1" stop-color="#D2288A"/>
</linearGradient>
<linearGradient id="paint28_linear_2927_91" x1="24.1584" y1="14.2934" x2="24.1812" y2="14.4783" gradientUnits="userSpaceOnUse">
<stop stop-color="#7A3991"/>
<stop offset="1" stop-color="#D2288A"/>
</linearGradient>
<linearGradient id="paint29_linear_2927_91" x1="27.8982" y1="23.2279" x2="27.9209" y2="23.4129" gradientUnits="userSpaceOnUse">
<stop stop-color="#7A3991"/>
<stop offset="1" stop-color="#D2288A"/>
</linearGradient>
<linearGradient id="paint30_linear_2927_91" x1="34.321" y1="20.6283" x2="34.3438" y2="20.8132" gradientUnits="userSpaceOnUse">
<stop stop-color="#7A3991"/>
<stop offset="1" stop-color="#D2288A"/>
</linearGradient>
<linearGradient id="paint31_linear_2927_91" x1="37.9792" y1="24.4457" x2="38.002" y2="24.6306" gradientUnits="userSpaceOnUse">
<stop stop-color="#7A3991"/>
<stop offset="1" stop-color="#D2288A"/>
</linearGradient>
<linearGradient id="paint32_linear_2927_91" x1="29.28" y1="28.2631" x2="29.3027" y2="28.448" gradientUnits="userSpaceOnUse">
<stop stop-color="#7A3991"/>
<stop offset="1" stop-color="#D2288A"/>
</linearGradient>
<linearGradient id="paint33_linear_2927_91" x1="30.4997" y1="35.8168" x2="30.5225" y2="36.0017" gradientUnits="userSpaceOnUse">
<stop stop-color="#7A3991"/>
<stop offset="1" stop-color="#D2288A"/>
</linearGradient>
<linearGradient id="paint34_linear_2927_91" x1="36.841" y1="37.1156" x2="36.8638" y2="37.3005" gradientUnits="userSpaceOnUse">
<stop stop-color="#7A3991"/>
<stop offset="1" stop-color="#D2288A"/>
</linearGradient>
<linearGradient id="paint35_linear_2927_91" x1="27.9792" y1="39.6342" x2="28.002" y2="39.8191" gradientUnits="userSpaceOnUse">
<stop stop-color="#7A3991"/>
<stop offset="1" stop-color="#D2288A"/>
</linearGradient>
<linearGradient id="paint36_linear_2927_91" x1="13.9143" y1="16.8119" x2="13.937" y2="16.9968" gradientUnits="userSpaceOnUse">
<stop stop-color="#7A3991"/>
<stop offset="1" stop-color="#D2288A"/>
</linearGradient>
</defs>
</svg>
