<svg width="40" height="41" viewBox="0 0 40 41" fill="none" xmlns="http://www.w3.org/2000/svg">
<path d="M26.3156 7.15024C26.3156 10.6065 23.5294 13.4005 20.1022 13.4005C16.675 13.4005 13.8888 10.6065 13.8888 7.15024C13.8888 3.69394 16.675 0.9 20.1022 0.9C23.5294 0.9 26.3156 3.69394 26.3156 7.15024Z" stroke="url(#paint0_linear_2922_1060)" stroke-width="1.8"/>
<path d="M8.0415 18.5489C8.83188 17.3054 11.258 14.6319 14.6394 13.8857" stroke="url(#paint1_linear_2922_1060)" stroke-width="1.8"/>
<path d="M32.165 18.5489C31.3747 17.3054 28.9485 14.6319 25.5671 13.8857" stroke="url(#paint2_linear_2922_1060)" stroke-width="1.8"/>
<path d="M19.9996 22.6942L4.12334 17.5128C3.71097 17.3401 2.88623 17.2434 2.88623 18.2382C2.88623 19.233 2.88623 28.6699 2.88623 33.2641C2.88623 33.6786 3.13365 34.5905 4.12334 34.9221C5.11304 35.2537 15.1199 38.4454 19.9996 39.9998M19.9996 22.6942L36.0821 17.2019C37.2368 16.6216 37.388 17.651 37.3192 18.2382C37.2849 22.6941 37.2368 31.9376 37.3192 33.2641C37.3661 34.0169 37.1715 34.4493 36.9317 34.6825C36.6439 34.9622 36.1965 34.9825 35.8132 35.1012L19.9996 39.9998M19.9996 22.6942V39.9998" stroke="url(#paint3_linear_2922_1060)" stroke-width="1.8"/>
<rect x="0.9" y="22.4547" width="4.17938" height="5.28362" rx="2.08969" fill="white" stroke="url(#paint4_linear_2922_1060)" stroke-width="1.8"/>
<rect x="34.9205" y="22.4547" width="4.17938" height="5.28362" rx="2.08969" fill="white" stroke="url(#paint5_linear_2922_1060)" stroke-width="1.8"/>
<defs>
<linearGradient id="paint0_linear_2922_1060" x1="20.1022" y1="0" x2="28.2639" y2="19.426" gradientUnits="userSpaceOnUse">
<stop stop-color="#7A3991"/>
<stop offset="1" stop-color="#D2288A"/>
</linearGradient>
<linearGradient id="paint1_linear_2922_1060" x1="11.3405" y1="13.8857" x2="13.3654" y2="20.7403" gradientUnits="userSpaceOnUse">
<stop stop-color="#7A3991"/>
<stop offset="1" stop-color="#D2288A"/>
</linearGradient>
<linearGradient id="paint2_linear_2922_1060" x1="28.8661" y1="13.8857" x2="26.8411" y2="20.7403" gradientUnits="userSpaceOnUse">
<stop stop-color="#7A3991"/>
<stop offset="1" stop-color="#D2288A"/>
</linearGradient>
<linearGradient id="paint3_linear_2922_1060" x1="20.1097" y1="17.0303" x2="29.6038" y2="51.0942" gradientUnits="userSpaceOnUse">
<stop stop-color="#7A3991"/>
<stop offset="1" stop-color="#D2288A"/>
</linearGradient>
<linearGradient id="paint4_linear_2922_1060" x1="2.98969" y1="21.5547" x2="7.4917" y2="30.6465" gradientUnits="userSpaceOnUse">
<stop stop-color="#7A3991"/>
<stop offset="1" stop-color="#D2288A"/>
</linearGradient>
<linearGradient id="paint5_linear_2922_1060" x1="37.0102" y1="21.5547" x2="41.5122" y2="30.6465" gradientUnits="userSpaceOnUse">
<stop stop-color="#7A3991"/>
<stop offset="1" stop-color="#D2288A"/>
</linearGradient>
</defs>
</svg>
