<svg width="19" height="19" viewBox="0 0 19 19" fill="none" xmlns="http://www.w3.org/2000/svg">
<path d="M18.5269 6.53125L17.4651 6.88022C17.742 7.7227 17.8824 8.60408 17.8824 9.49987C17.8824 14.1219 14.1221 17.8822 9.50005 17.8822C7.35256 17.8822 5.33815 17.0805 3.79923 15.6469H5.40201V14.5293H1.86279V17.8822H2.98044V16.407C3.65416 17.0423 4.41915 17.5812 5.24304 17.9949C6.57137 18.6617 8.00363 18.9999 9.50005 18.9999C12.0376 18.9999 14.4232 18.0117 16.2176 16.2174C18.0119 14.423 19.0001 12.0374 19.0001 9.49987C19.0001 8.48531 18.8409 7.48654 18.5269 6.53125Z" fill="black"/>
<path d="M9.5 1.11765C11.6336 1.11765 13.6571 1.9215 15.1988 3.35294H13.598V4.47059H17.1373V1.11765H16.0196V2.59078C14.2651 0.932677 11.9465 0 9.5 0C6.96246 0 4.5768 0.988149 2.78249 2.78249C0.988187 4.57684 0 6.96246 0 9.5C0 10.5861 0.181916 11.6515 0.540718 12.6666L1.59447 12.2942C1.2781 11.399 1.11765 10.4589 1.11765 9.5C1.11765 4.87797 4.87797 1.11765 9.5 1.11765Z" fill="black"/>
<path d="M11.1765 7.6376H12.2942C12.2942 6.32615 11.3209 5.23816 10.0589 5.0568V3.91211H8.94123V5.0568C7.67918 5.2382 6.70593 6.32619 6.70593 7.6376C6.70593 8.66226 7.40018 9.55142 8.39418 9.79987L8.94123 9.93664V12.8061C8.29921 12.6403 7.82358 12.0562 7.82358 11.3631H6.70593C6.70593 12.6745 7.67918 13.7625 8.94123 13.9439V15.0886H10.0589V13.9439C11.3209 13.7625 12.2942 12.6745 12.2942 11.3631C12.2942 10.3384 11.5999 9.44927 10.6059 9.20082L10.0589 9.06405V6.19457C10.7009 6.36043 11.1765 6.94451 11.1765 7.6376V7.6376ZM10.3348 10.2851C10.8304 10.409 11.1765 10.8523 11.1765 11.3631C11.1765 12.0562 10.7009 12.6403 10.0589 12.8061V10.2161L10.3348 10.2851ZM8.66528 8.71561C8.16968 8.59174 7.82358 8.14844 7.82358 7.6376C7.82358 6.94451 8.29921 6.36043 8.94123 6.19457V8.7846L8.66528 8.71561Z" fill="black"/>
</svg>
