<svg width="19" height="19" viewBox="0 0 19 19" fill="none" xmlns="http://www.w3.org/2000/svg">
<path d="M10.6875 16.6243H7.52083C7.30233 16.6243 7.125 16.447 7.125 16.2285C7.125 16.01 7.30233 15.8327 7.52083 15.8327H10.6875C11.3422 15.8327 11.875 15.2999 11.875 14.6452V10.6868C11.875 10.4683 12.0523 10.291 12.2708 10.291C12.4893 10.291 12.6667 10.4683 12.6667 10.6868V14.6452C12.6667 15.7361 11.7792 16.6243 10.6875 16.6243Z" fill="black"/>
<path d="M18.6041 8.70768H10.6875C10.469 8.70768 10.2916 8.53035 10.2916 8.31185C10.2916 8.09335 10.469 7.91602 10.6875 7.91602H18.6041C18.8226 7.91602 19 8.09335 19 8.31185C19 8.53035 18.8226 8.70768 18.6041 8.70768Z" fill="black"/>
<path d="M6.33333 19C6.15917 19 5.98896 18.9707 5.82825 18.9137L1.08617 17.3327C0.437 17.1166 0 16.5134 0 15.8333V1.58333C0 0.710125 0.710125 0 1.58333 0C1.75908 0 1.93008 0.0292917 2.08921 0.0870833L6.8305 1.66725C7.47967 1.88258 7.91667 2.48583 7.91667 3.16667V17.4167C7.91667 18.2899 7.20654 19 6.33333 19ZM1.58333 0.791667C1.14633 0.791667 0.791667 1.14713 0.791667 1.58333V15.8333C0.791667 16.1722 1.01017 16.473 1.33633 16.5822L6.08633 18.1656C6.60567 18.35 7.125 17.9344 7.125 17.4167V3.16667C7.125 2.82704 6.9065 2.52621 6.58033 2.41854L1.83033 0.835208C1.74879 0.805917 1.66567 0.791667 1.58333 0.791667V0.791667Z" fill="black"/>
<path d="M12.2708 6.33333C12.0523 6.33333 11.875 6.156 11.875 5.9375V1.97917C11.875 1.32446 11.3422 0.791667 10.6875 0.791667H1.58333C1.36483 0.791667 1.1875 0.614333 1.1875 0.395833C1.1875 0.177333 1.36483 0 1.58333 0H10.6875C11.7792 0 12.6667 0.88825 12.6667 1.97917V5.9375C12.6667 6.156 12.4893 6.33333 12.2708 6.33333Z" fill="black"/>
<path d="M15.4374 11.8756C15.3361 11.8756 15.2347 11.8368 15.1572 11.76C15.0028 11.6056 15.0028 11.3547 15.1572 11.2003L18.0436 8.31386L15.1572 5.42744C15.0028 5.27307 15.0028 5.02211 15.1572 4.86773C15.3115 4.71336 15.5625 4.71336 15.7169 4.86773L18.8835 8.0344C19.0379 8.18878 19.0379 8.43973 18.8835 8.59411L15.7169 11.7608C15.6401 11.8368 15.5387 11.8756 15.4374 11.8756V11.8756Z" fill="black"/>
</svg>
