<svg width="19" height="19" viewBox="0 0 19 19" fill="none" xmlns="http://www.w3.org/2000/svg">
<path d="M9.5 19C9.36919 19 9.23838 18.9478 9.13347 18.8433C8.2987 18.0123 7.51476 17.2538 6.75665 16.5203C2.68794 12.5836 0 9.98294 0 6.18619C0 2.78675 2.13015 0 5.04688 0C6.61894 0 7.98479 0.858885 8.99676 2.48385C9.19607 2.80389 9.3627 3.12356 9.5 3.42068C9.63727 3.1236 9.80393 2.80389 10.0032 2.48385C11.0152 0.858885 12.3811 0 13.9531 0C16.8703 0 19 2.7873 19 6.18619C19 9.98289 16.3121 12.5836 12.2434 16.5202C11.4853 17.2537 10.7013 18.0122 9.86657 18.8433C9.76162 18.9478 9.63081 19 9.5 19ZM5.04688 1.26667C2.80436 1.26667 1.11328 3.38162 1.11328 6.18619C1.11328 9.39732 3.64525 11.8471 7.47784 15.5553C8.12725 16.1837 8.79555 16.8302 9.5 17.5264C10.2044 16.8302 10.8728 16.1836 11.5222 15.5552C15.3548 11.8471 17.8867 9.39732 17.8867 6.18619C17.8867 3.38162 16.1956 1.26667 13.9531 1.26667C12.7499 1.26667 11.7327 1.91288 10.9296 3.1874C10.2962 4.19271 10.039 5.22504 10.0365 5.23539C9.96947 5.50932 9.75001 5.69941 9.50015 5.69941C9.49978 5.69941 9.49941 5.69941 9.49907 5.69941C9.2491 5.69886 9.03001 5.50941 8.96347 5.23539C8.96095 5.22508 8.70378 4.19271 8.07036 3.1874C7.26731 1.91288 6.25004 1.26667 5.04688 1.26667Z" fill="black"/>
</svg>
