<svg width="19" height="19" viewBox="0 0 19 19" fill="none" xmlns="http://www.w3.org/2000/svg">
<path d="M8.90284 12.447C9.04041 12.4748 9.18219 12.4406 9.29742 12.3518C9.41266 12.2629 9.49205 12.1266 9.51836 11.9725C9.5532 11.7711 9.57109 11.5664 9.5718 11.3612C9.5718 9.95873 8.78855 8.74126 7.65003 8.14892C7.89943 7.9036 8.09932 7.60133 8.23636 7.2623C8.3734 6.92326 8.44441 6.55529 8.44467 6.18297C8.44467 4.72934 7.37938 3.54688 6.06967 3.54688C4.75995 3.54688 3.69467 4.72934 3.69467 6.18297C3.69498 6.55867 3.76731 6.9299 3.90673 7.27143C4.04615 7.61296 4.24939 7.91678 4.50266 8.16225C3.37602 8.75849 2.60266 9.96873 2.60266 11.3623C2.60373 11.5666 2.62145 11.7702 2.6556 11.9708C2.67811 12.1069 2.74225 12.2298 2.83694 12.3184C2.93163 12.407 3.05091 12.4556 3.17415 12.4559C3.20636 12.4561 3.23851 12.4528 3.27013 12.4459C3.33833 12.4318 3.40339 12.4027 3.46159 12.3604C3.51978 12.318 3.56998 12.2632 3.60931 12.1991C3.64865 12.1349 3.67634 12.0627 3.69082 11.9866C3.70529 11.9104 3.70626 11.8318 3.69368 11.7552C3.67124 11.6257 3.65931 11.4942 3.65805 11.3623C3.65805 10.0332 4.74659 8.95241 6.08797 8.95241C7.42935 8.95241 8.5174 10.0332 8.5174 11.3623C8.51628 11.4941 8.50435 11.6254 8.48178 11.7547C8.46888 11.8312 8.46955 11.9098 8.48373 11.986C8.49792 12.0622 8.52536 12.1346 8.56447 12.1989C8.60358 12.2632 8.65359 12.3182 8.71166 12.3608C8.76972 12.4034 8.83469 12.4327 8.90284 12.447ZM6.06967 4.73434C6.79701 4.73434 7.38928 5.38558 7.38928 6.18519C7.38928 6.98479 6.79553 7.63659 6.06967 7.63659C5.34381 7.63659 4.75006 6.98424 4.75006 6.18408C4.75006 5.38391 5.34381 4.73323 6.06967 4.73323V4.73434Z" fill="black"/>
<path d="M15.539 4.52671L12.0522 8.34749L10.836 6.97999C10.7362 6.87331 10.6033 6.81465 10.4655 6.81653C10.3278 6.8184 10.1962 6.88065 10.0987 6.99C10.0013 7.09935 9.94577 7.24713 9.94401 7.40182C9.94226 7.5565 9.9944 7.70583 10.0893 7.81793L12.0442 10.0134L16.2772 5.37522C16.3774 5.2655 16.4347 5.11558 16.4364 4.95843C16.4382 4.80128 16.3843 4.64979 16.2866 4.53727C16.1889 4.42475 16.0554 4.36043 15.9155 4.35845C15.7755 4.35647 15.6406 4.41699 15.5404 4.52671H15.539Z" fill="black"/>
<path d="M18.4726 4.74207C18.6125 4.74192 18.7466 4.67939 18.8455 4.56822C18.9444 4.45705 19 4.30632 19 4.14917V2.37104C18.9995 1.74247 18.7769 1.13982 18.3812 0.695306C17.9855 0.250794 17.4489 0.000735573 16.8892 0H2.11128C1.55153 0.000735306 1.0149 0.250776 0.619102 0.695272C0.223302 1.13977 0.000654749 1.74242 0 2.37104V13.6328C0.000654987 14.2613 0.223318 14.8639 0.619132 15.3083C1.01495 15.7527 1.55158 16.0027 2.11128 16.0032H6.17549C6.2449 16.0031 6.31364 16.0184 6.37776 16.0483C6.44187 16.0781 6.50009 16.1219 6.54906 16.1772L8.75336 18.6527C8.85141 18.7628 8.96781 18.8501 9.09592 18.9097C9.22403 18.9693 9.36134 19 9.5 19C9.63867 19 9.77597 18.9693 9.90408 18.9097C10.0322 18.8501 10.1486 18.7628 10.2466 18.6527L12.4509 16.1772C12.5501 16.0663 12.6841 16.0038 12.824 16.0032H16.8892C17.4488 16.0025 17.9853 15.7525 18.381 15.3081C18.7768 14.8637 18.9993 14.2612 19 13.6328V7.11255C18.9958 6.95852 18.9384 6.81238 18.8399 6.70509C18.7414 6.5978 18.6095 6.5378 18.4723 6.5378C18.3351 6.5378 18.2033 6.5978 18.1048 6.70509C18.0062 6.81238 17.9488 6.95852 17.9446 7.11255V13.6328C17.9442 13.947 17.8329 14.2482 17.6351 14.4704C17.4372 14.6925 17.169 14.8176 16.8892 14.818H12.824C12.6162 14.8171 12.4103 14.8625 12.2182 14.9514C12.0261 15.0404 11.8516 15.1713 11.7048 15.3364L9.5 17.8147L7.29521 15.3364C7.14848 15.1708 6.97397 15.0396 6.78178 14.9502C6.58958 14.8608 6.38351 14.8151 6.17549 14.8158H2.11128C1.83145 14.8155 1.56316 14.6905 1.36529 14.4683C1.16742 14.2461 1.05615 13.9448 1.05589 13.6305V2.37104C1.05615 2.05678 1.16742 1.75548 1.36529 1.53327C1.56316 1.31106 1.83145 1.18609 2.11128 1.1858H16.8892C17.169 1.18624 17.4372 1.31125 17.6351 1.53343C17.8329 1.75561 17.9442 2.05683 17.9446 2.37104V4.14917C17.9446 4.30642 18.0002 4.45723 18.0992 4.56842C18.1982 4.67961 18.3325 4.74207 18.4726 4.74207Z" fill="black"/>
</svg>
