<svg width="19" height="19" viewBox="0 0 19 19" fill="none" xmlns="http://www.w3.org/2000/svg">
<path d="M18.8292 11.8815L17.8586 11.1713V9.88343C17.8586 9.24015 17.268 8.71668 16.5418 8.71668C16.0322 8.71668 15.5896 8.97467 15.3708 9.35084L14.9279 9.02676V7.7529C14.9279 7.10946 14.3373 6.58615 13.6111 6.58615C13.1059 6.58615 12.6664 6.83958 12.4458 7.21054L11.879 6.7958V3.7023C11.879 2.26681 11.0918 0.91173 9.77336 0.0775205C9.60986 -0.0258402 9.39014 -0.0258402 9.22682 0.0775205C7.90815 0.91173 7.12096 2.26681 7.12096 3.7023V6.79596L6.5544 7.21054C6.33358 6.83975 5.89414 6.58615 5.38894 6.58615C4.66292 6.58615 4.07211 7.10962 4.07211 7.7529V9.02692L3.62919 9.351C3.41039 8.97467 2.96783 8.71684 2.45822 8.71684C1.7322 8.71684 1.14139 9.24015 1.14139 9.88359V11.1713L0.17085 11.8815C0.062645 11.9606 0 12.0784 0 12.2028V14.1826C0 14.3152 0.0714631 14.4399 0.19216 14.5185C0.273911 14.5716 0.371461 14.5993 0.470481 14.5993C0.517694 14.5993 0.565275 14.5929 0.611386 14.5801L2.37647 14.0883C2.62429 14.0193 2.76208 13.7854 2.684 13.5658C2.60611 13.3463 2.34212 13.2243 2.09429 13.2934L0.940594 13.6147V12.3991L7.12096 7.87677V11.8929L5.68527 12.2928C5.43744 12.362 5.29966 12.5959 5.37774 12.8153C5.44075 12.9934 5.6263 13.1071 5.82617 13.1071C5.87283 13.1071 5.92042 13.101 5.96744 13.0879L7.12096 12.7665V13.3238C7.12096 14.0071 7.20271 14.6805 7.36309 15.3357L5.26769 17.2621C5.18319 17.3397 5.13597 17.4434 5.13597 17.5512V18.5833C5.13597 18.7275 5.22011 18.8615 5.35826 18.9375C5.43395 18.979 5.51993 19 5.60627 19C5.67755 19 5.7492 18.9857 5.81515 18.9567L8.40546 17.8191C8.61783 18.1653 8.855 18.5018 9.1177 18.8262C9.20606 18.9354 9.34844 19 9.5 19C9.65156 19 9.79375 18.9354 9.88212 18.8262C10.1448 18.5018 10.3822 18.1653 10.5944 17.8191L13.1849 18.9567C13.2508 18.9857 13.3223 19 13.3935 19C13.4799 19 13.5659 18.979 13.6416 18.9375C13.7799 18.8615 13.8638 18.7275 13.8638 18.5833V17.5512C13.8638 17.4432 13.8166 17.3394 13.7319 17.2618L11.636 15.3388C11.7969 14.6826 11.8789 14.0081 11.8789 13.3238V12.7665L18.3886 14.5801C18.4347 14.5929 18.4823 14.5991 18.5297 14.5991C18.6285 14.5991 18.7263 14.5714 18.8078 14.5184C18.9287 14.4399 19 14.3151 19 14.1824V12.2026C19 12.0784 18.9374 11.9606 18.8292 11.8815V11.8815ZM5.01271 7.7529C5.01271 7.56913 5.18153 7.41954 5.38894 7.41954C5.59635 7.41954 5.76518 7.56913 5.76518 7.7529V7.78806L5.01271 8.33856V7.7529ZM2.08198 9.88343C2.08198 9.69966 2.25063 9.55007 2.45822 9.55007C2.66563 9.55007 2.83446 9.69966 2.83446 9.88343V9.93243L2.08198 10.4831V9.88343ZM16.1655 9.88343C16.1655 9.69966 16.3344 9.55007 16.5418 9.55007C16.7494 9.55007 16.918 9.69966 16.918 9.88343V10.4831L16.1655 9.93243V9.88343ZM13.2348 7.7529C13.2348 7.56913 13.4036 7.41954 13.6111 7.41954C13.8185 7.41954 13.9873 7.56913 13.9873 7.7529V8.33856L13.2348 7.78806V7.7529ZM6.07657 17.9117V17.7193L7.65096 16.2719C7.75127 16.5421 7.86517 16.8084 7.99303 17.0702L6.07657 17.9117ZM9.5 17.8319C8.55683 16.476 8.06155 14.9299 8.06155 13.3238V12.1998C8.06155 12.1984 8.06155 12.1969 8.06155 12.1953V3.7023C8.06155 2.63826 8.59358 1.62858 9.5 0.944773C10.4064 1.62858 10.9384 2.63826 10.9384 3.7023V12.1953V12.1998V13.3238C10.9384 14.0159 10.8462 14.6969 10.666 15.3565C10.6631 15.3661 10.6603 15.3759 10.6581 15.3856C10.4197 16.2457 10.0307 17.069 9.5 17.8319V17.8319ZM12.9234 17.7196V17.9117L11.0068 17.0702C11.1345 16.8092 11.248 16.5438 11.3479 16.2742L12.9234 17.7196ZM18.0594 13.6147L11.879 11.8929V7.87677L18.0594 12.3991V13.6147Z" fill="black"/>
<path d="M4.03097 12.7734C3.90715 12.7734 3.7859 12.818 3.69845 12.8955C3.61101 12.973 3.56067 13.0804 3.56067 13.1901C3.56067 13.2997 3.61101 13.4071 3.69845 13.4848C3.7859 13.5622 3.90715 13.6068 4.03097 13.6068C4.1546 13.6068 4.27585 13.5622 4.36348 13.4848C4.45093 13.4071 4.50126 13.2997 4.50126 13.1901C4.50126 13.0804 4.45093 12.973 4.36348 12.8955C4.27585 12.8179 4.1546 12.7734 4.03097 12.7734Z" fill="black"/>
<path d="M9.49996 6.95898C9.37632 6.95898 9.25489 7.00358 9.16745 7.08106C9.08 7.15854 9.02966 7.26614 9.02966 7.37568C9.02966 7.48523 9.08 7.59282 9.16745 7.6703C9.25489 7.74778 9.37632 7.79238 9.49996 7.79238C9.6236 7.79238 9.74503 7.74778 9.83247 7.6703C9.91992 7.59282 9.97026 7.48523 9.97026 7.37568C9.97026 7.26614 9.91992 7.15854 9.83247 7.08106C9.74503 7.00358 9.6236 6.95898 9.49996 6.95898Z" fill="black"/>
<path d="M9.49996 8.62598C9.24019 8.62598 9.02966 8.81251 9.02966 9.04267V13.207C9.02966 13.4372 9.24019 13.6237 9.49996 13.6237C9.75973 13.6237 9.97026 13.4372 9.97026 13.207V9.04267C9.97026 8.81251 9.75973 8.62598 9.49996 8.62598Z" fill="black"/>
</svg>
