<svg width="19" height="19" viewBox="0 0 19 19" fill="none" xmlns="http://www.w3.org/2000/svg">
<path d="M9.49996 9.52539C4.26175 9.52539 0 13.5989 0 18.6057C0 18.8236 0.185056 19.0005 0.413055 19.0005C0.641055 19.0005 0.82611 18.8236 0.82611 18.6057C0.82611 14.034 4.71697 10.315 9.5 10.315C14.283 10.315 18.1739 14.034 18.1739 18.6057C18.1739 18.8236 18.3589 19.0005 18.5869 19.0005C18.8149 19.0005 19 18.8236 19 18.6057C19 13.5981 14.7382 9.52539 9.49996 9.52539Z" fill="black"/>
<path d="M9.5 0C6.99529 0 4.95654 1.94792 4.95654 4.34276C4.95654 6.7376 6.99533 8.68552 9.5 8.68552C12.0047 8.68552 14.0434 6.7376 14.0434 4.34276C14.0434 1.94792 12.0047 0 9.5 0ZM9.5 7.89593C7.45048 7.89593 5.78261 6.30174 5.78261 4.34276C5.78261 2.38377 7.45048 0.789582 9.5 0.789582C11.5495 0.789582 13.2174 2.38377 13.2174 4.34276C13.2174 6.30174 11.5495 7.89593 9.5 7.89593Z" fill="black"/>
</svg>
