<svg width="37" height="44" viewBox="0 0 37 44" fill="none" xmlns="http://www.w3.org/2000/svg">
<path d="M20.3178 42.9445L35.9455 27.3171C36.3916 26.8711 36.6365 26.2765 36.6365 25.6425C36.6365 25.0079 36.3913 24.4137 35.9455 23.9676L34.5263 22.5487C34.0809 22.103 33.486 21.8574 32.8517 21.8574C32.2177 21.8574 31.6028 22.103 31.1574 22.5487L22.0206 31.6655L22.0206 2.70105C22.0206 1.39514 20.9982 0.363281 19.6919 0.363281L17.6856 0.36328C16.3793 0.36328 15.2539 1.39514 15.2539 2.70105L15.2539 31.7689L6.06601 22.5491C5.61991 22.1033 5.04118 21.8578 4.40687 21.8578C3.77326 21.8578 3.1861 22.1033 2.74035 22.5491L1.32573 23.9679C0.879634 24.414 0.636535 25.0082 0.636535 25.6429C0.636535 26.2768 0.8828 26.8714 1.32889 27.3175L16.9563 42.9449C17.4038 43.392 18.0011 43.6379 18.6362 43.6362C19.2733 43.6376 19.871 43.392 20.3178 42.9445Z" fill="black"/>
</svg>
