<svg width="44" height="36" viewBox="0 0 44 36" fill="none" xmlns="http://www.w3.org/2000/svg">
<path d="M42.5812 16.3187L26.9539 0.690953C26.5078 0.244859 25.9132 0 25.2793 0C24.6446 0 24.0504 0.245211 23.6043 0.690953L22.1854 2.11015C21.7397 2.55554 21.4941 3.15045 21.4941 3.78476C21.4941 4.41872 21.7397 5.03369 22.1854 5.47908L31.3022 14.6159H2.33777C1.03186 14.6159 0 15.6383 0 16.9445V18.9509C0 20.2572 1.03186 21.3826 2.33777 21.3826H31.4057L22.1858 30.5705C21.7401 31.0166 21.4945 31.5953 21.4945 32.2296C21.4945 32.8632 21.7401 33.4504 22.1858 33.8961L23.6046 35.3107C24.0507 35.7568 24.6449 35.9999 25.2796 35.9999C25.9136 35.9999 26.5081 35.7537 26.9542 35.3076L42.5816 19.6802C43.0287 19.2327 43.2747 18.6353 43.2729 18.0003C43.2743 17.3632 43.0287 16.7655 42.5812 16.3187Z" fill="black"/>
</svg>
