<svg width="159" height="159" viewBox="0 0 159 159" fill="none" xmlns="http://www.w3.org/2000/svg">
<path d="M157.393 150.15L116.412 109.823C127.144 98.1632 133.738 82.743 133.738 65.7746C133.732 29.4762 103.834 0.0546875 66.9506 0.0546875C30.0669 0.0546875 0.168945 29.4762 0.168945 65.7746C0.168945 102.073 30.0669 131.495 66.9506 131.495C82.887 131.495 97.5034 125.982 108.985 116.818L150.125 157.304C152.13 159.279 155.384 159.279 157.389 157.304C159.398 155.33 159.398 152.125 157.393 150.15ZM66.9506 121.383C35.743 121.383 10.4442 96.4864 10.4442 65.7746C10.4442 35.0628 35.743 10.1661 66.9506 10.1661C98.1586 10.1661 123.457 35.0628 123.457 65.7746C123.457 96.4864 98.1586 121.383 66.9506 121.383Z" fill="black"/>
</svg>
