<svg width="31" height="32" viewBox="0 0 31 32" fill="none" xmlns="http://www.w3.org/2000/svg">
<path d="M28.7318 0H2.27051C1.66897 0 1.09206 0.238961 0.666709 0.664315C0.241355 1.08967 0.00239413 1.66657 0.00239413 2.26811V29.1075C-0.0265444 29.7739 0.207789 30.4249 0.65479 30.92C1.10179 31.4151 1.72559 31.7145 2.39147 31.7536H22.6835C22.7827 31.7548 22.881 31.7352 22.9721 31.6962C23.0633 31.6571 23.1453 31.5994 23.2128 31.5268L30.7731 23.9664C30.8458 23.8989 30.9035 23.8169 30.9425 23.7258C30.9816 23.6346 31.0012 23.5363 30.9999 23.4372V2.26811C30.9999 1.66657 30.761 1.08967 30.3356 0.664315C29.9103 0.238961 29.3334 0 28.7318 0ZM23.4396 29.1679V24.9493C23.4396 24.7487 23.5192 24.5564 23.661 24.4146C23.8028 24.2729 23.9951 24.1932 24.1956 24.1932H28.4143L23.4396 29.1679ZM24.1956 22.6811C23.5941 22.6811 23.0172 22.9201 22.5918 23.3455C22.1665 23.7708 21.9275 24.3477 21.9275 24.9493V30.2415H2.39147C2.12808 30.2003 1.89044 30.0599 1.72735 29.849C1.56426 29.6381 1.48809 29.3727 1.51447 29.1075V2.26811C1.51447 2.0676 1.59412 1.8753 1.73591 1.73351C1.87769 1.59173 2.06999 1.51208 2.27051 1.51208H28.7318C28.9323 1.51208 29.1246 1.59173 29.2664 1.73351C29.4082 1.8753 29.4879 2.0676 29.4879 2.26811V22.6811H24.1956Z" fill="#4E337A"/>
</svg>
