<svg width="88" height="54" viewBox="0 0 88 54" fill="none" xmlns="http://www.w3.org/2000/svg">
<path d="M31.0041 53.262C30.8864 48.9059 33.2646 40.123 43.7193 39.8404C54.174 39.5578 57.2587 48.6704 57.4941 53.262" stroke="url(#paint0_linear_2937_351)" stroke-width="4"/>
<circle cx="44.0686" cy="32.4172" r="7.4172" stroke="url(#paint1_linear_2937_351)" stroke-width="4"/>
<path d="M51 32C52.5 35.5 51.2059 23.4091 66.0059 23.0091C80.8059 22.6091 85.1726 35.5091 85.506 42.0091" stroke="url(#paint2_linear_2937_351)" stroke-width="4"/>
<circle cx="66.5" cy="12.5" r="10.5" stroke="url(#paint3_linear_2937_351)" stroke-width="4"/>
<path d="M36.5059 32C35.0059 35.5 36.3 23.4091 21.5 23.0091C6.69996 22.6091 2.33325 35.5091 1.99989 42.0091" stroke="url(#paint4_linear_2937_351)" stroke-width="4"/>
<circle r="10.5" transform="matrix(-1 0 0 1 21.0059 12.5)" stroke="url(#paint5_linear_2937_351)" stroke-width="4"/>
<defs>
<linearGradient id="paint0_linear_2937_351" x1="53.4301" y1="51.9189" x2="53.5482" y2="53.8307" gradientUnits="userSpaceOnUse">
<stop stop-color="#7A3991"/>
<stop offset="1" stop-color="#D2288A"/>
</linearGradient>
<linearGradient id="paint1_linear_2937_351" x1="49.2103" y1="38.3506" x2="49.4648" y2="40.4397" gradientUnits="userSpaceOnUse">
<stop stop-color="#7A3991"/>
<stop offset="1" stop-color="#D2288A"/>
</linearGradient>
<linearGradient id="paint2_linear_2937_351" x1="79.7527" y1="40.1078" x2="79.9199" y2="42.8141" gradientUnits="userSpaceOnUse">
<stop stop-color="#7A3991"/>
<stop offset="1" stop-color="#D2288A"/>
</linearGradient>
<linearGradient id="paint3_linear_2937_351" x1="73.7788" y1="20.8995" x2="74.1391" y2="23.8568" gradientUnits="userSpaceOnUse">
<stop stop-color="#7A3991"/>
<stop offset="1" stop-color="#D2288A"/>
</linearGradient>
<linearGradient id="paint4_linear_2937_351" x1="7.75311" y1="40.1078" x2="7.586" y2="42.8141" gradientUnits="userSpaceOnUse">
<stop stop-color="#7A3991"/>
<stop offset="1" stop-color="#D2288A"/>
</linearGradient>
<linearGradient id="paint5_linear_2937_351" x1="17.7788" y1="18.8995" x2="18.1391" y2="21.8568" gradientUnits="userSpaceOnUse">
<stop stop-color="#7A3991"/>
<stop offset="1" stop-color="#D2288A"/>
</linearGradient>
</defs>
</svg>
