<svg width="59" height="51" viewBox="0 0 59 51" fill="none" xmlns="http://www.w3.org/2000/svg">
<path d="M31.5 26.5004V49.0004H45V37H50.5V48H56V35.5C44.4 36.3 45.1667 26.8333 47 22C41.8 22.4 38.8333 21.167 38 20.5004C32 16.9004 28.5 19.0004 27.5 20.5004C30.3 22.1004 31.3333 25.1671 31.5 26.5004Z" stroke="url(#paint0_linear_2934_331)" stroke-width="2.8"/>
<circle cx="17" cy="10" r="8" stroke="url(#paint1_linear_2934_331)" stroke-width="2.8"/>
<circle cx="45" cy="10" r="8" stroke="url(#paint2_linear_2934_331)" stroke-width="2.8"/>
<circle cx="6" cy="27" r="4" stroke="url(#paint3_linear_2934_331)" stroke-width="2.8"/>
<circle cx="53" cy="27" r="4" stroke="url(#paint4_linear_2934_331)" stroke-width="2.8"/>
<path d="M4.5 48.5005H10.5V38H13.5V48.5005H28V27.0005C25.2 20.2005 17.1667 21.5005 13.5 23.0005C18.3 33.4005 9.5 35.6671 4.5 35.5005V48.5005Z" stroke="url(#paint5_linear_2934_331)" stroke-width="2.8"/>
<defs>
<linearGradient id="paint0_linear_2934_331" x1="51.6283" y1="45.951" x2="52.1867" y2="50.2353" gradientUnits="userSpaceOnUse">
<stop stop-color="#7A3991"/>
<stop offset="1" stop-color="#D2288A"/>
</linearGradient>
<linearGradient id="paint1_linear_2934_331" x1="22.5457" y1="16.3996" x2="22.8202" y2="18.6528" gradientUnits="userSpaceOnUse">
<stop stop-color="#7A3991"/>
<stop offset="1" stop-color="#D2288A"/>
</linearGradient>
<linearGradient id="paint2_linear_2934_331" x1="50.5457" y1="16.3996" x2="50.8202" y2="18.6528" gradientUnits="userSpaceOnUse">
<stop stop-color="#7A3991"/>
<stop offset="1" stop-color="#D2288A"/>
</linearGradient>
<linearGradient id="paint3_linear_2934_331" x1="8.77286" y1="30.1998" x2="8.91012" y2="31.3264" gradientUnits="userSpaceOnUse">
<stop stop-color="#7A3991"/>
<stop offset="1" stop-color="#D2288A"/>
</linearGradient>
<linearGradient id="paint4_linear_2934_331" x1="55.7729" y1="30.1998" x2="55.9101" y2="31.3264" gradientUnits="userSpaceOnUse">
<stop stop-color="#7A3991"/>
<stop offset="1" stop-color="#D2288A"/>
</linearGradient>
<linearGradient id="paint5_linear_2934_331" x1="24.3953" y1="45.8299" x2="24.9135" y2="49.5739" gradientUnits="userSpaceOnUse">
<stop stop-color="#7A3991"/>
<stop offset="1" stop-color="#D2288A"/>
</linearGradient>
</defs>
</svg>
