<svg width="20" height="20" viewBox="0 0 20 20" fill="none" xmlns="http://www.w3.org/2000/svg">
<path d="M19.9809 19.603L17.0512 11.8854C17.0269 11.8213 16.9808 11.7678 16.9211 11.7342L13.8006 9.97612L14.7117 8.53159C15.2708 7.64433 15.5664 6.61898 15.5664 5.5664C15.5664 2.49707 13.0693 0 9.99998 0C6.93065 0 4.43358 2.49707 4.43358 5.5664C4.43358 6.61925 4.72928 7.64464 5.28873 8.53167C5.30369 8.55546 6.19955 9.9762 6.19955 9.9762L3.07889 11.7342C3.01917 11.7678 2.97311 11.8213 2.94877 11.8854L0.0190903 19.603C-0.0246988 19.7183 0.00846527 19.8487 0.101942 19.9291C0.195535 20.0096 0.329324 20.0228 0.436785 19.9622L5.14647 17.3089L9.85615 19.9622C9.94541 20.0125 10.0545 20.0125 10.1438 19.9622L14.8534 17.3089L19.5631 19.9622C19.6081 19.9876 19.6576 20 19.7069 20C19.7755 20 19.8436 19.976 19.898 19.9292C19.9916 19.8487 20.0247 19.7183 19.9809 19.603ZM10.293 15.184C10.4763 15.1193 10.6352 14.9947 10.743 14.824C10.7579 14.8005 13.252 10.8461 13.252 10.8461L14.5222 16.823L10.293 19.2056V15.184ZM5.78436 8.21905C5.28401 7.42569 5.01955 6.50843 5.01955 5.56636C5.01955 2.82011 7.25377 0.585898 10 0.585898C12.7463 0.585898 14.9805 2.82011 14.9805 5.56636C14.9805 6.50823 14.7161 7.42558 14.2161 8.21905C14.177 8.28105 10.3167 14.4026 10.2494 14.5083C10.2488 14.5092 10.2482 14.5102 10.2476 14.5111C10.1933 14.597 10.1008 14.6484 10 14.6484C9.8992 14.6484 9.80623 14.5968 9.75181 14.5112C9.71267 14.4492 5.84475 8.3155 5.78569 8.2212C5.78526 8.2205 5.78479 8.2198 5.78436 8.21905ZM3.45889 12.1926L6.18998 10.654L5.7142 12.8924C5.68057 13.0507 5.78158 13.2063 5.93983 13.2399C5.96037 13.2443 5.98088 13.2464 6.00104 13.2464C6.13639 13.2464 6.25803 13.152 6.28729 13.0143L6.74811 10.8463L9.25674 14.8247C9.36498 14.995 9.524 15.1194 9.70697 15.184V19.2057L5.4778 16.823L6.04369 14.1605C6.07733 14.0022 5.97631 13.8467 5.81807 13.813C5.65963 13.7792 5.5042 13.8805 5.47057 14.0387L4.88741 16.7822L0.853972 19.0547L3.45889 12.1926ZM15.1126 16.7823L13.8101 10.654L16.5411 12.1926L19.1461 19.0547L15.1126 16.7823Z" fill="black"/>
<path d="M13.2227 5.56641C13.2227 3.78945 11.777 2.34375 10 2.34375C8.22305 2.34375 6.77734 3.78945 6.77734 5.56641C6.77734 7.34336 8.22305 8.78907 10 8.78907C11.777 8.78907 13.2227 7.34336 13.2227 5.56641ZM7.36328 5.56641C7.36328 4.1125 8.5461 2.92969 10 2.92969C11.4539 2.92969 12.6367 4.1125 12.6367 5.56641C12.6367 7.02032 11.4539 8.20313 10 8.20313C8.5461 8.20313 7.36328 7.02032 7.36328 5.56641Z" fill="black"/>
<path d="M12.0508 5.56641C12.0508 4.43563 11.1308 3.51562 10 3.51562C8.86922 3.51562 7.94922 4.43563 7.94922 5.56641C7.94922 6.69719 8.86922 7.61719 10 7.61719C11.1308 7.61719 12.0508 6.69719 12.0508 5.56641ZM8.53516 5.56641C8.53516 4.75867 9.19227 4.10156 10 4.10156C10.8077 4.10156 11.4648 4.75867 11.4648 5.56641C11.4648 6.37414 10.8077 7.03125 10 7.03125C9.19227 7.03125 8.53516 6.37414 8.53516 5.56641Z" fill="black"/>
</svg>
