<svg width="20" height="21" viewBox="0 0 20 21" fill="none" xmlns="http://www.w3.org/2000/svg">
<path d="M19.6991 2.33279C19.41 1.42337 19.0181 0.772219 19.0014 0.744853C18.9372 0.638933 18.8049 0.583836 18.685 0.611323C18.654 0.618409 17.9139 0.791155 17.0602 1.21752C15.9077 1.79293 15.1026 2.56112 14.7317 3.43866C14.423 4.16947 14.3786 5.06288 14.5977 6.04987C14.1311 5.52883 13.6063 5.07302 13.0342 4.68929C12.8594 4.34417 12.3975 3.49449 11.6754 2.60645C11.4375 2.3141 10.98 2.68097 11.2203 2.97625C11.7069 3.57475 12.0732 4.16336 12.3022 4.56773L9.63128 4.04705L7.09361 0.585668C7.34002 0.589089 7.58729 0.612912 7.83334 0.661168C8.61338 0.813878 9.38389 1.21117 10.1239 1.8418C10.4138 2.08894 10.7903 1.63912 10.5042 1.3954C9.68675 0.698796 8.82607 0.258014 7.94598 0.0856346C6.6025 -0.177271 5.03557 0.167854 3.41416 1.08411C2.20567 1.76703 1.39753 2.51714 1.36381 2.54866C1.25569 2.6497 1.23847 2.83319 1.32899 2.95121C1.4475 3.19432 1.89659 4.07136 2.64413 5.0156C3.08479 5.57232 3.54952 6.04877 4.03025 6.44032C3.89367 6.55479 3.76075 6.67452 3.6321 6.80047C2.94503 7.47252 2.41898 8.26527 2.07361 9.13193C1.76831 9.89768 1.60412 10.7215 1.59495 11.5705C1.5798 12.959 1.9821 14.298 2.7586 15.4432C3.51714 16.5618 4.57756 17.4207 5.82514 17.9268C6.1743 18.0681 6.39505 17.5251 6.04565 17.3834C5.59363 17.2 5.16898 16.9651 4.77731 16.6857C4.8274 16.4079 4.94358 15.4081 4.27947 14.3731C4.1865 14.2283 4.46443 13.6597 4.63034 13.3201C4.80162 12.9701 4.9784 12.6082 5.06098 12.2675C5.1487 11.9055 5.04999 11.6017 4.77572 11.3885C4.57439 11.232 4.31087 11.151 4.07863 11.0795C3.92775 11.0331 3.75672 10.9806 3.69563 10.9296C3.5698 10.8242 3.36431 10.4346 3.19914 10.1217C3.01589 9.77465 2.84143 9.44431 2.66331 9.2409C3.06415 8.28897 3.70797 7.44662 4.51428 6.80218C5.25083 7.30393 6.09147 7.65015 6.985 7.72028C5.94878 8.52316 5.61355 9.54852 6.09269 10.5334C6.65222 11.6835 7.8039 11.4998 8.81997 11.3379C8.99577 11.3098 9.17767 11.2809 9.35189 11.2591C9.41724 11.2509 9.43691 11.2688 9.45011 11.2804C9.67258 11.4783 9.66598 12.4235 9.66121 13.1137C9.65474 14.0685 9.64863 14.9703 10.0043 15.4334C10.1857 15.6694 10.4411 15.7901 10.7406 15.7901C10.92 15.7901 11.115 15.7468 11.3195 15.6591C12.2039 15.2804 13.1232 14.1406 12.983 13.2387C12.8604 12.4503 12.7793 11.9293 12.9705 11.5094C13.1473 11.1208 13.5746 10.761 14.4162 10.3019C14.517 10.7558 14.5678 11.228 14.5626 11.7124C14.5446 13.3658 13.8837 14.9133 12.7017 16.0696C11.3807 17.3619 9.52414 18.0001 7.68759 17.7977C7.31339 17.7571 7.24876 18.3394 7.62345 18.3807C9.63373 18.602 11.6662 17.9032 13.1117 16.4889C14.4059 15.2229 15.1293 13.5289 15.149 11.7186C15.1751 9.31836 13.9436 7.1919 12.0688 5.96692C12.4562 5.6907 12.7447 5.45186 12.9048 5.3132C13.5883 5.80358 14.1946 6.4077 14.6991 7.11151C15.91 8.80146 16.3902 10.8616 16.0516 12.9128C15.3522 17.147 11.3386 20.0232 7.10363 19.3235C5.05231 18.9848 3.25583 17.8677 2.0449 16.1777C0.833847 14.4879 0.353605 12.4275 0.692377 10.3765C0.753216 10.0074 0.174995 9.9105 0.113911 10.2809C-0.250516 12.4867 0.266133 14.7022 1.56808 16.5194C2.87027 18.3364 4.80235 19.5378 7.00809 19.9023C7.4694 19.9784 7.93119 20.016 8.38981 20.016C10.1234 20.016 11.8098 19.4777 13.2468 18.448C15.0643 17.1458 16.2659 15.2141 16.63 13.0083C16.897 11.392 16.6904 9.7705 16.0488 8.30424C16.3449 8.21689 16.8488 8.04732 17.4008 7.77171C18.5531 7.1963 19.3583 6.42811 19.7291 5.55057C20.1002 4.6728 20.0898 3.56009 19.6991 2.33279ZM2.68042 10.3954C2.89861 10.809 3.10495 11.2 3.31935 11.3793C3.47121 11.5063 3.68256 11.5713 3.90625 11.64C4.47934 11.8162 4.54592 11.9027 4.49095 12.1293C4.42351 12.408 4.26078 12.7408 4.10355 13.0624C3.8007 13.6821 3.5147 14.267 3.78579 14.6897C4.17025 15.2888 4.2361 15.8787 4.22951 16.2455C2.48299 14.6707 1.77185 12.1832 2.4224 9.92235C2.50865 10.0702 2.5993 10.2419 2.68042 10.3954ZM16.8672 4.63309L16.0339 2.61366C16.4393 2.23445 16.9098 1.94906 17.3105 1.7481C17.6519 1.57682 17.9766 1.44878 18.237 1.35801L16.8672 4.63309ZM18.7776 1.58537C18.8941 1.83557 19.0291 2.15821 19.1444 2.52289C19.2708 2.92311 19.3869 3.41911 19.41 3.93649L17.4571 4.74219L18.7776 1.58537ZM15.2718 3.66699C15.3583 3.46248 15.4701 3.27287 15.5992 3.09781L16.5478 5.3964L15.6966 7.43196C15.577 7.17822 15.4361 6.84494 15.3166 6.46634C15.0768 5.70829 14.8745 4.60707 15.2718 3.66699ZM17.1504 7.24113C16.8218 7.40606 16.5084 7.53092 16.253 7.62095L17.1364 5.50904L19.3851 4.58117C19.3524 4.83308 19.2902 5.08279 19.189 5.32224C18.7918 6.26232 17.8611 6.88477 17.1504 7.24113ZM6.57709 7.07425C6.47349 7.05397 6.37123 7.02917 6.27044 7.00095L9.51571 4.6221L12.1879 5.1429C11.2145 5.90987 8.8455 7.5187 6.57709 7.07425ZM3.61121 5.23966C2.91718 4.49162 2.40847 3.69179 2.11637 3.17966L5.51691 3.84267L3.61121 5.23966ZM4.21179 1.32747L5.63456 3.26811L2.21202 2.60095C2.64291 2.26071 3.35417 1.74993 4.21179 1.32747ZM6.48289 3.43353L4.758 1.08069C5.27441 0.868487 5.82868 0.701483 6.39689 0.627205L8.78307 3.88176L6.48289 3.43353ZM6.30037 3.99538L8.73237 4.46939L5.6111 6.75723C5.0225 6.4854 4.49278 6.09459 4.02927 5.66016L6.30037 3.99538ZM14.2569 9.72139C13.1998 10.2846 12.6822 10.727 12.4366 11.2666C12.1729 11.846 12.2695 12.468 12.4033 13.3288C12.4823 13.8364 11.8791 14.7816 11.0886 15.1201C10.7962 15.2453 10.5879 15.2306 10.4692 15.076C10.2363 14.7728 10.2426 13.8551 10.2476 13.1178C10.2546 12.0977 10.2607 11.2167 9.83982 10.8423C9.68846 10.7077 9.49482 10.6507 9.27968 10.6771C9.09533 10.7001 8.90829 10.7299 8.72761 10.7587C7.64972 10.9305 6.97144 10.9993 6.62009 10.2769C6.05079 9.10688 7.2032 8.24022 7.7251 7.92198C7.83138 7.85723 7.92997 7.78087 8.0216 7.69584C9.28298 7.54509 10.4749 7.00388 11.537 6.32597C12.8105 7.08684 13.788 8.29092 14.2569 9.72139Z" fill="black"/>
</svg>
