<svg width="42" height="42" viewBox="0 0 42 42" fill="none" xmlns="http://www.w3.org/2000/svg">
<path d="M35.8559 6.14409C27.6621 -2.04803 14.3366 -2.04803 6.14273 6.14409C-2.04758 14.3362 -2.04758 27.6651 6.14273 35.8573C10.2397 39.9525 15.6199 41.9991 21.0002 41.9991C26.3806 41.9991 31.759 39.9524 35.8559 35.8573C44.048 27.6652 44.048 14.3362 35.8559 6.14409ZM29.665 27.1907C30.3495 27.8752 30.3495 28.9818 29.665 29.6663C29.3236 30.0077 28.8754 30.1794 28.4271 30.1794C27.9789 30.1794 27.5307 30.0077 27.1893 29.6663L21.0001 23.4754L14.8127 29.6645C14.4696 30.0059 14.0213 30.1775 13.5749 30.1775C13.1267 30.1775 12.6784 30.0059 12.337 29.6645C11.6525 28.98 11.6525 27.8717 12.337 27.1889L18.5244 20.9998L12.3353 14.8106C11.6508 14.1261 11.6508 13.0178 12.3353 12.335C13.0181 11.6505 14.1264 11.6505 14.8109 12.335L21.0001 18.5241L27.1892 12.335C27.8737 11.6505 28.9803 11.6505 29.6648 12.335C30.3494 13.0178 30.3494 14.1261 29.6648 14.8106L23.4757 20.9998L29.665 27.1907Z" fill="#A81D22"/>
</svg>
