<svg width="102" height="102" viewBox="0 0 102 102" fill="none" xmlns="http://www.w3.org/2000/svg">
<g clip-path="url(#clip0_2268_69)">
<path d="M102 71.3232C102 67.4695 101.265 65.1877 99.6187 63.4722V28.6049C99.6187 24.3076 97.6272 20.1925 94.0109 17.0178C90.5913 14.0157 86.1458 12.2941 81.8138 12.2941H75.8936C71.5616 12.2941 67.1158 14.0159 63.6964 17.0178C60.0802 20.1925 58.0886 24.3076 58.0886 28.6049V46.1565C56.4815 45.1688 54.5919 44.5978 52.571 44.5978H49.4292C45.182 44.5978 41.5146 47.1169 39.836 50.7385L36.6678 49.8715L36.373 46.8848C41.8965 43.9659 45.8245 38.1666 45.8245 33.1573V22.7557C45.8245 14.7588 39.3186 8.25293 31.3218 8.25293H26.8184C23.7347 8.25293 20.7841 9.21874 18.2861 11.0462L20.0504 13.4579C22.0328 12.0076 24.3732 11.2412 26.8182 11.2412H31.3216C37.6707 11.2412 42.836 16.4066 42.836 22.7557V24.3046C35.442 24.4845 29.4007 23.0081 24.8653 19.9068L24.0608 19.3568L23.2331 19.8712C22.7934 20.1443 22.3539 20.424 21.9127 20.7047C19.8031 22.0468 17.6352 23.4248 15.3034 24.1388V22.7559C15.3034 20.0088 16.2985 17.3437 18.105 15.2517L15.8433 13.2985C13.568 15.9332 12.3151 19.2918 12.3151 22.7559V33.1575C12.3151 36.5687 14.1539 40.4495 17.2338 43.5388C18.6192 44.9283 20.1484 46.0559 21.7642 46.9073L21.4716 49.8717L9.85495 53.051C2.39481 55.0922 0 58.2901 0 66.2104V83.8339H30.3287C30.2884 84.3495 30.2683 84.8964 30.2683 85.4825V93.7467H53.802V90.7584H33.2566V85.4825C33.2566 81.2393 34.0654 80.1655 38.3476 78.723L43.7931 76.8886C44.6664 80.049 47.5655 82.3772 51 82.3772C54.4345 82.3772 57.3338 80.049 58.2069 76.8886L63.6524 78.723C67.9344 80.1655 68.7432 81.2393 68.7432 85.4825V90.7584H62.7667V93.7467H71.7315V85.4825C71.7315 84.8964 71.7114 84.3493 71.6711 83.8339H102V71.3232ZM65.6679 19.2634C68.5498 16.7333 72.277 15.2822 75.8936 15.2822H81.8138C85.4304 15.2822 89.1576 16.7333 92.0395 19.2634C95.0001 21.8624 96.6305 25.1799 96.6305 28.6047V61.3009C95.7224 60.8031 94.6901 60.3168 93.5216 59.7972L85.3184 56.1493L84.9164 53.4511C86.2639 52.7295 87.5389 51.7832 88.6958 50.6228C91.329 47.9817 92.9011 44.6558 92.9011 41.7261V32.6192C92.9011 32.6192 90.635 32.6214 90.2443 32.6236C85.1248 32.6518 79.8305 32.6819 75.1007 27.8274L73.9436 26.64L72.8824 27.9138C70.9045 30.2875 68.443 31.8434 65.3573 32.6702L64.2498 32.967V41.7263C64.2498 44.6562 65.8219 47.9819 68.4549 50.623C69.612 51.7834 70.887 52.7299 72.2345 53.4515L71.8323 56.1497C71.8323 56.1497 63.297 59.946 63.14 60.0169V55.1674C63.14 52.8237 62.3722 50.6568 61.0765 48.9023V28.6047C61.0769 25.1799 62.7073 21.8624 65.6679 19.2634ZM78.5755 52.1038C75.7226 52.1038 72.88 50.8286 70.5713 48.513C68.5153 46.4507 67.2381 43.8503 67.2381 41.7261V35.2262C69.9162 34.3422 72.1821 32.9505 74.1084 31.0053C79.2934 35.5666 84.8925 35.6391 89.9128 35.6136V41.7261C89.9128 43.8503 88.6356 46.4507 86.5797 48.5128C84.2709 50.8286 81.4283 52.1038 78.5755 52.1038ZM75.084 54.6048C76.2271 54.9249 77.3979 55.092 78.5755 55.092C79.753 55.092 80.9239 54.9247 82.067 54.6048L82.4118 56.9195L78.5753 64.2428L74.7387 56.9195L75.084 54.6048ZM51 70.7793C45.948 70.7793 41.8481 65.7232 41.8481 62.4235V56.6611H60.1521V62.4235C60.1519 67.036 54.614 70.7793 51 70.7793ZM49.4292 47.5859H52.571C56.2398 47.5859 59.3076 50.2058 60.0035 53.6728H41.9967C42.6924 50.2058 45.7602 47.5859 49.4292 47.5859ZM15.3034 33.1569V27.2373C18.368 26.5 20.9807 24.8391 23.5168 23.2256C23.6801 23.1218 23.8433 23.018 24.0063 22.9144C28.9409 25.9971 35.2639 27.4678 42.8358 27.2939V33.1569C42.8358 35.7553 41.2853 38.9247 38.7891 41.4282C35.9899 44.2358 32.5382 45.782 29.0694 45.782C25.6006 45.782 22.1489 44.2358 19.3497 41.4282C16.8541 38.9247 15.3034 35.7553 15.3034 33.1569ZM29.0696 48.7702C30.5896 48.7702 32.0728 48.5258 33.4887 48.0869L33.7859 51.0981C33.7548 53.6732 31.6517 55.7586 29.0696 55.7586C26.4877 55.7586 24.3846 53.6736 24.3531 51.0989L24.6493 48.0981C26.0931 48.5381 27.5771 48.7702 29.0696 48.7702ZM37.3936 75.8913C33.8082 77.0989 31.8595 78.4797 30.9437 80.8456H2.98828V66.2104C2.98828 59.6338 4.49079 57.6167 10.6441 55.9327L21.5995 52.9343C22.4456 56.271 25.4735 58.7471 29.0696 58.7471C32.6657 58.7471 35.6936 56.271 36.5397 52.9343L38.9763 53.6013C38.9001 54.1125 38.8596 54.635 38.8596 55.1672V62.4237C38.8596 64.9203 40.1918 67.747 42.4228 69.985C43.2074 70.772 44.0566 71.4431 44.9501 71.9936L43.9991 73.6662L37.3936 75.8913ZM51 79.3892C48.648 79.3892 46.7142 77.5709 46.5269 75.2665L47.6752 73.2467C48.7588 73.5885 49.8756 73.7676 51 73.7676C52.1244 73.7676 53.2412 73.5885 54.3248 73.2467L55.4731 75.2665C55.2858 77.5709 53.352 79.3892 51 79.3892ZM99.0117 80.8456H71.0563C70.1405 78.4799 68.1918 77.0989 64.6066 75.8913L58.0007 73.666L57.0497 71.9934C57.9432 71.4429 58.7924 70.7718 59.577 69.9848C61.5389 68.017 62.8047 65.5941 63.0818 63.3403C63.5713 63.1028 72.516 59.1159 72.516 59.1159L78.5755 70.6823L84.6349 59.1159L92.3076 62.5279C97.8274 64.9825 99.0117 66.01 99.0117 71.3232V80.8456Z" fill="black"/>
<path d="M56.7903 90.7588H59.7786V93.7471H56.7903V90.7588Z" fill="black"/>
<path d="M81.8138 19.7646H84.8021V22.7529H81.8138V19.7646Z" fill="black"/>
<path d="M87.7903 22.7529H90.7786V25.7412H87.7903V22.7529Z" fill="black"/>
</g>
<defs>
<clipPath id="clip0_2268_69">
<rect width="102" height="102" fill="white"/>
</clipPath>
</defs>
</svg>
