<svg width="138" height="84" viewBox="0 0 138 84" fill="none" xmlns="http://www.w3.org/2000/svg">
<path d="M114.001 37.2792C129.284 27.1598 122.218 2.98833 103.626 2.9084C85.0338 2.82847 78.0477 27.1598 93.2508 37.2792C88.9588 38.6838 85.019 40.9285 81.6476 43.856C79.7235 45.5268 79.894 45.6951 78.3804 47.7814C79.6027 47.9659 78.9527 43.2178 78.9474 50.3113C78.9474 50.9473 79.1523 50.1959 79.602 50.6456L81.5115 50.3113C81.5115 50.3113 80.5567 52.2363 80.5567 51.6003C80.2899 45.1018 77.8821 54.3011 83.2786 48.9047C88.675 43.5082 95.9942 40.4765 103.626 40.4765C111.258 40.4765 118.577 43.5082 123.973 48.9047C129.37 54.3011 132.402 61.6203 132.402 69.2521C132.402 69.8881 132.654 70.498 133.104 70.9477C133.554 71.3974 134.164 71.6501 134.8 71.6501C135.436 71.6501 136.045 71.3974 136.495 70.9477C136.945 70.498 137.198 69.8881 137.198 69.2521C137.192 62.1586 134.947 55.2479 130.781 49.5063C126.616 43.7647 120.743 39.4854 114.001 37.2792ZM89.6538 21.6765C89.6581 17.9721 91.1315 14.4207 93.7509 11.8013C96.3702 9.18198 99.9216 7.70856 103.626 7.70433C122.138 8.4397 122.138 34.8813 103.626 35.6326C99.9244 35.6284 96.3754 34.1572 93.7565 31.5413C91.1376 28.9253 89.6623 25.378 89.6538 21.6765Z" fill="black" stroke="black" stroke-width="0.6"/>
<path d="M24.1963 35.371C8.91325 25.2516 15.9792 1.08013 34.5715 1.0002C53.1637 0.920264 60.1498 25.2516 44.9467 35.371C49.7105 36.93 54.0405 39.524 57.6408 42.9377C59.1355 44.355 58.9726 45.1434 60.1947 46.8279C58.9724 47.0125 59.2448 41.3096 59.25 48.4031C59.25 49.0391 59.0452 48.2877 58.5955 48.7374L56.686 48.4031C56.686 48.4031 57.6408 50.3281 57.6408 49.6921C57.6408 42.0604 60.3153 52.3929 54.9189 46.9965C49.5224 41.6 42.2032 38.5683 34.5715 38.5683C26.9397 38.5683 19.6205 41.6 14.2241 46.9965C8.82761 52.3929 5.7959 59.7121 5.7959 67.3439C5.7959 67.9799 5.54325 68.5898 5.09355 69.0395C4.64384 69.4892 4.03391 69.7419 3.39793 69.7419C2.76195 69.7419 2.15201 69.4892 1.7023 69.0395C1.2526 68.5898 0.999954 67.9799 0.999954 67.3439C1.00518 60.2504 3.25081 53.3397 7.41636 47.5981C11.5819 41.8565 17.4546 37.5772 24.1963 35.371ZM48.5436 19.7683C48.5394 16.0639 47.066 12.5125 44.4466 9.89315C41.8272 7.27378 38.2758 5.80036 34.5715 5.79613C16.0592 6.5315 16.0592 32.9731 34.5715 33.7244C38.2731 33.7202 41.822 32.249 44.441 29.6331C47.0599 27.0171 48.5352 23.4698 48.5436 19.7683Z" fill="black" stroke="black" stroke-width="0.6"/>
<path d="M75.5744 60.1923C85.571 53.4461 80.9492 37.3317 68.7879 37.2785C56.6267 37.2252 52.0571 53.4461 62.0015 60.1923C57.5917 61.6631 53.7504 64.516 51.0257 68.3437C48.301 72.1715 46.8322 76.7786 46.8287 81.5076C46.8287 81.9316 46.994 82.3382 47.2881 82.638C47.5823 82.9378 47.9813 83.1062 48.3972 83.1062C48.8132 83.1062 49.2122 82.9378 49.5064 82.638C49.8005 82.3382 49.9658 81.9316 49.9658 81.5076C49.9658 76.4197 51.9488 71.5403 55.4787 67.9426C59.0085 64.345 63.796 62.3239 68.7879 62.3239C73.7799 62.3239 78.5674 64.345 82.0972 67.9426C85.6271 71.5403 87.6101 76.4197 87.6101 81.5076C87.6101 81.9316 87.7754 82.3382 88.0695 82.638C88.3637 82.9378 88.7626 83.1062 89.1786 83.1062C89.5946 83.1062 89.9936 82.9378 90.2877 82.638C90.5819 82.3382 90.7471 81.9316 90.7471 81.5076C90.7437 76.7786 89.2749 72.1715 86.5502 68.3437C83.8255 64.516 79.9842 61.6631 75.5744 60.1923ZM59.6487 49.7905C59.6515 47.3209 60.6153 44.9533 62.3286 43.2071C64.0419 41.4608 66.3649 40.4786 68.7879 40.4757C80.8969 40.966 80.8969 58.5937 68.7879 59.0946C66.3667 59.0918 64.0453 58.111 62.3323 56.367C60.6192 54.6231 59.6543 52.2582 59.6487 49.7905Z" fill="black" stroke="black" stroke-width="1.6"/>
</svg>
