<svg width="102" height="102" viewBox="0 0 102 102" fill="none" xmlns="http://www.w3.org/2000/svg">
<path d="M51 22.7109C35.4014 22.7109 22.7109 35.4014 22.7109 51C22.7109 66.5986 35.4014 79.2891 51 79.2891C66.5986 79.2891 79.2891 66.5986 79.2891 51C79.2891 35.4014 66.5986 22.7109 51 22.7109ZM51 75.3047C37.5984 75.3047 26.6953 64.4016 26.6953 51C26.6953 37.5984 37.5984 26.6953 51 26.6953C64.4016 26.6953 75.3047 37.5984 75.3047 51C75.3047 64.4016 64.4016 75.3047 51 75.3047Z" fill="black"/>
<path d="M100.942 0.232688C100.292 -0.112758 99.503 -0.0711209 98.8924 0.341262C89.1123 6.94955 83.2734 17.9416 83.2734 29.7452V55.5942C83.2734 58.3667 84.3532 60.9733 86.3135 62.9338L90.0469 66.6672V96.0234C90.0469 99.3189 92.728 102 96.0234 102C99.3189 102 102 99.3189 102 96.0234V1.99219C102 1.25528 101.593 0.578531 100.942 0.232688ZM98.0156 96.0234C98.0156 97.1219 97.1219 98.0156 96.0234 98.0156C94.9249 98.0156 94.0312 97.1219 94.0312 96.0234V65.8418C94.0312 65.3135 93.8213 64.8069 93.4477 64.4331L89.1309 60.1163C87.923 58.9084 87.2578 57.3025 87.2578 55.5942V29.7452C87.2578 20.5851 91.2185 11.976 98.0156 6.03573V96.0234Z" fill="black"/>
<path d="M46.4295 35.2007C45.9976 34.1888 44.8266 33.7189 43.8149 34.1506C37.0548 37.0365 32.6868 43.6503 32.6868 51.0001C32.6868 52.1002 33.5787 52.9923 34.679 52.9923C35.7792 52.9923 36.6711 52.1002 36.6711 51.0001C36.6711 45.2489 40.0893 40.0734 45.3794 37.8152C46.3912 37.3833 46.8614 36.2127 46.4295 35.2007Z" fill="black"/>
<path d="M51 32.6875L50.8994 32.6877C49.7991 32.6951 48.9132 33.593 48.9206 34.6932C48.9279 35.7889 49.8185 36.6721 50.9126 36.6721C50.917 36.6721 50.9217 36.6721 50.9261 36.6721L51 36.6719C52.1003 36.6719 52.9922 35.78 52.9922 34.6797C52.9922 33.5794 52.1003 32.6875 51 32.6875Z" fill="black"/>
<path d="M78.6163 24.7991C75.0965 21.0904 70.9476 18.1723 66.2849 16.1259C61.4566 14.007 56.314 12.9326 51 12.9326C44.9279 12.9326 39.1234 14.3204 33.7481 17.0576C32.7677 17.5569 32.3775 18.7564 32.8767 19.7369C33.3762 20.7171 34.5756 21.1072 35.5562 20.6081C40.3661 18.1589 45.5622 16.917 51 16.917C60.4422 16.917 69.2236 20.6902 75.7263 27.5419C76.1179 27.9547 76.6443 28.1627 77.1716 28.1627C77.6641 28.1627 78.1573 27.9812 78.5426 27.6154C79.3407 26.858 79.3736 25.5972 78.6163 24.7991Z" fill="black"/>
<path d="M80.5503 71.7936C79.6871 71.1115 78.4344 71.2579 77.7521 72.1209C71.2391 80.3586 61.4883 85.0829 51 85.0829C44.4358 85.0829 38.0634 83.2134 32.5717 79.6765C31.6469 79.0806 30.4138 79.3478 29.8181 80.2725C29.2224 81.1977 29.4894 82.4305 30.4143 83.0261C36.5507 86.9782 43.6692 89.0671 51 89.0671C62.7141 89.0671 73.604 83.7911 80.8775 74.5918C81.5598 73.729 81.4136 72.4761 80.5503 71.7936Z" fill="black"/>
<path d="M27.0854 75.2896L27.0561 75.2559C27.0455 75.2429 27.035 75.2298 27.024 75.217C26.3154 74.3751 25.0587 74.2676 24.217 74.976C23.3753 75.6848 23.2674 76.9413 23.9762 77.7832L23.9955 77.8061L23.9965 77.8053C24.0176 77.832 24.0395 77.8587 24.0622 77.885C24.4563 78.344 25.0137 78.5795 25.5747 78.5795C26.0341 78.5795 26.4957 78.4215 26.8714 78.0989C27.7061 77.3822 27.802 76.1245 27.0854 75.2896Z" fill="black"/>
<path d="M24.7031 0C23.6028 0 22.7109 0.891902 22.7109 1.99219V23.5078H19.1234C19.1236 23.4967 19.125 23.4859 19.125 23.4745V1.99219C19.125 0.891902 18.2331 0 17.1328 0C16.0325 0 15.1406 0.891902 15.1406 1.99219V23.4745C15.1406 23.4857 15.1422 23.4967 15.1422 23.5078H11.5531C11.5533 23.4967 11.5547 23.4859 11.5547 23.4745V1.99219C11.5547 0.891902 10.6628 0 9.5625 0C8.46221 0 7.57031 0.891902 7.57031 1.99219V23.4745C7.57031 23.4857 7.57191 23.4967 7.57191 23.5078H3.98438V1.99219C3.98438 0.891902 3.09247 0 1.99219 0C0.891902 0 0 0.891902 0 1.99219V26.2969C0 31.1837 2.96517 35.5942 7.37109 37.5007V96.0234C7.37109 99.3189 10.0522 102 13.3477 102C16.6431 102 19.3242 99.3189 19.3242 96.0234V37.5007C23.7301 35.5942 26.6953 31.1837 26.6953 26.2969V1.99219C26.6953 0.891902 25.8034 0 24.7031 0ZM16.779 34.1899C15.9267 34.4362 15.3398 35.2165 15.3398 36.1038V96.0234C15.3398 97.1219 14.4461 98.0156 13.3477 98.0156C12.2492 98.0156 11.3555 97.1219 11.3555 96.0234V36.1038C11.3555 35.2165 10.7688 34.4362 9.91631 34.1899C6.81189 33.2928 4.54119 30.6281 4.07442 27.4922H22.6207C22.1541 30.6281 19.8834 33.2928 16.779 34.1899Z" fill="black"/>
</svg>
