<svg width="102" height="102" viewBox="0 0 102 102" fill="none" xmlns="http://www.w3.org/2000/svg">
<g clip-path="url(#clip0_3001_2414)">
<path d="M51 22.7109C35.4014 22.7109 22.7109 35.4014 22.7109 51C22.7109 66.5986 35.4014 79.2891 51 79.2891C66.5986 79.2891 79.2891 66.5986 79.2891 51C79.2891 35.4014 66.5986 22.7109 51 22.7109ZM51 75.3047C37.5984 75.3047 26.6953 64.4016 26.6953 51C26.6953 37.5984 37.5984 26.6953 51 26.6953C64.4016 26.6953 75.3047 37.5984 75.3047 51C75.3047 64.4016 64.4016 75.3047 51 75.3047Z" fill="url(#paint0_linear_3001_2414)"/>
<path d="M100.942 0.232688C100.292 -0.112758 99.503 -0.0711208 98.8924 0.341262C89.1123 6.94955 83.2734 17.9416 83.2734 29.7452V55.5942C83.2734 58.3667 84.3532 60.9733 86.3135 62.9338L90.0469 66.6672V96.0234C90.0469 99.3189 92.728 102 96.0234 102C99.3189 102 102 99.3189 102 96.0234V1.99219C102 1.25528 101.593 0.578531 100.942 0.232688ZM98.0156 96.0234C98.0156 97.1219 97.1219 98.0156 96.0234 98.0156C94.9249 98.0156 94.0312 97.1219 94.0312 96.0234V65.8418C94.0312 65.3135 93.8213 64.8069 93.4477 64.4331L89.1309 60.1163C87.923 58.9084 87.2578 57.3025 87.2578 55.5942V29.7452C87.2578 20.5851 91.2185 11.976 98.0156 6.03573V96.0234Z" fill="url(#paint1_linear_3001_2414)"/>
<path d="M46.4297 35.2007C45.9978 34.1888 44.8268 33.7189 43.8151 34.1506C37.055 37.0365 32.687 43.6503 32.687 51.0001C32.687 52.1002 33.5789 52.9923 34.6792 52.9923C35.7794 52.9923 36.6713 52.1002 36.6713 51.0001C36.6713 45.2489 40.0895 40.0734 45.3796 37.8152C46.3914 37.3833 46.8616 36.2127 46.4297 35.2007Z" fill="url(#paint2_linear_3001_2414)"/>
<path d="M50.9999 32.6875L50.8993 32.6877C49.799 32.6951 48.9131 33.593 48.9205 34.6932C48.9278 35.7889 49.8184 36.6721 50.9125 36.6721C50.9169 36.6721 50.9216 36.6721 50.926 36.6721L50.9999 36.6719C52.1002 36.6719 52.9921 35.78 52.9921 34.6797C52.9921 33.5794 52.1002 32.6875 50.9999 32.6875Z" fill="url(#paint3_linear_3001_2414)"/>
<path d="M78.6165 24.7991C75.0967 21.0904 70.9478 18.1723 66.2851 16.1259C61.4568 14.007 56.3142 12.9326 51.0002 12.9326C44.9281 12.9326 39.1236 14.3204 33.7483 17.0576C32.7679 17.5569 32.3777 18.7564 32.8769 19.7369C33.3764 20.7171 34.5758 21.1072 35.5564 20.6081C40.3663 18.1589 45.5624 16.917 51.0002 16.917C60.4424 16.917 69.2238 20.6902 75.7265 27.5419C76.1181 27.9547 76.6445 28.1627 77.1718 28.1627C77.6643 28.1627 78.1575 27.9812 78.5428 27.6154C79.3409 26.858 79.3738 25.5972 78.6165 24.7991Z" fill="url(#paint4_linear_3001_2414)"/>
<path d="M80.5502 71.7936C79.687 71.1115 78.4343 71.2579 77.752 72.1209C71.239 80.3586 61.4882 85.0829 50.9999 85.0829C44.4357 85.0829 38.0633 83.2134 32.5716 79.6765C31.6468 79.0806 30.4137 79.3478 29.818 80.2725C29.2223 81.1977 29.4893 82.4305 30.4142 83.0261C36.5506 86.9782 43.6691 89.0671 50.9999 89.0671C62.714 89.0671 73.6039 83.7911 80.8774 74.5918C81.5597 73.729 81.4135 72.4761 80.5502 71.7936Z" fill="url(#paint5_linear_3001_2414)"/>
<path d="M27.0854 75.2896L27.0561 75.2559C27.0455 75.2429 27.035 75.2298 27.024 75.217C26.3154 74.3751 25.0587 74.2676 24.217 74.976C23.3753 75.6848 23.2674 76.9413 23.9762 77.7832L23.9955 77.8061L23.9965 77.8053C24.0176 77.832 24.0395 77.8587 24.0622 77.885C24.4563 78.344 25.0137 78.5795 25.5747 78.5795C26.0341 78.5795 26.4957 78.4215 26.8714 78.0989C27.7061 77.3822 27.802 76.1245 27.0854 75.2896Z" fill="url(#paint6_linear_3001_2414)"/>
<path d="M24.7031 0C23.6028 0 22.7109 0.891902 22.7109 1.99219V23.5078H19.1234C19.1236 23.4967 19.125 23.4859 19.125 23.4745V1.99219C19.125 0.891902 18.2331 0 17.1328 0C16.0325 0 15.1406 0.891902 15.1406 1.99219V23.4745C15.1406 23.4857 15.1422 23.4967 15.1422 23.5078H11.5531C11.5533 23.4967 11.5547 23.4859 11.5547 23.4745V1.99219C11.5547 0.891902 10.6628 0 9.5625 0C8.46221 0 7.57031 0.891902 7.57031 1.99219V23.4745C7.57031 23.4857 7.57191 23.4967 7.57191 23.5078H3.98438V1.99219C3.98438 0.891902 3.09247 0 1.99219 0C0.891902 0 0 0.891902 0 1.99219V26.2969C0 31.1837 2.96517 35.5942 7.37109 37.5007V96.0234C7.37109 99.3189 10.0522 102 13.3477 102C16.6431 102 19.3242 99.3189 19.3242 96.0234V37.5007C23.7301 35.5942 26.6953 31.1837 26.6953 26.2969V1.99219C26.6953 0.891902 25.8034 0 24.7031 0ZM16.779 34.1899C15.9267 34.4362 15.3398 35.2165 15.3398 36.1038V96.0234C15.3398 97.1219 14.4461 98.0156 13.3477 98.0156C12.2492 98.0156 11.3555 97.1219 11.3555 96.0234V36.1038C11.3555 35.2165 10.7688 34.4362 9.91631 34.1899C6.81189 33.2928 4.54119 30.6281 4.07442 27.4922H22.6207C22.1541 30.6281 19.8834 33.2928 16.779 34.1899Z" fill="url(#paint7_linear_3001_2414)"/>
</g>
<defs>
<linearGradient id="paint0_linear_3001_2414" x1="51" y1="22.7109" x2="51" y2="79.2891" gradientUnits="userSpaceOnUse">
<stop stop-color="#7A3991"/>
<stop offset="1" stop-color="#D2288A"/>
</linearGradient>
<linearGradient id="paint1_linear_3001_2414" x1="92.6367" y1="0" x2="92.6367" y2="102" gradientUnits="userSpaceOnUse">
<stop stop-color="#7A3991"/>
<stop offset="1" stop-color="#D2288A"/>
</linearGradient>
<linearGradient id="paint2_linear_3001_2414" x1="39.6386" y1="33.9902" x2="39.6386" y2="52.9923" gradientUnits="userSpaceOnUse">
<stop stop-color="#7A3991"/>
<stop offset="1" stop-color="#D2288A"/>
</linearGradient>
<linearGradient id="paint3_linear_3001_2414" x1="50.9562" y1="32.6875" x2="50.9562" y2="36.6721" gradientUnits="userSpaceOnUse">
<stop stop-color="#7A3991"/>
<stop offset="1" stop-color="#D2288A"/>
</linearGradient>
<linearGradient id="paint4_linear_3001_2414" x1="55.9117" y1="12.9326" x2="55.9117" y2="28.1627" gradientUnits="userSpaceOnUse">
<stop stop-color="#7A3991"/>
<stop offset="1" stop-color="#D2288A"/>
</linearGradient>
<linearGradient id="paint5_linear_3001_2414" x1="55.4037" y1="71.3643" x2="55.4037" y2="89.0671" gradientUnits="userSpaceOnUse">
<stop stop-color="#7A3991"/>
<stop offset="1" stop-color="#D2288A"/>
</linearGradient>
<linearGradient id="paint6_linear_3001_2414" x1="25.5369" y1="74.5078" x2="25.5369" y2="78.5795" gradientUnits="userSpaceOnUse">
<stop stop-color="#7A3991"/>
<stop offset="1" stop-color="#D2288A"/>
</linearGradient>
<linearGradient id="paint7_linear_3001_2414" x1="13.3476" y1="0" x2="13.3476" y2="102" gradientUnits="userSpaceOnUse">
<stop stop-color="#7A3991"/>
<stop offset="1" stop-color="#D2288A"/>
</linearGradient>
<clipPath id="clip0_3001_2414">
<rect width="102" height="102" fill="white"/>
</clipPath>
</defs>
</svg>
