<svg width="38" height="38" viewBox="0 0 38 38" fill="none" xmlns="http://www.w3.org/2000/svg">
<g clip-path="url(#clip0_2959_4697)">
<path d="M20.0428 9.17109L37.5703 26.7472C38.1442 27.3231 38.1432 28.2554 37.5673 28.8303C36.9915 29.4047 36.0586 29.4033 35.4842 28.8273L18.9999 12.2974L2.51572 28.8279C1.94127 29.4038 1.00901 29.4053 0.433075 28.8309C0.144365 28.5427 8.3452e-06 28.1651 8.3452e-06 27.7876C8.3452e-06 27.411 0.143399 27.0349 0.430105 26.7473L17.9572 9.17109C18.2331 8.89373 18.6087 8.73809 18.9999 8.73809C19.3912 8.73809 19.7663 8.89418 20.0428 9.17109Z" fill="#CC338F"/>
</g>
<defs>
<clipPath id="clip0_2959_4697">
<rect width="38" height="38" fill="white" transform="matrix(0 1 1 0 0 0)"/>
</clipPath>
</defs>
</svg>
