<svg width="102" height="59" viewBox="0 0 102 59" fill="none" xmlns="http://www.w3.org/2000/svg">
<path d="M95.7366 19.2278H94.1721V14.9735C94.1721 10.0677 90.1809 6.07677 85.2752 6.07677H83.0561C82.1144 2.58088 78.9181 0 75.1288 0C70.6017 0 66.9188 3.68276 66.9188 8.2098V21.7959H35.081V8.2098C35.081 3.68276 31.3981 0 26.8712 0C23.0821 0 19.8858 2.58088 18.9441 6.07677H16.7248C11.8191 6.07677 7.8279 10.0677 7.8279 14.9735V19.2278H6.26344C2.80978 19.2278 0 22.0378 0 25.4912V32.5852C0 36.0389 2.80978 38.8485 6.26344 38.8485H7.8281V43.1255C7.8281 48.0312 11.8193 52.0222 16.725 52.0222H18.9443C19.886 55.5181 23.0823 58.099 26.8714 58.099C31.3985 58.099 35.0812 54.4162 35.0812 49.8892V36.303H62.374C63.1994 36.303 63.8681 35.6343 63.8681 34.8089C63.8681 33.9835 63.1994 33.3148 62.374 33.3148H35.081V24.784H66.9188V49.8894C66.9188 54.4164 70.6017 58.0992 75.1288 58.0992C78.9181 58.0992 82.1144 55.5183 83.0561 52.0224H85.2752C90.1809 52.0224 94.1721 48.0314 94.1721 43.1257V38.8487H95.7366C99.1902 38.8487 102 36.0391 102 32.5854V25.4914C102 22.0376 99.1902 19.2278 95.7366 19.2278ZM7.8281 35.8606H6.26344V35.8604C4.45752 35.8604 2.98828 34.3911 2.98828 32.5854V25.4914C2.98828 23.6855 4.45752 22.2163 6.26344 22.2163H7.8281V35.8606ZM32.0927 49.8894C32.0927 52.7685 29.7503 55.1109 26.8712 55.1109C23.9919 55.1109 21.6497 52.7685 21.6497 49.8894V19.7428C21.6497 18.9174 20.9807 18.2486 20.1556 18.2486C19.3304 18.2486 18.6614 18.9174 18.6614 19.7428V49.0343H16.725C13.467 49.0343 10.8164 46.3837 10.8164 43.1259V14.9733C10.8164 11.7153 13.467 9.06485 16.725 9.06485H18.6614V13.1233C18.6614 13.9487 19.3304 14.6175 20.1556 14.6175C20.9807 14.6175 21.6497 13.9487 21.6497 13.1233V8.20961C21.6497 5.3305 23.9921 2.98808 26.8712 2.98808C29.7505 2.98808 32.0927 5.3305 32.0927 8.20961V49.8894ZM80.3505 49.8894C80.3505 52.7685 78.0081 55.1109 75.1288 55.1109C72.2495 55.1109 69.9071 52.7685 69.9071 49.8894V8.20961C69.9071 5.3305 72.2495 2.98808 75.1288 2.98808C78.0081 2.98808 80.3505 5.3305 80.3505 8.20961V49.8894ZM91.1838 43.1257C91.1838 46.3835 88.5332 49.0341 85.2752 49.0341H83.3388V9.06485H85.2752C88.5332 9.06485 91.1838 11.7155 91.1838 14.9733V43.1257ZM99.0117 32.5854C99.0117 34.3911 97.5425 35.8604 95.7366 35.8604H94.1721V22.2161H95.7366C97.5425 22.2161 99.0117 23.6853 99.0117 25.4912V32.5854Z" fill="black"/>
</svg>
