<svg width="47" height="45" viewBox="0 0 47 45" fill="none" xmlns="http://www.w3.org/2000/svg">
<g clip-path="url(#clip0_787_12447)">
<path fill-rule="evenodd" clip-rule="evenodd" d="M46.5002 44.4001C46.3669 44.5334 46.2002 44.6 46.0002 44.6C45.7335 44.6 45.5335 44.5334 45.4002 44.4001L39.7002 39.2001L37.1002 44.1L31.7002 30.8L46.3002 35.7001L40.9002 38.2001L46.5002 43.3C46.9002 43.6 46.9002 44.1001 46.5002 44.4001ZM37.3002 40.3L38.9002 37.4001L42.1002 35.9001L34.5002 33.4001L37.3002 40.3Z" fill="#653D93"/>
<path fill-rule="evenodd" clip-rule="evenodd" d="M37.1998 24.2H29.7998V31H22.2998V37.8H5.7998V15.9H37.1998V24.2ZM22.2998 22.7H28.0998V17.4H22.2998V22.7ZM14.8998 22.7H20.6998V17.4H14.8998V22.7ZM20.6998 24.2H14.8998V29.5H20.6998V24.2ZM7.3998 22.7H13.1998V17.4H7.3998V22.7ZM7.3998 29.5H13.1998V24.2H7.3998V29.5ZM13.1998 31H7.3998V36.3H13.1998V31ZM20.6998 31H14.8998V36.3H20.6998V31ZM28.0998 24.2H22.2998V29.5H28.0998V24.2ZM35.5998 17.4H29.7998V22.7H35.5998V17.4Z" fill="#653D93"/>
<path fill-rule="evenodd" clip-rule="evenodd" d="M28.1 42.3C28.1 42.8 27.8 43.1 27.3 43.1H0.8C0.4 43.1 0 42.8 0 42.3V3.8C0 3.4 0.4 3 0.8 3H5V0.8C5 0.3 5.3 0 5.8 0H11.6C12 0 12.4 0.3 12.4 0.8V3H30.6V0.8C30.6 0.3 31 0 31.4 0H37.2C37.7 0 38 0.3 38 0.8V3H42.2C42.6 3 43 3.4 43 3.8V27.2C43 27.6 42.6 28 42.2 28C41.7 28 41.4 27.6 41.4 27.2V12.1H1.7V41.6H27.3C27.8 41.6 28.1 41.9 28.1 42.3ZM32.3 6H36.4V1.5H32.3V6ZM6.6 6H10.8V1.5H6.6V6ZM1.7 10.5H41.4V4.5H38V6.7C38 7.1 37.7 7.5 37.2 7.5H31.4C31 7.5 30.6 7.1 30.6 6.7V4.5H12.4V6.7C12.4 7.1 12 7.5 11.6 7.5H5.8C5.3 7.5 5 7.1 5 6.7V4.5H1.7V10.5Z" fill="#653D93"/>
<path fill-rule="evenodd" clip-rule="evenodd" d="M28.1 42.3C28.1 42.8 27.8 43.1 27.3 43.1H0.8C0.4 43.1 0 42.8 0 42.3V3.8C0 3.4 0.4 3 0.8 3H5V0.8C5 0.3 5.3 0 5.8 0H11.6C12 0 12.4 0.3 12.4 0.8V3H30.6V0.8C30.6 0.3 31 0 31.4 0H37.2C37.7 0 38 0.3 38 0.8V3H42.2C42.6 3 43 3.4 43 3.8V27.2C43 27.6 42.6 28 42.2 28C41.7 28 41.4 27.6 41.4 27.2V12.1H1.7V41.6H27.3C27.8 41.6 28.1 41.9 28.1 42.3ZM32.3 6H36.4V1.5H32.3V6ZM6.6 6H10.8V1.5H6.6V6ZM1.7 10.5H41.4V4.5H38V6.7C38 7.1 37.7 7.5 37.2 7.5H31.4C31 7.5 30.6 7.1 30.6 6.7V4.5H12.4V6.7C12.4 7.1 12 7.5 11.6 7.5H5.8C5.3 7.5 5 7.1 5 6.7V4.5H1.7V10.5Z" fill="#653D93"/>
<path d="M14 23H21V30H14V23Z" fill="#2F243C"/>
<path d="M29 16H36V23H29V16Z" fill="#2F243C"/>
</g>
<defs>
<clipPath id="clip0_787_12447">
<rect width="47" height="45" fill="white"/>
</clipPath>
</defs>
</svg>
