<svg width="114" height="114" viewBox="0 0 114 114" fill="none" xmlns="http://www.w3.org/2000/svg">
<path d="M25.2648 68.8934L21.2966 83.7072L6.79301 84.014C2.45857 75.9745 0 66.7764 0 57.0018C0 47.5498 2.2987 38.6365 6.3733 30.7881H6.37642L19.2887 33.1554L24.945 45.9901C23.7612 49.4415 23.1159 53.1465 23.1159 57.0018C23.1164 61.186 23.8743 65.1949 25.2648 68.8934Z" fill="#FBBB00"/>
<path d="M113.004 46.3496C113.659 49.7977 114 53.3586 114 56.9979C114 61.0787 113.571 65.0594 112.754 68.8991C109.979 81.9652 102.729 93.3745 92.6849 101.448L92.6818 101.445L76.4181 100.616L74.1163 86.2464C80.7809 82.3379 85.9892 76.2213 88.7328 68.8991H58.2534V46.3496H89.1774H113.004Z" fill="#518EF8"/>
<path d="M92.6812 101.448L92.6843 101.451C82.9161 109.303 70.5075 114.001 56.9999 114.001C35.2929 114.001 16.4204 101.868 6.79297 84.0131L25.2647 68.8926C30.0783 81.7394 42.4711 90.8845 56.9999 90.8845C63.2447 90.8845 69.0952 89.1963 74.1154 86.2493L92.6812 101.448Z" fill="#28B446"/>
<path d="M93.382 13.1224L74.9165 28.2399C69.7209 24.9922 63.5791 23.1161 56.9992 23.1161C42.1416 23.1161 29.517 32.6808 24.9445 45.9882L6.37568 30.7862H6.37256C15.859 12.4961 34.9696 0 56.9992 0C70.8295 0 83.5104 4.92648 93.382 13.1224Z" fill="#F14336"/>
</svg>
