<svg width="49" height="42" viewBox="0 0 49 42" fill="none" xmlns="http://www.w3.org/2000/svg">
<path d="M2.2041 22.3096L2.44353 38.5909C2.36372 39.4689 2.73085 41.1768 4.83785 40.9853C6.94485 40.9853 32.2129 40.9853 44.5836 40.9853C45.3019 40.9853 46.7863 40.5064 46.9779 38.5909C46.9779 36.4839 46.9779 26.2203 46.9779 22.3096" stroke="url(#paint0_linear_2937_352)" stroke-width="2"/>
<path d="M20.6406 24.4648L3.64087 20.6339C2.44372 20.3943 1.00712 20.0593 1.00712 17.7607C1.00712 15.4622 1.00712 12.174 1.00712 10.8172C0.927306 10.0989 1.48598 8.71019 4.35916 8.90174C7.23235 8.90174 32.5323 8.90174 44.8232 8.90174C45.7011 8.9018 47.5048 9.28497 47.6964 10.8172C47.6964 12.541 47.6964 16.1644 47.6964 17.7607C47.6964 18.9577 46.9781 20.2472 45.3021 20.6339C42.812 21.2084 32.7718 23.4272 28.0629 24.4648" stroke="url(#paint1_linear_2937_352)" stroke-width="2"/>
<path d="M16.5706 4.83091V2.91546C16.4907 2.35678 16.81 1.19155 18.7254 1C20.6409 1 27.1854 1 30.2182 1C31.0961 1.07981 32.7083 1.95773 32.1336 4.83091" stroke="url(#paint2_linear_2937_352)" stroke-width="2"/>
<rect x="21.1611" y="23.0703" width="6.14069" height="5.18296" stroke="url(#paint3_linear_2937_352)" stroke-width="2"/>
<defs>
<linearGradient id="paint0_linear_2937_352" x1="24.591" y1="22.3096" x2="24.591" y2="41.0001" gradientUnits="userSpaceOnUse">
<stop stop-color="#7D3890"/>
<stop offset="1" stop-color="#C92A8A"/>
</linearGradient>
<linearGradient id="paint1_linear_2937_352" x1="24.3482" y1="8.88379" x2="24.3482" y2="24.4648" gradientUnits="userSpaceOnUse">
<stop stop-color="#7D3890"/>
<stop offset="1" stop-color="#C92A8A"/>
</linearGradient>
<linearGradient id="paint2_linear_2937_352" x1="24.4071" y1="1" x2="24.4071" y2="4.83091" gradientUnits="userSpaceOnUse">
<stop stop-color="#7D3890"/>
<stop offset="1" stop-color="#C92A8A"/>
</linearGradient>
<linearGradient id="paint3_linear_2937_352" x1="24.2315" y1="22.0703" x2="24.2315" y2="29.2533" gradientUnits="userSpaceOnUse">
<stop stop-color="#7D3890"/>
<stop offset="1" stop-color="#C92A8A"/>
</linearGradient>
</defs>
</svg>
