<svg width="40" height="22" viewBox="0 0 40 22" fill="none" xmlns="http://www.w3.org/2000/svg">
<path d="M4.55727 0C5.56702 0 6.38911 0.822096 6.38911 1.83184C6.38911 2.84159 5.56702 3.66369 4.55727 3.66369C3.54752 3.66369 2.72543 2.84159 2.72543 1.83184C2.72543 0.822096 3.54752 0 4.55727 0ZM6.86271 4.13729H2.28757C1.01868 4.13729 0 5.15597 0 6.42486V12.0187C0 12.4565 0.348497 12.8229 0.804224 12.8229C1.25995 12.8229 1.60845 12.4744 1.60845 12.0187V6.88058C1.60845 6.75548 1.71568 6.64825 1.84078 6.64825C1.96588 6.64825 2.07311 6.75548 2.07311 6.88058V20.749C2.07311 21.437 2.58245 22 3.2169 22C3.85134 22 4.36068 21.437 4.36068 20.749V12.8408C4.36068 12.7157 4.46791 12.6084 4.59301 12.6084C4.71812 12.6084 4.82535 12.7157 4.82535 12.8408V20.749C4.82535 21.437 5.33469 22 5.96913 22C6.60357 22 7.11292 21.437 7.11292 20.749V6.88058C7.11292 6.75548 7.22015 6.64825 7.34525 6.64825C7.47035 6.64825 7.57758 6.75548 7.57758 6.88058V12.0276C7.57758 12.4655 7.92608 12.8318 8.3818 12.8318C8.83753 12.8318 9.18603 12.4833 9.18603 12.0276V6.42486C9.15028 5.15597 8.10479 4.13729 6.86271 4.13729Z" fill="#653D93"/>
<path d="M14.9748 0C15.9845 0 16.8066 0.822096 16.8066 1.83184C16.8066 2.84159 15.9845 3.66369 14.9748 3.66369C13.965 3.66369 13.1429 2.84159 13.1429 1.83184C13.1429 0.822096 13.965 0 14.9748 0ZM17.2802 4.13729H12.7051C11.4362 4.13729 10.4175 5.15597 10.4175 6.42486V12.0187C10.4175 12.4565 10.766 12.8229 11.2217 12.8229C11.6774 12.8229 12.0259 12.4744 12.0259 12.0187V6.88058C12.0259 6.75548 12.1332 6.64825 12.2583 6.64825C12.3834 6.64825 12.4906 6.75548 12.4906 6.88058V20.749C12.4906 21.437 12.9999 22 13.6344 22C14.2688 22 14.7782 21.437 14.7782 20.749V12.8408C14.7782 12.7157 14.8854 12.6084 15.0105 12.6084C15.1356 12.6084 15.2428 12.7157 15.2428 12.8408V20.749C15.2428 21.437 15.7522 22 16.3866 22C17.0211 22 17.5304 21.437 17.5304 20.749V6.88058C17.5304 6.75548 17.6376 6.64825 17.7627 6.64825C17.8878 6.64825 17.9951 6.75548 17.9951 6.88058V12.0276C17.9951 12.4655 18.3436 12.8318 18.7993 12.8318C19.255 12.8318 19.6035 12.4833 19.6035 12.0276V6.42486C19.5678 5.15597 18.5223 4.13729 17.2802 4.13729Z" fill="#653D93"/>
<path d="M24.9748 0C25.9845 0 26.8066 0.822096 26.8066 1.83184C26.8066 2.84159 25.9845 3.66369 24.9748 3.66369C23.965 3.66369 23.1429 2.84159 23.1429 1.83184C23.1429 0.822096 23.965 0 24.9748 0ZM27.2802 4.13729H22.7051C21.4362 4.13729 20.4175 5.15597 20.4175 6.42486V12.0187C20.4175 12.4565 20.766 12.8229 21.2217 12.8229C21.6774 12.8229 22.0259 12.4744 22.0259 12.0187V6.88058C22.0259 6.75548 22.1332 6.64825 22.2583 6.64825C22.3834 6.64825 22.4906 6.75548 22.4906 6.88058V20.749C22.4906 21.437 22.9999 22 23.6344 22C24.2688 22 24.7782 21.437 24.7782 20.749V12.8408C24.7782 12.7157 24.8854 12.6084 25.0105 12.6084C25.1356 12.6084 25.2428 12.7157 25.2428 12.8408V20.749C25.2428 21.437 25.7522 22 26.3866 22C27.0211 22 27.5304 21.437 27.5304 20.749V6.88058C27.5304 6.75548 27.6376 6.64825 27.7627 6.64825C27.8878 6.64825 27.9951 6.75548 27.9951 6.88058V12.0276C27.9951 12.4655 28.3436 12.8318 28.7993 12.8318C29.255 12.8318 29.6035 12.4833 29.6035 12.0276V6.42486C29.5678 5.15597 28.5223 4.13729 27.2802 4.13729Z" fill="#653D93"/>
<path d="M34.9748 0C35.9845 0 36.8066 0.822096 36.8066 1.83184C36.8066 2.84159 35.9845 3.66369 34.9748 3.66369C33.965 3.66369 33.1429 2.84159 33.1429 1.83184C33.1429 0.822096 33.965 0 34.9748 0ZM37.2802 4.13729H32.7051C31.4362 4.13729 30.4175 5.15597 30.4175 6.42486V12.0187C30.4175 12.4565 30.766 12.8229 31.2217 12.8229C31.6774 12.8229 32.0259 12.4744 32.0259 12.0187V6.88058C32.0259 6.75548 32.1332 6.64825 32.2583 6.64825C32.3834 6.64825 32.4906 6.75548 32.4906 6.88058V20.749C32.4906 21.437 32.9999 22 33.6344 22C34.2688 22 34.7782 21.437 34.7782 20.749V12.8408C34.7782 12.7157 34.8854 12.6084 35.0105 12.6084C35.1356 12.6084 35.2428 12.7157 35.2428 12.8408V20.749C35.2428 21.437 35.7522 22 36.3866 22C37.0211 22 37.5304 21.437 37.5304 20.749V6.88058C37.5304 6.75548 37.6376 6.64825 37.7627 6.64825C37.8878 6.64825 37.9951 6.75548 37.9951 6.88058V12.0276C37.9951 12.4655 38.3436 12.8318 38.7993 12.8318C39.255 12.8318 39.6035 12.4833 39.6035 12.0276V6.42486C39.5678 5.15597 38.5223 4.13729 37.2802 4.13729Z" fill="#653D93"/>
</svg>
