<svg width="185" height="159" viewBox="0 0 185 159" fill="none" xmlns="http://www.w3.org/2000/svg">
<path d="M153.379 86.6406C150.377 86.6406 147.944 89.0741 147.944 92.0756V147.921H117.963V92.0756C117.963 89.0741 115.53 86.6406 112.527 86.6406H71.6714C68.6691 86.6406 66.2364 89.0741 66.2364 92.0756V147.921H36.2517V92.0756C36.2517 89.0741 33.819 86.6406 30.8167 86.6406C27.8144 86.6406 25.3817 89.0741 25.3817 92.0756V153.356C25.3817 156.358 27.8144 158.791 30.8167 158.791H71.6714H112.527H153.379C156.382 158.791 158.814 156.358 158.814 153.356V92.0756C158.814 89.0741 156.381 86.6406 153.379 86.6406ZM77.1064 147.921V97.5106H107.092V147.921H77.1064Z" fill="black"/>
<path d="M182.605 88.2519L95.938 1.59164C93.8161 -0.530911 90.3747 -0.530186 88.2514 1.59164L1.59192 88.2519C-0.530639 90.3745 -0.530639 93.8159 1.59192 95.9377C3.71519 98.0603 7.15592 98.0603 9.27847 95.9377L92.095 13.1211L174.92 95.9385C175.98 96.9994 177.372 97.5298 178.762 97.5298C180.153 97.5298 181.544 96.9994 182.606 95.9377C184.728 93.8159 184.728 90.3745 182.605 88.2519Z" fill="black"/>
</svg>
