<svg width="102" height="102" viewBox="0 0 102 102" fill="none" xmlns="http://www.w3.org/2000/svg">
<path d="M100.837 29.433C101.943 26.8609 102.268 24.0047 101.778 21.1728C101.776 21.1622 101.772 21.1523 101.77 21.1419C101.77 21.1393 101.77 21.1369 101.77 21.1344C101.606 20.1986 101.354 19.2774 101.023 18.3967L100.714 17.5767C100.706 17.5558 100.698 17.5351 100.689 17.5145C95.9702 6.5049 84.0234 0.459997 72.2835 3.14149C71.5085 3.31859 70.7369 3.51004 69.9685 3.71145C63.8987 1.2509 57.4785 0 50.8754 0C40.5263 0 30.5664 3.08909 22.0723 8.93318C13.7768 14.6404 7.41175 22.5759 3.66463 31.8818C3.35764 32.6444 3.72679 33.5116 4.4894 33.8186C5.25221 34.1254 6.11901 33.7567 6.42621 32.9939C7.39621 30.5849 8.55387 28.2742 9.88306 26.077C14.6028 27.1964 19.6408 28.1222 24.9125 28.8324L21.0774 44.2294C20.9166 44.8757 21.112 45.567 21.5874 46.0336C21.6408 46.0859 21.6979 46.1338 21.7565 46.1788C21.7742 46.1923 21.7924 46.2049 21.8103 46.2178C21.8543 46.2495 21.8996 46.2788 21.9458 46.3063C21.9649 46.3176 21.9836 46.3294 22.0031 46.3399C22.0655 46.374 22.1291 46.4053 22.1946 46.4322C22.1966 46.433 22.1986 46.4342 22.2006 46.435C22.2679 46.4623 22.337 46.4842 22.4068 46.5035C22.4279 46.5093 22.449 46.5141 22.4705 46.5192C22.5227 46.5318 22.5755 46.5422 22.6285 46.5501C22.65 46.5533 22.6715 46.5571 22.693 46.5595C22.7654 46.5681 22.8381 46.5736 22.9112 46.5736C22.9114 46.5736 22.9114 46.5736 22.9116 46.5736C22.912 46.5736 22.9126 46.5736 22.913 46.5736C23.0755 46.5736 23.2393 46.5525 23.4001 46.5095L25.3735 45.9788C25.3233 47.051 25.2875 48.1297 25.2701 49.2159L25.267 49.4113H3.00104C3.09168 46.4093 3.45904 43.4236 4.09993 40.516C4.27683 39.7131 3.76962 38.919 2.96657 38.7419C2.16412 38.5652 1.36983 39.0724 1.19253 39.8751C0.401426 43.4648 0 47.1657 0 50.8752C0 57.7142 1.35608 64.3715 3.93258 70.5246C3.05403 71.5459 2.32867 72.7082 1.77524 73.9957C0.669575 76.5679 0.344051 79.4241 0.83433 82.256C0.836123 82.2665 0.839908 82.2763 0.8419 82.2868C0.842298 82.2894 0.842298 82.292 0.842697 82.2946C1.00665 83.2301 1.25787 84.1513 1.58937 85.0321L1.89796 85.8521C1.90593 85.873 1.9143 85.8937 1.92306 85.9144C5.89171 95.1729 14.9699 100.92 24.7398 100.92C26.5876 100.92 28.4618 100.714 30.3289 100.287C31.8135 99.9484 33.2861 99.5619 34.7456 99.1342C39.9363 100.869 45.3598 101.751 50.8754 101.751C60.8196 101.751 70.4526 98.881 78.7338 93.4521C86.8027 88.162 93.1805 80.7387 97.1781 71.9844C97.5195 71.2366 97.19 70.3534 96.4424 70.012C95.6945 69.6701 94.8113 70 94.4699 70.7477C93.2146 73.4965 91.7087 76.1053 89.9787 78.5475C85.9525 77.6528 81.6978 76.8972 77.2779 76.2907L81.5352 59.1991C81.6962 58.5527 81.5005 57.8616 81.025 57.3948C80.5497 56.9282 79.8542 56.7462 79.2119 56.9193L76.2631 57.7124C76.378 55.9975 76.4525 54.2693 76.4798 52.5347L76.483 52.3392H98.7503C98.6342 56.1915 98.0614 60.0022 97.041 63.6871C96.8217 64.4794 97.286 65.2994 98.0781 65.5188C98.211 65.5556 98.3449 65.5732 98.4762 65.5732C99.1286 65.5732 99.7275 65.1409 99.9098 64.4814C101.131 60.0711 101.75 55.4933 101.75 50.8748C101.75 44.7452 100.643 38.7178 98.5324 33.0668C99.4794 32.0049 100.254 30.7881 100.837 29.433ZM98.1021 28.257C97.8544 28.8334 97.564 29.377 97.2321 29.886C96.0098 27.1888 94.553 24.6113 92.8801 22.1693C92.865 22.1472 92.85 22.1251 92.8351 22.103C92.6628 21.8521 92.4875 21.6031 92.3103 21.3553C92.237 21.2523 92.1633 21.1497 92.0892 21.0473C92.0077 20.9349 91.929 20.8212 91.8466 20.7094C94.2388 21.1772 96.6191 21.7922 98.9635 22.5484C99.1605 24.5201 98.8674 26.4774 98.1021 28.257ZM65.1554 5.14224C65.063 5.17312 64.9711 5.20579 64.8787 5.23707C64.6201 5.32453 64.3617 5.41238 64.1043 5.50263C64.0651 5.51638 64.026 5.53072 63.9868 5.54427C63.6433 5.66519 63.3003 5.78692 62.9588 5.91262C62.9596 5.91222 62.9606 5.91203 62.9614 5.91163C62.3167 5.23249 61.6567 4.61172 60.9845 4.04574C62.3898 4.34776 63.781 4.71253 65.1554 5.14224ZM52.5697 3.08929C55.1321 3.49988 57.6401 4.86593 59.9851 7.07905C57.3671 8.16738 54.8131 9.39796 52.3398 10.762V3.05243L52.5697 3.08929ZM49.181 3.08949L49.4109 3.05263V12.4608C45.0363 15.1315 40.9509 18.2307 37.251 21.6997C37.1912 21.7557 37.1312 21.8121 37.0717 21.8681C36.8637 22.0645 36.6563 22.2615 36.4509 22.4604C36.3392 22.5683 36.2286 22.6769 36.1176 22.7855C35.9505 22.9492 35.7829 23.1124 35.6176 23.2778C35.3911 23.5037 35.1671 23.7318 34.9438 23.9607C34.8914 24.0145 34.8376 24.0673 34.7854 24.1212L33.4009 20.4969C33.9358 19.1392 34.5049 17.8345 35.1102 16.5969C38.9613 8.7234 43.9585 3.92641 49.181 3.08949ZM11.5838 23.4632C14.8586 18.7726 18.9659 14.6838 23.7593 11.386C28.939 7.82214 34.6988 5.34824 40.7622 4.04674C37.6652 6.65511 34.8372 10.4901 32.4795 15.3102C32.2803 15.7172 32.0848 16.1306 31.893 16.5499L31.6637 15.9495C31.5525 15.6592 31.3772 15.4094 31.1573 15.213C31.1306 15.1891 31.1027 15.1671 31.0746 15.1448C31.0642 15.1367 31.0545 15.1275 31.0439 15.1195C30.6929 14.8522 30.2504 14.7105 29.785 14.7386C28.9575 14.7888 28.2672 15.363 28.0668 16.1672L25.6246 25.9718C20.7297 25.3211 16.0244 24.4794 11.5838 23.4632ZM24.4133 43.154L30.1189 20.2478L32.6235 26.8037C32.858 27.4185 33.3839 27.86 34.03 27.9841C34.6769 28.1088 35.3297 27.8931 35.7768 27.4082C36.0672 27.0928 36.3613 26.7804 36.6581 26.4704C36.8087 26.3133 36.9621 26.1583 37.1143 26.0023C37.2574 25.8558 37.3992 25.7084 37.5438 25.563C37.7594 25.3464 37.9777 25.1319 38.1965 24.9179C38.2754 24.8406 38.3535 24.7625 38.4329 24.6854C38.7011 24.4257 38.9714 24.1681 39.2442 23.9125C39.2707 23.8876 39.2968 23.8625 39.3235 23.8376C46.6551 16.9826 55.6343 11.5922 65.3154 8.23333C65.3787 8.21121 65.4425 8.1903 65.5062 8.16858C65.8419 8.05303 66.178 7.93948 66.5153 7.82891C66.6539 7.78369 66.7934 7.74026 66.9324 7.69563C67.2018 7.60917 67.4709 7.52231 67.7415 7.43904C67.9841 7.36433 68.2278 7.29301 68.471 7.2209C68.6453 7.1693 68.8192 7.11551 68.9939 7.0653C70.3012 6.68838 71.6197 6.34732 72.9474 6.04411C83.2736 3.68555 93.7802 8.98956 97.9413 18.6581L98.1254 19.1465C94.9922 18.2351 91.8125 17.5695 88.618 17.1494C88.5595 17.1342 88.5003 17.1215 88.4395 17.1135C72.4388 15.0428 56.6589 19.2671 43.5419 29.0342C43.3899 29.1471 43.2383 29.2607 43.0871 29.375C42.9066 29.5117 42.7259 29.6478 42.5468 29.7866C42.2064 30.0496 41.8687 30.3168 41.533 30.5867C41.43 30.6696 41.3276 30.7532 41.225 30.8369C40.8465 31.1451 40.4698 31.4561 40.0972 31.7734C39.589 32.2064 39.3462 32.8839 39.4635 33.5419C39.581 34.2007 40.0436 34.7534 40.6708 34.9843L46.6308 37.1793L24.4133 43.154ZM52.3396 64.1471V52.3394H73.5543L73.5509 52.5412C73.518 54.5478 73.4248 56.5443 73.2724 58.517L52.3396 64.1471ZM52.3396 68.0811L59.1392 70.5853C59.0991 70.6176 59.0583 70.6489 59.0179 70.6811C58.7471 70.8973 58.4748 71.1099 58.2017 71.3208C58.0516 71.4366 57.9016 71.5523 57.7506 71.6667C57.5865 71.7912 57.4209 71.9133 57.2558 72.0358C56.9183 72.286 56.5794 72.5337 56.2379 72.7765C56.2148 72.7929 56.1921 72.8092 56.169 72.8253C55.3223 73.4254 54.4625 74.0015 53.5915 74.5555C53.2397 74.5506 52.8885 74.5438 52.5367 74.541L52.3396 74.5394V68.0811ZM52.3396 49.4109V30.52L52.5367 30.5184C58.7858 30.4682 64.9938 30.1337 70.9879 29.5237L71.1611 29.5061L71.2011 29.6753C72.6484 35.7708 73.4389 42.3428 73.5509 49.2091L73.5543 49.4109H52.3396ZM52.3396 27.5914V26.9053C57.4446 24.0904 62.8889 22.0416 68.4857 20.8467C69.1695 22.6142 69.7936 24.4719 70.3486 26.4123L70.4142 26.641L70.1775 26.6645C64.4583 27.2297 58.5242 27.541 52.5396 27.59L52.3396 27.5914ZM73.5324 26.2987L73.3634 26.3186L73.318 26.1547C72.753 24.1189 72.1155 22.1637 71.4135 20.2996C71.6703 20.2586 71.9273 20.2189 72.1846 20.1815C72.2034 20.1787 72.2221 20.1759 72.2408 20.1733C77.2627 19.451 82.3952 19.3988 87.4966 20.0066C87.548 20.0675 87.6 20.1281 87.651 20.1895C87.7634 20.3237 87.8745 20.459 87.9853 20.5945C88.0853 20.7168 88.1849 20.8393 88.2833 20.9622C88.416 21.1282 88.5477 21.2951 88.678 21.4627C88.7489 21.5537 88.8198 21.6448 88.8902 21.7362C89.0575 21.9543 89.2231 22.1741 89.3866 22.3948C89.4169 22.4359 89.4476 22.4765 89.4779 22.5173C89.708 22.8305 89.9331 23.1465 90.1554 23.4646C84.94 24.6581 79.3593 25.6126 73.5324 26.2987ZM31.6043 75.4542L31.4398 75.4702L31.3943 75.3112C29.4356 68.4543 28.3311 60.5805 28.1997 52.541L28.1963 52.3392H49.4111V74.539L49.2141 74.5406C43.2718 74.589 37.3468 74.8964 31.6043 75.4542ZM48.471 77.4795C44.7452 79.3745 40.8553 80.8676 36.8703 81.9271C36.6507 81.9852 36.4308 82.0422 36.2105 82.0978C36.023 82.1452 35.8355 82.1924 35.6477 82.2378C35.3156 82.3181 34.9827 82.3956 34.6492 82.4699C34.5372 82.495 34.4255 82.5197 34.3135 82.544C34.1946 82.5697 34.0754 82.5926 33.9563 82.6177C33.4057 81.3194 32.8877 79.9641 32.4096 78.562L32.3283 78.3238L32.5789 78.3003C37.752 77.8174 43.0949 77.543 48.471 77.4795ZM31.0092 83.1568C30.8001 83.1897 30.5909 83.2238 30.3813 83.2542C30.1759 83.2839 29.9699 83.3106 29.7643 83.3379C29.6014 83.3598 29.4382 83.3808 29.275 83.4013C24.8323 83.9523 20.3116 83.9826 15.81 83.4993C15.7489 83.4335 15.6873 83.368 15.6261 83.3019C15.5062 83.1718 15.3875 83.0409 15.2691 82.9098C15.1432 82.7699 15.0175 82.6295 14.8934 82.4884C14.7821 82.3621 14.6723 82.2346 14.5625 82.1073C14.434 81.9581 14.3055 81.8089 14.1788 81.6581C14.0818 81.5426 13.9864 81.4262 13.8905 81.3099C13.8394 81.2477 13.7884 81.1848 13.7374 81.1224C18.6192 80.0871 23.8057 79.2555 29.1874 78.6515L29.3478 78.6334L29.3982 78.7866C29.893 80.2952 30.4327 81.7545 31.0092 83.1568ZM28.1965 49.4109L28.1999 49.2091C28.222 47.8536 28.2716 46.5101 28.3465 45.1789L49.4113 39.5133V49.4109H28.1965ZM49.4113 30.5198V35.0303L43.473 32.8437C43.5206 32.8052 43.5692 32.7682 43.617 32.7297C43.8788 32.5209 44.142 32.3155 44.4061 32.1115C44.5679 31.9866 44.7299 31.8619 44.8926 31.7388C45.001 31.6567 45.1102 31.5768 45.2189 31.4955C45.6831 31.1493 46.1527 30.812 46.625 30.4799C47.4871 30.4979 48.3501 30.5114 49.2143 30.5184L49.4113 30.5198ZM3.00183 52.3394H25.2676L25.2707 52.5349C25.3988 60.6178 26.489 68.5798 28.423 75.5598L28.4847 75.7833L28.2544 75.81C22.4739 76.4784 16.9396 77.4006 11.7774 78.5481C9.93007 75.9423 8.34608 73.1584 7.04658 70.2191C7.03761 70.199 7.02626 70.1805 7.0165 70.161C4.56411 64.5874 3.1889 58.5547 3.00183 52.3394ZM4.51012 75.1715C4.74898 74.6159 5.02729 74.0906 5.34286 73.5981C6.55789 76.0286 7.97115 78.3662 9.57507 80.5893C9.60834 80.6351 9.642 80.6807 9.67527 80.7266C9.89402 81.0276 10.1161 81.3266 10.3417 81.6232C10.4058 81.7077 10.4706 81.7918 10.5355 81.8761C10.7347 82.1344 10.9363 82.3912 11.1407 82.6462C11.1862 82.7028 11.2298 82.7612 11.2754 82.8176C8.71324 82.339 6.16205 81.6912 3.6489 80.8802C3.45167 78.9087 3.74512 76.9512 4.51012 75.1715ZM39.7673 97.4775C39.9382 97.4145 40.1082 97.3494 40.2787 97.2852C40.4367 97.4261 40.5955 97.5626 40.7548 97.6968C40.4251 97.6259 40.0952 97.5554 39.7673 97.4775ZM43.3802 96.0419C45.4383 95.1648 47.4508 94.2027 49.4109 93.1568V98.6981L49.1812 98.6615C47.1982 98.3435 45.2478 97.4534 43.3802 96.0419ZM52.5697 98.6611L52.3398 98.6979V91.5089C58.0419 88.1335 63.2556 84.0352 67.8269 79.3077L68.4624 80.971C67.8949 82.4333 67.2858 83.8338 66.6404 85.1534C62.7893 93.0271 57.7921 97.8243 52.5697 98.6611ZM88.0214 81.1216C84.9267 84.9185 81.2523 88.2407 77.101 90.9622C72.1605 94.2013 66.7075 96.4708 60.9925 97.6998C64.0878 95.0914 66.9141 91.2581 69.2707 86.4404C69.5111 85.9487 69.7454 85.4449 69.9759 84.9343L70.9483 87.4793C71.2439 88.2533 71.9958 88.7382 72.8263 88.6901C73.6537 88.6403 74.3442 88.0666 74.5452 87.2615L76.5659 79.1491C80.5251 79.6856 84.3603 80.3455 88.0214 81.1216ZM78.1989 60.2749L72.4932 83.1811L69.9889 76.6254C69.7544 76.0106 69.2286 75.5694 68.5826 75.4451C67.9359 75.3203 67.2829 75.5357 66.8358 76.021C66.5438 76.338 66.2481 76.6521 65.9499 76.9637C65.8933 77.0229 65.8355 77.081 65.7788 77.14C65.5251 77.4032 65.2701 77.6652 65.012 77.9241C64.9769 77.9592 64.9418 77.9939 64.9068 78.0289C57.3685 85.5656 47.9718 91.4308 37.7178 95.05C37.4857 95.1317 37.2524 95.2114 37.0193 95.2907C36.8753 95.3399 36.7312 95.3895 36.5868 95.4377C36.2712 95.5431 35.9549 95.6461 35.6377 95.7475C35.5757 95.7674 35.5138 95.7873 35.4516 95.8068C35.0964 95.9192 34.7402 96.0292 34.3826 96.1364C32.8255 96.6037 31.2531 97.0227 29.6659 97.3853C19.3396 99.7432 8.83337 94.44 4.67229 84.7717L4.48821 84.283C7.87852 85.2691 11.323 85.9678 14.7819 86.379C14.8337 86.3908 14.8849 86.4051 14.938 86.4113C17.3347 86.6916 19.7243 86.8302 22.1026 86.83C25.0751 86.8298 28.0261 86.6093 30.9399 86.1806C31.0152 86.1696 31.0903 86.1587 31.1656 86.1473C31.4186 86.1091 31.6713 86.07 31.9237 86.0286C32.0661 86.0053 32.2081 85.9804 32.3508 85.9559C32.7122 85.8941 33.0728 85.8292 33.4329 85.7606C33.5497 85.7383 33.6666 85.7176 33.7832 85.6947C33.836 85.6843 33.8886 85.6728 33.9414 85.6622C34.173 85.6162 34.4045 85.5686 34.6358 85.52C34.7617 85.4933 34.8878 85.4656 35.0135 85.4381C43.8772 83.5079 52.308 79.5884 59.8207 73.8304C59.9311 73.7461 60.0418 73.6626 60.1516 73.5776C60.3016 73.461 60.4506 73.3429 60.6001 73.2248C60.8031 73.0646 61.0055 72.903 61.2071 72.7403C61.3228 72.6466 61.4386 72.5532 61.5539 72.4586C61.8769 72.1938 62.1984 71.927 62.5169 71.6557C63.0249 71.2228 63.268 70.5455 63.1507 69.8875C63.0333 69.2286 62.5709 68.6758 61.9434 68.4447L55.9836 66.2499L78.1989 60.2749ZM98.7483 49.4109H76.483L76.4798 49.2155C76.3696 42.2743 75.5833 35.6064 74.1428 29.3964L74.0928 29.1808L74.3123 29.1543C80.4979 28.4104 86.3945 27.3777 91.8583 26.0822C96.1045 33.1004 98.4953 41.1332 98.7483 49.4109Z" fill="black"/>
</svg>
