<svg width="102" height="102" viewBox="0 0 102 102" fill="none" xmlns="http://www.w3.org/2000/svg">
<path d="M32.4126 28.9796C29.1329 28.9796 26.4646 31.6213 26.4646 34.8682C26.4646 38.1151 29.1329 40.7567 32.4126 40.7567C35.6922 40.7567 38.3605 38.1151 38.3605 34.8682C38.3605 31.6213 35.6922 28.9796 32.4126 28.9796ZM32.4126 37.4762C30.9601 37.4762 29.7785 36.3062 29.7785 34.8684C29.7785 33.4306 30.9601 32.2606 32.4126 32.2606C33.8651 32.2606 35.0467 33.4306 35.0467 34.8684C35.0467 36.3062 33.8649 37.4762 32.4126 37.4762ZM35.6164 14.9475L17.5429 39.8535C17.0104 40.5861 15.9788 40.7524 15.2387 40.2252C14.4987 39.698 14.3308 38.6767 14.8632 37.9441L32.9368 13.0381C33.4693 12.3055 34.5009 12.1392 35.2409 12.6663C35.981 13.1937 36.1489 14.2151 35.6164 14.9475ZM23.9999 17.8399C23.9999 14.593 21.3317 11.9511 18.052 11.9511C14.7723 11.9511 12.104 14.5928 12.104 17.8399C12.104 21.0868 14.7721 23.7284 18.052 23.7284C21.3317 23.7284 23.9999 21.0868 23.9999 17.8399ZM15.4179 17.8399C15.4179 16.4019 16.5997 15.2319 18.052 15.2319C19.5043 15.2319 20.6861 16.4019 20.6861 17.8399C20.6861 19.2779 19.5045 20.4477 18.052 20.4477C16.5995 20.4477 15.4179 19.2777 15.4179 17.8399ZM101.887 43.2732L97.8671 21.8721C97.3676 19.2145 96.4722 16.205 93.6165 14.0361C90.9288 11.9948 87.9654 11.8064 85.3565 11.9671L76.3563 2.06174C75.1308 0.712947 73.5145 0 71.6821 0H6.287C2.82029 0 0 2.79212 0 6.22419V46.4839C0 49.9159 2.8205 52.708 6.287 52.708H30.0981L18.6477 67.4843C16.5378 70.2073 17.0589 74.1223 19.809 76.2115L52.0741 100.717C53.213 101.582 54.5582 102 55.8935 102C57.7832 102 59.6526 101.162 60.8891 99.5667L100.694 48.1999C101.809 46.7603 102.222 45.0567 101.887 43.2732ZM6.287 49.4273C4.64747 49.4273 3.31385 48.107 3.31385 46.4839V6.22419C3.31385 4.60104 4.64768 3.28075 6.287 3.28075H71.6821C72.5736 3.28075 73.2966 3.59959 73.8927 4.25574L81.1894 12.2864L62.9501 13.7006C61.1234 13.8421 59.5681 14.6778 58.4526 16.1173L32.6404 49.4273H6.287ZM98.0647 46.2027L58.2602 97.5698C57.2623 98.8579 55.3923 99.1019 54.0914 98.1136L21.8265 73.6084C20.5258 72.6205 20.2795 70.7687 21.2772 69.481L61.0819 18.1142C61.6246 17.414 62.3203 17.0402 63.2088 16.9713L85.1289 15.2717C87.3848 15.097 89.7387 15.2257 91.5994 16.6389C93.1851 17.8434 94.057 19.5331 94.6092 22.4719L98.6289 43.8728C98.7919 44.7405 98.6074 45.5025 98.0647 46.2027ZM87.1835 22.3376C84.5757 20.3572 80.8265 20.8461 78.8258 23.4278C76.825 26.0095 77.319 29.7215 79.9268 31.7022C82.5025 33.6586 86.3118 33.1581 88.2847 30.612C90.2853 28.0303 89.7913 24.3183 87.1835 22.3376ZM85.6556 28.6151C84.7781 29.7473 83.0861 29.9669 81.9441 29.0992C80.8002 28.2302 80.578 26.5566 81.4551 25.4247C81.9758 24.7528 82.7628 24.4001 83.5586 24.4001C85.6952 24.4003 86.9704 26.9183 85.6556 28.6151ZM84.5726 42.9318L79.1861 49.885C78.6321 50.6032 77.5947 50.741 76.8689 50.1925L62.5637 39.331C61.8381 38.7825 61.6989 37.7554 62.253 37.0369C62.807 36.3187 63.8445 36.1809 64.57 36.7294L77.5665 46.597L81.9447 40.9453C82.4987 40.2271 83.5362 40.0893 84.2619 40.6378C84.9877 41.1863 85.1266 42.2136 84.5726 42.9318ZM53.0098 73.7807C53.0098 73.7807 45.7301 68.2534 45.7278 68.2518C43.1465 66.292 39.1902 66.8081 37.2059 69.3697L34.5125 72.8463C33.9585 73.5646 34.0977 74.5918 34.8232 75.1403L49.1285 86.0019C49.854 86.5504 50.8916 86.4126 51.4457 85.6943C51.4457 85.6943 54.1359 82.2216 54.139 82.2177C56.106 79.6784 55.5611 75.7177 53.0098 73.7807ZM51.5113 80.2312L49.8262 82.4064L38.1445 73.5367C38.1445 73.5367 39.8337 71.356 39.8339 71.356C40.7415 70.1844 42.5229 69.943 43.7217 70.8532C43.7217 70.8532 51.0031 76.3817 51.0037 76.3821C52.1872 77.2808 52.4311 79.0438 51.5113 80.2312ZM65.7882 67.18L60.4018 74.1332C59.8477 74.8514 58.8103 74.9892 58.0846 74.4407L43.7793 63.5792C43.0538 63.0307 42.9146 62.0036 43.4686 61.2851L48.8551 54.332C49.4091 53.6137 50.4466 53.4759 51.1723 54.0244C51.8978 54.5729 52.037 55.6 51.483 56.3185L47.1004 61.9757L51.6296 65.4146L54.4364 61.7912C54.9905 61.0729 56.0279 60.9351 56.7536 61.4836C57.4792 62.0321 57.6184 63.0592 57.0643 63.7777L54.2531 67.4066L58.7823 70.8454L63.1606 65.1937C63.7146 64.4755 64.752 64.3377 65.4778 64.8862C66.2033 65.4345 66.3423 66.4615 65.7882 67.18ZM75.2555 51.7232L57.4307 45.4047L57.4293 45.4088C56.9461 45.2386 56.3899 45.2927 55.9355 45.6032C55.1849 46.1162 54.9965 47.1349 55.5149 47.878L66.3008 63.2827C66.8191 64.0258 67.848 64.2124 68.5986 63.6991C69.3492 63.1861 69.5377 62.1674 69.0192 61.4244L66.4378 57.7372L69.8759 53.299L74.1423 54.8114C75.0036 55.1157 75.9512 54.6712 76.2588 53.8182C76.5661 52.9656 76.1171 52.0275 75.2555 51.7232ZM64.4598 54.9123L61.1693 50.2128L66.607 52.1405L64.4598 54.9123Z" fill="black"/>
</svg>
