<svg width="12" height="15" viewBox="0 0 12 15" fill="none" xmlns="http://www.w3.org/2000/svg">
<path d="M5.54271 0C2.48648 0 0 2.48643 0 5.54271C0 8.50167 5.053 14.6125 5.2681 14.8712C5.33595 14.9528 5.43657 15 5.54271 15C5.64881 15 5.74948 14.9528 5.81733 14.8712C6.03248 14.6125 11.0854 8.50167 11.0854 5.54271C11.0854 2.48643 8.599 0 5.54271 0ZM5.54271 14.0761C5.09467 13.5166 4.16376 12.3246 3.24257 10.962C1.58857 8.51533 0.714286 6.64138 0.714286 5.54271C0.714286 2.88029 2.88033 0.714286 5.54271 0.714286C8.2051 0.714286 10.3711 2.88029 10.3711 5.54271C10.3711 6.64133 9.4969 8.51529 7.84286 10.962C6.92162 12.3246 5.99076 13.5166 5.54271 14.0761Z" fill="black"/>
<path d="M7.35972 10.1882C7.19629 10.0778 6.97424 10.1208 6.86386 10.2842C6.38191 10.9977 5.84201 11.7454 5.25915 12.5066C5.13924 12.6632 5.16896 12.8874 5.32558 13.0073C5.39034 13.0569 5.46667 13.0809 5.54243 13.0809C5.64977 13.0809 5.75596 13.0327 5.82624 12.9408C6.41767 12.1685 6.96591 11.4092 7.45572 10.6841C7.56615 10.5207 7.5232 10.2986 7.35972 10.1882Z" fill="black"/>
<path d="M5.54259 2.73828C3.92778 2.73828 2.61401 4.05204 2.61401 5.66685C2.61401 7.28166 3.92778 8.59542 5.54259 8.59542C7.15739 8.59542 8.47116 7.28166 8.47116 5.66685C8.47116 4.05204 7.15739 2.73828 5.54259 2.73828ZM5.54259 7.88114C4.32163 7.88114 3.3283 6.8878 3.3283 5.66685C3.3283 4.4459 4.32163 3.45257 5.54259 3.45257C6.76359 3.45257 7.75687 4.4459 7.75687 5.66685C7.75687 6.8878 6.76359 7.88114 5.54259 7.88114Z" fill="black"/>
</svg>
