<svg width="101" height="136" viewBox="0 0 101 136" fill="none" xmlns="http://www.w3.org/2000/svg">
<path d="M62.3823 29.1328C56.4815 29.1328 52.7386 32.1364 50.4999 35.0372C48.2613 32.1364 44.5184 29.1328 38.6176 29.1328C30.0023 29.1328 23.7646 35.5577 23.7646 43.392C23.7646 51.9862 31.1837 57.6218 42.4137 66.1524C44.371 67.6392 46.3946 69.1764 48.5441 70.8529C49.1041 71.2893 49.8019 71.5078 50.4999 71.5078C51.198 71.5078 51.8958 71.2893 52.4558 70.8526C54.605 69.1764 56.6289 67.639 58.5862 66.1521C69.8162 57.6218 77.2352 51.9862 77.2352 43.392C77.2352 35.5566 70.9964 29.1328 62.3823 29.1328ZM54.733 62.1204C53.3627 63.1615 51.9597 64.2273 50.4999 65.3507C49.0402 64.227 47.6372 63.1613 46.2669 62.1204C35.9393 54.2755 29.7058 49.5403 29.7058 43.392C29.7058 38.2826 33.537 34.4297 38.6176 34.4297C45.2343 34.4297 47.5424 41.4594 47.6381 41.7611C47.9957 42.9063 49.1659 43.6992 50.4999 43.6992C51.8379 43.6992 53.0107 42.9018 53.3648 41.7513C53.3874 41.6782 55.6943 34.4297 62.3823 34.4297C67.4629 34.4297 71.2941 38.2826 71.2941 43.392C71.2941 49.5403 65.0606 54.2758 54.733 62.1204Z" fill="black"/>
<path d="M83.7705 17.4795C85.4111 17.4795 86.7411 16.2937 86.7411 14.8311C86.7411 13.3684 85.4111 12.1826 83.7705 12.1826C82.1299 12.1826 80.7999 13.3684 80.7999 14.8311C80.7999 16.2937 82.1299 17.4795 83.7705 17.4795Z" fill="black"/>
<path d="M35.6292 104.978C25.9621 106.55 11.8824 110.964 11.8824 119.709C11.8824 128.769 28.4844 135.6 50.5 135.6C72.5156 135.6 89.1176 128.769 89.1176 119.709C89.1176 110.952 75.0011 106.544 65.3711 104.977C77.35 91.2215 101 62.3426 101 45.0234C101 37.2887 98.7626 29.6585 94.5298 22.9582C93.7244 21.6836 91.9124 21.2328 90.4838 21.9503C89.0541 22.668 88.5482 24.283 89.3532 25.5574C93.0858 31.4661 95.0588 38.1974 95.0588 45.0234C95.0588 56.5783 81.4033 78.5227 57.5941 105.23C54.6499 108.534 52.1644 111.211 50.5006 112.976C48.9577 111.339 46.7083 108.917 44.041 105.94C43.8438 105.496 5.94118 64.9561 5.94118 45.0234C5.94118 23.1182 25.9303 5.29688 50.5 5.29688C57.8825 5.29688 65.1934 6.93838 71.6432 10.0442C73.0863 10.7391 74.8888 10.2595 75.6686 8.97238C76.4481 7.6855 75.9101 6.07869 74.4664 5.38348C67.1522 1.86159 58.8646 0 50.5 0C22.6543 0 0 20.1975 0 45.0234C0 62.3699 23.7204 91.303 35.6292 104.978ZM50.4994 119.709H50.5C51.3585 119.709 52.1751 119.378 52.7392 118.801C52.7758 118.764 56.2151 115.241 61.1567 109.741C74.9732 111.414 83.1765 116.043 83.1765 119.709C83.1765 127.246 60.3906 130.303 50.5 130.303C37.0438 130.303 17.8235 126.269 17.8235 119.709C17.8235 116.036 26.0206 111.417 39.8454 109.743C44.7867 115.24 48.2239 118.763 48.2602 118.801C48.824 119.378 49.6406 119.709 50.4994 119.709Z" fill="black"/>
</svg>
