<svg width="256" height="248" viewBox="0 0 256 248" fill="none" xmlns="http://www.w3.org/2000/svg">
<path d="M80.2209 125C80.2209 125 80.2209 125 80.2209 125V221C80.2209 244.6 63.2209 248.167 54.7209 247H19.7209C3.72095 247 0.0542229 229.667 0.220861 221C0.054194 202 -0.179139 158.6 0.220861 137C0.620861 115.4 17.3875 110.667 25.7209 111C35.8875 111.167 59.2209 111.4 71.2209 111C79.0976 110.738 81.3732 114.769 81.4415 118.938C83.8163 118.562 87.7202 116.669 90.7209 111C94.3209 104.2 111.888 65.1667 120.221 46.5V11.5C119.888 7.66667 121.921 0 132.721 0C146.221 0 160.721 6.5 164.721 31C168.721 55.5 157.721 84 156.221 88C155.021 91.2 203.721 89.3333 228.221 88C236.888 88.167 254.421 93.0008 255.221 111C255.888 116.167 254.821 127.3 245.221 130.5C250.054 134.5 256.5 143 255.221 151.5C253.724 161.45 248.221 166.5 238.221 167.5C244.388 176 251.021 195 228.221 203C233.388 213.333 237.821 234.3 214.221 235.5C190.621 236.7 139.721 236 117.221 235.5C109.221 236 90.621 234.9 80.2209 226.5V125Z" fill="url(#paint0_linear_2802_10)"/>
<defs>
<linearGradient id="paint0_linear_2802_10" x1="223.462" y1="-9.20867e-07" x2="8.2144" y2="254.15" gradientUnits="userSpaceOnUse">
<stop stop-color="#B03090"/>
<stop offset="1" stop-color="#663EC1"/>
</linearGradient>
</defs>
</svg>
