<svg width="28" height="27" viewBox="0 0 28 27" fill="none" xmlns="http://www.w3.org/2000/svg">
<path d="M28 16.0417C28 15.3405 27.7211 14.6872 27.2405 14.2053C27.7854 13.6092 28.063 12.81 27.9871 11.9782C27.8506 10.4953 26.5148 9.3333 24.9445 9.3333H17.738C18.095 8.24945 18.6666 6.26265 18.6666 4.66665C18.6666 2.13615 16.5165 0 15.1666 0C13.9556 0 13.0888 0.6825 13.0526 0.7105C12.9138 0.821352 12.8333 0.989352 12.8333 1.16665V5.1228L9.47215 12.4017L9.3333 12.4728V12.25C9.3333 11.928 9.07195 11.6666 8.74994 11.6666H2.91665C1.30785 11.6667 0 12.9745 0 14.5833V23.9167C0 25.5255 1.30785 26.8333 2.91665 26.8333H6.41665C7.6778 26.8333 8.7558 26.0283 9.1618 24.9048C10.1325 25.4042 11.4391 25.6667 12.25 25.6667H22.9589C24.2294 25.6667 25.3412 24.8103 25.6025 23.6297C25.7366 23.0207 25.6585 22.4082 25.3925 21.8762C26.2535 21.4433 26.8334 20.5532 26.8334 19.5417C26.8334 19.1287 26.7389 18.7332 26.5604 18.3762C27.4214 17.9422 28 17.0532 28 16.0417ZM25.5395 17.4813C25.3144 17.5082 25.1241 17.661 25.0519 17.8768C24.9807 18.0927 25.0402 18.3295 25.2059 18.4858C25.5022 18.7647 25.6667 19.1403 25.6667 19.5417C25.6667 20.2778 25.1102 20.8962 24.3741 20.9813C24.1489 21.0082 23.9587 21.161 23.8864 21.3768C23.8153 21.5927 23.8748 21.8295 24.0404 21.9858C24.4243 22.3475 24.5783 22.855 24.4628 23.3777C24.3193 24.0287 23.6869 24.5 22.9589 24.5H12.25C11.3026 24.5 9.71365 24.0555 9.163 23.5037C8.99615 23.338 8.74415 23.289 8.52715 23.3777C8.309 23.4675 8.16665 23.681 8.16665 23.9167C8.16665 24.8815 7.3815 25.6667 6.41665 25.6667H2.91665C1.9518 25.6667 1.16665 24.8815 1.16665 23.9167V14.5833C1.16665 13.6185 1.9518 12.8333 2.91665 12.8333H8.16665V13.4167C8.16665 13.6185 8.27165 13.8063 8.4443 13.9137C8.61465 14.0163 8.8293 14.0268 9.0113 13.9382L10.1779 13.3548C10.2958 13.2965 10.3903 13.1985 10.4463 13.0783L13.9463 5.49495C13.9813 5.41795 13.9999 5.33395 13.9999 5.24995V1.4828C14.2426 1.34865 14.6639 1.16665 15.1666 1.16665C15.806 1.16665 17.5 2.75565 17.5 4.66665C17.5 6.72 16.3824 9.6798 16.3719 9.70901C16.3042 9.88751 16.3275 10.0894 16.436 10.248C16.5456 10.4055 16.7254 10.5 16.9166 10.5H24.9445C25.9175 10.5 26.7435 11.1965 26.8251 12.0855C26.887 12.7505 26.5673 13.3829 25.9945 13.7364C25.816 13.846 25.7099 14.0444 25.718 14.2555C25.7261 14.4667 25.8475 14.6557 26.0341 14.7525C26.5276 15.0034 26.8333 15.498 26.8333 16.0417C26.8334 16.7778 26.2769 17.3962 25.5395 17.4813Z" fill="white"/>
<path d="M8.75913 12.8379C8.43713 12.8379 8.17578 13.0992 8.17578 13.4212V23.9212C8.17578 24.2432 8.43713 24.5046 8.75913 24.5046C9.08113 24.5046 9.34249 24.2432 9.34249 23.9212V13.4212C9.34249 13.0992 9.08113 12.8379 8.75913 12.8379Z" fill="white"/>
</svg>
