<svg width="13" height="18" viewBox="0 0 13 18" fill="none" xmlns="http://www.w3.org/2000/svg">
<path d="M6.5 0C2.91582 0 0 2.91582 0 6.5C0 7.67994 0.529176 8.94897 0.551353 9.0025C0.722265 9.40818 1.0595 10.0383 1.30268 10.4076L5.75938 17.1604C5.94176 17.4372 6.21171 17.5959 6.5 17.5959C6.78829 17.5959 7.05824 17.4372 7.24062 17.1608L11.6977 10.4076C11.9413 10.0383 12.2781 9.40818 12.449 9.0025C12.4712 8.94935 13 7.68032 13 6.5C13 2.91582 10.0842 0 6.5 0ZM11.744 8.70579C11.5914 9.06941 11.2775 9.65556 11.0592 9.98668L6.60209 16.7398C6.51415 16.8732 6.48624 16.8732 6.39829 16.7398L1.94121 9.98668C1.72288 9.65556 1.40897 9.06903 1.25641 8.70541C1.24991 8.68974 0.764706 7.52165 0.764706 6.5C0.764706 3.33756 3.33756 0.764706 6.5 0.764706C9.66244 0.764706 12.2353 3.33756 12.2353 6.5C12.2353 7.52318 11.7489 8.69432 11.744 8.70579Z" fill="#8C69A1"/>
<path d="M6.50368 3.05859C4.60606 3.05859 3.0625 4.60253 3.0625 6.49977C3.0625 8.397 4.60606 9.94095 6.50368 9.94095C8.40129 9.94095 9.94485 8.397 9.94485 6.49977C9.94485 4.60253 8.40129 3.05859 6.50368 3.05859ZM6.50368 9.17624C5.02818 9.17624 3.82721 7.97565 3.82721 6.49977C3.82721 5.02389 5.02818 3.8233 6.50368 3.8233C7.97918 3.8233 9.18015 5.02389 9.18015 6.49977C9.18015 7.97565 7.97918 9.17624 6.50368 9.17624Z" fill="#8C69A1"/>
</svg>
