<svg width="172" height="172" viewBox="0 0 172 172" fill="none" xmlns="http://www.w3.org/2000/svg">
<path d="M148.822 0H23.1782C10.378 0 0.000854492 10.3767 0.000854492 23.1773V148.822C0.000854492 161.622 10.3775 171.999 23.1782 171.999H85.145L85.2506 110.536H69.2825C67.2074 110.536 65.5231 108.858 65.5151 106.783L65.4385 86.9707C65.4305 84.8841 67.1199 83.1885 69.2064 83.1885H85.1455V64.0449C85.1455 41.829 98.7136 29.7323 118.532 29.7323H134.794C136.874 29.7323 138.562 31.4191 138.562 33.5002V50.2059C138.562 52.2861 136.876 53.9725 134.796 53.9737L124.816 53.9784C114.038 53.9784 111.951 59.0998 111.951 66.6158V83.1889H135.634C137.89 83.1889 139.641 85.1593 139.375 87.4003L137.027 107.212C136.802 109.108 135.194 110.537 133.285 110.537H112.057L111.951 172H148.823C161.623 172 172 161.623 172 148.823V23.1773C171.999 10.3767 161.622 0 148.822 0Z" fill="#475993"/>
</svg>
