<svg width="172" height="173" viewBox="0 0 172 173" fill="none" xmlns="http://www.w3.org/2000/svg">
<path d="M169.055 30.7645C167.49 16.0961 155.905 4.50891 141.235 2.9447C104.448 -0.981567 67.5523 -0.981567 30.7658 2.9447C16.0961 4.51022 4.51022 16.0961 2.9447 30.7645C-0.981567 67.551 -0.981567 104.448 2.9447 141.234C4.51022 155.904 16.0961 167.49 30.7645 169.055C67.551 172.982 104.448 172.982 141.235 169.055C155.905 167.49 167.49 155.904 169.055 141.234C172.982 104.448 172.982 67.5523 169.055 30.7645V30.7645Z" fill="url(#paint0_radial_2632_16)"/>
<path d="M159.7 36.9831C158.312 23.9668 148.032 13.6853 135.014 12.2956C102.37 8.81291 69.6297 8.81291 36.986 12.2956C23.9698 13.6853 13.6882 23.9668 12.2986 36.9831C8.81584 69.6268 8.81584 102.368 12.2986 135.01C13.6882 148.027 23.9698 158.309 36.986 159.697C69.6297 163.181 102.37 163.181 135.013 159.697C148.03 158.309 158.312 148.027 159.7 135.01C163.184 102.368 163.184 69.6268 159.7 36.9831V36.9831Z" fill="url(#paint1_linear_2632_16)"/>
<path d="M2.57727 137.672C2.69537 138.861 2.81741 140.05 2.9447 141.239C4.51022 155.907 16.0961 167.493 30.7658 169.058C67.5523 172.985 104.449 172.985 141.235 169.058C155.905 167.493 167.49 155.907 169.055 141.239C169.183 140.05 169.305 138.861 169.424 137.672H2.57727Z" fill="url(#paint2_linear_2632_16)"/>
<path d="M169.056 141.237C171.166 121.471 172.139 101.673 171.982 81.8771L132.667 42.5619C127.755 36.9547 120.581 33.4549 112.151 33.1517C94.8147 32.5271 77.4234 32.5586 60.0846 33.1544C45.6839 33.6504 35.6136 43.3296 33.0311 57.5558C32.5758 60.0674 32.3028 62.6119 31.9446 65.1419V106.848C32.1427 108.2 32.4341 109.545 32.5246 110.904C33.102 119.557 36.6582 126.969 42.3521 131.983L82.3601 171.99C101.994 172.128 121.629 171.151 141.236 169.058C155.905 167.493 167.49 155.907 169.056 141.237V141.237Z" fill="url(#paint3_linear_2632_16)"/>
<path d="M169.055 141.239C167.491 155.906 155.902 167.495 141.235 169.059C121.631 171.151 101.992 172.128 82.3608 171.99L42.4131 132.043C47.044 136.096 53.0804 138.565 60.0852 138.828C77.4202 139.479 94.8154 139.462 112.15 138.838C127.829 138.271 139.175 126.666 139.664 110.988C140.187 94.3403 140.187 77.6497 139.664 61.0025C139.441 53.7693 136.902 47.4048 132.692 42.5889L171.983 81.8791C172.138 101.672 171.164 121.473 169.055 141.239Z" fill="url(#paint4_linear_2632_16)"/>
<path d="M106.295 67.37C101.258 61.886 94.0318 58.4453 85.9994 58.4453C70.7852 58.4453 58.45 70.7805 58.45 85.9948C58.45 94.0271 61.8907 101.254 67.3746 106.29L131.115 170.03C134.489 169.736 137.862 169.41 141.234 169.05C155.903 167.485 167.489 155.899 169.055 141.229C169.414 137.858 169.741 134.484 170.035 131.11L106.295 67.37Z" fill="url(#paint5_linear_2632_16)"/>
<path d="M171.666 104.523L120.368 53.2252C119.171 51.6544 117.285 50.6348 115.158 50.6348C111.539 50.6348 108.603 53.569 108.603 57.1895C108.603 59.3167 109.623 61.2024 111.194 62.3991L170.749 121.956C171.153 116.147 171.459 110.335 171.666 104.523V104.523Z" fill="url(#paint6_linear_2632_16)"/>
<path d="M31.9446 65.1419C32.3028 62.6119 32.5758 60.0674 33.0311 57.5558C35.6123 43.3296 45.6839 33.6504 60.0846 33.1544C77.4234 32.5586 94.8148 32.5271 112.151 33.1517C127.825 33.716 139.176 45.3216 139.665 61.0004C140.186 77.649 140.186 94.3383 139.665 110.987C139.176 126.666 127.829 138.27 112.152 138.836C94.8161 139.462 77.4208 139.477 60.0859 138.826C44.4097 138.237 33.5731 126.605 32.5246 110.903C32.4341 109.545 32.1427 108.198 31.9446 106.847C31.9446 92.9447 31.9446 79.0426 31.9446 65.1419V65.1419ZM86.0148 129.543C93.9487 129.543 101.89 129.781 109.814 129.488C122.237 129.028 129.878 121.614 130.168 109.202C130.528 93.7373 130.528 78.2513 130.168 62.7851C129.878 50.3764 122.232 42.7889 109.814 42.5252C94.0523 42.1919 78.2738 42.1945 62.5123 42.5252C50.1889 42.7837 42.5253 50.2176 42.1907 62.4898C41.7655 78.1503 41.7655 93.8383 42.1907 109.499C42.5253 121.77 50.1889 129.032 62.5136 129.488C70.3373 129.78 78.1806 129.543 86.0148 129.543V129.543Z" fill="url(#paint7_linear_2632_16)"/>
<path d="M31.944 65.137C32.3022 62.607 32.5752 60.0625 33.0305 57.5509C35.6117 43.3247 45.6833 33.6455 60.084 33.1495C77.4228 32.5537 94.8142 32.5222 112.15 33.1469C127.824 33.7111 139.175 45.3167 139.664 60.9955C140.185 77.6441 140.185 94.3334 139.664 110.982C139.175 126.661 127.828 138.265 112.152 138.831C94.8155 139.457 77.4202 139.472 60.0853 138.822C44.4091 138.232 33.5725 126.6 32.524 110.898C32.4334 109.54 32.1421 108.193 31.944 106.842C31.944 92.9398 31.944 79.0378 31.944 65.137V65.137ZM86.0142 129.539C93.9481 129.539 101.89 129.776 109.813 129.483C122.236 129.023 129.878 121.609 130.168 109.197C130.527 93.7324 130.527 78.2465 130.168 62.7802C129.878 50.3715 122.231 42.7841 109.813 42.5203C94.0517 42.187 78.2732 42.1896 62.5117 42.5203C50.1883 42.7788 42.5247 50.2127 42.1901 62.485C41.7649 78.1454 41.7649 93.8334 42.1901 109.494C42.5247 121.765 50.1883 129.027 62.513 129.483C70.3366 129.775 78.18 129.539 86.0142 129.539V129.539Z" fill="white"/>
<path d="M85.9995 58.4453C70.7852 58.4453 58.45 70.7792 58.45 85.9935C58.45 101.209 70.7852 113.543 85.9995 113.543C101.215 113.543 113.549 101.209 113.549 85.9935C113.549 70.7792 101.215 58.4453 85.9995 58.4453ZM85.9995 104.058C76.0224 104.058 67.9349 95.9706 67.9349 85.9935C67.9349 76.0164 76.0224 67.929 85.9995 67.929C95.9765 67.929 104.064 76.0164 104.064 85.9935C104.064 95.9706 95.9765 104.058 85.9995 104.058Z" fill="white"/>
<path d="M121.711 57.1895C121.711 60.8087 118.777 63.7429 115.158 63.7429C111.539 63.7429 108.603 60.8087 108.603 57.1895C108.603 53.569 111.539 50.6348 115.158 50.6348C118.777 50.6348 121.711 53.569 121.711 57.1895Z" fill="white"/>
<defs>
<radialGradient id="paint0_radial_2632_16" cx="0" cy="0" r="1" gradientUnits="userSpaceOnUse" gradientTransform="translate(35.259 150.314) scale(189.686)">
<stop stop-color="#FAE100"/>
<stop offset="0.0544" stop-color="#FADC04"/>
<stop offset="0.1167" stop-color="#FBCE0E"/>
<stop offset="0.1829" stop-color="#FCB720"/>
<stop offset="0.2514" stop-color="#FE9838"/>
<stop offset="0.3054" stop-color="#FF7950"/>
<stop offset="0.4922" stop-color="#FF1C74"/>
<stop offset="1" stop-color="#6C1CD1"/>
</radialGradient>
<linearGradient id="paint1_linear_2632_16" x1="65.969" y1="74.7297" x2="-225.419" y2="-89.1762" gradientUnits="userSpaceOnUse">
<stop stop-color="#A1B5D8" stop-opacity="0"/>
<stop offset="0.3094" stop-color="#90A2BD" stop-opacity="0.309804"/>
<stop offset="0.7554" stop-color="#7C8B9C" stop-opacity="0.756863"/>
<stop offset="1" stop-color="#748290"/>
</linearGradient>
<linearGradient id="paint2_linear_2632_16" x1="86.0001" y1="151.835" x2="86.0001" y2="178.646" gradientUnits="userSpaceOnUse">
<stop stop-color="#FAE100" stop-opacity="0"/>
<stop offset="0.3068" stop-color="#FCA800" stop-opacity="0.305882"/>
<stop offset="0.6275" stop-color="#FE7300" stop-opacity="0.627451"/>
<stop offset="0.8685" stop-color="#FF5200" stop-opacity="0.866667"/>
<stop offset="1" stop-color="#FF4500"/>
</linearGradient>
<linearGradient id="paint3_linear_2632_16" x1="76.2153" y1="75.9744" x2="33.648" y2="33.4072" gradientUnits="userSpaceOnUse">
<stop stop-color="#833AB4" stop-opacity="0"/>
<stop offset="1" stop-color="#833AB4"/>
</linearGradient>
<linearGradient id="paint4_linear_2632_16" x1="117.88" y1="157.319" x2="96.634" y2="57.1591" gradientUnits="userSpaceOnUse">
<stop stop-color="#833AB4" stop-opacity="0"/>
<stop offset="1" stop-color="#833AB4"/>
</linearGradient>
<linearGradient id="paint5_linear_2632_16" x1="125.964" y1="125.96" x2="40.6281" y2="40.6234" gradientUnits="userSpaceOnUse">
<stop stop-color="#833AB4" stop-opacity="0"/>
<stop offset="1" stop-color="#833AB4"/>
</linearGradient>
<linearGradient id="paint6_linear_2632_16" x1="132.294" y1="74.3254" x2="104.075" y2="46.1064" gradientUnits="userSpaceOnUse">
<stop stop-color="#833AB4" stop-opacity="0"/>
<stop offset="1" stop-color="#833AB4"/>
</linearGradient>
<linearGradient id="paint7_linear_2632_16" x1="120.151" y1="52.0898" x2="50.5733" y2="121.668" gradientUnits="userSpaceOnUse">
<stop stop-color="#833AB4"/>
<stop offset="0.0922" stop-color="#9C3495"/>
<stop offset="0.2927" stop-color="#DC2546"/>
<stop offset="0.392" stop-color="#FD1D1D"/>
<stop offset="0.5589" stop-color="#FC6831"/>
<stop offset="0.6887" stop-color="#FC9B40"/>
<stop offset="0.7521" stop-color="#FCAF45"/>
<stop offset="0.7806" stop-color="#FDB750"/>
<stop offset="0.8656" stop-color="#FECB6A"/>
<stop offset="0.9415" stop-color="#FFD87A"/>
<stop offset="1" stop-color="#FFDC80"/>
</linearGradient>
</defs>
</svg>
