<svg width="172" height="172" viewBox="0 0 172 172" fill="none" xmlns="http://www.w3.org/2000/svg">
<path d="M17.9166 0H154.083C163.978 0 172 8.02152 172 17.9166V154.083C172 163.978 163.978 172 154.083 172H17.9166C8.02152 172 0 163.978 0 154.083V17.9166C0 8.02152 8.02152 0 17.9166 0Z" fill="#F44336"/>
<path d="M102.956 91.0744C100.217 89.1851 97.5851 87.144 95.073 84.9614C95.675 84.8038 96.284 84.7104 96.879 84.5099C103.699 82.2117 109.254 77.1764 112.208 70.6138C115.4 63.4476 115.465 55.2763 112.388 48.0603C110.4 43.2877 107.255 39.0854 103.236 35.8339H114.667C116.646 35.8339 118.25 34.2294 118.25 32.2504C118.25 30.2714 116.646 28.667 114.667 28.667H86C85.8035 28.6882 85.6093 28.7268 85.4195 28.7815C81.9207 28.5776 78.4155 29.0449 75.0924 30.1575C68.2695 32.454 62.7118 37.4897 59.7559 44.0536C56.5641 51.2198 56.4993 59.3912 59.5768 66.6071C64.1859 77.7821 74.8297 85.294 86.9033 85.8926C87.7556 87.5273 88.8914 88.9977 90.2573 90.2356C77.5364 91.9915 50.1669 98.0902 50.1669 118.25C50.1669 127.624 54.8179 143.334 86.0003 143.334C109.106 143.334 121.834 133.15 121.834 114.667C121.833 104.634 111.37 97.1159 102.956 91.0744ZM66.2129 63.8984C63.8903 58.507 63.9161 52.3922 66.2845 47.0209C68.4247 42.2577 72.4523 38.601 77.4 36.9304C79.5476 36.197 81.8028 35.8265 84.072 35.8339C93.6449 36.0244 102.185 41.8979 105.787 50.7693C108.11 56.1608 108.084 62.2755 105.715 67.6468C103.575 72.4101 99.5477 76.0668 94.6 77.7374C82.9786 81.208 70.6369 75.1913 66.2129 63.8984ZM86 136.167C66.9795 136.167 57.3334 130.14 57.3334 118.25C57.3334 99.5814 96.5639 96.7504 96.9579 96.7504C97.3755 96.7279 97.7857 96.6308 98.169 96.4639L98.771 96.9009C105.859 101.975 114.667 108.31 114.667 114.667C114.667 128.929 105.02 136.167 86 136.167Z" fill="#FAFAFA"/>
</svg>
