<svg width="20" height="20" viewBox="0 0 20 20" fill="none" xmlns="http://www.w3.org/2000/svg">
<path d="M19.6667 0H15.6667C15.4827 0 15.3333 0.149 15.3333 0.333333V1.66667C15.3333 1.851 15.4827 2 15.6667 2H16.5287L13.3463 5.18267C12.4017 4.41767 11.2253 4 10 4C8.77467 4 7.59833 4.41767 6.65367 5.18267L5.97133 4.5L6.569 3.90233C6.69933 3.772 6.69933 3.56133 6.569 3.431L5.569 2.431C5.43867 2.30067 5.228 2.30067 5.09767 2.431L4.5 3.02867L3.47133 2H4.33333C4.51733 2 4.66667 1.851 4.66667 1.66667V0.333333C4.66667 0.149 4.51733 0 4.33333 0H0.333333C0.149333 0 0 0.149 0 0.333333V4.33333C0 4.51767 0.149333 4.66667 0.333333 4.66667H1.66667C1.85067 4.66667 2 4.51767 2 4.33333V3.47133L3.02867 4.5L2.431 5.09767C2.30067 5.228 2.30067 5.43867 2.431 5.569L3.431 6.569C3.56133 6.69933 3.772 6.69933 3.90233 6.569L4.5 5.97133L5.31333 6.78467C4.88933 7.56233 4.66667 8.43733 4.66667 9.33333C4.66667 11.8983 6.51 14.1003 9 14.5707V16.3333H8C7.816 16.3333 7.66667 16.4823 7.66667 16.6667V18C7.66667 18.1843 7.816 18.3333 8 18.3333H9V19.6667C9 19.851 9.14933 20 9.33333 20H10.6667C10.8507 20 11 19.851 11 19.6667V18.3333H12C12.184 18.3333 12.3333 18.1843 12.3333 18V16.6667C12.3333 16.4823 12.184 16.3333 12 16.3333H11V14.5707C13.49 14.1003 15.3333 11.8983 15.3333 9.33333C15.3333 8.43733 15.1107 7.56233 14.6867 6.78467L18 3.47133V4.33333C18 4.51767 18.1493 4.66667 18.3333 4.66667H19.6667C19.8507 4.66667 20 4.51767 20 4.33333V0.333333C20 0.149 19.8507 0 19.6667 0ZM19.3333 4H18.6667V2.66667C18.6667 2.532 18.5853 2.41 18.461 2.35867C18.336 2.30667 18.193 2.33567 18.0977 2.431L14.0343 6.49433C13.9253 6.60333 13.9053 6.77267 13.9857 6.904C14.431 7.63167 14.6667 8.47133 14.6667 9.33333C14.6667 11.664 12.9283 13.6513 10.623 13.9563C10.4573 13.9783 10.3333 14.1193 10.3333 14.2867V16.6667C10.3333 16.851 10.4827 17 10.6667 17H11.6667V17.6667H10.6667C10.4827 17.6667 10.3333 17.8157 10.3333 18V19.3333H9.66667V18C9.66667 17.8157 9.51733 17.6667 9.33333 17.6667H8.33333V17H9.33333C9.51733 17 9.66667 16.851 9.66667 16.6667V14.2867C9.66667 14.1193 9.54267 13.978 9.377 13.9563C7.07167 13.6513 5.33333 11.664 5.33333 9.33333C5.33333 8.47133 5.569 7.63167 6.014 6.90433C6.09467 6.77267 6.07467 6.60367 5.96533 6.49467L4.73533 5.26467C4.67333 5.20167 4.58833 5.16667 4.5 5.16667C4.41167 5.16667 4.32667 5.20167 4.26433 5.26433L3.66667 5.862L3.138 5.33333L3.73567 4.73567C3.866 4.60533 3.866 4.39467 3.73567 4.26433L1.90233 2.431C1.80667 2.33567 1.66367 2.30667 1.539 2.35867C1.41467 2.41 1.33333 2.532 1.33333 2.66667V4H0.666667V0.666667H4V1.33333H2.66667C2.532 1.33333 2.41033 1.41433 2.35867 1.539C2.307 1.66367 2.33567 1.807 2.431 1.90233L4.26433 3.73567C4.39467 3.866 4.60533 3.866 4.73567 3.73567L5.33333 3.138L5.862 3.66667L5.26433 4.26433C5.134 4.39467 5.134 4.60533 5.26433 4.73567L6.401 5.87233C6.527 5.999 6.72967 6.003 6.86133 5.88267C7.72 5.09867 8.83467 4.66667 10 4.66667C11.1653 4.66667 12.28 5.09867 13.1387 5.88267C13.2703 6.00267 13.473 5.999 13.599 5.87233L17.569 1.90233C17.6643 1.807 17.693 1.66367 17.6413 1.539C17.5897 1.41433 17.468 1.33333 17.3333 1.33333H16V0.666667H19.3333V4Z" fill="black"/>
<path d="M10.0002 5.66602C7.9785 5.66602 6.3335 7.31102 6.3335 9.33268C6.3335 11.3543 7.9785 12.9993 10.0002 12.9993C12.0218 12.9993 13.6668 11.3543 13.6668 9.33268C13.6668 7.31102 12.0218 5.66602 10.0002 5.66602ZM10.0002 12.3327C8.34616 12.3327 7.00016 10.987 7.00016 9.33268C7.00016 7.67835 8.34616 6.33268 10.0002 6.33268C11.6542 6.33268 13.0002 7.67835 13.0002 9.33268C13.0002 10.987 11.6542 12.3327 10.0002 12.3327Z" fill="black"/>
</svg>
