<svg width="47" height="47" viewBox="0 0 47 47" fill="none" xmlns="http://www.w3.org/2000/svg">
<path d="M14.2536 27.6039C14.2511 27.4344 14.1798 27.269 14.0583 27.1509C13.9362 27.0323 13.7693 26.9664 13.5999 26.9688C13.4293 26.9713 13.265 27.0426 13.1469 27.1641C13.0283 27.2862 12.9618 27.4525 12.9643 27.6231C12.9667 27.7925 13.0375 27.9575 13.1596 28.0761C13.2811 28.1941 13.4486 28.2606 13.618 28.2581C13.788 28.2551 13.9529 28.1844 14.0715 28.0623C14.1896 27.9408 14.2555 27.7739 14.2536 27.6039Z" fill="black"/>
<path d="M27.3914 7.92315C27.3497 5.04436 25.9115 2.34712 23.5443 0.708132C23.318 0.551523 23.0172 0.555882 22.7954 0.71916C20.4767 2.4257 19.1172 5.16348 19.1589 8.04227L19.2524 14.4923L17.6693 15.839C17.574 15.6618 17.4514 15.4982 17.3032 15.3542C16.9237 14.9856 16.4236 14.7868 15.8949 14.7945C15.366 14.8023 14.8716 15.0153 14.5032 15.3946C14.1347 15.774 13.9359 16.2742 13.9437 16.803L13.9751 18.9806L12.4114 20.3107C12.0757 19.6691 11.3994 19.2343 10.6276 19.2455C9.53583 19.2615 8.66078 20.1622 8.67642 21.254L8.70839 23.4602L6.68683 25.1796C6.54032 25.3044 6.45698 25.4877 6.45977 25.68L6.51866 29.744C6.52163 29.9494 6.62216 30.1407 6.78947 30.2598C6.9566 30.3789 7.17037 30.4111 7.36529 30.3467L11.3638 29.0255C11.4657 28.9918 11.5537 28.9351 11.6237 28.8631C11.7856 28.6964 11.8515 28.4472 11.7736 28.2112C11.6621 27.8733 11.2974 27.6896 10.9593 27.8014L7.79491 28.8472L7.75314 25.9648L19.2768 16.164L19.405 25.0108L15.8555 26.1837C15.5176 26.2953 15.3342 26.6597 15.4459 26.9978C15.5576 27.3359 15.9221 27.5194 16.2602 27.4076L19.4244 26.362L19.4453 27.7934C19.466 29.2189 19.6423 30.6208 19.9665 31.981L16.1345 36.0742C16.0206 36.1958 15.9583 36.3571 15.9605 36.5239L15.9912 38.643C15.9944 38.8658 16.1126 39.0712 16.3039 39.1861C16.495 39.3009 16.7321 39.3086 16.9304 39.2068L21.7891 36.7103C22.2059 37.4707 22.6766 38.2067 23.1997 38.9142C23.3232 39.0812 23.5195 39.1782 23.7273 39.1754C23.8996 39.1729 24.0622 39.1016 24.1803 38.9801C24.2045 38.9552 24.2269 38.9282 24.2471 38.899C24.7494 38.1767 25.1984 37.4272 25.5932 36.6552L30.5222 39.0098C30.7234 39.1059 30.9598 39.0913 31.1477 38.9708C31.1898 38.9441 31.2282 38.9125 31.2622 38.8775C31.3799 38.7563 31.447 38.5919 31.4445 38.4189L31.4138 36.3002C31.4114 36.1332 31.3441 35.9734 31.2263 35.8551L27.2764 31.8819C27.5622 30.5105 27.6981 29.102 27.6774 27.6743L27.6569 26.2429L39.8262 29.8763C40.0229 29.935 40.2359 29.8965 40.3995 29.7729C40.4259 29.7529 40.4505 29.7312 40.4731 29.7079C40.5914 29.5862 40.6575 29.4216 40.6552 29.2495L40.5963 25.1851C40.5934 24.9931 40.5049 24.812 40.355 24.6917L38.2843 23.0315L38.2523 20.8252C38.2365 19.7337 37.3356 18.8584 36.2438 18.8741C35.4718 18.8854 34.8084 19.3396 34.4914 19.9907L32.8898 18.7065L32.8583 16.5288C32.8506 16.0001 32.6374 15.5059 32.2582 15.1375C31.8788 14.7689 31.3788 14.5699 30.8499 14.5778C30.321 14.5853 29.8268 14.7984 29.4583 15.1778C29.3142 15.3261 29.1965 15.4932 29.1065 15.6733L27.4849 14.3732L27.3914 7.92315ZM15.2327 16.7842C15.23 16.5997 15.2994 16.4253 15.428 16.2929C15.5566 16.1606 15.729 16.0861 15.9136 16.0836C16.0982 16.0808 16.2726 16.1502 16.405 16.2788C16.5308 16.4011 16.6035 16.5633 16.6128 16.7376L15.2488 17.8974L15.2327 16.7842ZM9.96557 21.2353C9.96005 20.8544 10.2655 20.54 10.6464 20.5344C11.027 20.5289 11.3414 20.8343 11.3471 21.2151L11.3471 21.2162L9.98212 22.3771L9.96557 21.2353ZM17.2653 37.5854L17.2533 36.7653L20.374 33.4321C20.6089 34.1566 20.8873 34.8665 21.2084 35.5593L17.2653 37.5854ZM30.1286 36.5793L30.1405 37.3989L26.1402 35.488C26.4404 34.788 26.6976 34.0719 26.9112 33.3425L30.1286 36.5793ZM26.3886 27.693C26.4094 29.1256 26.2611 30.5376 25.9517 31.9078C25.9456 31.9289 25.9408 31.9506 25.9368 31.9723C25.4988 33.8779 24.7481 35.7015 23.7013 37.3843C21.8068 34.5273 20.7843 31.2244 20.7343 27.7749L20.4481 8.02359C20.4183 5.98305 21.2115 4.02549 22.6123 2.58348C22.7946 2.39585 22.987 2.21697 23.1891 2.04792C24.9887 3.46617 26.069 5.6357 26.1024 7.94165L26.3551 25.3785C26.3551 25.3806 26.3552 25.3828 26.3552 25.3849L26.3886 27.693ZM35.5818 20.8639C35.5763 20.483 35.8817 20.1689 36.2625 20.1632C36.6434 20.1577 36.9578 20.4631 36.9634 20.8441L36.9799 21.9858L35.5818 20.865L35.5818 20.8639ZM30.3831 16.0762C30.5117 15.9439 30.684 15.8694 30.8688 15.8668C31.0532 15.8641 31.2276 15.9335 31.36 16.0621C31.4924 16.1907 31.5668 16.363 31.5693 16.5476L31.5854 17.6609L30.1886 16.5409C30.1928 16.3664 30.2608 16.2021 30.3831 16.0762ZM39.3117 25.5077L39.3535 28.39L27.6371 24.8917L27.5091 16.0447L39.3117 25.5077Z" fill="black"/>
<path d="M24.0683 18.0402C24.0633 17.6844 23.7706 17.4 23.4146 17.4052C23.0586 17.4103 22.7742 17.7031 22.7794 18.0591L22.8847 25.3298C22.8897 25.6856 23.1824 25.97 23.5385 25.9648C23.7165 25.9622 23.8765 25.8878 23.9914 25.7695C24.1065 25.6511 24.1763 25.4889 24.1737 25.3109L24.0683 18.0402Z" fill="black"/>
<path d="M23.8447 15.9272C23.9596 15.8089 24.0293 15.6468 24.0268 15.4688L24.0265 15.4608C24.0215 15.1049 23.7288 14.8206 23.3727 14.8257C23.0169 14.8307 22.7325 15.1234 22.7377 15.4795L22.7378 15.4873C22.7429 15.8433 23.0357 16.1277 23.3917 16.1225C23.5697 16.12 23.7298 16.0455 23.8447 15.9272Z" fill="black"/>
</svg>
