<svg width="25" height="35" viewBox="0 0 25 35" fill="none" xmlns="http://www.w3.org/2000/svg">
<path d="M25 26.5443V8.57141C25 5.0193 22.8236 4.41287 16.76 4.30854L17.76 1.80214C19.6786 2.12069 20.6428 2.57142 20.7142 2.85716C20.7142 3.25165 21.034 3.57147 21.4285 3.57147C21.823 3.57147 22.1428 3.25165 22.1428 2.85716C22.1428 0.37145 16.0807 0 12.4643 0C9.57715 0 2.85716 0.278571 2.85716 2.85716C2.85716 3.25165 3.17698 3.57147 3.57147 3.57147C3.96595 3.57147 4.28577 3.25165 4.28577 2.85716C4.35722 2.57142 5.31434 2.11573 7.23575 1.79645L8.24001 4.30646C2.17861 4.41287 0 5.0193 0 8.57141V26.5443C0 28.6871 1.60714 30.7971 3.44926 31.3092L1.02067 32.9835C0.696026 33.2078 0.614597 33.6528 0.83886 33.9775C1.06312 34.3021 1.5081 34.3835 1.83281 34.1593L5.7928 31.4286H19.2071L23.1657 34.1593C23.4903 34.3835 23.9353 34.3022 24.1596 33.9775C24.3839 33.6528 24.3025 33.2078 23.9778 32.9835L21.4849 31.2642C24.0421 30.6757 25 28.5543 25 26.5443ZM12.4643 1.42855C13.7447 1.42352 15.0244 1.48386 16.2986 1.60928L15.2272 4.2914C14.38 4.28571 13.4814 4.28571 12.5 4.28571C11.5186 4.28571 10.62 4.28571 9.77215 4.2914L8.69784 1.60567C9.94954 1.48292 11.2066 1.42379 12.4643 1.42855ZM23.5714 26.5443C23.5714 27.835 23.1071 29.9999 20 29.9999H4.28571C3.03857 29.9999 1.42855 28.3242 1.42855 26.5443V8.57141C1.42855 5.98144 2.46281 5.71425 12.4999 5.71425C22.5371 5.71425 23.5714 5.98144 23.5714 8.57141V26.5443Z" fill="black"/>
<path d="M5.18977 20.7151H19.7483C20.9776 20.7151 22.139 19.5972 22.139 18.4144V10.4708C22.1411 9.22443 20.9383 8.57227 19.7483 8.57227H5.18977C3.8369 8.57227 2.85547 9.37081 2.85547 10.4708V18.4144C2.85547 19.5972 3.98977 20.7151 5.18977 20.7151ZM4.28402 10.4708C4.28402 10.1287 4.83901 10.0008 5.18971 10.0008H19.7483C20.1511 10.0008 20.7104 10.1644 20.7104 10.4708L20.7125 18.4144C20.7125 18.7972 20.1768 19.2865 19.7483 19.2865H5.18977C4.77546 19.2865 4.28408 18.8137 4.28408 18.4144V10.4708H4.28402Z" fill="black"/>
<path d="M19.2869 22.8574C17.7089 22.8574 16.4297 24.1366 16.4297 25.7146C16.4297 27.2926 17.7089 28.5718 19.2869 28.5718C20.8648 28.5718 22.1441 27.2926 22.1441 25.7146C22.1441 24.1366 20.8648 22.8574 19.2869 22.8574ZM19.2869 27.1432C18.4979 27.1432 17.8583 26.5036 17.8583 25.7146C17.8583 24.9256 18.4979 24.286 19.2869 24.286C20.0758 24.286 20.7154 24.9256 20.7154 25.7146C20.7155 26.5036 20.0758 27.1432 19.2869 27.1432Z" fill="black"/>
<path d="M5.71265 22.8574C4.1347 22.8574 2.85547 24.1366 2.85547 25.7146C2.85547 27.2926 4.1347 28.5718 5.71265 28.5718C7.29061 28.5718 8.56983 27.2926 8.56983 25.7146C8.56977 24.1366 7.29061 22.8574 5.71265 22.8574ZM5.71265 27.1432C4.92367 27.1432 4.28409 26.5036 4.28409 25.7146C4.28409 24.9256 4.92367 24.286 5.71265 24.286C6.50163 24.286 7.14121 24.9256 7.14121 25.7146C7.14121 26.5036 6.50163 27.1432 5.71265 27.1432Z" fill="black"/>
</svg>
