<svg width="40" height="27" viewBox="0 0 40 27" fill="none" xmlns="http://www.w3.org/2000/svg">
<path d="M34.2857 5.71429H17.1429C16.619 5.71429 16.1905 6.14286 16.1905 6.66667V14.2857H4.7619V0.952381C4.7619 0.428571 4.33333 0 3.80952 0H0.952381C0.428571 0 0 0.428571 0 0.952381V25.7143C0 26.2381 0.428571 26.6667 0.952381 26.6667H3.80952C4.33333 26.6667 4.7619 26.2381 4.7619 25.7143V20.9524H35.2381V25.7143C35.2381 26.2381 35.6667 26.6667 36.1905 26.6667H39.0476C39.5714 26.6667 40 26.2381 40 25.7143V11.4286C40 8.27619 37.4381 5.71429 34.2857 5.71429ZM16.1905 19.0476H3.80952C3.28571 19.0476 2.85714 19.4762 2.85714 20V24.7619H1.90476V1.90476H2.85714V15.2381C2.85714 15.7619 3.28571 16.1905 3.80952 16.1905H16.1905V19.0476ZM38.0952 24.7619H37.1429V20C37.1429 19.4762 36.7143 19.0476 36.1905 19.0476H18.0952V7.61905H34.2857C36.3905 7.61905 38.0952 9.32381 38.0952 11.4286V24.7619Z" fill="black"/>
<path d="M5.71484 8.5705C5.71484 11.1991 7.84818 13.3324 10.4767 13.3324C13.1053 13.3324 15.2387 11.1991 15.2387 8.5705C15.2387 5.94193 13.1053 3.80859 10.4767 3.80859C7.84818 3.80859 5.71484 5.94193 5.71484 8.5705ZM13.3339 8.5705C13.3339 10.1419 12.0482 11.4276 10.4767 11.4276C8.90532 11.4276 7.61961 10.1419 7.61961 8.5705C7.61961 6.99907 8.90532 5.71336 10.4767 5.71336C12.0482 5.71336 13.3339 6.99907 13.3339 8.5705Z" fill="black"/>
</svg>
