<svg width="35" height="36" viewBox="0 0 35 36" fill="none" xmlns="http://www.w3.org/2000/svg">
<path d="M13.0369 7.71094H9.68509C9.20828 7.71094 8.82031 8.0989 8.82031 8.57572V10.1685C8.82031 10.6454 9.20828 11.0333 9.68509 11.0333H13.0369C13.5137 11.0333 13.9016 10.6454 13.9016 10.1685V8.57572C13.9016 8.0989 13.5137 7.71094 13.0369 7.71094ZM12.8608 9.99237H9.8612V8.75175H12.8608V9.99237Z" fill="black"/>
<path d="M19.1736 7.71094H15.8218C15.345 7.71094 14.957 8.0989 14.957 8.57572V10.1685C14.957 10.6454 15.345 11.0333 15.8218 11.0333H19.1736C19.6504 11.0333 20.0384 10.6454 20.0384 10.1685V8.57572C20.0384 8.0989 19.6504 7.71094 19.1736 7.71094ZM18.9975 9.99237H15.9979V8.75175H18.9975V9.99237Z" fill="black"/>
<path d="M25.3103 7.71094H21.9585C21.4817 7.71094 21.0938 8.0989 21.0938 8.57572V10.1685C21.0938 10.6454 21.4817 11.0333 21.9585 11.0333H25.3103C25.7871 11.0333 26.1751 10.6454 26.1751 10.1685V8.57572C26.1751 8.0989 25.7871 7.71094 25.3103 7.71094ZM25.1343 9.99237H22.1346V8.75175H25.1343V9.99237Z" fill="black"/>
<path d="M34.4608 33.4772C33.4377 33.5138 32.8602 33.7745 32.3506 34.0045C31.828 34.2404 31.3766 34.4442 30.4125 34.4442C29.4483 34.4442 28.997 34.2404 28.4743 34.0045C27.922 33.7552 27.2961 33.4727 26.1079 33.4727C24.9198 33.4727 24.2939 33.7551 23.7416 34.0045C23.219 34.2404 22.7676 34.4442 21.8035 34.4442C20.8395 34.4442 20.3882 34.2404 19.8655 34.0045C19.3132 33.7552 18.6874 33.4727 17.4993 33.4727C16.3113 33.4727 15.6854 33.7551 15.1332 34.0045C14.6106 34.2404 14.1593 34.4442 13.1953 34.4442C12.2312 34.4442 11.7799 34.2404 11.2573 34.0045C10.705 33.7552 10.0791 33.4727 8.89105 33.4727C7.70297 33.4727 7.07701 33.7551 6.52479 34.0045C6.00217 34.2404 5.55086 34.4442 4.58683 34.4442C3.62281 34.4442 3.1715 34.2404 2.64895 34.0045C2.13942 33.7745 1.56198 33.5138 0.539045 33.4772C0.251917 33.4688 0.0105994 33.6914 0.000342356 33.9786C-0.00998399 34.2659 0.214562 34.5071 0.501829 34.5173C1.32024 34.5467 1.73753 34.7351 2.22072 34.9532C2.773 35.2025 3.39889 35.485 4.58697 35.485C5.77506 35.485 6.40095 35.2026 6.95323 34.9532C7.47586 34.7173 7.92717 34.5135 8.89126 34.5135C9.85535 34.5135 10.3066 34.7173 10.8292 34.9532C11.3815 35.2025 12.0073 35.485 13.1954 35.485C14.3835 35.485 15.0094 35.2025 15.5616 34.9532C16.0841 34.7173 16.5355 34.5135 17.4995 34.5135C18.4635 34.5135 18.9148 34.7173 19.4374 34.9532C19.9897 35.2025 20.6156 35.485 21.8037 35.485C22.9918 35.485 23.6177 35.2026 24.17 34.9532C24.6926 34.7173 25.144 34.5135 26.1081 34.5135C27.0722 34.5135 27.5235 34.7173 28.0462 34.9532C28.5985 35.2025 29.2245 35.485 30.4126 35.485C31.6008 35.485 32.2267 35.2026 32.779 34.9532C33.2623 34.735 33.6796 34.5467 34.4982 34.5173C34.7854 34.507 35.0099 34.2658 34.9997 33.9786C34.9892 33.6914 34.7466 33.4659 34.4608 33.4772Z" fill="black"/>
<path d="M34.4406 31.2271C33.4319 31.2667 32.8589 31.5253 32.3532 31.7535C31.8306 31.9894 31.3792 32.1932 30.4151 32.1932C29.6169 32.1932 29.1701 32.0533 28.7434 31.8714L33.8546 19.7705C33.9996 19.4273 34.0013 19.0486 33.8596 18.7041C33.7178 18.3596 33.45 18.0918 33.1054 17.95L29.2263 16.3539L28.7862 12.5807C28.7529 12.2952 28.4947 12.0897 28.209 12.1241C27.9235 12.1574 27.719 12.4158 27.7523 12.7013L28.1256 15.9011L17.7007 11.6117C17.5738 11.5595 17.4315 11.5595 17.3046 11.6117L6.8793 15.9011L7.84914 7.58668C7.90355 7.11991 8.299 6.76792 8.76895 6.76792H11.1785H23.8262H26.2357C26.7057 6.76792 27.1011 7.11991 27.1555 7.58668L27.4754 10.3294C27.5088 10.6149 27.7669 10.8199 28.0527 10.786C28.3381 10.7527 28.5426 10.4943 28.5093 10.2087L28.1894 7.46602C28.0737 6.47462 27.2338 5.72703 26.2357 5.72703H24.3466V3.9482C24.3466 3.20838 23.7448 2.60661 23.005 2.60661H19.7549V1.07463C19.7549 0.482081 19.2728 0 18.6802 0H16.3246C15.7321 0 15.25 0.482081 15.25 1.07463V2.60661H11.9999C11.2601 2.60661 10.6583 3.20844 10.6583 3.9482V5.72703H8.76916C7.77104 5.72703 6.93114 6.47462 6.81547 7.46602L5.77854 16.354L1.89944 17.95C1.55492 18.0918 1.28713 18.3596 1.14533 18.7041C1.00354 19.0486 1.00527 19.4274 1.15026 19.7706L6.26138 31.8712C5.83454 32.0533 5.3878 32.1933 4.58928 32.1933C3.62532 32.1933 3.17401 31.9895 2.65139 31.7536C2.14581 31.5254 1.5728 31.2667 0.564287 31.2272C0.275635 31.2143 0.0350101 31.4395 0.0238521 31.7268C0.0124862 32.014 0.236201 32.256 0.523398 32.2672C1.32934 32.2989 1.7435 32.4858 2.22309 32.7023C2.7753 32.9516 3.40119 33.2341 4.58921 33.2341C5.77729 33.2341 6.40318 32.9517 6.95546 32.7023C7.0202 32.673 7.08389 32.6444 7.14758 32.6164C7.14785 32.6163 7.14813 32.6162 7.14848 32.6161C7.15901 32.6115 7.16961 32.6069 7.18015 32.6024C7.199 32.5942 7.21785 32.586 7.23677 32.578C7.24523 32.5744 7.25389 32.5708 7.26241 32.5672C7.28674 32.557 7.31107 32.547 7.33567 32.5371C7.3408 32.5351 7.34593 32.5331 7.35105 32.531C7.37988 32.5196 7.40885 32.5083 7.43824 32.4974C7.44053 32.4965 7.44281 32.4956 7.4451 32.4948C7.57595 32.4462 7.71365 32.4028 7.8664 32.3671C7.87888 32.3642 7.89197 32.3615 7.90466 32.3586C7.92843 32.3533 7.95234 32.3481 7.97687 32.3432C7.99558 32.3395 8.01485 32.336 8.03412 32.3325C8.05373 32.3289 8.07341 32.3253 8.09351 32.322C8.11562 32.3183 8.13821 32.3149 8.16101 32.3116C8.1798 32.3088 8.19878 32.3062 8.21805 32.3036C8.24224 32.3004 8.2667 32.2973 8.29165 32.2945C8.31133 32.2922 8.3315 32.2902 8.35174 32.2882C8.37704 32.2856 8.40247 32.2831 8.42867 32.281C8.45126 32.2791 8.47462 32.2776 8.4979 32.2759C8.52285 32.2742 8.54766 32.2724 8.57344 32.271C8.60269 32.2694 8.63318 32.2684 8.66354 32.2672C8.68495 32.2664 8.70582 32.2653 8.72779 32.2648C8.78136 32.2634 8.83638 32.2626 8.89342 32.2626C9.85745 32.2626 10.3088 32.4663 10.8314 32.7022C10.8736 32.7213 10.9164 32.7405 10.9597 32.7598C11.4828 32.9931 12.1003 33.2341 13.1976 33.2341C14.1629 33.2341 14.7571 33.0475 15.2422 32.8439C15.3541 32.7969 15.4603 32.749 15.5638 32.7022C16.0864 32.4663 16.5377 32.2626 17.5017 32.2626C18.4657 32.2626 18.917 32.4663 19.4397 32.7022C19.992 32.9515 20.6178 33.2341 21.8059 33.2341C22.8996 33.2341 23.5167 32.9947 24.0387 32.7622C24.0838 32.7421 24.1284 32.722 24.1723 32.7023C24.6949 32.4664 25.1463 32.2626 26.1104 32.2626C26.1675 32.2626 26.2224 32.2635 26.2761 32.2648C26.2981 32.2654 26.3189 32.2665 26.3404 32.2673C26.3707 32.2684 26.4011 32.2695 26.4303 32.271C26.4563 32.2724 26.4813 32.2742 26.5066 32.276C26.5295 32.2776 26.5526 32.2791 26.5749 32.281C26.6014 32.2832 26.6272 32.2857 26.6528 32.2883C26.6726 32.2903 26.6924 32.2923 26.7117 32.2945C26.7371 32.2974 26.7621 32.3005 26.7866 32.3038C26.8053 32.3063 26.8238 32.3089 26.842 32.3116C26.8654 32.315 26.8886 32.3186 26.9112 32.3223C26.9306 32.3255 26.9496 32.329 26.9685 32.3323C26.9884 32.336 27.0084 32.3396 27.0278 32.3434C27.0513 32.3482 27.0742 32.3531 27.0969 32.3581C27.1107 32.3612 27.1248 32.3641 27.1383 32.3673C27.2528 32.3941 27.3588 32.4251 27.4598 32.4595C27.4599 32.4595 27.4601 32.4596 27.4603 32.4596C27.4936 32.471 27.5263 32.4827 27.5587 32.4947C27.5613 32.4956 27.5639 32.4966 27.5665 32.4976C27.5956 32.5085 27.6244 32.5197 27.653 32.531C27.6581 32.5331 27.6633 32.5351 27.6685 32.5372C27.6934 32.5472 27.7181 32.5574 27.7427 32.5677C27.7507 32.5711 27.7589 32.5744 27.7669 32.5778C27.7878 32.5866 27.8085 32.5956 27.8293 32.6046C27.8383 32.6085 27.8473 32.6123 27.8562 32.6163C27.8564 32.6164 27.8566 32.6164 27.8568 32.6165C27.9204 32.6444 27.984 32.673 28.0487 32.7022C28.6009 32.9515 29.2269 33.2341 30.4151 33.2341C31.6032 33.2341 32.2292 32.9516 32.7815 32.7022C33.2611 32.4857 33.6753 32.2987 34.4814 32.2671C34.7686 32.2559 34.9923 32.0139 34.981 31.7267C34.9698 31.4394 34.7272 31.2169 34.4406 31.2271ZM16.2906 1.07463C16.2907 1.05599 16.3059 1.04088 16.3244 1.04088H18.68C18.6987 1.04088 18.7138 1.05599 18.7138 1.07463V2.60661H16.2906V1.07463ZM11.6989 3.9482C11.6989 3.78235 11.8338 3.64749 11.9996 3.64749H15.7702H19.2343H23.0049C23.1707 3.64749 23.3056 3.78242 23.3056 3.9482V5.72703H11.6989V3.9482ZM27.7827 31.47C27.5388 31.3879 27.2562 31.3161 26.9128 31.2712C26.907 31.2704 26.9013 31.2696 26.8955 31.2689C26.8408 31.2619 26.7848 31.2555 26.727 31.25C26.722 31.2495 26.7168 31.2491 26.7117 31.2486C26.6583 31.2436 26.6035 31.2393 26.5473 31.2357C26.5389 31.2351 26.5307 31.2345 26.5222 31.2339C26.4643 31.2304 26.4046 31.2277 26.3435 31.2257C26.3305 31.2253 26.3173 31.2249 26.3042 31.2246C26.2411 31.2229 26.1769 31.2217 26.1103 31.2217C24.9221 31.2217 24.2962 31.5042 23.744 31.7535C23.2213 31.9894 22.77 32.1932 21.8059 32.1932C20.8418 32.1932 20.3905 31.9894 19.8679 31.7535C19.3156 31.5042 18.6897 31.2217 17.5016 31.2217C16.3136 31.2217 15.6877 31.5042 15.1355 31.7535C14.613 31.9894 14.1617 32.1932 13.1976 32.1932C12.2336 32.1932 11.7823 31.9894 11.2597 31.7535C10.742 31.5198 10.1595 31.2569 9.10972 31.2249C9.03972 31.2228 8.96765 31.2217 8.89342 31.2217C8.82675 31.2217 8.76251 31.2229 8.69937 31.2246C8.68641 31.2249 8.67331 31.2253 8.66049 31.2257C8.59923 31.2277 8.53942 31.2304 8.48134 31.2339C8.47316 31.2344 8.46519 31.2351 8.45708 31.2356C8.40018 31.2393 8.34467 31.2436 8.29075 31.2487C8.28632 31.2491 8.28181 31.2495 8.27738 31.2499C8.21888 31.2555 8.16226 31.2619 8.10703 31.269C8.10217 31.2696 8.09732 31.2703 8.09254 31.2709C7.74865 31.3159 7.46589 31.3876 7.22173 31.4696L2.89818 21.2339L4.85998 20.4644C5.12756 20.3594 5.25938 20.0574 5.15445 19.7899C5.04946 19.5223 4.7475 19.3905 4.47991 19.4953L2.49303 20.2747L2.10901 19.3656C2.0729 19.2803 2.07249 19.186 2.10776 19.1003C2.14304 19.0145 2.20964 18.9479 2.29537 18.9126L17.5023 12.6557L32.7091 18.9126C32.7948 18.9479 32.8614 19.0145 32.8967 19.1003C32.932 19.186 32.9316 19.2803 32.8955 19.3656L32.5115 20.2747L17.6923 14.4619C17.5701 14.4141 17.4344 14.4141 17.3122 14.4619L6.73425 18.6111C6.46666 18.7161 6.33484 19.0182 6.43977 19.2857C6.54477 19.5533 6.8468 19.6851 7.11431 19.5801L17.5023 15.5055L32.1064 21.2339L27.7827 31.47Z" fill="black"/>
</svg>
