<svg width="40" height="31" viewBox="0 0 40 31" fill="none" xmlns="http://www.w3.org/2000/svg">
<path d="M38.4701 11.4957L37.5983 10.5726L34.5385 2.32478C34.0171 0.931623 32.6838 0.008547 31.1966 0H9.34188C7.8547 0 6.52137 0.931623 6 2.32478L2.98291 10.4701L1.7265 11.6325C0.632479 12.5641 0 13.9316 0 15.3675V27.3846C0.00854701 29.3504 1.60684 30.9402 3.57265 30.9402H5.82906C7.79487 30.9402 9.39316 29.3504 9.40171 27.3846V25.641H30.5983V27.3846C30.6068 29.3504 32.2051 30.9402 34.1709 30.9402H36.4274C38.3932 30.9402 39.9915 29.3504 40 27.3846V15.0513C39.9915 13.7094 39.4444 12.4273 38.4701 11.4957ZM7.60684 2.90598C7.88034 2.17949 8.57265 1.7094 9.34188 1.7094H31.2051C31.9744 1.7094 32.6667 2.18803 32.9402 2.90598L35.6068 10.0855H33.6154C33.1453 6.88034 30.1624 4.66666 26.9573 5.1453C24.4017 5.52136 22.3932 7.52991 22.0171 10.0855H4.94017L7.60684 2.90598ZM31.8718 10.0855H23.7436C24.2137 7.8376 26.4188 6.40171 28.6667 6.87179C30.2735 7.21367 31.5299 8.47008 31.8718 10.0855ZM7.69231 27.3846C7.68376 28.4102 6.8547 29.2308 5.82906 29.2308H3.57265C2.54701 29.2308 1.71795 28.4102 1.7094 27.3846V25.1453C2.22222 25.4786 2.89744 25.641 3.57265 25.641H7.69231V27.3846ZM38.2906 27.3846C38.2821 28.4102 37.453 29.2308 36.4274 29.2308H34.1709C33.1453 29.2308 32.3162 28.4017 32.3077 27.3846V25.641H36.4274C37.1026 25.641 37.7778 25.4786 38.2906 25.1453V27.3846ZM36.4274 23.9316H3.57265C2.55556 23.9402 1.71795 23.1282 1.7094 22.1026V15.3675C1.7094 14.4273 2.12821 13.5299 2.84615 12.9231C2.8547 12.9145 2.87179 12.8974 2.88034 12.8889L4.04274 11.7949H36.4103L37.2308 12.6752C37.2393 12.6923 37.265 12.7008 37.2735 12.7179C37.9145 13.3248 38.2821 14.1709 38.2821 15.0513V22.1026H38.2906C38.2821 23.1196 37.4444 23.9402 36.4274 23.9316Z" fill="black"/>
<path d="M11.2845 15.2129H4.87423C4.40415 15.2129 4.01953 15.5975 4.01953 16.0676V20.512C4.01953 20.9821 4.40415 21.3667 4.87423 21.3667H11.2845C11.7546 21.3667 12.1392 20.9821 12.1392 20.512V16.0676C12.1392 15.5975 11.7546 15.2129 11.2845 15.2129ZM10.4298 19.6573H5.72893V16.9223H10.4298V19.6573Z" fill="black"/>
<path d="M35.1204 15.2129H28.7102C28.2401 15.2129 27.8555 15.5975 27.8555 16.0676V20.512C27.8555 20.9821 28.2401 21.3667 28.7102 21.3667H35.1204C35.5905 21.3667 35.9751 20.9821 35.9751 20.512V16.0676C35.9751 15.5975 35.5905 15.2129 35.1204 15.2129ZM34.2657 19.6573H29.5649V16.9223H34.2657V19.6573Z" fill="black"/>
<path d="M24.1248 18.8066H15.8684C15.3983 18.8066 15.0137 19.1913 15.0137 19.6613C15.0137 20.1314 15.3983 20.516 15.8684 20.516H24.1248C24.5949 20.516 24.9795 20.1314 24.9795 19.6613C24.9795 19.1913 24.5949 18.8066 24.1248 18.8066Z" fill="black"/>
<path d="M24.1248 16.1572H15.8684C15.3983 16.1572 15.0137 16.5418 15.0137 17.0119C15.0137 17.482 15.3983 17.8666 15.8684 17.8666H24.1248C24.5949 17.8666 24.9795 17.482 24.9795 17.0119C24.9795 16.5418 24.5949 16.1572 24.1248 16.1572Z" fill="black"/>
</svg>
