<svg width="35" height="48" viewBox="0 0 35 48" fill="none" xmlns="http://www.w3.org/2000/svg">
<path d="M4.60465 28.7383C4.09623 28.7383 3.68359 29.1509 3.68359 29.6593C3.68359 30.1678 4.09623 30.5804 4.60465 30.5804C5.11308 30.5804 5.52571 30.1678 5.52571 29.6593C5.52571 29.1509 5.11308 28.7383 4.60465 28.7383Z" fill="black"/>
<path d="M34.0789 11.0527H24.8685C24.3599 11.0527 23.9474 11.4651 23.9474 11.9738V29.658C23.9474 33.2131 21.0551 36.1054 17.5 36.1054C13.9516 36.1054 11.0526 33.2347 11.0526 29.658V11.9738C11.0526 11.4651 10.6401 11.0527 10.1315 11.0527H0.921058C0.41245 11.0527 0 11.4651 0 11.9738V29.658C0 39.3075 7.85045 47.1579 17.5 47.1579C27.1496 47.1579 35 39.3075 35 29.6579V11.9738C35 11.4651 34.5876 11.0527 34.0789 11.0527ZM1.84212 12.8949H9.21058V19.5265H1.84212V12.8949ZM33.1579 29.658C33.1579 38.2917 26.1337 45.3159 17.5 45.3159C8.86628 45.3159 1.84212 38.2917 1.84212 29.658V21.3686H9.21058V29.658C9.21058 34.2203 12.9016 37.9475 17.5 37.9475C22.0708 37.9475 25.7894 34.2288 25.7894 29.658V21.3686H33.1579V29.658ZM33.1579 19.5264H25.7894V12.8948H33.1579V19.5264Z" fill="black"/>
<path d="M10.2744 39.1968C8.24471 37.6551 6.73233 35.4696 6.01566 33.0433C5.87151 32.5555 5.35931 32.2765 4.87133 32.4209C4.38354 32.565 4.10483 33.0772 4.24888 33.5651C5.0759 36.3651 6.82011 38.8862 9.16015 40.6637C9.56504 40.9713 10.143 40.8926 10.4507 40.4874C10.7585 40.0824 10.6795 39.5046 10.2744 39.1968Z" fill="black"/>
<path d="M7.22864 4.12141C7.06082 3.84988 6.76434 3.68455 6.4451 3.68455H4.25123L5.42687 1.33327C5.65428 0.878272 5.46988 0.324992 5.01488 0.0974913C4.55997 -0.130102 4.00669 0.0543858 3.77919 0.509388L1.93707 4.19362C1.79431 4.47915 1.8096 4.81819 1.97742 5.08972C2.14523 5.36124 2.44172 5.52657 2.76096 5.52657H4.95483L3.77919 7.87785C3.55169 8.33285 3.73608 8.88613 4.19118 9.11363C4.64765 9.34187 5.2002 9.15517 5.42687 8.70173L7.26898 5.0175C7.41175 4.73198 7.39646 4.39293 7.22864 4.12141Z" fill="black"/>
<path d="M33.0177 4.12141C32.8499 3.84988 32.5534 3.68455 32.2342 3.68455H30.0403L31.2159 1.33327C31.4433 0.878272 31.2589 0.324992 30.8039 0.0974913C30.349 -0.130102 29.7958 0.0543858 29.5683 0.509388L27.7261 4.19362C27.5834 4.47915 27.5987 4.81819 27.7665 5.08972C27.9343 5.36124 28.2308 5.52657 28.55 5.52657H30.7439L29.5683 7.87785C29.3407 8.33285 29.5251 8.88613 29.9802 9.11363C30.4367 9.34187 30.9893 9.15517 31.2159 8.70173L33.058 5.0175C33.2008 4.73198 33.1855 4.39293 33.0177 4.12141Z" fill="black"/>
</svg>
