<svg width="35" height="36" viewBox="0 0 35 36" fill="none" xmlns="http://www.w3.org/2000/svg">
<path d="M32.4392 0H2.56348C1.88432 0 1.23297 0.269795 0.752736 0.750033C0.272498 1.23027 0.00270305 1.88161 0.00270305 2.56077V32.8633C-0.0299695 33.6157 0.2346 34.3507 0.739279 34.9097C1.24396 35.4687 1.94825 35.8067 2.70005 35.8508H25.6104C25.7224 35.8522 25.8334 35.8301 25.9363 35.786C26.0392 35.7419 26.1317 35.6768 26.208 35.5948L34.7439 27.0588C34.8259 26.9826 34.891 26.8901 34.9351 26.7872C34.9792 26.6843 35.0013 26.5733 34.9999 26.4613V2.56077C34.9999 1.88161 34.7301 1.23027 34.2499 0.750033C33.7697 0.269795 33.1183 0 32.4392 0ZM26.464 32.9315V28.1685C26.464 27.9421 26.554 27.725 26.714 27.5649C26.8741 27.4048 27.0912 27.3149 27.3176 27.3149H32.0807L26.464 32.9315ZM27.3176 25.6077C26.6385 25.6077 25.9871 25.8775 25.5069 26.3578C25.0266 26.838 24.7568 27.4893 24.7568 28.1685V34.1436H2.70005C2.40267 34.0971 2.13437 33.9386 1.95023 33.7004C1.7661 33.4623 1.6801 33.1628 1.70989 32.8633V2.56077C1.70989 2.33439 1.79982 2.11727 1.9599 1.95719C2.11998 1.79711 2.33709 1.70718 2.56348 1.70718H32.4392C32.6656 1.70718 32.8827 1.79711 33.0427 1.95719C33.2028 2.11727 33.2928 2.33439 33.2928 2.56077V25.6077H27.3176Z" fill="black"/>
</svg>
