<svg width="86" height="60" viewBox="0 0 86 60" fill="none" xmlns="http://www.w3.org/2000/svg">
<path d="M76.974 59.1605H8.40595C6.1772 59.1579 4.04047 58.2714 2.46458 56.6953C0.888688 55.1193 0.00233855 52.9825 0 50.7537V8.40675C0.00233855 6.178 0.888688 4.04119 2.46458 2.46515C4.04047 0.889106 6.1772 0.00255151 8.40595 0H76.974C79.2028 0.00255151 81.3395 0.889106 82.9154 2.46515C84.4913 4.04119 85.3777 6.178 85.38 8.40675V50.7537C85.3777 52.9825 84.4913 55.1193 82.9154 56.6953C81.3395 58.2714 79.2028 59.1579 76.974 59.1605ZM8.40595 3.21297C7.029 3.21446 5.70889 3.76217 4.73532 4.73589C3.76175 5.70961 3.21425 7.0298 3.21298 8.40675V50.7537C3.21425 52.1307 3.76175 53.4509 4.73532 54.4246C5.70889 55.3983 7.029 55.946 8.40595 55.9475H76.974C78.351 55.946 79.6711 55.3983 80.6447 54.4246C81.6182 53.4509 82.1657 52.1307 82.167 50.7537V8.40675C82.1657 7.0298 81.6182 5.70961 80.6447 4.73589C79.6711 3.76217 78.351 3.21446 76.974 3.21297H8.40595Z" fill="#4E337A"/>
<path d="M42.69 39.0346C42.2984 39.0349 41.9202 38.892 41.6265 38.633L2.91016 4.45661L5.03634 2.04688L42.69 35.2883L80.3452 2.05089L82.4714 4.46062L43.7551 38.637C43.4606 38.8954 43.0817 39.0368 42.69 39.0346Z" fill="#4E337A"/>
<path d="M2.03662 54.1172L28.0458 24.4824L30.462 26.603L4.45278 56.2378L2.03662 54.1172Z" fill="#4E337A"/>
<path d="M55.0001 26.5684L57.4163 24.4478L83.426 54.0832L81.0099 56.2037L55.0001 26.5684Z" fill="#4E337A"/>
</svg>
