<svg width="29" height="43" viewBox="0 0 29 43" fill="none" xmlns="http://www.w3.org/2000/svg">
<path d="M19.1161 42.8104C18.2705 42.8094 17.4597 42.473 16.8618 41.875C16.2639 41.277 15.9275 40.4662 15.9266 39.6206V31.4751C15.9265 31.4178 15.9147 31.361 15.8918 31.3084C15.8689 31.2558 15.8354 31.2084 15.7935 31.1693L13.3659 28.9096L11.8574 32.1134C11.8046 32.2254 11.7407 32.3318 11.6668 32.4311L6.00054 40.0121C5.76537 40.3871 5.45527 40.7094 5.0897 40.959C4.72412 41.2085 4.31095 41.3798 3.87607 41.4622C3.25089 41.5835 2.60383 41.5189 2.01503 41.2762C1.42622 41.0336 0.921516 40.6235 0.563416 40.0969C0.205315 39.5702 0.00954195 38.9501 0.000339985 38.3133C-0.00886198 37.6766 0.16891 37.0511 0.511645 36.5143L5.74168 29.0469C5.76845 29.0088 5.78848 28.9663 5.8009 28.9214L9.23083 16.8001C9.25089 16.7317 9.25279 16.6592 9.23636 16.5899C9.21993 16.5205 9.18572 16.4565 9.13711 16.4044C9.11372 16.3792 9.08753 16.3567 9.05907 16.3375L6.58374 21.8881C6.4372 22.2273 6.22516 22.5343 5.95978 22.7914C5.6944 23.0485 5.38089 23.2508 5.03722 23.3865C4.69354 23.5223 4.32646 23.5889 3.957 23.5825C3.58753 23.5762 3.22296 23.497 2.88415 23.3495C2.54535 23.202 2.23897 22.9891 1.98259 22.723C1.72621 22.4569 1.52485 22.1428 1.39005 21.7988C1.25526 21.4547 1.18968 21.0874 1.19706 20.718C1.20445 20.3486 1.28467 19.9842 1.43311 19.6458L4.70521 12.3602C4.97303 11.8349 5.39235 11.4022 5.9089 11.1179C5.93825 11.1023 5.96851 11.0886 5.99952 11.0767L12.7656 8.52721C13.218 8.35518 13.7201 8.36896 14.1623 8.56554L18.3504 10.4211C18.7286 10.5891 19.0396 10.8791 19.2335 11.2447L20.4205 13.4869C20.4605 13.5614 20.5217 13.6223 20.5965 13.6618L27.0776 17.0719C27.4185 17.2497 27.721 17.4929 27.9678 17.7877C28.2146 18.0825 28.4008 18.423 28.5159 18.7898C28.631 19.1567 28.6726 19.5426 28.6384 19.9255C28.6042 20.3084 28.4949 20.6809 28.3166 21.0215C28.1384 21.3622 27.8948 21.6643 27.5996 21.9107C27.3045 22.1571 26.9637 22.3429 26.5968 22.4575C26.2298 22.5721 25.8438 22.6132 25.4609 22.5785C25.0781 22.5438 24.7058 22.434 24.3654 22.2553C24.3619 22.2532 20.3575 20.1217 18.2751 19.009C18.2204 18.9799 18.1598 18.9633 18.0979 18.9605C18.036 18.9578 17.9742 18.9688 17.9171 18.9929C17.86 19.017 17.8089 19.0535 17.7677 19.0998C17.7264 19.1461 17.696 19.201 17.6787 19.2605L16.8756 22.003C16.8578 22.0644 16.8543 22.129 16.8652 22.1919C16.8762 22.2548 16.9015 22.3144 16.939 22.3661L21.8879 29.1444C22.1603 29.516 22.3068 29.965 22.306 30.4258V39.6206C22.305 40.4663 21.9686 41.2771 21.3706 41.8751C20.7726 42.4731 19.9618 42.8095 19.1161 42.8104ZM13.1367 27.008C13.317 27.0079 13.4907 27.0761 13.6227 27.199L16.7659 30.1248C16.951 30.2977 17.0987 30.5067 17.1998 30.739C17.3009 30.9713 17.3532 31.2218 17.3536 31.4751V39.6205C17.3536 39.852 17.3992 40.0812 17.4878 40.2951C17.5764 40.509 17.7062 40.7033 17.8699 40.867C18.0336 41.0306 18.2279 41.1605 18.4418 41.2491C18.6556 41.3376 18.8848 41.3832 19.1163 41.3832C19.3478 41.3832 19.577 41.3376 19.7909 41.2491C20.0047 41.1605 20.199 41.0306 20.3627 40.867C20.5264 40.7033 20.6562 40.509 20.7448 40.2951C20.8334 40.0812 20.879 39.852 20.879 39.6205V30.4258C20.8791 30.2674 20.8287 30.1132 20.7351 29.9854L15.7866 23.2078C15.6207 22.9791 15.5092 22.7155 15.4606 22.4372C15.4121 22.1588 15.4278 21.8731 15.5064 21.6017L16.3095 18.8591C16.3864 18.596 16.5211 18.3533 16.7036 18.1488C16.8862 17.9443 17.1121 17.7831 17.3648 17.6769C17.6176 17.5707 17.8908 17.5222 18.1647 17.5349C18.4385 17.5477 18.7061 17.6213 18.9479 17.7506C21.0292 18.8633 25.0322 20.9934 25.0322 20.9934C25.2137 21.088 25.4126 21.1444 25.6167 21.1591C25.8208 21.1738 26.0258 21.1466 26.219 21.079C26.4122 21.0114 26.5894 20.905 26.7399 20.7662C26.8903 20.6274 27.0107 20.4593 27.0936 20.2722C27.2473 19.9239 27.2629 19.5302 27.1372 19.1708C27.0115 18.8114 26.754 18.5132 26.4167 18.3366L26.4139 18.3351L19.9307 14.9237C19.6021 14.7511 19.3333 14.4832 19.1597 14.1551L17.9723 11.9122C17.9288 11.8295 17.8586 11.7639 17.7731 11.7262L13.585 9.87063C13.4851 9.82648 13.3718 9.82348 13.2697 9.86227L6.55378 12.3923C6.31315 12.5333 6.11689 12.739 5.98729 12.9859L2.73749 20.2248C2.66553 20.3916 2.62714 20.5709 2.62453 20.7525C2.62191 20.934 2.65512 21.1144 2.72224 21.2831C2.78937 21.4518 2.8891 21.6057 3.01573 21.7359C3.14236 21.866 3.29341 21.97 3.46024 22.0417C3.62707 22.1135 3.8064 22.1516 3.98799 22.154C4.16958 22.1564 4.34986 22.123 4.51852 22.0557C4.68718 21.9883 4.84091 21.8884 4.97092 21.7616C5.10094 21.6348 5.20468 21.4836 5.27623 21.3167L7.96512 15.2847C8.0121 15.1794 8.08386 15.0872 8.17425 15.0157C8.26465 14.9442 8.371 14.8957 8.48422 14.8742C8.79316 14.8155 9.11197 14.8368 9.4104 14.9359C9.70883 15.0351 9.97696 15.2088 10.1894 15.4407C10.4017 15.6726 10.5513 15.955 10.6239 16.2609C10.6965 16.5669 10.6897 16.8864 10.6042 17.189L7.17427 29.3102C7.11821 29.5086 7.02917 29.6961 6.91089 29.8649L1.69719 37.3079C1.45849 37.697 1.37372 38.1612 1.4595 38.6095C1.54529 39.0578 1.79543 39.4579 2.1609 39.7313C2.36518 39.884 2.59912 39.9922 2.84769 40.049C3.09626 40.1059 3.35398 40.1102 3.6043 40.0616C3.85461 40.0129 4.092 39.9125 4.30121 39.7667C4.51042 39.6209 4.68684 39.433 4.81913 39.215L10.523 31.5783C10.5397 31.5559 10.5541 31.5318 10.5658 31.5065L12.4911 27.4178C12.5388 27.3161 12.6099 27.2272 12.6987 27.1582C12.7874 27.0893 12.8911 27.0424 13.0014 27.0213C13.046 27.0124 13.0913 27.008 13.1367 27.008ZM17.894 8.67911C17.0357 8.67911 16.1967 8.4246 15.4831 7.94777C14.7694 7.47093 14.2132 6.79318 13.8848 6.00023C13.5563 5.20728 13.4704 4.33474 13.6378 3.49295C13.8053 2.65116 14.2186 1.87793 14.8255 1.27103C15.4324 0.664131 16.2056 0.250828 17.0474 0.0833853C17.8892 -0.0840574 18.7617 0.00188027 19.5547 0.330331C20.3476 0.658782 21.0254 1.21499 21.5022 1.92863C21.979 2.64227 22.2335 3.48127 22.2335 4.33956C22.2322 5.49007 21.7746 6.59308 20.961 7.40662C20.1475 8.22015 19.0445 8.67778 17.894 8.67911H17.894ZM17.894 1.42698C17.3179 1.42698 16.7548 1.59779 16.2758 1.91783C15.7969 2.23786 15.4236 2.69274 15.2031 3.22493C14.9827 3.75713 14.925 4.34275 15.0374 4.90772C15.1498 5.4727 15.4272 5.99166 15.8345 6.39899C16.2418 6.80632 16.7608 7.08371 17.3257 7.19609C17.8907 7.30847 18.4763 7.25079 19.0085 7.03035C19.5407 6.80991 19.9956 6.4366 20.3156 5.95763C20.6357 5.47867 20.8065 4.91556 20.8065 4.33951C20.8056 3.56732 20.4985 2.82699 19.9525 2.28097C19.4065 1.73495 18.6661 1.42782 17.894 1.42698Z" fill="#4E337A"/>
</svg>
