<svg width="40" height="40" viewBox="0 0 40 40" fill="none" xmlns="http://www.w3.org/2000/svg">
<g clip-path="url(#clip0_2957_4415)">
<path d="M19.2966 13.8672H4.86328C4.53961 13.8672 4.27734 14.1295 4.27734 14.4531C4.27734 14.7767 4.53961 15.0391 4.86328 15.0391H19.2965C19.6202 15.0391 19.8824 14.7767 19.8824 14.4531C19.8824 14.1295 19.6202 13.8672 19.2966 13.8672Z" fill="url(#paint0_linear_2957_4415)"/>
<path d="M19.2966 18.1904H4.86328C4.53961 18.1904 4.27734 18.4528 4.27734 18.7764C4.27734 19.1 4.53961 19.3623 4.86328 19.3623H19.2965C19.6202 19.3623 19.8824 19.1 19.8824 18.7764C19.8824 18.4528 19.6202 18.1904 19.2966 18.1904Z" fill="url(#paint1_linear_2957_4415)"/>
<path d="M19.8825 23.0986C19.8825 22.775 19.6202 22.5127 19.2966 22.5127H4.86328C4.53961 22.5127 4.27734 22.775 4.27734 23.0986C4.27734 23.4222 4.53961 23.6846 4.86328 23.6846H19.2965C19.6202 23.6846 19.8825 23.4222 19.8825 23.0986Z" fill="url(#paint2_linear_2957_4415)"/>
<path d="M4.86328 26.8359C4.53961 26.8359 4.27734 27.0983 4.27734 27.4219C4.27734 27.7455 4.53961 28.0078 4.86328 28.0078H11.5939C11.9176 28.0078 12.1798 27.7455 12.1798 27.4219C12.1798 27.0983 11.9176 26.8359 11.5939 26.8359H4.86328Z" fill="url(#paint3_linear_2957_4415)"/>
<path d="M5.4057 8.39879H11.5373C12.1595 8.39879 12.6657 7.89262 12.6657 7.27035V5.19191C12.6657 4.56973 12.1595 4.06348 11.5373 4.06348H5.4057C4.78352 4.06348 4.27734 4.56965 4.27734 5.19191V7.27035C4.27727 7.89254 4.78352 8.39879 5.4057 8.39879ZM5.44914 5.23535H11.4938V7.22691H5.44914V5.23535Z" fill="url(#paint4_linear_2957_4415)"/>
<path d="M15.9764 38.8281H3.36117C2.24555 38.8281 1.33789 37.9205 1.33789 36.8048V3.19516C1.33789 2.07953 2.24555 1.17188 3.36117 1.17188H22.456C22.5349 1.17188 22.6125 1.17977 22.6888 1.19258V5.20375C22.6888 6.96555 24.1221 8.39883 25.8838 8.39883H29.895C29.9078 8.47516 29.9157 8.55273 29.9157 8.63164V9.51117C29.9157 9.83477 30.178 10.0971 30.5016 10.0971C30.8253 10.0971 31.0876 9.83477 31.0876 9.51117V8.63164C31.0876 7.94711 30.821 7.30352 30.3371 6.81961L24.268 0.750547C23.784 0.266563 23.1406 0 22.456 0H3.36117C1.5993 0 0.166016 1.43336 0.166016 3.19516V36.8048C0.166016 38.5666 1.5993 40 3.36117 40H15.9764C16.3001 40 16.5623 39.7377 16.5623 39.4141C16.5623 39.0905 16.3 38.8281 15.9764 38.8281ZM23.8607 2.00047L29.0872 7.22695H25.8839C24.7683 7.22695 23.8607 6.3193 23.8607 5.20375V2.00047Z" fill="url(#paint5_linear_2957_4415)"/>
<path d="M39.8148 32.9642C39.8073 31.191 38.7538 29.5836 37.1308 28.8691C35.7957 28.2814 33.3796 27.9154 32.0577 27.7495C32.0575 27.7495 32.0573 27.7494 32.057 27.7493C31.9485 27.7357 31.8665 27.6434 31.8661 27.5345L31.8584 25.7185C31.993 25.6188 32.1253 25.5131 32.2549 25.4005C33.2101 24.5711 33.8202 23.3896 33.9752 22.0979C34.6987 21.995 35.2555 21.37 35.2523 20.6189L35.248 19.6199C35.2463 19.1941 35.0645 18.7995 34.7576 18.523L34.7471 16.0333C34.737 13.6229 32.7728 11.6689 30.3646 11.6689C30.3584 11.6689 30.3521 11.6689 30.3459 11.6689L26.4301 11.6854C25.4924 11.6894 24.6534 12.2864 24.3424 13.1708C24.3388 13.1811 24.3314 13.1889 24.3253 13.1889C23.0895 13.1942 22.0935 14.1983 22.0988 15.4343L22.112 18.5762C21.8073 18.8553 21.6288 19.2514 21.6307 19.6771L21.6349 20.6762C21.6366 21.0736 21.7928 21.4464 22.0751 21.7262C22.3083 21.9575 22.6044 22.1022 22.9245 22.1445C23.0904 23.4348 23.7105 24.611 24.6725 25.4323C24.803 25.5438 24.9363 25.6483 25.0716 25.7469L25.0794 27.5629C25.0798 27.6717 24.9986 27.7647 24.8905 27.7793H24.8904C23.5702 27.9564 21.1566 28.3427 19.8263 28.9418C18.2093 29.6698 17.1693 31.2861 17.1768 33.0594L17.1956 37.5189C17.2014 38.889 18.3177 39.9996 19.6841 39.9996H19.6948H37.3505H37.353C38.0199 39.9968 38.6482 39.7179 39.1221 39.2143C39.577 38.7308 39.8364 38.0781 39.8336 37.4235L39.8148 32.9642ZM32.1187 28.9387C32.2545 28.9565 32.4077 28.9773 32.5736 29.0009C32.7063 29.0208 32.7537 29.1167 32.7701 29.1723C32.7866 29.2282 32.7988 29.3353 32.6963 29.4241L30.6874 31.1632C30.6023 31.2368 30.4791 31.2425 30.3877 31.1772L30.3788 31.1709C30.3788 31.1708 30.3788 31.1708 30.3787 31.1707L29.5359 30.5693L32.1187 28.9387ZM28.4825 29.8484L26.0222 28.3239C26.1678 28.1025 26.2526 27.8389 26.2514 27.5581L26.2466 26.415C27.6176 26.9954 29.2043 27.0397 30.6895 26.3962L30.6943 27.5393C30.6955 27.8202 30.7824 28.083 30.9299 28.3032L28.4825 29.8484ZM29.3255 31.8589L28.9252 32.8106L28.06 32.8142L27.6553 31.8667L28.4884 31.2615L29.3255 31.8589ZM24.3302 14.361C24.8309 14.3589 25.2802 14.0369 25.448 13.5596C25.595 13.1414 25.9917 12.8593 26.4351 12.8574L30.3509 12.8409H30.3646C32.1288 12.8409 33.5678 14.2725 33.5753 16.0383L33.5849 18.3106C33.4089 18.3518 33.2109 18.4165 33.0142 18.5176C32.8681 18.5928 32.7083 18.6357 32.5438 18.6446L32.5364 16.9205C32.5319 15.8127 31.6331 14.9211 30.5299 14.9211C30.527 14.9211 30.5241 14.9211 30.5213 14.9211H30.503C30.2031 14.9224 29.9061 14.9703 29.6202 15.0636C28.8562 15.3129 27.977 15.3136 27.2202 15.0737C26.9334 14.9829 26.6353 14.9401 26.3362 14.9386L26.3192 14.9387C25.212 14.9434 24.3151 15.8479 24.3197 16.9551L24.3263 18.5065C23.976 18.3904 23.5943 18.3348 23.2829 18.3086L23.2708 15.4295C23.2681 14.8414 23.7422 14.3635 24.3302 14.361ZM24.053 21.5552C24.0449 21.2375 23.7849 20.9843 23.4674 20.9843C23.4666 20.9843 23.4657 20.9843 23.4648 20.9843L23.1239 20.9857C23.1234 20.9857 23.123 20.9857 23.1225 20.9857C23.0387 20.9857 22.9598 20.9532 22.9002 20.8943C22.8403 20.8349 22.8072 20.7558 22.8069 20.6714L22.8027 19.6723C22.8023 19.5829 22.8377 19.5114 22.8846 19.46C23.4256 19.4744 24.0622 19.5861 24.229 19.7492C24.3722 19.8893 24.5607 19.9634 24.7527 19.9634C24.851 19.9634 24.9503 19.9439 25.0448 19.9039C25.3232 19.7861 25.5023 19.5146 25.501 19.2121L25.4915 16.9503C25.4896 16.4893 25.863 16.1126 26.3241 16.1107C26.3883 16.1152 26.5784 16.0998 26.866 16.1909C27.8528 16.5037 28.9799 16.5054 29.9836 16.1778C30.2647 16.0861 30.517 16.0936 30.5249 16.093H30.5286C30.9866 16.093 31.3626 16.4625 31.3645 16.9255L31.3727 18.8729C31.3747 19.3487 31.7327 19.7485 32.2055 19.8028C32.6723 19.8563 33.1373 19.7722 33.5502 19.5598C33.7104 19.4774 33.881 19.4405 34.0014 19.4239C34.0441 19.4741 34.0758 19.5414 34.0762 19.625L34.0805 20.624C34.0813 20.7981 33.9402 20.9403 33.7661 20.9411L33.4252 20.9425C33.1065 20.9439 32.8473 21.1997 32.8418 21.5184C32.8215 22.6931 32.3276 23.7857 31.4866 24.516C31.3179 24.6625 31.144 24.7951 30.9652 24.9145C29.2487 25.9686 27.5693 25.9177 25.9609 24.9372C25.7802 24.8189 25.6042 24.6872 25.4335 24.5414C24.5864 23.8181 24.0832 22.7296 24.053 21.5552ZM26.2873 38.8279H21.8791L21.8694 36.5104C21.868 36.1876 21.6059 35.9269 21.2835 35.9269C21.2827 35.9269 21.2818 35.9269 21.281 35.9269C20.9573 35.9283 20.6962 36.1918 20.6975 36.5154L20.7073 38.8279H19.6923C19.6905 38.8279 19.6886 38.8279 19.6867 38.8279C18.962 38.8279 18.3706 38.2397 18.3676 37.5142L18.3488 33.0547C18.3433 31.7436 19.1121 30.5488 20.3074 30.0105C20.9834 29.7061 22.0306 29.4561 23.0073 29.2695C23.0036 29.6805 23.1792 30.0739 23.5059 30.352L25.5292 32.074C25.7934 32.2988 26.1191 32.4124 26.4458 32.4124C26.5005 32.4124 26.5551 32.4082 26.6095 32.4018L27.0702 33.4801L26.2873 38.8279ZM26.5886 31.1932C26.4977 31.2592 26.3744 31.2544 26.2888 31.1817L24.2654 29.4597C24.162 29.3718 24.1734 29.2645 24.1894 29.2085C24.2053 29.1527 24.2519 29.0565 24.3843 29.0354C24.5501 29.0104 24.7031 28.9883 24.8389 28.9693L27.4353 30.5781L26.5886 31.1932ZM27.4716 38.8279L28.1805 33.9856L28.8138 33.9829L29.5698 38.8279H27.4716ZM38.2686 38.4114C38.0173 38.6783 37.6908 38.8262 37.3488 38.8279H36.3334L36.3234 36.4495C36.322 36.1268 36.06 35.8661 35.7376 35.8661C35.7367 35.8661 35.7359 35.8661 35.7351 35.8661C35.4114 35.8675 35.1502 36.1309 35.1516 36.4545L35.1616 38.8279H30.7558L29.9197 33.4689L30.3752 32.3859C30.4263 32.3915 30.4775 32.3953 30.5288 32.3953C30.8595 32.3953 31.1889 32.2789 31.4544 32.0492L33.4633 30.3101C33.7876 30.0293 33.9598 29.6344 33.9526 29.2234C34.9309 29.4017 35.9802 29.6429 36.6587 29.9416C37.8585 30.4698 38.6374 31.6582 38.6429 32.9691L38.6616 37.4286C38.6632 37.7861 38.5199 38.1443 38.2686 38.4114Z" fill="url(#paint6_linear_2957_4415)"/>
</g>
<defs>
<linearGradient id="paint0_linear_2957_4415" x1="12.0799" y1="13.8672" x2="12.0799" y2="15.0391" gradientUnits="userSpaceOnUse">
<stop stop-color="#7A3991"/>
<stop offset="1" stop-color="#D2288A"/>
</linearGradient>
<linearGradient id="paint1_linear_2957_4415" x1="12.0799" y1="18.1904" x2="12.0799" y2="19.3623" gradientUnits="userSpaceOnUse">
<stop stop-color="#7A3991"/>
<stop offset="1" stop-color="#D2288A"/>
</linearGradient>
<linearGradient id="paint2_linear_2957_4415" x1="12.0799" y1="22.5127" x2="12.0799" y2="23.6846" gradientUnits="userSpaceOnUse">
<stop stop-color="#7A3991"/>
<stop offset="1" stop-color="#D2288A"/>
</linearGradient>
<linearGradient id="paint3_linear_2957_4415" x1="8.22859" y1="26.8359" x2="8.22859" y2="28.0078" gradientUnits="userSpaceOnUse">
<stop stop-color="#7A3991"/>
<stop offset="1" stop-color="#D2288A"/>
</linearGradient>
<linearGradient id="paint4_linear_2957_4415" x1="8.47152" y1="4.06348" x2="8.47152" y2="8.39879" gradientUnits="userSpaceOnUse">
<stop stop-color="#7A3991"/>
<stop offset="1" stop-color="#D2288A"/>
</linearGradient>
<linearGradient id="paint5_linear_2957_4415" x1="15.6268" y1="0" x2="15.6268" y2="40" gradientUnits="userSpaceOnUse">
<stop stop-color="#7A3991"/>
<stop offset="1" stop-color="#D2288A"/>
</linearGradient>
<linearGradient id="paint6_linear_2957_4415" x1="28.5052" y1="11.6689" x2="28.5052" y2="39.9996" gradientUnits="userSpaceOnUse">
<stop stop-color="#7A3991"/>
<stop offset="1" stop-color="#D2288A"/>
</linearGradient>
<clipPath id="clip0_2957_4415">
<rect width="40" height="40" fill="white"/>
</clipPath>
</defs>
</svg>
