<svg width="40" height="40" viewBox="0 0 40 40" fill="none" xmlns="http://www.w3.org/2000/svg">
<g clip-path="url(#clip0_2959_4683)">
<path d="M9.13852 7.38056C9.46211 7.38056 9.72445 7.11822 9.72445 6.79462C9.72445 6.47103 9.46211 6.20869 9.13852 6.20869C8.81492 6.20869 8.55258 6.47103 8.55258 6.79462C8.55258 7.11822 8.81484 7.38056 9.13852 7.38056ZM4.45102 7.38056C4.77461 7.38056 5.03695 7.11822 5.03695 6.79462C5.03695 6.47103 4.77461 6.20869 4.45102 6.20869C4.12742 6.20869 3.86508 6.47103 3.86508 6.79462C3.86508 7.11822 4.12734 7.38056 4.45102 7.38056ZM6.79477 7.38056C7.11836 7.38056 7.3807 7.11822 7.3807 6.79462C7.3807 6.47103 7.11836 6.20869 6.79477 6.20869C6.47117 6.20869 6.20883 6.47103 6.20883 6.79462C6.20883 7.11822 6.47109 7.38056 6.79477 7.38056ZM6.66625 13.5878C6.66984 13.5879 6.67344 13.5879 6.67703 13.5879L11.9746 13.5892H11.9749C12.3409 13.5892 12.6516 13.3521 12.7483 12.9992C12.845 12.646 12.6982 12.2836 12.3832 12.0973L11.5775 11.6206C12.8725 10.337 13.6009 8.58579 13.5893 6.75095C13.5661 3.08158 10.5628 0.0535288 6.89453 0.000716346C3.09336 -0.053893 0 3.02087 0 6.79478C0 10.4138 2.98188 13.5095 6.66625 13.5878V13.5878ZM2.84766 2.79009C3.92813 1.72509 5.35625 1.15126 6.87773 1.17244C9.91313 1.21611 12.3982 3.72189 12.4174 6.75829C12.4278 8.3965 11.7253 9.95439 10.49 11.0324C10.2834 11.2125 10.1752 11.4829 10.2002 11.7556C10.2252 12.0282 10.3809 12.2742 10.6165 12.4135L10.6223 12.4169L6.68281 12.416C3.63734 12.3575 1.17188 9.84861 1.17188 6.79478C1.17188 5.27751 1.76703 3.85533 2.84766 2.79009V2.79009ZM39.4141 38.8281H38.8281V30.1024C38.8281 27.8163 37.4773 25.7403 35.3801 24.8107L32.2921 23.4872C33.0435 23.2501 33.7223 22.8273 34.2747 22.2408C35.108 21.356 35.5859 20.1555 35.5859 18.947C35.5859 17.8365 35.198 16.7884 34.4638 15.9156C33.5455 14.8252 33.0398 13.4395 33.0398 12.0134V9.20556C33.0398 6.74634 32.0821 4.43478 30.3432 2.69673C28.6043 0.957669 26.2925 1.32211e-05 23.8336 1.32211e-05C18.7577 1.32211e-05 14.6281 4.12954 14.6281 9.20548V11.9219C14.6284 13.3975 14.0485 14.806 13.1062 15.9414C11.9202 17.3703 11.6738 19.3023 12.4632 20.9833C13.0491 22.2311 14.106 23.1276 15.3712 23.507L12.3048 24.8405C10.1535 25.7458 8.76336 27.8388 8.76336 30.1727V37.0704C8.76336 37.394 9.02562 37.6563 9.3493 37.6563C9.67297 37.6563 9.93523 37.394 9.93523 37.0704V30.1727C9.93523 28.3117 11.0437 26.6425 12.7658 25.9179L16.6094 24.2465V27.7735H14.8435C14.3459 27.7735 13.8695 27.9856 13.5366 28.3556C13.2038 28.7256 13.043 29.2217 13.0955 29.7165L14.0614 38.8281H0.585938C0.262266 38.8281 0 39.0905 0 39.4141C0 39.7377 0.262266 40 0.585938 40H39.4141C39.7377 40 40 39.7377 40 39.4141C40 39.0905 39.7377 38.8281 39.4141 38.8281V38.8281ZM33.5673 16.6702C34.1213 17.3288 34.4141 18.116 34.4141 18.9469C34.4141 19.8599 34.0523 20.7676 33.4216 21.4373C32.7538 22.1463 31.8364 22.5367 30.8384 22.5367H30.0748L29.0717 22.1068C28.1955 21.731 27.5962 20.9255 27.4737 19.9982C29.2816 19.0248 30.5134 17.1143 30.5134 14.9211V10.5162C30.6848 10.5278 30.8562 10.5342 31.027 10.5342C31.3088 10.5342 31.5895 10.5181 31.868 10.4866V12.0133C31.868 13.7152 32.4716 15.3691 33.5673 16.6702V16.6702ZM23.976 25.9202C21.8798 25.9574 19.7995 25.6917 17.7813 25.132V23.7369L17.9507 23.6632C17.952 23.6627 17.9534 23.662 17.9548 23.6615L19.0001 23.207C20.1637 22.7011 20.9859 21.665 21.2352 20.4542C21.7455 20.6026 22.284 20.6837 22.8415 20.6837H24.7508C25.3104 20.6837 25.8509 20.602 26.3629 20.4525C26.6204 21.6577 27.4458 22.6845 28.6099 23.1839L29.7255 23.662C29.7262 23.6624 29.727 23.6627 29.7277 23.6629L29.8103 23.6983V25.0168C27.914 25.5818 25.9535 25.8857 23.976 25.9202V25.9202ZM29.8102 26.2368V27.7735H17.7813V26.3454C19.6808 26.8435 21.6311 27.0955 23.5946 27.0955C23.7285 27.0955 23.8625 27.0943 23.9965 27.092C25.9645 27.0576 27.9163 26.77 29.8102 26.2368V26.2368ZM31.868 9.30501C30.254 9.52306 28.4347 9.09072 27.1813 8.11954C26.9255 7.92142 26.5575 7.96798 26.3592 8.22384C26.161 8.47962 26.2077 8.84767 26.4635 9.04587C27.283 9.68072 28.2713 10.1279 29.3415 10.3534V13.5433C29.0599 14.185 28.7465 14.7187 28.0398 15.3017C27.7423 15.5471 27.4167 15.751 27.068 15.9127C26.7832 15.357 26.2048 14.9756 25.5387 14.9756H24.1656C23.2185 14.9756 22.448 15.7461 22.448 16.6931C22.448 17.6402 23.2185 18.4107 24.1656 18.4107H25.5387C26.3358 18.4107 27.0077 17.8649 27.2005 17.1276C27.9844 16.8289 29.2624 15.7635 29.2627 15.7631C28.8659 17.8933 26.9944 19.5115 24.7509 19.5115H22.8414C20.3102 19.5115 18.2508 17.4522 18.2508 14.9209V10.3917C20.2409 10.0797 22.1209 9.40626 23.8452 8.38642C26.4705 6.83353 28.1545 4.80431 29.1707 3.20111C30.9095 4.74978 31.8987 6.97001 31.868 9.30501V9.30501ZM26.0843 16.6948C26.0834 16.995 25.8391 17.239 25.5387 17.239H24.1655C23.8646 17.239 23.6198 16.9942 23.6198 16.6933C23.6198 16.3924 23.8647 16.1476 24.1655 16.1476H25.5387C25.839 16.1476 26.0833 16.3914 26.0843 16.6915V16.6948ZM15.8 9.20548C15.8 4.77572 19.4038 1.17189 23.8336 1.17189C25.4223 1.17189 26.9404 1.63048 28.2377 2.48423C27.3024 3.98337 25.7283 5.91119 23.2485 7.37806C21.5473 8.38431 19.6813 9.02673 17.7021 9.28751H17.6655C17.6653 9.28751 17.6651 9.28751 17.6648 9.28751C17.6645 9.28751 17.6643 9.28751 17.664 9.28751H15.7999V9.20548H15.8ZM13.5238 20.4852C12.9297 19.2197 13.1152 17.7654 14.0072 16.6907C15.1265 15.3422 15.8013 13.676 15.8 11.9219V10.4594H17.0789V14.9211C17.0789 17.1156 18.3123 19.027 20.1218 19.9999C20.0086 20.9342 19.411 21.7503 18.5327 22.1322L17.6024 22.5367H16.7531C15.3555 22.5367 14.1181 21.7506 13.5238 20.4852V20.4852ZM33.9212 29.5931L32.9423 38.8281H15.2398L14.2609 29.5931C14.2431 29.4256 14.2953 29.2645 14.4079 29.1395C14.5205 29.0143 14.6752 28.9454 14.8435 28.9454H33.3386C33.5069 28.9454 33.6616 29.0143 33.7742 29.1395C33.8868 29.2645 33.939 29.4256 33.9212 29.5931ZM37.6562 38.8281H34.1207L35.0866 29.7167C35.1391 29.2217 34.9782 28.7257 34.6455 28.3557C34.3126 27.9857 33.8363 27.7735 33.3386 27.7735H30.982V24.2006L34.9118 25.8849C36.579 26.624 37.6562 28.2794 37.6562 30.1024V38.8281ZM24.091 31.6602C22.8633 31.6602 21.8645 32.659 21.8645 33.8867C21.8645 35.1145 22.8633 36.1133 24.091 36.1133C25.3187 36.1133 26.3176 35.1145 26.3176 33.8867C26.3176 32.659 25.3187 31.6602 24.091 31.6602ZM24.091 34.9414C23.5095 34.9414 23.0363 34.4683 23.0363 33.8867C23.0363 33.3052 23.5095 32.832 24.091 32.832C24.6726 32.832 25.1457 33.3052 25.1457 33.8867C25.1457 34.4683 24.6727 34.9414 24.091 34.9414Z" fill="url(#paint0_linear_2959_4683)"/>
</g>
<defs>
<linearGradient id="paint0_linear_2959_4683" x1="20" y1="0" x2="20" y2="40" gradientUnits="userSpaceOnUse">
<stop stop-color="#7A3991"/>
<stop offset="1" stop-color="#D2288A"/>
</linearGradient>
<clipPath id="clip0_2959_4683">
<rect width="40" height="40" fill="white"/>
</clipPath>
</defs>
</svg>
