<svg width="42" height="42" viewBox="0 0 42 42" fill="none" xmlns="http://www.w3.org/2000/svg">
<g clip-path="url(#clip0_2959_4684)">
<path d="M38.1112 22.1191H34.0834V17.9318C34.4402 18.3325 34.9347 18.5484 35.446 18.5484C35.6636 18.5484 35.8844 18.5093 36.0986 18.4288C36.8209 18.1573 37.2875 17.4835 37.2875 16.7122V15.2738C39.791 15.2295 41.8138 13.1793 41.8138 10.6654V5.48029C41.8138 2.93887 39.7462 0.871176 37.2047 0.871176H26.8156C24.2743 0.871176 22.2066 2.93879 22.2066 5.48029V9.07205H16.6795C16.6888 8.96443 16.6944 8.8559 16.6944 8.74589V4.64472C16.6944 2.5639 15.0015 0.871094 12.9207 0.871094H4.70386C2.62313 0.871094 0.93024 2.5639 0.93024 4.64472V8.74598C0.93024 10.8268 2.62313 12.5196 4.70386 12.5196H7.52953C7.09172 13.3859 6.86286 14.3413 6.86286 15.3344V18.9159H5.70941C2.56128 18.9159 0 21.4775 0 24.6262V31.242C0 34.3907 2.56128 36.9523 5.70941 36.9523H5.77503V38.9563C5.77503 39.8691 6.32727 40.6665 7.18204 40.9876C7.43536 41.0827 7.69622 41.1289 7.95355 41.1289C8.56444 41.1289 9.1554 40.8686 9.57819 40.3853L12.5838 36.9522H15.2521C15.5919 36.9522 15.8673 36.6767 15.8673 36.3369C15.8673 35.9972 15.5919 35.7217 15.2521 35.7217H12.3048C12.1274 35.7217 11.9587 35.7982 11.8419 35.9317L8.65221 39.575C8.25493 40.0292 7.75774 39.8894 7.61476 39.8357C7.47186 39.7819 7.00551 39.5599 7.00551 38.9563V36.337C7.00551 35.9972 6.73013 35.7218 6.39027 35.7218H5.70941C3.23976 35.7218 1.23048 33.7122 1.23048 31.242V24.6262C1.23048 22.156 3.23968 20.1464 5.70941 20.1464H6.86277V22.6689C6.86277 26.1228 9.67236 28.9328 13.1259 28.9328H20.2303L23.2866 32.425C22.7607 34.3518 20.9891 35.7217 18.9649 35.7217H17.6787C17.3388 35.7217 17.0634 35.9972 17.0634 36.3369C17.0634 36.6767 17.3388 36.9522 17.6787 36.9522H18.965C21.3422 36.9522 23.4467 35.4694 24.2874 33.3143C24.6066 33.4774 24.9595 33.5638 25.3251 33.5638C25.4103 33.5638 25.4962 33.5591 25.5825 33.5497C26.0575 33.4977 26.4968 33.3073 26.8496 33.0136C27.5296 33.6926 28.4393 34.1003 29.4153 34.1446V35.2171C29.4153 35.8963 29.8261 36.4894 30.4619 36.7284C30.6505 36.7993 30.8446 36.8336 31.0361 36.8336C31.4906 36.8336 31.9304 36.64 32.245 36.2804L34.1099 34.1487H38.1112C40.2555 34.1487 42 32.4041 42 30.2598V26.0087C42 23.864 40.2554 22.1191 38.1112 22.1191V22.1191ZM2.16072 8.74598V4.64472C2.16072 3.24239 3.30153 2.10157 4.70386 2.10157H12.9207C14.3231 2.10157 15.4639 3.24239 15.4639 4.64472V8.74598C15.4639 10.1483 14.3231 11.2891 12.9207 11.2891H12.4991C12.1592 11.2891 11.8839 11.5646 11.8839 11.9044V13.5279C11.8839 13.746 11.7257 13.829 11.6577 13.8545C11.5897 13.88 11.4161 13.9219 11.2724 13.7577L9.29584 11.4992C9.17902 11.3657 9.01028 11.2891 8.83285 11.2891H4.70386C3.30153 11.2891 2.16072 10.1482 2.16072 8.74598V8.74598ZM25.4487 32.3265C25.2399 32.3492 24.8397 32.3308 24.5059 31.9492L20.9725 27.9124C20.8557 27.7789 20.6869 27.7023 20.5095 27.7023H13.1258C10.3508 27.7023 8.09317 25.4443 8.09317 22.6688V15.3344C8.09317 14.4245 8.33098 13.5539 8.78543 12.7844L10.3464 14.568C10.6542 14.9198 11.0844 15.1093 11.5289 15.1093C11.7162 15.1093 11.9062 15.0756 12.0905 15.0064C12.7124 14.7727 13.1142 14.1924 13.1142 13.5279V12.5146C14.5574 12.4413 15.7886 11.5532 16.3574 10.3025H27.8202C27.8783 10.3025 27.9363 10.3031 27.9937 10.306C28.0039 10.3065 28.0141 10.3067 28.0242 10.3067C28.3502 10.3067 28.6221 10.0506 28.6382 9.7215C28.6547 9.38213 28.3931 9.09354 28.0536 9.07697C27.9848 9.07361 27.9128 9.07213 27.8202 9.07213H23.437V5.48029C23.437 3.61735 24.9526 2.10165 26.8155 2.10165H37.2047C39.0676 2.10165 40.5833 3.61727 40.5833 5.48029V10.6654C40.5833 12.5284 39.0676 14.0441 37.2047 14.0441H36.6723C36.3324 14.0441 36.057 14.3195 36.057 14.6593V16.7122C36.057 17.0998 35.7575 17.2425 35.6657 17.277C35.5738 17.3116 35.254 17.4017 34.9984 17.1098L34.0834 16.0638V15.3344C34.0834 12.9415 32.7517 10.7923 30.6078 9.72552C30.3035 9.57417 29.9343 9.69812 29.7828 10.0023C29.6315 10.3065 29.7554 10.6759 30.0596 10.8272C31.7825 11.6845 32.8529 13.4116 32.8529 15.3344V22.6689C32.8529 22.6836 32.853 22.6977 32.8525 22.7123C32.8523 22.7174 32.8521 22.7225 32.8521 22.7276C32.8215 25.4707 30.5641 27.7024 27.8202 27.7024H27.0655C26.7257 27.7024 26.4503 27.9778 26.4503 28.3176V31.2207C26.4503 31.418 26.4056 31.599 26.3167 31.7603C26.1474 32.0695 25.8147 32.2865 25.4487 32.3265V32.3265ZM40.7695 30.2598C40.7695 31.7256 39.577 32.9182 38.1112 32.9182H33.8307C33.6533 32.9182 33.4844 32.9948 33.3676 33.1284L31.3189 35.4702C31.1608 35.6508 30.9695 35.6048 30.8945 35.5767C30.8197 35.5485 30.6456 35.4571 30.6456 35.2173V33.5335C30.6456 33.1937 30.3702 32.9183 30.0303 32.9183H29.5935C28.8022 32.9183 28.0634 32.5696 27.561 31.9727C27.6403 31.7349 27.6808 31.4835 27.6808 31.2207V28.9328H27.8202C29.4802 28.9328 31.0445 28.2897 32.2248 27.1219C33.2587 26.0989 33.893 24.777 34.0463 23.3497H38.1111C39.5769 23.3497 40.7694 24.5426 40.7694 26.0089V30.2598H40.7695Z" fill="url(#paint0_linear_2959_4684)"/>
<path d="M19.0782 15.7306C19.0761 15.7249 19.0738 15.7193 19.0715 15.7137C18.9524 15.424 18.6714 15.2341 18.3597 15.2373C18.0465 15.2377 17.7673 15.4252 17.6487 15.7152C17.6468 15.7199 17.6449 15.7245 17.6432 15.7292L15.0961 22.4167C14.9751 22.7343 15.1346 23.0897 15.4521 23.2106C15.7696 23.3314 16.1251 23.1721 16.2461 22.8547L16.7295 21.5854H19.9726L20.451 22.853C20.5439 23.0993 20.778 23.2511 21.0267 23.2511C21.0989 23.2511 21.1723 23.2383 21.2438 23.2114C21.5617 23.0913 21.7221 22.7364 21.6021 22.4185L19.0782 15.7306ZM17.1981 20.3549L18.3584 17.3083L19.5082 20.3549H17.1981Z" fill="url(#paint1_linear_2959_4684)"/>
<path d="M14.42 15.3262H11.6909C11.3511 15.3262 11.0757 15.6016 11.0757 15.9414V22.6748C11.0757 23.0146 11.3511 23.29 11.6909 23.29C12.0308 23.29 12.3062 23.0146 12.3062 22.6748V19.8595H14.2032C14.5431 19.8595 14.8184 19.5841 14.8184 19.2443C14.8184 18.9045 14.5431 18.6291 14.2032 18.6291H12.3062V16.5566H14.42C14.7599 16.5566 15.0352 16.2811 15.0352 15.9413C15.0352 15.6016 14.7599 15.3262 14.42 15.3262V15.3262Z" fill="url(#paint2_linear_2959_4684)"/>
<path d="M28.8195 23.1077C28.9396 23.2279 29.0971 23.2879 29.2546 23.2879C29.412 23.2879 29.5695 23.2279 29.6896 23.1077C29.9299 22.8674 29.9299 22.4779 29.6897 22.2377L29.0923 21.6402C29.5646 20.9828 29.8437 20.1779 29.8437 19.3086C29.8437 17.0992 28.0462 15.3018 25.8369 15.3018C23.6275 15.3018 21.8301 17.0992 21.8301 19.3086C21.8301 21.5179 23.6275 23.3153 25.8369 23.3153C26.7337 23.3153 27.5628 23.0191 28.2311 22.5194L28.8195 23.1077ZM25.8369 22.0848C24.306 22.0848 23.0605 20.8393 23.0605 19.3085C23.0605 17.7776 24.306 16.5321 25.8369 16.5321C27.3678 16.5321 28.6132 17.7776 28.6132 19.3085C28.6132 19.8378 28.4643 20.3327 28.2062 20.754L27.5198 20.0676C27.2795 19.8273 26.8899 19.8273 26.6497 20.0676C26.4094 20.3079 26.4094 20.6974 26.6497 20.9376L27.3478 21.6358C26.9126 21.9193 26.3939 22.0848 25.8369 22.0848V22.0848Z" fill="url(#paint3_linear_2959_4684)"/>
</g>
<defs>
<linearGradient id="paint0_linear_2959_4684" x1="21" y1="0.871094" x2="21" y2="41.1289" gradientUnits="userSpaceOnUse">
<stop stop-color="#7A3991"/>
<stop offset="1" stop-color="#D2288A"/>
</linearGradient>
<linearGradient id="paint1_linear_2959_4684" x1="18.3488" y1="15.2373" x2="18.3488" y2="23.2511" gradientUnits="userSpaceOnUse">
<stop stop-color="#7A3991"/>
<stop offset="1" stop-color="#D2288A"/>
</linearGradient>
<linearGradient id="paint2_linear_2959_4684" x1="13.0555" y1="15.3262" x2="13.0555" y2="23.29" gradientUnits="userSpaceOnUse">
<stop stop-color="#7A3991"/>
<stop offset="1" stop-color="#D2288A"/>
</linearGradient>
<linearGradient id="paint3_linear_2959_4684" x1="25.85" y1="15.3018" x2="25.85" y2="23.3153" gradientUnits="userSpaceOnUse">
<stop stop-color="#7A3991"/>
<stop offset="1" stop-color="#D2288A"/>
</linearGradient>
<clipPath id="clip0_2959_4684">
<rect width="42" height="42" fill="white"/>
</clipPath>
</defs>
</svg>
