<svg width="42" height="42" viewBox="0 0 42 42" fill="none" xmlns="http://www.w3.org/2000/svg">
<path d="M34.4294 14.3797H27.4245C27.274 14.3797 27.1296 14.3199 27.0232 14.2135C26.9167 14.107 26.8569 13.9627 26.8569 13.8121V6.81061C26.857 6.69837 26.8903 6.58866 26.9526 6.49535C27.015 6.40204 27.1036 6.32931 27.2073 6.28636C27.311 6.24341 27.4251 6.23217 27.5352 6.25406C27.6453 6.27595 27.7464 6.32999 27.8258 6.40934L34.8307 13.4109C34.91 13.4902 34.9641 13.5913 34.986 13.7014C35.0079 13.8115 34.9966 13.9256 34.9537 14.0293C34.9107 14.133 34.838 14.2216 34.7447 14.284C34.6514 14.3464 34.5417 14.3797 34.4294 14.3797ZM27.9921 13.2446H33.0593L27.9921 8.17788V13.2446Z" fill="url(#paint0_linear_2959_4678)"/>
<path d="M34.4283 40.8646H7.57099C7.42046 40.8646 7.27609 40.8048 7.16965 40.6984C7.06322 40.5919 7.00342 40.4476 7.00342 40.297L7.01477 6.80487C7.01477 6.65434 7.07457 6.50998 7.18101 6.40354C7.28745 6.2971 7.43181 6.2373 7.58234 6.2373H10.9026C11.0531 6.2373 11.1975 6.2971 11.3039 6.40354C11.4104 6.50998 11.4702 6.65434 11.4702 6.80487C11.4702 6.9554 11.4104 7.09976 11.3039 7.2062C11.1975 7.31264 11.0531 7.37244 10.9026 7.37244H8.1499L8.13855 39.7295H33.8607V14.0453L27.1895 7.37414H15.3523C15.2018 7.37414 15.0574 7.31435 14.951 7.20791C14.8446 7.10147 14.7848 6.9571 14.7848 6.80658C14.7848 6.65605 14.8446 6.51168 14.951 6.40524C15.0574 6.2988 15.2018 6.23901 15.3523 6.23901H27.4245C27.575 6.23904 27.7194 6.29886 27.8258 6.4053L34.8296 13.4085C34.8823 13.4613 34.9242 13.5239 34.9527 13.5929C34.9813 13.6618 34.9959 13.7357 34.9959 13.8104V40.297C34.9959 40.4476 34.9361 40.5919 34.8296 40.6984C34.7232 40.8048 34.5788 40.8646 34.4283 40.8646Z" fill="url(#paint1_linear_2959_4678)"/>
<path d="M30.9271 22.5228H11.0725C10.9219 22.5228 10.7776 22.463 10.6711 22.3566C10.5647 22.2502 10.5049 22.1058 10.5049 21.9553C10.5049 21.8047 10.5647 21.6604 10.6711 21.5539C10.7776 21.4475 10.9219 21.3877 11.0725 21.3877H30.9271C31.0776 21.3877 31.222 21.4475 31.3284 21.5539C31.4349 21.6604 31.4947 21.8047 31.4947 21.9553C31.4947 22.1058 31.4349 22.2502 31.3284 22.3566C31.222 22.463 31.0776 22.5228 30.9271 22.5228Z" fill="url(#paint2_linear_2959_4678)"/>
<path d="M30.9271 27.0629H11.0725C10.9219 27.0629 10.7776 27.0031 10.6711 26.8966C10.5647 26.7902 10.5049 26.6458 10.5049 26.4953C10.5049 26.3448 10.5647 26.2004 10.6711 26.094C10.7776 25.9875 10.9219 25.9277 11.0725 25.9277H30.9271C31.0776 25.9277 31.222 25.9875 31.3284 26.094C31.4349 26.2004 31.4947 26.3448 31.4947 26.4953C31.4947 26.6458 31.4349 26.7902 31.3284 26.8966C31.222 27.0031 31.0776 27.0629 30.9271 27.0629Z" fill="url(#paint3_linear_2959_4678)"/>
<path d="M30.9271 31.6039H11.0725C10.9219 31.6039 10.7776 31.5441 10.6711 31.4376C10.5647 31.3312 10.5049 31.1868 10.5049 31.0363C10.5049 30.8858 10.5647 30.7414 10.6711 30.635C10.7776 30.5285 10.9219 30.4688 11.0725 30.4688H30.9271C31.0776 30.4688 31.222 30.5285 31.3284 30.635C31.4349 30.7414 31.4947 30.8858 31.4947 31.0363C31.4947 31.1868 31.4349 31.3312 31.3284 31.4376C31.222 31.5441 31.0776 31.6039 30.9271 31.6039Z" fill="url(#paint4_linear_2959_4678)"/>
<path d="M30.9271 36.1439H11.0725C10.9219 36.1439 10.7776 36.0841 10.6711 35.9777C10.5647 35.8712 10.5049 35.7269 10.5049 35.5764C10.5049 35.4258 10.5647 35.2815 10.6711 35.175C10.7776 35.0686 10.9219 35.0088 11.0725 35.0088H30.9271C31.0776 35.0088 31.222 35.0686 31.3284 35.175C31.4349 35.2815 31.4947 35.4258 31.4947 35.5764C31.4947 35.7269 31.4349 35.8712 31.3284 35.9777C31.222 36.0841 31.0776 36.1439 30.9271 36.1439Z" fill="url(#paint5_linear_2959_4678)"/>
<path d="M10.4534 6.26587C10.3658 6.26687 10.2791 6.24744 10.2003 6.20911L7.88008 5.04787C7.78225 4.99917 7.70056 4.92327 7.64481 4.82927C7.58907 4.73527 7.56165 4.62718 7.56585 4.51798C7.57004 4.40878 7.60568 4.30311 7.66847 4.21367C7.73125 4.12422 7.81853 4.05481 7.91981 4.01376L14.9145 1.17592C15.0157 1.1346 15.1267 1.12337 15.2341 1.14358C15.3415 1.1638 15.4408 1.2146 15.52 1.28989C15.5993 1.36517 15.6551 1.46174 15.6808 1.56798C15.7065 1.67422 15.7009 1.78562 15.6648 1.88879L14.8078 4.33671C14.7815 4.41311 14.7392 4.48301 14.6837 4.54173C14.6282 4.60046 14.5608 4.64666 14.486 4.67725L10.668 6.22671C10.5997 6.25351 10.5268 6.26681 10.4534 6.26587V6.26587ZM9.51127 4.59325L10.4761 5.07568L13.8185 3.71919L14.1755 2.69757L9.51127 4.59325Z" fill="url(#paint6_linear_2959_4678)"/>
<path d="M11.931 9.91033C11.8181 9.91026 11.7078 9.87652 11.6142 9.81344C11.5206 9.75035 11.4479 9.66078 11.4054 9.55617L9.92636 5.91238C9.87023 5.77305 9.87164 5.61715 9.93025 5.47884C9.98887 5.34054 10.0999 5.23111 10.2391 5.17455L14.0571 3.62509C14.1964 3.56896 14.3523 3.57037 14.4907 3.62899C14.629 3.6876 14.7384 3.79866 14.7949 3.93782L16.2706 7.57763C16.3272 7.71717 16.3261 7.87347 16.2674 8.01217C16.2088 8.15086 16.0974 8.26057 15.9579 8.31717C15.8184 8.37377 15.662 8.37261 15.5234 8.31397C15.3847 8.25532 15.275 8.14398 15.2184 8.00444L13.9578 4.88849L11.192 6.01114L12.4571 9.12936C12.4921 9.21554 12.5054 9.309 12.4957 9.40151C12.4861 9.49401 12.4539 9.58274 12.4019 9.65988C12.35 9.73701 12.2798 9.8002 12.1977 9.84387C12.1156 9.88754 12.024 9.91037 11.931 9.91033V9.91033Z" fill="url(#paint7_linear_2959_4678)"/>
<path d="M17.4633 18.0585C17.3754 18.0588 17.2887 18.0388 17.2099 17.9998C17.1311 17.9609 17.0624 17.9043 17.0092 17.8343L12.7423 12.2154C12.6895 12.146 12.6534 12.0653 12.6368 11.9797C12.6202 11.8941 12.6236 11.8058 12.6467 11.7217C12.6697 11.6376 12.7118 11.56 12.7698 11.4948C12.8277 11.4296 12.8999 11.3787 12.9807 11.3459L16.3923 9.96158C16.4728 9.9289 16.5598 9.91515 16.6465 9.92139C16.7331 9.92762 16.8172 9.95368 16.8922 9.99755C16.9673 10.0414 17.0312 10.1019 17.0791 10.1744C17.1271 10.2469 17.1577 10.3294 17.1687 10.4156L18.0263 17.4245C18.0415 17.5483 18.0155 17.6736 17.9523 17.7812C17.8891 17.8887 17.7922 17.9724 17.6767 18.0193C17.6087 18.0458 17.5363 18.0591 17.4633 18.0585V18.0585ZM14.0965 12.12L16.6449 15.4761L16.1341 11.2931L14.0965 12.12Z" fill="url(#paint8_linear_2959_4678)"/>
<path d="M10.8408 13.3946C10.7069 13.3947 10.5773 13.3475 10.4749 13.2613C10.3725 13.1751 10.3039 13.0555 10.2811 12.9236C10.1314 11.81 10.3636 10.6786 10.9398 9.71401C11.5161 8.74945 12.4023 8.00875 13.4538 7.61283C14.4839 7.16396 15.6357 7.07756 16.7212 7.36774C17.8066 7.65792 18.7617 8.30755 19.4303 9.21053C19.4783 9.28052 19.5099 9.36036 19.523 9.44419C19.536 9.52802 19.5301 9.61371 19.5056 9.69495C19.4812 9.77619 19.4388 9.85092 19.3817 9.91363C19.3246 9.97635 19.2541 10.0255 19.1755 10.0573L11.0547 13.3549C10.9866 13.3818 10.914 13.3952 10.8408 13.3946V13.3946ZM15.4778 8.35067C14.9301 8.35144 14.3877 8.45821 13.8806 8.6651C13.1889 8.92856 12.5853 9.38156 12.1391 9.9722C11.6929 10.5628 11.4222 11.2672 11.3578 12.0047L18.0182 9.30191C17.3205 8.67827 16.4141 8.33939 15.4783 8.35237L15.4778 8.35067Z" fill="url(#paint9_linear_2959_4678)"/>
<defs>
<linearGradient id="paint0_linear_2959_4678" x1="30.9269" y1="6.24316" x2="30.9269" y2="14.3797" gradientUnits="userSpaceOnUse">
<stop stop-color="#7A3991"/>
<stop offset="1" stop-color="#D2288A"/>
</linearGradient>
<linearGradient id="paint1_linear_2959_4678" x1="20.9996" y1="6.2373" x2="20.9996" y2="40.8646" gradientUnits="userSpaceOnUse">
<stop stop-color="#7A3991"/>
<stop offset="1" stop-color="#D2288A"/>
</linearGradient>
<linearGradient id="paint2_linear_2959_4678" x1="20.9998" y1="21.3877" x2="20.9998" y2="22.5228" gradientUnits="userSpaceOnUse">
<stop stop-color="#7A3991"/>
<stop offset="1" stop-color="#D2288A"/>
</linearGradient>
<linearGradient id="paint3_linear_2959_4678" x1="20.9998" y1="25.9277" x2="20.9998" y2="27.0629" gradientUnits="userSpaceOnUse">
<stop stop-color="#7A3991"/>
<stop offset="1" stop-color="#D2288A"/>
</linearGradient>
<linearGradient id="paint4_linear_2959_4678" x1="20.9998" y1="30.4688" x2="20.9998" y2="31.6039" gradientUnits="userSpaceOnUse">
<stop stop-color="#7A3991"/>
<stop offset="1" stop-color="#D2288A"/>
</linearGradient>
<linearGradient id="paint5_linear_2959_4678" x1="20.9998" y1="35.0088" x2="20.9998" y2="36.1439" gradientUnits="userSpaceOnUse">
<stop stop-color="#7A3991"/>
<stop offset="1" stop-color="#D2288A"/>
</linearGradient>
<linearGradient id="paint6_linear_2959_4678" x1="11.6311" y1="1.13379" x2="11.6311" y2="6.26592" gradientUnits="userSpaceOnUse">
<stop stop-color="#7A3991"/>
<stop offset="1" stop-color="#D2288A"/>
</linearGradient>
<linearGradient id="paint7_linear_2959_4678" x1="13.0988" y1="3.58398" x2="13.0988" y2="9.91033" gradientUnits="userSpaceOnUse">
<stop stop-color="#7A3991"/>
<stop offset="1" stop-color="#D2288A"/>
</linearGradient>
<linearGradient id="paint8_linear_2959_4678" x1="15.3285" y1="9.91992" x2="15.3285" y2="18.0585" gradientUnits="userSpaceOnUse">
<stop stop-color="#7A3991"/>
<stop offset="1" stop-color="#D2288A"/>
</linearGradient>
<linearGradient id="paint9_linear_2959_4678" x1="14.8833" y1="7.19922" x2="14.8833" y2="13.3947" gradientUnits="userSpaceOnUse">
<stop stop-color="#7A3991"/>
<stop offset="1" stop-color="#D2288A"/>
</linearGradient>
</defs>
</svg>
