<svg width="40" height="40" viewBox="0 0 40 40" fill="none" xmlns="http://www.w3.org/2000/svg">
<g clip-path="url(#clip0_2959_4665)">
<path d="M14.9375 19.5625C15.625 20.25 16.5625 20.625 17.5 20.625C18.4375 20.625 19.375 20.25 20.0625 19.5625L21.375 18.25C22.5 17.125 23.125 15.625 23.125 14.0625V12.5C23.125 10.5 22.0625 8.625 20.3125 7.625C20 7.4375 19.625 7.5625 19.4375 7.875C19.25 8.1875 19.375 8.5625 19.6875 8.75C20.875 9.4375 21.6875 10.625 21.8125 12C21.375 12.0625 21 12.0625 20.625 12.0625C18.3125 12.0625 16.625 11.4375 15.9375 10.8125C15.75 10.625 15.4375 10.625 15.1875 10.75C14.75 11.0625 14.0625 11.25 13.25 11.375C13.75 9.5 15.4375 8.125 17.5 8.125C17.875 8.125 18.125 7.875 18.125 7.5C18.125 7.125 17.875 6.875 17.5 6.875C14.375 6.875 11.875 9.375 11.875 12.5V14.0625C11.875 15.625 12.5 17.0625 13.5625 18.1875L14.9375 19.5625ZM13.125 12.625C14.0625 12.5 14.875 12.3125 15.5 12C16.625 12.8125 18.5625 13.25 20.625 13.25C21.0625 13.25 21.4375 13.25 21.875 13.1875V14.0625C21.875 15.3125 21.375 16.4375 20.5 17.3125L19.1875 18.625C18.75 19.125 18.125 19.375 17.5 19.375C16.875 19.375 16.25 19.125 15.8125 18.6875L14.5 17.375C13.625 16.5 13.125 15.375 13.125 14.125V12.625Z" fill="url(#paint0_linear_2959_4665)"/>
<path d="M19.25 33.0001C18.6875 33.0626 18.0625 33.1251 17.5 33.1251C14 33.1251 10.75 31.9376 8.125 30.0001V28.6876C8.125 25.8126 10.375 23.4376 13.1875 23.1876C13.5 25.3126 15.3125 26.9376 17.5 26.9376C19.6875 26.9376 21.5 25.3126 21.8125 23.1876C22.125 23.1876 22.4375 22.9376 22.4375 22.6251C22.4375 22.2501 22.1875 22.0001 21.875 21.9376C21.6875 21.9376 13.6875 21.9376 13.6875 21.9376C6.75 22.5001 6.875 28.9376 6.875 28.9376C3.8125 26.0626 1.875 22.0001 1.875 17.5001C1.875 11.1876 5.625 5.56259 11.375 3.12509C11.6875 3.00009 11.8125 2.62509 11.6875 2.31259C11.5625 2.00009 11.25 1.81259 10.9375 1.93759C4.6875 4.62509 0.625 10.6876 0.625 17.5001C0.625 26.8126 8.1875 34.3751 17.5 34.3751C18.125 34.3751 18.8125 34.3126 19.4375 34.2501C19.75 34.1876 20 33.8751 20 33.5626C19.9375 33.2501 19.625 33.0001 19.25 33.0001V33.0001ZM20.5625 23.1251C20.25 24.5626 19 25.6251 17.5 25.6251C16 25.6251 14.75 24.5626 14.4375 23.1251H20.5625Z" fill="url(#paint1_linear_2959_4665)"/>
<path d="M30.0626 11.9375C29.7501 12.0625 29.5626 12.4375 29.6876 12.75C29.8751 13.1875 30.0001 13.5625 30.0626 13.9375C30.1251 14.1875 30.4376 14.5 30.8126 14.375C31.1251 14.3125 31.3126 13.9375 31.2501 13.625C31.1251 13.1875 31.0001 12.8125 30.8126 12.3125C30.7501 11.9375 30.4376 11.8125 30.0626 11.9375V11.9375Z" fill="url(#paint2_linear_2959_4665)"/>
<path d="M20.1249 3.37488C19.7499 3.31238 19.4374 3.56238 19.3749 3.87488C19.3124 4.18738 19.5624 4.56238 19.8749 4.62488C23.2499 5.24988 26.2499 7.12488 28.2499 9.99988C28.3749 10.1874 28.6874 10.3749 29.1249 10.1249C29.4374 9.99988 29.4999 9.56238 29.2499 9.24988C27.0624 6.12488 23.8124 4.06238 20.1249 3.37488V3.37488Z" fill="url(#paint3_linear_2959_4665)"/>
<path d="M3.875 15.625C3.5 15.625 3.25 15.875 3.1875 16.1875C3.125 16.625 3.125 17.0625 3.125 17.5C3.125 19.3125 3.4375 21.0625 4.125 22.75C4.25 23 4.5 23.25 4.9375 23.125C5.25 23 5.4375 22.625 5.3125 22.3125C4.6875 20.75 4.375 19.125 4.375 17.5C4.375 17.125 4.375 16.6875 4.4375 16.3125C4.4375 15.9375 4.1875 15.6875 3.875 15.625V15.625Z" fill="url(#paint4_linear_2959_4665)"/>
<path d="M30 20.625C24.8125 20.625 20.625 24.8125 20.625 30C20.625 34.125 23.375 37.8125 27.3125 39C27.625 39.125 28 38.9375 28.0625 38.5625C28.125 38.1875 28 37.875 27.625 37.8125C24.25 36.75 21.875 33.5625 21.875 30C21.875 25.5 25.5 21.875 30 21.875C34.5 21.875 38.125 25.5 38.125 30C38.125 34.5 34.5 38.125 30 38.125C29.625 38.125 29.375 38.375 29.375 38.75C29.375 39.125 29.625 39.375 30 39.375C35.1875 39.375 39.375 35.1875 39.375 30C39.375 24.8125 35.1875 20.625 30 20.625V20.625Z" fill="url(#paint5_linear_2959_4665)"/>
<path d="M17.5 1.875C26.125 1.875 33.125 8.875 33.125 17.5C33.125 18.125 33.0625 18.6875 33 19.3125C32.9375 19.625 33.1875 20 33.625 20C33.9375 20 34.1875 19.75 34.25 19.4375C34.3125 18.8125 34.375 18.125 34.375 17.5C34.375 8.1875 26.8125 0.625 17.5 0.625C17.125 0.625 16.875 0.875 16.875 1.25C16.875 1.625 17.125 1.875 17.5 1.875Z" fill="url(#paint6_linear_2959_4665)"/>
<path d="M13.7502 2.31238C13.8127 2.31238 14.6877 2.12488 15.0627 2.06238C15.3752 1.99988 15.6252 1.68738 15.5627 1.37488C15.5002 1.06238 15.1877 0.812376 14.8752 0.874876C14.4377 0.937376 14.0002 0.999876 13.6252 1.12488C13.3127 1.18738 13.0627 1.56238 13.1877 1.87488C13.1877 2.12488 13.4377 2.31238 13.7502 2.31238Z" fill="url(#paint7_linear_2959_4665)"/>
<path d="M25.125 34.875C26.0625 35.75 27.4375 35.25 27.75 34.875L29.9375 32.6875L32.125 34.875C33.1875 35.75 34.4375 35.25 34.75 34.875C35.5 34.125 35.5 32.9375 34.75 32.25L32.625 30L34.8125 27.8125C35.75 26.75 35.1875 25.5 34.8125 25.1875C34.0625 24.4375 32.875 24.4375 32.1875 25.1875L31.125 26.25C30.875 26.5 30.875 26.875 31.125 27.125C31.375 27.375 31.75 27.375 32 27.125L33.0625 26.0625C33.3125 25.8125 33.6875 25.8125 33.9375 26.0625C34.0625 26.1875 34.25 26.625 33.9375 26.9375L31.3125 29.625C31.0625 29.875 31.0625 30.25 31.3125 30.5L33.9375 33.125C34.1875 33.375 34.1875 33.75 33.9375 34C33.8125 34.125 33.5 34.375 33.0625 34L30.375 31.375C30.125 31.125 29.75 31.125 29.5 31.375L26.875 34C26.625 34.25 26.25 34.25 26 34C25.75 33.75 25.75 33.375 26 33.125L28.625 30.5C28.875 30.25 28.875 29.875 28.625 29.625L26 27C25.75 26.75 25.75 26.375 26 26.125C26.4375 25.6875 26.75 26 26.875 26.125L29.5625 28.75C29.8125 29 30.1875 29 30.4375 28.75C30.6875 28.5 30.6875 28.125 30.4375 27.875L27.8125 25.25C26.625 24.3125 25.5 24.875 25.1875 25.25C24.4375 26 24.4375 27.1875 25.1875 27.875L27.375 30.0625L25.1875 32.25C24.4375 32.9375 24.375 34.125 25.125 34.875V34.875Z" fill="url(#paint8_linear_2959_4665)"/>
</g>
<defs>
<linearGradient id="paint0_linear_2959_4665" x1="17.5" y1="6.875" x2="17.5" y2="20.625" gradientUnits="userSpaceOnUse">
<stop offset="0.0001" stop-color="#7A3991"/>
<stop offset="1" stop-color="#D2288A"/>
</linearGradient>
<linearGradient id="paint1_linear_2959_4665" x1="11.5312" y1="1.89844" x2="11.5313" y2="34.3751" gradientUnits="userSpaceOnUse">
<stop offset="0.0001" stop-color="#7A3991"/>
<stop offset="1" stop-color="#D2288A"/>
</linearGradient>
<linearGradient id="paint2_linear_2959_4665" x1="30.4553" y1="11.8906" x2="30.4553" y2="14.4035" gradientUnits="userSpaceOnUse">
<stop offset="0.0001" stop-color="#7A3991"/>
<stop offset="1" stop-color="#D2288A"/>
</linearGradient>
<linearGradient id="paint3_linear_2959_4665" x1="24.3847" y1="3.36523" x2="24.3847" y2="10.2454" gradientUnits="userSpaceOnUse">
<stop offset="0.0001" stop-color="#7A3991"/>
<stop offset="1" stop-color="#D2288A"/>
</linearGradient>
<linearGradient id="paint4_linear_2959_4665" x1="4.23833" y1="15.625" x2="4.23833" y2="23.1582" gradientUnits="userSpaceOnUse">
<stop offset="0.0001" stop-color="#7A3991"/>
<stop offset="1" stop-color="#D2288A"/>
</linearGradient>
<linearGradient id="paint5_linear_2959_4665" x1="30" y1="20.625" x2="30" y2="39.375" gradientUnits="userSpaceOnUse">
<stop offset="0.0001" stop-color="#7A3991"/>
<stop offset="1" stop-color="#D2288A"/>
</linearGradient>
<linearGradient id="paint6_linear_2959_4665" x1="25.625" y1="0.625" x2="25.625" y2="20" gradientUnits="userSpaceOnUse">
<stop offset="0.0001" stop-color="#7A3991"/>
<stop offset="1" stop-color="#D2288A"/>
</linearGradient>
<linearGradient id="paint7_linear_2959_4665" x1="14.3635" y1="0.865234" x2="14.3635" y2="2.31238" gradientUnits="userSpaceOnUse">
<stop offset="0.0001" stop-color="#7A3991"/>
<stop offset="1" stop-color="#D2288A"/>
</linearGradient>
<linearGradient id="paint8_linear_2959_4665" x1="29.9592" y1="24.625" x2="29.9592" y2="35.3612" gradientUnits="userSpaceOnUse">
<stop offset="0.0001" stop-color="#7A3991"/>
<stop offset="1" stop-color="#D2288A"/>
</linearGradient>
<clipPath id="clip0_2959_4665">
<rect width="40" height="40" fill="white"/>
</clipPath>
</defs>
</svg>
