<svg width="42" height="42" viewBox="0 0 42 42" fill="none" xmlns="http://www.w3.org/2000/svg">
<g clip-path="url(#clip0_2957_4487)">
<path d="M8.01056 35.7977C7.99718 35.7857 7.98337 35.7743 7.96903 35.7633C7.54085 35.408 7.11268 35.0269 6.71875 34.633C6.46849 34.3854 6.06557 34.3854 5.8153 34.633C5.56482 34.8838 5.56482 35.2899 5.8153 35.5407C6.24348 35.9689 6.67166 36.3671 7.15121 36.7524C7.41486 36.9897 7.82099 36.9683 8.0583 36.7047C8.29551 36.441 8.27421 36.035 8.01056 35.7977Z" fill="url(#paint0_linear_2957_4487)"/>
<path d="M1.28855 16.7568C0.953716 16.6398 0.587412 16.8165 0.470413 17.1514C0.453071 17.201 0.441832 17.2527 0.437122 17.3051C0.308669 17.8917 0.210189 18.4869 0.137399 19.082C0.0915838 19.4301 0.333717 19.7505 0.681182 19.8014H0.762536C1.08763 19.8016 1.36155 19.5589 1.40052 19.2362C1.46903 18.6795 1.56322 18.1186 1.68311 17.5748C1.80011 17.24 1.62338 16.8737 1.28855 16.7568Z" fill="url(#paint1_linear_2957_4487)"/>
<path d="M4.81764 32.3933C4.48795 31.9394 4.17538 31.4684 3.8885 30.9889C3.70717 30.684 3.31303 30.5838 3.00817 30.7652C3.00763 30.7655 3.00699 30.7658 3.00646 30.7662C2.70159 30.9476 2.6014 31.3417 2.78273 31.6466C2.78306 31.6471 2.78338 31.6477 2.7838 31.6483C3.09209 32.1621 3.42607 32.6673 3.78145 33.1512C4.00057 33.4301 4.40434 33.4785 4.6833 33.2594C4.94866 33.0509 5.00743 32.6725 4.81764 32.3933Z" fill="url(#paint2_linear_2957_4487)"/>
<path d="M2.57793 28.3434C2.3724 27.8253 2.184 27.2901 2.02558 26.7506C1.92678 26.41 1.57043 26.2139 1.22981 26.3127C1.22382 26.3144 1.21793 26.3162 1.21204 26.3182C0.874963 26.4211 0.683889 26.7766 0.783869 27.1146C0.955139 27.6883 1.1521 28.2621 1.37475 28.8273C1.50834 29.1595 1.88599 29.3205 2.21826 29.1869C2.55052 29.0533 2.71152 28.6757 2.57793 28.3434Z" fill="url(#paint3_linear_2957_4487)"/>
<path d="M2.96104 12.353C2.64419 12.1934 2.25787 12.3209 2.09827 12.6377C1.82851 13.1729 1.58017 13.7253 1.3618 14.2862C1.23303 14.6148 1.3937 14.9858 1.72147 15.1169C2.05127 15.2475 2.42454 15.086 2.55513 14.7562C2.55556 14.7552 2.55599 14.754 2.55641 14.7529C2.76194 14.2305 2.98459 13.7124 3.24578 13.2158C3.40538 12.8989 3.27789 12.5127 2.96104 12.353Z" fill="url(#paint4_linear_2957_4487)"/>
<path d="M1.4222 23.8745C1.42209 23.874 1.42209 23.8733 1.42198 23.8728C1.35347 23.3162 1.30637 22.751 1.28496 22.1943C1.27201 21.8396 0.973895 21.5627 0.619151 21.5756C0.264407 21.5886 -0.0125159 21.8867 0.00043645 22.2414C0.00043645 22.8409 0.0689446 23.4446 0.146016 24.0398C0.189904 24.3511 0.452697 24.5847 0.766872 24.5921H0.865352C1.21731 24.5477 1.46662 24.2264 1.4222 23.8745Z" fill="url(#paint5_linear_2957_4487)"/>
<path d="M18.4612 2.44942C18.427 2.09468 18.1116 1.83499 17.7569 1.86925C17.1617 1.92919 16.5623 2.01483 15.9714 2.13043C15.6166 2.16351 15.356 2.4779 15.3891 2.83264C15.4221 3.18739 15.7365 3.44804 16.0913 3.41496L16.087 3.39783H16.2112C16.7635 3.29079 17.3244 3.20944 17.881 3.15377C18.2358 3.11952 18.4955 2.80417 18.4612 2.44942Z" fill="url(#paint6_linear_2957_4487)"/>
<path d="M5.75076 8.46693C5.48358 8.23047 5.07521 8.25541 4.83875 8.52259C4.44482 8.97218 4.06803 9.44745 3.71692 9.93557C3.50883 10.2228 3.57295 10.6244 3.86026 10.8325C3.96933 10.9115 4.10036 10.9542 4.23502 10.9546V10.9632C4.44172 10.9639 4.63611 10.8651 4.75739 10.6977C5.08709 10.2439 5.43819 9.79856 5.80642 9.37894C6.04288 9.11176 6.01794 8.7035 5.75076 8.46693Z" fill="url(#paint7_linear_2957_4487)"/>
<path d="M22.6938 1.97571C22.1029 1.88579 21.4992 1.82156 20.8998 1.78731C20.545 1.76601 20.2403 2.03629 20.219 2.39104C20.1976 2.74578 20.4679 3.05054 20.8227 3.07184C21.3879 3.11466 21.9488 3.1746 22.5011 3.26024H22.5996C22.9544 3.28625 23.263 3.01982 23.289 2.66507C23.315 2.31043 23.0486 2.00172 22.6938 1.97571Z" fill="url(#paint8_linear_2957_4487)"/>
<path d="M9.39839 5.40704C9.19747 5.13419 8.81918 5.06429 8.53401 5.24744C8.04161 5.5857 7.55777 5.95393 7.09534 6.33501C6.82216 6.56205 6.78481 6.96742 7.01185 7.2406C7.23889 7.51378 7.64426 7.55113 7.91744 7.32409C8.34561 6.96443 8.79948 6.62189 9.26191 6.30504C9.54761 6.0948 9.60863 5.69274 9.39839 5.40704Z" fill="url(#paint9_linear_2957_4487)"/>
<path d="M13.8176 3.3835C13.7237 3.0415 13.3703 2.84025 13.0281 2.93424C12.9981 2.94248 12.9686 2.95297 12.9401 2.96549C12.3791 3.17102 11.8182 3.39367 11.2787 3.66342C10.9571 3.81307 10.8177 4.19511 10.9673 4.51667C11.0722 4.74221 11.2981 4.88629 11.5464 4.88758C11.6391 4.88576 11.7305 4.86424 11.8139 4.82378C12.3192 4.584 12.8416 4.36563 13.3682 4.17295C13.7104 4.07897 13.9116 3.72551 13.8176 3.3835Z" fill="url(#paint10_linear_2957_4487)"/>
<path d="M21.5828 40.5355C21.5603 40.1808 21.2546 39.9114 20.8999 39.9339C20.3389 39.9767 19.7738 39.9896 19.2128 39.9725C18.8581 39.963 18.5629 40.2429 18.5535 40.5976C18.544 40.9523 18.8238 41.2476 19.1786 41.257H19.7224C20.1506 41.257 20.5787 41.257 20.9812 41.2185C21.336 41.1961 21.6053 40.8903 21.5828 40.5355Z" fill="url(#paint11_linear_2957_4487)"/>
<path d="M38.3927 25.6567C38.0486 25.5692 37.6987 25.7772 37.6113 26.1213C37.4742 26.665 37.3073 27.2045 37.1189 27.7312C37.0072 28.062 37.1802 28.4214 37.5085 28.5405C37.8424 28.6602 38.2102 28.4866 38.3299 28.1527C38.3302 28.1521 38.3304 28.1515 38.3306 28.1508C38.5318 27.5856 38.7074 27.0076 38.8572 26.4381C38.9448 26.0941 38.7367 25.7442 38.3927 25.6567Z" fill="url(#paint12_linear_2957_4487)"/>
<path d="M39.2127 18.3028C39.1142 17.7119 38.9901 17.1167 38.8402 16.5387C38.7376 16.1992 38.3792 16.007 38.0396 16.1097C37.7177 16.2069 37.5254 16.5359 37.5985 16.8641C37.7398 17.4036 37.8554 17.9603 37.9496 18.5126C38.0049 18.8152 38.2671 19.036 38.5747 19.0393H38.6818C39.0317 18.9824 39.2693 18.6528 39.2127 18.3028Z" fill="url(#paint13_linear_2957_4487)"/>
<path d="M41.9423 10.9306C41.9121 10.865 41.8708 10.8051 41.8202 10.7538L40.6855 9.57199C40.523 9.40971 40.2842 9.35041 40.0647 9.41785L38.018 10.0387L35.6202 7.49534L41.0024 4.4981C41.316 4.3537 41.4531 3.98237 41.3086 3.66883C41.2784 3.60322 41.2371 3.54338 41.1865 3.492L39.675 1.98054C39.5103 1.82222 39.2722 1.76634 39.0542 1.83496L32.2333 3.89877L29.9383 1.46244C29.3534 0.786139 28.4012 0.56017 27.5748 0.901533H27.5362C26.9131 1.15801 26.4183 1.65287 26.1618 2.27598C26.0971 2.43868 26.0512 2.60814 26.0248 2.78123L25.7636 2.69131C25.4254 2.58255 25.0631 2.76849 24.9543 3.10664C24.8456 3.44479 25.0315 3.80714 25.3696 3.91589C25.6993 4.02294 26.029 4.14283 26.3587 4.267C26.458 4.42221 26.5743 4.56586 26.7056 4.69517L29.1248 6.9902L28.4311 9.28094C21.6469 4.44159 12.2241 6.01824 7.38476 12.8025C2.54541 19.5867 4.12206 29.0094 10.9063 33.8487C17.6905 38.6881 27.1133 37.1114 31.9526 30.3272C35.8118 24.9171 35.6771 17.6191 31.621 12.3551L32.7172 10.377L35.2605 12.7747L34.6482 14.8C34.5745 15.0226 34.6325 15.2677 34.7981 15.4337C34.7981 15.4337 36.0526 16.6754 36.0826 16.7182C36.3792 16.8902 36.7591 16.7891 36.9312 16.4925C36.9338 16.4879 36.9365 16.4832 36.939 16.4785L38.6131 13.4084L41.6361 11.76C41.9497 11.6155 42.0868 11.2441 41.9423 10.9306ZM9.97244 11.777C12.5538 9.1968 16.0551 7.74882 19.7049 7.75214C19.9904 7.75214 20.2757 7.7607 20.5612 7.77783C22.989 10.0172 22.2739 12.0596 20.6469 13.9007C19.6867 14.9191 18.6566 15.8691 17.564 16.7438C15.984 18.0883 14.5111 19.3429 13.9545 20.5974C13.2951 22.0875 13.7789 23.4362 16.4422 24.6137C17.7738 25.2046 18.4974 25.6627 18.78 26.0096C18.7842 26.0146 18.7883 26.0181 18.7924 26.0212C18.7837 26.0239 18.7748 26.0268 18.7629 26.031C18.1181 26.2765 17.4317 26.3943 16.7419 26.3778C13.5135 26.5148 11.2142 24.451 9.42866 22.8539C8.14413 21.7107 7.07797 20.7601 5.969 20.7516C6.15225 17.3691 7.57797 14.1732 9.97244 11.777ZM33.5178 21.5308H33.5221C33.5202 27.4985 29.6838 32.7893 24.0123 34.6459C23.8531 33.6423 24.0387 32.6144 24.539 31.73C25.2174 30.6404 26.0879 29.683 27.108 28.904C31.0601 25.6071 31.2828 23.7659 31.454 22.3487C31.5611 21.4538 31.6424 20.7858 33.4108 19.8139C33.4818 20.3834 33.5175 20.9569 33.5178 21.5308ZM32.7214 16.898C32.9128 17.437 33.0701 17.9877 33.1924 18.5465C30.4992 19.9166 30.3793 20.8929 30.2166 22.2245C30.071 23.4234 29.8826 24.9905 26.3116 27.9706C25.1679 28.8457 24.1954 29.9242 23.4429 31.152C22.7868 32.3117 22.5594 33.6651 22.8006 34.9756C15.3729 36.6735 7.97521 32.0286 6.27728 24.6011C6.0831 23.7516 5.96985 22.8856 5.93902 22.0147C6.61982 22.0147 7.50187 22.8239 8.58515 23.7873C10.5462 25.5386 13.0553 27.7736 16.7933 27.6409C17.674 27.6561 18.5485 27.49 19.3623 27.1528C19.7054 27.0011 19.9651 26.7071 20.0731 26.3478C20.1643 25.9472 20.0486 25.5274 19.7648 25.2303C19.3623 24.7379 18.4803 24.1556 16.9646 23.479C15.1534 22.6784 14.7594 21.8991 15.1148 21.1027C15.543 20.1007 16.9217 18.9618 18.3861 17.6773C19.5272 16.7551 20.6017 15.7536 21.6017 14.68C23.3915 12.6419 24.3121 10.4197 22.4923 7.98763C24.5147 8.40104 26.4175 9.26617 28.0586 10.5182L27.0738 13.768C27.0011 13.9907 27.0589 14.2353 27.2237 14.4017C27.2237 14.4017 28.8207 15.986 28.8721 16.0159C29.1688 16.1878 29.5486 16.0868 29.7207 15.7902C29.7233 15.7856 29.7259 15.7809 29.7285 15.7762L30.9745 13.5239C31.71 14.5625 32.2979 15.698 32.7214 16.898ZM38.4633 12.1152L37.9109 12.3893C37.7873 12.4506 37.6877 12.5516 37.6283 12.6762L37.3543 13.2328L36.2881 15.1596L35.9756 14.817L36.5964 12.7661C36.6688 12.5258 36.5894 12.2656 36.3952 12.1067L33.0169 8.92534C32.7723 8.68502 32.3792 8.68856 32.1389 8.93315C32.1331 8.93904 32.1276 8.94493 32.122 8.95103C32.0792 8.99813 29.0391 14.4745 29.0391 14.4745L28.3754 13.8108L30.4478 6.98142C30.5221 6.73982 30.4425 6.47735 30.2466 6.31775L27.5576 3.78723C27.26 3.53514 27.1611 3.11863 27.3136 2.7596C27.4502 2.44853 27.6996 2.20073 28.0115 2.06596H28.0329C28.3875 1.92905 28.7899 2.03224 29.0348 2.32286L31.6039 5.0375C31.7652 5.2107 32.011 5.27717 32.2376 5.20877L39.0884 3.14068L39.7521 3.80435L34.3142 6.79302C34.0132 6.95723 33.9023 7.33445 34.0667 7.63535C34.0692 7.64006 34.0718 7.64466 34.0745 7.64937C34.1002 7.69647 37.3757 11.1818 37.3757 11.1818C37.538 11.3535 37.7836 11.4183 38.0094 11.3488L40.0689 10.728L40.3901 11.0491L38.4633 12.1152Z" fill="url(#paint14_linear_2957_4487)"/>
<path d="M36.8094 30.17C36.8001 30.1645 36.7906 30.1592 36.7809 30.1543C36.474 29.9938 36.0952 30.1056 35.9246 30.4069C35.6548 30.8993 35.3594 31.3831 35.0425 31.8456C34.838 32.1364 34.908 32.538 35.1988 32.7426C35.4897 32.9472 35.8913 32.8771 36.0959 32.5863C36.4298 32.0896 36.7467 31.5715 37.0378 31.0492C37.2176 30.7432 37.1152 30.3496 36.8094 30.17Z" fill="url(#paint15_linear_2957_4487)"/>
<path d="M38.8404 20.794C38.4858 20.7892 38.1943 21.0727 38.1894 21.4274C38.1893 21.4361 38.1893 21.4447 38.1896 21.4534V21.5262C38.1896 22.0871 38.1639 22.6523 38.1125 23.2132C38.0804 23.5664 38.3407 23.8789 38.6939 23.911C38.6942 23.911 38.6945 23.9111 38.6949 23.9111H38.7548C39.0936 23.9143 39.3765 23.6538 39.4014 23.316C39.457 22.7208 39.4827 22.1171 39.4827 21.5176V21.432C39.4803 21.079 39.1935 20.794 38.8404 20.794Z" fill="url(#paint16_linear_2957_4487)"/>
<path d="M16.2883 39.6516C15.7317 39.5574 15.1794 39.4375 14.6441 39.2748C14.3095 39.1572 13.9429 39.333 13.8251 39.6677C13.7074 40.0023 13.8834 40.3689 14.218 40.4867C14.2425 40.4953 14.2677 40.5024 14.293 40.5081C14.8668 40.6708 15.4577 40.8121 16.0486 40.9362H16.1684C16.5232 40.9693 16.8376 40.7087 16.8707 40.3539C16.9037 39.9992 16.6431 39.6848 16.2883 39.6516Z" fill="url(#paint17_linear_2957_4487)"/>
<path d="M26.2258 39.4566C26.1097 39.1412 25.7701 38.9687 25.4469 39.0609V39.0781C24.9159 39.2536 24.3679 39.4035 23.8241 39.5062C23.4777 39.5843 23.2601 39.9284 23.3381 40.2748C23.4162 40.6212 23.7603 40.8388 24.1067 40.7608C24.689 40.6281 25.2756 40.4653 25.8451 40.2812C26.178 40.1586 26.3484 39.7894 26.2258 39.4566Z" fill="url(#paint18_linear_2957_4487)"/>
<path d="M11.8822 38.2515C11.3727 37.9989 10.8717 37.7249 10.3879 37.4508C10.0816 37.2711 9.68771 37.3737 9.50798 37.6799C9.32825 37.9862 9.4308 38.3801 9.73705 38.5598C10.2551 38.8638 10.7904 39.1464 11.3342 39.4162C11.6557 39.5675 12.0391 39.4295 12.1905 39.1079C12.3419 38.7863 12.2039 38.4029 11.8822 38.2515Z" fill="url(#paint19_linear_2957_4487)"/>
<path d="M34.0805 34.1201C33.8232 33.8852 33.4253 33.8982 33.184 34.1498H33.1883C32.8029 34.5779 32.3962 34.9547 31.9808 35.3273C31.716 35.5637 31.693 35.9702 31.9294 36.235C32.1659 36.4998 32.5723 36.5228 32.8372 36.2864C33.2653 35.8882 33.7192 35.4643 34.1217 35.0275C34.3609 34.7655 34.3424 34.3593 34.0805 34.1201Z" fill="url(#paint20_linear_2957_4487)"/>
<path d="M30.5368 37.3235C30.3549 37.0191 29.9605 36.9198 29.656 37.1018C29.6457 37.1079 29.6356 37.1143 29.6258 37.1211V37.104C29.1548 37.4037 28.6624 37.6863 28.1657 37.9603C27.85 38.1223 27.7254 38.5096 27.8874 38.8252C28.0493 39.1409 28.4366 39.2655 28.7523 39.1035C29.2832 38.8295 29.8099 38.5255 30.3151 38.2044C30.6196 38.0223 30.7189 37.6279 30.5368 37.3235Z" fill="url(#paint21_linear_2957_4487)"/>
</g>
<defs>
<linearGradient id="paint0_linear_2957_4487" x1="6.92529" y1="34.4473" x2="6.92529" y2="36.9173" gradientUnits="userSpaceOnUse">
<stop stop-color="#7A3991"/>
<stop offset="1" stop-color="#D2288A"/>
</linearGradient>
<linearGradient id="paint1_linear_2957_4487" x1="0.925528" y1="16.7207" x2="0.925528" y2="19.8014" gradientUnits="userSpaceOnUse">
<stop stop-color="#7A3991"/>
<stop offset="1" stop-color="#D2288A"/>
</linearGradient>
<linearGradient id="paint2_linear_2957_4487" x1="3.81058" y1="30.6748" x2="3.81058" y2="33.3967" gradientUnits="userSpaceOnUse">
<stop stop-color="#7A3991"/>
<stop offset="1" stop-color="#D2288A"/>
</linearGradient>
<linearGradient id="paint3_linear_2957_4487" x1="1.69112" y1="26.2871" x2="1.69112" y2="29.2339" gradientUnits="userSpaceOnUse">
<stop stop-color="#7A3991"/>
<stop offset="1" stop-color="#D2288A"/>
</linearGradient>
<linearGradient id="paint4_linear_2957_4487" x1="2.31598" y1="12.2842" x2="2.31598" y2="15.1622" gradientUnits="userSpaceOnUse">
<stop stop-color="#7A3991"/>
<stop offset="1" stop-color="#D2288A"/>
</linearGradient>
<linearGradient id="paint5_linear_2957_4487" x1="0.71366" y1="21.5752" x2="0.71366" y2="24.5921" gradientUnits="userSpaceOnUse">
<stop stop-color="#7A3991"/>
<stop offset="1" stop-color="#D2288A"/>
</linearGradient>
<linearGradient id="paint6_linear_2957_4487" x1="16.9252" y1="1.86621" x2="16.9252" y2="3.41779" gradientUnits="userSpaceOnUse">
<stop stop-color="#7A3991"/>
<stop offset="1" stop-color="#D2288A"/>
</linearGradient>
<linearGradient id="paint7_linear_2957_4487" x1="4.7817" y1="8.30469" x2="4.7817" y2="10.9632" gradientUnits="userSpaceOnUse">
<stop stop-color="#7A3991"/>
<stop offset="1" stop-color="#D2288A"/>
</linearGradient>
<linearGradient id="paint8_linear_2957_4487" x1="21.7542" y1="1.78613" x2="21.7542" y2="3.26199" gradientUnits="userSpaceOnUse">
<stop stop-color="#7A3991"/>
<stop offset="1" stop-color="#D2288A"/>
</linearGradient>
<linearGradient id="paint9_linear_2957_4487" x1="8.19337" y1="5.14551" x2="8.19337" y2="7.47266" gradientUnits="userSpaceOnUse">
<stop stop-color="#7A3991"/>
<stop offset="1" stop-color="#D2288A"/>
</linearGradient>
<linearGradient id="paint10_linear_2957_4487" x1="12.374" y1="2.91113" x2="12.374" y2="4.88758" gradientUnits="userSpaceOnUse">
<stop stop-color="#7A3991"/>
<stop offset="1" stop-color="#D2288A"/>
</linearGradient>
<linearGradient id="paint11_linear_2957_4487" x1="20.0687" y1="39.9326" x2="20.0687" y2="41.257" gradientUnits="userSpaceOnUse">
<stop stop-color="#7A3991"/>
<stop offset="1" stop-color="#D2288A"/>
</linearGradient>
<linearGradient id="paint12_linear_2957_4487" x1="37.9811" y1="25.6367" x2="37.9811" y2="28.5783" gradientUnits="userSpaceOnUse">
<stop stop-color="#7A3991"/>
<stop offset="1" stop-color="#D2288A"/>
</linearGradient>
<linearGradient id="paint13_linear_2957_4487" x1="38.402" y1="16.082" x2="38.402" y2="19.0393" gradientUnits="userSpaceOnUse">
<stop stop-color="#7A3991"/>
<stop offset="1" stop-color="#D2288A"/>
</linearGradient>
<linearGradient id="paint14_linear_2957_4487" x1="23.2892" y1="0.744141" x2="23.2892" y2="36.6549" gradientUnits="userSpaceOnUse">
<stop stop-color="#7A3991"/>
<stop offset="1" stop-color="#D2288A"/>
</linearGradient>
<linearGradient id="paint15_linear_2957_4487" x1="36.0259" y1="30.0811" x2="36.0259" y2="32.8598" gradientUnits="userSpaceOnUse">
<stop stop-color="#7A3991"/>
<stop offset="1" stop-color="#D2288A"/>
</linearGradient>
<linearGradient id="paint16_linear_2957_4487" x1="38.7963" y1="20.7939" x2="38.7963" y2="23.9112" gradientUnits="userSpaceOnUse">
<stop stop-color="#7A3991"/>
<stop offset="1" stop-color="#D2288A"/>
</linearGradient>
<linearGradient id="paint17_linear_2957_4487" x1="15.331" y1="39.2383" x2="15.331" y2="40.9391" gradientUnits="userSpaceOnUse">
<stop stop-color="#7A3991"/>
<stop offset="1" stop-color="#D2288A"/>
</linearGradient>
<linearGradient id="paint18_linear_2957_4487" x1="24.7939" y1="39.0361" x2="24.7939" y2="40.7766" gradientUnits="userSpaceOnUse">
<stop stop-color="#7A3991"/>
<stop offset="1" stop-color="#D2288A"/>
</linearGradient>
<linearGradient id="paint19_linear_2957_4487" x1="10.8357" y1="37.3623" x2="10.8357" y2="39.4776" gradientUnits="userSpaceOnUse">
<stop stop-color="#7A3991"/>
<stop offset="1" stop-color="#D2288A"/>
</linearGradient>
<linearGradient id="paint20_linear_2957_4487" x1="33.0279" y1="33.9521" x2="33.0279" y2="36.4497" gradientUnits="userSpaceOnUse">
<stop stop-color="#7A3991"/>
<stop offset="1" stop-color="#D2288A"/>
</linearGradient>
<linearGradient id="paint21_linear_2957_4487" x1="29.2222" y1="37.0107" x2="29.2222" y2="39.1745" gradientUnits="userSpaceOnUse">
<stop stop-color="#7A3991"/>
<stop offset="1" stop-color="#D2288A"/>
</linearGradient>
<clipPath id="clip0_2957_4487">
<rect width="42" height="42" fill="white"/>
</clipPath>
</defs>
</svg>
