<svg width="42" height="42" viewBox="0 0 42 42" fill="none" xmlns="http://www.w3.org/2000/svg">
<path d="M39.9675 11.9765L38.8537 12.5073C40.1227 15.17 40.7662 18.0273 40.7662 21.0001C40.7662 23.7946 40.1979 26.4821 39.0797 29.002L30.8628 20.7852L25.6026 26.0453L20.3424 20.7852L16.6186 24.509L17.4911 25.3814L20.3424 22.53L33.8411 36.0286C30.2633 39.0878 25.7292 40.7663 21.0001 40.7663C15.9269 40.7663 11.1458 38.8667 7.46714 35.4055L16.1762 26.6963L15.3037 25.8239L6.59466 34.5329C3.13343 30.8542 1.23383 26.0733 1.23383 21C1.23383 10.1009 10.1009 1.23383 21 1.23383C27.9868 1.23383 34.317 4.80933 37.9334 10.7984L38.9895 10.1606C37.1528 7.11867 34.5555 4.5725 31.4784 2.79735C28.3063 0.967313 24.6829 0 21 0C15.391 0 10.1175 2.18449 6.15095 6.15095C2.18441 10.1174 0 15.3909 0 21C0 26.609 2.18449 31.8825 6.15087 35.8491C10.1175 39.8155 15.3909 42 20.9999 42C26.2538 42 31.2819 40.0513 35.1585 36.5124C37.0862 34.7488 38.6539 32.6707 39.8184 30.3349C41.266 27.4188 41.9999 24.2781 41.9999 21C42 17.8422 41.3161 14.8061 39.9675 11.9765ZM34.7543 35.1969L26.4751 26.9177L30.8628 22.53L38.5118 30.1791C37.53 32.0447 36.2683 33.7285 34.7543 35.1969Z" fill="url(#paint0_linear_2957_4498)"/>
<path d="M16.3569 10.4801C16.3569 9.73264 16.9651 9.12454 17.7124 9.12454V7.89062C16.2846 7.89062 15.123 9.05227 15.123 10.48H16.3569V10.4801Z" fill="url(#paint1_linear_2957_4498)"/>
<path d="M20.1195 27.3539L19.2471 26.4814L13.9868 31.7417L14.8593 32.6141L20.1195 27.3539Z" fill="url(#paint2_linear_2957_4498)"/>
<path d="M12.2319 35.2437L13.5469 33.9287L12.6744 33.0563L11.3594 34.3713L12.2319 35.2437Z" fill="url(#paint3_linear_2957_4498)"/>
<path d="M23.4046 11.9482C23.5273 11.4707 23.5895 10.9766 23.5895 10.4796C23.5895 7.23902 20.9531 4.60254 17.7125 4.60254C14.4719 4.60254 11.8354 7.23902 11.8354 10.4796C11.8354 13.7201 14.4719 16.3566 17.7125 16.3566C19.8049 16.3566 21.7557 15.2308 22.8036 13.4185L21.7354 12.8008C20.9073 14.2331 19.3658 15.1228 17.7126 15.1228C15.1523 15.1228 13.0694 13.0398 13.0694 10.4796C13.0694 7.91939 15.1523 5.83637 17.7126 5.83637C20.2729 5.83637 22.3558 7.91939 22.3558 10.4796C22.3558 10.8731 22.3066 11.2638 22.2097 11.641L23.4046 11.9482Z" fill="url(#paint4_linear_2957_4498)"/>
<path d="M3.2876 21.6574C3.2876 22.7227 4.15426 23.5894 5.2196 23.5894H12.4523C13.5176 23.5894 14.3843 22.7227 14.3843 21.6574C14.3843 20.5921 13.5176 19.7254 12.4523 19.7254H12.4118V19.6848C12.4118 17.5318 10.6602 15.7803 8.50725 15.7803C6.35425 15.7803 4.60272 17.5318 4.60272 19.6848C4.60272 19.7316 4.60362 19.7783 4.60535 19.8255C3.84024 20.0827 3.2876 20.8068 3.2876 21.6574ZM5.19179 20.96C5.2155 20.963 5.24773 20.966 5.2853 20.966H6.02449L5.89234 20.2388C5.85427 20.0292 5.83647 19.8531 5.83647 19.685C5.83647 18.2124 7.03454 17.0144 8.50716 17.0144C9.97979 17.0144 11.1779 18.2124 11.1779 19.685V20.9595H12.4523C12.8373 20.9595 13.1504 21.2727 13.1504 21.6576C13.1504 22.0425 12.8372 22.3557 12.4523 22.3557H5.2196C4.83463 22.3557 4.52151 22.0425 4.52151 21.6576C4.52143 21.2818 4.8197 20.9745 5.19179 20.96Z" fill="url(#paint5_linear_2957_4498)"/>
<path d="M25.6431 16.3975C25.6431 17.4628 26.5097 18.3295 27.5749 18.3295H34.8076C35.8729 18.3295 36.7396 17.4628 36.7396 16.3975C36.7396 15.3321 35.8729 14.4656 34.8076 14.4656H34.7671V14.4249C34.7671 12.272 33.0155 10.5205 30.8625 10.5205C28.7096 10.5205 26.958 12.272 26.958 14.4249C26.958 14.4717 26.9589 14.5185 26.9607 14.5656C26.1957 14.8229 25.6431 15.5469 25.6431 16.3975ZM27.5473 15.7C27.571 15.7029 27.6033 15.7059 27.6409 15.7059H28.38L28.2479 14.9787C28.2098 14.7692 28.192 14.5932 28.192 14.425C28.192 12.9525 29.3901 11.7544 30.8627 11.7544C32.3353 11.7544 33.5334 12.9525 33.5334 14.425V15.6995H34.8078C35.1928 15.6995 35.5059 16.0127 35.5059 16.3976C35.5059 16.7826 35.1927 17.0957 34.8078 17.0957H27.5751C27.1902 17.0957 26.8771 16.7825 26.8771 16.3976C26.8769 16.0219 27.1751 15.7146 27.5473 15.7Z" fill="url(#paint6_linear_2957_4498)"/>
<path d="M7.192 11.835H5.87695V13.0688H7.192V11.835Z" fill="url(#paint7_linear_2957_4498)"/>
<path d="M8.50743 9.8623H7.19238V11.0961H8.50743V9.8623Z" fill="url(#paint8_linear_2957_4498)"/>
<path d="M39.4103 23.0127H38.0952V24.2465H39.4103V23.0127Z" fill="url(#paint9_linear_2957_4498)"/>
<path d="M39.4103 20.3828H38.0952V21.6166H39.4103V20.3828Z" fill="url(#paint10_linear_2957_4498)"/>
<defs>
<linearGradient id="paint0_linear_2957_4498" x1="21" y1="0" x2="21" y2="42" gradientUnits="userSpaceOnUse">
<stop stop-color="#7A3991"/>
<stop offset="1" stop-color="#D2288A"/>
</linearGradient>
<linearGradient id="paint1_linear_2957_4498" x1="16.4177" y1="7.89062" x2="16.4177" y2="10.4801" gradientUnits="userSpaceOnUse">
<stop stop-color="#7A3991"/>
<stop offset="1" stop-color="#D2288A"/>
</linearGradient>
<linearGradient id="paint2_linear_2957_4498" x1="19.6833" y1="26.9177" x2="14.4231" y2="32.1779" gradientUnits="userSpaceOnUse">
<stop stop-color="#7A3991"/>
<stop offset="1" stop-color="#D2288A"/>
</linearGradient>
<linearGradient id="paint3_linear_2957_4498" x1="12.8894" y1="34.5862" x2="12.0169" y2="33.7138" gradientUnits="userSpaceOnUse">
<stop stop-color="#7A3991"/>
<stop offset="1" stop-color="#D2288A"/>
</linearGradient>
<linearGradient id="paint4_linear_2957_4498" x1="17.7125" y1="4.60254" x2="17.7125" y2="16.3566" gradientUnits="userSpaceOnUse">
<stop stop-color="#7A3991"/>
<stop offset="1" stop-color="#D2288A"/>
</linearGradient>
<linearGradient id="paint5_linear_2957_4498" x1="8.83595" y1="15.7803" x2="8.83595" y2="23.5894" gradientUnits="userSpaceOnUse">
<stop stop-color="#7A3991"/>
<stop offset="1" stop-color="#D2288A"/>
</linearGradient>
<linearGradient id="paint6_linear_2957_4498" x1="31.1913" y1="10.5205" x2="31.1913" y2="18.3295" gradientUnits="userSpaceOnUse">
<stop stop-color="#7A3991"/>
<stop offset="1" stop-color="#D2288A"/>
</linearGradient>
<linearGradient id="paint7_linear_2957_4498" x1="6.53447" y1="11.835" x2="6.53447" y2="13.0688" gradientUnits="userSpaceOnUse">
<stop stop-color="#7A3991"/>
<stop offset="1" stop-color="#D2288A"/>
</linearGradient>
<linearGradient id="paint8_linear_2957_4498" x1="7.8499" y1="9.8623" x2="7.8499" y2="11.0961" gradientUnits="userSpaceOnUse">
<stop stop-color="#7A3991"/>
<stop offset="1" stop-color="#D2288A"/>
</linearGradient>
<linearGradient id="paint9_linear_2957_4498" x1="38.7527" y1="23.0127" x2="38.7527" y2="24.2465" gradientUnits="userSpaceOnUse">
<stop stop-color="#7A3991"/>
<stop offset="1" stop-color="#D2288A"/>
</linearGradient>
<linearGradient id="paint10_linear_2957_4498" x1="38.7527" y1="20.3828" x2="38.7527" y2="21.6166" gradientUnits="userSpaceOnUse">
<stop stop-color="#7A3991"/>
<stop offset="1" stop-color="#D2288A"/>
</linearGradient>
</defs>
</svg>
