<svg width="40" height="40" viewBox="0 0 40 40" fill="none" xmlns="http://www.w3.org/2000/svg">
<g clip-path="url(#clip0_2957_4513)">
<path d="M38.5027 1.94703H30.5334V0.585938C30.5334 0.262344 30.2712 0 29.9475 0H9.77396C9.45029 0 9.18803 0.262344 9.18803 0.585938V1.94703H1.49771C1.17818 1.94703 0.911621 2.21422 0.911621 2.53305L0.911777 17.9082C0.911777 18.2318 1.17404 18.4941 1.49771 18.4941H9.18811V22.7721C9.18811 23.0957 9.45037 23.358 9.77404 23.358H11.5622C11.4475 23.5794 11.3703 23.8243 11.3403 24.0852L10.5699 30.7556C10.5483 30.9442 10.538 31.1356 10.5395 31.3198C10.5395 32.8237 11.3044 34.0625 12.4108 35.0151C13.0611 35.5748 13.7113 36.1347 14.3615 36.6945V39.4141C14.3615 39.7377 14.6238 40 14.9475 40H16.7503C17.074 40 17.3362 39.7377 17.3362 39.4141C17.3362 39.0905 17.074 38.8281 16.7503 38.8281H15.5334V36.4257C15.5334 36.2551 15.459 36.093 15.3298 35.9816C14.6884 35.4295 14.047 34.8772 13.4056 34.325C12.4655 33.5157 11.7356 32.6301 11.7114 31.3105C11.7104 31.1709 11.7181 31.0293 11.7341 30.8899L12.5045 24.2194C12.5585 23.7496 12.9565 23.3953 13.4303 23.3953C13.741 23.3953 14.0006 23.5659 14.1286 23.7119C14.3389 23.952 14.3616 24.2216 14.3616 24.3264V29.2661C14.3616 29.5897 14.6239 29.852 14.9476 29.852C15.2712 29.852 15.5335 29.5897 15.5335 29.2661V13.3891C15.5335 12.8756 15.9513 12.4579 16.4647 12.4579C16.9767 12.4579 17.3933 12.8732 17.3958 13.3845C17.3958 13.386 17.3956 13.3874 17.3956 13.3889C17.3956 13.392 17.396 13.3949 17.3961 13.398V20.8054C17.3961 21.7004 18.574 21.6981 18.5726 20.8127C18.5725 20.6854 18.5719 20.3109 18.5748 20.2137C18.6794 19.0218 20.6775 19.0502 20.6775 20.2748V21.1625C20.6775 21.9182 21.8494 21.9182 21.8494 21.1625C21.8494 20.6483 22.2677 20.2299 22.782 20.2299C23.3644 20.2299 23.9544 20.4823 23.9544 21.1626V21.7398C23.9544 22.4879 25.1129 22.5005 25.1262 21.7502C25.1283 21.628 25.1347 21.6007 25.156 21.5106C25.391 20.5936 26.7493 20.5892 26.9875 21.5061L27.7104 24.2908C28.2331 26.3055 28.2121 28.4296 27.6494 30.4334L26.0113 36.2673C25.9968 36.3189 25.9895 36.3722 25.9895 36.4257V38.8281H19.5555C19.2319 38.8281 18.9696 39.0905 18.9696 39.4141C18.9696 39.7377 19.2319 40 19.5555 40H26.5755C26.8991 40 27.1614 39.7377 27.1614 39.4141V36.5064L28.7776 30.7501C29.3962 28.547 29.4195 26.2116 28.8447 23.9963L28.679 23.358H29.9477C30.2714 23.358 30.5337 23.0956 30.5337 22.772V5.49531H37.917V17.3223H32.7024C32.3787 17.3223 32.1165 17.5846 32.1165 17.9082C32.1165 18.2318 32.3787 18.4941 32.7024 18.4941H38.5029C38.8266 18.4941 39.0889 18.2318 39.0889 17.9082V2.53305V2.53297C39.0887 2.20938 38.8264 1.94703 38.5027 1.94703ZM2.08365 3.11898H9.18811V4.32344H2.08365V3.11898ZM10.3603 1.17211H29.3613V4.32344H10.3603V1.17211ZM2.08365 17.3223V5.49531H9.18811V17.3223H2.08365ZM28.3746 22.1862L28.1215 21.2114C27.7515 19.7877 25.9906 19.1709 24.8076 20.0481C24.1665 19.025 22.663 18.7437 21.6543 19.3862C21.1315 18.2621 19.6551 17.8456 18.5678 18.3924V13.9748H23.8979C24.2108 13.9748 24.4652 14.2296 24.4652 14.5428V15.6684C24.4652 15.9811 24.2108 16.2355 23.8979 16.2355H20.6908C20.3672 16.2355 20.1049 16.4979 20.1049 16.8215C20.1049 17.1451 20.3672 17.4074 20.6908 17.4074H23.8979C24.8569 17.4074 25.6371 16.6273 25.6371 15.6684V14.5428C25.6371 13.5834 24.8569 12.8029 23.8979 12.8029H18.484C18.2295 11.9277 17.4208 11.2859 16.4646 11.2859C15.3049 11.2859 14.3615 12.2295 14.3615 13.3891V22.1861H10.3599V5.49531H29.3615V22.1862H28.3746ZM30.5334 4.32344V3.11898H37.9168V4.32344H30.5334Z" fill="url(#paint0_linear_2957_4513)"/>
<path d="M23.2578 2.19043H16.4634C16.1397 2.19043 15.8774 2.45277 15.8774 2.77637C15.8774 3.09996 16.1397 3.3623 16.4634 3.3623H23.2578C23.5815 3.3623 23.8438 3.09996 23.8438 2.77637C23.8438 2.45277 23.5815 2.19043 23.2578 2.19043Z" fill="url(#paint1_linear_2957_4513)"/>
<path d="M17.4474 6.62012H12.8208C12.4971 6.62012 12.2349 6.88246 12.2349 7.20605V9.88215C12.2349 10.2057 12.4971 10.4681 12.8208 10.4681H17.4474C17.771 10.4681 18.0333 10.2057 18.0333 9.88215V7.20605C18.0333 6.88246 17.771 6.62012 17.4474 6.62012ZM16.8614 9.29621H13.4067V7.79199H16.8614V9.29621Z" fill="url(#paint2_linear_2957_4513)"/>
<path d="M32.2935 9.74414H35.7742C36.0978 9.74414 36.3601 9.4818 36.3601 9.1582C36.3601 8.83461 36.0978 8.57227 35.7742 8.57227H32.2935C31.9698 8.57227 31.7075 8.83461 31.7075 9.1582C31.7075 9.4818 31.9699 9.74414 32.2935 9.74414Z" fill="url(#paint3_linear_2957_4513)"/>
<path d="M35.7742 12.2646C36.0978 12.2646 36.3601 12.0023 36.3601 11.6787C36.3601 11.3551 36.0978 11.0928 35.7742 11.0928H32.2935C31.9698 11.0928 31.7075 11.3551 31.7075 11.6787C31.7075 12.0023 31.9698 12.2646 32.2935 12.2646H35.7742Z" fill="url(#paint4_linear_2957_4513)"/>
<path d="M3.86279 9.74414H7.34342C7.66709 9.74414 7.92936 9.4818 7.92936 9.1582C7.92936 8.83461 7.66709 8.57227 7.34342 8.57227H3.86279C3.53912 8.57227 3.27686 8.83461 3.27686 9.1582C3.27686 9.4818 3.5392 9.74414 3.86279 9.74414Z" fill="url(#paint5_linear_2957_4513)"/>
<path d="M7.34342 11.0928H3.86279C3.53912 11.0928 3.27686 11.3551 3.27686 11.6787C3.27686 12.0023 3.53912 12.2646 3.86279 12.2646H7.34342C7.66709 12.2646 7.92936 12.0023 7.92936 11.6787C7.92936 11.3551 7.66709 11.0928 7.34342 11.0928Z" fill="url(#paint6_linear_2957_4513)"/>
<path d="M26.5748 7.95801H20.3589C20.0352 7.95801 19.7729 8.22035 19.7729 8.54395C19.7729 8.86754 20.0352 9.12988 20.3589 9.12988H26.5748C26.8985 9.12988 27.1608 8.86754 27.1608 8.54395C27.1608 8.22035 26.8985 7.95801 26.5748 7.95801Z" fill="url(#paint7_linear_2957_4513)"/>
</g>
<defs>
<linearGradient id="paint0_linear_2957_4513" x1="20.0003" y1="0" x2="20.0003" y2="40" gradientUnits="userSpaceOnUse">
<stop stop-color="#7A3991"/>
<stop offset="1" stop-color="#D2288A"/>
</linearGradient>
<linearGradient id="paint1_linear_2957_4513" x1="19.8606" y1="2.19043" x2="19.8606" y2="3.3623" gradientUnits="userSpaceOnUse">
<stop stop-color="#7A3991"/>
<stop offset="1" stop-color="#D2288A"/>
</linearGradient>
<linearGradient id="paint2_linear_2957_4513" x1="15.1341" y1="6.62012" x2="15.1341" y2="10.4681" gradientUnits="userSpaceOnUse">
<stop stop-color="#7A3991"/>
<stop offset="1" stop-color="#D2288A"/>
</linearGradient>
<linearGradient id="paint3_linear_2957_4513" x1="34.0338" y1="8.57227" x2="34.0338" y2="9.74414" gradientUnits="userSpaceOnUse">
<stop stop-color="#7A3991"/>
<stop offset="1" stop-color="#D2288A"/>
</linearGradient>
<linearGradient id="paint4_linear_2957_4513" x1="34.0338" y1="11.0928" x2="34.0338" y2="12.2646" gradientUnits="userSpaceOnUse">
<stop stop-color="#7A3991"/>
<stop offset="1" stop-color="#D2288A"/>
</linearGradient>
<linearGradient id="paint5_linear_2957_4513" x1="5.60311" y1="8.57227" x2="5.60311" y2="9.74414" gradientUnits="userSpaceOnUse">
<stop stop-color="#7A3991"/>
<stop offset="1" stop-color="#D2288A"/>
</linearGradient>
<linearGradient id="paint6_linear_2957_4513" x1="5.60311" y1="11.0928" x2="5.60311" y2="12.2646" gradientUnits="userSpaceOnUse">
<stop stop-color="#7A3991"/>
<stop offset="1" stop-color="#D2288A"/>
</linearGradient>
<linearGradient id="paint7_linear_2957_4513" x1="23.4669" y1="7.95801" x2="23.4669" y2="9.12988" gradientUnits="userSpaceOnUse">
<stop stop-color="#7A3991"/>
<stop offset="1" stop-color="#D2288A"/>
</linearGradient>
<clipPath id="clip0_2957_4513">
<rect width="40" height="40" fill="white"/>
</clipPath>
</defs>
</svg>
