<svg width="48" height="48" viewBox="0 0 48 48" fill="none" xmlns="http://www.w3.org/2000/svg">
<path d="M25.9198 42.24C26.8035 42.24 27.5198 41.5237 27.5198 40.64C27.5198 39.7564 26.8035 39.04 25.9198 39.04C25.0362 39.04 24.3198 39.7564 24.3198 40.64C24.3198 41.5237 25.0362 42.24 25.9198 42.24Z" fill="url(#paint0_linear_2957_4540)"/>
<path d="M19.5196 13.4395C20.0498 13.4395 20.4796 13.0097 20.4796 12.4795C20.4796 11.9493 20.0498 11.5195 19.5196 11.5195C18.9894 11.5195 18.5596 11.9493 18.5596 12.4795C18.5596 13.0097 18.9894 13.4395 19.5196 13.4395Z" fill="url(#paint1_linear_2957_4540)"/>
<path d="M22.0796 13.4395C22.6098 13.4395 23.0396 13.0097 23.0396 12.4795C23.0396 11.9493 22.6098 11.5195 22.0796 11.5195C21.5494 11.5195 21.1196 11.9493 21.1196 12.4795C21.1196 13.0097 21.5494 13.4395 22.0796 13.4395Z" fill="url(#paint2_linear_2957_4540)"/>
<path d="M24.6397 13.4395C25.1699 13.4395 25.5997 13.0097 25.5997 12.4795C25.5997 11.9493 25.1699 11.5195 24.6397 11.5195C24.1095 11.5195 23.6797 11.9493 23.6797 12.4795C23.6797 13.0097 24.1095 13.4395 24.6397 13.4395Z" fill="url(#paint3_linear_2957_4540)"/>
<path d="M14.0796 26.8799H10.2396C9.88617 26.8799 9.59961 27.1661 9.59961 27.5199C9.59961 27.8736 9.88617 28.1599 10.2396 28.1599H14.0796C14.433 28.1599 14.7196 27.8736 14.7196 27.5199C14.7196 27.1661 14.433 26.8799 14.0796 26.8799Z" fill="url(#paint4_linear_2957_4540)"/>
<path d="M17.9199 26.8799H15.9999C15.6464 26.8799 15.3599 27.1661 15.3599 27.5199C15.3599 27.8736 15.6464 28.1599 15.9999 28.1599H17.9199C18.2733 28.1599 18.5599 27.8736 18.5599 27.5199C18.5599 27.1661 18.2733 26.8799 17.9199 26.8799Z" fill="url(#paint5_linear_2957_4540)"/>
<path d="M42.2396 9.59984C42.2396 6.42352 39.6559 3.83984 36.4795 3.83984C33.7437 3.83984 31.452 5.75856 30.8679 8.31984H17.998C16.5432 8.31984 15.3596 9.50352 15.3596 10.9586V18.5598H8.43923C7.66739 18.5598 7.03955 19.1874 7.03955 19.9592V29.3205C7.03955 30.0923 7.66739 30.7198 8.43923 30.7198H25.4802C26.252 30.7198 26.8796 30.0923 26.8796 29.3205V19.9592C26.8796 19.1874 26.252 18.5598 25.4802 18.5598H16.6396V10.9586C16.6396 10.2091 17.249 9.59984 17.998 9.59984H30.7196C30.7196 12.5595 32.9637 15.0026 35.8396 15.3221V37.116H16.6396V32.6792C16.6396 32.3254 16.353 32.0392 15.9996 32.0392C15.6461 32.0392 15.3596 32.3254 15.3596 32.6792V37.756V41.521C15.3596 42.976 16.5432 44.1597 17.998 44.1597H34.4808C35.9359 44.1597 37.1196 42.976 37.1196 41.521V37.756V15.3221C39.9954 15.0026 42.2396 12.5595 42.2396 9.59984ZM8.31955 23.0398H25.5996V24.3198H8.31955V23.0398ZM25.4802 29.4398H8.43923C8.37331 29.4398 8.31955 29.3861 8.31955 29.3205V25.5998H25.5996V29.3205C25.5996 29.3861 25.5458 29.4398 25.4802 29.4398ZM25.5996 19.9592V21.7598H8.31955V19.9592C8.31955 19.8936 8.37331 19.8398 8.43923 19.8398H25.4802C25.5458 19.8398 25.5996 19.8936 25.5996 19.9592ZM35.8396 41.5211C35.8396 42.2706 35.2301 42.8798 34.4808 42.8798H17.998C17.2488 42.8798 16.6396 42.2704 16.6396 41.5211V38.3962H35.8396V41.5211ZM36.4795 14.0798C34.0095 14.0798 31.9995 12.0699 31.9995 9.59984C31.9995 7.12976 34.0095 5.11984 36.4795 5.11984C38.9496 5.11984 40.9595 7.12976 40.9595 9.59984C40.9595 12.0699 38.9496 14.0798 36.4795 14.0798Z" fill="url(#paint6_linear_2957_4540)"/>
<path d="M37.8674 7.32528L35.7405 10.5158L35.0123 9.78769C34.7624 9.53777 34.3573 9.53777 34.1074 9.78769C33.8574 10.0376 33.8574 10.4427 34.1074 10.6926L35.3874 11.9726C35.508 12.0934 35.671 12.1603 35.8398 12.1603C35.8605 12.1603 35.8818 12.159 35.903 12.1571C36.0936 12.1384 36.2662 12.0346 36.3725 11.8752L38.9325 8.0352C39.1288 7.7408 39.0493 7.34401 38.755 7.14769C38.4592 6.95153 38.063 7.03088 37.8674 7.32528Z" fill="url(#paint7_linear_2957_4540)"/>
<path d="M12.7997 12.8003C13.1531 12.8003 13.4397 12.5141 13.4397 12.1603V8.96031C13.4397 8.60655 13.1531 8.32031 12.7997 8.32031C12.4462 8.32031 12.1597 8.60655 12.1597 8.96031V12.1603C12.1597 12.5141 12.4462 12.8003 12.7997 12.8003Z" fill="url(#paint8_linear_2957_4540)"/>
<path d="M10.2398 15.3597C10.2398 15.006 9.95321 14.7197 9.59977 14.7197H6.39977C6.04633 14.7197 5.75977 15.006 5.75977 15.3597C5.75977 15.7135 6.04633 15.9997 6.39977 15.9997H9.59977C9.95321 15.9997 10.2398 15.7135 10.2398 15.3597Z" fill="url(#paint9_linear_2957_4540)"/>
<path d="M9.82918 13.2034C9.95414 13.3283 10.118 13.3909 10.2817 13.3909C10.4453 13.3909 10.6092 13.3283 10.7341 13.2034C10.9841 12.9535 10.9841 12.5483 10.7341 12.2984L8.4591 10.0234C8.20918 9.77346 7.80406 9.77346 7.55414 10.0234C7.30422 10.2733 7.30422 10.6784 7.55414 10.9283L9.82918 13.2034Z" fill="url(#paint10_linear_2957_4540)"/>
<defs>
<linearGradient id="paint0_linear_2957_4540" x1="25.9198" y1="39.04" x2="25.9198" y2="42.24" gradientUnits="userSpaceOnUse">
<stop stop-color="#7A3991"/>
<stop offset="1" stop-color="#D2288A"/>
</linearGradient>
<linearGradient id="paint1_linear_2957_4540" x1="19.5196" y1="11.5195" x2="19.5196" y2="13.4395" gradientUnits="userSpaceOnUse">
<stop stop-color="#7A3991"/>
<stop offset="1" stop-color="#D2288A"/>
</linearGradient>
<linearGradient id="paint2_linear_2957_4540" x1="22.0796" y1="11.5195" x2="22.0796" y2="13.4395" gradientUnits="userSpaceOnUse">
<stop stop-color="#7A3991"/>
<stop offset="1" stop-color="#D2288A"/>
</linearGradient>
<linearGradient id="paint3_linear_2957_4540" x1="24.6397" y1="11.5195" x2="24.6397" y2="13.4395" gradientUnits="userSpaceOnUse">
<stop stop-color="#7A3991"/>
<stop offset="1" stop-color="#D2288A"/>
</linearGradient>
<linearGradient id="paint4_linear_2957_4540" x1="12.1596" y1="26.8799" x2="12.1596" y2="28.1599" gradientUnits="userSpaceOnUse">
<stop stop-color="#7A3991"/>
<stop offset="1" stop-color="#D2288A"/>
</linearGradient>
<linearGradient id="paint5_linear_2957_4540" x1="16.9599" y1="26.8799" x2="16.9599" y2="28.1599" gradientUnits="userSpaceOnUse">
<stop stop-color="#7A3991"/>
<stop offset="1" stop-color="#D2288A"/>
</linearGradient>
<linearGradient id="paint6_linear_2957_4540" x1="24.6396" y1="3.83984" x2="24.6396" y2="44.1597" gradientUnits="userSpaceOnUse">
<stop stop-color="#7A3991"/>
<stop offset="1" stop-color="#D2288A"/>
</linearGradient>
<linearGradient id="paint7_linear_2957_4540" x1="36.4801" y1="7.04004" x2="36.4801" y2="12.1603" gradientUnits="userSpaceOnUse">
<stop stop-color="#7A3991"/>
<stop offset="1" stop-color="#D2288A"/>
</linearGradient>
<linearGradient id="paint8_linear_2957_4540" x1="12.7997" y1="8.32031" x2="12.7997" y2="12.8003" gradientUnits="userSpaceOnUse">
<stop stop-color="#7A3991"/>
<stop offset="1" stop-color="#D2288A"/>
</linearGradient>
<linearGradient id="paint9_linear_2957_4540" x1="7.99977" y1="14.7197" x2="7.99977" y2="15.9997" gradientUnits="userSpaceOnUse">
<stop stop-color="#7A3991"/>
<stop offset="1" stop-color="#D2288A"/>
</linearGradient>
<linearGradient id="paint10_linear_2957_4540" x1="9.14414" y1="9.83594" x2="9.14414" y2="13.3909" gradientUnits="userSpaceOnUse">
<stop stop-color="#7A3991"/>
<stop offset="1" stop-color="#D2288A"/>
</linearGradient>
</defs>
</svg>
