<svg width="40" height="40" viewBox="0 0 40 40" fill="none" xmlns="http://www.w3.org/2000/svg">
<g clip-path="url(#clip0_2957_4575)">
<path d="M35.1813 16.2503C35.0203 16.2821 34.8783 16.376 34.7859 16.5117C34.6935 16.6473 34.6582 16.8138 34.6876 16.9753C34.8561 17.7656 34.9606 18.5682 35.0001 19.3753H28.4032C28.3844 18.5034 28.3344 17.6347 28.2501 16.7878C28.2417 16.7057 28.2172 16.6261 28.178 16.5535C28.1388 16.4809 28.0857 16.4167 28.0217 16.3646C27.9577 16.3126 27.8841 16.2736 27.8051 16.2499C27.726 16.2263 27.6431 16.2185 27.561 16.2269C27.4789 16.2353 27.3993 16.2598 27.3267 16.299C27.2541 16.3382 27.1899 16.3913 27.1378 16.4552C27.0857 16.5192 27.0468 16.5928 27.0231 16.6719C26.9995 16.7509 26.9917 16.8339 27.0001 16.9159C27.0813 17.7222 27.1282 18.5472 27.147 19.3753H20.6251V14.6347C20.8438 14.6347 21.0626 14.6222 21.2813 14.5972C21.4471 14.5839 21.6008 14.5054 21.7086 14.3788C21.8165 14.2522 21.8696 14.088 21.8563 13.9222C21.8431 13.7564 21.7645 13.6027 21.6379 13.4949C21.5113 13.3871 21.3471 13.3339 21.1813 13.3472C20.9969 13.3628 20.8094 13.3691 20.6251 13.3784V5.01594C21.4262 5.04873 22.2235 5.14486 23.0094 5.30344C23.0899 5.31986 23.1728 5.32027 23.2534 5.30466C23.3339 5.28904 23.4107 5.2577 23.4792 5.21244C23.5476 5.16717 23.6065 5.10885 23.6525 5.04082C23.6984 4.97279 23.7305 4.89638 23.7469 4.81594C23.7634 4.73551 23.7638 4.65263 23.7482 4.57204C23.7325 4.49144 23.7012 4.41471 23.6559 4.34623C23.6107 4.27775 23.5524 4.21885 23.4843 4.1729C23.4163 4.12696 23.3399 4.09486 23.2594 4.07845C20.6289 3.5381 17.9054 3.6581 15.3326 4.42774C12.7598 5.19737 10.4178 6.59264 8.51613 8.48876C6.61444 10.3849 5.2123 12.7228 4.43512 15.2933C3.65794 17.8639 3.52994 20.587 4.06257 23.2191C4.09115 23.3629 4.16942 23.4922 4.28368 23.5842C4.39794 23.6761 4.54091 23.725 4.68757 23.7222C4.72912 23.7267 4.77102 23.7267 4.81257 23.7222C4.89301 23.7058 4.96944 23.6737 5.03748 23.6278C5.10551 23.5818 5.16383 23.5229 5.20911 23.4544C5.25438 23.386 5.28571 23.3092 5.30132 23.2286C5.31693 23.148 5.3165 23.0651 5.30007 22.9847C5.14338 22.2069 5.04829 21.418 5.0157 20.6253H11.5969C11.5969 21.4816 11.6626 22.3347 11.7469 23.1691C11.7625 23.3238 11.8351 23.4671 11.9507 23.5711C12.0663 23.6751 12.2165 23.7323 12.3719 23.7316H12.4344C12.5161 23.7234 12.5954 23.6992 12.6677 23.6603C12.74 23.6215 12.8039 23.5688 12.8559 23.5052C12.9078 23.4417 12.9467 23.3685 12.9704 23.2899C12.9941 23.2113 13.002 23.1289 12.9938 23.0472C12.9126 22.2534 12.8657 21.4441 12.8501 20.6284H19.3751V25.3691C19.1563 25.3691 18.9376 25.3691 18.7188 25.4034C18.5531 25.4163 18.3992 25.4945 18.2911 25.6208C18.1829 25.747 18.1294 25.9111 18.1423 26.0769C18.1551 26.2426 18.2333 26.3965 18.3596 26.5046C18.4859 26.6128 18.6499 26.6663 18.8157 26.6534C19.0032 26.6534 19.1907 26.6316 19.3751 26.6222V35.0003C18.5761 34.9688 17.7809 34.8737 16.9969 34.7159C16.9165 34.6995 16.8336 34.6991 16.753 34.7147C16.6724 34.7303 16.5957 34.7617 16.5272 34.807C16.4587 34.8522 16.3999 34.9105 16.3539 34.9786C16.308 35.0466 16.2759 35.123 16.2594 35.2034C16.243 35.2839 16.2426 35.3668 16.2582 35.4474C16.2739 35.5279 16.3052 35.6047 16.3505 35.6732C16.3957 35.7416 16.454 35.8005 16.5221 35.8465C16.5901 35.8924 16.6665 35.9245 16.7469 35.9409C17.8183 36.1521 18.9081 36.2557 20.0001 36.2503C24.3098 36.2503 28.4431 34.5383 31.4906 31.4908C34.538 28.4433 36.2501 24.3101 36.2501 20.0003C36.2498 18.9003 36.1388 17.8031 35.9188 16.7253C35.8829 16.5652 35.7854 16.4256 35.6474 16.3367C35.5094 16.2478 35.342 16.2168 35.1813 16.2503V16.2503ZM31.2657 29.9003C30.1636 28.8385 28.9169 27.938 27.5626 27.2253C28.0892 25.0638 28.3712 22.8499 28.4032 20.6253H35.0001C34.862 24.0551 33.5427 27.3317 31.2657 29.9003V29.9003ZM19.3751 5.06282V13.3816C17.5034 13.3086 15.6621 12.8845 13.9469 12.1316C15.1188 8.23782 17.1157 5.4972 19.3751 5.06282ZM12.7813 11.5441C11.6219 10.9055 10.5513 10.1175 9.59695 9.20032C11.431 7.42464 13.6909 6.15049 16.1594 5.50032C14.7469 6.87532 13.5813 8.95969 12.7813 11.5441ZM8.75007 10.1034C9.84693 11.1654 11.0884 12.067 12.4376 12.7816C11.9093 14.9407 11.6273 17.1527 11.5969 19.3753H5.0157C5.15168 15.946 6.47127 12.6697 8.75007 10.1034V10.1034ZM12.8469 19.3753C12.8834 17.3409 13.1411 15.3165 13.6157 13.3378C15.44 14.1183 17.3922 14.5569 19.3751 14.6316V19.3753H12.8469ZM27.1532 20.6253C27.1155 22.6586 26.8577 24.6819 26.3844 26.6597C24.5597 25.8805 22.6077 25.442 20.6251 25.3659V20.6253H27.1532ZM20.6251 34.9378V26.6191C22.4968 26.6921 24.3381 27.1161 26.0532 27.8691C24.8782 31.7628 22.8844 34.5034 20.6251 34.9378ZM27.2188 28.4566C28.378 29.0953 29.4477 29.8844 30.4001 30.8034C28.5658 32.5781 26.3059 33.8512 23.8376 34.5003C25.2532 33.1253 26.4188 31.0409 27.2188 28.4566Z" fill="url(#paint0_linear_2957_4575)"/>
<path d="M38.6471 -2.49524e-05H26.2502C26.0836 -0.00954537 25.9168 0.0162659 25.7609 0.0757166C25.6049 0.135167 25.4632 0.226914 25.3452 0.344942C25.2272 0.46297 25.1354 0.604613 25.076 0.760584C25.0165 0.916555 24.9907 1.08333 25.0002 1.24998V11.25C24.9901 11.7809 24.8404 12.2999 24.5661 12.7547C24.2918 13.2094 23.9027 13.5839 23.4377 13.8406C23.3219 13.9108 23.232 14.0168 23.1816 14.1425C23.1312 14.2682 23.123 14.4069 23.1583 14.5377C23.1935 14.6685 23.2703 14.7843 23.3771 14.8677C23.4838 14.9511 23.6148 14.9975 23.7502 15H38.6471C38.8252 14.9996 39.0015 14.9641 39.1659 14.8955C39.3303 14.827 39.4796 14.7268 39.6052 14.6005C39.7309 14.4743 39.8304 14.3246 39.8982 14.1599C39.966 13.9951 40.0007 13.8187 40.0002 13.6406V1.35935C40.0007 1.18124 39.966 1.0048 39.8982 0.840097C39.8304 0.675392 39.7309 0.52565 39.6052 0.39942C39.4796 0.27319 39.3303 0.172945 39.1659 0.104408C39.0015 0.0358714 38.8252 0.000384956 38.6471 -2.49524e-05V-2.49524e-05ZM38.7502 13.6406C38.7507 13.6546 38.7483 13.6685 38.7434 13.6815C38.7384 13.6946 38.7309 13.7065 38.7214 13.7167C38.7118 13.7268 38.7003 13.735 38.6876 13.7407C38.6748 13.7464 38.6611 13.7496 38.6471 13.75H25.3909C25.948 13.0358 26.2505 12.1558 26.2502 11.25V1.24998H38.6471C38.6611 1.25038 38.6748 1.25353 38.6876 1.25925C38.7003 1.26496 38.7118 1.27313 38.7214 1.28329C38.7309 1.29345 38.7384 1.30539 38.7434 1.31845C38.7483 1.3315 38.7507 1.3454 38.7502 1.35935V13.6406Z" fill="url(#paint1_linear_2957_4575)"/>
<path d="M16.8531 25.4563C16.8163 25.3248 16.7373 25.2089 16.6284 25.1266C16.5195 25.0442 16.3866 24.9997 16.25 25H1.35313C1.17502 25.0004 0.998742 25.0359 0.834351 25.1044C0.66996 25.173 0.520679 25.2732 0.395029 25.3994C0.26938 25.5257 0.169824 25.6754 0.102045 25.8401C0.0342665 26.0048 -0.000407245 26.1813 3.60884e-06 26.3594V38.6406C-0.000407245 38.8187 0.0342665 38.9952 0.102045 39.1599C0.169824 39.3246 0.26938 39.4743 0.395029 39.6006C0.520679 39.7268 0.66996 39.827 0.834351 39.8956C0.998742 39.9641 1.17502 39.9996 1.35313 40H13.75C13.9166 40.0095 14.0834 39.9837 14.2394 39.9243C14.3954 39.8648 14.537 39.7731 14.655 39.655C14.7731 39.537 14.8648 39.3954 14.9243 39.2394C14.9837 39.0834 15.0095 38.9166 15 38.75V28.75C15.0101 28.219 15.1598 27.7001 15.4341 27.2453C15.7084 26.7906 16.0976 26.416 16.5625 26.1594C16.6816 26.0905 16.7746 25.9843 16.8271 25.8571C16.8797 25.73 16.8888 25.5891 16.8531 25.4563ZM13.75 28.75V38.75H1.35313C1.33917 38.7496 1.32544 38.7464 1.3127 38.7407C1.29996 38.735 1.28848 38.7268 1.2789 38.7167C1.26932 38.7065 1.26184 38.6946 1.25688 38.6815C1.25192 38.6685 1.24959 38.6546 1.25 38.6406V26.3594C1.24959 26.3454 1.25192 26.3315 1.25688 26.3185C1.26184 26.3054 1.26932 26.2935 1.2789 26.2833C1.28848 26.2732 1.29996 26.265 1.3127 26.2593C1.32544 26.2536 1.33917 26.2504 1.35313 26.25H14.6094C14.0522 26.9642 13.7497 27.8442 13.75 28.75Z" fill="url(#paint2_linear_2957_4575)"/>
<path d="M4.375 31.25H10.625C10.7908 31.25 10.9497 31.1842 11.0669 31.0669C11.1842 30.9497 11.25 30.7908 11.25 30.625C11.25 30.4592 11.1842 30.3003 11.0669 30.1831C10.9497 30.0658 10.7908 30 10.625 30H4.375C4.20924 30 4.05027 30.0658 3.93306 30.1831C3.81585 30.3003 3.75 30.4592 3.75 30.625C3.75 30.7908 3.81585 30.9497 3.93306 31.0669C4.05027 31.1842 4.20924 31.25 4.375 31.25Z" fill="url(#paint3_linear_2957_4575)"/>
<path d="M4.375 35H8.125C8.29076 35 8.44973 34.9342 8.56694 34.8169C8.68415 34.6997 8.75 34.5408 8.75 34.375C8.75 34.2092 8.68415 34.0503 8.56694 33.9331C8.44973 33.8158 8.29076 33.75 8.125 33.75H4.375C4.20924 33.75 4.05027 33.8158 3.93306 33.9331C3.81585 34.0503 3.75 34.2092 3.75 34.375C3.75 34.5408 3.81585 34.6997 3.93306 34.8169C4.05027 34.9342 4.20924 35 4.375 35Z" fill="url(#paint4_linear_2957_4575)"/>
<path d="M35.625 5H29.375C29.2092 5 29.0503 5.06585 28.9331 5.18306C28.8158 5.30027 28.75 5.45924 28.75 5.625C28.75 5.79076 28.8158 5.94973 28.9331 6.06694C29.0503 6.18415 29.2092 6.25 29.375 6.25H35.625C35.7908 6.25 35.9497 6.18415 36.0669 6.06694C36.1842 5.94973 36.25 5.79076 36.25 5.625C36.25 5.45924 36.1842 5.30027 36.0669 5.18306C35.9497 5.06585 35.7908 5 35.625 5Z" fill="url(#paint5_linear_2957_4575)"/>
<path d="M34.375 8.75H29.375C29.2092 8.75 29.0503 8.81585 28.9331 8.93306C28.8158 9.05027 28.75 9.20924 28.75 9.375C28.75 9.54076 28.8158 9.69973 28.9331 9.81694C29.0503 9.93415 29.2092 10 29.375 10H34.375C34.5408 10 34.6997 9.93415 34.8169 9.81694C34.9342 9.69973 35 9.54076 35 9.375C35 9.20924 34.9342 9.05027 34.8169 8.93306C34.6997 8.81585 34.5408 8.75 34.375 8.75Z" fill="url(#paint6_linear_2957_4575)"/>
</g>
<defs>
<linearGradient id="paint0_linear_2957_4575" x1="19.9949" y1="3.74609" x2="19.9949" y2="36.2505" gradientUnits="userSpaceOnUse">
<stop stop-color="#7A3991"/>
<stop offset="1" stop-color="#D2288A"/>
</linearGradient>
<linearGradient id="paint1_linear_2957_4575" x1="31.5685" y1="-0.00195313" x2="31.5685" y2="15" gradientUnits="userSpaceOnUse">
<stop stop-color="#7A3991"/>
<stop offset="1" stop-color="#D2288A"/>
</linearGradient>
<linearGradient id="paint2_linear_2957_4575" x1="8.43726" y1="25" x2="8.43726" y2="40.0019" gradientUnits="userSpaceOnUse">
<stop stop-color="#7A3991"/>
<stop offset="1" stop-color="#D2288A"/>
</linearGradient>
<linearGradient id="paint3_linear_2957_4575" x1="7.5" y1="30" x2="7.5" y2="31.25" gradientUnits="userSpaceOnUse">
<stop stop-color="#7A3991"/>
<stop offset="1" stop-color="#D2288A"/>
</linearGradient>
<linearGradient id="paint4_linear_2957_4575" x1="6.25" y1="33.75" x2="6.25" y2="35" gradientUnits="userSpaceOnUse">
<stop stop-color="#7A3991"/>
<stop offset="1" stop-color="#D2288A"/>
</linearGradient>
<linearGradient id="paint5_linear_2957_4575" x1="32.5" y1="5" x2="32.5" y2="6.25" gradientUnits="userSpaceOnUse">
<stop stop-color="#7A3991"/>
<stop offset="1" stop-color="#D2288A"/>
</linearGradient>
<linearGradient id="paint6_linear_2957_4575" x1="31.875" y1="8.75" x2="31.875" y2="10" gradientUnits="userSpaceOnUse">
<stop stop-color="#7A3991"/>
<stop offset="1" stop-color="#D2288A"/>
</linearGradient>
<clipPath id="clip0_2957_4575">
<rect width="40" height="40" fill="white"/>
</clipPath>
</defs>
</svg>
