<svg width="40" height="40" viewBox="0 0 40 40" fill="none" xmlns="http://www.w3.org/2000/svg">
<g clip-path="url(#clip0_2957_4609)">
<path d="M9.52254 28.766C9.84684 28.766 10.1096 28.5032 10.1096 28.1789C10.1096 27.8546 9.84684 27.5918 9.52254 27.5918C8.19652 27.5918 7.24098 27.8477 6.5152 28.3969C5.93684 28.8345 5.53512 29.4523 5.31184 30.2412H4.69551C4.37121 30.2412 4.1084 30.504 4.1084 30.8283C4.1084 31.1526 4.37121 31.4154 4.69551 31.4154H5.11973C5.10949 31.5742 5.10309 31.7366 5.10309 31.905C5.10309 32.0734 5.10949 32.2359 5.11973 32.3947H4.69551C4.37121 32.3947 4.1084 32.6575 4.1084 32.9818C4.1084 33.3061 4.37121 33.5689 4.69551 33.5689H5.31184C5.53512 34.3577 5.93691 34.9754 6.5152 35.4131C7.24098 35.9624 8.19652 36.2183 9.52254 36.2183C9.84684 36.2183 10.1096 35.9555 10.1096 35.6312C10.1096 35.3069 9.84684 35.0441 9.52254 35.0441C7.91074 35.0441 6.96699 34.5986 6.54465 33.5688H8.6177C8.94199 33.5688 9.2048 33.306 9.2048 32.9817C9.2048 32.6574 8.94199 32.3946 8.6177 32.3946H6.2948C6.28348 32.2388 6.27723 32.0762 6.27723 31.9049C6.27723 31.7337 6.28348 31.5712 6.2948 31.4153H8.61777C8.94207 31.4153 9.20488 31.1525 9.20488 30.8282C9.20488 30.5039 8.94207 30.2411 8.61777 30.2411H6.54473C6.96699 29.2115 7.91082 28.766 9.52254 28.766V28.766Z" fill="url(#paint0_linear_2957_4609)"/>
<path d="M29.3971 8.41834H30.4965L30.5048 8.48944C30.5905 9.25647 30.5456 9.54248 29.9326 10.3657L29.3166 11.1401C29.0094 11.5016 29.2967 12.104 29.7709 12.0927L34.5869 12.1353H34.5922C34.914 12.1353 35.1763 11.8758 35.1792 11.5534C35.182 11.2292 34.9215 10.964 34.5973 10.9612L30.9753 10.9291C31.6272 10.0216 31.7838 9.44506 31.6776 8.41842H32.7794C33.1037 8.41842 33.3665 8.15561 33.3665 7.83131C33.3665 7.50702 33.1037 7.2442 32.7794 7.2442H31.3929C31.1579 6.89342 30.7489 6.156 30.7515 5.54866C30.7515 5.54787 30.7515 5.54709 30.7515 5.54631C30.7515 5.54553 30.7515 5.54475 30.7515 5.54397C30.7501 5.14998 30.9219 4.86108 31.2765 4.66084C31.8133 4.35795 32.6476 4.35319 33.1362 4.65022C33.5182 4.88248 33.8072 5.20889 33.8905 5.50217C33.979 5.81405 34.3036 5.9953 34.6155 5.90662C34.9274 5.81811 35.1085 5.4935 35.02 5.18155C34.8544 4.59764 34.39 4.03826 33.7463 3.64694C32.8919 3.12733 31.6104 3.12397 30.6993 3.63834C29.9756 4.04701 29.5777 4.7217 29.5776 5.53897C29.5776 5.54053 29.5774 5.54202 29.5774 5.54358C29.5774 5.54428 29.5775 5.54498 29.5775 5.54569C29.5775 5.54655 29.5774 5.54733 29.5774 5.54827C29.5774 5.55069 29.5777 5.55295 29.5778 5.55537C29.578 6.17022 29.8032 6.77842 30.0365 7.24412H29.3972C29.0729 7.24412 28.8101 7.50694 28.8101 7.83123C28.81 8.15553 29.0728 8.41834 29.3971 8.41834V8.41834Z" fill="url(#paint1_linear_2957_4609)"/>
<path d="M36.0884 25.1845C36.7457 23.3516 37.0795 21.4287 37.0795 19.4603C37.0795 17.8177 36.8441 16.1963 36.3809 14.6334C38.5581 13.2107 40 10.7522 40 7.96289C40 3.57211 36.4279 0 32.0371 0C29.3519 0 26.973 1.33625 25.5299 3.37844C23.7891 2.79203 21.9695 2.4943 20.1136 2.4943C18.1927 2.4943 16.3116 2.81344 14.5143 3.44219C13.0759 1.36414 10.6759 0 7.96289 0C3.57211 0 0 3.57211 0 7.96289C0 10.8332 1.52672 13.3535 3.81063 14.7549C3.37102 16.2802 3.14766 17.8607 3.14766 19.4603C3.14766 21.3877 3.46891 23.274 4.10117 25.0755C1.65719 26.4366 0 29.0468 0 32.0371C0 36.4279 3.57211 40 7.96289 40C11.051 40 13.7341 38.233 15.0545 35.657C16.688 36.167 18.3873 36.4263 20.1136 36.4263C21.7702 36.4263 23.4036 36.1873 24.9772 35.717C26.3082 38.2602 28.9731 40 32.0371 40C36.4279 40 40 36.4279 40 32.0371C40 29.1248 38.428 26.573 36.0884 25.1845V25.1845ZM32.0371 1.17414C35.7804 1.17414 38.8258 4.21953 38.8258 7.96281C38.8258 11.7062 35.7804 14.7516 32.0371 14.7516C28.2938 14.7516 25.2484 11.7062 25.2484 7.96281C25.2484 4.21961 28.2938 1.17414 32.0371 1.17414ZM33.3042 15.8246C34.0137 15.7107 34.6922 15.503 35.3264 15.2141C35.7105 16.5923 35.9053 18.0174 35.9053 19.4603C35.9053 21.2465 35.6102 22.9919 35.0291 24.6581C34.382 24.3948 33.6929 24.2143 32.9747 24.1297C33.5181 22.6364 33.7941 21.0696 33.7941 19.4603C33.7941 18.2246 33.6291 17.0049 33.3042 15.8246V15.8246ZM20.1136 3.66852C21.7552 3.66852 23.366 3.91797 24.9119 4.41078C24.5992 5.03531 24.3663 5.70633 24.2266 6.41055C22.8998 5.99227 21.5196 5.77977 20.1136 5.77977C18.6291 5.77977 17.1772 6.01523 15.7866 6.47906C15.6532 5.77422 15.4268 5.10195 15.1204 4.47562C16.7266 3.94008 18.403 3.66852 20.1136 3.66852ZM1.17414 7.96289C1.17414 4.21961 4.21953 1.17422 7.96281 1.17422C11.7062 1.17422 14.7516 4.21961 14.7516 7.96289C14.7516 11.7063 11.7062 14.7516 7.96281 14.7516C4.21961 14.7516 1.17414 11.7062 1.17414 7.96289ZM7.2443 24.107C6.52156 24.1719 5.82633 24.3337 5.1718 24.5795C4.60812 22.9355 4.3218 21.2165 4.3218 19.4602C4.3218 18.0486 4.50836 16.6534 4.87609 15.303C5.51719 15.5736 6.20094 15.7623 6.91406 15.8566C6.595 17.0271 6.43305 18.2359 6.43305 19.4602C6.43305 21.0615 6.70633 22.6205 7.2443 24.107V24.107ZM7.96289 38.8259C4.21961 38.8259 1.17422 35.7805 1.17422 32.0372C1.17422 28.2938 4.21961 25.2484 7.96289 25.2484C11.7063 25.2484 14.7516 28.2938 14.7516 32.0372C14.7516 35.7804 11.7062 38.8259 7.96289 38.8259V38.8259ZM20.1136 35.2521C18.5445 35.2521 16.9998 35.0226 15.5127 34.57C15.7352 33.9085 15.8728 33.2084 15.913 32.4827C17.2655 32.9192 18.6745 33.1408 20.1135 33.1408C21.4718 33.1408 22.806 32.9426 24.0913 32.5522C24.1377 33.2756 24.2809 33.973 24.5085 34.6316C23.085 35.0435 21.6095 35.2521 20.1136 35.2521V35.2521ZM24.1073 31.3142C22.8237 31.7469 21.4821 31.9666 20.1136 31.9666C18.6592 31.9666 17.2388 31.7196 15.8854 31.2331C15.4985 27.3926 12.3712 24.3491 8.49422 24.0923C7.90578 22.6194 7.60719 21.063 7.60719 19.4603C7.60719 18.2561 7.77828 17.0687 8.11523 15.9239C12.4359 15.8423 15.9257 12.3027 15.9257 7.96289C15.9257 7.86648 15.9234 7.7707 15.9199 7.67516C17.2626 7.19695 18.6711 6.95398 20.1134 6.95398C21.4732 6.95398 22.8063 7.17109 24.0827 7.59844C24.0773 7.7193 24.0741 7.8407 24.0741 7.96289C24.0741 12.3537 27.6463 15.9259 32.037 15.9259C32.0621 15.9259 32.087 15.9252 32.1121 15.9249C32.4488 17.0692 32.6198 18.2563 32.6198 19.4604C32.6198 21.0588 32.3227 22.6109 31.7373 24.0805C27.7266 24.2296 24.465 27.3591 24.1073 31.3142ZM32.0371 38.8259C28.2938 38.8259 25.2484 35.7805 25.2484 32.0372C25.2484 28.2938 28.2938 25.2484 32.0371 25.2484C35.7804 25.2484 38.8258 28.2938 38.8258 32.0372C38.8259 35.7804 35.7804 38.8259 32.0371 38.8259Z" fill="url(#paint2_linear_2957_4609)"/>
<path d="M34.7789 27.7751C34.5084 27.5959 34.1442 27.6702 33.9653 27.9405L32.0495 30.8352L30.1149 27.9207C29.9355 27.6505 29.5711 27.577 29.3011 27.7562C29.0309 27.9356 28.9573 28.2999 29.1365 28.57L31.1823 31.6519H29.6307C29.3064 31.6519 29.0436 31.9147 29.0436 32.239C29.0436 32.5633 29.3064 32.8261 29.6307 32.8261H31.4606L31.4586 33.6503H29.6306C29.3063 33.6503 29.0435 33.9131 29.0435 34.2374C29.0435 34.5617 29.3063 34.8245 29.6306 34.8245H31.456L31.4536 35.8345C31.4529 36.1588 31.7151 36.4221 32.0393 36.4229H32.0407C32.3643 36.4229 32.6271 36.1609 32.6279 35.8372L32.6302 34.8245H34.4499C34.7742 34.8245 35.037 34.5617 35.037 34.2374C35.037 33.9131 34.7742 33.6503 34.4499 33.6503H32.6329L32.6347 32.8261H34.4498C34.7741 32.8261 35.0369 32.5633 35.0369 32.239C35.0369 31.9147 34.7741 31.6519 34.4498 31.6519H32.917L34.9443 28.5887C35.1233 28.3183 35.0493 27.954 34.7789 27.7751V27.7751Z" fill="url(#paint3_linear_2957_4609)"/>
<path d="M8.50696 12.2963V11.8277C9.53594 11.5777 10.1959 10.7037 10.3409 9.84203C10.5284 8.72609 9.94547 7.75609 8.85571 7.37094C8.74094 7.33039 8.62399 7.2882 8.50696 7.24461V5.20961C8.75508 5.29453 8.90016 5.41703 8.91149 5.42695C9.01719 5.52937 9.1611 5.59266 9.32001 5.59266C9.64446 5.59266 9.90758 5.32961 9.90758 5.00508C9.90758 4.82633 9.82766 4.66633 9.70172 4.55859C9.67446 4.53336 9.23243 4.13539 8.50704 3.99906V3.63008C8.50704 3.30578 8.24422 3.04297 7.91993 3.04297C7.59563 3.04297 7.33282 3.30578 7.33282 3.63008V4.04023C7.28727 4.05172 7.24126 4.06438 7.19469 4.07836C6.47243 4.29594 5.9329 4.91281 5.7868 5.68836C5.6529 6.39906 5.88297 7.08617 6.38719 7.48164C6.63149 7.6732 6.9304 7.84883 7.33282 8.03203V10.7024C7.03086 10.665 6.81008 10.5697 6.45977 10.3405C6.1886 10.1631 5.82461 10.2391 5.64711 10.5105C5.46961 10.7818 5.54571 11.1456 5.81704 11.3231C6.40954 11.7107 6.82485 11.8421 7.33282 11.8823V12.2962C7.33282 12.6205 7.59563 12.8833 7.91993 12.8833C8.24415 12.8834 8.50696 12.6205 8.50696 12.2963V12.2963ZM8.50696 8.49414C9.26352 8.78633 9.21633 9.44828 9.1829 9.64727C9.12251 10.0065 8.89313 10.3853 8.50696 10.5838V8.49414ZM7.33282 6.70922C7.25235 6.65984 7.17766 6.60953 7.1118 6.55781C6.95626 6.4357 6.88899 6.17984 6.94063 5.90594C6.98086 5.69266 7.10415 5.44398 7.33282 5.29594V6.70922Z" fill="url(#paint4_linear_2957_4609)"/>
<path d="M20.0002 12.4229C15.8221 12.4229 12.4229 15.8221 12.4229 20.0002C12.4229 24.1783 15.8221 27.5775 20.0002 27.5775C24.1783 27.5775 27.5775 24.1783 27.5775 20.0002C27.5775 15.8221 24.1783 12.4229 20.0002 12.4229ZM25.6974 17.0831H23.5046C23.3378 16.2494 23.0992 15.4799 22.7943 14.8132C22.67 14.5414 22.5366 14.2914 22.3954 14.0636C23.824 14.642 24.9972 15.7213 25.6974 17.0831ZM22.6095 20.0002C22.6095 20.6138 22.5726 21.1964 22.5064 21.7432H17.4939C17.4278 21.1964 17.3908 20.6138 17.3908 20.0002C17.3908 19.3866 17.4277 18.8039 17.4939 18.2572H22.5064C22.5726 18.8039 22.6095 19.3866 22.6095 20.0002ZM20.0002 13.597C20.882 13.597 21.8355 14.94 22.3082 17.083H17.6922C18.1649 14.94 19.1184 13.597 20.0002 13.597ZM17.6051 14.0635C17.4639 14.2914 17.3304 14.5413 17.2061 14.8132C16.9013 15.4798 16.6627 16.2493 16.4958 17.083H14.3031C15.0032 15.7213 16.1764 14.642 17.6051 14.0635V14.0635ZM13.597 20.0002C13.597 19.396 13.6829 18.8118 13.8401 18.2572H16.3132C16.2498 18.8219 16.2167 19.4059 16.2167 20.0002C16.2167 20.5945 16.2497 21.1785 16.3132 21.7432H13.8401C13.6829 21.1886 13.597 20.6044 13.597 20.0002ZM14.303 22.9174H16.4957C16.6626 23.7511 16.9012 24.5206 17.2061 25.1872C17.3304 25.4591 17.4638 25.709 17.605 25.9369C16.1764 25.3584 15.0032 24.2791 14.303 22.9174V22.9174ZM20.0002 26.4034C19.1184 26.4034 18.1649 25.0604 17.6921 22.9174H22.3082C21.8355 25.0604 20.882 26.4034 20.0002 26.4034V26.4034ZM22.3949 25.9371C22.5362 25.709 22.6699 25.4593 22.7943 25.1871C23.0991 24.5205 23.3377 23.7511 23.5046 22.9173H25.6973C24.9971 24.2793 23.8238 25.3586 22.3949 25.9371V25.9371ZM23.6871 21.7432C23.7506 21.1785 23.7836 20.5944 23.7836 20.0002C23.7836 19.4059 23.7506 18.8219 23.6871 18.2572H26.1603C26.3175 18.8118 26.4034 19.396 26.4034 20.0002C26.4034 20.6044 26.3175 21.1886 26.1603 21.7432H23.6871Z" fill="url(#paint5_linear_2957_4609)"/>
</g>
<defs>
<linearGradient id="paint0_linear_2957_4609" x1="7.10902" y1="27.5918" x2="7.10902" y2="36.2183" gradientUnits="userSpaceOnUse">
<stop stop-color="#7A3991"/>
<stop offset="1" stop-color="#D2288A"/>
</linearGradient>
<linearGradient id="paint1_linear_2957_4609" x1="31.9946" y1="3.25488" x2="31.9946" y2="12.1353" gradientUnits="userSpaceOnUse">
<stop stop-color="#7A3991"/>
<stop offset="1" stop-color="#D2288A"/>
</linearGradient>
<linearGradient id="paint2_linear_2957_4609" x1="20" y1="0" x2="20" y2="40" gradientUnits="userSpaceOnUse">
<stop stop-color="#7A3991"/>
<stop offset="1" stop-color="#D2288A"/>
</linearGradient>
<linearGradient id="paint3_linear_2957_4609" x1="32.0403" y1="27.6582" x2="32.0403" y2="36.4229" gradientUnits="userSpaceOnUse">
<stop stop-color="#7A3991"/>
<stop offset="1" stop-color="#D2288A"/>
</linearGradient>
<linearGradient id="paint4_linear_2957_4609" x1="7.96344" y1="3.04297" x2="7.96344" y2="12.8833" gradientUnits="userSpaceOnUse">
<stop stop-color="#7A3991"/>
<stop offset="1" stop-color="#D2288A"/>
</linearGradient>
<linearGradient id="paint5_linear_2957_4609" x1="20.0002" y1="12.4229" x2="20.0002" y2="27.5775" gradientUnits="userSpaceOnUse">
<stop stop-color="#7A3991"/>
<stop offset="1" stop-color="#D2288A"/>
</linearGradient>
<clipPath id="clip0_2957_4609">
<rect width="40" height="40" fill="white"/>
</clipPath>
</defs>
</svg>
