<svg width="46" height="46" viewBox="0 0 46 46" fill="none" xmlns="http://www.w3.org/2000/svg">
<path d="M23.7188 23.7188H0.71875C0.528126 23.7188 0.345309 23.643 0.210517 23.5082C0.0757252 23.3734 0 23.1906 0 23C0 22.8094 0.0757252 22.6266 0.210517 22.4918C0.345309 22.357 0.528126 22.2812 0.71875 22.2812H23.7188C23.9094 22.2812 24.0922 22.357 24.227 22.4918C24.3618 22.6266 24.4375 22.8094 24.4375 23C24.4375 23.1906 24.3618 23.3734 24.227 23.5082C24.0922 23.643 23.9094 23.7188 23.7188 23.7188Z" fill="url(#paint0_linear_2957_4623)"/>
<path d="M20.1248 43.125C16.304 43.1243 12.5624 42.036 9.33738 39.9873C6.11233 37.9386 3.5371 35.0142 1.91274 31.556C0.288391 28.0977 -0.317962 24.2485 0.164572 20.4583C0.647105 16.6682 2.19859 13.0937 4.63764 10.1528C7.07669 7.21185 10.3025 5.02598 13.938 3.85073C17.5735 2.67548 21.4685 2.5594 25.1675 3.51607C28.8665 4.47274 32.2168 6.46263 34.8267 9.2531C37.4365 12.0436 39.1981 15.5193 39.9055 19.274C39.9406 19.4614 39.8998 19.655 39.7921 19.8123C39.6844 19.9696 39.5186 20.0777 39.3312 20.1128C39.1438 20.1479 38.9502 20.1071 38.7929 19.9994C38.6356 19.8917 38.5275 19.7259 38.4924 19.5385C37.7886 15.8216 35.9725 12.4061 33.2846 9.74419C30.5966 7.08229 27.1636 5.29954 23.44 4.63195C19.7165 3.96436 15.8779 4.44343 12.4326 6.00573C8.98736 7.56803 6.09781 10.1399 4.14657 13.3808C2.19532 16.6217 1.2744 20.3787 1.50573 24.1546C1.73706 27.9305 3.10972 31.5471 5.442 34.5255C7.77427 37.504 10.9562 39.7039 14.5664 40.8339C18.1766 41.964 22.0449 41.9709 25.6592 40.8538C25.7499 40.8237 25.8456 40.8121 25.9409 40.8196C26.0361 40.827 26.1289 40.8533 26.2139 40.8971C26.2988 40.9408 26.3742 41.001 26.4356 41.0742C26.497 41.1474 26.5432 41.2321 26.5714 41.3233C26.5997 41.4146 26.6095 41.5106 26.6003 41.6056C26.5911 41.7007 26.563 41.793 26.5176 41.8771C26.4723 41.9612 26.4107 42.0354 26.3363 42.0954C26.262 42.1554 26.1764 42.2 26.0847 42.2266C24.1544 42.8234 22.1452 43.1263 20.1248 43.125V43.125Z" fill="url(#paint1_linear_2957_4623)"/>
<path d="M20.125 43.125C14.4821 43.125 10.0625 34.2844 10.0625 23C10.0625 11.7156 14.4821 2.875 20.125 2.875C25.0801 2.875 29.1511 9.64634 30.0243 19.3416C30.0415 19.5314 29.9825 19.7203 29.8604 19.8667C29.7383 20.0131 29.563 20.105 29.3732 20.1221C29.1833 20.1393 28.9944 20.0803 28.848 19.9582C28.7016 19.8361 28.6097 19.6608 28.5926 19.4709C27.8156 10.8287 24.1737 4.3125 20.125 4.3125C15.4531 4.3125 11.5 12.8707 11.5 23C11.5 33.1293 15.4531 41.6875 20.125 41.6875C21.2917 41.6475 22.4032 41.1807 23.2487 40.3758C23.3196 40.311 23.4027 40.261 23.4932 40.2289C23.5838 40.1968 23.6798 40.1832 23.7757 40.1888C23.8715 40.1944 23.9653 40.2192 24.0515 40.2616C24.1376 40.3041 24.2144 40.3634 24.2772 40.4361C24.34 40.5087 24.3877 40.5932 24.4173 40.6845C24.4469 40.7759 24.458 40.8723 24.4497 40.968C24.4415 41.0636 24.4141 41.1567 24.3693 41.2417C24.3245 41.3266 24.2631 41.4017 24.1888 41.4625C23.0847 42.4976 21.638 43.0894 20.125 43.125V43.125Z" fill="url(#paint2_linear_2957_4623)"/>
<path d="M36.6562 13.6562H3.59375C3.40313 13.6562 3.22031 13.5805 3.08552 13.4457C2.95073 13.3109 2.875 13.1281 2.875 12.9375C2.875 12.7469 2.95073 12.5641 3.08552 12.4293C3.22031 12.2945 3.40313 12.2188 3.59375 12.2188H36.6562C36.8469 12.2188 37.0297 12.2945 37.1645 12.4293C37.2993 12.5641 37.375 12.7469 37.375 12.9375C37.375 13.1281 37.2993 13.3109 37.1645 13.4457C37.0297 13.5805 36.8469 13.6562 36.6562 13.6562Z" fill="url(#paint3_linear_2957_4623)"/>
<path d="M20.8438 33.7812H3.59375C3.40313 33.7812 3.22031 33.7055 3.08552 33.5707C2.95073 33.4359 2.875 33.2531 2.875 33.0625C2.875 32.8719 2.95073 32.6891 3.08552 32.5543C3.22031 32.4195 3.40313 32.3438 3.59375 32.3438H20.8438C21.0344 32.3438 21.2172 32.4195 21.352 32.5543C21.4868 32.6891 21.5625 32.8719 21.5625 33.0625C21.5625 33.2531 21.4868 33.4359 21.352 33.5707C21.2172 33.7055 21.0344 33.7812 20.8438 33.7812Z" fill="url(#paint4_linear_2957_4623)"/>
<path d="M34.5 43.125C32.2255 43.125 30.0021 42.4505 28.1109 41.1869C26.2198 39.9233 24.7458 38.1272 23.8754 36.0259C23.005 33.9245 22.7772 31.6122 23.221 29.3815C23.6647 27.1507 24.76 25.1016 26.3683 23.4933C27.9766 21.885 30.0257 20.7897 32.2565 20.346C34.4872 19.9022 36.7995 20.13 38.9009 21.0004C41.0022 21.8708 42.7983 23.3448 44.0619 25.2359C45.3255 27.1271 46 29.3505 46 31.625C45.9964 34.6739 44.7836 37.5969 42.6277 39.7527C40.4719 41.9086 37.5489 43.1214 34.5 43.125ZM34.5 21.5625C32.5098 21.5625 30.5643 22.1527 28.9096 23.2583C27.2548 24.364 25.9651 25.9356 25.2035 27.7743C24.4419 29.6129 24.2426 31.6362 24.6309 33.5881C25.0191 35.54 25.9775 37.333 27.3847 38.7403C28.792 40.1475 30.585 41.1059 32.5369 41.4942C34.4888 41.8824 36.5121 41.6831 38.3508 40.9215C40.1894 40.1599 41.761 38.8702 42.8667 37.2154C43.9724 35.5607 44.5625 33.6152 44.5625 31.625C44.5597 28.9571 43.4986 26.3994 41.6121 24.5129C39.7257 22.6264 37.1679 21.5654 34.5 21.5625V21.5625Z" fill="url(#paint5_linear_2957_4623)"/>
<path d="M34.5 32.3438H31.625C31.4344 32.3438 31.2516 32.268 31.1168 32.1332C30.982 31.9984 30.9062 31.8156 30.9062 31.625C30.9062 31.4344 30.982 31.2516 31.1168 31.1168C31.2516 30.982 31.4344 30.9062 31.625 30.9062H33.7812V26.5938C33.7812 26.4031 33.857 26.2203 33.9918 26.0855C34.1266 25.9507 34.3094 25.875 34.5 25.875C34.6906 25.875 34.8734 25.9507 35.0082 26.0855C35.143 26.2203 35.2188 26.4031 35.2188 26.5938V31.625C35.2188 31.8156 35.143 31.9984 35.0082 32.1332C34.8734 32.268 34.6906 32.3438 34.5 32.3438Z" fill="url(#paint6_linear_2957_4623)"/>
<path d="M34.5 24.4375C34.3094 24.4375 34.1266 24.3618 33.9918 24.227C33.857 24.0922 33.7812 23.9094 33.7812 23.7188V23C33.7812 22.8094 33.857 22.6266 33.9918 22.4918C34.1266 22.357 34.3094 22.2812 34.5 22.2812C34.6906 22.2812 34.8734 22.357 35.0082 22.4918C35.143 22.6266 35.2188 22.8094 35.2188 23V23.7188C35.2188 23.9094 35.143 24.0922 35.0082 24.227C34.8734 24.3618 34.6906 24.4375 34.5 24.4375Z" fill="url(#paint7_linear_2957_4623)"/>
<path d="M26.5938 32.3438H25.875C25.6844 32.3438 25.5016 32.268 25.3668 32.1332C25.232 31.9984 25.1562 31.8156 25.1562 31.625C25.1562 31.4344 25.232 31.2516 25.3668 31.1168C25.5016 30.982 25.6844 30.9062 25.875 30.9062H26.5938C26.7844 30.9062 26.9672 30.982 27.102 31.1168C27.2368 31.2516 27.3125 31.4344 27.3125 31.625C27.3125 31.8156 27.2368 31.9984 27.102 32.1332C26.9672 32.268 26.7844 32.3438 26.5938 32.3438Z" fill="url(#paint8_linear_2957_4623)"/>
<path d="M34.5 40.9688C34.3094 40.9688 34.1266 40.893 33.9918 40.7582C33.857 40.6234 33.7812 40.4406 33.7812 40.25V39.5312C33.7812 39.3406 33.857 39.1578 33.9918 39.023C34.1266 38.8882 34.3094 38.8125 34.5 38.8125C34.6906 38.8125 34.8734 38.8882 35.0082 39.023C35.143 39.1578 35.2188 39.3406 35.2188 39.5312V40.25C35.2188 40.4406 35.143 40.6234 35.0082 40.7582C34.8734 40.893 34.6906 40.9688 34.5 40.9688Z" fill="url(#paint9_linear_2957_4623)"/>
<path d="M43.125 32.3438H42.4062C42.2156 32.3438 42.0328 32.268 41.898 32.1332C41.7632 31.9984 41.6875 31.8156 41.6875 31.625C41.6875 31.4344 41.7632 31.2516 41.898 31.1168C42.0328 30.982 42.2156 30.9062 42.4062 30.9062H43.125C43.3156 30.9062 43.4984 30.982 43.6332 31.1168C43.768 31.2516 43.8438 31.4344 43.8438 31.625C43.8438 31.8156 43.768 31.9984 43.6332 32.1332C43.4984 32.268 43.3156 32.3438 43.125 32.3438Z" fill="url(#paint10_linear_2957_4623)"/>
<defs>
<linearGradient id="paint0_linear_2957_4623" x1="12.2188" y1="22.2812" x2="12.2188" y2="23.7188" gradientUnits="userSpaceOnUse">
<stop stop-color="#7A3991"/>
<stop offset="1" stop-color="#D2288A"/>
</linearGradient>
<linearGradient id="paint1_linear_2957_4623" x1="19.9606" y1="2.875" x2="19.9606" y2="43.125" gradientUnits="userSpaceOnUse">
<stop stop-color="#7A3991"/>
<stop offset="1" stop-color="#D2288A"/>
</linearGradient>
<linearGradient id="paint2_linear_2957_4623" x1="20.0449" y1="2.875" x2="20.0449" y2="43.125" gradientUnits="userSpaceOnUse">
<stop stop-color="#7A3991"/>
<stop offset="1" stop-color="#D2288A"/>
</linearGradient>
<linearGradient id="paint3_linear_2957_4623" x1="20.125" y1="12.2188" x2="20.125" y2="13.6562" gradientUnits="userSpaceOnUse">
<stop stop-color="#7A3991"/>
<stop offset="1" stop-color="#D2288A"/>
</linearGradient>
<linearGradient id="paint4_linear_2957_4623" x1="12.2188" y1="32.3438" x2="12.2188" y2="33.7812" gradientUnits="userSpaceOnUse">
<stop stop-color="#7A3991"/>
<stop offset="1" stop-color="#D2288A"/>
</linearGradient>
<linearGradient id="paint5_linear_2957_4623" x1="34.5" y1="20.125" x2="34.5" y2="43.125" gradientUnits="userSpaceOnUse">
<stop stop-color="#7A3991"/>
<stop offset="1" stop-color="#D2288A"/>
</linearGradient>
<linearGradient id="paint6_linear_2957_4623" x1="33.0625" y1="25.875" x2="33.0625" y2="32.3438" gradientUnits="userSpaceOnUse">
<stop stop-color="#7A3991"/>
<stop offset="1" stop-color="#D2288A"/>
</linearGradient>
<linearGradient id="paint7_linear_2957_4623" x1="34.5" y1="22.2812" x2="34.5" y2="24.4375" gradientUnits="userSpaceOnUse">
<stop stop-color="#7A3991"/>
<stop offset="1" stop-color="#D2288A"/>
</linearGradient>
<linearGradient id="paint8_linear_2957_4623" x1="26.2344" y1="30.9062" x2="26.2344" y2="32.3438" gradientUnits="userSpaceOnUse">
<stop stop-color="#7A3991"/>
<stop offset="1" stop-color="#D2288A"/>
</linearGradient>
<linearGradient id="paint9_linear_2957_4623" x1="34.5" y1="38.8125" x2="34.5" y2="40.9688" gradientUnits="userSpaceOnUse">
<stop stop-color="#7A3991"/>
<stop offset="1" stop-color="#D2288A"/>
</linearGradient>
<linearGradient id="paint10_linear_2957_4623" x1="42.7656" y1="30.9062" x2="42.7656" y2="32.3438" gradientUnits="userSpaceOnUse">
<stop stop-color="#7A3991"/>
<stop offset="1" stop-color="#D2288A"/>
</linearGradient>
</defs>
</svg>
