<svg width="42" height="42" viewBox="0 0 42 42" fill="none" xmlns="http://www.w3.org/2000/svg">
<path d="M4.57652 12.9392C5.74301 12.9392 6.69203 11.9902 6.69203 10.8236C6.69203 9.65703 5.74301 8.70801 4.57652 8.70801C3.40996 8.70801 2.46094 9.65703 2.46094 10.8236C2.46094 11.9902 3.40996 12.9392 4.57652 12.9392V12.9392ZM4.57652 9.93856C5.06453 9.93856 5.46156 10.3356 5.46156 10.8237C5.46156 11.3118 5.06453 11.7088 4.57652 11.7088C4.08852 11.7088 3.69141 11.3117 3.69141 10.8237C3.69141 10.3357 4.08852 9.93856 4.57652 9.93856V9.93856Z" fill="url(#paint0_linear_2959_4653)"/>
<path d="M9.34654 12.9392C10.5131 12.9392 11.4621 11.9902 11.4621 10.8236C11.4621 9.65703 10.5131 8.70801 9.34654 8.70801C8.17998 8.70801 7.23096 9.65703 7.23096 10.8236C7.23096 11.9902 8.17998 12.9392 9.34654 12.9392V12.9392ZM9.34654 9.93856C9.83455 9.93856 10.2317 10.3356 10.2317 10.8237C10.2317 11.3118 9.83455 11.7088 9.34654 11.7088C8.85854 11.7088 8.46143 11.3118 8.46143 10.8237C8.46143 10.3356 8.85846 9.93856 9.34654 9.93856V9.93856Z" fill="url(#paint1_linear_2959_4653)"/>
<path d="M14.1161 12.9392C15.2826 12.9392 16.2316 11.9902 16.2316 10.8236C16.2316 9.65703 15.2826 8.70801 14.1161 8.70801C12.9495 8.70801 12.0005 9.65703 12.0005 10.8236C12.0005 11.9902 12.9495 12.9392 14.1161 12.9392ZM14.1161 9.93856C14.6041 9.93856 15.0011 10.3356 15.0011 10.8237C15.0011 11.3118 14.6041 11.7088 14.1161 11.7088C13.6281 11.7088 13.231 11.3118 13.231 10.8237C13.231 10.3356 13.6281 9.93856 14.1161 9.93856Z" fill="url(#paint2_linear_2959_4653)"/>
<path d="M41.3848 5.6359C41.7246 5.6359 42 5.36044 42 5.02066V4.21184C42 2.49845 40.606 1.10449 38.8927 1.10449H21.2658C19.5524 1.10449 18.1584 2.49845 18.1584 4.21184V6.44391H5.19586C2.33084 6.44391 0 8.77482 0 11.6398V35.698C0 38.5634 2.33084 40.8947 5.19586 40.8947H32.856C35.721 40.8947 38.0518 38.5634 38.0518 35.698V21.1374H38.8927C40.606 21.1374 42 19.7435 42 18.0301V7.4816C42 7.14183 41.7246 6.86637 41.3848 6.86637C41.0449 6.86637 40.7695 7.14183 40.7695 7.4816V18.03C40.7695 19.0649 39.9276 19.9069 38.8927 19.9069H30.9775C30.8563 19.9069 30.7378 19.9426 30.637 20.0097L25.2374 23.5971C24.9852 23.7648 24.7512 23.6722 24.6623 23.6244C24.5731 23.5767 24.3658 23.4328 24.3658 23.1291V20.5221C24.3658 20.1823 24.0904 19.9069 23.7506 19.9069H21.2659C20.231 19.9069 19.389 19.0649 19.389 18.03V4.21184C19.389 3.17693 20.231 2.33496 21.2659 2.33496H38.8927C39.9276 2.33496 40.7696 3.17693 40.7696 4.21184V5.02066C40.7695 5.36044 41.0449 5.6359 41.3848 5.6359ZM21.2658 21.1373H23.1353V23.1291C23.1353 23.7911 23.4977 24.3964 24.0811 24.7091C24.3466 24.8513 24.6373 24.9219 24.9272 24.9219C25.2737 24.9219 25.6189 24.8211 25.9185 24.6218L31.1632 21.1373H34.3604V35.6987C34.3604 36.5283 33.6855 37.2032 32.856 37.2032H10.2055C9.86565 37.2032 9.59027 37.4786 9.59027 37.8184C9.59027 38.1582 9.86565 38.4336 10.2055 38.4336H32.856C34.364 38.4336 35.5909 37.2068 35.5909 35.6987V21.1373H36.8214V35.6979C36.8214 37.8848 35.0424 39.6641 32.856 39.6641H5.19586C3.0094 39.6641 1.23047 37.8848 1.23047 35.6979V11.6398C1.23047 9.45322 3.0094 7.67437 5.19586 7.67437H18.1584V13.8086H5.67164C3.90124 13.8086 2.46094 15.2489 2.46094 17.0193V35.6986C2.46094 37.2067 3.6878 38.4336 5.19586 38.4336H7.74457C8.08443 38.4336 8.3598 38.1581 8.3598 37.8183C8.3598 37.4785 8.08443 37.2031 7.74457 37.2031H5.19586C4.36636 37.2031 3.69141 36.5282 3.69141 35.6986V17.0194C3.69141 15.9275 4.57972 15.0391 5.67164 15.0391H18.1584V18.03C18.1584 19.7434 19.5525 21.1373 21.2658 21.1373V21.1373Z" fill="url(#paint3_linear_2959_4653)"/>
<path d="M27.0582 15.1597C26.0458 15.1597 25.2223 15.9833 25.2223 16.9957C25.2223 18.008 26.0458 18.8316 27.0582 18.8316H33.1004C34.1127 18.8316 34.9363 18.008 34.9363 16.9957C34.9363 15.9833 34.1127 15.1597 33.1004 15.1597H32.9657V10.8356C32.9657 9.85205 32.1655 9.05176 31.1818 9.05176H27.0581C26.0458 9.05176 25.2222 9.87535 25.2222 10.8877C25.2222 11.9 26.0458 12.7236 27.0581 12.7236H27.4992V15.1597H27.0582ZM28.1145 11.4932H27.0582C26.7244 11.4932 26.4527 11.2216 26.4527 10.8877C26.4527 10.5538 26.7244 10.2822 27.0582 10.2822H31.1819C31.4871 10.2822 31.7353 10.5305 31.7353 10.8356V15.775C31.7353 16.1147 32.0107 16.3902 32.3505 16.3902H33.1004C33.4342 16.3902 33.7059 16.6618 33.7059 16.9957C33.7059 17.3295 33.4342 17.6011 33.1004 17.6011H27.0583C26.7245 17.6011 26.4528 17.3295 26.4528 16.9957C26.4528 16.6618 26.7245 16.3902 27.0583 16.3902H28.1146C28.4544 16.3902 28.7298 16.1147 28.7298 15.775V12.1084C28.7297 11.7686 28.4543 11.4932 28.1145 11.4932Z" fill="url(#paint4_linear_2959_4653)"/>
<path d="M32.9654 5.67753C32.9654 4.17046 31.7393 2.94434 30.2322 2.94434C28.7251 2.94434 27.499 4.17046 27.499 5.67753C27.499 7.18461 28.7251 8.41073 30.2322 8.41073C31.7393 8.41073 32.9654 7.18469 32.9654 5.67753ZM28.7295 5.67753C28.7295 4.84894 29.4036 4.1748 30.2322 4.1748C31.0608 4.1748 31.735 4.84894 31.735 5.67753C31.735 6.50613 31.0608 7.18027 30.2322 7.18027C29.4036 7.18027 28.7295 6.50613 28.7295 5.67753Z" fill="url(#paint5_linear_2959_4653)"/>
<path d="M10.0005 24.3613C10.0005 24.7011 10.2759 24.9766 10.6157 24.9766H20.1053C20.4451 24.9766 20.7205 24.7011 20.7205 24.3613C20.7205 24.0216 20.4451 23.7461 20.1053 23.7461H10.6157C10.2759 23.7461 10.0005 24.0216 10.0005 24.3613V24.3613Z" fill="url(#paint6_linear_2959_4653)"/>
<path d="M20.1053 26.9697H7.74463C7.40477 26.9697 7.12939 27.2452 7.12939 27.585C7.12939 27.9247 7.40477 28.2002 7.74463 28.2002H20.1053C20.4451 28.2002 20.7205 27.9247 20.7205 27.585C20.7205 27.2452 20.445 26.9697 20.1053 26.9697Z" fill="url(#paint7_linear_2959_4653)"/>
<path d="M20.1053 30.1943H7.74463C7.40477 30.1943 7.12939 30.4698 7.12939 30.8096C7.12939 31.1493 7.40477 31.4248 7.74463 31.4248H20.1053C20.4451 31.4248 20.7205 31.1493 20.7205 30.8096C20.7205 30.4698 20.445 30.1943 20.1053 30.1943Z" fill="url(#paint8_linear_2959_4653)"/>
<path d="M16.0037 33.418H7.74463C7.40477 33.418 7.12939 33.6934 7.12939 34.0332C7.12939 34.373 7.40477 34.6484 7.74463 34.6484H16.0037C16.3436 34.6484 16.6189 34.373 16.6189 34.0332C16.6189 33.6934 16.3435 33.418 16.0037 33.418Z" fill="url(#paint9_linear_2959_4653)"/>
<defs>
<linearGradient id="paint0_linear_2959_4653" x1="4.57648" y1="8.70801" x2="4.57648" y2="12.9392" gradientUnits="userSpaceOnUse">
<stop stop-color="#7A3991"/>
<stop offset="1" stop-color="#D2288A"/>
</linearGradient>
<linearGradient id="paint1_linear_2959_4653" x1="9.34654" y1="8.70801" x2="9.34654" y2="12.9392" gradientUnits="userSpaceOnUse">
<stop stop-color="#7A3991"/>
<stop offset="1" stop-color="#D2288A"/>
</linearGradient>
<linearGradient id="paint2_linear_2959_4653" x1="14.116" y1="8.70801" x2="14.116" y2="12.9392" gradientUnits="userSpaceOnUse">
<stop stop-color="#7A3991"/>
<stop offset="1" stop-color="#D2288A"/>
</linearGradient>
<linearGradient id="paint3_linear_2959_4653" x1="21" y1="1.10449" x2="21" y2="40.8947" gradientUnits="userSpaceOnUse">
<stop stop-color="#7A3991"/>
<stop offset="1" stop-color="#D2288A"/>
</linearGradient>
<linearGradient id="paint4_linear_2959_4653" x1="30.0792" y1="9.05176" x2="30.0792" y2="18.8316" gradientUnits="userSpaceOnUse">
<stop stop-color="#7A3991"/>
<stop offset="1" stop-color="#D2288A"/>
</linearGradient>
<linearGradient id="paint5_linear_2959_4653" x1="30.2322" y1="2.94434" x2="30.2322" y2="8.41073" gradientUnits="userSpaceOnUse">
<stop stop-color="#7A3991"/>
<stop offset="1" stop-color="#D2288A"/>
</linearGradient>
<linearGradient id="paint6_linear_2959_4653" x1="15.3605" y1="23.7461" x2="15.3605" y2="24.9766" gradientUnits="userSpaceOnUse">
<stop stop-color="#7A3991"/>
<stop offset="1" stop-color="#D2288A"/>
</linearGradient>
<linearGradient id="paint7_linear_2959_4653" x1="13.9249" y1="26.9697" x2="13.9249" y2="28.2002" gradientUnits="userSpaceOnUse">
<stop stop-color="#7A3991"/>
<stop offset="1" stop-color="#D2288A"/>
</linearGradient>
<linearGradient id="paint8_linear_2959_4653" x1="13.9249" y1="30.1943" x2="13.9249" y2="31.4248" gradientUnits="userSpaceOnUse">
<stop stop-color="#7A3991"/>
<stop offset="1" stop-color="#D2288A"/>
</linearGradient>
<linearGradient id="paint9_linear_2959_4653" x1="11.8742" y1="33.418" x2="11.8742" y2="34.6484" gradientUnits="userSpaceOnUse">
<stop stop-color="#7A3991"/>
<stop offset="1" stop-color="#D2288A"/>
</linearGradient>
</defs>
</svg>
