<svg width="192" height="152" viewBox="0 0 192 152" fill="none" xmlns="http://www.w3.org/2000/svg">
<path d="M181.924 23.0017H124.759V7.90162C124.759 3.73139 120.494 0.351562 115.232 0.351562H77.1221C71.8597 0.351562 67.5946 3.73139 67.5946 7.90162V23.0017H10.4299C5.16749 23.0017 0.902466 26.3816 0.902466 30.5518V143.803C0.902466 147.973 5.16749 151.353 10.4299 151.353H181.924C187.186 151.353 191.452 147.973 191.452 143.803V30.5518C191.452 26.3816 187.186 23.0017 181.924 23.0017ZM77.1221 7.90162H115.232V23.0017H77.1221V7.90162ZM181.924 143.803H10.4299V68.3021H77.1221V75.8521C77.1221 80.0224 81.3871 83.4022 86.6495 83.4022H105.704C110.967 83.4022 115.232 80.0224 115.232 75.8521V68.3021H181.924V143.803ZM86.6495 75.8521V68.3021H105.704V75.8521H86.6495ZM181.924 60.752H10.4299V30.5518H77.1221H115.232H181.924V60.752Z" fill="black"/>
</svg>
