<svg width="140" height="160" viewBox="0 0 140 160" fill="none" xmlns="http://www.w3.org/2000/svg">
<path d="M118.004 81.6732V66.8123C118.004 45.1328 103.594 26.758 83.8498 20.7564V14.028C83.8498 6.32365 77.5818 0.0556641 69.8774 0.0556641C62.1731 0.0556641 55.9051 6.32365 55.9051 14.028V20.7564C36.1607 26.758 21.7506 45.1325 21.7506 66.8123V81.6732C21.7506 100.717 14.4918 118.774 1.31157 132.519C0.0199023 133.866 -0.343068 135.853 0.389082 137.57C1.12123 139.286 2.80722 140.4 4.6733 140.4H47.0588C49.2223 151.016 58.6316 159.03 69.8774 159.03C81.1236 159.03 90.5323 151.016 92.6961 140.4H135.082C136.948 140.4 138.633 139.286 139.365 137.57C140.098 135.853 139.735 133.866 138.443 132.519C125.263 118.774 118.004 100.716 118.004 81.6732V81.6732ZM65.22 14.028C65.22 11.4599 67.3093 9.37054 69.8774 9.37054C72.4456 9.37054 74.5349 11.4599 74.5349 14.028V18.9115C73.002 18.7637 71.4486 18.6854 69.8774 18.6854C68.3063 18.6854 66.7529 18.7637 65.22 18.9115V14.028ZM69.8774 149.715C63.8057 149.715 58.6288 145.821 56.7062 140.4H83.0487C81.1261 145.821 75.9492 149.715 69.8774 149.715V149.715ZM14.7116 131.085C25.3185 116.867 31.0655 99.6603 31.0655 81.6732V66.8123C31.0655 45.4114 48.4765 28.0003 69.8774 28.0003C91.2784 28.0003 108.689 45.4114 108.689 66.8123V81.6732C108.689 99.6603 114.436 116.867 125.044 131.085H14.7116Z" fill="#8C69A1"/>
<path d="M130.441 66.8352C130.441 69.4074 132.526 71.4927 135.098 71.4927C137.67 71.4927 139.756 69.4074 139.756 66.8352C139.756 48.1744 132.489 30.6305 119.294 17.4353C117.475 15.6168 114.526 15.6165 112.707 17.4353C110.888 19.2542 110.888 22.203 112.707 24.0219C124.143 35.4578 130.441 50.6624 130.441 66.8352V66.8352Z" fill="#8C69A1"/>
<path d="M4.67294 71.4925C7.24509 71.4925 9.33038 69.4072 9.33038 66.835C9.33038 50.6626 15.6285 35.4579 27.064 24.022C28.8829 22.2031 28.8829 19.2543 27.064 17.4355C25.2455 15.6166 22.2964 15.6166 20.4775 17.4355C7.28235 30.6306 0.0155029 48.1742 0.0155029 66.835C0.0155029 69.4072 2.10079 71.4925 4.67294 71.4925V71.4925Z" fill="#8C69A1"/>
</svg>
