<svg width="156" height="102" viewBox="0 0 156 102" fill="none" xmlns="http://www.w3.org/2000/svg">
<path d="M153.313 73.0811C146.592 73.0811 143.189 74.3975 139.899 75.6705C136.865 76.8441 134 77.953 128.13 77.953C122.259 77.953 119.394 76.8444 116.36 75.6705C113.07 74.3975 109.667 73.0811 102.945 73.0811C96.2279 73.0811 92.8276 74.3978 89.5392 75.6708C86.5079 76.8444 83.6446 77.953 77.7789 77.953C71.9108 77.953 69.0466 76.8444 66.0144 75.6708C62.725 74.3975 59.3239 73.0811 52.6045 73.0811C45.8873 73.0811 42.4871 74.3978 39.1987 75.6708C36.1674 76.8444 33.3044 77.953 27.4387 77.953C21.5748 77.953 18.7124 76.8444 15.682 75.6708C12.3945 74.3975 8.99519 73.0811 2.27919 73.0811C1.02047 73.0811 0 74.1015 0 75.3602C0 76.619 1.02047 77.6394 2.27919 77.6394C8.14308 77.6394 11.0051 78.748 14.0358 79.9216C17.3233 81.195 20.7227 82.5114 27.4387 82.5114C34.1559 82.5114 37.5561 81.1947 40.8446 79.9216C43.8759 78.748 46.7388 77.6394 52.6045 77.6394C58.4724 77.6394 61.3366 78.748 64.3688 79.9216C67.6581 81.195 71.0596 82.5114 77.7789 82.5114C84.4965 82.5114 87.8967 81.1947 91.1851 79.9216C94.2164 78.748 97.0797 77.6394 102.945 77.6394C108.816 77.6394 111.681 78.748 114.715 79.922C118.005 81.195 121.408 82.5114 128.13 82.5114C134.851 82.5114 138.253 81.195 141.544 79.922C144.577 78.7483 147.443 77.6394 153.313 77.6394C154.572 77.6394 155.592 76.619 155.592 75.3602C155.592 74.1015 154.572 73.0811 153.313 73.0811Z" fill="black"/>
<path d="M143.26 86.5615C142.807 85.3869 141.487 84.802 140.313 85.2548L139.898 85.4152C138.526 85.9461 137.23 86.4475 135.688 86.8481C134.469 87.1647 133.738 88.4088 134.054 89.6271C134.321 90.6534 135.246 91.3338 136.259 91.3338C136.449 91.3338 136.642 91.3098 136.834 91.2599C138.63 90.7932 140.111 90.2203 141.543 89.666L141.953 89.5077C143.127 89.0549 143.713 87.7357 143.26 86.5615Z" fill="black"/>
<path d="M126.599 87.6707C121.737 87.4954 119.125 86.485 116.36 85.415C113.069 84.142 109.667 82.8255 102.945 82.8255C96.2279 82.8255 92.8277 84.1423 89.5393 85.4153C86.508 86.5889 83.6447 87.6975 77.779 87.6975C71.9108 87.6975 69.047 86.5889 66.0144 85.415C62.7251 84.142 59.324 82.8252 52.6046 82.8252C45.8874 82.8252 42.4871 84.142 39.1987 85.415C36.4403 86.4831 33.8347 87.4917 28.9919 87.6695C27.7338 87.7157 26.7516 88.773 26.7978 90.0308C26.844 91.2889 27.9016 92.2683 29.1591 92.2249C34.7671 92.0191 37.8571 90.8227 40.8449 89.6658C43.8762 88.4922 46.7392 87.3836 52.6049 87.3836C58.4728 87.3836 61.3369 88.4922 64.3692 89.6661C67.6585 90.9391 71.0599 92.2559 77.7793 92.2559C84.4968 92.2559 87.8971 90.9391 91.1855 89.6661C94.2168 88.4925 97.0801 87.3839 102.946 87.3839C108.816 87.3839 111.682 88.4925 114.715 89.6664C117.71 90.8251 120.807 92.0234 126.435 92.2264C127.685 92.2711 128.75 91.2889 128.795 90.0308C128.84 88.7727 127.857 87.716 126.599 87.6707Z" fill="black"/>
<path d="M102.945 92.5703C96.2279 92.5703 92.8277 93.8871 89.5392 95.1601C86.5079 96.3337 83.6447 97.4423 77.7789 97.4423C71.9108 97.4423 69.0469 96.3337 66.0144 95.1601C62.7251 93.8868 59.3239 92.5703 52.6046 92.5703C51.3458 92.5703 50.3254 93.5908 50.3254 94.8495C50.3254 96.1082 51.3458 97.1287 52.6046 97.1287C58.4724 97.1287 61.3366 98.2373 64.3691 99.4109C67.6584 100.684 71.0596 102.001 77.7789 102.001C84.4965 102.001 87.8967 100.684 91.1851 99.4109C94.2164 98.2373 97.0797 97.1287 102.945 97.1287C104.204 97.1287 105.225 96.1082 105.225 94.8495C105.225 93.5908 104.204 92.5703 102.945 92.5703Z" fill="black"/>
<path d="M19.9083 86.8535C18.3569 86.4514 17.0565 85.9476 15.6799 85.4142C14.5063 84.9596 13.1859 85.5425 12.7313 86.7161C12.2766 87.89 12.8595 89.2102 14.0331 89.6648C15.4705 90.2215 16.9569 90.7974 18.7644 91.266C18.9562 91.3158 19.1485 91.3395 19.3379 91.3395C20.3513 91.3395 21.2764 90.6582 21.5426 89.6316C21.8586 88.413 21.1269 87.1695 19.9083 86.8535Z" fill="black"/>
<path d="M107.663 42.3965C100.854 32.6286 89.6891 26.7969 77.7966 26.7969C57.7346 26.7969 41.4128 43.1183 41.4128 63.1806C41.4125 64.0464 41.4432 64.9201 41.504 65.7774C41.5888 66.9783 42.5895 67.8961 43.7753 67.8961C43.8294 67.8961 43.8835 67.8943 43.9382 67.8903C45.1939 67.8016 46.1399 66.7118 46.0511 65.4561C45.998 64.7049 45.9712 63.9394 45.9712 63.1806C45.9712 45.6321 60.2477 31.3552 77.7966 31.3552C88.1991 31.3552 97.9665 36.4573 103.924 45.0033C104.644 46.0356 106.064 46.2891 107.097 45.5698C108.13 44.8499 108.383 43.4292 107.663 42.3965Z" fill="black"/>
<path d="M31.5117 60.9014H16.8954C15.6367 60.9014 14.6162 61.9218 14.6162 63.1806C14.6162 64.4393 15.6367 65.4597 16.8954 65.4597H31.5117C32.7704 65.4597 33.7909 64.4393 33.7909 63.1806C33.7909 61.9218 32.7704 60.9014 31.5117 60.9014Z" fill="black"/>
<path d="M77.7963 0C76.5376 0 75.5171 1.02047 75.5171 2.27919V16.8955C75.5171 18.1545 76.5376 19.1746 77.7963 19.1746C79.055 19.1746 80.0755 18.1542 80.0755 16.8955V2.27919C80.0755 1.02047 79.055 0 77.7963 0Z" fill="black"/>
<path d="M122.471 18.5045C121.581 17.6144 120.138 17.6144 119.248 18.5045L108.913 28.8398C108.023 29.7299 108.023 31.1731 108.913 32.0629C109.358 32.5078 109.941 32.7306 110.524 32.7306C111.108 32.7306 111.691 32.5081 112.136 32.0629L122.471 21.7276C123.361 20.8375 123.361 19.3943 122.471 18.5045Z" fill="black"/>
<path d="M62.1896 19.5474L60.3252 15.0461C59.8436 13.8831 58.5104 13.3313 57.3474 13.8126C56.1844 14.2943 55.6322 15.6278 56.1139 16.7905L57.9783 21.2917C58.3417 22.1693 59.1905 22.6993 60.0848 22.6993C60.3757 22.6993 60.6711 22.6434 60.9561 22.5252C62.1191 22.0435 62.6713 20.7101 62.1896 19.5474Z" fill="black"/>
<path d="M127.165 42.7308C126.683 41.5681 125.35 41.0156 124.187 41.4973L119.686 43.3617C118.523 43.843 117.97 45.1765 118.452 46.3395C118.816 47.2171 119.664 47.7471 120.559 47.7471C120.849 47.7471 121.145 47.6912 121.43 47.573L125.931 45.7086C127.094 45.2269 127.646 43.8935 127.165 42.7308Z" fill="black"/>
<path d="M98.2451 13.8118C97.0824 13.3301 95.7489 13.8823 95.2673 15.0453L93.4029 19.5465C92.9212 20.7092 93.4734 22.0424 94.6364 22.5243C94.9215 22.6426 95.2171 22.6985 95.5077 22.6985C96.402 22.6985 97.2508 22.1685 97.6142 21.2909L99.4786 16.7896C99.9603 15.6266 99.4081 14.2934 98.2451 13.8118Z" fill="black"/>
<path d="M35.9068 43.3627L31.4056 41.4983C30.2423 41.0166 28.9094 41.5688 28.4277 42.7318C27.9461 43.8948 28.4982 45.228 29.6612 45.7096L34.1625 47.574C34.4478 47.6922 34.7432 47.7481 35.0337 47.7481C35.9281 47.7481 36.7769 47.2181 37.1403 46.3405C37.622 45.1775 37.0698 43.8443 35.9068 43.3627Z" fill="black"/>
<path d="M35.5133 14.6172C32.1468 14.6172 28.8961 15.7392 26.2176 17.8023C24.9974 17.4203 23.7399 17.227 22.4633 17.227C15.4498 17.227 9.7439 22.9329 9.7439 29.9464C9.7439 31.2051 10.7644 32.2256 12.0231 32.2256H48.5636C49.8223 32.2256 50.8428 31.2051 50.8428 29.9464C50.8428 21.494 43.966 14.6172 35.5133 14.6172ZM14.6262 27.6669C15.6148 24.2727 18.754 21.7854 22.4633 21.7854C23.5862 21.7854 24.6911 22.0218 25.7474 22.4883C26.5798 22.8557 27.5507 22.6931 28.2178 22.0744C30.2338 20.2048 32.8251 19.1753 35.5136 19.1753C40.6709 19.1753 44.9932 22.8189 46.0422 27.6669H14.6262Z" fill="black"/>
<path d="M116.077 52.8969C114.8 52.8969 113.543 53.0899 112.323 53.4722C109.644 51.4091 106.393 50.2871 103.027 50.2871C94.5741 50.2871 87.6973 57.1639 87.6973 65.6163C87.6973 66.875 88.7178 67.8955 89.9765 67.8955H126.517C127.776 67.8955 128.796 66.875 128.796 65.6163C128.796 58.6028 123.09 52.8969 116.077 52.8969ZM92.4982 63.3371C93.5469 58.4891 97.8695 54.8455 103.027 54.8455C105.715 54.8455 108.306 55.8751 110.323 57.7446C110.99 58.363 111.96 58.5253 112.793 58.1582C113.849 57.6917 114.954 57.4553 116.077 57.4553C119.786 57.4553 122.925 59.9427 123.914 63.3371H92.4982Z" fill="black"/>
</svg>
