<svg width="123" height="131" viewBox="0 0 123 131" fill="none" xmlns="http://www.w3.org/2000/svg">
<path d="M117.5 91C104.7 98.2 83.1667 100.667 74 101C60.8 102.389 40.8333 94.9122 32.5 91C42.9 87.4 52.8333 76.5 56.5 71.5C49.3 71.5 39.8333 66.8333 36 64.5C46.8 58.9 58.1667 47.5 62.5 42.5C57.3 42.5 50.3333 39.5 47.5 38C61.5 30.4 71 14.1667 74 7C79.2 21.4 94.5 33.6667 101.5 38C96.7 40.8 88.5 42.1667 85 42.5C88.6 48.5 105.167 59.6667 113 64.5C107.8 68.5 96.8333 70.8333 92 71.5C95.2 77.9 110.333 87.1667 117.5 91Z" stroke="black" stroke-width="5"/>
<path d="M37 118.5V102" stroke="black" stroke-width="5"/>
<path d="M81 117V100.5" stroke="black" stroke-width="5"/>
<path d="M66.5 117V101" stroke="black" stroke-width="5"/>
<path d="M48.5 117.5V102" stroke="black" stroke-width="5"/>
<path d="M2 128.5C25.1667 116.334 73.5 110.5 121.5 126.5" stroke="black" stroke-width="5"/>
<path d="M11 97C27.8 105.8 50.8333 102.167 60 100.5C57.2 99.3 40.8333 94.6667 33 91C33 91 50.5 82.5 56 71.5C56 71.5 42.5 69 36.5 64.5C43.7 60.9 62.5 45 61 42.5C55 42 51.5 39.3333 48 38L51 35.5C46.5 32 44.3333 25 44 22.5C41.6 33.7 28 45.1667 21.5 49.5C26.7 53.9 32 55 34 55C26 64.6 15.3333 70.3333 11 72C17.8 76.8 26.1667 79 29.5 79.5C23.5 87.5 14.6667 94.5 11 97Z" stroke="black" stroke-width="5"/>
</svg>
