<svg width="20" height="20" viewBox="0 0 20 20" fill="none" xmlns="http://www.w3.org/2000/svg">
<path d="M18 8.88911C17.9411 8.88911 17.8845 8.91252 17.8429 8.95419C17.8012 8.99587 17.7778 9.05239 17.7778 9.11133C17.7778 9.17027 17.8012 9.22679 17.8429 9.26846C17.8845 9.31014 17.9411 9.33355 18 9.33355C18.4124 9.33407 18.8078 9.49812 19.0994 9.78973C19.391 10.0813 19.555 10.4767 19.5556 10.8891V14.2224H18.8889C18.3882 14.2224 17.9057 14.4099 17.5364 14.748C17.419 14.8517 17.2677 14.9088 17.1111 14.9088C16.9545 14.9088 16.8032 14.8517 16.6858 14.748C16.3114 14.4204 15.8308 14.2397 15.3333 14.2397C14.8358 14.2397 14.3552 14.4204 13.9809 14.748C13.8634 14.8517 13.7122 14.9088 13.5556 14.9088C13.3989 14.9088 13.2477 14.8517 13.1302 14.748C12.761 14.4099 12.2784 14.2224 11.7778 14.2224C11.7188 14.2224 11.6623 14.2459 11.6206 14.2875C11.579 14.3292 11.5556 14.3857 11.5556 14.4447C11.5556 14.5036 11.579 14.5601 11.6206 14.6018C11.6623 14.6435 11.7188 14.6669 11.7778 14.6669C12.1675 14.6669 12.5432 14.8127 12.8308 15.0758C13.0309 15.2524 13.2886 15.3499 13.5556 15.3499C13.8225 15.3499 14.0802 15.2524 14.2804 15.0758C14.5718 14.8206 14.946 14.68 15.3333 14.68C15.7207 14.68 16.0949 14.8206 16.3863 15.0758C16.5865 15.2523 16.8442 15.3497 17.1111 15.3497C17.378 15.3497 17.6357 15.2523 17.8359 15.0758C18.1235 14.8127 18.4991 14.6669 18.8889 14.6669H19.5556V16.0002H18.8889C18.3882 16.0002 17.9057 16.1877 17.5364 16.5258C17.419 16.6294 17.2677 16.6866 17.1111 16.6866C16.9545 16.6866 16.8032 16.6294 16.6858 16.5258C16.3114 16.1981 15.8308 16.0175 15.3333 16.0175C14.8358 16.0175 14.3552 16.1981 13.9809 16.5258C13.8634 16.6294 13.7122 16.6866 13.5556 16.6866C13.3989 16.6866 13.2477 16.6294 13.1302 16.5258C12.7559 16.1981 12.2753 16.0175 11.7778 16.0175C11.2803 16.0175 10.7997 16.1981 10.4253 16.5258C10.3079 16.6294 10.1566 16.6866 10 16.6866C9.84337 16.6866 9.69212 16.6294 9.57467 16.5258C9.20032 16.1981 8.71973 16.0175 8.22222 16.0175C7.72471 16.0175 7.24412 16.1981 6.86978 16.5258C6.75232 16.6294 6.60108 16.6866 6.44444 16.6866C6.28781 16.6866 6.13657 16.6294 6.01911 16.5258C5.64476 16.1981 5.16418 16.0175 4.66667 16.0175C4.16916 16.0175 3.68857 16.1981 3.31422 16.5258C3.19676 16.6294 3.04552 16.6866 2.88889 16.6866C2.73226 16.6866 2.58101 16.6294 2.46356 16.5258C2.09429 16.1877 1.61178 16.0002 1.11111 16.0002H0.444444V14.6669H1.11111C1.50085 14.6669 1.87648 14.8127 2.16409 15.0758C2.36421 15.2524 2.62195 15.3499 2.88889 15.3499C3.15582 15.3499 3.41357 15.2524 3.61369 15.0758C3.90514 14.8206 4.27931 14.68 4.66667 14.68C5.05402 14.68 5.4282 14.8206 5.71964 15.0758C5.91981 15.2523 6.17754 15.3497 6.44444 15.3497C6.71135 15.3497 6.96908 15.2523 7.16924 15.0758C7.46069 14.8206 7.83487 14.68 8.22222 14.68C8.60958 14.68 8.98375 14.8206 9.2752 15.0758C9.47532 15.2524 9.73306 15.3499 10 15.3499C10.2669 15.3499 10.5247 15.2524 10.7248 15.0758C10.8094 14.9992 10.9017 14.9317 11.0004 14.8744C11.049 14.8438 11.0839 14.7955 11.0977 14.7397C11.1115 14.6839 11.1031 14.625 11.0744 14.5752C11.0456 14.5254 10.9987 14.4887 10.9434 14.4728C10.8882 14.4569 10.829 14.463 10.7781 14.4899C10.6517 14.5628 10.5335 14.6493 10.4257 14.7477C10.3082 14.8513 10.157 14.9085 10.0004 14.9085C9.84372 14.9085 9.69248 14.8513 9.57502 14.7477C9.26013 14.4682 8.86407 14.2969 8.4448 14.2588V9.33355H17.1111C17.17 9.33355 17.2266 9.31014 17.2682 9.26846C17.3099 9.22679 17.3333 9.17027 17.3333 9.11133C17.3333 9.05239 17.3099 8.99587 17.2682 8.95419C17.2266 8.91252 17.17 8.88911 17.1111 8.88911H8.44444V8.22244C8.44444 7.92775 8.32738 7.64514 8.11901 7.43677C7.91063 7.22839 7.62802 7.11133 7.33333 7.11133C7.03865 7.11133 6.75603 7.22839 6.54766 7.43677C6.33929 7.64514 6.22222 7.92775 6.22222 8.22244V8.88911H4.88889V8.22244C4.88889 7.92775 4.77183 7.64514 4.56345 7.43677C4.35508 7.22839 4.07246 7.11133 3.77778 7.11133C3.48309 7.11133 3.20048 7.22839 2.9921 7.43677C2.78373 7.64514 2.66667 7.92775 2.66667 8.22244V8.88911H2C1.46975 8.88969 0.961381 9.1006 0.586436 9.47554C0.211491 9.85049 0.00058819 10.3589 0 10.8891V18.0002C0.00058819 18.5305 0.211491 19.0388 0.586436 19.4138C0.961381 19.7887 1.46975 19.9996 2 20.0002H4.66667C4.7256 20.0002 4.78213 19.9768 4.8238 19.9351C4.86548 19.8935 4.88889 19.8369 4.88889 19.778C4.88889 19.7191 4.86548 19.6625 4.8238 19.6209C4.78213 19.5792 4.7256 19.5558 4.66667 19.5558H2C1.62693 19.5547 1.26671 19.4194 0.985206 19.1746C0.703705 18.9297 0.519734 18.5918 0.466933 18.2224H1.11111C1.50085 18.2224 1.87648 18.3683 2.16409 18.6313C2.36421 18.808 2.62195 18.9055 2.88889 18.9055C3.15582 18.9055 3.41357 18.808 3.61369 18.6313C3.90514 18.3762 4.27931 18.2355 4.66667 18.2355C5.05402 18.2355 5.4282 18.3762 5.71964 18.6313C5.91976 18.808 6.17751 18.9055 6.44444 18.9055C6.71138 18.9055 6.96913 18.808 7.16924 18.6313C7.46069 18.3762 7.83487 18.2355 8.22222 18.2355C8.60958 18.2355 8.98375 18.3762 9.2752 18.6313C9.47532 18.808 9.73306 18.9055 10 18.9055C10.2669 18.9055 10.5247 18.808 10.7248 18.6313C11.0162 18.3762 11.3904 18.2355 11.7778 18.2355C12.1651 18.2355 12.5393 18.3762 12.8308 18.6313C13.0309 18.808 13.2886 18.9055 13.5556 18.9055C13.8225 18.9055 14.0802 18.808 14.2804 18.6313C14.5718 18.3762 14.946 18.2355 15.3333 18.2355C15.7207 18.2355 16.0949 18.3762 16.3863 18.6313C16.5865 18.8079 16.8442 18.9053 17.1111 18.9053C17.378 18.9053 17.6357 18.8079 17.8359 18.6313C18.1235 18.3683 18.4991 18.2224 18.8889 18.2224H19.5331C19.4803 18.5918 19.2963 18.9297 19.0148 19.1746C18.7333 19.4194 18.3731 19.5547 18 19.5558H5.55556C5.49662 19.5558 5.4401 19.5792 5.39842 19.6209C5.35675 19.6625 5.33333 19.7191 5.33333 19.778C5.33333 19.8369 5.35675 19.8935 5.39842 19.9351C5.4401 19.9768 5.49662 20.0002 5.55556 20.0002H18C18.5303 19.9996 19.0386 19.7887 19.4136 19.4138C19.7885 19.0388 19.9994 18.5305 20 18.0002V10.8891C19.9994 10.3589 19.7885 9.85049 19.4136 9.47554C19.0386 9.1006 18.5303 8.88969 18 8.88911ZM8 12.4447H4.88889V11.1113H8V12.4447ZM6.86978 14.748C6.75232 14.8517 6.60108 14.9088 6.44444 14.9088C6.28781 14.9088 6.13657 14.8517 6.01911 14.748C5.70422 14.4686 5.30816 14.2973 4.88889 14.2592V12.8891H8V14.2589C7.5807 14.2971 7.18463 14.4685 6.86978 14.748ZM6.66667 8.22244C6.66667 8.04563 6.73691 7.87606 6.86193 7.75104C6.98695 7.62601 7.15652 7.55577 7.33333 7.55577C7.51014 7.55577 7.67971 7.62601 7.80474 7.75104C7.92976 7.87606 8 8.04563 8 8.22244V8.88911H6.66667V8.22244ZM8 9.33355V10.6669H4.88889V9.33355H8ZM3.11111 8.22244C3.11111 8.04563 3.18135 7.87606 3.30637 7.75104C3.4314 7.62601 3.60097 7.55577 3.77778 7.55577C3.95459 7.55577 4.12416 7.62601 4.24918 7.75104C4.37421 7.87606 4.44444 8.04563 4.44444 8.22244V8.88911H3.11111V8.22244ZM2 9.33355H4.44444V14.2589C4.02517 14.297 3.62911 14.4683 3.31422 14.7478C3.19676 14.8514 3.04552 14.9086 2.88889 14.9086C2.73226 14.9086 2.58101 14.8514 2.46356 14.7478C2.09425 14.4098 1.61174 14.2223 1.11111 14.2224H0.444444V10.8891C0.444962 10.4767 0.609016 10.0813 0.900628 9.78973C1.19224 9.49812 1.5876 9.33407 2 9.33355ZM17.5364 18.3036C17.419 18.4072 17.2677 18.4644 17.1111 18.4644C16.9545 18.4644 16.8032 18.4072 16.6858 18.3036C16.3114 17.9759 15.8308 17.7953 15.3333 17.7953C14.8358 17.7953 14.3552 17.9759 13.9809 18.3036C13.8634 18.4072 13.7122 18.4644 13.5556 18.4644C13.3989 18.4644 13.2477 18.4072 13.1302 18.3036C12.7559 17.9759 12.2753 17.7953 11.7778 17.7953C11.2803 17.7953 10.7997 17.9759 10.4253 18.3036C10.3079 18.4072 10.1566 18.4644 10 18.4644C9.84337 18.4644 9.69212 18.4072 9.57467 18.3036C9.20032 17.9759 8.71973 17.7953 8.22222 17.7953C7.72471 17.7953 7.24412 17.9759 6.86978 18.3036C6.75232 18.4072 6.60108 18.4644 6.44444 18.4644C6.28781 18.4644 6.13657 18.4072 6.01911 18.3036C5.64476 17.9759 5.16418 17.7953 4.66667 17.7953C4.16916 17.7953 3.68857 17.9759 3.31422 18.3036C3.19676 18.4072 3.04552 18.4644 2.88889 18.4644C2.73226 18.4644 2.58101 18.4072 2.46356 18.3036C2.09429 17.9655 1.61178 17.778 1.11111 17.778H0.444444V16.4447H1.11111C1.50085 16.4447 1.87648 16.5905 2.16409 16.8535C2.36421 17.0302 2.62195 17.1277 2.88889 17.1277C3.15582 17.1277 3.41357 17.0302 3.61369 16.8535C3.90514 16.5984 4.27931 16.4578 4.66667 16.4578C5.05402 16.4578 5.4282 16.5984 5.71964 16.8535C5.91976 17.0302 6.17751 17.1277 6.44444 17.1277C6.71138 17.1277 6.96913 17.0302 7.16924 16.8535C7.46069 16.5984 7.83487 16.4578 8.22222 16.4578C8.60958 16.4578 8.98375 16.5984 9.2752 16.8535C9.47532 17.0302 9.73306 17.1277 10 17.1277C10.2669 17.1277 10.5247 17.0302 10.7248 16.8535C11.0162 16.5984 11.3904 16.4578 11.7778 16.4578C12.1651 16.4578 12.5393 16.5984 12.8308 16.8535C13.0309 17.0302 13.2886 17.1277 13.5556 17.1277C13.8225 17.1277 14.0802 17.0302 14.2804 16.8535C14.5718 16.5984 14.946 16.4578 15.3333 16.4578C15.7207 16.4578 16.0949 16.5984 16.3863 16.8535C16.5865 17.0301 16.8442 17.1275 17.1111 17.1275C17.378 17.1275 17.6357 17.0301 17.8359 16.8535C18.1235 16.5905 18.4991 16.4447 18.8889 16.4447H19.5556V17.778H18.8889C18.3882 17.778 17.9057 17.9655 17.5364 18.3036Z" fill="black"/>
<path d="M14.2871 2.15688C14.3076 2.1781 14.3321 2.19503 14.3592 2.20668C14.3863 2.21833 14.4155 2.22446 14.445 2.22471C14.4745 2.22497 14.5038 2.21935 14.5311 2.20817C14.5584 2.197 14.5832 2.1805 14.6041 2.15963C14.6249 2.13877 14.6414 2.11396 14.6526 2.08665C14.6638 2.05934 14.6694 2.03007 14.6691 2.00057C14.6689 1.97106 14.6628 1.9419 14.6511 1.91479C14.6395 1.88768 14.6225 1.86316 14.6013 1.84266L13.7124 0.953768C13.6707 0.912088 13.6142 0.888672 13.5553 0.888672C13.4963 0.888672 13.4398 0.912088 13.3981 0.953768C13.3564 0.995448 13.333 1.05198 13.333 1.11092C13.333 1.16987 13.3564 1.2264 13.3981 1.26808L14.2871 2.15688Z" fill="black"/>
<path d="M14.287 5.39783L13.3981 6.28672C13.3775 6.30736 13.3611 6.33186 13.3499 6.35882C13.3388 6.38579 13.333 6.41469 13.333 6.44388C13.333 6.47306 13.3388 6.50196 13.3499 6.52893C13.3611 6.55589 13.3775 6.58039 13.3981 6.60103C13.4187 6.62167 13.4432 6.63804 13.4702 6.64921C13.4972 6.66038 13.5261 6.66613 13.5553 6.66613C13.5844 6.66613 13.6133 6.66038 13.6403 6.64921C13.6673 6.63804 13.6918 6.62167 13.7124 6.60103L14.6013 5.71214C14.6225 5.69164 14.6395 5.66712 14.6511 5.64001C14.6628 5.6129 14.6689 5.58374 14.6691 5.55423C14.6694 5.52472 14.6638 5.49546 14.6526 5.46815C14.6414 5.44084 14.6249 5.41603 14.6041 5.39517C14.5832 5.3743 14.5584 5.3578 14.5311 5.34663C14.5038 5.33545 14.4745 5.32983 14.445 5.33009C14.4155 5.33034 14.3863 5.33647 14.3592 5.34812C14.3321 5.35977 14.3076 5.3767 14.2871 5.39792L14.287 5.39783Z" fill="black"/>
<path d="M17.8429 5.39914C17.8012 5.44081 17.7778 5.49732 17.7778 5.55625C17.7778 5.61517 17.8012 5.67169 17.8429 5.71336L18.7318 6.60225C18.7735 6.64393 18.83 6.66734 18.8889 6.66734C18.9479 6.66734 19.0044 6.64393 19.0461 6.60225C19.0878 6.56057 19.1112 6.50404 19.1112 6.44509C19.1112 6.38615 19.0878 6.32962 19.0461 6.28794L18.1572 5.39905C18.1366 5.37841 18.1121 5.36205 18.0851 5.35088C18.0581 5.33972 18.0292 5.33398 18 5.33398C17.9708 5.33399 17.9419 5.33975 17.915 5.35093C17.888 5.36211 17.8635 5.37849 17.8429 5.39914Z" fill="black"/>
<path d="M18.1571 2.15697L19.0459 1.26808C19.0876 1.2264 19.111 1.16987 19.111 1.11092C19.111 1.05198 19.0876 0.995448 19.0459 0.953768C19.0043 0.912088 18.9477 0.888672 18.8888 0.888672C18.8298 0.888672 18.7733 0.912088 18.7316 0.953768L17.8427 1.84266C17.8215 1.86316 17.8046 1.88768 17.7929 1.91479C17.7813 1.9419 17.7752 1.97106 17.7749 2.00057C17.7747 2.03007 17.7803 2.05934 17.7914 2.08665C17.8026 2.11396 17.8191 2.13877 17.84 2.15963C17.8609 2.1805 17.8857 2.197 17.913 2.20817C17.9403 2.21935 17.9695 2.22497 17.9991 2.22471C18.0286 2.22446 18.0577 2.21833 18.0848 2.20668C18.1119 2.19503 18.1365 2.1781 18.157 2.15688L18.1571 2.15697Z" fill="black"/>
<path d="M12.6666 4H14.2446C14.2949 4.44821 14.496 4.86602 14.8149 5.18494C15.1339 5.50387 15.5517 5.70497 15.9999 5.75529V7.33333C15.9999 7.39227 16.0233 7.44879 16.065 7.49047C16.1067 7.53214 16.1632 7.55556 16.2221 7.55556C16.2811 7.55556 16.3376 7.53214 16.3792 7.49047C16.4209 7.44879 16.4443 7.39227 16.4443 7.33333V5.75529C16.8925 5.70497 17.3104 5.50387 17.6293 5.18494C17.9482 4.86602 18.1493 4.44821 18.1996 4H19.7777C19.8366 4 19.8931 3.97659 19.9348 3.93491C19.9765 3.89324 19.9999 3.83671 19.9999 3.77778C19.9999 3.71884 19.9765 3.66232 19.9348 3.62064C19.8931 3.57897 19.8366 3.55556 19.7777 3.55556H18.1996C18.1493 3.10735 17.9482 2.68953 17.6293 2.37061C17.3104 2.05169 16.8925 1.85058 16.4443 1.80027V0.222222C16.4443 0.163285 16.4209 0.106762 16.3792 0.0650874C16.3376 0.0234126 16.2811 0 16.2221 0C16.1632 0 16.1067 0.0234126 16.065 0.0650874C16.0233 0.106762 15.9999 0.163285 15.9999 0.222222V1.80027C15.5517 1.85058 15.1339 2.05169 14.8149 2.37061C14.496 2.68953 14.2949 3.10735 14.2446 3.55556H12.6666C12.6076 3.55556 12.5511 3.57897 12.5094 3.62064C12.4677 3.66232 12.4443 3.71884 12.4443 3.77778C12.4443 3.83671 12.4677 3.89324 12.5094 3.93491C12.5511 3.97659 12.6076 4 12.6666 4ZM16.2221 2.22222C16.5298 2.22222 16.8305 2.31345 17.0863 2.48438C17.3421 2.65531 17.5415 2.89825 17.6593 3.18249C17.777 3.46673 17.8078 3.7795 17.7478 4.08125C17.6878 4.383 17.5396 4.66017 17.3221 4.87772C17.1045 5.09527 16.8273 5.24342 16.5256 5.30344C16.2238 5.36347 15.9111 5.33266 15.6268 5.21492C15.3426 5.09719 15.0996 4.89781 14.9287 4.642C14.7578 4.38619 14.6666 4.08544 14.6666 3.77778C14.6671 3.36538 14.8311 2.97002 15.1227 2.67841C15.4144 2.38679 15.8097 2.22274 16.2221 2.22222Z" fill="black"/>
</svg>
