<svg width="70" height="98" viewBox="0 0 70 98" fill="none" xmlns="http://www.w3.org/2000/svg">
<path d="M64.468 97.5009H5.16203C2.31335 97.5009 0 95.1876 0 92.3389V41.955C0 39.1063 2.31335 36.793 5.16203 36.793H64.468C67.3166 36.793 69.63 39.1063 69.63 41.955V92.3389C69.63 95.1876 67.3166 97.5009 64.468 97.5009ZM5.16203 39.4696C3.79186 39.4696 2.67661 40.5848 2.67661 41.955V92.3389C2.67661 93.7091 3.79186 94.8243 5.16203 94.8243H64.468C65.8381 94.8243 66.9534 93.7091 66.9534 92.3389V41.955C66.9534 40.5848 65.8381 39.4696 64.468 39.4696H5.16203Z" fill="#4E337A"/>
<path d="M60.1281 39.4672C59.3889 39.4672 58.7898 38.8681 58.7898 38.1289V26.6322C58.7898 23.4012 58.1525 20.2593 56.9035 17.3023C55.699 14.4473 53.9719 11.8854 51.7733 9.68676C49.5747 7.48812 47.0128 5.76107 44.1577 4.5566C41.2007 3.30752 38.0653 2.67023 34.8342 2.67023C31.6032 2.67023 28.4613 3.30752 25.5043 4.5566C22.6493 5.76107 20.0874 7.48812 17.8888 9.68676C15.6901 11.8854 13.9631 14.4473 12.7586 17.3023C11.5095 20.2593 10.8722 23.4012 10.8722 26.6322V38.1352C10.8722 38.8745 10.2732 39.4735 9.53392 39.4735C8.79467 39.4735 8.19562 38.8745 8.19562 38.1352V26.6322C8.19562 23.0379 8.90301 19.552 10.2923 16.2636C11.637 13.0899 13.5552 10.2412 15.996 7.80039C18.4368 5.35958 21.2855 3.43498 24.4592 2.09667C27.7476 0.707388 31.2399 0 34.8278 0C38.4221 0 41.9081 0.707388 45.1965 2.09667C48.3702 3.44135 51.2189 5.35958 53.6597 7.80039C56.1005 10.2412 58.0251 13.0899 59.3634 16.2636C60.7527 19.552 61.4601 23.0443 61.4601 26.6322V38.1352C61.4664 38.8681 60.8674 39.4672 60.1281 39.4672Z" fill="#4E337A"/>
<path d="M52.6845 39.468C51.9452 39.468 51.3462 38.869 51.3462 38.1297V26.6331C51.3462 17.5262 43.9345 10.1209 34.8341 10.1209C25.7272 10.1209 18.322 17.5326 18.322 26.6331V38.1361C18.322 38.8753 17.7229 39.4744 16.9837 39.4744C16.2444 39.4744 15.6454 38.8753 15.6454 38.1361V26.6331C15.6454 21.5093 17.6401 16.685 21.2662 13.0652C24.8924 9.43905 29.7103 7.44434 34.8341 7.44434C39.9578 7.44434 44.7821 9.43905 48.4019 13.0652C52.0281 16.6914 54.0228 21.5093 54.0228 26.6331V38.1361C54.0228 38.869 53.4237 39.468 52.6845 39.468Z" fill="#4E337A"/>
<path d="M38.3966 68.7889C37.925 68.7889 37.4662 68.5403 37.224 68.0942C36.8671 67.4442 37.1029 66.6348 37.753 66.278C39.6648 65.2264 40.8693 63.219 40.9012 61.0458C40.9458 57.7256 38.2946 54.9661 34.9808 54.8896C33.3302 54.8514 31.7688 55.4632 30.5898 56.6167C29.4109 57.7702 28.7608 59.3124 28.7608 60.963C28.7608 63.1807 29.9653 65.2201 31.909 66.2843C32.5591 66.6412 32.7949 67.4569 32.438 68.1006C32.0811 68.7506 31.2654 68.9864 30.6217 68.6295C27.824 67.0937 26.0842 64.1558 26.0842 60.963C26.0842 58.5859 27.021 56.3618 28.7226 54.7048C30.4242 53.0479 32.6674 52.1621 35.0445 52.2194C39.8178 52.3341 43.6479 56.3108 43.5778 61.0904C43.5331 64.2259 41.7934 67.1192 39.0403 68.6295C38.8363 68.7315 38.6197 68.7889 38.3966 68.7889Z" fill="#4E337A"/>
<path d="M34.834 82.0901C32.1319 82.0901 29.9333 79.8914 29.9333 77.1893V67.4516C29.9333 66.7123 30.5323 66.1133 31.2716 66.1133C32.0108 66.1133 32.6099 66.7123 32.6099 67.4516V77.1893C32.6099 78.4193 33.6104 79.4135 34.834 79.4135C36.0576 79.4135 37.0581 78.4129 37.0581 77.1893V67.4516C37.0581 66.7123 37.6572 66.1133 38.3964 66.1133C39.1357 66.1133 39.7347 66.7123 39.7347 67.4516V77.1893C39.7347 79.8914 37.5361 82.0901 34.834 82.0901Z" fill="#4E337A"/>
</svg>
