<svg width="20" height="20" viewBox="0 0 20 20" fill="none" xmlns="http://www.w3.org/2000/svg">
<path d="M19.621 16.1636C18.9175 14.9297 17.6279 14.6988 17.3763 14.6651C17.3616 14.6631 17.347 14.6621 17.332 14.6621H13.8037L13.664 14.5224C13.8437 14.4598 14.0156 14.3778 14.175 14.2785C14.3386 14.1765 14.4776 14.0618 14.6006 13.9428L15.9071 14.3161L16.0901 13.6752L15.0449 13.3766C15.1829 13.1409 15.2695 12.9193 15.3178 12.7586C15.3272 12.7273 15.3322 12.695 15.3322 12.6623V11.9774L16.1301 11.6354L15.8678 11.0228L15.3322 11.2525V10.9958C15.3322 10.9355 15.3158 10.8762 15.2845 10.8242L14.2846 9.15768C14.232 9.06969 14.1413 9.01103 14.0396 8.99836C13.9393 8.98736 13.8363 9.02069 13.7633 9.09368L12.8611 9.99592H12.6658V5.80104L13.1371 5.32976H13.5647L14.4806 5.94036C14.6339 6.04268 14.8406 6.00102 14.9429 5.84803L15.6095 4.84814C15.6841 4.73615 15.6841 4.5905 15.6095 4.47851L14.2763 2.47873C14.2143 2.38574 14.1103 2.33008 13.999 2.33008H12.9991C12.8728 2.33008 12.7575 2.4014 12.7008 2.51439L12.1265 3.66327H8.5389L7.9643 2.51439C7.90797 2.4014 7.79265 2.33008 7.66633 2.33008H6.33314C6.22549 2.33008 6.1245 2.38207 6.06217 2.46973L4.39568 4.80281C4.30103 4.93513 4.31602 5.11678 4.43101 5.2321L5.09761 5.89869C5.20993 6.01135 5.38591 6.02801 5.51823 5.94036L6.43413 5.32976H7.19505L7.33303 5.46774V9.09069C6.45313 9.41032 4.05072 10.5069 3.02183 13.2106C2.4149 14.8057 2.54955 16.2949 2.77319 17.2705L2.00027 16.8065V15.662C2.00027 15.2807 1.7883 14.9381 1.44767 14.7677C1.10637 14.5971 0.705079 14.6338 0.400112 14.8624C0.149806 15.0504 0.000488281 15.3493 0.000488281 15.662V17.9951C0.000488281 18.11 0.0598152 18.2167 0.157138 18.2777L2.82352 19.9442C2.87651 19.9772 2.93751 19.9948 3.00017 19.9948H9.66612H10.9993H17.9986C18.0502 19.9948 18.1015 19.9828 18.1475 19.9599L19.4807 19.2933C19.5411 19.2633 19.5904 19.2156 19.623 19.1569C19.6577 19.0949 20.455 17.6244 19.621 16.1636ZM10.6663 16.6599L8.69255 16.6535L8.69055 17.3201L10.666 17.3265V19.3283H9.99941C9.99941 18.593 9.40148 17.9951 8.66622 17.9951H7.99963C7.99963 16.3412 6.65411 14.9954 4.99995 14.9954H4.66665V15.662H4.99995C6.28615 15.662 7.33303 16.7085 7.33303 17.9951V18.3284C7.33303 18.5123 7.48202 18.6617 7.66633 18.6617H8.66622C9.03385 18.6617 9.33282 18.9606 9.33282 19.3283H3.09582L0.667083 17.8104V15.662C0.667083 15.5577 0.716745 15.458 0.800069 15.3953C0.903391 15.318 1.03371 15.306 1.14936 15.364C1.26469 15.4217 1.33368 15.533 1.33368 15.662V16.9952C1.33368 17.1122 1.39534 17.2208 1.49533 17.2808L3.16182 18.2807C3.2828 18.3534 3.43679 18.342 3.54577 18.2517C3.65443 18.1614 3.69476 18.0127 3.6461 17.8801C3.39679 17.2015 2.89751 15.411 3.64476 13.4472C3.69376 13.3182 3.74942 13.1969 3.80508 13.0759L3.80575 13.0763C4.92796 10.6375 7.3007 9.79194 7.76532 9.64729C7.90497 9.6043 7.99963 9.47531 7.99963 9.32933V5.32976C7.99963 5.24143 7.96463 5.15644 7.90197 5.09411L7.56868 4.76082C7.50635 4.69816 7.42169 4.66316 7.33303 4.66316H6.33314C6.26748 4.66316 6.20282 4.68283 6.14816 4.71915L5.37558 5.2341L5.10194 4.96046L6.50479 2.99667H7.46035L8.03496 4.14555C8.09129 4.25854 8.20661 4.32986 8.33293 4.32986H12.3325C12.4588 4.32986 12.5741 4.25854 12.6308 4.14555L13.2051 2.99667H13.8207L14.9316 4.66316L14.5733 5.20077L13.8507 4.71915C13.796 4.68283 13.7313 4.66316 13.6657 4.66316H12.9991C12.9104 4.66316 12.8258 4.69816 12.7635 4.76082L12.0969 5.42741C12.0342 5.48974 11.9992 5.57473 11.9992 5.66305V9.99592H11.1373L10.2351 9.09368C10.1624 9.02069 10.0601 8.98636 9.95875 8.99836C9.85676 9.01103 9.76644 9.06969 9.71378 9.15768L8.71389 10.8242C8.68256 10.8762 8.66622 10.9355 8.66622 10.9958V11.2525L8.13095 11.0231L7.86864 11.6357L8.66622 11.9774V12.503V12.6623C8.66622 12.695 8.67122 12.7273 8.68056 12.7586C8.74188 12.9626 8.86287 13.2632 9.07785 13.5685L7.88264 14.0168L8.11695 14.6411L9.56813 14.0968C9.64678 14.1601 9.73178 14.2211 9.82377 14.2785C10.0794 14.4378 10.366 14.5518 10.6663 14.6151V16.6599ZM19.0824 18.747L17.9199 19.3283H14.9056L14.6656 18.6077V17.7628L15.0922 17.1228C15.1452 17.0428 15.2345 16.9952 15.3302 16.9952C15.4742 16.9952 15.5482 17.0902 15.5731 17.1308C15.5985 17.1718 15.6501 17.2805 15.5858 17.4088L15.3672 17.8461C15.3032 17.9744 15.3282 18.1294 15.4298 18.2307L15.7631 18.564C15.8255 18.6267 15.9101 18.6617 15.9988 18.6617H17.6653V17.9951H16.1368L16.0711 17.9294L16.1824 17.7071C16.3311 17.4098 16.3151 17.0632 16.1404 16.7805C15.9658 16.4979 15.6625 16.3286 15.3302 16.3286C15.0112 16.3286 14.7149 16.4872 14.5376 16.7525L14.055 17.4768C14.0187 17.5318 13.999 17.5961 13.999 17.6618V18.6617C13.999 18.6973 14.005 18.733 14.0163 18.767L14.2033 19.3283H12.9991V16.9952H12.3325V19.3283H11.3326V16.9942V14.3288C11.3326 14.1568 11.2016 14.0128 11.0303 13.9968C10.7863 13.9742 10.5574 13.9088 10.3457 13.8048L10.7833 13.6409L10.549 13.0166L9.72911 13.3242C9.5128 13.0689 9.39381 12.799 9.33282 12.6113V12.5027V12.2627L10.2014 12.635L10.4637 12.0224L9.33282 11.5381V11.0881L10.0654 9.86693L10.7637 10.5649C10.826 10.6275 10.9106 10.6625 10.9993 10.6625H12.3325H12.9991C13.0877 10.6625 13.1724 10.6275 13.2347 10.5649L13.933 9.86693L14.6656 11.0881V11.5381L13.5344 12.0227L13.7967 12.6353L14.6656 12.263V12.6113C14.6156 12.765 14.5259 12.9743 14.3769 13.1856L13.7573 13.0086L13.5744 13.6495L13.8137 13.7179C13.5594 13.8742 13.2754 13.9685 12.9684 13.9972C12.8398 14.0092 12.7295 14.0945 12.6858 14.2158C12.6418 14.3375 12.6721 14.4731 12.7635 14.5644L13.43 15.231C13.4924 15.2937 13.577 15.3287 13.6657 15.3287H17.3083C17.4989 15.3577 18.5065 15.554 19.0424 16.4939C19.591 17.4555 19.2161 18.453 19.0824 18.747Z" fill="black"/>
<path d="M19.6903 4.39743C19.0901 2.72928 17.1416 0.185219 14.2319 0.0145703C12.2541 -0.104417 10.7486 1.43742 10.0284 2.17734C10.0144 2.19167 10.0004 2.206 9.98705 2.21967C9.96838 2.20067 9.94939 2.18067 9.92905 2.15967C9.2198 1.42309 7.73262 -0.112749 5.76717 0.0065712C2.85748 0.17722 0.909024 2.72095 0.308755 4.38943C-0.492826 6.61919 0.283424 9.46822 2.43886 12.2059L2.96314 11.7936C0.952686 9.24058 0.213765 6.62386 0.936354 4.61474C1.4763 3.1129 3.21911 0.823483 5.80616 0.671833C7.47599 0.578176 8.80884 1.95736 9.44911 2.62229C9.57143 2.74894 9.67042 2.85127 9.74374 2.91626C9.78407 2.95225 9.83306 2.97792 9.88539 2.99092L9.91972 2.99925C10.026 3.02558 10.1394 2.99792 10.2214 2.92459C10.2923 2.8616 10.388 2.76361 10.5063 2.64195C11.1573 1.97336 12.5161 0.585176 14.1929 0.679832C16.7803 0.831816 18.5228 3.12124 19.0627 4.62308C19.8843 6.90683 18.8158 9.9535 16.2047 12.7729L16.6937 13.2258C19.4774 10.2201 20.5976 6.91983 19.6903 4.39743Z" fill="black"/>
<path d="M9.33261 5.66406H8.66602V6.33066H9.33261V5.66406Z" fill="black"/>
<path d="M11.3326 5.66406H10.666V6.33066H11.3326V5.66406Z" fill="black"/>
<path d="M10.6662 7H9.33301V7.6666H10.6662V7Z" fill="black"/>
<path d="M11.3326 11.3359H10.666V12.0025H11.3326V11.3359Z" fill="black"/>
<path d="M13.3321 11.3359H12.6655V12.0025H13.3321V11.3359Z" fill="black"/>
<path d="M12.3326 12.334H11.666V13.0006H12.3326V12.334Z" fill="black"/>
</svg>
