<svg width="20" height="27" viewBox="0 0 20 27" fill="none" xmlns="http://www.w3.org/2000/svg">
<path d="M9.895 0C4.43892 0 0 4.43884 0 9.895C0 15.1774 9.02075 26.0867 9.40474 26.5484C9.52588 26.6941 9.70551 26.7784 9.895 26.7784C10.0844 26.7784 10.2641 26.6942 10.3853 26.5484C10.7693 26.0866 19.79 15.1774 19.79 9.895C19.79 4.43884 15.3512 0 9.895 0ZM9.895 25.129C9.09513 24.1302 7.43326 22.0022 5.78872 19.5696C2.83596 15.2018 1.27516 11.8564 1.27516 9.895C1.27516 5.14196 5.14205 1.27516 9.895 1.27516C14.648 1.27516 18.5148 5.14196 18.5148 9.895C18.5148 11.8563 16.9541 15.2017 14.0013 19.5696C12.3567 22.0022 10.6949 24.1302 9.895 25.129Z" fill="black"/>
<path d="M13.1401 18.1885C12.8483 17.9914 12.4519 18.0682 12.2548 18.36C11.3944 19.6336 10.4306 20.9685 9.39006 22.3275C9.176 22.6071 9.22905 23.0072 9.50865 23.2213C9.62427 23.3098 9.76054 23.3527 9.89579 23.3527C10.0874 23.3527 10.277 23.2666 10.4025 23.1027C11.4583 21.7238 12.437 20.3683 13.3114 19.0738C13.5086 18.7821 13.4319 18.3857 13.1401 18.1885Z" fill="black"/>
<path d="M9.89467 4.88806C7.01187 4.88806 4.6665 7.23342 4.6665 10.1162C4.6665 12.999 7.01187 15.3444 9.89467 15.3444C12.7775 15.3444 15.1228 12.999 15.1228 10.1162C15.1228 7.23342 12.7775 4.88806 9.89467 4.88806ZM9.89467 14.0692C7.71499 14.0692 5.94167 12.2959 5.94167 10.1162C5.94167 7.93655 7.71499 6.16322 9.89467 6.16322C12.0744 6.16322 13.8477 7.93655 13.8477 10.1162C13.8477 12.2959 12.0744 14.0692 9.89467 14.0692Z" fill="black"/>
</svg>
