<svg width="27" height="27" viewBox="0 0 27 27" fill="none" xmlns="http://www.w3.org/2000/svg">
<path d="M21.375 12.373H14.625V5.62305C14.625 5.32468 14.5065 5.03853 14.2955 4.82755C14.0845 4.61657 13.7984 4.49805 13.5 4.49805C13.2016 4.49805 12.9155 4.61657 12.7045 4.82755C12.4935 5.03853 12.375 5.32468 12.375 5.62305V12.373H5.625C5.32663 12.373 5.04048 12.4916 4.82951 12.7026C4.61853 12.9135 4.5 13.1997 4.5 13.498C4.5 13.7964 4.61853 14.0826 4.82951 14.2935C5.04048 14.5045 5.32663 14.623 5.625 14.623H12.375V21.373C12.375 21.6714 12.4935 21.9576 12.7045 22.1685C12.9155 22.3795 13.2016 22.498 13.5 22.498C13.7984 22.498 14.0845 22.3795 14.2955 22.1685C14.5065 21.9576 14.625 21.6714 14.625 21.373V14.623H21.375C21.6734 14.623 21.9595 14.5045 22.1705 14.2935C22.3815 14.0826 22.5 13.7964 22.5 13.498C22.5 13.1997 22.3815 12.9135 22.1705 12.7026C21.9595 12.4916 21.6734 12.373 21.375 12.373Z" fill="#7C7A7A"/>
</svg>
