<svg width="34" height="27" viewBox="0 0 34 27" fill="none" xmlns="http://www.w3.org/2000/svg">
<path d="M32.6996 9.77136L31.9585 8.98675L29.3577 1.97607C28.9145 0.79188 27.7812 0.00726495 26.5171 0H7.9406C6.6765 0 5.54316 0.79188 5.1 1.97607L2.53547 8.89957L1.46752 9.8876C0.537607 10.6795 0 11.8419 0 13.0624V23.2769C0.00726496 24.9478 1.36581 26.2991 3.03675 26.2991H4.9547C6.62564 26.2991 7.98419 24.9478 7.99145 23.2769V21.7949H26.0085V23.2769C26.0158 24.9478 27.3744 26.2991 29.0453 26.2991H30.9632C32.6342 26.2991 33.9927 24.9478 34 23.2769V12.7936C33.9927 11.653 33.5278 10.5632 32.6996 9.77136ZM6.46581 2.47008C6.69829 1.85256 7.28675 1.45299 7.9406 1.45299H26.5244C27.1782 1.45299 27.7667 1.85983 27.9991 2.47008L30.2658 8.57264H28.5731C28.1735 5.84829 25.638 3.96666 22.9137 4.3735C20.7415 4.69316 19.0342 6.40042 18.7145 8.57264H4.19915L6.46581 2.47008ZM27.091 8.57264H20.1821C20.5816 6.66196 22.456 5.44145 24.3667 5.84102C25.7325 6.13162 26.8004 7.19957 27.091 8.57264ZM6.53846 23.2769C6.5312 24.1487 5.8265 24.8461 4.9547 24.8461H3.03675C2.16496 24.8461 1.46026 24.1487 1.45299 23.2769V21.3735C1.88889 21.6568 2.46282 21.7949 3.03675 21.7949H6.53846V23.2769ZM32.547 23.2769C32.5397 24.1487 31.835 24.8461 30.9632 24.8461H29.0453C28.1735 24.8461 27.4688 24.1414 27.4615 23.2769V21.7949H30.9632C31.5372 21.7949 32.1111 21.6568 32.547 21.3735V23.2769ZM30.9632 20.3419H3.03675C2.17222 20.3491 1.46026 19.659 1.45299 18.7872V13.0624C1.45299 12.2632 1.80897 11.5004 2.41923 10.9846C2.4265 10.9773 2.44103 10.9628 2.44829 10.9555L3.43632 10.0256H30.9487L31.6462 10.7739C31.6534 10.7885 31.6752 10.7957 31.6825 10.8103C32.2274 11.3261 32.5397 12.0453 32.5397 12.7936V18.7872H32.547C32.5397 19.6517 31.8278 20.3491 30.9632 20.3419Z" fill="#4E337A"/>
<path d="M9.58537 12.9277H4.13665C3.73708 12.9277 3.41016 13.2547 3.41016 13.6542V17.432C3.41016 17.8316 3.73708 18.1585 4.13665 18.1585H9.58537C9.98494 18.1585 10.3119 17.8316 10.3119 17.432V13.6542C10.3119 13.2547 9.98494 12.9277 9.58537 12.9277ZM8.85887 16.7055H4.86315V14.3807H8.85887V16.7055Z" fill="#4E337A"/>
<path d="M29.8627 12.9277H24.414C24.0144 12.9277 23.6875 13.2547 23.6875 13.6542V17.432C23.6875 17.8316 24.0144 18.1585 24.414 18.1585H29.8627C30.2623 18.1585 30.5892 17.8316 30.5892 17.432V13.6542C30.5892 13.2547 30.2623 12.9277 29.8627 12.9277ZM29.1362 16.7055H25.1405V14.3807H29.1362V16.7055Z" fill="#4E337A"/>
<path d="M20.5062 15.9805H13.4882C13.0886 15.9805 12.7617 16.3074 12.7617 16.707C12.7617 17.1065 13.0886 17.4335 13.4882 17.4335H20.5062C20.9057 17.4335 21.2327 17.1065 21.2327 16.707C21.2327 16.3074 20.9057 15.9805 20.5062 15.9805Z" fill="#4E337A"/>
<path d="M20.5062 13.7285H13.4882C13.0886 13.7285 12.7617 14.0554 12.7617 14.455C12.7617 14.8546 13.0886 15.1815 13.4882 15.1815H20.5062C20.9057 15.1815 21.2327 14.8546 21.2327 14.455C21.2327 14.0554 20.9057 13.7285 20.5062 13.7285Z" fill="#4E337A"/>
</svg>
