<svg width="28" height="32" viewBox="0 0 28 32" fill="none" xmlns="http://www.w3.org/2000/svg">
<g clip-path="url(#clip0_2901_15)">
<path d="M27.7482 19.7618L26.318 18.5806V16.4385C26.318 15.3686 25.4476 14.4979 24.3774 14.4979C23.6264 14.4979 22.9742 14.927 22.6517 15.5527L21.999 15.0137V12.8949C21.999 11.8248 21.1286 10.9544 20.0584 10.9544C19.3139 10.9544 18.6663 11.3759 18.3412 11.9929L17.506 11.3031V6.15783C17.506 3.77026 16.3459 1.51643 14.4028 0.128935C14.1619 -0.0429783 13.8381 -0.0429783 13.5974 0.128935C11.6541 1.51643 10.494 3.77026 10.494 6.15783V11.3033L9.65911 11.9929C9.33369 11.3762 8.68611 10.9544 7.9416 10.9544C6.87167 10.9544 6.00101 11.825 6.00101 12.8949V15.014L5.34828 15.553C5.02584 14.927 4.37365 14.4982 3.62264 14.4982C2.55272 14.4982 1.68205 15.3686 1.68205 16.4388V18.5806L0.251779 19.7618C0.092319 19.8933 0 20.0893 0 20.2962V23.5891C0 23.8097 0.105314 24.0171 0.283184 24.1479C0.403659 24.2361 0.547417 24.2821 0.69334 24.2821C0.762918 24.2821 0.833037 24.2716 0.90099 24.2502L8.79413 21.7684C9.15934 21.6536 8.04015 21.6801 7.92509 21.3149C7.92509 20.8986 8.74351 20.3311 8.37829 20.4459L1.38614 22.6445V20.6227L10.494 13.101V19.7807L8.37829 20.4459C8.01307 20.5609 7.81002 20.95 7.92509 21.3149C8.01795 21.6111 8.29138 21.8003 8.58594 21.8003C8.6547 21.8003 8.72482 21.7901 8.79413 21.7684L10.494 21.2337V22.1607C10.494 23.2972 10.6145 24.4172 10.8509 25.5069L7.76292 28.711C7.63838 28.8401 7.5688 29.0126 7.5688 29.1918V30.9085C7.5688 31.1484 7.6928 31.3712 7.89639 31.4976C8.00793 31.5667 8.13463 31.6016 8.26187 31.6016C8.36692 31.6016 8.4725 31.5778 8.56969 31.5296L12.387 29.6374C12.7 30.2133 13.0495 30.7729 13.4366 31.3125C13.5668 31.4941 13.7766 31.6016 14 31.6016C14.2234 31.6016 14.4329 31.4941 14.5631 31.3125C14.9503 30.7729 15.3 30.2133 15.6127 29.6374L19.4303 31.5296C19.5275 31.5778 19.6328 31.6016 19.7379 31.6016C19.8651 31.6016 19.9918 31.5667 20.1033 31.4976C20.3072 31.3712 20.4309 31.1484 20.4309 30.9085V29.1918C20.4309 29.0123 20.3613 28.8396 20.2365 28.7105L17.1478 25.5121C17.3849 24.4207 17.5057 23.2988 17.5057 22.1607V21.2337L27.099 24.2502C27.167 24.2716 27.2371 24.2819 27.3069 24.2819C27.4526 24.2819 27.5966 24.2358 27.7168 24.1476C27.895 24.0171 28 23.8094 28 23.5888V20.2959C28 20.0893 27.9077 19.8933 27.7482 19.7618ZM7.38714 12.8949C7.38714 12.5893 7.63595 12.3405 7.9416 12.3405C8.24725 12.3405 8.49606 12.5893 8.49606 12.8949V12.9534L7.38714 13.869V12.8949ZM3.06819 16.4385C3.06819 16.1329 3.31672 15.8841 3.62264 15.8841C3.9283 15.8841 4.1771 16.1329 4.1771 16.4385V16.52L3.06819 17.4359V16.4385ZM23.8229 16.4385C23.8229 16.1329 24.0717 15.8841 24.3774 15.8841C24.6833 15.8841 24.9318 16.1329 24.9318 16.4385V17.4359L23.8229 16.52V16.4385ZM19.5039 12.8949C19.5039 12.5893 19.7527 12.3405 20.0584 12.3405C20.3641 12.3405 20.6129 12.5893 20.6129 12.8949V13.869L19.5039 12.9534V12.8949ZM8.95494 29.7915V29.4715L11.2751 27.0642C11.4229 27.5136 11.5908 27.9565 11.7792 28.3918L8.95494 29.7915ZM14 29.6588C12.6101 27.4037 11.8802 24.832 11.8802 22.1607V20.2913C11.8802 20.2889 11.8802 20.2864 11.8802 20.2837V6.15783C11.8802 4.38806 12.6642 2.70872 14 1.57139C15.3358 2.70872 16.1198 4.38806 16.1198 6.15783V20.2837V20.2913V22.1607C16.1198 23.3118 15.9839 24.4446 15.7183 25.5416C15.714 25.5575 15.7099 25.5738 15.7067 25.59C15.3553 27.0206 14.7821 28.3899 14 29.6588ZM19.0451 29.472V29.7915L16.2205 28.3918C16.4087 27.9578 16.576 27.5163 16.7233 27.0679L19.0451 29.472ZM26.6139 22.6445L17.506 19.7807V13.101L26.6139 20.6227V22.6445Z" fill="url(#paint0_linear_2901_15)"/>
</g>
<defs>
<linearGradient id="paint0_linear_2901_15" x1="27.8594" y1="23.5216" x2="10.306" y2="2.64831" gradientUnits="userSpaceOnUse">
<stop stop-color="#7D3891"/>
<stop offset="1" stop-color="#CB298B"/>
</linearGradient>
<clipPath id="clip0_2901_15">
<rect width="28" height="32" fill="white"/>
</clipPath>
</defs>
</svg>
