<svg width="36" height="40" viewBox="0 0 36 40" fill="none" xmlns="http://www.w3.org/2000/svg">
<g clip-path="url(#clip0_2901_34)">
<path d="M14.9128 29.6868C14.944 32.9861 16.9303 36.974 17.9195 38.5556C19.8563 36.8329 20.7049 31.9253 20.8872 29.6868C20.9002 23.2511 20.9184 9.67172 20.8872 6.83954C20.8559 4.00737 18.8957 1.76644 17.9195 1C15.6078 2.3431 14.9518 5.45265 14.9128 6.83954C14.8997 13.0806 14.8815 26.3874 14.9128 29.6868Z" stroke="#4E337A" stroke-width="1.6"/>
<path d="M20.7167 24.6602L32.817 28.5323C33.7977 28.8462 34.8 28.1145 34.8 27.0848C34.8 26.6321 34.5982 26.2029 34.2495 25.9142L20.7167 14.708" stroke="#4E337A" stroke-width="1.6"/>
<path d="M16.7732 35.9258L12.832 37.765C12.0436 38.1329 11.1399 37.5574 11.1399 36.6874C11.1399 36.3764 11.2617 36.0777 11.4793 35.8555L15.271 31.9824" stroke="#4E337A" stroke-width="1.6"/>
<path d="M19.4023 36.0962L22.9617 37.7605C23.7528 38.1304 24.6601 37.553 24.6601 36.6797C24.6601 36.3672 24.5375 36.0671 24.3186 35.8441L20.529 31.9824" stroke="#4E337A" stroke-width="1.6"/>
<path d="M30.2935 22.7822V22.0311V21.0117C30.308 20.7614 30.5286 20.2392 31.295 20.1533C31.6143 20.1533 32.2355 20.325 32.1659 21.0117V22.4067V23.9089" stroke="#4E337A" stroke-width="1.6"/>
<path d="M25.4109 19.0273V18.2762V17.2569C25.4254 17.0065 25.6461 16.4843 26.4124 16.3984C26.7317 16.3984 27.353 16.5701 27.2833 17.2569V18.6518V20.154" stroke="#4E337A" stroke-width="1.6"/>
<path d="M14.7999 24.6602L2.69963 28.5323C1.71892 28.8462 0.716627 28.1145 0.716627 27.0848C0.716627 26.6321 0.918426 26.2029 1.26713 25.9142L14.7999 14.708" stroke="#4E337A" stroke-width="1.6"/>
<path d="M5.22314 22.7822V22.0311V21.0117C5.20864 20.7614 4.98805 20.2392 4.22165 20.1533C3.90235 20.1533 3.28114 20.325 3.35074 21.0117V22.4067V23.9089" stroke="#4E337A" stroke-width="1.6"/>
<path d="M10.1057 19.0273V18.2762V17.2569C10.0912 17.0065 9.87051 16.4843 9.10421 16.3984C8.78491 16.3984 8.16361 16.5701 8.23331 17.2569V18.6518V20.154" stroke="#4E337A" stroke-width="1.6"/>
</g>
<defs>
<clipPath id="clip0_2901_34">
<rect width="36" height="40" fill="white"/>
</clipPath>
</defs>
</svg>
