<svg width="12" height="13" viewBox="0 0 12 13" fill="none" xmlns="http://www.w3.org/2000/svg">
<path d="M5.55638 11.9785H6.44797C6.52722 11.9785 6.56685 11.9389 6.56685 11.8596V1.3983C6.56685 1.31904 6.52722 1.27942 6.44797 1.27942H5.55638C5.47713 1.27942 5.4375 1.31904 5.4375 1.3983V11.8596C5.4375 11.9389 5.47713 11.9785 5.55638 11.9785Z" fill="#E9E9E9" stroke="#E9E9E9"/>
<path d="M1.0095 7.19336H10.9953C11.0746 7.19336 11.1142 7.15373 11.1142 7.07448V6.18289C11.1142 6.10364 11.0746 6.06401 10.9953 6.06401H1.0095C0.930251 6.06401 0.890625 6.10364 0.890625 6.18289V7.07448C0.890625 7.15373 0.930251 7.19336 1.0095 7.19336Z" fill="#E9E9E9" stroke="#E9E9E9"/>
</svg>
