<svg width="8" height="12" viewBox="0 0 8 12" fill="none" xmlns="http://www.w3.org/2000/svg">
<path fill-rule="evenodd" clip-rule="evenodd" d="M4 10C3.8528 10 3.73333 9.85067 3.73333 9.66667V5.33333H0.266667C0.119467 5.33333 0 5.184 0 5C0 4.816 0.119467 4.66667 0.266667 4.66667H3.73333V0.333333C3.73333 0.149333 3.8528 0 4 0C4.1472 0 4.26667 0.149333 4.26667 0.333333V4.66667H7.73333C7.88053 4.66667 8 4.816 8 5C8 5.184 7.88053 5.33333 7.73333 5.33333H4.26667V9.66667C4.26667 9.85067 4.1472 10 4 10ZM7.73333 12H0.266667C0.119467 12 0 11.8507 0 11.6667C0 11.4827 0.119467 11.3333 0.266667 11.3333H7.73333C7.88053 11.3333 8 11.4827 8 11.6667C8 11.8507 7.88053 12 7.73333 12Z" fill="#4E337A"/>
</svg>
