<svg width="23" height="26" viewBox="0 0 23 26" fill="none" xmlns="http://www.w3.org/2000/svg">
<path d="M17.5882 20.2941V16.9118C17.5882 16.5382 17.8911 16.2353 18.2647 16.2353C18.6383 16.2353 18.9412 16.5382 18.9412 16.9118V20.2941H22.3235C22.6971 20.2941 23 20.597 23 20.9706C23 21.3442 22.6971 21.6471 22.3235 21.6471H18.9412V25.0294C18.9412 25.403 18.6383 25.7059 18.2647 25.7059C17.8911 25.7059 17.5882 25.403 17.5882 25.0294V21.6471H14.2059C13.8323 21.6471 13.5294 21.3442 13.5294 20.9706C13.5294 20.597 13.8323 20.2941 14.2059 20.2941H17.5882ZM13.5869 12.9411C12.7432 13.3191 11.8079 13.5294 10.8235 13.5294C9.84112 13.5294 8.90762 13.32 8.06524 12.9434L2.54258 15.4537C1.81809 15.783 1.35294 16.5054 1.35294 17.3012V18.2647C1.35294 19.3855 2.26154 20.2941 3.38235 20.2941H10.1471C10.5207 20.2941 10.8235 20.597 10.8235 20.9706C10.8235 21.3442 10.5207 21.6471 10.1471 21.6471H3.38235C1.51433 21.6471 0 20.1327 0 18.2647V17.3012C0 15.9748 0.775245 14.7709 1.98273 14.222L6.65939 12.0962C5.07636 10.8581 4.05882 8.93022 4.05882 6.76471C4.05882 3.02866 7.08749 0 10.8235 0C14.5596 0 17.5882 3.02866 17.5882 6.76471C17.5882 8.91984 16.5804 10.8396 15.0104 12.0784L18.5307 13.5839C18.8742 13.7308 19.0336 14.1284 18.8867 14.4719C18.7398 14.8154 18.3422 14.9748 17.9987 14.8279L13.5869 12.9411ZM10.8235 12.1765C13.8124 12.1765 16.2353 9.75354 16.2353 6.76471C16.2353 3.77587 13.8124 1.35294 10.8235 1.35294C7.83469 1.35294 5.41176 3.77587 5.41176 6.76471C5.41176 9.75354 7.83469 12.1765 10.8235 12.1765Z" fill="black"/>
</svg>
