<svg width="23" height="23" viewBox="0 0 23 23" fill="none" xmlns="http://www.w3.org/2000/svg">
<path d="M21.0833 2.3H19.1667V1.53333C19.1667 1.12667 19.0051 0.736658 18.7176 0.449103C18.43 0.161547 18.04 0 17.6333 0C17.2267 0 16.8367 0.161547 16.5491 0.449103C16.2615 0.736658 16.1 1.12667 16.1 1.53333V2.3H13.0333V1.53333C13.0333 1.12667 12.8718 0.736658 12.5842 0.449103C12.2967 0.161547 11.9067 0 11.5 0C11.0933 0 10.7033 0.161547 10.4158 0.449103C10.1282 0.736658 9.96667 1.12667 9.96667 1.53333V2.3H6.9V1.53333C6.9 1.12667 6.73845 0.736658 6.4509 0.449103C6.16334 0.161547 5.77333 0 5.36667 0C4.96 0 4.56999 0.161547 4.28244 0.449103C3.99488 0.736658 3.83333 1.12667 3.83333 1.53333V2.3H1.91667C1.40833 2.3 0.920823 2.50193 0.561379 2.86138C0.201934 3.22082 0 3.70833 0 4.21666V19.55C0 20.0583 0.201934 20.5458 0.561379 20.9053C0.920823 21.2647 1.40833 21.4667 1.91667 21.4667H12.65C12.7517 21.4667 12.8492 21.4263 12.9211 21.3544C12.9929 21.2825 13.0333 21.185 13.0333 21.0833C13.0333 20.9817 12.9929 20.8842 12.9211 20.8123C12.8492 20.7404 12.7517 20.7 12.65 20.7H1.91667C1.61195 20.6991 1.31997 20.5776 1.1045 20.3622C0.889029 20.1467 0.767577 19.8547 0.766667 19.55V7.66666H22.2333V14.1833C22.2333 14.285 22.2737 14.3825 22.3456 14.4544C22.4175 14.5263 22.515 14.5667 22.6167 14.5667C22.7183 14.5667 22.8158 14.5263 22.8877 14.4544C22.9596 14.3825 23 14.285 23 14.1833V4.21666C23 3.70833 22.7981 3.22082 22.4386 2.86138C22.0792 2.50193 21.5917 2.3 21.0833 2.3ZM16.8667 1.53333C16.8667 1.33 16.9474 1.135 17.0912 0.991218C17.235 0.84744 17.43 0.766666 17.6333 0.766666C17.8367 0.766666 18.0317 0.84744 18.1754 0.991218C18.3192 1.135 18.4 1.33 18.4 1.53333V3.83333C18.4 4.03666 18.3192 4.23167 18.1754 4.37545C18.0317 4.51922 17.8367 4.6 17.6333 4.6C17.43 4.6 17.235 4.51922 17.0912 4.37545C16.9474 4.23167 16.8667 4.03666 16.8667 3.83333V1.53333ZM10.7333 1.53333C10.7333 1.33 10.8141 1.135 10.9579 0.991218C11.1017 0.84744 11.2967 0.766666 11.5 0.766666C11.7033 0.766666 11.8983 0.84744 12.0421 0.991218C12.1859 1.135 12.2667 1.33 12.2667 1.53333V3.83333C12.2667 4.03666 12.1859 4.23167 12.0421 4.37545C11.8983 4.51922 11.7033 4.6 11.5 4.6C11.2967 4.6 11.1017 4.51922 10.9579 4.37545C10.8141 4.23167 10.7333 4.03666 10.7333 3.83333V1.53333ZM4.6 1.53333C4.6 1.33 4.68077 1.135 4.82455 0.991218C4.96833 0.84744 5.16333 0.766666 5.36667 0.766666C5.57 0.766666 5.765 0.84744 5.90878 0.991218C6.05256 1.135 6.13333 1.33 6.13333 1.53333V3.83333C6.13333 4.03666 6.05256 4.23167 5.90878 4.37545C5.765 4.51922 5.57 4.6 5.36667 4.6C5.16333 4.6 4.96833 4.51922 4.82455 4.37545C4.68077 4.23167 4.6 4.03666 4.6 3.83333V1.53333ZM22.2333 6.9H0.766667V4.21666C0.767577 3.91195 0.889029 3.61997 1.1045 3.4045C1.31997 3.18903 1.61195 3.06758 1.91667 3.06667H3.83333V3.83333C3.83333 4.24 3.99488 4.63001 4.28244 4.91756C4.56999 5.20512 4.96 5.36666 5.36667 5.36666C5.77333 5.36666 6.16334 5.20512 6.4509 4.91756C6.73845 4.63001 6.9 4.24 6.9 3.83333V3.06667H9.96667V3.83333C9.96667 4.24 10.1282 4.63001 10.4158 4.91756C10.7033 5.20512 11.0933 5.36666 11.5 5.36666C11.9067 5.36666 12.2967 5.20512 12.5842 4.91756C12.8718 4.63001 13.0333 4.24 13.0333 3.83333V3.06667H16.1V3.83333C16.1 4.24 16.2615 4.63001 16.5491 4.91756C16.8367 5.20512 17.2267 5.36666 17.6333 5.36666C18.04 5.36666 18.43 5.20512 18.7176 4.91756C19.0051 4.63001 19.1667 4.24 19.1667 3.83333V3.06667H21.0833C21.3881 3.06758 21.68 3.18903 21.8955 3.4045C22.111 3.61997 22.2324 3.91195 22.2333 4.21666V6.9Z" fill="black"/>
<path d="M10.732 10.3487C10.732 10.1454 10.6512 9.95036 10.5074 9.80658C10.3636 9.6628 10.1686 9.58203 9.96528 9.58203H8.43195C8.22862 9.58203 8.03361 9.6628 7.88983 9.80658C7.74606 9.95036 7.66528 10.1454 7.66528 10.3487V11.4987C7.66528 11.702 7.74606 11.897 7.88983 12.0408C8.03361 12.1846 8.22862 12.2654 8.43195 12.2654H9.96528C10.1686 12.2654 10.3636 12.1846 10.5074 12.0408C10.6512 11.897 10.732 11.702 10.732 11.4987V10.3487ZM8.43195 11.4987V10.3487H9.96528V11.4987H8.43195Z" fill="black"/>
<path d="M6.13356 10.3487C6.13356 10.1454 6.05279 9.95036 5.90901 9.80658C5.76523 9.6628 5.57023 9.58203 5.3669 9.58203H3.83356C3.63023 9.58203 3.43522 9.6628 3.29145 9.80658C3.14767 9.95036 3.06689 10.1454 3.06689 10.3487V11.4987C3.06689 11.702 3.14767 11.897 3.29145 12.0408C3.43522 12.1846 3.63023 12.2654 3.83356 12.2654H5.3669C5.57023 12.2654 5.76523 12.1846 5.90901 12.0408C6.05279 11.897 6.13356 11.702 6.13356 11.4987V10.3487ZM3.83356 11.4987V10.3487H5.3669V11.4987H3.83356Z" fill="black"/>
<path d="M19.1661 12.2654C19.3694 12.2654 19.5644 12.1846 19.7082 12.0408C19.852 11.897 19.9328 11.702 19.9328 11.4987V10.3487C19.9328 10.1454 19.852 9.95036 19.7082 9.80658C19.5644 9.6628 19.3694 9.58203 19.1661 9.58203H17.6328C17.4294 9.58203 17.2344 9.6628 17.0906 9.80658C16.9469 9.95036 16.8661 10.1454 16.8661 10.3487V11.4987C16.8661 11.702 16.9469 11.897 17.0906 12.0408C17.2344 12.1846 17.4294 12.2654 17.6328 12.2654H19.1661ZM17.6328 10.3487H19.1661V11.4987H17.6328V10.3487Z" fill="black"/>
<path d="M10.732 13.7999C10.732 13.5965 10.6512 13.4015 10.5074 13.2578C10.3636 13.114 10.1686 13.0332 9.96528 13.0332H8.43195C8.22862 13.0332 8.03361 13.114 7.88983 13.2578C7.74606 13.4015 7.66528 13.5965 7.66528 13.7999V14.9499C7.66528 15.1532 7.74606 15.3482 7.88983 15.492C8.03361 15.6358 8.22862 15.7165 8.43195 15.7165H9.96528C10.1686 15.7165 10.3636 15.6358 10.5074 15.492C10.6512 15.3482 10.732 15.1532 10.732 14.9499V13.7999ZM8.43195 14.9499V13.7999H9.96528V14.9499H8.43195Z" fill="black"/>
<path d="M6.13356 13.7999C6.13356 13.5965 6.05279 13.4015 5.90901 13.2578C5.76523 13.114 5.57023 13.0332 5.3669 13.0332H3.83356C3.63023 13.0332 3.43522 13.114 3.29145 13.2578C3.14767 13.4015 3.06689 13.5965 3.06689 13.7999V14.9499C3.06689 15.1532 3.14767 15.3482 3.29145 15.492C3.43522 15.6358 3.63023 15.7165 3.83356 15.7165H5.3669C5.57023 15.7165 5.76523 15.6358 5.90901 15.492C6.05279 15.3482 6.13356 15.1532 6.13356 14.9499V13.7999ZM3.83356 14.9499V13.7999H5.3669V14.9499H3.83356Z" fill="black"/>
<path d="M9.96528 16.4844H8.43195C8.22862 16.4844 8.03361 16.5651 7.88983 16.7089C7.74606 16.8527 7.66528 17.0477 7.66528 17.251V18.401C7.66528 18.6044 7.74606 18.7994 7.88983 18.9432C8.03361 19.0869 8.22862 19.1677 8.43195 19.1677H9.96528C10.1686 19.1677 10.3636 19.0869 10.5074 18.9432C10.6512 18.7994 10.732 18.6044 10.732 18.401V17.251C10.732 17.0477 10.6512 16.8527 10.5074 16.7089C10.3636 16.5651 10.1686 16.4844 9.96528 16.4844ZM8.43195 18.401V17.251H9.96528V18.401H8.43195Z" fill="black"/>
<path d="M13.0344 12.2654H14.5677C14.771 12.2654 14.966 12.1846 15.1098 12.0408C15.2536 11.897 15.3344 11.702 15.3344 11.4987V10.3487C15.3344 10.1454 15.2536 9.95036 15.1098 9.80658C14.966 9.6628 14.771 9.58203 14.5677 9.58203H13.0344C12.831 9.58203 12.636 9.6628 12.4923 9.80658C12.3485 9.95036 12.2677 10.1454 12.2677 10.3487V11.4987C12.2677 11.702 12.3485 11.897 12.4923 12.0408C12.636 12.1846 12.831 12.2654 13.0344 12.2654ZM13.0344 10.3487H14.5677V11.4987H13.0344V10.3487Z" fill="black"/>
<path d="M12.2677 14.9499C12.2677 15.1532 12.3485 15.3482 12.4923 15.492C12.636 15.6358 12.831 15.7165 13.0344 15.7165C13.136 15.7165 13.2335 15.6761 13.3054 15.6043C13.3773 15.5324 13.4177 15.4349 13.4177 15.3332C13.4177 15.2315 13.3773 15.134 13.3054 15.0621C13.2335 14.9903 13.136 14.9499 13.0344 14.9499V13.7999H14.5677C14.6694 13.7999 14.7669 13.7595 14.8388 13.6876C14.9106 13.6157 14.951 13.5182 14.951 13.4165C14.951 13.3149 14.9106 13.2174 14.8388 13.1455C14.7669 13.0736 14.6694 13.0332 14.5677 13.0332H13.0344C12.831 13.0332 12.636 13.114 12.4923 13.2578C12.3485 13.4015 12.2677 13.5965 12.2677 13.7999V14.9499Z" fill="black"/>
<path d="M5.3669 16.4844H3.83356C3.63023 16.4844 3.43522 16.5651 3.29145 16.7089C3.14767 16.8527 3.06689 17.0477 3.06689 17.251V18.401C3.06689 18.6044 3.14767 18.7994 3.29145 18.9432C3.43522 19.0869 3.63023 19.1677 3.83356 19.1677H5.3669C5.57023 19.1677 5.76523 19.0869 5.90901 18.9432C6.05279 18.7994 6.13356 18.6044 6.13356 18.401V17.251C6.13356 17.0477 6.05279 16.8527 5.90901 16.7089C5.76523 16.5651 5.57023 16.4844 5.3669 16.4844ZM3.83356 18.401V17.251H5.3669V18.401H3.83356Z" fill="black"/>
<path d="M18.0147 13.0332C17.0291 13.0332 16.0656 13.3255 15.2461 13.873C14.4266 14.4206 13.7879 15.1989 13.4107 16.1095C13.0335 17.0201 12.9348 18.0221 13.1271 18.9887C13.3194 19.9554 13.794 20.8434 14.491 21.5403C15.1879 22.2372 16.0758 22.7118 17.0425 22.9041C18.0092 23.0964 19.0112 22.9977 19.9217 22.6205C20.8323 22.2434 21.6106 21.6046 22.1582 20.7851C22.7058 19.9656 22.998 19.0021 22.998 18.0165C22.9965 16.6953 22.471 15.4287 21.5368 14.4945C20.6026 13.5602 19.3359 13.0347 18.0147 13.0332ZM18.0147 22.2332C17.1807 22.2332 16.3655 21.9859 15.6721 21.5226C14.9786 21.0592 14.4382 20.4007 14.119 19.6302C13.7999 18.8597 13.7164 18.0119 13.8791 17.1939C14.0418 16.376 14.4434 15.6246 15.0331 15.0349C15.6228 14.4452 16.3741 14.0436 17.1921 13.8809C18.01 13.7182 18.8579 13.8017 19.6284 14.1208C20.3989 14.44 21.0574 14.9805 21.5207 15.6739C21.9841 16.3673 22.2314 17.1826 22.2314 18.0165C22.2301 19.1345 21.7854 20.2062 20.9949 20.9967C20.2044 21.7872 19.1326 22.2319 18.0147 22.2332Z" fill="black"/>
<path d="M20.2312 16.4103L17.2496 19.3919L15.8945 18.0364C15.8222 17.9666 15.7254 17.928 15.6249 17.9288C15.5244 17.9297 15.4282 17.97 15.3571 18.0411C15.2861 18.1122 15.2458 18.2083 15.2449 18.3088C15.244 18.4093 15.2827 18.5062 15.3525 18.5785L16.9786 20.205C17.0505 20.2768 17.148 20.3172 17.2496 20.3172C17.3512 20.3172 17.4487 20.2768 17.5206 20.205L20.7732 16.9524C20.843 16.8801 20.8817 16.7832 20.8808 16.6827C20.8799 16.5822 20.8396 16.4861 20.7685 16.415C20.6975 16.3439 20.6013 16.3036 20.5008 16.3027C20.4003 16.3019 20.3035 16.3405 20.2312 16.4103Z" fill="black"/>
</svg>
