<svg width="103" height="103" viewBox="0 0 103 103" fill="none" xmlns="http://www.w3.org/2000/svg">
<path d="M94.4167 10.3H85.8333V6.86666C85.8333 5.04551 85.1099 3.29895 83.8221 2.0112C82.5344 0.72345 80.7878 0 78.9667 0C77.1455 0 75.399 0.72345 74.1112 2.0112C72.8235 3.29895 72.1 5.04551 72.1 6.86666V10.3H58.3667V6.86666C58.3667 5.04551 57.6432 3.29895 56.3555 2.0112C55.0677 0.72345 53.3212 0 51.5 0C49.6788 0 47.9323 0.72345 46.6445 2.0112C45.3568 3.29895 44.6333 5.04551 44.6333 6.86666V10.3H30.9V6.86666C30.9 5.04551 30.1765 3.29895 28.8888 2.0112C27.601 0.72345 25.8545 0 24.0333 0C22.2122 0 20.4656 0.72345 19.1779 2.0112C17.8901 3.29895 17.1667 5.04551 17.1667 6.86666V10.3H8.58333C6.30689 10.3 4.12369 11.2043 2.514 12.814C0.904313 14.4237 0 16.6069 0 18.8833V87.55C0 89.8264 0.904313 92.0096 2.514 93.6193C4.12369 95.229 6.30689 96.1333 8.58333 96.1333H56.65C57.1053 96.1333 57.5419 95.9524 57.8639 95.6305C58.1858 95.3086 58.3667 94.8719 58.3667 94.4166C58.3667 93.9613 58.1858 93.5247 57.8639 93.2028C57.5419 92.8808 57.1053 92.7 56.65 92.7H8.58333C7.21872 92.6959 5.91117 92.152 4.94624 91.1871C3.98131 90.2221 3.43741 88.9146 3.43333 87.55V34.3333H99.5667V63.5166C99.5667 63.9719 99.7475 64.4086 100.069 64.7305C100.391 65.0524 100.828 65.2333 101.283 65.2333C101.739 65.2333 102.175 65.0524 102.497 64.7305C102.819 64.4086 103 63.9719 103 63.5166V18.8833C103 16.6069 102.096 14.4237 100.486 12.814C98.8763 11.2043 96.6931 10.3 94.4167 10.3ZM75.5333 6.86666C75.5333 5.95609 75.8951 5.08281 76.5389 4.43893C77.1828 3.79506 78.0561 3.43333 78.9667 3.43333C79.8772 3.43333 80.7505 3.79506 81.3944 4.43893C82.0383 5.08281 82.4 5.95609 82.4 6.86666V17.1667C82.4 18.0772 82.0383 18.9505 81.3944 19.5944C80.7505 20.2383 79.8772 20.6 78.9667 20.6C78.0561 20.6 77.1828 20.2383 76.5389 19.5944C75.8951 18.9505 75.5333 18.0772 75.5333 17.1667V6.86666ZM48.0667 6.86666C48.0667 5.95609 48.4284 5.08281 49.0723 4.43893C49.7161 3.79506 50.5894 3.43333 51.5 3.43333C52.4106 3.43333 53.2839 3.79506 53.9277 4.43893C54.5716 5.08281 54.9333 5.95609 54.9333 6.86666V17.1667C54.9333 18.0772 54.5716 18.9505 53.9277 19.5944C53.2839 20.2383 52.4106 20.6 51.5 20.6C50.5894 20.6 49.7161 20.2383 49.0723 19.5944C48.4284 18.9505 48.0667 18.0772 48.0667 17.1667V6.86666ZM20.6 6.86666C20.6 5.95609 20.9617 5.08281 21.6056 4.43893C22.2495 3.79506 23.1228 3.43333 24.0333 3.43333C24.9439 3.43333 25.8172 3.79506 26.4611 4.43893C27.1049 5.08281 27.4667 5.95609 27.4667 6.86666V17.1667C27.4667 18.0772 27.1049 18.9505 26.4611 19.5944C25.8172 20.2383 24.9439 20.6 24.0333 20.6C23.1228 20.6 22.2495 20.2383 21.6056 19.5944C20.9617 18.9505 20.6 18.0772 20.6 17.1667V6.86666ZM99.5667 30.9H3.43333V18.8833C3.43741 17.5187 3.98131 16.2112 4.94624 15.2462C5.91117 14.2813 7.21872 13.7374 8.58333 13.7333H17.1667V17.1667C17.1667 18.9878 17.8901 20.7344 19.1779 22.0221C20.4656 23.3099 22.2122 24.0333 24.0333 24.0333C25.8545 24.0333 27.601 23.3099 28.8888 22.0221C30.1765 20.7344 30.9 18.9878 30.9 17.1667V13.7333H44.6333V17.1667C44.6333 18.9878 45.3568 20.7344 46.6445 22.0221C47.9323 23.3099 49.6788 24.0333 51.5 24.0333C53.3212 24.0333 55.0677 23.3099 56.3555 22.0221C57.6432 20.7344 58.3667 18.9878 58.3667 17.1667V13.7333H72.1V17.1667C72.1 18.9878 72.8235 20.7344 74.1112 22.0221C75.399 23.3099 77.1455 24.0333 78.9667 24.0333C80.7878 24.0333 82.5344 23.3099 83.8221 22.0221C85.1099 20.7344 85.8333 18.9878 85.8333 17.1667V13.7333H94.4167C95.7813 13.7374 97.0888 14.2813 98.0538 15.2462C99.0187 16.2112 99.5626 17.5187 99.5667 18.8833V30.9Z" fill="#4E337A"/>
<path d="M48.0545 46.3435C48.0545 45.4329 47.6928 44.5596 47.0489 43.9158C46.405 43.2719 45.5317 42.9102 44.6212 42.9102H37.7545C36.8439 42.9102 35.9706 43.2719 35.3268 43.9158C34.6829 44.5596 34.3212 45.4329 34.3212 46.3435V51.4935C34.3212 52.4041 34.6829 53.2773 35.3268 53.9212C35.9706 54.5651 36.8439 54.9268 37.7545 54.9268H44.6212C45.5317 54.9268 46.405 54.5651 47.0489 53.9212C47.6928 53.2773 48.0545 52.4041 48.0545 51.4935V46.3435ZM37.7545 51.4935V46.3435H44.6212V51.4935H37.7545Z" fill="#4E337A"/>
<path d="M27.462 46.3435C27.462 45.4329 27.1003 44.5596 26.4564 43.9158C25.8125 43.2719 24.9392 42.9102 24.0286 42.9102H17.162C16.2514 42.9102 15.3781 43.2719 14.7342 43.9158C14.0904 44.5596 13.7286 45.4329 13.7286 46.3435V51.4935C13.7286 52.4041 14.0904 53.2773 14.7342 53.9212C15.3781 54.5651 16.2514 54.9268 17.162 54.9268H24.0286C24.9392 54.9268 25.8125 54.5651 26.4564 53.9212C27.1003 53.2773 27.462 52.4041 27.462 51.4935V46.3435ZM17.162 51.4935V46.3435H24.0286V51.4935H17.162Z" fill="#4E337A"/>
<path d="M85.8427 54.9268C86.7533 54.9268 87.6266 54.5651 88.2705 53.9212C88.9143 53.2773 89.2761 52.4041 89.2761 51.4935V46.3435C89.2761 45.4329 88.9143 44.5596 88.2705 43.9158C87.6266 43.2719 86.7533 42.9102 85.8427 42.9102H78.9761C78.0655 42.9102 77.1922 43.2719 76.5483 43.9158C75.9044 44.5596 75.5427 45.4329 75.5427 46.3435V51.4935C75.5427 52.4041 75.9044 53.2773 76.5483 53.9212C77.1922 54.5651 78.0655 54.9268 78.9761 54.9268H85.8427ZM78.9761 46.3435H85.8427V51.4935H78.9761V46.3435Z" fill="#4E337A"/>
<path d="M48.0545 61.7947C48.0545 60.8841 47.6928 60.0108 47.0489 59.3669C46.405 58.7231 45.5317 58.3613 44.6212 58.3613H37.7545C36.8439 58.3613 35.9706 58.7231 35.3268 59.3669C34.6829 60.0108 34.3212 60.8841 34.3212 61.7947V66.9447C34.3212 67.8552 34.6829 68.7285 35.3268 69.3724C35.9706 70.0163 36.8439 70.378 37.7545 70.378H44.6212C45.5317 70.378 46.405 70.0163 47.0489 69.3724C47.6928 68.7285 48.0545 67.8552 48.0545 66.9447V61.7947ZM37.7545 66.9447V61.7947H44.6212V66.9447H37.7545Z" fill="#4E337A"/>
<path d="M27.462 61.7947C27.462 60.8841 27.1003 60.0108 26.4564 59.3669C25.8125 58.7231 24.9392 58.3613 24.0286 58.3613H17.162C16.2514 58.3613 15.3781 58.7231 14.7342 59.3669C14.0904 60.0108 13.7286 60.8841 13.7286 61.7947V66.9447C13.7286 67.8552 14.0904 68.7285 14.7342 69.3724C15.3781 70.0163 16.2514 70.378 17.162 70.378H24.0286C24.9392 70.378 25.8125 70.0163 26.4564 69.3724C27.1003 68.7285 27.462 67.8552 27.462 66.9447V61.7947ZM17.162 66.9447V61.7947H24.0286V66.9447H17.162Z" fill="#4E337A"/>
<path d="M44.6212 73.8193H37.7545C36.8439 73.8193 35.9706 74.1811 35.3268 74.8249C34.6829 75.4688 34.3212 76.3421 34.3212 77.2527V82.4027C34.3212 83.3132 34.6829 84.1865 35.3268 84.8304C35.9706 85.4743 36.8439 85.836 37.7545 85.836H44.6212C45.5317 85.836 46.405 85.4743 47.0489 84.8304C47.6928 84.1865 48.0545 83.3132 48.0545 82.4027V77.2527C48.0545 76.3421 47.6928 75.4688 47.0489 74.8249C46.405 74.1811 45.5317 73.8193 44.6212 73.8193ZM37.7545 82.4027V77.2527H44.6212V82.4027H37.7545Z" fill="#4E337A"/>
<path d="M58.3835 54.9268H65.2502C66.1608 54.9268 67.0341 54.5651 67.6779 53.9212C68.3218 53.2773 68.6835 52.4041 68.6835 51.4935V46.3435C68.6835 45.4329 68.3218 44.5596 67.6779 43.9158C67.0341 43.2719 66.1608 42.9102 65.2502 42.9102H58.3835C57.473 42.9102 56.5997 43.2719 55.9558 43.9158C55.3119 44.5596 54.9502 45.4329 54.9502 46.3435V51.4935C54.9502 52.4041 55.3119 53.2773 55.9558 53.9212C56.5997 54.5651 57.473 54.9268 58.3835 54.9268ZM58.3835 46.3435H65.2502V51.4935H58.3835V46.3435Z" fill="#4E337A"/>
<path d="M54.9502 66.9447C54.9502 67.8552 55.3119 68.7285 55.9558 69.3724C56.5997 70.0163 57.473 70.378 58.3835 70.378C58.8388 70.378 59.2755 70.1971 59.5974 69.8752C59.9193 69.5533 60.1002 69.1166 60.1002 68.6613C60.1002 68.206 59.9193 67.7694 59.5974 67.4475C59.2755 67.1255 58.8388 66.9447 58.3835 66.9447V61.7947H65.2502C65.7055 61.7947 66.1421 61.6138 66.4641 61.2919C66.786 60.9699 66.9669 60.5333 66.9669 60.078C66.9669 59.6227 66.786 59.1861 66.4641 58.8641C66.1421 58.5422 65.7055 58.3613 65.2502 58.3613H58.3835C57.473 58.3613 56.5997 58.7231 55.9558 59.3669C55.3119 60.0108 54.9502 60.8841 54.9502 61.7947V66.9447Z" fill="#4E337A"/>
<path d="M24.0286 73.8193H17.162C16.2514 73.8193 15.3781 74.1811 14.7342 74.8249C14.0904 75.4688 13.7286 76.3421 13.7286 77.2527V82.4027C13.7286 83.3132 14.0904 84.1865 14.7342 84.8304C15.3781 85.4743 16.2514 85.836 17.162 85.836H24.0286C24.9392 85.836 25.8125 85.4743 26.4564 84.8304C27.1003 84.1865 27.462 83.3132 27.462 82.4027V77.2527C27.462 76.3421 27.1003 75.4688 26.4564 74.8249C25.8125 74.1811 24.9392 73.8193 24.0286 73.8193ZM17.162 82.4027V77.2527H24.0286V82.4027H17.162Z" fill="#4E337A"/>
<path d="M80.6806 58.3613C76.2668 58.3613 71.9521 59.6702 68.2821 62.1224C64.6121 64.5746 61.7518 68.0599 60.0627 72.1378C58.3736 76.2156 57.9316 80.7028 58.7927 85.0318C59.6538 89.3608 61.7793 93.3372 64.9003 96.4583C68.0214 99.5793 71.9978 101.705 76.3268 102.566C80.6558 103.427 85.143 102.985 89.2208 101.296C93.2986 99.6068 96.784 96.7464 99.2362 93.0765C101.688 89.4065 102.997 85.0918 102.997 80.678C102.99 74.7613 100.637 69.089 96.4533 64.9053C92.2696 60.7215 86.5972 58.3681 80.6806 58.3613ZM80.6806 99.5613C76.9458 99.5613 73.2949 98.4539 70.1896 96.3789C67.0842 94.304 64.6639 91.3548 63.2346 87.9043C61.8054 84.4539 61.4315 80.6571 62.1601 76.994C62.8887 73.331 64.6872 69.9663 67.328 67.3255C69.9689 64.6846 73.3336 62.8861 76.9966 62.1575C80.6596 61.4289 84.4564 61.8028 87.9069 63.2321C91.3574 64.6613 94.3066 67.0816 96.3815 70.187C98.4564 73.2923 99.5639 76.9432 99.5639 80.678C99.558 85.6844 97.5666 90.484 94.0266 94.024C90.4866 97.5641 85.6869 99.5554 80.6806 99.5613Z" fill="#4E337A"/>
<path d="M90.6064 73.4877L77.2542 86.84L71.1857 80.7698C70.862 80.4571 70.4283 80.2841 69.9782 80.288C69.5281 80.2919 69.0976 80.4725 68.7793 80.7908C68.461 81.109 68.2805 81.5396 68.2766 81.9897C68.2726 82.4398 68.4457 82.8735 68.7584 83.1972L76.0405 90.481C76.3624 90.8029 76.799 90.9837 77.2542 90.9837C77.7094 90.9837 78.1459 90.8029 78.4678 90.481L93.0338 75.9151C93.3465 75.5914 93.5195 75.1577 93.5156 74.7076C93.5117 74.2575 93.3311 73.8269 93.0129 73.5087C92.6946 73.1904 92.264 73.0098 91.8139 73.0059C91.3638 73.002 90.9302 73.175 90.6064 73.4877Z" fill="#4E337A"/>
</svg>
