<svg width="146" height="146" viewBox="0 0 146 146" fill="none" xmlns="http://www.w3.org/2000/svg">
<path d="M80.5 143C84.9 142.6 86.6667 138.167 87 136L91.5 115.5L104.5 94L116.5 109L118 127.5C118 133.167 119.6 144.2 126 143C132.4 141.8 132 134.167 131 130.5L128.5 102.5L118 81C120.8 78.2 122.167 62.8333 122.5 55.5L137.5 29C138.5 25.6667 140.9 17.5 142.5 11.5C144.1 5.5 139.833 3.33333 137.5 3C131.1 3 129.5 7.66667 129.5 10L126 25C124.5 27 120.8 32.2 118 37C115.2 41.8 110.5 44.3333 108.5 45C106.167 45.5 100.4 46.7 96 47.5C91.6 48.3 87.1667 51.1667 85.5 52.5C81.8333 55.5 73.6 63.5 70 71.5C66.4 79.5 65.5 88.1667 65.5 91.5C68.7 100.3 73.8333 95.1667 76 91.5L80.5 76.9999C84.5 71.8332 92.9 62.6999 94.5 67.4999C96.1 72.2999 92.1667 83.1665 90 87.9999L78 110.5C76.1667 116.667 72.5 130 72.5 134C72.5 139 75 143.5 80.5 143Z" stroke="black" stroke-width="5"/>
<circle cx="97" cy="28" r="10.5" stroke="black" stroke-width="5"/>
<path d="M27 95.4989L31.5 92.4989L44.5 109C42.5 116.167 38.5 131.2 38.5 134C38.5 137.5 41.5 143.5 45.5 142.499C48.7 141.698 50.5 138.499 51 137C52.3333 131.833 55.4 120.2 57 115C58.6 109.8 58 105.833 57.5 104.5L46 84C46.3333 81.6667 47.2 75.9 48 71.5C48.8 67.1 51.6667 58.6667 53 55L68 29L67 26.4993L60.5 9.49889C59.8333 7.49901 57.4 3.59927 53 3.99927C48.6 4.39927 48.5 9.16594 49 11.4993L56 26.4993L44 46.4993L25 47.4993L15 35.9993L16 13.9993C15.8333 12.8325 14.6 10.2989 11 9.49889C7.4 8.69889 4.83333 12.4989 4 14.4989C3.66667 19.1656 3 29.6989 3 34.4989C3 39.2989 4.33333 42.4989 5 43.4989L21.5 64.4989L19.5 67.4989C15.1 73.0989 13 83.8322 12.5 88.4989L16 133.499C16.5 136.499 18.7 142.499 23.5 142.499C28.3 142.499 29.5 136.499 29.5 133.499L27 95.4989Z" stroke="black" stroke-width="5"/>
<circle cx="33.5" cy="28.5" r="10.5" stroke="black" stroke-width="4"/>
</svg>
