<svg width="31" height="32" viewBox="0 0 31 32" fill="none" xmlns="http://www.w3.org/2000/svg">
<path d="M4.82484 13.4349C7.00037 7.89165 13.282 5.1549 18.8253 7.33043L18.8585 7.34348L16.6424 4.17692C16.4243 3.86659 16.5001 3.4359 16.8105 3.21783C17.1208 2.99976 17.5515 3.0756 17.7696 3.38594L20.9824 7.97969C21.0981 8.1457 21.1326 8.3511 21.0836 8.54567C21.0772 8.57604 21.0679 8.59979 21.0567 8.62829C20.9952 8.78504 20.8785 8.91467 20.7227 8.99054L15.5327 11.5856C15.1926 11.7537 14.7796 11.619 14.6068 11.2771C14.4387 10.937 14.5734 10.524 14.9153 10.3512L18.3694 8.63157L18.3219 8.61293C13.4817 6.7133 8.0051 9.10273 6.10734 13.9382C4.20957 18.7737 6.59714 24.255 11.4374 26.1547C16.2776 28.0543 21.7542 25.6649 23.652 20.8294C24.571 18.4876 24.524 15.9257 23.515 13.6221C23.3621 13.2715 23.5205 12.8678 23.8711 12.7148C24.2216 12.5619 24.6254 12.7203 24.7783 13.0709C25.9326 15.7166 25.9877 18.649 24.9345 21.3327C22.7608 26.8712 16.482 29.6146 10.9341 27.4372C5.38606 25.2598 2.64931 18.9781 4.82484 13.4349Z" fill="black"/>
</svg>
