<svg width="42" height="42" viewBox="0 0 42 42" fill="none" xmlns="http://www.w3.org/2000/svg">
<path d="M20.9991 0C9.40267 0 0 9.40267 0 20.9991C0 32.5956 9.40267 42 20.9991 42C32.5956 42 42 32.5956 42 20.9991C42 9.40267 32.5956 0 20.9991 0ZM25.3707 32.5458C24.2898 32.9724 23.4293 33.296 22.784 33.52C22.0601 33.7564 21.3018 33.87 20.5404 33.856C19.232 33.856 18.2133 33.536 17.488 32.8978C16.7627 32.2596 16.4018 31.4507 16.4018 30.4676C16.4018 30.0853 16.4284 29.6942 16.4818 29.296C16.5477 28.8424 16.6349 28.3921 16.7431 27.9467L18.096 23.168C18.2151 22.7093 18.3182 22.2738 18.4 21.8684C18.4818 21.4596 18.5209 21.0844 18.5209 20.7431C18.5209 20.1351 18.3947 19.7084 18.144 19.4684C17.8898 19.2284 17.4116 19.1111 16.6987 19.1111C16.3502 19.1111 15.9911 19.1627 15.6231 19.2711C15.2587 19.3831 14.9422 19.4844 14.6827 19.584L15.04 18.112C15.9253 17.7511 16.7733 17.4418 17.5822 17.1858C18.3219 16.9383 19.0956 16.8076 19.8756 16.7982C21.1751 16.7982 22.1778 17.1147 22.8836 17.7404C23.5858 18.368 23.9396 19.184 23.9396 20.1867C23.9396 20.3947 23.9147 20.7609 23.8667 21.2836C23.825 21.772 23.7344 22.255 23.5964 22.7253L22.2507 27.4898C22.13 27.9207 22.031 28.3574 21.9538 28.7982C21.8805 29.1651 21.8371 29.5373 21.824 29.9111C21.824 30.544 21.9644 30.976 22.2489 31.2053C22.5298 31.4347 23.0222 31.5502 23.7191 31.5502C24.048 31.5502 24.416 31.4916 24.832 31.3778C25.2444 31.264 25.5431 31.1627 25.7316 31.0756L25.3707 32.5458ZM25.1324 13.2071C24.5205 13.7842 23.7067 14.0982 22.8658 14.0818C21.984 14.0818 21.2231 13.7902 20.5902 13.2071C20.2892 12.9424 20.0488 12.6159 19.8853 12.2499C19.7218 11.8839 19.6391 11.487 19.6427 11.0862C19.6427 10.2596 19.9627 9.54844 20.5902 8.96C21.2035 8.37836 22.0207 8.06103 22.8658 8.07644C23.7493 8.07644 24.5067 8.36978 25.1324 8.96C25.76 9.54844 26.0747 10.2596 26.0747 11.0862C26.0747 11.9164 25.76 12.624 25.1324 13.2071Z" fill="#AAAAAA"/>
</svg>
