<svg width="111" height="91" viewBox="0 0 111 91" fill="none" xmlns="http://www.w3.org/2000/svg">
<path d="M92.6959 22.7758C88.3605 22.0726 83.9135 22.8127 80.0397 24.882C80.1249 23.4958 80.1082 22.1051 79.9913 20.7215C78.9391 8.84235 68.4699 0.055592 56.5881 1.08142C48.7348 1.77409 42.7408 7.30845 39.5903 13.2902C35.4422 7.9475 28.5656 3.52951 20.7237 4.23185C15.0153 4.72587 9.73854 7.46931 6.05453 11.8565C2.37053 16.2446 0.581704 21.917 1.08275 27.6237C3.34009 53.4398 42.3083 73.3718 43.9573 74.2069C44.5735 74.5154 45.311 74.446 45.8587 74.0267C45.8587 74.0267 46.089 73.8474 46.4889 73.5415C51.0353 79.4916 56.08 85.0444 61.5695 90.1393C62.0785 90.5955 62.8028 90.7238 63.4384 90.4706C65.1621 89.7815 105.719 73.3138 110.214 47.8044C112.252 36.0632 104.425 24.8811 92.6959 22.7758ZM4.66303 27.3107C4.24461 22.5543 5.73369 17.8269 8.80413 14.171C11.8746 10.5143 16.2723 8.22967 21.0296 7.81917C21.4744 7.77961 21.9166 7.76027 22.3543 7.76027C29.4059 7.76027 35.3956 12.7162 38.3333 17.8955C38.6726 18.5161 39.353 18.8712 40.0562 18.7956C40.7577 18.7341 41.3589 18.2699 41.5954 17.6071C43.7182 11.6482 49.2719 5.33503 56.8975 4.66346C66.7954 3.81959 75.5144 11.1322 76.4066 21.0257C76.5851 23.1371 76.4998 25.2617 76.1535 27.352C75.8485 27.5894 75.5645 27.8469 75.2727 28.0975C75.0925 28.2539 74.9018 28.4016 74.733 28.5633C74.1695 29.0732 73.6236 29.6024 73.1121 30.1553C70.4987 23.923 65.0109 17.8919 57.2412 16.5233C45.4991 14.476 34.3118 22.3091 32.2179 34.0432C32.0738 34.8607 31.9718 35.6817 31.9032 36.5062C31.8795 36.7875 31.8795 37.0697 31.8654 37.3527C31.8347 37.8925 31.8039 38.4322 31.8039 38.9869C31.8039 39.3235 31.8276 39.6602 31.8382 39.9969C31.854 40.49 31.8672 40.9814 31.9067 41.4754C31.9357 41.8349 31.9823 42.1953 32.0236 42.5548C32.0755 43.0251 32.1247 43.4928 32.2038 43.963C32.2592 44.334 32.3313 44.7049 32.3981 45.0759C32.4807 45.533 32.5634 45.9901 32.6645 46.4454C32.7453 46.8216 32.8447 47.1979 32.9326 47.5723C33.0442 48.0206 33.1558 48.4725 33.2798 48.912C33.3861 49.2917 33.5013 49.6679 33.6182 50.0459C33.7536 50.4854 33.8907 50.9205 34.0384 51.3565C34.1658 51.7345 34.2995 52.109 34.4357 52.4835C34.5939 52.9159 34.7548 53.3475 34.9236 53.7765C35.0686 54.1466 35.218 54.5175 35.3719 54.8867C35.5521 55.3113 35.7323 55.7332 35.9125 56.1472C36.076 56.5068 36.2377 56.876 36.4074 57.2381C36.6034 57.6574 36.8029 58.0714 37.0069 58.4855C37.1871 58.8459 37.3541 59.1931 37.5343 59.5421C37.7461 59.9578 37.9624 60.3666 38.1821 60.7753C38.3623 61.1155 38.5425 61.4539 38.7227 61.7906C38.953 62.2029 39.1868 62.6081 39.4207 63.0151C39.6009 63.3333 39.7811 63.6559 39.9771 63.9706C40.2241 64.3846 40.4755 64.7899 40.726 65.1951C40.9062 65.4904 41.0864 65.7893 41.2657 66.0794C41.5382 66.5075 41.8064 66.925 42.0868 67.339C42.2547 67.5931 42.4199 67.8506 42.586 68.0985C42.9025 68.5705 43.2207 69.0276 43.538 69.4847C43.6655 69.6649 43.7938 69.8574 43.9213 70.0376L43.9828 70.1299C36.6772 66.1312 6.51075 48.3538 4.67094 27.3107H4.66303ZM106.671 47.1908C102.89 68.5776 69.4957 83.9483 63.1412 86.6917C57.766 81.5749 52.8285 76.0168 48.3788 70.0772C48.3454 70.0183 48.3076 69.9612 48.2672 69.9067C41.3651 60.5986 33.5954 46.9315 35.7595 34.6735C37.4938 24.8908 46.823 18.3596 56.6092 20.0772C64.1468 21.4037 69.123 28.1783 70.7149 34.299C70.8925 34.9811 71.4516 35.4971 72.146 35.6184C72.8404 35.7397 73.5419 35.4453 73.941 34.8642C74.6038 33.9026 75.3483 32.9989 76.1658 32.1638C77.0009 31.3121 77.9036 30.5289 78.8662 29.8239C82.5976 26.8914 87.3725 25.6283 92.0657 26.3315C101.842 28.0843 108.367 37.4037 106.671 47.1908Z" fill="#171717" stroke="black" stroke-width="0.6"/>
</svg>
