<svg width="102" height="102" viewBox="0 0 102 102" fill="none" xmlns="http://www.w3.org/2000/svg">
<path d="M10.3638 22.9902H13.3443V20.0698H16.2647V17.0893H13.3443V14.1689H10.3638V17.0893H7.44348V20.0698H10.3638V22.9902Z" fill="black"/>
<path d="M54.6015 26.5607H57.5822V23.6405H60.5026V20.6598H57.5822V17.7393H54.6015V20.6598H51.6812V23.6405H54.6015V26.5607Z" fill="black"/>
<path d="M92.4947 15.24H95.4754V12.3198H98.3956V9.33909H95.4754V6.41895H92.4947V9.33909H89.5743V12.3198H92.4947V15.24Z" fill="black"/>
<path d="M30.2327 12.5536H33.2132V9.63348H36.1336V6.65297H33.2132V3.73242H30.2327V6.65297H27.3124V9.63348H30.2327V12.5536Z" fill="black"/>
<path d="M51.9408 45.0117L49.3245 46.4397C50.1508 47.9542 50.7728 49.5587 51.182 51.2279H40.8961V54.2087H54.7349L54.4697 52.4912C54.0637 49.8593 53.213 47.3432 51.9408 45.0117Z" fill="black"/>
<path d="M37.8524 51.2275H34.8004V54.2083H37.8524V51.2275Z" fill="black"/>
<path d="M15.7452 39.4526L17.8159 41.5964C19.489 39.9808 21.4076 38.6811 23.5188 37.7342L22.2989 35.0146C19.8721 36.1032 17.6671 37.5965 15.7452 39.4526Z" fill="black"/>
<path d="M97.324 56.1954H97.054V54.8971H92.6342V44.2588C94.1574 43.9949 95.5947 43.3309 96.7859 42.3234C98.756 40.6574 99.8857 38.2237 99.8857 35.6458V25.0709H82.4017V35.6458C82.4017 38.0135 83.333 40.2302 85.0236 41.8883C86.3072 43.147 87.9145 43.9614 89.6535 44.2592V54.8971H85.2338V56.1954H80.0995V50.6812V29.0959V28.2187H80.0539C79.7686 25.1613 78.0121 22.4274 75.3501 20.902V7.46413V4.48342V0H65.9624V7.46413H65.9632V20.902C63.3012 22.4272 61.5447 25.1611 61.2592 28.2187H61.2136V29.0959V50.6814V56.1954H59.7081V56.0227C59.7081 50.69 58.2022 45.504 55.3538 41.0247C50.4506 33.3146 42.2545 28.5534 33.2136 28.0799V25.5528H30.2329V28.0779C22.3343 28.4931 15.0241 32.1965 9.99524 38.3849C5.96066 43.3494 3.73858 49.6132 3.73858 56.0225V56.1952H0.130127V67.973H4.6761V101.998L27.6259 99.0207L49.7314 101.803L74.5662 99.0195L97.3242 102V67.973H101.87V56.1954H97.324ZM87.1108 39.7599C85.9964 38.6672 85.3826 37.2061 85.3826 35.6458V28.0514H96.9052V35.6458C96.9052 37.3447 96.1603 38.9491 94.8614 40.0474C93.8247 40.9241 92.5045 41.407 91.144 41.407C89.6264 41.407 88.1942 40.8221 87.1108 39.7599ZM68.9427 2.98071H72.3692V4.48362H68.9427V2.98071ZM68.0542 23.1803L68.9437 22.7882V7.46433H72.3694V22.7884L73.2589 23.1805C75.3324 24.0943 76.755 26.0164 77.057 28.2189H64.2561C64.5579 26.016 65.9807 24.0943 68.0542 23.1803ZM64.1939 31.1994H77.1188V47.7007H64.1939V31.1994ZM64.1939 50.6814H77.1188V54.8971H64.1939V50.6814ZM4.6761 64.9925H3.11084V64.9923V59.1761H3.73818H4.6761V64.9925ZM6.71869 56.0227C6.71869 50.2962 8.7037 44.6999 12.3076 40.2651C17.0832 34.3887 24.1597 31.0188 31.7228 31.0188C40.3231 31.0188 48.2166 35.3571 52.838 42.6242C55.3821 46.6248 56.7268 51.2576 56.7268 56.0227V56.1954H6.71869V56.0227ZM94.3435 98.6037L75.8721 96.1846V82.1054H72.8914V96.2079L51.2317 98.6352V74.2683H48.251V98.6123L29.1133 96.2039V89.1922H26.1326V96.2089L7.65661 98.6055V59.1761H59.7075H94.3433V98.6037H94.3435ZM98.8892 64.9923H97.324V59.1761H98.8892V64.9923Z" fill="black"/>
<path d="M51.2317 68.4219H48.251V71.0151H51.2317V68.4219Z" fill="black"/>
<path d="M29.1133 66.0371H26.1326V86.1068H29.1133V66.0371Z" fill="black"/>
<path d="M75.8719 66.0371H72.8912V78.2697H75.8719V66.0371Z" fill="black"/>
</svg>
