<svg width="23" height="25" viewBox="0 0 23 25" fill="none" xmlns="http://www.w3.org/2000/svg">
<path d="M17.9607 11.1766H4.90935C3.11665 11.1766 1.65826 9.71744 1.65826 7.92397C1.65826 6.13183 3.11665 4.67389 4.90935 4.67389H13.0668C13.5248 4.67389 13.8959 4.30266 13.8959 3.84476C13.8959 3.38685 13.5248 3.01562 13.0668 3.01562H4.90935C2.2024 3.01562 0 5.21747 0 7.92397C0 10.6318 2.2024 12.8349 4.90935 12.8349H17.9607C19.7533 12.8349 21.2117 14.294 21.2117 16.0876C21.2117 17.8797 19.7533 19.3377 17.9607 19.3377H9.73279C9.27489 19.3377 8.90366 19.7089 8.90366 20.1668C8.90366 20.6247 9.27489 20.996 9.73279 20.996H17.9607C20.6676 20.996 22.87 18.7941 22.87 16.0876C22.87 13.3797 20.6676 11.1766 17.9607 11.1766Z" fill="black"/>
<path d="M4.7926 14.3691C2.86825 14.3691 1.30273 15.9348 1.30273 17.859C1.30273 20.829 4.08773 23.6482 4.20635 23.7667C4.3619 23.9223 4.57272 24.0096 4.79272 24.0096C5.0126 24.0096 5.22353 23.9223 5.37908 23.7667C5.49759 23.6481 8.28248 20.829 8.28248 17.859C8.28225 15.9348 6.71685 14.3691 4.7926 14.3691ZM4.7926 21.926C4.07657 21.0421 2.961 19.415 2.961 17.859C2.961 16.849 3.78272 16.0274 4.7926 16.0274C5.80249 16.0274 6.62399 16.8491 6.62399 17.859C6.62399 19.415 5.50842 21.0421 4.7926 21.926Z" fill="black"/>
<path d="M18.0094 9.64026C18.2215 9.64026 18.4337 9.55934 18.5955 9.3976C18.7142 9.27909 21.5006 6.45993 21.5006 3.48976C21.5006 1.56551 19.9344 0 18.0094 0C16.085 0 14.5195 1.56551 14.5195 3.48965C14.5195 6.45971 17.3045 9.27887 17.4233 9.39738C17.585 9.55934 17.7971 9.64026 18.0094 9.64026ZM18.0094 1.65826C19.0202 1.65826 19.8423 2.47988 19.8423 3.48965C19.8423 5.04576 18.7258 6.67307 18.0095 7.55682C17.2936 6.67307 16.1778 5.04588 16.1778 3.48965C16.1777 2.47988 16.9994 1.65826 18.0094 1.65826Z" fill="black"/>
</svg>
