<svg width="102" height="102" viewBox="0 0 102 102" fill="none" xmlns="http://www.w3.org/2000/svg">
<path d="M90.9145 66.6188C90.8159 66.4538 90.7121 66.2959 90.6085 66.1564C89.5784 64.7165 88.0466 63.7646 86.299 63.4771C84.5598 63.1898 82.7969 63.5994 81.3622 64.6298L62.3561 78.201H42.5001C41.5634 78.201 40.8002 77.4394 40.8002 76.5011C40.8002 75.5627 41.5634 74.8011 42.5001 74.8011H53.5502C56.8311 74.8011 59.5003 72.1322 59.5003 68.851C59.5003 68.8323 59.4985 68.6759 59.4969 68.659C59.3915 65.3797 56.6255 62.8229 53.4143 62.9012H31.299C29.3389 62.9181 27.4298 63.6203 25.9253 64.8748L17.6122 71.7939C17.2246 72.1186 17.0002 72.5964 17.0002 73.1012V93.5012C17.0002 94.4413 17.7619 95.2012 18.7002 95.2012H60.8791C63.6398 95.1978 66.3293 94.2254 68.4544 92.4659L89.0636 75.437C91.8632 73.4425 92.6758 69.57 90.9145 66.6188ZM86.9961 72.7422L66.2883 89.846C64.7684 91.104 62.8457 91.7975 60.8771 91.8009H20.4001V73.8981L28.1027 67.4856C29.0072 66.7326 30.1513 66.3108 31.3141 66.3006L53.4685 66.299C54.8778 66.2973 56.0542 67.3633 56.1002 68.8508C56.1002 70.2567 54.9561 71.4009 53.5502 71.4009H42.5001C39.6883 71.4009 37.4001 73.6891 37.4001 76.5009C37.4001 79.3126 39.6883 81.6009 42.5001 81.6009H62.9001C63.2537 81.6009 63.5988 81.4903 63.8913 81.2847L83.3426 67.394C84.0431 66.8907 84.8947 66.6953 85.7482 66.8312C86.5998 66.9722 87.3445 67.4346 87.8561 68.1486C87.9071 68.2183 87.9529 68.2896 87.9972 68.3628C88.8576 69.8029 88.458 71.6949 86.9961 72.7422Z" fill="black"/>
<path d="M18.6491 69.7002H0V73.1003H16.949V98.6003H0V102H18.6491C19.5874 102 20.349 101.24 20.349 100.3V71.4001C20.349 70.46 19.5874 69.7002 18.6491 69.7002Z" fill="black"/>
<path d="M8.50003 85C5.68826 85 3.40002 87.2882 3.40002 90.1C3.40002 92.9118 5.68826 95.2 8.50003 95.2C11.3118 95.2 13.6 92.9118 13.6 90.1C13.6 87.2882 11.3118 85 8.50003 85ZM8.50003 91.7999C7.56331 91.7999 6.8001 91.0383 6.8001 90.1C6.8001 89.1617 7.56331 88.4001 8.50003 88.4001C9.43676 88.4001 10.2 89.1617 10.2 90.1C10.2 91.0383 9.43676 91.7999 8.50003 91.7999Z" fill="black"/>
<path d="M100.3 52.7002H1.69994C0.761615 52.7002 0 53.46 0 54.4001C0 60.9604 5.33808 66.3001 11.9 66.3001H90.1C96.6603 66.3001 102 60.9604 102 54.4001C102 53.4602 101.24 52.7002 100.3 52.7002ZM90.1002 62.9002H11.9C7.79445 62.9002 4.36051 59.9745 3.5716 56.1003H98.4284C97.6397 59.9745 94.2057 62.9002 90.1002 62.9002Z" fill="black"/>
<path d="M51.0001 8.5C26.6288 8.5 6.79993 28.3289 6.79993 52.7002V54.4001C6.79993 55.3402 7.56154 56.1 8.49986 56.1H93.5001C94.4402 56.1 95.2 55.3402 95.2 54.4001V52.7002C95.2002 28.3287 75.3729 8.5 51.0001 8.5ZM10.2 52.7C10.2 30.2037 28.5039 11.8999 51.0001 11.8999C73.4963 11.8999 91.8002 30.2037 91.8002 52.7H10.2Z" fill="black"/>
<path d="M23.0386 27.8926C21.8502 29.2287 20.7487 30.6585 19.7644 32.1443L22.5983 34.0227C23.496 32.6695 24.4988 31.3656 25.58 30.1501L23.0386 27.8926Z" fill="black"/>
<path d="M51.0001 15.2998C41.4529 15.305 32.3629 18.9122 25.4066 25.4522L27.7357 27.9291C34.0597 21.9824 42.3233 18.7049 51.0019 18.6999L51.0001 15.2998Z" fill="black"/>
<path d="M56.1002 0H45.9001V3.40007H56.1002V0Z" fill="black"/>
<path d="M52.7002 1.7002H49.3002V10.2003H52.7002V1.7002Z" fill="black"/>
</svg>
