<svg width="43" height="43" viewBox="0 0 43 43" fill="none" xmlns="http://www.w3.org/2000/svg">
<g clip-path="url(#clip0_787_14212)">
<path d="M21.3 42.6C33.0445 42.6 42.6 33.0445 42.6 21.3C42.6 9.55547 33.0445 0 21.3 0C9.55547 0 0 9.55547 0 21.3C0 33.0445 9.55547 42.6 21.3 42.6ZM21.3 2.12826C31.8718 2.12826 40.4717 10.7282 40.4717 21.3C40.4717 31.8718 31.8718 40.4717 21.3 40.4717C10.7282 40.4717 2.12826 31.8718 2.12826 21.3C2.12826 10.7282 10.7282 2.12826 21.3 2.12826Z" fill="black"/>
<path d="M12.0489 22.3674H27.9805L23.8109 26.537C23.3939 26.954 23.3939 27.6229 23.8109 28.0398C24.0193 28.2483 24.2886 28.3526 24.5666 28.3526C24.8446 28.3526 25.1139 28.2483 25.3224 28.0398L31.3075 22.0546C31.7245 21.6377 31.7245 20.9688 31.3075 20.5518L25.3224 14.5666C24.9054 14.1497 24.2365 14.1497 23.8195 14.5666C23.4026 14.9836 23.4026 15.6525 23.8195 16.0694L27.9892 20.2391H12.0489C11.4582 20.2391 10.9805 20.7169 10.9805 21.3076C10.9805 21.8983 11.4582 22.3674 12.0489 22.3674Z" fill="black"/>
</g>
<defs>
<clipPath id="clip0_787_14212">
<rect width="42.6" height="42.6" fill="white"/>
</clipPath>
</defs>
</svg>
