<svg width="43" height="43" viewBox="0 0 43 43" fill="none" xmlns="http://www.w3.org/2000/svg">
<g clip-path="url(#clip0_215_1490)">
<path d="M21.2996 42.6C9.55507 42.6 -0.000396729 33.0445 -0.000396729 21.3C-0.000396729 9.55547 9.55507 0 21.2996 0C33.0441 0 42.5996 9.55547 42.5996 21.3C42.5996 33.0445 33.0441 42.6 21.2996 42.6ZM21.2996 2.12826C10.7278 2.12826 2.12786 10.7282 2.12786 21.3C2.12786 31.8718 10.7278 40.4717 21.2996 40.4717C31.8714 40.4717 40.4713 31.8718 40.4713 21.3C40.4713 10.7282 31.8714 2.12826 21.2996 2.12826Z" fill="black"/>
<path d="M30.5507 22.3674H14.6191L18.7888 26.537C19.2057 26.954 19.2057 27.6229 18.7888 28.0398C18.5803 28.2483 18.311 28.3526 18.033 28.3526C17.755 28.3526 17.4857 28.2483 17.2773 28.0398L11.2921 22.0546C10.8751 21.6377 10.8751 20.9688 11.2921 20.5518L17.2773 14.5666C17.6942 14.1497 18.3631 14.1497 18.7801 14.5666C19.197 14.9836 19.197 15.6525 18.7801 16.0694L14.6104 20.2391H30.5507C31.1414 20.2391 31.6191 20.7169 31.6191 21.3076C31.6191 21.8983 31.1414 22.3674 30.5507 22.3674Z" fill="black"/>
</g>
<defs>
<clipPath id="clip0_215_1490">
<rect width="42.6" height="42.6" fill="white" transform="matrix(-1 0 0 1 42.5996 0)"/>
</clipPath>
</defs>
</svg>
