<svg width="62" height="62" viewBox="0 0 62 62" fill="none" xmlns="http://www.w3.org/2000/svg">
<circle cx="30.5" cy="30.5" r="12.5" fill="#FFEF08"/>
<path d="M50.5 8.5L42 17L44.5 19.5L53 11L50.5 8.5Z" fill="#FFEF08"/>
<path d="M17.5 42L9 50.5L11.5 53L20 44.5L17.5 42Z" fill="#FFEF08"/>
<path d="M29.0104 1.76791V13.7887H32.5459V1.76791H29.0104Z" fill="#FFEF08"/>
<path d="M29.0104 47.7679V59.7887H32.5459V47.7679H29.0104Z" fill="#FFEF08"/>
<path d="M9.27499 10.4986L17.4956 19.2691L20.0751 16.8513L11.8546 8.08078L9.27499 10.4986Z" fill="#FFEF08"/>
<path d="M42.275 43.4986L50.4956 52.2691L53.0751 49.8513L44.8546 41.0808L42.275 43.4986Z" fill="#FFEF08"/>
<path d="M1.74238 32.4593L13.762 32.6304L13.8123 29.0953L1.7927 28.9242L1.74238 32.4593Z" fill="#FFEF08"/>
<path d="M47.7424 32.4593L59.762 32.6304L59.8123 29.0953L47.7927 28.9242L47.7424 32.4593Z" fill="#FFEF08"/>
</svg>
