<svg width="35" height="34" viewBox="0 0 35 34" fill="none" xmlns="http://www.w3.org/2000/svg">
<path d="M31.1014 2.01606C30.8559 1.77079 30.4581 1.77058 30.2125 2.01606L23.6959 8.53249C23.4503 8.77797 23.4503 9.17582 23.6958 9.42136C23.8186 9.54407 23.9794 9.60539 24.1403 9.60539C24.3011 9.60539 24.462 9.54407 24.5848 9.42136L31.1014 2.90494C31.3468 2.65939 31.3468 2.26147 31.1014 2.01606Z" fill="#4E337A"/>
<path d="M32.8708 3.76018C32.6252 3.51484 32.2274 3.51484 31.9819 3.76018L25.4653 10.2767C25.2199 10.5223 25.2199 10.9201 25.4652 11.1656C25.588 11.2883 25.7489 11.3496 25.9097 11.3496C26.0705 11.3496 26.2314 11.2883 26.3542 11.1656L32.8708 4.64899C33.1162 4.40351 33.1162 4.00559 32.8708 3.76018Z" fill="#4E337A"/>
<path d="M26.7258 14.764L34.8153 6.67447C35.0607 6.42892 35.0607 6.03107 34.8153 5.78559C34.5697 5.54032 34.1719 5.54012 33.9264 5.78559L25.837 13.8751C24.8404 14.8716 23.3165 15.1331 22.0451 14.526C21.7922 14.4052 21.4902 14.4663 21.3042 14.6759L18.5555 17.7727C18.5544 17.7739 18.5532 17.7749 18.5521 17.7762C18.551 17.7774 18.5502 17.7787 18.5491 17.7799L6.66899 31.1645C6.66598 31.1679 6.66298 31.1714 6.66004 31.1749C6.62087 31.2209 6.58389 31.2613 6.54642 31.2988C5.762 32.0832 4.48573 32.0831 3.70165 31.2988C3.32171 30.9189 3.11246 30.4137 3.11246 29.8764C3.11246 29.3391 3.32171 28.8339 3.70233 28.4533C3.73884 28.4166 3.77917 28.3797 3.82559 28.3402C3.82914 28.3373 3.83256 28.3343 3.83598 28.3313L11.2631 21.7391C11.5227 21.5087 11.5463 21.1114 11.3159 20.8519C11.0855 20.5922 10.6882 20.5684 10.4287 20.799L3.0065 27.3868C2.93555 27.4473 2.87204 27.5059 2.81284 27.5652C2.19549 28.1825 1.85547 29.0033 1.85547 29.8764C1.85547 30.7494 2.19542 31.5703 2.81277 32.1876C3.45009 32.8248 4.28701 33.1434 5.12414 33.1433C5.96093 33.1433 6.79806 32.8249 7.43489 32.188C7.49525 32.1277 7.5537 32.0642 7.61372 31.9939L16.6667 21.7943L25.7198 31.994C25.7797 32.0644 25.8382 32.1279 25.8981 32.1878C26.5353 32.8249 27.3723 33.1435 28.2093 33.1435C29.0464 33.1435 29.8834 32.8249 30.5207 32.1877C31.7949 30.9133 31.7949 28.8398 30.521 27.5657C30.4608 27.5053 30.3972 27.4469 30.327 27.3869L19.9097 18.1407L21.9478 15.8443C23.5991 16.4294 25.4677 16.0219 26.7258 14.764ZM29.4974 28.3313C29.5008 28.3343 29.5043 28.3373 29.5078 28.3403C29.5538 28.3795 29.5942 28.4164 29.6317 28.4539C30.416 29.2383 30.416 30.5145 29.6318 31.2987C28.8474 32.083 27.5712 32.083 26.7865 31.2983C26.7494 31.2612 26.7123 31.2207 26.6731 31.1747C26.6702 31.1713 26.6672 31.1678 26.6642 31.1643L17.507 20.8474L19.0751 19.0807L29.4974 28.3313Z" fill="#4E337A"/>
<path d="M29.2153 0.184006C28.9698 -0.0613354 28.5719 -0.0613354 28.3265 0.184006L20.2371 8.27358C18.9789 9.53167 18.5715 11.4 19.1565 13.0517L16.6672 15.2612L14.2748 13.1377C15.512 10.7033 15.0604 7.74749 13.0975 5.78455C11.148 3.83508 8.88999 2.46318 6.73934 1.9217C4.49421 1.35657 2.56935 1.73385 1.31878 2.98435C0.0682154 4.23484 -0.309128 6.15998 0.256135 8.40497C0.797678 10.5555 2.16951 12.8135 4.11912 14.7629C6.08199 16.7259 9.03771 17.1776 11.4723 15.9403C11.4723 15.9403 13.8119 18.5761 13.8415 18.6096C13.9657 18.7495 14.1383 18.8208 14.3118 18.8208C14.4603 18.8208 14.6091 18.7686 14.7288 18.6624L20.3251 13.6951C20.5347 13.5091 20.5957 13.2069 20.4751 12.9541C19.8678 11.6826 20.1293 10.1589 21.1259 9.16239L29.2153 1.07288C29.4608 0.827336 29.4608 0.429485 29.2153 0.184006ZM14.3644 17.3052L12.0766 14.7277C11.8739 14.4994 11.5364 14.4495 11.2766 14.61C9.26152 15.8525 6.68369 15.5502 5.00779 13.8742C3.21651 12.083 1.96191 10.0317 1.47498 8.09804C1.0221 6.29902 1.28228 4.79854 2.20766 3.87322C3.1329 2.94778 4.63339 2.68774 6.43233 3.14068C8.36602 3.62754 10.4174 4.88207 12.2086 6.67336C13.8845 8.34919 14.1869 10.927 12.9442 12.9421C12.784 13.202 12.8337 13.5394 13.062 13.7421L15.7203 16.1016L14.3644 17.3052Z" fill="#4E337A"/>
</svg>
