<svg width="102" height="74" viewBox="0 0 102 74" fill="none" xmlns="http://www.w3.org/2000/svg">
<path d="M40.4484 35.1704C39.982 35.1704 39.5346 34.9851 39.2048 34.6553C38.875 34.3255 38.6898 33.8782 38.6898 33.4118C38.7786 29.1024 39.9081 24.8784 41.982 21.0998C42.197 20.6857 42.5677 20.3741 43.0125 20.2333C43.4573 20.0926 43.9398 20.1343 44.3538 20.3493C44.7678 20.5643 45.0795 20.9349 45.2202 21.3797C45.361 21.8245 45.3193 22.307 45.1043 22.721C43.2919 25.9994 42.298 29.6669 42.207 33.4118C42.207 33.8782 42.0217 34.3255 41.6919 34.6553C41.3621 34.9851 40.9148 35.1704 40.4484 35.1704Z" fill="black"/>
<path d="M24.6227 42.6698C24.3029 42.6703 23.989 42.5835 23.7148 42.4189C23.4407 42.2543 23.2166 42.0181 23.0667 41.7356C21.1976 38.1153 19.8284 34.258 18.9965 30.2695C18.9408 30.0417 18.9311 29.805 18.9682 29.5734C19.0053 29.3418 19.0883 29.1199 19.2124 28.9209C19.3365 28.7218 19.4992 28.5497 19.6909 28.4144C19.8825 28.2792 20.0993 28.1837 20.3284 28.1335C20.5576 28.0833 20.7944 28.0795 21.025 28.1222C21.2557 28.1649 21.4754 28.2534 21.6714 28.3823C21.8673 28.5112 22.0355 28.678 22.166 28.873C22.2965 29.0679 22.3867 29.2869 22.4313 29.5172C23.1958 33.1933 24.4552 36.7487 26.1752 40.0864C26.3173 40.3543 26.3878 40.6544 26.3797 40.9576C26.3716 41.2608 26.2852 41.5567 26.129 41.8167C25.9727 42.0766 25.7519 42.2917 25.488 42.4411C25.224 42.5905 24.926 42.6691 24.6227 42.6693V42.6698Z" fill="black"/>
<path d="M19.3451 24.6188C20.3163 24.6188 21.1037 23.8314 21.1037 22.8602C21.1037 21.8889 20.3163 21.1016 19.3451 21.1016C18.3738 21.1016 17.5865 21.8889 17.5865 22.8602C17.5865 23.8314 18.3738 24.6188 19.3451 24.6188Z" fill="black"/>
<path d="M47.4828 17.5846C48.454 17.5846 49.2414 16.7972 49.2414 15.826C49.2414 14.8547 48.454 14.0674 47.4828 14.0674C46.5115 14.0674 45.7242 14.8547 45.7242 15.826C45.7242 16.7972 46.5115 17.5846 47.4828 17.5846Z" fill="black"/>
<path d="M101.625 53.4315C97.5131 48.4508 92.6289 44.1617 87.1585 40.7277C90.2219 32.7603 91.6672 24.2624 91.4101 15.7303C91.387 15.2981 91.2051 14.8897 90.8992 14.5835C90.5933 14.2773 90.185 14.0949 89.7528 14.0714C81.7525 13.851 73.7808 15.1176 66.2427 17.8067C62.6642 11.1651 57.8676 5.25634 52.1035 0.388945C51.7905 0.137228 51.4009 0 50.9993 0C50.5976 0 50.2081 0.137228 49.8951 0.388945C44.1309 5.25634 39.3344 11.1651 35.7559 17.8067C28.2184 15.1173 20.2471 13.8505 12.2472 14.0707C11.815 14.0942 11.4067 14.2766 11.1008 14.5828C10.7949 14.889 10.613 15.2974 10.5899 15.7296C10.3327 24.262 11.7782 32.7601 14.8418 40.7277C9.37126 44.1619 4.4869 48.4512 0.374831 53.4324C0.132002 53.7414 0 54.123 0 54.516C0 54.909 0.132002 55.2907 0.374831 55.5997C0.958689 56.3441 14.8747 73.8598 32.5346 73.8598C39.663 73.8598 46.0543 70.4144 51 67.1695C55.9457 70.4144 62.337 73.8598 69.4654 73.8598C87.1253 73.8598 101.041 56.3441 101.625 55.5988C101.868 55.2898 102 54.9082 102 54.5151C102 54.1221 101.868 53.7405 101.625 53.4315ZM87.9239 17.5559C87.8998 22.9812 86.9484 40.6549 76.1358 51.497C70.6855 56.6382 64.0017 60.2872 56.7297 62.0916C62.1409 56.4359 70.3447 45.8181 70.3447 33.4119C70.2958 29.1418 69.4043 24.9233 67.7214 20.9986C74.2204 18.748 81.0462 17.5846 87.9239 17.5552V17.5559ZM51 4.08747C54.7611 7.48615 66.8275 19.4821 66.8275 33.4119C66.8275 47.3416 54.7611 59.3376 51 62.7363C47.2389 59.3376 35.1725 47.3416 35.1725 33.4119C35.1725 19.4821 47.2389 7.48615 51 4.08747ZM34.2786 20.9986C32.5957 24.9233 31.7042 29.1418 31.6553 33.4119C31.6553 45.8181 39.8592 56.4357 45.2705 62.0905C37.9992 60.2866 31.3159 56.6382 25.866 51.4977C15.0516 40.6557 14.1009 22.9805 14.0761 17.5552C20.9538 17.5846 27.7796 18.748 34.2786 20.9986ZM4.05858 54.5134C7.63421 50.4513 11.7557 46.9046 16.3053 43.9744C18.1069 47.6705 20.4953 51.0504 23.3776 53.9828C29.7525 60.021 37.6771 64.1727 46.2704 65.9765C42.1531 68.6095 37.4165 70.1151 32.5346 70.3426C18.9934 70.3426 7.33381 58.2471 4.05858 54.5134ZM69.4654 70.3426C64.5835 70.1152 59.8469 68.6097 55.7296 65.9769C64.3237 64.1726 72.2489 60.0201 78.6242 53.9811C81.5059 51.0492 83.8937 47.6699 85.695 43.9746C90.2434 46.9069 94.3646 50.454 97.9414 54.5151C94.6715 58.2504 83.0327 70.3426 69.4654 70.3426Z" fill="black"/>
</svg>
