<svg width="14" height="15" viewBox="0 0 14 15" fill="none" xmlns="http://www.w3.org/2000/svg">
<path d="M13.9235 14.075L9.84453 9.833C10.8849 8.78958 11.5295 7.35114 11.5295 5.76474C11.5295 2.5859 8.94358 0 5.76474 0C2.5859 0 0 2.5859 0 5.76474C0 8.94358 2.5859 11.5295 5.76474 11.5295C7.16008 11.5295 8.44068 11.0307 9.4388 10.203L13.5276 14.4555C13.5815 14.5118 13.6534 14.5398 13.7256 14.5398C13.7942 14.5398 13.8626 14.5142 13.9158 14.4632C14.0251 14.358 14.0284 14.1843 13.9235 14.075ZM5.76474 10.9805C2.88868 10.9805 0.549023 8.6408 0.549023 5.76474C0.549023 2.88868 2.88868 0.549023 5.76474 0.549023C8.6408 0.549023 10.9805 2.88868 10.9805 5.76474C10.9805 8.6408 8.64052 10.9805 5.76474 10.9805Z" fill="black"/>
</svg>
