<svg width="88" height="16" viewBox="0 0 88 16" fill="none" xmlns="http://www.w3.org/2000/svg">
<path d="M8.00007 0L6.12825 6.11418H0L4.94706 9.88582L3.05295 16L8.00001 12.2052L12.9471 16L11.0307 9.88582L16 6.11418H9.87175L8.00007 0Z" fill="black"/>
<path d="M44.0001 0L42.1282 6.11418H36L40.9471 9.88582L39.053 16L44 12.2052L48.9471 16L47.0307 9.88582L52 6.11418H45.8718L44.0001 0Z" fill="black"/>
<path d="M26.0001 0L24.1282 6.11418H18L22.9471 9.88582L21.053 16L26 12.2052L30.9471 16L29.0307 9.88582L34 6.11418H27.8718L26.0001 0Z" fill="black"/>
<path d="M62.0001 0L60.1282 6.11418H54L58.9471 9.88582L57.053 16L62 12.2052L66.9471 16L65.0307 9.88582L70 6.11418H63.8718L62.0001 0Z" fill="black"/>
<path d="M80.0001 0L78.1282 6.11418H72L76.9471 9.88582L75.053 16L80 12.2052L84.9471 16L83.0307 9.88582L88 6.11418H81.8718L80.0001 0Z" fill="black"/>
</svg>
