<svg width="121" height="82" viewBox="0 0 121 82" fill="none" xmlns="http://www.w3.org/2000/svg">
<path d="M118.019 19.0212C116.637 19.0212 115.517 20.1413 115.517 21.5226V32.6829C115.465 32.6804 115.414 32.6752 115.362 32.6752H5.09542C5.06416 32.6752 5.03364 32.6792 5.00263 32.6802V2.50131C5.00263 1.12009 3.88279 0 2.50131 0C1.11984 0 0 1.12009 0 2.50131V79.4665C0 80.8477 1.11984 81.9678 2.50131 81.9678C3.88279 81.9678 5.00263 80.8477 5.00263 79.4665V61.3682C5.03364 61.3692 5.06416 61.3732 5.09542 61.3732H115.362C115.414 61.3732 115.465 61.368 115.517 61.3655V79.4665C115.517 80.8477 116.637 81.9678 118.019 81.9678C119.4 81.9678 120.52 80.8477 120.52 79.4665V21.5226C120.52 20.1411 119.4 19.0212 118.019 19.0212ZM111.234 53.9098H9.22334C7.84187 53.9098 6.72203 52.7897 6.72203 51.4085C6.72203 50.0273 7.84187 48.9072 9.22334 48.9072H111.234C112.615 48.9072 113.735 50.0273 113.735 51.4085C113.735 52.7897 112.615 53.9098 111.234 53.9098Z" fill="#4E337A"/>
<path d="M41.3179 25.9763C41.3179 22.1083 38.1822 18.9727 34.3142 18.9727H14.804C10.9359 18.9727 7.80029 22.1083 7.80029 25.9763V29.7283H41.3179V25.9763Z" fill="#4E337A"/>
</svg>
