<svg width="11" height="11" viewBox="0 0 11 11" fill="none" xmlns="http://www.w3.org/2000/svg">
<path d="M10.8831 4.57679L8.47269 7.0426L9.04192 10.5253C9.06669 10.6776 9.00709 10.8315 8.88791 10.9224C8.82058 10.974 8.74047 11 8.66037 11C8.59884 11 8.53693 10.9846 8.48043 10.9533L5.5 9.30902L2.51996 10.9529C2.38994 11.0252 2.23167 11.0134 2.11248 10.922C1.99329 10.8311 1.9337 10.6772 1.95847 10.5249L2.5277 7.0422L0.116883 4.57679C0.0116274 4.46877 -0.0266824 4.30715 0.0189798 4.16055C0.0646421 4.01395 0.185763 3.90633 0.33165 3.884L3.66306 3.37638L5.15289 0.208022C5.2833 -0.0693408 5.7167 -0.0693408 5.84711 0.208022L7.33694 3.37638L10.6684 3.884C10.8142 3.90633 10.9354 4.01354 10.981 4.16055C11.0267 4.30755 10.9884 4.46837 10.8831 4.57679Z" fill="black"/>
</svg>
