<svg width="14" height="13" viewBox="0 0 14 13" fill="none" xmlns="http://www.w3.org/2000/svg">
<path d="M13.3298 9.53162H13.0313C13.1719 9.34481 13.2553 9.11269 13.2553 8.8614C13.2553 8.32174 12.8706 7.87027 12.3611 7.76669C12.3333 6.59991 11.3754 5.65928 10.2021 5.65928C10.143 5.65928 10.0833 5.66185 10.0234 5.66688C9.89595 5.27253 9.65475 4.91829 9.3307 4.65426C8.94734 4.34194 8.46341 4.16992 7.96808 4.16992C7.47275 4.16992 6.98882 4.34191 6.60546 4.65426C6.28141 4.91829 6.04021 5.27253 5.91276 5.66688C5.85285 5.66185 5.79316 5.65928 5.73404 5.65928C5.10562 5.65928 4.50939 5.93283 4.09823 6.4097C4.01767 6.50316 4.02812 6.64423 4.12155 6.72479C4.21496 6.80523 4.356 6.79492 4.43663 6.70146C4.76284 6.32308 5.2357 6.10608 5.73404 6.10608C5.83382 6.10608 5.93603 6.11532 6.03783 6.1335C6.1559 6.1547 6.26973 6.0786 6.29538 5.9614C6.466 5.18227 7.16945 4.61672 7.96805 4.61672C8.76665 4.61672 9.47013 5.18224 9.64072 5.9614C9.66637 6.07865 9.78012 6.15467 9.89827 6.1335C10.0001 6.11529 10.1023 6.10608 10.2021 6.10608C11.1465 6.10608 11.9148 6.87441 11.9148 7.81884C11.9148 7.85848 11.913 7.90046 11.9092 7.95099C11.9044 8.01355 11.9262 8.07524 11.9692 8.12093C12.0114 8.16591 12.0704 8.19134 12.132 8.19134C12.134 8.19134 12.1366 8.19129 12.1408 8.19115C12.5092 8.19254 12.8085 8.49267 12.8085 8.86137C12.8085 9.23092 12.5078 9.53159 12.1382 9.53159H10.5745V7.96778C10.5745 7.84438 10.4745 7.74438 10.3511 7.74438C9.83828 7.74438 9.59771 7.61819 9.31916 7.47206C9.03014 7.32044 8.70259 7.14864 8.07972 7.14864C7.45686 7.14864 7.12928 7.3205 6.84026 7.47206C6.56171 7.61816 6.32116 7.74438 5.80836 7.74438C5.29561 7.74438 5.05507 7.61819 4.77652 7.47206C4.48752 7.32044 4.15994 7.14864 3.53711 7.14864C2.9143 7.14864 2.58675 7.3205 2.29775 7.47206C2.01923 7.61816 1.77871 7.74438 1.26596 7.74438C1.14256 7.74438 1.04256 7.84438 1.04256 7.96778V9.53159H0.670223C0.300672 9.53162 0 9.83229 0 10.2018C0 10.5116 0.21123 10.7728 0.497137 10.8493L0.731828 11.6316C0.854602 12.0408 1.28548 12.3614 1.71276 12.3614H12.2872C12.7145 12.3614 13.1453 12.0408 13.2681 11.6316L13.5028 10.8493C13.7888 10.7728 14 10.5115 14 10.2018C14 9.83227 13.6993 9.53162 13.3298 9.53162ZM1.48933 8.18325C1.97132 8.14786 2.25299 8.0001 2.50529 7.8677C2.78381 7.7216 3.02433 7.59538 3.53708 7.59538C4.04986 7.59538 4.2904 7.72157 4.56895 7.8677C4.85795 8.01932 5.1855 8.19112 5.80833 8.19112C6.43117 8.19112 6.75875 8.01927 7.04777 7.8677C7.32632 7.7216 7.56686 7.59538 8.07969 7.59538C8.59247 7.59538 8.83304 7.72157 9.11159 7.8677C9.36395 8.00004 9.64564 8.14784 10.1276 8.18325V8.62859C9.76177 8.59726 9.55344 8.48868 9.31889 8.36571C9.10971 8.25601 8.89342 8.14264 8.56655 8.08309C8.44536 8.06116 8.32888 8.14144 8.3067 8.26284C8.28461 8.38422 8.36508 8.50054 8.48646 8.52269C8.74625 8.57002 8.92361 8.66299 9.11137 8.76143C9.36376 8.89377 9.64562 9.04148 10.1276 9.07684V9.53157H1.48936V9.07684C1.97129 9.04146 2.25302 8.89372 2.50532 8.76132C2.78387 8.61522 3.02438 8.489 3.53716 8.489C4.04991 8.489 4.29045 8.6152 4.56898 8.76132C4.85797 8.91294 5.18552 9.08474 5.80836 9.08474C6.43125 9.08474 6.75891 8.91297 7.04799 8.7614C7.23576 8.66296 7.41311 8.57 7.67293 8.52266C7.79431 8.50057 7.87481 8.38425 7.85269 8.26282C7.83057 8.14141 7.71414 8.06113 7.59284 8.08306C7.26595 8.14261 7.04966 8.25603 6.84048 8.36568C6.56182 8.51175 6.32116 8.63795 5.80833 8.63795C5.29558 8.63795 5.05504 8.51175 4.77652 8.36563C4.48752 8.21401 4.15997 8.04221 3.53713 8.04221C2.9143 8.04221 2.58675 8.21406 2.29775 8.36563C2.0633 8.48865 1.85508 8.5972 1.48936 8.62857V8.18325H1.48933ZM13.3298 10.4252C13.3281 10.4252 13.3273 10.4252 13.3265 10.4252H2.45744C2.33404 10.4252 2.23404 10.5252 2.23404 10.6486C2.23404 10.772 2.33404 10.872 2.45744 10.872H13.0295L12.8402 11.5032C12.7744 11.7223 12.5161 11.9146 12.2872 11.9146H1.71279C1.48397 11.9146 1.2256 11.7223 1.15984 11.5032L0.970512 10.872H1.56382C1.68722 10.872 1.78721 10.772 1.78721 10.6486C1.78721 10.5252 1.68722 10.4252 1.56382 10.4252H0.673695C0.672738 10.4252 0.671754 10.4252 0.670797 10.4252C0.547012 10.4252 0.446797 10.325 0.446797 10.2018C0.446797 10.0786 0.547012 9.97845 0.670195 9.97845H13.3298C13.453 9.97845 13.5532 10.0787 13.5532 10.2018C13.5532 10.325 13.453 10.4252 13.3298 10.4252Z" fill="black"/>
<path d="M6.40383 2.681C6.40383 2.32835 6.49472 2.16171 6.59994 1.96875C6.71746 1.75334 6.85062 1.50913 6.85062 1.04256C6.85062 0.576023 6.71741 0.331898 6.59991 0.116456C6.54082 0.00814752 6.40511 -0.0317744 6.2968 0.0273428C6.1885 0.08646 6.14857 0.22214 6.20769 0.330448C6.31294 0.523413 6.40383 0.689991 6.40383 1.04256C6.40383 1.39521 6.31294 1.56185 6.20772 1.75481C6.09022 1.97023 5.95703 2.21443 5.95703 2.681C5.95703 3.14757 6.09022 3.39172 6.20772 3.60719C6.24827 3.68151 6.32494 3.72362 6.40405 3.72362C6.44017 3.72362 6.47684 3.71484 6.51082 3.6963C6.61913 3.63724 6.65905 3.50153 6.59994 3.39319C6.49469 3.20026 6.40383 3.03365 6.40383 2.681Z" fill="black"/>
<path d="M7.59523 2.681C7.59523 2.32835 7.68613 2.16171 7.79134 1.96875C7.90887 1.75334 8.04203 1.50913 8.04203 1.04256C8.04203 0.576023 7.90881 0.331898 7.79132 0.116456C7.73223 0.00814752 7.59652 -0.0317744 7.48821 0.0273428C7.3799 0.08646 7.33998 0.22214 7.3991 0.330448C7.50434 0.523413 7.59523 0.689991 7.59523 1.04256C7.59523 1.39521 7.50434 1.56185 7.39912 1.75481C7.2816 1.97023 7.14844 2.21443 7.14844 2.681C7.14844 3.14757 7.28163 3.39172 7.39912 3.60719C7.43968 3.68151 7.51635 3.72362 7.59545 3.72362C7.63157 3.72362 7.66824 3.71484 7.70223 3.6963C7.81054 3.63724 7.85046 3.50153 7.79134 3.39319C7.68613 3.20026 7.59523 3.03365 7.59523 2.681Z" fill="black"/>
</svg>
