<svg width="14" height="14" viewBox="0 0 14 14" fill="none" xmlns="http://www.w3.org/2000/svg">
<path d="M13.7667 7.23333H12.8333V2.8C12.8333 2.66 12.74 2.56667 12.6 2.56667H7.93333V0.7C7.93333 0.56 7.84 0.466667 7.7 0.466667H7V0H6.53333V0.466667H1.16667V0H0.7V0.466667H0.233333C0.0933333 0.466667 0 0.56 0 0.7V12.8333C0 12.9733 0.0933333 13.0667 0.233333 13.0667H7.7H13.7667C13.9067 13.0667 14 12.9733 14 12.8333V7.46667C14 7.32667 13.9067 7.23333 13.7667 7.23333ZM12.3667 3.03333V3.5H8.63333V3.96667H12.3667V7.23333H7.93333V3.03333H12.3667ZM0.466667 2.1H6.53333V1.63333H0.466667V0.933333H7.46667V2.8V7.46667V12.6H5.6V11.2H6.06667C6.20667 11.2 6.3 11.1067 6.3 10.9667V9.56667C6.3 9.17 5.99667 8.86667 5.6 8.86667H2.33333C1.93667 8.86667 1.63333 9.17 1.63333 9.56667V10.9667C1.63333 11.1067 1.72667 11.2 1.86667 11.2H2.33333V12.6H0.466667V2.1ZM3.26667 10.2667V9.33333H3.73333V10.2667H4.2V9.33333H4.66667V10.2667H5.13333V9.33333H5.6C5.74 9.33333 5.83333 9.42667 5.83333 9.56667V10.7333H2.1V9.56667C2.1 9.42667 2.19333 9.33333 2.33333 9.33333H2.8V10.2667H3.26667ZM3.73333 11.2V12.6H2.8V11.2H3.73333ZM4.2 11.2H5.13333V12.6H4.2V11.2ZM13.5333 12.6H12.1333V11.4333C12.53 11.4333 12.8333 11.13 12.8333 10.7333V8.86667C12.8333 8.47 12.53 8.16667 12.1333 8.16667H11.6667C11.27 8.16667 10.9667 8.47 10.9667 8.86667V10.7333C10.9667 11.13 11.27 11.4333 11.6667 11.4333V12.6H9.8V11.4333C10.1967 11.4333 10.5 11.13 10.5 10.7333V8.86667C10.5 8.47 10.1967 8.16667 9.8 8.16667H9.33333C8.93667 8.16667 8.63333 8.47 8.63333 8.86667V10.7333C8.63333 11.13 8.93667 11.4333 9.33333 11.4333V12.6H7.93333V7.7H12.6H13.5333V12.6ZM11.6667 10.9667C11.5267 10.9667 11.4333 10.8733 11.4333 10.7333V8.86667C11.4333 8.72667 11.5267 8.63333 11.6667 8.63333H12.1333C12.2733 8.63333 12.3667 8.72667 12.3667 8.86667V10.7333C12.3667 10.8733 12.2733 10.9667 12.1333 10.9667H11.6667ZM9.33333 10.9667C9.19333 10.9667 9.1 10.8733 9.1 10.7333V8.86667C9.1 8.72667 9.19333 8.63333 9.33333 8.63333H9.8C9.94 8.63333 10.0333 8.72667 10.0333 8.86667V10.7333C10.0333 10.8733 9.94 10.9667 9.8 10.9667H9.33333Z" fill="black"/>
<path d="M1.16302 4.19974H2.32969C2.46969 4.19974 2.56302 4.10641 2.56302 3.96641V2.79974C2.56302 2.65974 2.46969 2.56641 2.32969 2.56641H1.16302C1.02302 2.56641 0.929688 2.65974 0.929688 2.79974V3.96641C0.929688 4.10641 1.02302 4.19974 1.16302 4.19974ZM1.39635 3.03307H2.09635V3.73307H1.39635V3.03307Z" fill="black"/>
<path d="M3.26458 4.19974H4.43125C4.57125 4.19974 4.66458 4.10641 4.66458 3.96641V2.79974C4.66458 2.65974 4.57125 2.56641 4.43125 2.56641H3.26458C3.12458 2.56641 3.03125 2.65974 3.03125 2.79974V3.96641C3.03125 4.10641 3.12458 4.19974 3.26458 4.19974ZM3.49792 3.03307H4.19792V3.73307H3.49792V3.03307Z" fill="black"/>
<path d="M5.36615 4.19974H6.76615C6.90615 4.19974 6.99948 4.10641 6.99948 3.96641V2.79974C6.99948 2.65974 6.90615 2.56641 6.76615 2.56641H5.36615C5.22615 2.56641 5.13281 2.65974 5.13281 2.79974V3.96641C5.13281 4.10641 5.22615 4.19974 5.36615 4.19974ZM5.59948 3.03307H6.53281V3.73307H5.59948V3.03307Z" fill="black"/>
<path d="M1.16302 6.29935H2.32969C2.46969 6.29935 2.56302 6.20602 2.56302 6.06602V4.89935C2.56302 4.75935 2.46969 4.66602 2.32969 4.66602H1.16302C1.02302 4.66602 0.929688 4.75935 0.929688 4.89935V6.06602C0.929688 6.20602 1.02302 6.29935 1.16302 6.29935ZM1.39635 5.13268H2.09635V5.83268H1.39635V5.13268Z" fill="black"/>
<path d="M3.26458 6.29935H4.43125C4.57125 6.29935 4.66458 6.20602 4.66458 6.06602V4.89935C4.66458 4.75935 4.57125 4.66602 4.43125 4.66602H3.26458C3.12458 4.66602 3.03125 4.75935 3.03125 4.89935V6.06602C3.03125 6.20602 3.12458 6.29935 3.26458 6.29935ZM3.49792 5.13268H4.19792V5.83268H3.49792V5.13268Z" fill="black"/>
<path d="M5.36615 6.29935H6.76615C6.90615 6.29935 6.99948 6.20602 6.99948 6.06602V4.89935C6.99948 4.75935 6.90615 4.66602 6.76615 4.66602H5.36615C5.22615 4.66602 5.13281 4.75935 5.13281 4.89935V6.06602C5.13281 6.20602 5.22615 6.29935 5.36615 6.29935ZM5.59948 5.13268H6.53281V5.83268H5.59948V5.13268Z" fill="black"/>
<path d="M2.56302 8.16758V7.00091C2.56302 6.86091 2.46969 6.76758 2.32969 6.76758H1.16302C1.02302 6.76758 0.929688 6.86091 0.929688 7.00091V8.16758C0.929688 8.30758 1.02302 8.40091 1.16302 8.40091H2.32969C2.46969 8.40091 2.56302 8.30758 2.56302 8.16758ZM2.09635 7.93424H1.39635V7.23424H2.09635V7.93424Z" fill="black"/>
<path d="M3.26458 8.40091H4.43125C4.57125 8.40091 4.66458 8.30758 4.66458 8.16758V7.00091C4.66458 6.86091 4.57125 6.76758 4.43125 6.76758H3.26458C3.12458 6.76758 3.03125 6.86091 3.03125 7.00091V8.16758C3.03125 8.30758 3.12458 8.40091 3.26458 8.40091ZM3.49792 7.23424H4.19792V7.93424H3.49792V7.23424Z" fill="black"/>
<path d="M5.36615 8.40091H6.76615C6.90615 8.40091 6.99948 8.30758 6.99948 8.16758V7.00091C6.99948 6.86091 6.90615 6.76758 6.76615 6.76758H5.36615C5.22615 6.76758 5.13281 6.86091 5.13281 7.00091V8.16758C5.13281 8.30758 5.22615 8.40091 5.36615 8.40091ZM5.59948 7.23424H6.53281V7.93424H5.59948V7.23424Z" fill="black"/>
<path d="M9.09844 4.43359H8.39844V4.90026H9.09844V4.43359Z" fill="black"/>
<path d="M10.5008 4.43359H9.80078V4.90026H10.5008V4.43359Z" fill="black"/>
<path d="M11.8992 4.43359H11.1992V4.90026H11.8992V4.43359Z" fill="black"/>
<path d="M9.09844 5.36719H8.39844V5.83385H9.09844V5.36719Z" fill="black"/>
<path d="M10.5008 5.36719H9.80078V5.83385H10.5008V5.36719Z" fill="black"/>
<path d="M11.8992 5.36719H11.1992V5.83385H11.8992V5.36719Z" fill="black"/>
<path d="M9.09844 6.30078H8.39844V6.76745H9.09844V6.30078Z" fill="black"/>
<path d="M10.5008 6.30078H9.80078V6.76745H10.5008V6.30078Z" fill="black"/>
<path d="M11.8992 6.30078H11.1992V6.76745H11.8992V6.30078Z" fill="black"/>
</svg>
