<svg width="14" height="14" viewBox="0 0 14 14" fill="none" xmlns="http://www.w3.org/2000/svg">
<path d="M2.64717 2.56249C2.73575 2.44248 2.79576 2.2939 2.79576 2.11674C2.79576 1.93672 2.73575 1.78813 2.61574 1.69955C2.49573 1.57954 2.28713 1.51953 2.02139 1.51953C1.8128 1.51953 1.63564 1.51953 1.51562 1.54811V3.6026H1.78422V2.77109C1.84423 2.79966 1.90424 2.79966 1.99282 2.79966C2.25856 2.79966 2.49858 2.71108 2.64717 2.56249ZM1.78422 1.7567C1.84423 1.72812 1.93281 1.72812 2.05282 1.72812C2.35 1.72812 2.55859 1.87671 2.55859 2.14531C2.55859 2.44248 2.35 2.59107 2.02139 2.59107C1.90138 2.59107 1.84137 2.59107 1.78422 2.56249V1.7567Z" fill="black"/>
<path d="M3.45219 2.68341H3.68936C3.92653 2.71199 4.04654 2.80342 4.10655 3.1006C4.16655 3.3692 4.22656 3.54636 4.25513 3.60636H4.52373C4.49516 3.54636 4.43515 3.33776 4.37514 3.04059C4.34657 2.832 4.22656 2.68341 4.07797 2.62341C4.28656 2.53483 4.46372 2.35481 4.46372 2.08621C4.46372 1.93762 4.40372 1.78903 4.28371 1.6976C4.16369 1.57758 3.98653 1.51758 3.68936 1.51758C3.50934 1.51758 3.33218 1.51758 3.18359 1.54615V3.57207H3.45219V2.68341ZM3.45219 1.7576C3.48077 1.72903 3.60078 1.72903 3.72079 1.72903C3.98939 1.72903 4.19798 1.84904 4.19798 2.11764C4.19798 2.35481 4.01796 2.50625 3.72079 2.50625H3.45219V1.7576Z" fill="black"/>
<path d="M6.01577 3.39759H5.12139V2.6518H5.89576V2.44321H5.09282V1.78885H5.95576V1.54883H4.82422V3.63476H6.01577V3.39759Z" fill="black"/>
<path d="M6.81845 3.42562C6.63843 3.42562 6.46127 3.36562 6.34126 3.27704L6.28125 3.54563C6.40126 3.60564 6.60986 3.66565 6.81845 3.66565C7.32421 3.66565 7.56424 3.39705 7.56424 3.06844C7.56424 2.73984 7.38422 2.59125 7.02704 2.44266C6.72987 2.32265 6.60986 2.23407 6.60986 2.02548C6.60986 1.87689 6.69844 1.69687 6.99561 1.69687C7.17563 1.69687 7.32421 1.75688 7.38136 1.78545L7.46994 1.57686C7.34993 1.54829 7.20134 1.48828 6.99275 1.48828C6.57557 1.48828 6.30697 1.72545 6.30697 2.05405C6.30697 2.35123 6.54413 2.53125 6.87274 2.65126C7.14134 2.77127 7.25849 2.85985 7.25849 3.06844C7.26421 3.27704 7.08705 3.42562 6.81845 3.42562Z" fill="black"/>
<path d="M8.54838 2.44266C8.25121 2.32265 8.13119 2.23407 8.13119 2.02548C8.13119 1.87689 8.21977 1.69687 8.51695 1.69687C8.69697 1.69687 8.84555 1.75688 8.9027 1.78545L8.99128 1.57686C8.87127 1.54829 8.72268 1.48828 8.51409 1.48828C8.0969 1.48828 7.82831 1.72545 7.82831 2.05405C7.82831 2.35123 8.06547 2.53125 8.39408 2.65126C8.66268 2.77127 8.77983 2.85985 8.77983 3.06844C8.77983 3.27704 8.59981 3.42562 8.33407 3.42562C8.15405 3.42562 7.97689 3.36562 7.85688 3.27704L7.79688 3.54563C7.91689 3.60564 8.12548 3.66565 8.33407 3.66565C8.83984 3.66565 9.07986 3.39705 9.07986 3.06844C9.08272 2.73984 8.90556 2.59125 8.54838 2.44266Z" fill="black"/>
<path d="M6.87587 6.97266H1.8125V7.56986H6.87587V6.97266Z" fill="black"/>
<path d="M8.06742 5.00586H1.8125V5.60306H8.06742V5.00586Z" fill="black"/>
<path d="M13.9957 9.23523V3.51464C13.9957 3.42606 13.9671 3.36606 13.9071 3.30605L10.6897 0.0885805C10.6297 0.0285743 10.5697 0 10.4811 0H0.297173C0.117155 0 0 0.120012 0 0.297173V9.23523C0 9.41525 0.120012 9.5324 0.297173 9.5324H8.93234V10.5439C8.93234 11.1411 9.40953 11.6155 10.0039 11.6155H10.4496V13.4042H9.85529V14.0014H11.6412V13.4042H11.0468V11.6155H11.464C12.0584 11.6155 12.5356 11.1383 12.5356 10.5725V9.52954H13.7271C13.9071 9.5324 14.0243 9.41525 13.9957 9.23523ZM12.9813 3.21747H10.8068V1.04296L12.9813 3.21747ZM11.9698 10.5754C11.9698 10.844 11.7612 11.0526 11.4926 11.0526H10.0325C9.76385 11.0526 9.55526 10.844 9.55526 10.5754V7.32932C9.55526 7.06072 9.76385 6.85213 10.0325 6.85213H10.4496V8.93806H11.044V6.85213H11.4897C11.7583 6.85213 11.9669 7.06072 11.9669 7.32932V10.5754H11.9698ZM12.5356 8.93806V7.32932C12.5356 6.73212 12.0584 6.25778 11.464 6.25778H10.0039C9.40953 6.25778 8.93234 6.73497 8.93234 7.32932V8.93806H0.622921V0.597204H10.2125V3.51464C10.2125 3.69466 10.3325 3.81182 10.5096 3.81182H13.4271V8.9352H12.5356V8.93806Z" fill="black"/>
</svg>
