<svg width="14" height="12" viewBox="0 0 14 12" fill="none" xmlns="http://www.w3.org/2000/svg">
<path d="M7.00069 7.7207C6.02275 7.7207 5.19922 8.54423 5.19922 9.52217C5.19922 10.5001 6.02275 11.3236 7.00069 11.3236C7.97863 11.3236 8.80216 10.5001 8.80216 9.52217C8.80216 8.54423 7.97863 7.7207 7.00069 7.7207Z" fill="black"/>
<path d="M6.99871 5.14648C5.76342 5.14648 4.57959 5.66119 3.75606 6.58766C3.55018 6.79354 3.60165 7.10237 3.80754 7.30825C4.01342 7.51413 4.32224 7.46266 4.52812 7.25678C5.14577 6.53619 6.07224 6.1759 6.99871 6.1759C7.92518 6.1759 8.85165 6.58766 9.4693 7.25678C9.57224 7.35972 9.72665 7.41119 9.82959 7.41119C9.93254 7.41119 10.0869 7.35972 10.1899 7.25678C10.3958 7.0509 10.3958 6.74207 10.2414 6.53619C9.41783 5.66119 8.23401 5.14648 6.99871 5.14648Z" fill="black"/>
<path d="M6.99931 2.57422C5.0949 2.57422 3.29343 3.34628 1.95519 4.73598C1.74931 4.94187 1.74931 5.25069 1.95519 5.45657C2.16108 5.66245 2.4699 5.66245 2.67578 5.45657C3.80813 4.27275 5.35225 3.60363 6.99931 3.60363C8.64637 3.60363 10.1905 4.27275 11.3228 5.45657C11.4258 5.55951 11.5802 5.61098 11.6831 5.61098C11.7861 5.61098 11.9405 5.55951 12.0434 5.45657C12.2493 5.25069 12.2493 4.94187 12.0434 4.73598C10.7052 3.34628 8.90372 2.57422 6.99931 2.57422Z" fill="black"/>
<path d="M13.8456 2.93382C12.0441 1.02941 9.625 0 7 0C4.375 0 1.95588 1.02941 0.154412 2.93382C-0.0514706 3.13971 -0.0514706 3.44853 0.154412 3.65441C0.360294 3.86029 0.669118 3.86029 0.875 3.65441C2.47059 1.95588 4.68382 1.02941 7 1.02941C9.31618 1.02941 11.5294 1.95588 13.125 3.65441C13.2279 3.75735 13.3824 3.80882 13.4853 3.80882C13.5882 3.80882 13.7426 3.75735 13.8456 3.65441C14.0515 3.44853 14.0515 3.13971 13.8456 2.93382Z" fill="black"/>
</svg>
