<svg width="14" height="10" viewBox="0 0 14 10" fill="none" xmlns="http://www.w3.org/2000/svg">
<path d="M13.3 0H0.699992C0.30332 0 0 0.30332 0 0.699992V5.36667C0 5.76334 0.30332 6.06666 0.699992 6.06666H13.3C13.6967 6.06666 14 5.76334 14 5.36667V0.699992C14 0.30332 13.6967 0 13.3 0ZM13.5334 5.36667C13.5334 5.50667 13.44 5.59999 13.3 5.59999H0.699992C0.559993 5.59999 0.46667 5.50667 0.46667 5.36667V0.699992C0.46667 0.559993 0.583345 0.466671 0.699992 0.466671H13.3C13.44 0.466671 13.5333 0.559993 13.5333 0.699992V5.36667H13.5334Z" fill="black"/>
<path d="M6.06926 2.09945H7.93594C8.07594 2.09945 8.16926 2.00613 8.16926 1.86613C8.16926 1.72614 8.07594 1.63281 7.93594 1.63281H6.06926C5.92926 1.63281 5.83594 1.72614 5.83594 1.86613C5.83594 2.00613 5.92926 2.09945 6.06926 2.09945Z" fill="black"/>
<path d="M12.8336 4.66602H1.16691C1.02692 4.66602 0.933594 4.75934 0.933594 4.89934C0.933594 5.03933 1.02692 5.13266 1.16691 5.13266H12.8336C12.9736 5.13266 13.0669 5.03933 13.0669 4.89934C13.0669 4.75934 12.9736 4.66602 12.8336 4.66602Z" fill="black"/>
<path d="M12.8336 3.73242H1.16691C1.02692 3.73242 0.933594 3.82574 0.933594 3.96574C0.933594 4.10574 1.02692 4.19906 1.16691 4.19906H12.8336C12.9736 4.19906 13.0669 4.10574 13.0669 3.96574C13.0669 3.82574 12.9736 3.73242 12.8336 3.73242Z" fill="black"/>
<path d="M7.11745 7.72299C6.88413 7.60632 6.76745 7.46632 6.76745 7.34964C6.76745 7.23297 6.90745 7.09297 7.09412 6.95297C7.2108 6.9063 7.23412 6.7663 7.18745 6.64965C7.14077 6.53298 7.00077 6.48633 6.88413 6.55633C6.51078 6.76633 6.30078 7.04632 6.30078 7.34967C6.30078 7.65299 6.51078 7.93302 6.88413 8.16634C7.11745 8.28301 7.23412 8.42301 7.23412 8.53969C7.23412 8.65636 7.09412 8.79636 6.88413 8.91301C6.76745 8.95968 6.7208 9.09968 6.7908 9.21633C6.83748 9.28633 6.90748 9.333 7.0008 9.333C7.04748 9.333 7.0708 9.333 7.11748 9.30968C7.49082 9.09968 7.70082 8.81968 7.70082 8.51634C7.70082 8.21299 7.4908 7.90967 7.11745 7.72299Z" fill="black"/>
<path d="M4.55104 8.18979C4.31772 8.07312 4.20105 7.93312 4.20105 7.81644C4.20105 7.69977 4.34104 7.55977 4.52772 7.41977C4.64439 7.3731 4.69104 7.2331 4.62104 7.11645C4.57437 6.99978 4.43437 6.95313 4.31772 7.02313C3.94437 7.23312 3.73438 7.51312 3.73438 7.81647C3.73438 8.11979 3.94437 8.39981 4.31772 8.63314C4.55104 8.74981 4.66772 8.88981 4.66772 9.00648C4.66772 9.12316 4.52772 9.26316 4.31772 9.37983C4.20105 9.42651 4.1544 9.5665 4.2244 9.68315C4.27107 9.75315 4.34107 9.79983 4.43439 9.79983C4.48107 9.79983 4.50439 9.79983 4.55107 9.7765C4.92442 9.5665 5.13441 9.28651 5.13441 8.98316C5.13441 8.67981 4.92439 8.37646 4.55104 8.18979Z" fill="black"/>
<path d="M9.68385 8.18979C9.45053 8.07312 9.33386 7.93312 9.33386 7.81644C9.33386 7.69977 9.47386 7.55977 9.66053 7.41977C9.77721 7.3731 9.80053 7.2331 9.75385 7.11645C9.70718 6.99978 9.56718 6.95313 9.45053 7.02313C9.07719 7.23312 8.86719 7.51312 8.86719 7.81647C8.86719 8.11979 9.07719 8.39981 9.45053 8.63314C9.68385 8.74981 9.80053 8.88981 9.80053 9.00648C9.80053 9.12316 9.66053 9.26316 9.45053 9.37983C9.33386 9.42651 9.28721 9.5665 9.35721 9.68315C9.40389 9.75315 9.47388 9.79983 9.56721 9.79983C9.61388 9.79983 9.63721 9.79983 9.68388 9.7765C10.0572 9.5665 10.2672 9.28651 10.2672 8.98316C10.2672 8.67981 10.0572 8.37646 9.68385 8.18979Z" fill="black"/>
</svg>
