<svg width="14" height="14" viewBox="0 0 14 14" fill="none" xmlns="http://www.w3.org/2000/svg">
<path d="M10.2665 11.4334V8.86682C10.2665 8.47015 9.96317 8.16684 9.56651 8.16684H9.44984C9.33316 8.16684 9.23984 8.09684 9.21652 8.00352L8.39987 5.1569V5.13357C8.2132 4.71359 7.79321 4.43359 7.32655 4.43359H2.93994C2.47328 4.43359 2.05329 4.71359 1.86662 5.13357V5.1569L1.04997 8.00352C1.00329 8.09684 0.909974 8.16684 0.816652 8.16684H0.69998C0.303315 8.16684 0 8.47015 0 8.86682V11.4334C0 11.8301 0.303315 12.1334 0.69998 12.1334V13.3001C0.69998 13.6967 1.00329 14 1.39996 14H1.86662C2.26329 14 2.5666 13.6967 2.5666 13.3001V12.1334H7.69986V13.3001C7.69986 13.6967 8.00317 14 8.39984 14H8.8665C9.26317 14 9.56648 13.6967 9.56648 13.3001V12.1334C9.96317 12.1334 10.2665 11.8301 10.2665 11.4334ZM2.09997 13.3001C2.09997 13.4401 2.00665 13.5334 1.86665 13.5334H1.39999C1.25999 13.5334 1.16667 13.4401 1.16667 13.3001V12.1334H2.09999V13.3001H2.09997ZM9.09985 13.3001C9.09985 13.4401 9.00653 13.5334 8.86653 13.5334H8.39987C8.25987 13.5334 8.16655 13.4401 8.16655 13.3001V12.1334H9.09988V13.3001H9.09985ZM9.79985 11.4334C9.79985 11.5734 9.70653 11.6668 9.56654 11.6668H9.33322H7.93323H2.33328H0.933325H0.69998C0.559984 11.6668 0.466662 11.5734 0.466662 11.4334V8.86682C0.466662 8.72682 0.559984 8.6335 0.69998 8.6335H0.816652C1.11997 8.6335 1.39999 8.42351 1.49331 8.12016L2.30996 5.29686C2.42663 5.06355 2.65995 4.9002 2.93994 4.9002H7.32655C7.58321 4.9002 7.83988 5.0402 7.95653 5.29686L8.77318 8.12016C8.8665 8.42348 9.14652 8.6335 9.44984 8.6335H9.56651C9.70651 8.6335 9.79983 8.72682 9.79983 8.86682V11.4334H9.79985Z" fill="black"/>
<path d="M2.09739 9.09961C1.58405 9.09961 1.16406 9.5196 1.16406 10.0329C1.16406 10.5463 1.58405 10.9663 2.09739 10.9663C2.61072 10.9663 3.03071 10.5463 3.03071 10.0329C3.03071 9.5196 2.61072 9.09961 2.09739 9.09961ZM2.09739 10.4996C1.84072 10.4996 1.63072 10.2896 1.63072 10.0329C1.63072 9.77627 1.84072 9.56627 2.09739 9.56627C2.35406 9.56627 2.56405 9.77627 2.56405 10.0329C2.56405 10.2896 2.35406 10.4996 2.09739 10.4996Z" fill="black"/>
<path d="M8.1677 9.09961C7.65436 9.09961 7.23438 9.5196 7.23438 10.0329C7.23438 10.5463 7.65436 10.9663 8.1677 10.9663C8.68104 10.9663 9.10102 10.5463 9.10102 10.0329C9.10102 9.5196 8.68101 9.09961 8.1677 9.09961ZM8.1677 10.4996C7.91103 10.4996 7.70104 10.2896 7.70104 10.0329C7.70104 9.77627 7.91103 9.56627 8.1677 9.56627C8.42437 9.56627 8.63436 9.77627 8.63436 10.0329C8.63436 10.2896 8.42434 10.4996 8.1677 10.4996Z" fill="black"/>
<path d="M5.60024 10.2656H4.66691C4.52692 10.2656 4.43359 10.3589 4.43359 10.4989C4.43359 10.6389 4.52692 10.7323 4.66691 10.7323H5.60024C5.74023 10.7323 5.83355 10.6389 5.83355 10.4989C5.83355 10.359 5.74023 10.2656 5.60024 10.2656Z" fill="black"/>
<path d="M6.06872 9.33398H4.20207C4.06207 9.33398 3.96875 9.42731 3.96875 9.5673C3.96875 9.7073 4.06207 9.80062 4.20207 9.80062H6.06872C6.20871 9.80062 6.30203 9.7073 6.30203 9.5673C6.30206 9.42731 6.20874 9.33398 6.06872 9.33398Z" fill="black"/>
<path d="M2.89636 8.16716H7.39961C7.53961 8.16716 7.6796 8.09716 7.77295 7.98049C7.8663 7.86382 7.88962 7.7005 7.84295 7.5605L7.28294 5.69385C7.23626 5.50718 7.04959 5.36719 6.8396 5.36719H3.45634C3.24635 5.36719 3.083 5.48386 3.01301 5.69385L2.45302 7.5605C2.40635 7.7005 2.4297 7.86382 2.52302 7.98049C2.61637 8.09714 2.75637 8.16716 2.89636 8.16716ZM3.45634 5.83385H6.83963L7.39961 7.7005H2.89636L3.45634 5.83385Z" fill="black"/>
<path d="M13.7663 0H9.79972C9.65973 0 9.56641 0.0933213 9.56641 0.233317V4.19993C9.56641 4.33993 9.65973 4.43325 9.79972 4.43325H11.433V11.6665H10.9664C10.8264 11.6665 10.733 11.7598 10.733 11.8998V12.5998H10.2664C10.1264 12.5998 10.0331 12.6931 10.0331 12.8331V13.7664C10.0331 13.9064 10.1264 13.9997 10.2664 13.9997H13.0663C13.2063 13.9997 13.2996 13.9064 13.2996 13.7664V12.8331C13.2996 12.6931 13.2063 12.5998 13.0663 12.5998H12.5997V11.8998C12.5997 11.7598 12.5063 11.6665 12.3664 11.6665H11.8997V4.43325H13.7663C13.9063 4.43325 13.9997 4.33993 13.9997 4.19993V0.233317C13.9997 0.0933213 13.9063 0 13.7663 0ZM12.833 13.5331H10.4997V13.0665H10.9664H12.3664H12.833V13.5331H12.833ZM12.133 12.5998H11.1997V12.1331H12.133V12.5998ZM13.533 3.96662H10.033V0.466662H13.533V3.96662Z" fill="black"/>
<path d="M11.4326 3.50025C11.5726 3.50025 11.6659 3.40693 11.6659 3.26693V2.80024H11.8992C12.4125 2.80024 12.8325 2.38026 12.8325 1.86692C12.8325 1.35358 12.4125 0.933594 11.8992 0.933594H11.4325C11.2925 0.933594 11.1992 1.02692 11.1992 1.16691V2.5669V3.26688C11.1992 3.4069 11.2926 3.50025 11.4326 3.50025ZM12.3659 1.86695C12.3659 2.12361 12.1559 2.33361 11.8992 2.33361H11.6659V1.40028H11.8992C12.1559 1.40028 12.3659 1.61028 12.3659 1.86695Z" fill="black"/>
</svg>
