<svg width="14" height="10" viewBox="0 0 14 10" fill="none" xmlns="http://www.w3.org/2000/svg">
<path d="M9.79362 9.87538H4.20638C2.65862 9.87538 1.0633 8.60716 0.650119 7.04827L0.135335 5.03584C0.0474426 4.75484 0 4.45598 0 4.14637C0 2.50097 1.33857 1.16233 2.98391 1.16233H4.63431C4.80366 1.16233 4.94099 1.29966 4.94099 1.46901C4.94099 1.63835 4.80366 1.77568 4.63431 1.77568H2.98391C1.67677 1.77571 0.613349 2.83913 0.613349 4.14634C0.613349 4.38324 0.64831 4.61217 0.713264 4.82816C0.717404 4.83902 0.720961 4.85025 0.723936 4.86175L0.72504 4.86616C1.03046 5.82256 1.92763 6.51705 2.98391 6.51705H11.0161C12.0723 6.51705 12.9694 5.82259 13.2749 4.86635L13.2761 4.86178C13.279 4.85021 13.2826 4.83896 13.2868 4.82804C13.3517 4.61211 13.3867 4.38321 13.3867 4.1464C13.3867 2.8392 12.3232 1.77571 11.0161 1.77571H8.71962C8.55027 1.77571 8.41294 1.63838 8.41294 1.46904C8.41294 1.29969 8.55027 1.16236 8.71962 1.16236H11.0161C12.6614 1.16236 14 2.50096 14 4.14634C14 4.45595 13.9526 4.75459 13.8647 5.0356L13.3506 7.04573C12.9367 8.60716 11.3413 9.87538 9.79362 9.87538ZM1.1408 6.49154L1.24366 6.89368C1.58361 8.17628 2.94067 9.26203 4.20635 9.26203H9.79359C11.0593 9.26203 12.4163 8.17631 12.757 6.8911L12.8592 6.49151C12.3514 6.89147 11.7111 7.13037 11.016 7.13037H2.98391C2.2889 7.13037 1.64859 6.8915 1.1408 6.49154ZM6.67051 5.82133C6.36721 5.82136 6.06173 5.69872 5.83988 5.48494C5.71687 5.36638 5.54271 5.29998 5.38481 5.31115C5.27143 5.31933 5.1817 5.36491 5.11812 5.44657C5.11794 5.44679 5.11778 5.447 5.11763 5.44722C4.94804 5.66575 4.69519 5.79759 4.40566 5.81845C4.07708 5.84221 3.73652 5.71749 3.4952 5.48494C3.37219 5.36635 3.19794 5.29998 3.04016 5.31115C2.9265 5.31933 2.83659 5.36509 2.77298 5.44713C2.66917 5.58102 2.47655 5.60534 2.34272 5.50153C2.20888 5.39772 2.1845 5.2051 2.28831 5.07127C2.45827 4.85212 2.70962 4.72003 2.99606 4.69939C3.32776 4.67547 3.67276 4.80412 3.92086 5.04336C4.03703 5.15529 4.2058 5.21807 4.36153 5.20669C4.4419 5.20093 4.55427 5.17271 4.63306 5.07117C4.6333 5.07084 4.63355 5.07053 4.63379 5.07025C4.80372 4.85175 5.0547 4.72003 5.34061 4.69939C5.6713 4.67544 6.01726 4.80403 6.26551 5.0433C6.38177 5.15532 6.55081 5.21798 6.70624 5.20669C6.78658 5.20093 6.89886 5.17271 6.97758 5.07123C6.97783 5.0709 6.9781 5.07059 6.97832 5.07025C7.14828 4.85169 7.39932 4.72 7.68533 4.69939C8.01595 4.67544 8.362 4.80409 8.6102 5.04333C8.73213 5.16088 8.73569 5.355 8.61814 5.47697C8.50059 5.5989 8.30643 5.60246 8.1845 5.48491C8.06152 5.36635 7.88739 5.29995 7.72942 5.31118C7.61599 5.31937 7.52619 5.36494 7.46259 5.4467C7.46247 5.44685 7.46231 5.44703 7.46219 5.44719C7.29269 5.66572 7.03987 5.79759 6.7504 5.81848C6.72387 5.82035 6.69716 5.82133 6.67051 5.82133ZM6.6756 4.49941C6.3723 4.49941 6.06679 4.3768 5.84497 4.16302C5.72196 4.04443 5.54756 3.97797 5.38993 3.98923C5.27627 3.99741 5.18636 4.04317 5.12275 4.12521C5.01894 4.2591 4.82632 4.28342 4.69249 4.17961C4.55866 4.0758 4.53428 3.88318 4.63808 3.74935C4.80804 3.5302 5.05939 3.39811 5.34583 3.37747C5.67725 3.35373 6.02254 3.48217 6.27064 3.72144C6.3868 3.83337 6.55538 3.89578 6.7113 3.8848C6.79165 3.87901 6.90392 3.85082 6.9827 3.74941C6.98273 3.74938 6.98276 3.74935 6.98276 3.74935C7.15269 3.5302 7.40401 3.39814 7.69039 3.37747C8.02138 3.35364 8.36706 3.48214 8.61528 3.72138C8.73151 3.83337 8.9008 3.89621 9.05601 3.88477C9.13636 3.87901 9.24863 3.85079 9.32735 3.74931C9.3276 3.74898 9.32787 3.74867 9.32809 3.74833C9.49805 3.52977 9.74909 3.39808 10.0351 3.37747C10.3658 3.3537 10.7118 3.48214 10.96 3.72141C11.0819 3.83896 11.0855 4.03308 10.9679 4.15504C10.8504 4.27698 10.6562 4.28057 10.5343 4.16299C10.4113 4.04446 10.2374 3.97788 10.0792 3.98926C9.96576 3.99744 9.87596 4.04302 9.81236 4.12478C9.81224 4.12493 9.81208 4.12511 9.81196 4.12527C9.64246 4.3438 9.38964 4.47567 9.10017 4.49656C8.77129 4.5202 8.43097 4.3956 8.18965 4.16305C8.06658 4.04446 7.89205 3.978 7.73455 3.98926C7.62117 3.99744 7.53144 4.04302 7.46786 4.12468C7.46768 4.1249 7.46753 4.12511 7.46737 4.12533C7.29778 4.34386 7.04493 4.47573 6.7554 4.49659C6.72887 4.49846 6.70222 4.49941 6.6756 4.49941ZM7.14144 2.93792C7.06321 2.93792 6.985 2.9082 6.92517 2.8487C6.80508 2.72925 6.80453 2.53507 6.92397 2.41497C7.11871 2.21916 7.10648 1.73652 6.89975 1.45861C6.89953 1.45833 6.89932 1.45803 6.8991 1.45778C6.65241 1.12556 6.54922 0.648682 6.63616 0.242553C6.67161 0.0769789 6.83449 -0.0286397 7.00025 0.00687322C7.16585 0.0423248 7.27138 0.205353 7.23592 0.370957C7.18508 0.608507 7.24758 0.898162 7.3915 1.09204C7.39162 1.09219 7.39175 1.09238 7.39187 1.09253C7.73844 1.5584 7.81014 2.39375 7.3589 2.84751C7.29898 2.90777 7.22022 2.93792 7.14144 2.93792ZM5.89067 2.93782C5.81243 2.93782 5.73423 2.90808 5.6744 2.84858C5.55431 2.72913 5.55378 2.53494 5.67323 2.41488C5.86785 2.21922 5.85567 1.7371 5.64928 1.45913C5.64913 1.45895 5.64898 1.45873 5.64882 1.45855C5.40177 1.12624 5.29835 0.648927 5.38536 0.242553C5.42081 0.0769789 5.58368 -0.0286397 5.74944 0.00687322C5.91505 0.0423248 6.02057 0.205353 5.98512 0.370957C5.93428 0.608446 5.99678 0.8981 6.14061 1.09201C6.14073 1.09216 6.14085 1.09235 6.14097 1.0925C6.48764 1.55837 6.5594 2.39372 6.1081 2.84742C6.04817 2.90768 5.96939 2.93782 5.89067 2.93782Z" fill="black"/>
</svg>
