<svg width="14" height="14" viewBox="0 0 14 14" fill="none" xmlns="http://www.w3.org/2000/svg">
<path d="M13.7407 2.07321H0.259259C0.190499 2.07321 0.124556 2.04589 0.0759353 1.99727C0.0273148 1.94865 0 1.88271 0 1.81395C0 1.74519 0.0273148 1.67924 0.0759353 1.63062C0.124556 1.582 0.190499 1.55469 0.259259 1.55469H13.7407C13.8095 1.55469 13.8754 1.582 13.9241 1.63062C13.9727 1.67924 14 1.74519 14 1.81395C14 1.88271 13.9727 1.94865 13.9241 1.99727C13.8754 2.04589 13.8095 2.07321 13.7407 2.07321Z" fill="black"/>
<path d="M2.59129 12.7037C2.52253 12.7037 2.45659 12.6764 2.40797 12.6278C2.35935 12.5791 2.33203 12.5132 2.33203 12.4444V1.81481C2.33203 1.3335 2.52323 0.871891 2.86358 0.531547C3.20392 0.191203 3.66553 0 4.14685 0C4.62816 0 5.08977 0.191203 5.43011 0.531547C5.77046 0.871891 5.96166 1.3335 5.96166 1.81481C5.96166 1.88357 5.93435 1.94952 5.88573 1.99814C5.83711 2.04676 5.77116 2.07407 5.7024 2.07407C5.63364 2.07407 5.5677 2.04676 5.51908 1.99814C5.47046 1.94952 5.44314 1.88357 5.44314 1.81481C5.44314 1.47102 5.30657 1.1413 5.06347 0.898195C4.82036 0.655092 4.49065 0.518519 4.14685 0.518519C3.80305 0.518519 3.47333 0.655092 3.23023 0.898195C2.98712 1.1413 2.85055 1.47102 2.85055 1.81481V12.4444C2.85055 12.5132 2.82323 12.5791 2.77461 12.6278C2.72599 12.6764 2.66005 12.7037 2.59129 12.7037Z" fill="black"/>
<path d="M9.07176 12.7037C9.003 12.7037 8.93706 12.6764 8.88844 12.6278C8.83981 12.5791 8.8125 12.5132 8.8125 12.4444V1.81481C8.8125 1.3335 9.0037 0.871891 9.34405 0.531547C9.68439 0.191203 10.146 0 10.6273 0C11.1086 0 11.5702 0.191203 11.9106 0.531547C12.2509 0.871891 12.4421 1.3335 12.4421 1.81481C12.4421 1.88357 12.4148 1.94952 12.3662 1.99814C12.3176 2.04676 12.2516 2.07407 12.1829 2.07407C12.1141 2.07407 12.0482 2.04676 11.9995 1.99814C11.9509 1.94952 11.9236 1.88357 11.9236 1.81481C11.9236 1.47102 11.787 1.1413 11.5439 0.898195C11.3008 0.655092 10.9711 0.518519 10.6273 0.518519C10.2835 0.518519 9.9538 0.655092 9.71069 0.898195C9.46759 1.1413 9.33102 1.47102 9.33102 1.81481V12.4444C9.33102 12.5132 9.3037 12.5791 9.25508 12.6278C9.20646 12.6764 9.14052 12.7037 9.07176 12.7037Z" fill="black"/>
<path d="M9.07523 5.44423H2.85301C2.78425 5.44423 2.71831 5.41691 2.66969 5.36829C2.62106 5.31967 2.59375 5.25373 2.59375 5.18497V4.14793C2.59375 4.07917 2.62106 4.01323 2.66969 3.96461C2.71831 3.91599 2.78425 3.88867 2.85301 3.88867H9.07523C9.14399 3.88867 9.20994 3.91599 9.25856 3.96461C9.30718 4.01323 9.33449 4.07917 9.33449 4.14793V5.18497C9.33449 5.25373 9.30718 5.31967 9.25856 5.36829C9.20994 5.41691 9.14399 5.44423 9.07523 5.44423ZM3.11227 4.92571H8.81597V4.40719H3.11227V4.92571Z" fill="black"/>
<path d="M9.07523 8.03798H2.85301C2.78425 8.03798 2.71831 8.01066 2.66969 7.96204C2.62106 7.91342 2.59375 7.84748 2.59375 7.77872V6.74168C2.59375 6.67292 2.62106 6.60698 2.66969 6.55836C2.71831 6.50974 2.78425 6.48242 2.85301 6.48242H9.07523C9.14399 6.48242 9.20994 6.50974 9.25856 6.55836C9.30718 6.60698 9.33449 6.67292 9.33449 6.74168V7.77872C9.33449 7.84748 9.30718 7.91342 9.25856 7.96204C9.20994 8.01066 9.14399 8.03798 9.07523 8.03798ZM3.11227 7.51946H8.81597V7.00094H3.11227V7.51946Z" fill="black"/>
<path d="M9.07523 10.6298H2.85301C2.78425 10.6298 2.71831 10.6025 2.66969 10.5538C2.62106 10.5052 2.59375 10.4393 2.59375 10.3705V9.33348C2.59375 9.26472 2.62106 9.19877 2.66969 9.15015C2.71831 9.10153 2.78425 9.07422 2.85301 9.07422H9.07523C9.14399 9.07422 9.20994 9.10153 9.25856 9.15015C9.30718 9.19877 9.33449 9.26472 9.33449 9.33348V10.3705C9.33449 10.4393 9.30718 10.5052 9.25856 10.5538C9.20994 10.6025 9.14399 10.6298 9.07523 10.6298ZM3.11227 10.1113H8.81597V9.59274H3.11227V10.1113Z" fill="black"/>
<path d="M13.7407 12.962C13.1843 12.968 12.6462 12.7633 12.2344 12.389C11.9096 12.0904 11.4844 11.9247 11.0431 11.9247C10.6019 11.9247 10.1767 12.0904 9.85185 12.389C9.43696 12.7582 8.90093 12.9622 8.34556 12.9622C7.79018 12.9622 7.25415 12.7582 6.83926 12.389C6.51524 12.0908 6.09094 11.9252 5.65056 11.9252C5.21017 11.9252 4.78587 12.0908 4.46185 12.389C4.04983 12.7629 3.51189 12.9675 2.95556 12.962C2.39912 12.968 1.86101 12.7633 1.44926 12.389C1.12736 12.0865 0.700957 11.9202 0.259259 11.925C0.190499 11.925 0.124556 11.8976 0.0759353 11.849C0.0273148 11.8004 0 11.7345 0 11.6657C0 11.5969 0.0273148 11.531 0.0759353 11.4824C0.124556 11.4338 0.190499 11.4064 0.259259 11.4064C0.815598 11.4009 1.35353 11.6055 1.76556 11.9794C2.09 12.2778 2.51473 12.4435 2.95556 12.4435C3.39638 12.4435 3.82111 12.2778 4.14556 11.9794C4.56003 11.6104 5.09562 11.4065 5.65056 11.4065C6.20549 11.4065 6.74108 11.6104 7.15555 11.9794C7.48042 12.278 7.90559 12.4437 8.34685 12.4437C8.78811 12.4437 9.21328 12.278 9.53815 11.9794C9.95304 11.6102 10.4891 11.4062 11.0444 11.4062C11.5998 11.4062 12.1358 11.6102 12.5507 11.9794C12.8726 12.2819 13.299 12.4482 13.7407 12.4435C13.8095 12.4435 13.8754 12.4708 13.9241 12.5194C13.9727 12.568 14 12.634 14 12.7027C14 12.7715 13.9727 12.8374 13.9241 12.8861C13.8754 12.9347 13.8095 12.962 13.7407 12.962Z" fill="black"/>
<path d="M13.7407 13.9991C13.1843 14.0051 12.6462 13.8005 12.2344 13.4261C11.9096 13.1275 11.4844 12.9618 11.0431 12.9618C10.6019 12.9618 10.1767 13.1275 9.85185 13.4261C9.43696 13.7953 8.90093 13.9993 8.34556 13.9993C7.79018 13.9993 7.25415 13.7953 6.83926 13.4261C6.51524 13.1279 6.09094 12.9623 5.65056 12.9623C5.21017 12.9623 4.78587 13.1279 4.46185 13.4261C4.04983 13.8 3.51189 14.0046 2.95556 13.9991C2.39912 14.0051 1.86101 13.8005 1.44926 13.4261C1.12736 13.1236 0.700957 12.9574 0.259259 12.9621C0.190499 12.9621 0.124556 12.9348 0.0759353 12.8861C0.0273148 12.8375 0 12.7716 0 12.7028C0 12.634 0.0273148 12.5681 0.0759353 12.5195C0.124556 12.4709 0.190499 12.4435 0.259259 12.4435C0.815598 12.438 1.35353 12.6426 1.76556 13.0165C2.09 13.3149 2.51473 13.4806 2.95556 13.4806C3.39638 13.4806 3.82111 13.3149 4.14556 13.0165C4.56003 12.6475 5.09562 12.4436 5.65056 12.4436C6.20549 12.4436 6.74108 12.6475 7.15555 13.0165C7.48042 13.3151 7.90559 13.4808 8.34685 13.4808C8.78811 13.4808 9.21328 13.3151 9.53815 13.0165C9.95304 12.6473 10.4891 12.4434 11.0444 12.4434C11.5998 12.4434 12.1358 12.6473 12.5507 13.0165C12.8726 13.319 13.299 13.4853 13.7407 13.4806C13.8095 13.4806 13.8754 13.5079 13.9241 13.5565C13.9727 13.6051 14 13.6711 14 13.7398C14 13.8086 13.9727 13.8745 13.9241 13.9232C13.8754 13.9718 13.8095 13.9991 13.7407 13.9991Z" fill="black"/>
</svg>
