<svg width="14" height="15" viewBox="0 0 14 15" fill="none" xmlns="http://www.w3.org/2000/svg">
<path d="M11.434 10.1994C11.2842 9.96335 10.186 8.25271 9.24741 7.34785C8.46435 6.59598 7.29228 6.57422 7.15941 6.57422C7.14733 6.57428 7.13518 6.57473 7.12328 6.57567H6.83913C6.71359 6.57567 5.5888 6.59706 4.76613 7.3376C3.75111 8.25233 2.62802 10.0973 2.54944 10.2273C1.95448 11.168 1.58984 11.7798 1.58984 12.46C1.58984 13.6856 2.48787 14.4776 3.87765 14.4776H10.1234C11.5128 14.4776 12.4105 13.6849 12.4105 12.4579C12.4105 11.7717 12.045 11.1608 11.4485 10.2211C11.4438 10.2137 11.439 10.2064 11.434 10.1994ZM10.1234 13.5285H3.87765C3.37767 13.5285 2.53893 13.3897 2.53893 12.46C2.53893 12.0627 2.8 11.6065 3.3542 10.7305C3.35603 10.7276 3.35787 10.7246 3.3597 10.7216C3.37078 10.7033 4.47526 8.87747 5.40132 8.0429C5.96603 7.53457 6.83109 7.52489 6.83951 7.52483H7.16093C7.16998 7.52483 7.1789 7.52457 7.18789 7.52407C7.34233 7.52989 8.12046 7.58146 8.5895 8.03177C9.49322 8.90316 10.6347 10.7112 10.6462 10.7293C10.6513 10.7375 10.6566 10.7454 10.6622 10.7531C11.2516 11.6831 11.4615 12.083 11.4615 12.4578C11.4614 13.3427 10.7337 13.5285 10.1234 13.5285Z" fill="black"/>
<path d="M4.70688 5.42442C5.77803 5.42442 6.61702 4.23294 6.61702 2.71193C6.61708 1.19123 5.77803 0 4.70688 0C3.63587 0 2.79688 1.19123 2.79688 2.71193C2.79688 4.233 3.63587 5.42442 4.70688 5.42442ZM4.70688 0.949089C5.16143 0.949089 5.66793 1.67305 5.66793 2.71193C5.66793 3.75112 5.16137 4.47533 4.70688 4.47533C4.2524 4.47533 3.7459 3.75112 3.7459 2.71193C3.74596 1.67305 4.2524 0.949089 4.70688 0.949089Z" fill="black"/>
<path d="M2.20787 8.6866C2.39459 8.6866 2.57295 8.64819 2.74018 8.57144C3.57298 8.18422 3.80487 6.96894 3.26788 5.80447C2.85123 4.90271 2.08044 4.29688 1.34971 4.29688C1.1628 4.29688 0.98418 4.33541 0.818152 4.41184C-0.0157804 4.79774 -0.248434 6.01327 0.288687 7.17976C0.705337 8.08102 1.47657 8.68654 2.20774 8.6866H2.20787ZM1.15046 6.78216C0.829288 6.08464 0.920464 5.41022 1.21582 5.27361C1.25625 5.25501 1.29997 5.24596 1.34964 5.24596C1.64766 5.24596 2.11916 5.58118 2.4061 6.2022C2.72728 6.89871 2.6361 7.57319 2.34214 7.70986C2.30151 7.72846 2.2576 7.73757 2.20781 7.73757C1.90941 7.73751 1.43734 7.40242 1.15046 6.78216Z" fill="black"/>
<path d="M9.29018 5.42442C10.3609 5.42442 11.1997 4.23294 11.1997 2.71193C11.1997 1.19123 10.3609 0 9.29018 0C8.21841 0 7.37891 1.19123 7.37891 2.71193C7.37891 4.233 8.21841 5.42442 9.29018 5.42442ZM9.29018 0.949089C9.74448 0.949089 10.2507 1.67305 10.2507 2.71193C10.2507 3.75112 9.74448 4.47533 9.29018 4.47533C8.83512 4.47533 8.328 3.75112 8.328 2.71193C8.328 1.67305 8.83512 0.949089 9.29018 0.949089Z" fill="black"/>
<path d="M13.1812 4.41247C13.0156 4.33579 12.8366 4.29688 12.649 4.29688C11.9194 4.29688 11.1488 4.9029 10.7319 5.80447C10.1925 6.96843 10.4242 8.18415 11.2614 8.57303C11.4265 8.64876 11.6049 8.68717 11.7916 8.68717C12.523 8.68717 13.294 8.08152 13.7103 7.17989C14.2478 6.01422 14.0153 4.79856 13.1812 4.41247ZM12.8485 6.78222C12.5619 7.40305 12.0901 7.73802 11.7916 7.73802C11.7417 7.73802 11.6978 7.72897 11.6592 7.71125C11.362 7.57326 11.2706 6.89915 11.5932 6.20315C11.8807 5.58137 12.3517 5.2459 12.649 5.2459C12.6984 5.2459 12.742 5.25495 12.7823 5.27361C13.0787 5.41092 13.1699 6.08527 12.8485 6.78222Z" fill="black"/>
</svg>
