<svg width="30" height="30" viewBox="0 0 30 30" fill="none" xmlns="http://www.w3.org/2000/svg">
<path d="M24.6313 29.4829C18.2153 30.1685 11.7817 30.1685 5.36572 29.4829C2.80518 29.2075 0.783691 27.1919 0.51416 24.6313C-0.171387 18.2153 -0.171387 11.7817 0.51416 5.36572C0.789551 2.80518 2.81104 0.783691 5.36572 0.51416C11.7817 -0.171387 18.2153 -0.171387 24.6313 0.51416C27.1919 0.789551 29.2134 2.81104 29.4829 5.36572C30.1685 11.7817 30.1685 18.2153 29.4829 24.6313C29.2134 27.1919 27.1919 29.2134 24.6313 29.4829Z" fill="#FFFCF8"/>
<path d="M23.5767 27.9004C17.8638 28.5098 12.1274 28.5098 6.41455 27.9004C4.14111 27.6543 2.34229 25.8555 2.09619 23.5762C1.48682 17.8633 1.48682 12.127 2.09619 6.41406C2.34229 4.14062 4.14111 2.3418 6.42041 2.0957C12.1333 1.48633 17.8696 1.48633 23.5825 2.0957C25.8618 2.3418 27.6606 4.14062 27.9067 6.41992C28.5161 12.1328 28.5161 17.8691 27.9067 23.582C27.6548 25.8555 25.856 27.6543 23.5767 27.9004Z" fill="url(#paint0_linear_3201_2469)"/>
<mask id="mask0_3201_2469" style="mask-type:alpha" maskUnits="userSpaceOnUse" x="1" y="1" width="28" height="28">
<path d="M23.5767 27.9004C17.8638 28.5098 12.1274 28.5098 6.41455 27.9004C4.14111 27.6543 2.34229 25.8555 2.09619 23.5762C1.48682 17.8633 1.48682 12.127 2.09619 6.41406C2.34229 4.14062 4.14111 2.3418 6.42041 2.0957C12.1333 1.48633 17.8696 1.48633 23.5825 2.0957C25.8618 2.3418 27.6606 4.14062 27.9067 6.41992C28.5161 12.1328 28.5161 17.8691 27.9067 23.582C27.6548 25.8555 25.856 27.6543 23.5767 27.9004Z" fill="url(#paint1_linear_3201_2469)"/>
</mask>
<g mask="url(#mask0_3201_2469)">
<path d="M34.8853 22.7324C34.8677 22.7324 17.8228 5.68164 17.8228 5.68164H14.9575V14.3418L13.1528 12.5254C12.8833 12.4844 12.6079 12.4609 12.3267 12.4609C10.856 12.4609 9.479 13.0352 8.4419 14.0723C7.40479 15.1094 6.83057 16.4922 6.83057 17.957C6.83057 19.4219 7.40479 20.8047 8.4419 21.8418L21.022 34.4219C22.0532 35.459 23.436 36.0332 24.9009 36.0332C25.1821 36.0332 25.4575 36.0098 25.7271 35.9746C26.8813 35.7988 27.9478 35.2656 28.7856 34.4277C29.8169 33.3965 30.3911 32.0254 30.397 30.5664L30.4028 24.0801C30.9009 24.4668 31.4458 24.7832 32.0259 25.0293C32.9341 25.4102 33.895 25.6094 34.8853 25.6094C34.8853 25.6035 34.8853 22.7324 34.8853 22.7324Z" fill="url(#paint2_linear_3201_2469)"/>
</g>
<path d="M24.6313 29.4829C18.2153 30.1685 11.7817 30.1685 5.36572 29.4829C2.80518 29.2075 0.783691 27.1919 0.51416 24.6313C-0.171387 18.2153 -0.171387 11.7817 0.51416 5.36572C0.789551 2.80518 2.81103 0.783691 5.36572 0.51416C11.7817 -0.171387 18.2153 -0.171387 24.6313 0.51416C27.1919 0.789551 29.2134 2.81103 29.4829 5.36572C30.1685 11.7817 30.1685 18.2153 29.4829 24.6313C29.2134 27.1919 27.1919 29.2134 24.6313 29.4829Z" fill="url(#paint3_linear_3201_2469)"/>
<path d="M19.604 9.24414C19.0356 8.49414 18.6958 7.5625 18.6958 6.54883H18.6841V6.54297H17.9165C18.1333 7.63867 18.7427 8.59375 19.604 9.24414Z" fill="#F00044"/>
<path d="M12.3267 15.332C10.8735 15.332 9.70166 16.5098 9.70166 17.957C9.70166 18.9004 10.1997 19.7324 10.9497 20.1953C10.7036 19.7969 10.563 19.3223 10.563 18.8184C10.563 17.3652 11.7407 16.1934 13.188 16.1934C13.4751 16.1934 13.7563 16.2402 14.0142 16.3281V13.3867C13.7446 13.3457 13.4692 13.3223 13.188 13.3223C13.1763 13.3223 13.1646 13.3223 13.1528 13.3223V15.4668C12.8892 15.3789 12.6138 15.332 12.3267 15.332Z" fill="#F00044"/>
<path d="M23.1665 11.0137C22.8735 11.0137 22.5864 10.9844 22.311 10.9316V13.0234C21.3208 13.0234 20.3599 12.8301 19.4517 12.4434C18.8657 12.1973 18.3267 11.8809 17.8286 11.4941V17.9805H17.8228C17.8169 19.4395 17.2485 20.8105 16.2114 21.8418C15.3735 22.6797 14.3071 23.2188 13.1528 23.3887C12.8833 23.4297 12.6079 23.4473 12.3267 23.4473C11.061 23.4473 9.86572 23.0254 8.89307 22.2461C9.02197 22.4043 9.15674 22.5566 9.29736 22.7031C10.3345 23.7461 11.7173 24.3145 13.1821 24.3145C13.4634 24.3145 13.7388 24.291 14.0083 24.2559C15.1626 24.0801 16.229 23.5469 17.0669 22.709C18.0981 21.6777 18.6724 20.3066 18.6782 18.8477H18.6841V12.3555C19.1821 12.7422 19.7271 13.0586 20.3071 13.3047C21.2153 13.6914 22.1763 13.8848 23.1665 13.8848V11.0137Z" fill="url(#paint4_linear_3201_2469)"/>
<path d="M22.3052 10.9316V10.1523C21.2915 10.1523 20.354 9.8125 19.604 9.24414C20.2544 10.0996 21.2095 10.7148 22.3052 10.9316Z" fill="#08FFF9"/>
<path d="M13.1821 21.4434C13.4692 21.4434 13.7505 21.3965 14.0083 21.3086C15.0513 20.9629 15.8071 19.9785 15.8071 18.8184L15.813 14.4707V6.54297H17.9165C17.8638 6.26758 17.8345 5.98047 17.8345 5.6875H17.8228V5.68164H14.9575V13.6152L14.9517 17.9629C14.9517 19.123 14.1958 20.1074 13.1528 20.4531C12.895 20.541 12.6138 20.5879 12.3267 20.5879C11.8228 20.5879 11.3481 20.4473 10.9497 20.2012C11.4126 20.9453 12.2388 21.4434 13.1821 21.4434Z" fill="url(#paint5_linear_3201_2469)"/>
<path d="M9.29736 14.9336C10.3286 13.9023 11.6938 13.334 13.147 13.3223V12.5254C12.8774 12.4844 12.6021 12.4609 12.3208 12.4609C10.8501 12.4609 9.47314 13.0352 8.43604 14.0723C7.39893 15.1094 6.82471 16.4922 6.82471 17.957C6.82471 19.4219 7.39893 20.8047 8.43604 21.8418C8.58252 21.9883 8.73486 22.123 8.89307 22.2461C8.11377 21.2734 7.69189 20.0781 7.69189 18.8125C7.69189 17.3535 8.26025 15.9707 9.29736 14.9336Z" fill="#08FFF9"/>
<path d="M13.147 23.3945C14.3013 23.2188 15.3677 22.6855 16.2056 21.8477C17.2368 20.8164 17.811 19.4453 17.8169 17.9863H17.8228V11.4941C18.3208 11.8809 18.8657 12.1973 19.4458 12.4434C20.354 12.8301 21.3149 13.0234 22.3052 13.0234V10.9316C21.2095 10.7207 20.2544 10.1055 19.5981 9.24414C18.7427 8.59375 18.1274 7.63867 17.9106 6.54297H15.8071V14.4766L15.8013 18.8242C15.8013 19.9844 15.0454 20.9688 14.0024 21.3145C13.7446 21.4023 13.4634 21.4492 13.1763 21.4492C12.2329 21.4492 11.4009 20.9512 10.938 20.2012C10.188 19.7383 9.68994 18.9121 9.68994 17.9629C9.68994 16.5098 10.8677 15.3379 12.3149 15.3379C12.6021 15.3379 12.8833 15.3848 13.1411 15.4727V13.334C11.688 13.3398 10.3228 13.9141 9.2915 14.9453C8.25439 15.9824 7.68018 17.3652 7.68018 18.8301C7.68018 20.0898 8.10205 21.291 8.88135 22.2637C9.854 23.043 11.0493 23.4648 12.3149 23.4648C12.6021 23.4531 12.8774 23.4355 13.147 23.3945Z" fill="black"/>
<defs>
<linearGradient id="paint0_linear_3201_2469" x1="3.49412" y1="3.49375" x2="26.5029" y2="26.5025" gradientUnits="userSpaceOnUse">
<stop stop-color="#E8EBEE"/>
<stop offset="1" stop-color="#E8EBEE" stop-opacity="0"/>
</linearGradient>
<linearGradient id="paint1_linear_3201_2469" x1="3.49412" y1="3.49375" x2="26.5029" y2="26.5025" gradientUnits="userSpaceOnUse">
<stop stop-color="#E8EBEE"/>
<stop offset="1" stop-color="#E8EBEE" stop-opacity="0"/>
</linearGradient>
<linearGradient id="paint2_linear_3201_2469" x1="10.0037" y1="10.6313" x2="31.2926" y2="31.9202" gradientUnits="userSpaceOnUse">
<stop stop-color="#B7C1CE"/>
<stop offset="1" stop-color="#B8C1CF" stop-opacity="0"/>
</linearGradient>
<linearGradient id="paint3_linear_3201_2469" x1="14.9988" y1="24.3781" x2="14.9988" y2="29.4465" gradientUnits="userSpaceOnUse">
<stop stop-color="#94A1B2" stop-opacity="0"/>
<stop offset="1" stop-color="#94A1B2"/>
</linearGradient>
<linearGradient id="paint4_linear_3201_2469" x1="14.3443" y1="14.9714" x2="19.5741" y2="20.2012" gradientUnits="userSpaceOnUse">
<stop stop-color="#F00044"/>
<stop offset="1" stop-color="#C70038"/>
</linearGradient>
<linearGradient id="paint5_linear_3201_2469" x1="11.0167" y1="9.61832" x2="18.558" y2="17.1596" gradientUnits="userSpaceOnUse">
<stop stop-color="#08FFF9"/>
<stop offset="1" stop-color="#07D4CF"/>
</linearGradient>
</defs>
</svg>
