<svg width="20" height="23" viewBox="0 0 20 23" fill="none" xmlns="http://www.w3.org/2000/svg">
<path d="M16.5566 19.0901H18.161C18.3338 19.0901 18.4923 18.9942 18.5725 18.8411C18.6527 18.6881 18.6413 18.5032 18.5429 18.3611L14.405 12.3841C14.3182 12.2588 14.1755 12.184 14.023 12.184C13.8706 12.184 13.7278 12.2588 13.641 12.3841L12.4186 14.1498V6.9062H14.023C14.1958 6.9062 14.3543 6.81031 14.4344 6.65724C14.5147 6.5042 14.5033 6.3193 14.4049 6.17719L10.2671 0.200139C10.1803 0.0747968 10.0376 0 9.88513 0C9.73265 0 9.58993 0.0747968 9.50315 0.200139L5.36526 6.17719C5.26691 6.3193 5.25553 6.5042 5.33572 6.65728C5.41595 6.81031 5.57446 6.9062 5.74724 6.9062H7.35161V9.78193L6.12917 8.01621C6.04238 7.89092 5.89967 7.81607 5.74719 7.81607C5.59477 7.81607 5.452 7.89087 5.36522 8.01621L1.22729 13.9932C1.12894 14.1353 1.11755 14.3202 1.19774 14.4733C1.27797 14.6263 1.43648 14.7222 1.60926 14.7222H3.21367V21.6092H0.22998V22.5383H19.5403V21.6092H16.5566V19.0901ZM7.35156 14.2577V21.6092H4.14283V14.2577C4.14283 14.0011 3.93484 13.7931 3.67825 13.7931H2.49595L5.74719 9.09691L8.99844 13.7931H7.81614C7.55955 13.7931 7.35156 14.0012 7.35156 14.2577ZM11.4895 21.6092H8.28076V14.7223H9.88513C10.0579 14.7223 10.2165 14.6264 10.2966 14.4733C10.3768 14.3203 10.3654 14.1354 10.2671 13.9933L8.28071 11.1241V6.44163C8.28076 6.18509 8.07277 5.97705 7.81618 5.97705H6.63388L9.88513 1.28074L13.1364 5.97705H11.9541C11.6976 5.97705 11.4895 6.18509 11.4895 6.44163V15.4919L9.50315 18.3611C9.4048 18.5032 9.39342 18.6881 9.4736 18.8411C9.55384 18.9942 9.71235 19.0901 9.88513 19.0901H11.4895V21.6092ZM15.6274 18.6255V21.6092H12.4187V18.6255C12.4187 18.369 12.2107 18.1609 11.9541 18.1609H10.7718L14.0231 13.4647L17.2743 18.1609H16.092C15.8355 18.1609 15.6274 18.369 15.6274 18.6255Z" fill="black"/>
<path d="M14.2529 9.89519H14.9378V10.5801H15.867V9.89519H16.5518V8.96603H15.867V8.28125H14.9378V8.96603H14.2529V9.89519Z" fill="black"/>
<path d="M15.8572 4.60155H16.7863V3.91676H17.4713V2.98761H16.7863V2.30273H15.8572V2.98761H15.1724V3.91676H15.8572V4.60155Z" fill="black"/>
<path d="M4.59308 3.22269H5.52223V2.5379H6.20707V1.60875H5.52223V0.923828H4.59308V1.60875H3.9082V2.5379H4.59308V3.22269Z" fill="black"/>
<path d="M0.914812 9.20116H1.84396V8.51628H2.5288V7.58713H1.84396V6.90234H0.914812V7.58713H0.22998V8.51628H0.914812V9.20116Z" fill="black"/>
<path d="M0.684878 18.8555H1.61403V18.1707H2.29886V17.2415H1.61403V16.5566H0.684878V17.2415H0V18.1707H0.684878V18.8555Z" fill="black"/>
<path d="M19.3152 13.3332V12.6484H18.386V13.3332H17.7012V14.2624H18.386V14.9473H19.3152V14.2624H20V13.3332H19.3152Z" fill="black"/>
</svg>
