<svg width="14" height="14" viewBox="0 0 14 14" fill="none" xmlns="http://www.w3.org/2000/svg">
<path d="M4.375 7.58333C3.85582 7.58333 3.34831 7.42938 2.91663 7.14094C2.48495 6.8525 2.1485 6.44253 1.94982 5.96288C1.75114 5.48322 1.69915 4.95542 1.80044 4.44622C1.90172 3.93702 2.15173 3.46929 2.51884 3.10218C2.88596 2.73507 3.35369 2.48506 3.86289 2.38377C4.37209 2.28249 4.89989 2.33447 5.37954 2.53315C5.8592 2.73183 6.26917 3.06828 6.55761 3.49996C6.84605 3.93164 7 4.43916 7 4.95833C6.99923 5.65429 6.72242 6.32152 6.2303 6.81364C5.73819 7.30575 5.07096 7.58256 4.375 7.58333ZM4.375 3.5C4.08657 3.5 3.80462 3.58553 3.56479 3.74577C3.32497 3.90602 3.13805 4.13378 3.02768 4.40025C2.9173 4.66673 2.88842 4.95995 2.94469 5.24284C3.00096 5.52573 3.13985 5.78558 3.3438 5.98953C3.54775 6.19348 3.8076 6.33238 4.09049 6.38865C4.37338 6.44492 4.6666 6.41604 4.93308 6.30566C5.19956 6.19528 5.42732 6.00836 5.58756 5.76854C5.7478 5.52872 5.83333 5.24677 5.83333 4.95833C5.83333 4.57156 5.67969 4.20063 5.4062 3.92714C5.13271 3.65365 4.76177 3.5 4.375 3.5ZM8.75 11.6667C8.74907 10.8934 8.44149 10.1521 7.8947 9.6053C7.34792 9.05852 6.6066 8.75093 5.83333 8.75H2.91667C2.1434 8.75093 1.40208 9.05852 0.855295 9.6053C0.308514 10.1521 0.00092625 10.8934 0 11.6667L0 14H1.16667V11.6667C1.16667 11.2025 1.35104 10.7574 1.67923 10.4292C2.00742 10.101 2.45254 9.91667 2.91667 9.91667H5.83333C6.29746 9.91667 6.74258 10.101 7.07077 10.4292C7.39896 10.7574 7.58333 11.2025 7.58333 11.6667V14H8.75V11.6667ZM10.2083 5.25C9.68916 5.25 9.18164 5.09605 8.74996 4.80761C8.31828 4.51917 7.98183 4.1092 7.78315 3.62955C7.58447 3.14989 7.53249 2.62209 7.63377 2.11289C7.73506 1.60369 7.98506 1.13596 8.35218 0.768846C8.71929 0.401733 9.18702 0.151726 9.69622 0.0504398C10.2054 -0.0508464 10.7332 0.00113738 11.2129 0.199817C11.6925 0.398497 12.1025 0.73495 12.3909 1.16663C12.6794 1.59831 12.8333 2.10583 12.8333 2.625C12.8326 3.32096 12.5558 3.98819 12.0636 4.4803C11.5715 4.97242 10.9043 5.24923 10.2083 5.25ZM10.2083 1.16667C9.9199 1.16667 9.63795 1.2522 9.39813 1.41244C9.15831 1.57269 8.97139 1.80045 8.86101 2.06692C8.75063 2.3334 8.72175 2.62662 8.77802 2.90951C8.83429 3.1924 8.97318 3.45225 9.17714 3.6562C9.38109 3.86015 9.64094 3.99904 9.92383 4.05531C10.2067 4.11158 10.4999 4.0827 10.7664 3.97233C11.0329 3.86195 11.2606 3.67503 11.4209 3.43521C11.5811 3.19539 11.6667 2.91343 11.6667 2.625C11.6667 2.23823 11.513 1.86729 11.2395 1.5938C10.966 1.32031 10.5951 1.16667 10.2083 1.16667ZM14 9.33333C13.9991 8.56007 13.6915 7.81874 13.1447 7.27196C12.5979 6.72518 11.8566 6.41759 11.0833 6.41667H8.75V7.58333H11.0833C11.5475 7.58333 11.9926 7.76771 12.3208 8.0959C12.649 8.42409 12.8333 8.86921 12.8333 9.33333V11.6667H14V9.33333Z" fill="#212529"/>
</svg>
