<svg width="124" height="153" viewBox="0 0 124 153" fill="none" xmlns="http://www.w3.org/2000/svg">
<path d="M37.5714 91L34 74.9149L39.3571 73L44 91H37.5714Z" fill="white"/>
<path d="M86.4286 91L90 74.9149L84.6429 73L80 91H86.4286Z" fill="white"/>
<path d="M87.4192 103.209V126.384C87.4192 129.474 84.9142 131.979 81.8246 131.979H42.4193C39.3297 131.979 36.8247 129.474 36.8247 126.384V103.209C36.8247 100.119 39.3297 97.6142 42.4193 97.6142H49.3006V95.6785C49.3006 92.9749 51.4909 90.7832 54.1958 90.7832H70.0481C72.753 90.7832 74.9433 92.9749 74.9433 95.6785V97.6128H81.8246C84.9142 97.6142 87.4192 100.119 87.4192 103.209ZM74.4776 114.795C74.4776 107.982 68.9347 102.439 62.122 102.439C55.3106 102.439 49.7677 107.982 49.7677 114.795C49.7677 121.608 55.3106 127.151 62.122 127.151C68.9347 127.151 74.4776 121.608 74.4776 114.795Z" fill="white"/>
<circle cx="62.5" cy="30.5" r="28" stroke="black" stroke-width="5"/>
<path d="M13.5395 99.3007C4.33947 111.701 2.70613 138.134 3.03946 149.801H121.039C122.239 125.401 114.539 105.967 110.539 99.3007C103.339 87.3006 93.2061 81.9673 89.0394 80.8007L86.5394 92.8007H80.0394L83.5394 78.3007C67.9394 68.7007 48.3728 74.3007 40.5394 78.3007L44.0394 92.8007H37.5394L34.5394 80.8007C26.5394 83.6007 17.2061 94.3007 13.5395 99.3007Z" stroke="black" stroke-width="5"/>
<path d="M43 103.5C39.4 103.5 37.5 107.167 37 109C36.8333 115.167 36.5 128.6 36.5 133C36.5 137.4 40.8333 138.167 43 138H82C86 138 87.3333 134.667 87.5 133V109C87.5 105 83.8333 103.667 82 103.5H75C75 98.7 71.6667 97.1667 70 97H55C51.4 97 49.8333 101.333 49.5 103.5H43Z" stroke="black" stroke-width="5"/>
<circle cx="62.5" cy="120.5" r="9" stroke="black" stroke-width="5"/>
</svg>
