<svg width="66" height="66" viewBox="0 0 66 66" fill="none" xmlns="http://www.w3.org/2000/svg">
<path d="M1.08377 33.5968C1.68201 33.5968 2.16754 33.1124 2.16754 32.5131C2.16754 15.7808 15.7808 2.16754 32.5131 2.16754C39.3701 2.16754 45.928 4.45971 51.2644 8.67015H45.5183C44.9201 8.67015 44.4345 9.1546 44.4345 9.75392C44.4345 10.3532 44.9201 10.8377 45.5183 10.8377H54.0963C54.1678 10.8442 54.235 10.8453 54.3055 10.8377H55.2711V1.08377C55.2711 0.484445 54.7856 0 54.1874 0C53.5891 0 53.1036 0.484445 53.1036 1.08377V7.38047C47.2989 2.60972 40.0789 0 32.5131 0C14.5854 0 0 14.5854 0 32.5131C0 33.1124 0.485528 33.5968 1.08377 33.5968Z" fill="white"/>
<path d="M32.5131 8.66895C19.3659 8.66895 8.67017 19.3647 8.67017 32.5119C8.67017 45.6591 19.3659 56.3548 32.5131 56.3548C45.6603 56.3548 56.356 45.6591 56.356 32.5119C56.356 19.3647 45.6603 8.66895 32.5131 8.66895ZM32.5131 54.1872C20.5613 54.1872 10.8377 44.4637 10.8377 32.5119C10.8377 20.5601 20.5613 10.8365 32.5131 10.8365C44.4649 10.8365 54.1885 20.5601 54.1885 32.5119C54.1885 44.4637 44.4649 54.1872 32.5131 54.1872Z" fill="white"/>
<path d="M32.513 16.256C33.1112 16.256 33.5967 15.7715 33.5967 15.1722V13.0047C33.5967 12.4053 33.1112 11.9209 32.513 11.9209C31.9147 11.9209 31.4292 12.4053 31.4292 13.0047V15.1722C31.4292 15.7715 31.9147 16.256 32.513 16.256Z" fill="white"/>
<path d="M32.513 48.7686C31.9147 48.7686 31.4292 49.253 31.4292 49.8523V52.0199C31.4292 52.6192 31.9147 53.1036 32.513 53.1036C33.1112 53.1036 33.5967 52.6192 33.5967 52.0199V49.8523C33.5967 49.253 33.1112 48.7686 32.513 48.7686Z" fill="white"/>
<path d="M49.8532 33.5972H52.0207C52.619 33.5972 53.1045 33.1128 53.1045 32.5135C53.1045 31.9141 52.619 31.4297 52.0207 31.4297H49.8532C49.2549 31.4297 48.7694 31.9141 48.7694 32.5135C48.7694 33.1128 49.2549 33.5972 49.8532 33.5972Z" fill="white"/>
<path d="M15.1727 31.4297H13.0052C12.4069 31.4297 11.9214 31.9141 11.9214 32.5135C11.9214 33.1128 12.4069 33.5972 13.0052 33.5972H15.1727C15.7709 33.5972 16.2565 33.1128 16.2565 32.5135C16.2565 31.9141 15.7709 31.4297 15.1727 31.4297Z" fill="white"/>
<path d="M33.5968 27.2493V21.6765C33.5968 21.0772 33.1113 20.5928 32.5131 20.5928C31.9148 20.5928 31.4293 21.0772 31.4293 21.6765V27.2493C29.5652 27.7337 28.178 29.4157 28.178 31.4305C28.178 32.2325 28.411 32.9737 28.7925 33.6186L19.8254 42.5857C19.4016 43.0094 19.4016 43.6944 19.8254 44.1181C20.0367 44.3295 20.3142 44.4357 20.5916 44.4357C20.8691 44.4357 21.1465 44.3295 21.3578 44.1181L30.3249 35.151C30.9698 35.5325 31.7111 35.7655 32.5131 35.7655C34.9039 35.7655 36.8481 33.8213 36.8481 31.4305C36.8481 29.4157 35.4609 27.7337 33.5968 27.2493ZM32.5131 33.598C31.3177 33.598 30.3455 32.6259 30.3455 31.4305C30.3455 30.2351 31.3177 29.2629 32.5131 29.2629C33.7085 29.2629 34.6806 30.2351 34.6806 31.4305C34.6806 32.6259 33.7085 33.598 32.5131 33.598Z" fill="white"/>
<path d="M12.8847 57.0714C12.527 57.5471 12.6246 58.2299 13.1123 58.5876C13.2965 58.7285 13.5241 58.7935 13.7517 58.7935C14.0877 58.7935 14.4128 58.6526 14.6295 58.36C14.9763 57.8842 14.8788 57.2014 14.4019 56.8438C13.9251 56.4861 13.2434 56.5837 12.8847 57.0714Z" fill="white"/>
<path d="M7.83546 50.1455C7.48865 49.6698 6.80588 49.5495 6.31818 49.8973C5.83049 50.255 5.72211 50.9269 6.06892 51.4135C6.28567 51.7072 6.6108 51.8687 6.95761 51.8687C7.17436 51.8687 7.39111 51.8037 7.58619 51.6639C8.0728 51.316 8.18227 50.6332 7.83546 50.1455Z" fill="white"/>
<path d="M8.25712 52.5094C7.81278 52.9093 7.76943 53.5931 8.17042 54.0364C8.37634 54.2857 8.67979 54.406 8.98325 54.406C9.23252 54.406 9.49262 54.3193 9.69854 54.135C10.1429 53.734 10.1862 53.0513 9.78524 52.6069C9.39617 52.1517 8.71339 52.1192 8.25712 52.5094Z" fill="white"/>
<path d="M11.9867 54.838C11.5531 54.437 10.8595 54.4695 10.4585 54.9041C10.0467 55.3474 10.0792 56.0313 10.5236 56.4431C10.7295 56.6273 10.9896 56.7249 11.2497 56.7249C11.5423 56.7249 11.8349 56.6056 12.0517 56.3781C12.4527 55.9337 12.431 55.2509 11.9867 54.8499C11.9867 54.838 11.9867 54.838 11.9867 54.838Z" fill="white"/>
<path d="M6.14534 47.5134C6.13451 47.5134 6.13451 47.5134 6.13451 47.5134C5.84189 46.9932 5.18079 46.8089 4.66058 47.1124C4.14037 47.4061 3.95613 48.0661 4.25959 48.5863C4.45466 48.932 4.82315 49.1282 5.20247 49.1282C5.37587 49.1282 5.57095 49.0848 5.73351 48.9873C6.25372 48.6947 6.43796 48.0325 6.14534 47.5134Z" fill="white"/>
<path d="M63.8772 34.8109C63.8989 34.8109 63.9097 34.8109 63.9206 34.8109C64.5058 34.8109 64.9827 34.3438 65.0043 33.7705C65.026 33.1625 64.56 32.664 63.9639 32.6434C63.3678 32.6206 62.8585 33.0877 62.8368 33.6838C62.8151 34.2799 63.28 34.7892 63.8772 34.8109Z" fill="white"/>
<path d="M1.36547 36.8361C1.96155 36.77 2.39505 36.239 2.33003 35.6429C2.265 35.0468 1.73395 34.6133 1.13788 34.6783C0.541809 34.7325 0.108302 35.2744 0.173328 35.8596C0.227516 36.4232 0.704374 36.835 1.24626 36.835C1.28961 36.8361 1.32212 36.8361 1.36547 36.8361Z" fill="white"/>
<path d="M1.97227 40.0237C2.5575 39.9045 2.93682 39.3301 2.80677 38.7449C2.68756 38.1597 2.11316 37.7793 1.52792 37.9093C0.942687 38.0285 0.563368 38.604 0.693421 39.1892C0.79096 39.6986 1.24614 40.0454 1.74468 40.0454C1.81946 40.0454 1.8964 40.0454 1.97227 40.0237Z" fill="white"/>
<path d="M4.72468 44.7057C4.48625 44.1638 3.84683 43.9146 3.29411 44.153C2.75222 44.3914 2.50296 45.0309 2.74138 45.5825C2.92563 45.9835 3.31578 46.2338 3.73845 46.2338C3.87934 46.2338 4.03107 46.2013 4.17196 46.1352C4.71276 45.8979 4.96203 45.2584 4.72468 44.7057Z" fill="white"/>
<path d="M3.60757 41.7806C3.43417 41.2062 2.81642 40.8919 2.25286 41.0761C1.67846 41.2604 1.36417 41.8673 1.54841 42.4427C1.70014 42.8979 2.12281 43.1895 2.57799 43.1895C2.68637 43.1895 2.80558 43.1786 2.91396 43.1461C3.4786 42.9619 3.79289 42.343 3.60757 41.7806Z" fill="white"/>
<path d="M31.928 62.8479C31.3319 62.836 30.8334 63.3139 30.8226 63.9089C30.8117 64.5169 31.2886 65.0035 31.8847 65.0154C31.8955 65.0154 31.9063 65.0154 31.9063 65.0154C32.5024 65.0154 32.9793 64.5483 32.9901 63.9533C32.9999 63.3572 32.5241 62.8587 31.928 62.8479Z" fill="white"/>
<path d="M56.4968 51.0889C56.1284 51.5549 56.2151 52.2387 56.6811 52.6061C56.887 52.7579 57.1146 52.8337 57.353 52.8337C57.6673 52.8337 57.9924 52.6928 58.2092 52.41C58.5777 51.944 58.491 51.2612 58.0141 50.8938C57.5373 50.5264 56.8653 50.612 56.4968 51.0889Z" fill="white"/>
<path d="M49.6681 57.5279C49.1804 57.8638 49.0503 58.5455 49.3971 59.0343C49.603 59.3378 49.939 59.5003 50.2858 59.5003C50.5026 59.5003 50.7085 59.4461 50.9036 59.3161C51.3912 58.9801 51.5213 58.2984 51.1745 57.8097C50.8385 57.3111 50.1677 57.1919 49.6681 57.5279Z" fill="white"/>
<path d="M52.1619 55.6182C51.7067 56.0084 51.6526 56.6912 52.0427 57.1463C52.2595 57.3956 52.5629 57.5267 52.8664 57.5267C53.1156 57.5267 53.3649 57.44 53.5708 57.2666C54.026 56.8765 54.0802 56.1937 53.69 55.7385C53.2988 55.2833 52.6171 55.2291 52.1619 55.6182Z" fill="white"/>
<path d="M59.7795 48.1628C59.2701 47.8485 58.5982 48.011 58.2839 48.5096C57.9696 49.0189 58.1213 49.6909 58.6307 50.0052C58.8149 50.1146 59.01 50.1677 59.2051 50.1677C59.5627 50.1677 59.9204 49.9943 60.1263 49.6573C60.4417 49.1501 60.2899 48.4771 59.7795 48.1628Z" fill="white"/>
<path d="M54.4487 53.462C54.026 53.8944 54.0477 54.5772 54.4812 54.9901C54.6871 55.1949 54.9581 55.2924 55.229 55.2924C55.5108 55.2924 55.8034 55.1841 56.0093 54.9565C56.4211 54.523 56.4103 53.8402 55.9768 53.4284C55.5433 53.0165 54.8594 53.0285 54.4487 53.462Z" fill="white"/>
<path d="M63.7788 35.8831C63.1936 35.7975 62.6408 36.2202 62.5541 36.8054C62.4674 37.4015 62.8793 37.9433 63.4753 38.03C63.5295 38.0409 63.5837 38.0409 63.6271 38.0409C64.1581 38.0409 64.6241 37.6518 64.7 37.1099C64.7878 36.5236 64.3759 35.9698 63.7788 35.8831Z" fill="white"/>
<path d="M63.2703 39.0893C62.685 38.9484 62.0998 39.3061 61.9481 39.8805C61.8072 40.4657 62.1648 41.0509 62.7392 41.2027C62.8259 41.2254 62.9126 41.2352 62.9993 41.2352C63.487 41.2352 63.9314 40.8992 64.0506 40.4115C64.2023 39.8274 63.8436 39.2421 63.2703 39.0893Z" fill="white"/>
<path d="M17.0142 58.5882C16.494 58.2858 15.8329 58.4473 15.5295 58.9686C15.2152 59.4779 15.3886 60.1499 15.898 60.4533C16.0714 60.5617 16.2664 60.6051 16.4507 60.6051C16.8192 60.6051 17.1768 60.4208 17.3827 60.074C17.697 59.5636 17.5247 58.9025 17.0142 58.5882Z" fill="white"/>
<path d="M62.4239 42.2335C61.8603 42.0287 61.2317 42.3202 61.0366 42.8837C60.8307 43.4484 61.1125 44.0661 61.6761 44.271C61.7953 44.3143 61.9253 44.3371 62.0446 44.3371C62.4889 44.3371 62.9116 44.0661 63.0633 43.6218C63.2703 43.0561 62.9874 42.4394 62.4239 42.2335Z" fill="white"/>
<path d="M61.2547 45.2704C60.7236 45.0113 60.0625 45.227 59.8024 45.7689C59.5423 46.3108 59.7699 46.9621 60.3009 47.2211C60.4527 47.297 60.6152 47.3306 60.7778 47.3306C61.1788 47.3306 61.569 47.103 61.7532 46.7226C62.0133 46.1796 61.7965 45.5305 61.2547 45.2704Z" fill="white"/>
<path d="M28.7957 62.6299C28.1996 62.5541 27.6685 62.9756 27.5927 63.5728C27.5168 64.1689 27.9395 64.7108 28.5355 64.7747V64.7866C28.5789 64.7866 28.6222 64.7866 28.6656 64.7866C29.2075 64.7866 29.6735 64.3856 29.7385 63.8318C29.8144 63.2368 29.3906 62.7047 28.7957 62.6299Z" fill="white"/>
<path d="M22.6944 61.2326C22.1308 61.0364 21.513 61.3301 21.318 61.9045C21.1229 62.4681 21.4263 63.0858 21.9899 63.2809C22.1091 63.3134 22.2283 63.3351 22.3475 63.3351C22.7919 63.3351 23.2146 63.0533 23.3663 62.609C23.5614 62.0346 23.2579 61.4168 22.6944 61.2326Z" fill="white"/>
<path d="M25.7069 62.0901C25.1217 61.9601 24.5473 62.3177 24.4064 62.903C24.2763 63.4882 24.6448 64.0734 25.2192 64.2035C25.3059 64.2252 25.3818 64.2252 25.4685 64.2252C25.9562 64.2252 26.4114 63.8892 26.5197 63.3907C26.6595 62.8054 26.2921 62.2202 25.7069 62.0901Z" fill="white"/>
<path d="M19.7897 60.0628C19.237 59.8027 18.5975 60.04 18.3483 60.5819C18.099 61.1238 18.3266 61.7751 18.8685 62.0233C19.0202 62.0894 19.1719 62.1209 19.3237 62.1209C19.7355 62.1209 20.1257 61.8933 20.3099 61.4934C20.5592 60.9515 20.3316 60.311 19.7897 60.0628Z" fill="white"/>
<path d="M38.1704 62.329C37.5851 62.4374 37.195 63.0118 37.3034 63.597C37.4009 64.1172 37.8669 64.4759 38.3763 64.4759C38.4413 64.4759 38.5063 64.4759 38.5714 64.464C39.1566 64.3459 39.5468 63.7813 39.4384 63.196C39.33 62.5999 38.7556 62.2206 38.1704 62.329Z" fill="white"/>
<path d="M41.2156 61.5897C40.6412 61.7512 40.3161 62.3591 40.4895 62.9325C40.6304 63.3996 41.0639 63.703 41.5299 63.703C41.6275 63.703 41.7358 63.6911 41.8442 63.6597C42.4186 63.4863 42.7437 62.8783 42.5703 62.305C42.3959 61.7414 41.79 61.4163 41.2156 61.5897Z" fill="white"/>
<path d="M44.1744 60.5276C43.6217 60.7552 43.3616 61.3947 43.5892 61.9485C43.7626 62.3603 44.1636 62.6085 44.5862 62.6085C44.7271 62.6085 44.868 62.5868 45.0089 62.5337C45.5616 62.2942 45.8217 61.6656 45.5941 61.1129C45.3546 60.5602 44.7271 60.3 44.1744 60.5276Z" fill="white"/>
<path d="M35.0587 62.749C34.4626 62.8043 34.0183 63.3234 34.0725 63.9195C34.1158 64.4841 34.5927 64.9165 35.1562 64.9165C35.1779 64.9165 35.2104 64.9165 35.2429 64.9165V64.9057C35.839 64.8624 36.2834 64.3422 36.2292 63.7461C36.1858 63.1511 35.6559 62.7057 35.0587 62.749Z" fill="white"/>
<path d="M47.0021 59.1752C46.471 59.4569 46.276 60.118 46.5686 60.6393C46.7637 61.0078 47.1321 61.2126 47.5223 61.2126C47.6957 61.2126 47.8691 61.1693 48.0317 61.0717C48.5627 60.79 48.7578 60.1289 48.4652 59.6087C48.1845 59.0776 47.5223 58.8825 47.0021 59.1752Z" fill="white"/>
</svg>
