<svg width="55" height="56" viewBox="0 0 55 56" fill="none" xmlns="http://www.w3.org/2000/svg">
<path d="M10.6706 54.9995L10.2438 50.0741C9.95924 48.9796 8.96335 46.6263 7.25609 45.9696C5.54883 44.7383 2.13432 40.9622 2.13432 35.7084C1.99205 34.6139 2.30505 32.3428 4.69521 32.0144C5.5488 32.1512 7.17063 32.9995 6.82918 35.298C7.11379 37.2134 8.70724 41.2905 11.0973 42.2756C13.5159 43.0965 18.6946 44.1637 21.7677 41.8651C22.7636 40.9074 24.8407 38.6637 25.1822 37.3502M21.3409 54.9995L21.7677 50.4845C22.0522 49.39 22.8774 47.0368 23.9017 46.3801C25.1822 45.5592 27.3162 43.9174 27.3162 43.5069C27.3162 43.0965 26.8894 41.8651 26.4626 40.6338C26.0358 39.4025 25.1822 38.5816 25.1822 36.1189C25.1822 33.6562 25.609 32.4248 27.3162 32.0144C28.1699 31.8776 29.8771 32.2607 29.8771 34.8875C29.8771 35.8453 30.2186 38.1712 31.5844 39.813C33.2916 41.8652 35.4257 43.0966 37.9866 43.0966C40.5475 43.0966 42.2547 43.507 44.8156 41.8652C46.8643 40.5518 47.661 38.0344 47.8033 36.9398L48.2301 34.0667C48.5147 33.2458 49.4252 31.6861 50.791 32.0145C52.1568 32.3428 52.7828 33.2459 52.9251 33.6564C53.0674 34.3405 53.2665 36.037 52.9251 37.3504C52.4983 38.9922 51.6446 41.4549 50.791 42.6863C50.1081 43.6713 48.2301 45.5594 47.3765 46.3803C46.8074 46.6539 45.4985 47.8579 44.8156 50.4848V54.9997" stroke="white"/>
<path d="M33.7187 55.0001L33.2919 50.8957C33.2919 50.0748 32.9505 48.1046 31.5847 46.7912C29.8774 45.1494 28.597 45.1494 27.7433 43.5076C27.0604 42.1942 26.6052 41.3186 26.4629 41.0449" stroke="white"/>
<path d="M21.6941 34.0669C21.6941 37.1727 19.0702 39.7236 15.7919 39.7236C12.5136 39.7236 9.88965 37.1727 9.88965 34.0669C9.88965 30.961 12.5136 28.4102 15.7919 28.4102C19.0702 28.4102 21.6941 30.961 21.6941 34.0669Z" stroke="white"/>
<path d="M44.7419 34.0669C44.7419 37.1727 42.118 39.7236 38.8397 39.7236C35.5614 39.7236 32.9375 37.1727 32.9375 34.0669C32.9375 30.961 35.5614 28.4102 38.8397 28.4102C42.118 28.4102 44.7419 30.961 44.7419 34.0669Z" stroke="white"/>
<path d="M33.6452 17.6489C33.6452 20.7548 31.0213 23.3056 27.743 23.3056C24.4647 23.3056 21.8408 20.7548 21.8408 17.6489C21.8408 14.543 24.4647 11.9922 27.743 11.9922C31.0213 11.9922 33.6452 14.543 33.6452 17.6489Z" stroke="white"/>
<path d="M16.2191 26.2686L14.9386 24.2164L14.085 21.3432L13.6582 18.8806C13.6582 18.0597 13.8289 16.3358 14.5118 16.0074C15.3655 15.597 17.0727 14.7761 18.3532 16.8283C18.4954 17.2388 18.78 18.388 18.78 19.7014C18.9222 20.9328 19.6336 23.6417 21.3409 24.6268C23.4749 25.8582 24.3286 27.0895 30.3039 26.6791C31.5844 26.1318 34.4867 24.4626 35.8525 22.1641C36.1371 21.3432 36.7062 19.291 36.7062 17.6492C36.7062 16.9651 37.2183 15.5149 39.267 15.1865C40.1207 15.1865 41.7426 15.7612 41.4011 18.0597C41.4011 20.1119 40.9743 24.6268 39.267 26.2686" stroke="white"/>
<rect x="2.56055" y="26.2686" width="5.12177" height="1.23134" rx="0.615672" fill="white"/>
<rect width="5.02981" height="1.25481" rx="0.627406" transform="matrix(0.739143 0.673548 -0.701879 0.712296 10.2705 9.03027)" fill="white"/>
<rect width="4.92538" height="1.28044" rx="0.64022" transform="matrix(-0.0062203 0.999981 -0.999983 -0.00575243 28.627 2.4707)" fill="white"/>
<rect width="5.01792" height="1.25778" rx="0.628892" transform="matrix(-0.697027 0.717045 -0.743677 -0.668539 45.4072 10.6904)" fill="white"/>
<rect width="3.19865" height="1.2419" rx="0.620951" transform="matrix(-0.894997 0.446073 -0.474431 -0.880293 52.0801 17.6201)" fill="white"/>
<rect width="2.68878" height="1.27278" rx="0.636389" transform="matrix(-0.411562 0.911382 -0.922767 -0.385359 38.1328 4.59473)" fill="white"/>
<rect width="2.68309" height="1.27532" rx="0.637662" transform="matrix(0.33717 0.941444 -0.949288 0.314407 19.1367 3.2832)" fill="white"/>
<rect width="2.75803" height="1.2409" rx="0.620449" transform="matrix(0.905693 0.423935 -0.451598 0.892222 3.97461 16.418)" fill="white"/>
<rect width="2.75803" height="1.2409" rx="0.620449" transform="matrix(0.905693 0.423935 -0.451598 0.892222 0.560547 14.7764)" fill="white"/>
<rect width="2.68309" height="1.27532" rx="0.637662" transform="matrix(0.33717 0.941444 -0.949288 0.314407 17.4297 0)" fill="white"/>
<rect width="2.24083" height="1.27278" rx="0.636389" transform="matrix(-0.411562 0.911382 -0.922767 -0.385359 39.6572 0.899414)" fill="white"/>
<rect width="2.61365" height="1.2419" rx="0.620951" transform="matrix(-0.894997 0.446073 -0.474431 -0.880293 55 15.8691)" fill="white"/>
</svg>
