<svg width="65" height="65" viewBox="0 0 65 65" fill="none" xmlns="http://www.w3.org/2000/svg">
<mask id="path-1-inside-1_1020_463" fill="white">
<path d="M64.8083 35.704C64.8069 35.702 64.8063 35.6996 64.8047 35.6975L53.0583 19.3547C52.8831 16.736 50.7887 14.1963 48.2377 13.5901L35.6116 10.5897V7.26054C35.6116 6.46417 35.3105 5.73711 34.8168 5.18614C35.3106 4.63517 35.6116 3.90798 35.6116 3.11173C35.6116 1.39584 34.2158 0 32.4999 0C30.784 0 29.3881 1.39584 29.3881 3.11173C29.3881 3.90811 29.6893 4.63517 30.183 5.18614C29.6891 5.73711 29.3881 6.4643 29.3881 7.26054V10.5897L16.7622 13.59C14.2112 14.1962 12.1167 16.7359 11.9415 19.3546L0.194999 35.6977C0.193476 35.6997 0.192841 35.7021 0.191445 35.7041C0.0712204 35.8732 0 36.0797 0 36.303C0 39.9251 2.94695 42.8721 6.56916 42.8721H19.3617C22.9838 42.8721 25.9308 39.9252 25.9308 36.303C25.9308 36.0797 25.8596 35.8732 25.7394 35.704C25.738 35.702 25.7374 35.6996 25.7358 35.6975L14.9883 20.7446H26.2765C26.8493 20.7446 27.3137 20.2802 27.3137 19.7074C27.3137 19.1345 26.8493 18.6702 26.2765 18.6702H14.1583C14.5825 17.2355 15.8234 15.9454 17.2417 15.6084L29.3883 12.7222V43.5636H29.0484C29.045 43.5636 29.0417 43.5636 29.0381 43.5636H27.6594C27.0866 43.5636 26.6222 44.028 26.6222 44.6009C26.6222 45.1644 27.072 45.6221 27.6321 45.6367L24.8037 54.6872C22.6546 55.0135 20.934 56.6629 20.5031 58.7762H15.9041C14.1882 58.7762 12.7924 60.1721 12.7924 61.888C12.7924 63.6039 14.1882 64.9997 15.9041 64.9997H49.0955C50.8114 64.9997 52.2072 63.6039 52.2072 61.888C52.2072 60.1721 50.8114 58.7762 49.0955 58.7762H44.4968C44.066 56.6627 42.3453 55.0136 40.1961 54.6872L37.3677 45.6367C37.9277 45.6221 38.3777 45.1644 38.3777 44.6009C38.3777 44.028 37.9133 43.5636 37.3404 43.5636H35.9612C35.9582 43.5636 35.9551 43.5636 35.9521 43.5636H35.6116V12.722L47.7582 15.6083C49.1766 15.9454 50.4173 17.2353 50.8416 18.67H38.7233C38.1505 18.67 37.6861 19.1344 37.6861 19.7072C37.6861 20.28 38.1505 20.7444 38.7233 20.7444H50.0116L39.264 35.6977C39.2625 35.6997 39.2619 35.7021 39.2605 35.7041C39.1404 35.8734 39.0692 36.0798 39.0692 36.303C39.0692 39.9251 42.0161 42.8721 45.6383 42.8721H58.4308C62.0529 42.8721 65 39.9252 65 36.303C64.9997 36.0797 64.9285 35.8732 64.8083 35.704ZM19.3617 40.7976H6.56916C4.44766 40.7976 2.66474 39.3201 2.19539 37.3402H23.7356C23.266 39.3203 21.483 40.7976 19.3617 40.7976ZM22.8706 35.2658H3.06007L12.9653 21.4846L22.8706 35.2658ZM32.4999 2.0744C33.0719 2.0744 33.5371 2.53969 33.5371 3.11161C33.5371 3.68366 33.0718 4.14881 32.4999 4.14881C31.9278 4.14881 31.4627 3.68353 31.4627 3.11161C31.4627 2.53969 31.9278 2.0744 32.4999 2.0744ZM31.4627 7.26054C31.4627 6.6885 31.9279 6.22334 32.4999 6.22334C33.0719 6.22334 33.5371 6.68862 33.5371 7.26054V43.5635H31.4627V7.26054ZM42.3487 58.7762H25.585C25.0122 58.7762 24.5478 59.2406 24.5478 59.8134C24.5478 60.3863 25.0122 60.8507 25.585 60.8507H49.0955C49.6675 60.8507 50.1327 61.3159 50.1327 61.8879C50.1327 62.4599 49.6674 62.9251 49.0955 62.9251H15.9042C15.3322 62.9251 14.867 62.4598 14.867 61.8879C14.867 61.3158 15.3323 60.8507 15.9042 60.8507H21.4361C22.0089 60.8507 22.4733 60.3863 22.4733 59.8134C22.4733 58.0984 23.8679 56.7031 25.5825 56.7017C25.5886 56.7017 39.411 56.7017 39.411 56.7017C40.7683 56.7027 41.9208 57.5696 42.3487 58.7762ZM38.0039 54.6273H26.9958L29.805 45.6381H35.1947L38.0039 54.6273ZM52.0343 21.4846L61.9395 35.2658H42.1291L52.0343 21.4846ZM58.4306 40.7976H45.6381C43.5166 40.7976 41.7336 39.3201 41.2643 37.3402H62.8045C62.335 39.3203 60.5521 40.7976 58.4306 40.7976Z"/>
</mask>
<path d="M64.8083 35.704C64.8069 35.702 64.8063 35.6996 64.8047 35.6975L53.0583 19.3547C52.8831 16.736 50.7887 14.1963 48.2377 13.5901L35.6116 10.5897V7.26054C35.6116 6.46417 35.3105 5.73711 34.8168 5.18614C35.3106 4.63517 35.6116 3.90798 35.6116 3.11173C35.6116 1.39584 34.2158 0 32.4999 0C30.784 0 29.3881 1.39584 29.3881 3.11173C29.3881 3.90811 29.6893 4.63517 30.183 5.18614C29.6891 5.73711 29.3881 6.4643 29.3881 7.26054V10.5897L16.7622 13.59C14.2112 14.1962 12.1167 16.7359 11.9415 19.3546L0.194999 35.6977C0.193476 35.6997 0.192841 35.7021 0.191445 35.7041C0.0712204 35.8732 0 36.0797 0 36.303C0 39.9251 2.94695 42.8721 6.56916 42.8721H19.3617C22.9838 42.8721 25.9308 39.9252 25.9308 36.303C25.9308 36.0797 25.8596 35.8732 25.7394 35.704C25.738 35.702 25.7374 35.6996 25.7358 35.6975L14.9883 20.7446H26.2765C26.8493 20.7446 27.3137 20.2802 27.3137 19.7074C27.3137 19.1345 26.8493 18.6702 26.2765 18.6702H14.1583C14.5825 17.2355 15.8234 15.9454 17.2417 15.6084L29.3883 12.7222V43.5636H29.0484C29.045 43.5636 29.0417 43.5636 29.0381 43.5636H27.6594C27.0866 43.5636 26.6222 44.028 26.6222 44.6009C26.6222 45.1644 27.072 45.6221 27.6321 45.6367L24.8037 54.6872C22.6546 55.0135 20.934 56.6629 20.5031 58.7762H15.9041C14.1882 58.7762 12.7924 60.1721 12.7924 61.888C12.7924 63.6039 14.1882 64.9997 15.9041 64.9997H49.0955C50.8114 64.9997 52.2072 63.6039 52.2072 61.888C52.2072 60.1721 50.8114 58.7762 49.0955 58.7762H44.4968C44.066 56.6627 42.3453 55.0136 40.1961 54.6872L37.3677 45.6367C37.9277 45.6221 38.3777 45.1644 38.3777 44.6009C38.3777 44.028 37.9133 43.5636 37.3404 43.5636H35.9612C35.9582 43.5636 35.9551 43.5636 35.9521 43.5636H35.6116V12.722L47.7582 15.6083C49.1766 15.9454 50.4173 17.2353 50.8416 18.67H38.7233C38.1505 18.67 37.6861 19.1344 37.6861 19.7072C37.6861 20.28 38.1505 20.7444 38.7233 20.7444H50.0116L39.264 35.6977C39.2625 35.6997 39.2619 35.7021 39.2605 35.7041C39.1404 35.8734 39.0692 36.0798 39.0692 36.303C39.0692 39.9251 42.0161 42.8721 45.6383 42.8721H58.4308C62.0529 42.8721 65 39.9252 65 36.303C64.9997 36.0797 64.9285 35.8732 64.8083 35.704ZM19.3617 40.7976H6.56916C4.44766 40.7976 2.66474 39.3201 2.19539 37.3402H23.7356C23.266 39.3203 21.483 40.7976 19.3617 40.7976ZM22.8706 35.2658H3.06007L12.9653 21.4846L22.8706 35.2658ZM32.4999 2.0744C33.0719 2.0744 33.5371 2.53969 33.5371 3.11161C33.5371 3.68366 33.0718 4.14881 32.4999 4.14881C31.9278 4.14881 31.4627 3.68353 31.4627 3.11161C31.4627 2.53969 31.9278 2.0744 32.4999 2.0744ZM31.4627 7.26054C31.4627 6.6885 31.9279 6.22334 32.4999 6.22334C33.0719 6.22334 33.5371 6.68862 33.5371 7.26054V43.5635H31.4627V7.26054ZM42.3487 58.7762H25.585C25.0122 58.7762 24.5478 59.2406 24.5478 59.8134C24.5478 60.3863 25.0122 60.8507 25.585 60.8507H49.0955C49.6675 60.8507 50.1327 61.3159 50.1327 61.8879C50.1327 62.4599 49.6674 62.9251 49.0955 62.9251H15.9042C15.3322 62.9251 14.867 62.4598 14.867 61.8879C14.867 61.3158 15.3323 60.8507 15.9042 60.8507H21.4361C22.0089 60.8507 22.4733 60.3863 22.4733 59.8134C22.4733 58.0984 23.8679 56.7031 25.5825 56.7017C25.5886 56.7017 39.411 56.7017 39.411 56.7017C40.7683 56.7027 41.9208 57.5696 42.3487 58.7762ZM38.0039 54.6273H26.9958L29.805 45.6381H35.1947L38.0039 54.6273ZM52.0343 21.4846L61.9395 35.2658H42.1291L52.0343 21.4846ZM58.4306 40.7976H45.6381C43.5166 40.7976 41.7336 39.3201 41.2643 37.3402H62.8045C62.335 39.3203 60.5521 40.7976 58.4306 40.7976Z" fill="white" stroke="#9570B2" stroke-width="0.6" mask="url(#path-1-inside-1_1020_463)"/>
</svg>
