<svg width="62" height="62" viewBox="0 0 62 62" fill="none" xmlns="http://www.w3.org/2000/svg">
<path d="M58.7368 38.837V13.2441C58.7368 5.94112 52.7957 0 45.4928 0H13.2441C5.94112 0 0 5.94112 0 13.2441V45.4928C0 52.7957 5.94112 58.7368 13.2441 58.7368H38.837C41.2877 60.7731 44.4322 62 47.8596 62C55.6564 62 62 55.6564 62 47.8596C62 44.4322 60.7731 41.2877 58.7368 38.837ZM13.2441 56.5614C7.14088 56.5614 2.17544 51.5971 2.17544 45.4928V13.2441C2.17544 7.13979 7.14088 2.17544 13.2441 2.17544H45.4928C51.596 2.17544 56.5614 7.13979 56.5614 13.2441V36.7301C56.4798 36.6659 56.3928 36.6115 56.3101 36.5495C56.0817 36.3777 55.8533 36.2069 55.614 36.0492C55.589 36.0329 55.5618 36.0187 55.5368 36.0024C54.9777 35.6391 54.3892 35.3193 53.779 35.0365C53.6964 34.9985 53.6159 34.9549 53.5332 34.918C53.2939 34.8125 53.0492 34.7222 52.8033 34.6297C52.6478 34.571 52.4922 34.5112 52.3345 34.4579C52.1094 34.3828 51.882 34.3165 51.6525 34.2523C51.4578 34.1979 51.262 34.1468 51.0652 34.1011C50.8574 34.0532 50.6507 34.0065 50.4397 33.9673C50.1895 33.9205 49.9372 33.8846 49.6838 33.852C49.5141 33.8302 49.3455 33.8031 49.1736 33.7867C48.7385 33.7443 48.3002 33.7193 47.8596 33.7193C41.1876 33.7193 35.5934 38.3704 34.1141 44.5965H29.3684C28.768 44.5965 28.2807 45.0827 28.2807 45.6842C28.2807 46.2857 28.768 46.7719 29.3684 46.7719H33.7748C33.7465 47.132 33.7193 47.4931 33.7193 47.8596C33.7193 48.3002 33.7454 48.7385 33.7857 49.1736C33.802 49.3466 33.8281 49.5152 33.8509 49.6859C33.8835 49.9372 33.9194 50.1885 33.9662 50.4365C34.0054 50.6486 34.0521 50.8585 34.1011 51.0673C34.1468 51.262 34.1968 51.4546 34.2501 51.6471C34.3154 51.8799 34.3817 52.1105 34.459 52.3378C34.5101 52.4912 34.5688 52.6413 34.6254 52.7925C34.7189 53.0426 34.8114 53.2917 34.918 53.5354C34.9495 53.6072 34.9876 53.6768 35.0202 53.7486C35.3106 54.3794 35.6413 54.9886 36.0187 55.5651C36.0285 55.5803 36.0372 55.5966 36.047 55.6107C36.2058 55.8511 36.3777 56.0806 36.5495 56.3112C36.6115 56.3939 36.6659 56.4798 36.729 56.5614H13.2441ZM47.8596 59.8246C44.7912 59.8246 41.9968 58.6531 39.8769 56.7463C39.6136 56.5103 39.3624 56.2645 39.1231 56.0078C39.0698 55.9512 39.0187 55.8935 38.9665 55.8359C38.7391 55.5825 38.5238 55.3214 38.3193 55.0517C38.2725 54.9897 38.2246 54.9277 38.1789 54.8646C37.9777 54.5861 37.7885 54.3 37.6122 54.0064C37.5764 53.9476 37.5394 53.89 37.5046 53.8291C37.3262 53.5212 37.1641 53.2058 37.014 52.8838C36.9901 52.8327 36.964 52.7838 36.9411 52.7315C36.7899 52.3954 36.6572 52.0517 36.5387 51.7026C36.5245 51.6591 36.506 51.6177 36.4919 51.5753C36.3755 51.2207 36.2787 50.8585 36.195 50.493C36.1852 50.4506 36.171 50.4093 36.1623 50.3658C36.084 50.0057 36.0285 49.6402 35.985 49.2726C35.9785 49.2215 35.9676 49.1714 35.9622 49.1192C35.9176 48.7037 35.8947 48.2839 35.8947 47.8596C35.8947 41.2626 41.2626 35.8947 47.8596 35.8947C48.2839 35.8947 48.7048 35.9176 49.1225 35.9633C49.1714 35.9687 49.2182 35.9796 49.2672 35.9861C49.637 36.0307 50.0057 36.0873 50.3679 36.1656C50.4093 36.1743 50.4484 36.1884 50.4898 36.1971C50.8574 36.2809 51.2207 36.3777 51.5775 36.4952C51.6177 36.5082 51.6569 36.5245 51.6971 36.5387C52.0495 36.6583 52.3965 36.7932 52.7359 36.9455C52.7838 36.9672 52.8305 36.9922 52.8784 37.014C53.2036 37.1652 53.5223 37.3294 53.8334 37.5089C53.89 37.5415 53.9454 37.5774 54.0009 37.6112C54.2979 37.7906 54.5872 37.9799 54.8689 38.1844C54.9287 38.2279 54.9875 38.2725 55.0462 38.3171C55.3203 38.5238 55.5857 38.7424 55.8424 38.973C55.8968 39.0219 55.9512 39.0698 56.0034 39.1198C56.2634 39.3624 56.5135 39.618 56.7539 39.8856C58.6563 42.0034 59.8246 44.7945 59.8246 47.8596C59.8246 54.4567 54.4567 59.8246 47.8596 59.8246Z" fill="white"/>
<path d="M54.3862 46.7695H48.9476V41.3309C48.9476 40.7294 48.4603 40.2432 47.8599 40.2432C47.2595 40.2432 46.7722 40.7294 46.7722 41.3309V46.7695H41.3336C40.7331 46.7695 40.2458 47.2557 40.2458 47.8572C40.2458 48.4587 40.7331 48.9449 41.3336 48.9449H46.7722V54.3835C46.7722 54.985 47.2595 55.4712 47.8599 55.4712C48.4603 55.4712 48.9476 54.985 48.9476 54.3835V48.9449H54.3862C54.9866 48.9449 55.4739 48.4587 55.4739 47.8572C55.4739 47.2557 54.9866 46.7695 54.3862 46.7695Z" fill="white"/>
<path d="M29.3681 15.2301H48.9471C49.5475 15.2301 50.0348 14.7439 50.0348 14.1424C50.0348 13.5409 49.5475 13.0547 48.9471 13.0547H29.3681C28.7677 13.0547 28.2804 13.5409 28.2804 14.1424C28.2804 14.7439 28.7677 15.2301 29.3681 15.2301Z" fill="white"/>
<path d="M29.3681 30.4557H48.9471C49.5475 30.4557 50.0348 29.9695 50.0348 29.368C50.0348 28.7665 49.5475 28.2803 48.9471 28.2803H29.3681C28.7677 28.2803 28.2804 28.7665 28.2804 29.368C28.2804 29.9695 28.7677 30.4557 29.3681 30.4557Z" fill="white"/>
<path d="M20.8505 7.99567L14.0544 15.923L9.89824 12.8045C9.41746 12.4444 8.73655 12.5412 8.37543 13.022C8.0143 13.5017 8.1122 14.1837 8.59297 14.5437L13.5649 18.2735C13.7607 18.4204 13.9891 18.4911 14.2176 18.4911C14.5254 18.4911 14.83 18.3616 15.0442 18.1104L22.5027 9.40862C22.8932 8.95286 22.841 8.26651 22.3853 7.87602C21.9295 7.48662 21.2421 7.53883 20.8505 7.99567Z" fill="white"/>
<path d="M20.8505 23.2232L14.0544 31.1505L9.89824 28.032C9.41746 27.672 8.73655 27.7688 8.37543 28.2496C8.0143 28.7292 8.1122 29.4112 8.59297 29.7713L13.5649 33.5011C13.7607 33.6479 13.9891 33.7186 14.2176 33.7186C14.5254 33.7186 14.83 33.5892 15.0442 33.3379L22.5027 24.6362C22.8932 24.1804 22.841 23.494 22.3853 23.1036C21.9295 22.7142 21.2421 22.7664 20.8505 23.2232Z" fill="white"/>
<path d="M20.8505 39.5394L14.0544 47.4656L9.89824 44.3482C9.41746 43.9893 8.73655 44.085 8.37543 44.5658C8.0143 45.0455 8.1122 45.7275 8.59297 46.0875L13.5649 49.8173C13.7607 49.9641 13.9891 50.0348 14.2176 50.0348C14.5254 50.0348 14.83 49.9054 15.0442 49.6541L22.5027 40.9535C22.8932 40.4977 22.841 39.8114 22.3853 39.4209C21.9295 39.0304 21.2421 39.0826 20.8505 39.5394Z" fill="white"/>
</svg>
