<svg width="57" height="68" viewBox="0 0 57 68" fill="none" xmlns="http://www.w3.org/2000/svg">
<path d="M33.2414 66.0322H19.9655L10.4828 57.5322L3.52874 50.5322L1 47.5322C6.2682 46.8656 17.5632 44.2322 20.5977 39.0322" stroke="white"/>
<path d="M13.6433 38.032C11.1145 38.532 5.55131 38.032 3.52832 32.032V15.532C4.58196 10.6986 10.103 1.03198 23.7582 1.03198C29.2371 0.698649 41.2065 2.83198 45.2525 14.032L45.8846 29.5322C45.8846 32.1987 43.9881 37.6318 36.4019 38.032" stroke="white"/>
<path d="M16.1732 8.53216C17.4376 8.19883 20.5985 7.83216 23.1273 9.03216C26.2882 10.5322 28.8169 12.0322 26.9204 17.5322C24.8131 19.0322 19.4606 22.4322 14.9089 24.0322C13.8552 24.5322 12.2537 26.0322 14.2767 28.0322C16.5945 30.6989 22.7474 35.2322 28.8164 32.0322C32.8202 30.0322 39.69 23.9322 35.1382 15.5322" stroke="white"/>
<path d="M29.4482 39.0322C29.8697 40.3656 31.7241 43.3322 35.7701 44.5322" stroke="white"/>
<path d="M36.4023 59.0321C37.9196 63.8321 43.3564 66.3654 45.8851 67.0321C51.4483 65.832 54.9464 61.1987 56 59.0321V51.0321C48.9196 45.8321 39.9847 48.5321 36.4023 50.5321V59.0321Z" stroke="white"/>
</svg>
