<svg width="59" height="59" viewBox="0 0 59 59" fill="none" xmlns="http://www.w3.org/2000/svg">
<path d="M47.1997 0H13.7664V21.6333H47.1997V0ZM45.233 19.6667H15.733V1.96667H45.233V19.6667Z" fill="white"/>
<path d="M44.25 18.6826V2.94922H16.7167V18.6826H44.25ZM33.8267 16.7159C32.3084 15.2792 30.3791 14.0275 28.3888 12.9723C31.7007 12.1611 37.6046 10.8887 42.2833 10.8159V16.7159H33.8267ZM42.2833 4.91589V8.85414C35.8356 8.98295 27.492 11.1473 25.6542 11.6458C22.6796 10.3242 19.9489 9.46085 18.6833 9.08915V4.91589H42.2833ZM18.6833 11.1473C21.1427 11.9094 26.7634 13.8455 30.739 16.7159H18.6833V11.1473Z" fill="white"/>
<path d="M59 39.4051C59 36.1512 56.3539 33.5051 53.1 33.5051H31.4667C26.4802 33.5051 25.4978 32.3319 23.7131 30.2001C23.5007 29.9474 23.2814 29.6848 23.0454 29.4124C18.1897 23.8133 9.91102 22.9765 4.59217 27.5451C4.36305 27.7408 4.1477 27.9443 3.94415 28.1518C2.03452 30.0919 0.983333 32.7951 0.983333 35.7628V40.0108C0.36285 40.945 0 42.063 0 43.2656C0 44.2883 0.276317 45.2736 0.789617 46.1625C0.294017 46.8764 0 47.7408 0 48.674C0 50.9455 1.72673 52.801 3.93333 53.0488V58.0156C3.93333 58.5594 4.37288 58.999 4.91667 58.999H6.88333C7.30617 58.999 7.6818 58.7295 7.81553 58.3273L9.56587 53.099H50.4253L52.1678 58.3264C52.3005 58.7285 52.6762 58.999 53.1 58.999H55.0667C55.6105 58.999 56.05 58.5594 56.05 58.0156V52.8276C57.7413 52.2248 58.9607 50.6357 58.9921 48.7477H59V39.4051ZM2.95 35.7628C2.95 33.3497 3.82418 31.0782 5.34638 29.5304C5.51158 29.3633 5.68662 29.1981 5.87247 29.0378C10.3732 25.1684 17.4099 25.9157 21.5586 30.7006C21.7857 30.9631 21.9991 31.2168 22.2046 31.4617C24.0799 33.7017 25.5608 35.4707 31.4657 35.4707H53.099C55.2683 35.4707 57.0324 37.2348 57.0324 39.4041V44.9973C56.3293 44.5263 55.4846 44.249 54.575 44.249H11.7085C11.7105 44.2391 11.7095 44.2283 11.7115 44.2185C11.7646 43.9028 11.8 43.5862 11.8 43.2656C11.8 40.0118 9.15385 37.3656 5.9 37.3656C5.66007 37.3656 5.42505 37.3843 5.192 37.4118C5.12022 37.4207 5.0504 37.4335 4.9796 37.4443C4.81243 37.4708 4.64822 37.5033 4.48695 37.5436C4.41615 37.5613 4.34535 37.578 4.27553 37.5977C4.06903 37.6567 3.86745 37.7245 3.67078 37.8052C3.65702 37.8111 3.64227 37.815 3.6285 37.8209C3.4043 37.9153 3.18895 38.0254 2.9795 38.1454C2.96967 38.1513 2.95885 38.1552 2.95 38.1611V35.7628ZM2.7553 40.9302C2.9323 40.6922 3.13487 40.4838 3.35022 40.295C3.38365 40.2665 3.41807 40.2389 3.45248 40.2104C3.6344 40.0619 3.83008 39.937 4.03265 39.8249C4.09657 39.7905 4.15852 39.7522 4.2244 39.7207C4.41517 39.6293 4.61577 39.5604 4.81932 39.5014C4.89405 39.4798 4.96485 39.4493 5.04155 39.4326C5.31983 39.3706 5.60697 39.3323 5.9 39.3323C8.06923 39.3323 9.83333 41.0964 9.83333 43.2656C9.83333 43.596 9.78515 43.9245 9.69763 44.249H4.425C3.6521 44.249 2.93525 44.4653 2.30297 44.8154C2.08467 44.3257 1.96667 43.8025 1.96667 43.2656C1.96667 42.479 2.20365 41.7493 2.60288 41.1347L2.7553 40.9302ZM6.17533 57.0323H5.9V53.1717H7.46743L6.17533 57.0323ZM54.0833 57.0323H53.809L52.4982 53.099H54.0833V57.0323ZM54.575 51.1323H51.1333H4.425C3.06898 51.1323 1.96667 50.03 1.96667 48.674C1.96667 48.1833 2.11417 47.728 2.36295 47.3445L2.4957 47.2088L2.7435 46.9689C2.75137 46.963 2.75825 46.9571 2.76513 46.9512L2.86838 46.8686L2.86642 46.8666C2.93328 46.8115 2.99818 46.7525 3.06898 46.7043C3.09947 46.6837 3.13192 46.6689 3.16535 46.6522L3.26368 46.6001L3.26172 46.5972C3.33743 46.5559 3.41118 46.5106 3.48985 46.4772C3.54 46.4575 3.59408 46.4438 3.64718 46.429L3.74552 46.4015L3.74453 46.3975C3.81042 46.3779 3.87433 46.3523 3.9412 46.3385C4.10247 46.3061 4.26472 46.2884 4.42598 46.2884H10.9956H54.575C55.9182 46.2884 57.0097 47.371 57.0294 48.7103C57.0097 50.0496 55.9182 51.1323 54.575 51.1323Z" fill="white"/>
</svg>
