<svg width="66" height="65" viewBox="0 0 66 65" fill="none" xmlns="http://www.w3.org/2000/svg">
<path d="M61.5 31L64.5 35" stroke="white" stroke-width="1.5"/>
<path d="M54.5 24.5L58 27.5" stroke="white" stroke-width="1.5"/>
<path d="M45.5 20.5L50 22.5" stroke="white" stroke-width="1.5"/>
<path d="M1 32L4.5 28.5M8.5 25.5L12.5 23" stroke="white" stroke-width="1.5"/>
<path d="M7.5 58.4989C7.5 50.6656 12.1 34.8989 30.5 34.4989C38.1667 33.8322 54.1 37.6989 56.5 58.4989" stroke="white" stroke-width="1.5"/>
<path d="M28.4998 35.5C26.6664 38.6667 24.0998 45.2 28.4998 46C33.9998 47 33.4998 48 33.4998 50C33.4998 52 33.9998 56 36.4998 58" stroke="white" stroke-width="1.5"/>
<path d="M9 54C10.8333 54.1667 14.5 55 14.5 57C14.5 59 14.5 58.8333 14.5 58.5" stroke="white" stroke-width="1.5"/>
<path d="M22 20.0003C22 22.0003 23.3333 22.167 24 22.0003L25.5 19H30.5C30.1667 20.3333 29.3 23.5 28.5 25.5C27.7 27.5 28.8333 27.6667 29.5 27.5H31.5L35.5 19.5H39.5C41 19.5 41.5 19 41.5 17C41.5 15.4 40.1667 15 39.5 15H35.5L31 7H29.5C27.9 7 28.1667 8.33333 28.5 9L30.5 15.5H25.5C25.3333 15.1668 24.8 14.3003 24 13.5003C23.2 12.7003 22.3333 13.167 22 13.5003V20.0003Z" stroke="white" stroke-width="1.5"/>
</svg>
