<svg width="14" height="15" viewBox="0 0 14 15" fill="none" xmlns="http://www.w3.org/2000/svg">
<path d="M6.38934 14.6484H7.61013C7.71864 14.6484 7.7729 14.5942 7.7729 14.4857V0.161676C7.7729 0.0531616 7.71864 -0.00109577 7.61013 -0.00109577H6.38934C6.28082 -0.00109577 6.22656 0.0531616 6.22656 0.161676V14.4857C6.22656 14.5942 6.28082 14.6484 6.38934 14.6484Z" fill="#E9E9E9"/>
<path d="M6.38934 14.6484H7.61013C7.71864 14.6484 7.7729 14.5942 7.7729 14.4857V0.161676C7.7729 0.0531616 7.71864 -0.00109577 7.61013 -0.00109577H6.38934C6.28082 -0.00109577 6.22656 0.0531616 6.22656 0.161676V14.4857C6.22656 14.5942 6.28082 14.6484 6.38934 14.6484Z" fill="#E9E9E9"/>
<path d="M0.164726 8.09766H13.8376C13.9461 8.09766 14.0004 8.0434 14.0004 7.93488V6.71409C14.0004 6.60557 13.9461 6.55132 13.8376 6.55132H0.164726C0.0562107 6.55132 0.00195312 6.60557 0.00195312 6.71409V7.93488C0.00195312 8.0434 0.0562107 8.09766 0.164726 8.09766Z" fill="#E9E9E9"/>
</svg>
