<svg width="20" height="17" viewBox="0 0 20 17" fill="none" xmlns="http://www.w3.org/2000/svg">
<path d="M14.7583 0C13.0563 0 11.5528 0.854452 10.6543 2.15641C10.6543 2.15641 10.351 2.61039 9.86978 2.61039C9.38905 2.61039 9.08567 2.15641 9.08567 2.15641C8.18677 0.854452 6.68415 0 4.98171 0C2.23021 0 0 2.23021 0 4.98258C0 5.63248 0.127736 6.25088 0.353864 6.82008C1.74947 11.1536 7.99128 16.2484 9.86978 16.4344C11.7487 16.2484 17.9897 11.1536 19.3861 6.82008C19.6123 6.25131 19.74 5.63248 19.74 4.98258C19.74 2.23021 17.5098 0 14.7583 0Z" fill="#E9E9E9"/>
</svg>
