<svg width="26" height="26" viewBox="0 0 26 26" fill="none" xmlns="http://www.w3.org/2000/svg">
<path d="M21.0645 11.0843C21.0645 10.8576 20.8807 10.6738 20.654 10.6738H10.809C10.5822 10.6738 10.3984 10.8577 10.3984 11.0843C10.3984 11.3111 10.5823 11.4949 10.809 11.4949H20.654C20.8807 11.4949 21.0645 11.311 21.0645 11.0843Z" fill="black"/>
<path d="M12.4418 14.5117C12.215 14.5117 12.0312 14.6955 12.0312 14.9222C12.0312 15.1489 12.2151 15.3327 12.4418 15.3327H12.4965C12.7232 15.3327 12.907 15.1489 12.907 14.9222C12.907 14.6955 12.7232 14.5117 12.4965 14.5117H12.4418Z" fill="black"/>
<path d="M23.2458 6.84445V2.6C23.2458 1.16639 22.0794 0 20.6458 0H5.33472C3.90112 0 2.73472 1.16639 2.73472 2.6V13.4138C1.21454 13.4855 0 14.7456 0 16.2842C0 17.8688 1.28827 19.1579 2.87178 19.1579H10.3725V20.5799C10.3725 20.7632 10.4586 20.9362 10.6087 21.0548C10.6087 21.0549 10.6088 21.0549 10.6088 21.0549C10.864 21.2565 11.249 21.2565 11.5044 21.0549L13.6315 19.375C13.8325 19.2162 13.9477 18.9875 13.9477 18.7474C13.9477 18.5073 13.8325 18.2785 13.6315 18.1198L11.5044 16.4399C11.249 16.2382 10.864 16.2382 10.6088 16.4398C10.4586 16.5584 10.3725 16.7315 10.3725 16.9148V18.3369H3.55575V2.6C3.55575 1.61911 4.35383 0.821031 5.33472 0.821031H20.6459C21.6268 0.821031 22.4248 1.61911 22.4248 2.6V6.84211H15.5887V5.42009C15.5887 5.23677 15.5026 5.0637 15.3524 4.94513C15.0972 4.74348 14.7122 4.74358 14.4569 4.94513L12.3298 6.62502C12.1288 6.78377 12.0135 7.01254 12.0135 7.25263C12.0135 7.49272 12.1288 7.72149 12.3298 7.88023L14.4569 9.56013C14.7122 9.76178 15.0972 9.76173 15.3523 9.56023C15.5026 9.44171 15.5887 9.26859 15.5887 9.08522V7.66314H22.8307C22.8337 7.6632 22.8368 7.6632 22.8398 7.66314H23.1282C24.259 7.66314 25.1789 8.58391 25.1789 9.71577C25.1789 10.8081 24.3221 11.7039 23.2458 11.7651V9.08629C23.2458 8.85955 23.062 8.67577 22.8353 8.67577C22.6085 8.67577 22.4247 8.8596 22.4247 9.08629V23.4C22.4247 24.3809 21.6267 25.179 20.6458 25.179H5.33472C4.35383 25.179 3.55575 24.3809 3.55575 23.4V20.6358C3.55575 20.409 3.37193 20.2253 3.14524 20.2253C2.9185 20.2253 2.73472 20.4091 2.73472 20.6358V23.4C2.73472 24.8336 3.90112 26 5.33472 26H20.6459C22.0795 26 23.2459 24.8336 23.2459 23.4V12.5871C24.775 12.5251 26 11.2609 26 9.71577C26 8.1707 24.775 6.90645 23.2458 6.84445ZM2.73472 18.3323C1.66755 18.2615 0.821082 17.37 0.821082 16.2842C0.821082 15.1984 1.66761 14.3069 2.73472 14.2361V18.3323ZM11.1936 17.2407L13.1014 18.7474L11.1936 20.2541V17.2407ZM14.7675 8.75931L12.8597 7.25263L14.7675 5.7459V8.75931Z" fill="black"/>
<path d="M20.6495 18.3359H15.7269C15.5001 18.3359 15.3164 18.5198 15.3164 18.7465C15.3164 18.9732 15.5001 19.157 15.7269 19.157H20.6495C20.8762 19.157 21.06 18.9731 21.06 18.7465C21.06 18.5197 20.8762 18.3359 20.6495 18.3359Z" fill="black"/>
<path d="M5.33239 15.3327H10.8018C11.0286 15.3327 11.2124 15.1489 11.2124 14.9222C11.2124 14.6955 11.0285 14.5117 10.8018 14.5117H5.33239C5.10565 14.5117 4.92188 14.6955 4.92188 14.9222C4.92188 15.1489 5.1057 15.3327 5.33239 15.3327Z" fill="black"/>
<path d="M20.6495 14.5117H15.7269C15.5001 14.5117 15.3164 14.6955 15.3164 14.9222C15.3164 15.1489 15.5001 15.3327 15.7269 15.3327H20.6495C20.8762 15.3327 21.06 15.1489 21.06 14.9222C21.06 14.6955 20.8762 14.5117 20.6495 14.5117Z" fill="black"/>
<path d="M10.6654 7.25427C10.6654 7.02753 10.4816 6.84375 10.2549 6.84375H5.33239C5.10565 6.84375 4.92188 7.02758 4.92188 7.25427C4.92188 7.481 5.1057 7.66478 5.33239 7.66478H10.2549C10.4816 7.66478 10.6654 7.481 10.6654 7.25427Z" fill="black"/>
<path d="M14.0297 15.3327H14.0843C14.3111 15.3327 14.4949 15.1489 14.4949 14.9222C14.4949 14.6955 14.3111 14.5117 14.0843 14.5117H14.0297C13.8029 14.5117 13.6191 14.6955 13.6191 14.9222C13.6191 15.1489 13.8029 15.3327 14.0297 15.3327Z" fill="black"/>
<path d="M9.10583 10.6738C8.87909 10.6738 8.69531 10.8577 8.69531 11.0843C8.69531 11.3111 8.87914 11.4949 9.10583 11.4949H9.16052C9.38726 11.4949 9.57104 11.311 9.57104 11.0843C9.57104 10.8576 9.38721 10.6738 9.16052 10.6738H9.10583Z" fill="black"/>
<path d="M5.33239 11.4949H7.52015C7.74689 11.4949 7.93067 11.311 7.93067 11.0843C7.93067 10.8576 7.74684 10.6738 7.52015 10.6738H5.33239C5.10565 10.6738 4.92188 10.8577 4.92188 11.0843C4.92188 11.311 5.1057 11.4949 5.33239 11.4949Z" fill="black"/>
</svg>
