<svg width="102" height="102" viewBox="0 0 102 102" fill="none" xmlns="http://www.w3.org/2000/svg">
<path d="M51.1699 35.5836C52.5737 35.5836 53.7107 34.4459 53.7107 33.0428C53.7107 31.6397 52.5737 30.502 51.1699 30.502C39.9444 30.502 30.8441 39.6022 30.8441 50.8285C30.8441 62.054 39.9444 71.1542 51.1699 71.1542C62.3961 71.1542 71.4964 62.054 71.4964 50.8285C71.4964 49.4246 70.3587 48.2877 68.9556 48.2877C67.5525 48.2877 66.4147 49.4246 66.4147 50.8285C66.4147 59.2478 59.59 66.0734 51.1699 66.0734C42.7505 66.0734 35.925 59.2478 35.925 50.8285C35.925 42.4084 42.7505 35.5836 51.1699 35.5836Z" fill="black"/>
<path d="M99.649 35.7388C99.2078 34.4057 97.7697 33.6828 96.4358 34.124C95.1331 34.5551 94.4079 35.9419 94.7962 37.2578C102.394 61.4543 88.9395 87.229 64.743 94.8273C40.5473 102.426 14.7726 88.9706 7.17429 64.7741C-0.424799 40.5776 13.031 14.8029 37.2267 7.2046C46.1838 4.39219 55.7867 4.39219 64.743 7.2046C66.0877 7.61004 67.5064 6.84896 67.9118 5.50423C68.311 4.17974 67.5787 2.77976 66.2628 2.35175C39.3955 -6.07768 10.7812 8.86916 2.35181 35.7372C-6.07762 62.6045 8.86998 91.2188 35.7372 99.6482C62.6053 108.078 91.2188 93.1308 99.6482 66.2628C102.766 56.3268 102.766 45.6748 99.649 35.7388Z" fill="black"/>
<path d="M56.0094 18.156C56.0227 16.7094 54.9114 15.5 53.4686 15.3919C52.7099 15.3273 51.9504 15.2627 51.1714 15.2627C31.5258 15.2627 15.6 31.1885 15.6 50.8341C15.6 70.4789 31.5258 86.4047 51.1714 86.4047C70.8162 86.4047 86.742 70.4789 86.742 50.8341C86.742 49.9151 86.686 48.9968 86.5732 48.0847C86.37 46.6902 85.0751 45.7245 83.6806 45.9276C82.2861 46.1299 81.3203 47.4256 81.5227 48.8201C81.5304 48.8731 81.5398 48.9252 81.5507 48.9781C81.6059 49.5937 81.6604 50.2038 81.6604 50.8326C81.6612 67.672 68.0108 81.3223 51.1722 81.3239C34.3328 81.3247 20.6824 67.6735 20.6816 50.8349C20.6808 33.9962 34.3304 20.3451 51.1698 20.3443H51.1706C51.801 20.3443 52.4118 20.3988 53.0258 20.4533L53.5021 20.493C54.8297 20.5498 55.9519 19.5194 56.0079 18.1918C56.0087 18.1794 56.0087 18.1677 56.0094 18.156Z" fill="black"/>
<path d="M66.415 22.8787V31.9898L49.3741 49.0308C48.3647 50.0059 48.3367 51.6144 49.3118 52.6237C50.2869 53.633 51.8954 53.661 52.9047 52.686C52.9257 52.6657 52.9468 52.6447 52.967 52.6237L70.008 35.5827H79.1191C79.793 35.5827 80.4389 35.315 80.916 34.838L96.1601 19.5931C97.1523 18.6009 97.1523 16.9924 96.1601 16.0002C95.6838 15.5239 95.0379 15.2562 94.364 15.2562H86.7416V7.63379C86.7416 6.2307 85.6038 5.09297 84.2 5.09375C83.5268 5.09375 82.8809 5.36145 82.4047 5.83771L67.1598 21.0826C66.6827 21.5588 66.415 22.2048 66.415 22.8787ZM71.4967 23.9308L81.6599 13.7675V17.797C81.6599 19.2001 82.7976 20.3379 84.2007 20.3379H88.2303L78.067 30.5011H71.4967V23.9308Z" fill="black"/>
</svg>
