<svg width="30" height="30" viewBox="0 0 30 30" fill="none" xmlns="http://www.w3.org/2000/svg">
<rect width="30" height="30" rx="6" fill="#50ABF1"/>
<path d="M25 8.62623C24.2562 8.9416 23.4637 9.15064 22.6375 9.25214C23.4875 8.76156 24.1363 7.99064 24.4413 7.06143C23.6488 7.51818 22.7737 7.84081 21.8412 8.02085C21.0887 7.24631 20.0162 6.7666 18.8462 6.7666C16.5762 6.7666 14.7487 8.54768 14.7487 10.7311C14.7487 11.0453 14.7762 11.3474 14.8438 11.635C11.435 11.4743 8.41875 9.89498 6.3925 7.48918C6.03875 8.08248 5.83125 8.76156 5.83125 9.4926C5.83125 10.8653 6.5625 12.0821 7.6525 12.7865C6.99375 12.7744 6.3475 12.5896 5.8 12.2984C5.8 12.3104 5.8 12.3261 5.8 12.3419C5.8 14.2679 7.22125 15.8678 9.085 16.2363C8.75125 16.3245 8.3875 16.3668 8.01 16.3668C7.7475 16.3668 7.4825 16.3523 7.23375 16.2991C7.765 17.8688 9.2725 19.0227 11.065 19.0602C9.67 20.1151 7.89875 20.7506 5.98125 20.7506C5.645 20.7506 5.3225 20.7361 5 20.6963C6.81625 21.8285 8.96875 22.4749 11.29 22.4749C18.835 22.4749 22.96 16.4333 22.96 11.1964C22.96 11.0211 22.9537 10.852 22.945 10.684C23.7587 10.1258 24.4425 9.42856 25 8.62623Z" fill="white"/>
</svg>
