<svg width="19" height="22" viewBox="0 0 19 22" fill="none" xmlns="http://www.w3.org/2000/svg">
<path d="M18.6295 15.2704L16.4245 13.9973L18.3354 12.8705C18.6878 12.6627 18.8051 12.2085 18.5973 11.8561C18.3893 11.5036 17.9353 11.3866 17.5827 11.5942L14.9506 13.1463L13.4015 12.252V9.45782L14.9497 8.56386L17.5828 10.1159C17.7009 10.1855 17.8304 10.2185 17.9584 10.2185C18.212 10.2185 18.4591 10.0881 18.5973 9.85372C18.8051 9.50128 18.6877 9.04709 18.3353 8.83926L16.424 7.71268L18.6295 6.43932C18.9838 6.23475 19.1052 5.78165 18.9006 5.42733C18.6961 5.07301 18.2428 4.95161 17.8886 5.15618L15.6835 6.42934L15.6635 4.21066C15.6599 3.80152 15.3245 3.47031 14.9161 3.47654C14.5068 3.48019 14.1782 3.81485 14.1818 4.224L14.2093 7.28033L12.6604 8.17457L10.2407 6.77744V4.98944L12.9015 3.48562C13.2576 3.28431 13.3832 2.8324 13.1819 2.4761C12.9806 2.1199 12.5285 1.99425 12.1724 2.19567L10.2407 3.28747V0.740844C10.2407 0.331701 9.90914 0 9.4999 0C9.09065 0 8.75905 0.331701 8.75905 0.740844V3.28747L6.82733 2.19576C6.47103 1.99425 6.01902 2.12 5.8178 2.4762C5.61649 2.8324 5.74204 3.28441 6.09824 3.48572L8.75905 4.98954V6.77774L6.33946 8.17467L4.7904 7.28033L4.81786 4.2241C4.82152 3.81495 4.49288 3.48029 4.08364 3.47663C4.08126 3.47663 4.07909 3.47663 4.07692 3.47663C3.67094 3.47663 3.33983 3.80389 3.33617 4.21086L3.31622 6.42934L1.11137 5.15628C0.756751 4.95161 0.30375 5.0731 0.0993756 5.42743C-0.105196 5.78175 0.0162036 6.23485 0.370525 6.43942L2.57597 7.71278L0.664393 8.83936C0.31185 9.04709 0.1945 9.50128 0.402332 9.85382C0.540425 10.0882 0.787472 10.2186 1.04124 10.2186C1.16906 10.2186 1.29865 10.1855 1.4167 10.116L4.05005 8.56396L5.59851 9.45801V12.2521L4.04926 13.1466L1.41679 11.5943C1.06445 11.3865 0.610361 11.5037 0.402332 11.8562C0.1945 12.2086 0.31185 12.6628 0.664195 12.8706L2.57528 13.9974L0.370525 15.2704C0.0162036 15.475 -0.105196 15.9281 0.0993756 16.2824C0.236679 16.52 0.485602 16.6529 0.741638 16.6529C0.867285 16.6529 0.994809 16.6208 1.11137 16.5535L3.31622 15.2806L3.33617 17.4992C3.33983 17.9061 3.67084 18.2335 4.07692 18.2335C4.07909 18.2335 4.08146 18.2335 4.08364 18.2334C4.49278 18.2297 4.82152 17.895 4.81786 17.4859L4.7903 14.4294L6.33936 13.535L8.75905 14.9322V16.7206L6.09824 18.2244C5.74214 18.4257 5.61649 18.8776 5.8178 19.2339C5.95402 19.4749 6.20502 19.6103 6.46342 19.6103C6.5869 19.6103 6.71215 19.5794 6.82733 19.5143L8.75905 18.4226V20.9691C8.75905 21.3782 9.09065 21.7099 9.4999 21.7099C9.90914 21.7099 10.2407 21.3782 10.2407 20.9691V18.4226L12.1725 19.5143C12.2876 19.5794 12.4129 19.6103 12.5364 19.6103C12.7948 19.6103 13.0458 19.4749 13.182 19.2339C13.3833 18.8776 13.2578 18.4257 12.9016 18.2244L10.2408 16.7206V14.9323L12.6606 13.535L14.2095 14.4292L14.1812 17.4856C14.1775 17.8947 14.5061 18.2295 14.9153 18.2333C14.9175 18.2334 14.9199 18.2334 14.9222 18.2334C15.3282 18.2334 15.6592 17.9061 15.6629 17.4993L15.6835 15.2802L17.8887 16.5534C18.0055 16.6208 18.1328 16.6528 18.2585 16.6528C18.5145 16.6528 18.7635 16.5198 18.9007 16.2823C19.1052 15.9281 18.9837 15.475 18.6295 15.2704ZM7.0802 9.45792L9.50009 8.06068L11.9198 9.45792V12.2519L9.50009 13.6491L7.0802 12.2519V9.45792Z" fill="#2598EB"/>
</svg>
