<svg width="27" height="28" viewBox="0 0 27 28" fill="none" xmlns="http://www.w3.org/2000/svg">
<g opacity="0.8">
<circle cx="17" cy="10" r="3" fill="#FFC928"/>
<path d="M8.70844 13.7887H8.6878C5.54847 13.7887 3 16.4055 3 19.5C3 21.5646 4.10695 25 8.34681 25H19.343C20.8607 25 22.0189 24.4724 22.8034 23.6425C23.5857 22.814 24 21.674 24 20.4105C24 18.0288 22.8563 16.2279 20.5 16C19.959 13.2422 16.955 10.5 14 10.5C11.841 10.5 9.78549 12.1127 8.70844 13.7887Z" fill="#77C0FA"/>
<path d="M10.6217 4.3877L11.3544 3.70718L13.6137 6.13985L12.881 6.82037L10.6217 4.3877Z" fill="#FBCA2E"/>
<path d="M8.72798 10.6503L8.72756 9.65029L12.0476 9.64892L12.048 10.6489L8.72798 10.6503Z" fill="#FBCA2E"/>
<rect x="16" y="2" width="1" height="3.32" fill="#FBCA2E"/>
<path d="M21.6996 3.83008L22.4149 4.52892L20.0001 7.00043L19.2849 6.30159L21.6996 3.83008Z" fill="#FBCA2E"/>
<path d="M24.4908 9.51351L24.5166 10.5132L21.0388 10.603L21.013 9.60334L24.4908 9.51351Z" fill="#FBCA2E"/>
<path d="M22.2559 15.3182L21.5318 16.0078L19.2414 13.603L19.9655 12.9133L22.2559 15.3182Z" fill="#FBCA2E"/>
</g>
</svg>
