<svg width="102" height="81" viewBox="0 0 102 81" fill="none" xmlns="http://www.w3.org/2000/svg">
<path d="M98.6065 13.0174C96.5703 10.8843 93.7586 9.62383 90.5589 9.62383H74.4639V9.42992C74.4639 7.00596 73.4943 4.67897 71.846 3.12764C70.1977 1.47935 67.9677 0.509766 65.5437 0.509766H36.4563C33.9354 0.509766 31.7053 1.47935 30.057 3.12764C28.4087 4.77593 27.4392 7.00596 27.4392 9.42992V9.62383H11.4411C8.24145 9.62383 5.42966 10.8843 3.39354 13.0174C1.35741 15.0535 0 17.9622 0 21.0649V69.3501C0 72.5497 1.26046 75.3615 3.39354 77.3976C5.42966 79.4337 8.3384 80.7911 11.4411 80.7911H90.5589C93.7586 80.7911 96.5703 79.5307 98.6065 77.3976C100.643 75.3615 102 72.4527 102 69.3501V21.0649C102 17.8653 100.74 15.0535 98.6065 13.0174ZM96.9582 69.3501H96.8612C96.8612 71.0953 96.1825 72.6467 95.019 73.8101C93.8555 74.9736 92.3042 75.6523 90.5589 75.6523H11.4411C9.69582 75.6523 8.14449 74.9736 6.98099 73.8101C5.81749 72.6467 5.13878 71.0953 5.13878 69.3501V21.0649C5.13878 19.3197 5.81749 17.7683 6.98099 16.6048C8.14449 15.4413 9.69582 14.7626 11.4411 14.7626H30.154C31.6084 14.7626 32.7719 13.5991 32.7719 12.1447V9.33296C32.7719 8.26642 33.1597 7.29684 33.8384 6.61813C34.5171 5.93942 35.4867 5.55159 36.5532 5.55159H65.5437C66.6103 5.55159 67.5799 5.93942 68.2586 6.61813C68.9373 7.29684 69.3251 8.26642 69.3251 9.33296V12.1447C69.3251 13.5991 70.4886 14.7626 71.943 14.7626H90.6559C92.4011 14.7626 93.9525 15.4413 95.116 16.6048C96.2795 17.7683 96.9582 19.3197 96.9582 21.0649V69.3501Z" fill="url(#paint0_linear_3004_2377)"/>
<path d="M51.0001 21.3555C44.407 21.3555 38.3956 24.0703 34.1294 28.3365C29.7663 32.6996 27.1484 38.614 27.1484 45.2072C27.1484 51.8003 29.8633 57.8117 34.1294 62.0779C38.4925 66.441 44.407 69.0589 51.0001 69.0589C57.5933 69.0589 63.6047 66.3441 67.8709 62.0779C72.234 57.7148 74.8519 51.8003 74.8519 45.2072C74.8519 38.614 72.137 32.6026 67.8709 28.3365C63.6047 24.0703 57.5933 21.3555 51.0001 21.3555ZM64.1865 58.4904C60.7929 61.787 56.1389 63.9201 51.0001 63.9201C45.8614 63.9201 41.2074 61.787 37.8138 58.4904C34.4203 55.0969 32.3842 50.4429 32.3842 45.3041C32.3842 40.1654 34.5173 35.5114 37.8138 32.1178C41.2074 28.7243 45.8614 26.6882 51.0001 26.6882C56.1389 26.6882 60.7929 28.8212 64.1865 32.1178C67.58 35.5114 69.6161 40.1654 69.6161 45.3041C69.7131 50.4429 67.58 55.0969 64.1865 58.4904Z" fill="url(#paint1_linear_3004_2377)"/>
<path d="M85.5171 30.7607C88.1409 30.7607 90.268 28.6336 90.268 26.0097C90.268 23.3859 88.1409 21.2588 85.5171 21.2588C82.8932 21.2588 80.7661 23.3859 80.7661 26.0097C80.7661 28.6336 82.8932 30.7607 85.5171 30.7607Z" fill="url(#paint2_linear_3004_2377)"/>
<defs>
<linearGradient id="paint0_linear_3004_2377" x1="51" y1="0.509766" x2="51" y2="80.7911" gradientUnits="userSpaceOnUse">
<stop stop-color="#7A3991"/>
<stop offset="1" stop-color="#D2288A"/>
</linearGradient>
<linearGradient id="paint1_linear_3004_2377" x1="51.0001" y1="21.3555" x2="51.0001" y2="69.0589" gradientUnits="userSpaceOnUse">
<stop stop-color="#7A3991"/>
<stop offset="1" stop-color="#D2288A"/>
</linearGradient>
<linearGradient id="paint2_linear_3004_2377" x1="85.5171" y1="21.2588" x2="85.5171" y2="30.7607" gradientUnits="userSpaceOnUse">
<stop stop-color="#7A3991"/>
<stop offset="1" stop-color="#D2288A"/>
</linearGradient>
</defs>
</svg>
