<svg width="29" height="41" viewBox="0 0 29 41" fill="none" xmlns="http://www.w3.org/2000/svg">
<path d="M14.0081 29.9486H14.0125C15.9927 29.9474 17.5972 28.3413 17.596 26.3608C17.5947 24.3806 15.9887 22.7761 14.0081 22.7773H14.0066C12.0264 22.778 10.4216 24.3834 10.4219 26.3639C10.4222 28.3441 12.0279 29.9493 14.0081 29.9486ZM14.0097 24.0522H14.0109C15.2871 24.0519 16.322 25.0862 16.3223 26.3624C16.3226 27.6385 15.2883 28.6734 14.0122 28.6737H14.0097C14.0091 28.6737 14.0088 28.6619 14.0081 28.6622C12.7407 28.6541 11.7173 27.6242 11.7176 26.3565C11.7179 25.0887 12.7423 24.0594 14.0097 24.0522Z" fill="#4E337A"/>
<path d="M22.343 27.6386H22.3919C24.3503 27.6255 25.9271 26.0272 25.9137 24.0688C25.9006 22.1107 24.3023 20.5339 22.3439 20.547H22.3424C20.3843 20.5473 18.7969 22.135 18.7969 24.0931C18.7972 26.0515 20.3849 27.6389 22.343 27.6386ZM22.3458 21.8219H22.3467C22.9549 21.8212 23.5385 22.0625 23.969 22.4923C24.3991 22.9224 24.641 23.5057 24.6407 24.1142C24.6438 24.7131 24.4063 25.2883 23.9817 25.7113C23.5575 26.134 22.9814 26.369 22.3822 26.3637H22.3439C21.0899 26.3634 20.0736 25.3462 20.074 24.0921C20.0743 22.8378 21.0914 21.8215 22.3455 21.8219H22.3458Z" fill="#4E337A"/>
<path d="M0.610023 38.3946H8.28711V40.0738C8.29769 40.4286 8.59058 40.7097 8.94573 40.7053H19.0718C19.2374 40.7056 19.3961 40.6384 19.5109 40.5192C19.6261 40.4003 19.6874 40.2394 19.6815 40.0738V38.3946H27.4383C27.6011 38.4008 27.7592 38.3392 27.8747 38.2243C27.9904 38.1098 28.053 37.952 28.048 37.7892V33.1166C28.0549 31.8109 27.5398 30.5566 26.6175 29.6325C25.6949 28.708 24.4412 28.191 23.1355 28.1954H21.634C19.7033 28.1957 17.9444 29.305 17.1121 31.0471C16.3931 30.6478 15.586 30.4346 14.764 30.4265H13.2606C12.4405 30.4346 11.6356 30.6468 10.9178 31.0434C10.0939 29.3031 8.34034 28.1938 6.41461 28.1954H4.92463C3.61954 28.1879 2.36519 28.7015 1.44076 29.6228C0.516025 30.5441 -0.00252517 31.7963 0.000276118 33.1014V37.7892C-0.00470396 37.952 0.0578581 38.1098 0.173645 38.2243C0.28912 38.3392 0.447237 38.4008 0.610023 38.3946ZM21.634 29.4703H23.1293C24.0979 29.4641 25.0286 29.8463 25.7133 30.5314C26.3981 31.2164 26.7797 32.1471 26.7731 33.1157V37.1197H19.6815V35.4012C19.6915 34.089 19.1763 32.8275 18.2507 31.8971C18.2186 31.8651 18.1928 31.8545 18.1601 31.8237C18.7294 30.4037 20.1045 29.4725 21.634 29.4703ZM13.2616 31.7014H14.7628C15.7357 31.7023 16.667 32.0948 17.3477 32.7898C18.0344 33.4842 18.4156 34.4239 18.4066 35.4003V39.4304H9.56201V35.3869C9.57415 33.351 11.2257 31.706 13.2616 31.7014ZM1.27517 33.1026C1.27206 32.1349 1.65646 31.2065 2.34215 30.5242C3.02816 29.8419 3.9585 29.4622 4.92588 29.4703H6.41305C7.93259 29.47 9.29713 30.4012 9.84992 31.8168C8.85826 32.7372 8.2924 34.0277 8.28711 35.3807V37.1197H1.27517V33.1026Z" fill="#4E337A"/>
<path d="M5.67041 27.6385H5.67227C7.6366 27.6385 9.20439 26.0922 9.24205 24.0968C9.24205 24.0927 9.24205 24.102 9.24205 24.098C9.23738 22.1309 7.63785 20.5404 5.67041 20.5469H5.66885C3.69892 20.5466 2.10156 22.143 2.10156 24.1129C2.10374 25.0548 2.4816 25.9571 3.15174 26.6188C3.82187 27.2809 4.72855 27.6479 5.67041 27.6385ZM4.04753 22.4866C4.4783 22.0565 5.06346 21.8168 5.67227 21.8218H5.67352C6.28078 21.8174 6.86469 22.0562 7.29484 22.4851C7.725 22.9056 7.96746 23.4814 7.96715 24.0831C7.93976 25.3738 6.93285 26.3636 5.67227 26.3636H5.67072C5.06439 26.3677 4.48173 26.1296 4.05095 25.7025C3.62048 25.2758 3.37771 24.6947 3.37677 24.0883C3.3749 23.4858 3.61675 22.9081 4.04753 22.4866Z" fill="#4E337A"/>
<path d="M6.99625 13.6064C7.1164 13.724 7.27887 13.7884 7.44695 13.7856L7.44757 13.7856L10.9943 13.7891C11.1627 13.7897 11.3242 13.7234 11.4438 13.6048C11.563 13.4862 11.6305 13.325 11.6308 13.1566L11.642 7.48585C11.6448 5.99743 12.8475 4.79007 14.3359 4.78167L14.3394 4.78167C15.8231 4.78976 17.0205 5.99681 17.0168 7.48056L17.0102 10.6603C17.0081 10.6827 17.0071 10.7052 17.0071 10.7276C17.0071 10.7465 17.0084 10.7662 17.0099 10.7851L17.0056 13.1463C17.0049 13.3156 17.0719 13.4781 17.1914 13.5983C17.3109 13.7181 17.4734 13.7856 17.643 13.7856L17.6446 13.7856L21.191 13.7751C21.5415 13.7738 21.825 13.4893 21.8247 13.1388L21.8278 10.7201L21.8278 10.7185L21.8359 7.47931C21.84 5.49506 21.0537 3.59112 19.6512 2.18799C18.2487 0.784853 16.3451 -0.00230933 14.3612 0.000803294L14.3378 0.000803292C10.2003 0.00080293 6.82693 3.37573 6.81759 7.51355L6.81354 10.4614C6.80856 10.5047 6.80856 10.5486 6.81354 10.5919L6.80981 13.1591C6.8095 13.3272 6.87642 13.4884 6.99625 13.6064ZM8.08533 12.5254L8.0872 11.1605L10.36 11.1562L10.3572 12.5226L8.08533 12.5254ZM18.2817 12.5086L18.2839 11.3638L20.5554 11.3594L20.5529 12.502L18.2817 12.5086ZM14.3412 1.2757L14.3605 1.2757C16.0068 1.27228 17.5867 1.92498 18.7508 3.08938C19.9149 4.25378 20.5669 5.83402 20.5632 7.48056L20.5579 10.0861L18.2864 10.0895L18.2917 7.48927C18.3001 5.29804 16.5306 3.51486 14.3394 3.50677L14.3344 3.50677C12.1435 3.51767 10.3718 5.29462 10.3671 7.48585L10.3625 9.87472L8.08906 9.88282L8.09249 7.51448C8.10525 4.07045 10.8969 1.28317 14.3412 1.2757Z" fill="#4E337A"/>
<path d="M19.663 15.1405C19.3091 15.1473 19.0256 15.4362 19.0256 15.7904L19.019 18.0096C19.0184 18.1783 19.085 18.3405 19.2042 18.46C19.3237 18.5795 19.4856 18.6464 19.6543 18.6464L19.6565 18.6464C19.8242 18.6486 19.9858 18.5836 20.1053 18.4662C20.2251 18.3486 20.293 18.1883 20.2939 18.0205L20.3008 15.7894C20.3026 15.4355 20.0191 15.1458 19.6652 15.1405L19.663 15.1405Z" fill="#4E337A"/>
<path d="M16.8688 13.9574L15.2992 15.5271C15.0501 15.7761 15.0501 16.1795 15.2992 16.4285C15.5482 16.6775 15.9519 16.6775 16.2005 16.4285L17.7705 14.8588C18.0192 14.6098 18.0192 14.2064 17.7705 13.9574C17.5215 13.7084 17.1178 13.7084 16.8688 13.9574Z" fill="#4E337A"/>
<path d="M21.1637 14.353C20.9146 14.6017 20.9146 15.0054 21.1637 15.2544L22.7333 16.824C22.9829 17.0684 23.3826 17.0662 23.6297 16.8191C23.8765 16.5722 23.879 16.1726 23.6347 15.9226L22.065 14.353C21.816 14.104 21.4127 14.104 21.1637 14.353Z" fill="#4E337A"/>
<path d="M9.08911 15.2198C8.92197 15.216 8.76043 15.2795 8.6406 15.3959C8.52076 15.5123 8.4526 15.672 8.45166 15.8392L8.44793 18.0357C8.44886 18.2019 8.51703 18.3606 8.63717 18.4758C8.75701 18.5907 8.91855 18.6523 9.08444 18.6461L9.08569 18.6461C9.25252 18.6504 9.41406 18.5875 9.5339 18.4714C9.65373 18.3557 9.72189 18.1963 9.72314 18.0295L9.72656 15.8314C9.72594 15.6652 9.65778 15.5061 9.53794 15.391C9.4178 15.2755 9.25626 15.2139 9.09005 15.2198L9.08911 15.2198Z" fill="#4E337A"/>
<path d="M4.86612 15.7373C4.6221 15.987 4.62427 16.3866 4.8711 16.6337C5.11824 16.8806 5.51789 16.8827 5.76751 16.6387L7.34059 15.0656C7.58959 14.8166 7.58959 14.4129 7.34059 14.1639C7.09159 13.9149 6.68789 13.9149 6.43889 14.1639L4.86612 15.7373Z" fill="#4E337A"/>
<path d="M10.9986 14.1894C10.7409 14.1894 10.5084 14.3447 10.4097 14.5828C10.3111 14.8209 10.3655 15.0951 10.5479 15.2775L12.1176 16.8472C12.3672 17.0937 12.7687 17.0924 13.0165 16.8444C13.2642 16.5966 13.2655 16.1951 13.0193 15.9458L11.4493 14.3761C11.3301 14.2563 11.1679 14.1891 10.9986 14.1894Z" fill="#4E337A"/>
</svg>
