<svg width="41" height="28" viewBox="0 0 41 28" fill="none" xmlns="http://www.w3.org/2000/svg">
<path d="M39.2165 11.4464C38.784 11.4464 38.433 11.7974 38.433 12.2299V15.7991H2.56696V1.78348C2.56696 1.35093 2.21603 1 1.78348 1C1.35093 1 1 1.35093 1 1.78348V27.029C1 27.4616 1.35093 27.8125 1.78348 27.8125C2.21603 27.8125 2.56696 27.4616 2.56696 27.029V21.7187H38.433V27.029C38.433 27.4616 38.784 27.8125 39.2165 27.8125C39.6491 27.8125 40 27.4616 40 27.029V12.2299C40 11.7974 39.6491 11.4464 39.2165 11.4464V11.4464ZM2.56696 20.1518V17.3661H38.433V20.1518H2.56696Z" fill="#4E337A" stroke="#4E337A" stroke-width="0.3"/>
<path d="M9.15234 14.748C11.5082 14.748 13.418 12.8383 13.418 10.4824C13.418 8.12653 11.5082 6.2168 9.15234 6.2168C6.79646 6.2168 4.88672 8.12653 4.88672 10.4824C4.88944 12.8375 6.79782 14.7453 9.15234 14.748ZM9.15234 7.78376C10.6426 7.78376 11.851 8.99217 11.851 10.4824C11.851 11.9729 10.6426 13.1811 9.15234 13.1811C7.66182 13.1811 6.45368 11.9729 6.45368 10.4824C6.45532 8.99272 7.66264 7.78567 9.15234 7.78376Z" fill="#4E337A" stroke="#4E337A" stroke-width="0.3"/>
<path d="M15.5799 14.7592H35.6022C36.0353 14.7592 36.3857 14.4083 36.3857 13.9757C36.3808 9.21825 32.5251 5.36286 27.7674 5.35742H15.5799C15.1473 5.35742 14.7964 5.70836 14.7964 6.1409V13.9757C14.7964 14.4083 15.1473 14.7592 15.5799 14.7592ZM16.3634 6.92439H27.7674C31.357 6.92928 34.372 9.6255 34.7752 13.1922H16.3634V6.92439Z" fill="#4E337A" stroke="#4E337A" stroke-width="0.3"/>
</svg>
