<svg width="42" height="42" viewBox="0 0 42 42" fill="none" xmlns="http://www.w3.org/2000/svg">
<path d="M37.0147 16.7519H32.9809V14.8364C32.9809 14.6672 32.9232 14.5049 32.8207 14.3853C32.7181 14.2656 32.5791 14.1983 32.4341 14.1982H6.17313C6.02811 14.1983 5.88906 14.2656 5.78652 14.3853C5.68398 14.5049 5.62633 14.6672 5.62625 14.8364V22.8953C5.62901 25.7722 6.34653 28.5866 7.69192 30.9974C9.03731 33.4083 10.9528 35.3122 13.2066 36.4787H1.54688C1.40186 36.4788 1.26281 36.5461 1.16027 36.6657C1.05773 36.7854 1.00008 36.9477 1 37.1169C1.00099 38.1465 1.35195 39.1336 1.97588 39.8617C2.59981 40.5898 3.44576 40.9993 4.32812 41.0005H34.2791C35.1614 40.9993 36.0074 40.5898 36.6313 39.8617C37.2552 39.1336 37.6062 38.1465 37.6072 37.1169C37.6071 36.9477 37.5495 36.7854 37.4469 36.6657C37.3444 36.5461 37.2053 36.4788 37.0603 36.4787H25.4006C27.6597 35.3043 29.5791 33.3919 30.9272 30.9724H37.0147C38.0712 30.9713 39.0842 30.4811 39.8313 29.6094C40.5784 28.7378 40.9988 27.5559 41 26.3231V21.4002C40.9985 20.1676 40.5781 18.9859 39.831 18.1145C39.0838 17.2431 38.071 16.7531 37.0147 16.7519V16.7519ZM32.9809 20.9455H37.0147C37.1182 20.9457 37.2175 20.9938 37.2907 21.0792C37.3639 21.1646 37.4051 21.2805 37.4053 21.4013V26.3242C37.4051 26.445 37.3639 26.5608 37.2907 26.6463C37.2175 26.7317 37.1182 26.7798 37.0147 26.78H32.5369C32.8316 25.5141 32.9809 24.2081 32.9809 22.8964V20.9455ZM36.4456 37.7561C36.3233 38.3186 36.044 38.8175 35.6516 39.1741C35.2593 39.5307 34.7764 39.7246 34.2791 39.7253H4.32812C3.83083 39.7246 3.34789 39.5307 2.95555 39.1741C2.56322 38.8175 2.28386 38.3186 2.16156 37.7561H36.4456ZM20.2466 36.4798H18.3606C15.274 36.4762 12.3147 35.0438 10.1322 32.497C7.94957 29.9502 6.72198 26.497 6.71875 22.8953V15.4745H31.8872V22.8953C31.8837 26.4966 30.6562 29.9492 28.4739 32.4958C26.2916 35.0423 23.3328 36.4747 20.2466 36.4787V36.4798ZM39.9062 26.3231C39.9053 27.2173 39.6005 28.0747 39.0586 28.707C38.5167 29.3393 37.782 29.6951 37.0156 29.6961H31.5625C31.7992 29.1645 32.008 28.6165 32.1875 28.0552H37.0141C37.4076 28.0546 37.7849 27.8719 38.0631 27.5472C38.3414 27.2225 38.4979 26.7823 38.4984 26.3231V21.4002C38.4979 20.941 38.3414 20.5008 38.0631 20.176C37.7849 19.8513 37.4076 19.6687 37.0141 19.6681H32.9809V18.0271H37.0147C37.7811 18.0282 38.5158 18.3839 39.0577 19.0163C39.5996 19.6486 39.9044 20.5059 39.9053 21.4002L39.9062 26.3231Z" fill="#4E337A" stroke="#4E337A" stroke-width="0.5"/>
<path d="M13.8056 11.4153C13.8056 11.5845 13.8632 11.7469 13.9658 11.8665C14.0683 11.9862 14.2074 12.0534 14.3525 12.0534C14.4975 12.0534 14.6366 11.9862 14.7392 11.8665C14.8417 11.7469 14.8993 11.5845 14.8993 11.4153C14.8872 10.9401 14.9783 10.4691 15.164 10.046C15.4132 9.45897 15.5368 8.81023 15.5243 8.15528C15.5368 7.50045 15.4132 6.85183 15.164 6.2649C14.9785 5.84226 14.8874 5.37176 14.8993 4.89708C14.8872 4.42237 14.9783 3.95181 15.164 3.52925C15.4134 2.94213 15.537 2.29323 15.5243 1.63815C15.5243 1.4689 15.4667 1.30658 15.3642 1.18691C15.2616 1.06723 15.1225 1 14.9775 1C14.8324 1 14.6933 1.06723 14.5908 1.18691C14.4882 1.30658 14.4306 1.4689 14.4306 1.63815C14.4427 2.11285 14.3517 2.58341 14.1659 3.00597C13.9164 3.59301 13.7927 4.24197 13.8056 4.89708C13.793 5.55204 13.9166 6.20082 14.1659 6.78782C14.3517 7.21076 14.4428 7.68168 14.4306 8.15674C14.4428 8.63191 14.3517 9.10296 14.1659 9.52602C13.9169 10.1126 13.7932 10.7608 13.8056 11.4153V11.4153Z" fill="#4E337A" stroke="#4E337A" stroke-width="0.5"/>
<path d="M18.4423 11.4177C18.4423 11.587 18.4999 11.7493 18.6024 11.869C18.705 11.9887 18.8441 12.0559 18.9891 12.0559C19.1342 12.0559 19.2733 11.9887 19.3758 11.869C19.4784 11.7493 19.536 11.587 19.536 11.4177C19.5239 10.9426 19.6149 10.4715 19.8007 10.0485C20.05 9.46148 20.1737 8.81269 20.161 8.15772C20.1736 7.50287 20.05 6.85422 19.8007 6.26735C19.6151 5.84471 19.5241 5.3742 19.536 4.89952C19.5239 4.42482 19.6149 3.95426 19.8007 3.5317C20.05 2.9451 20.1737 2.29667 20.161 1.64205C20.161 1.47281 20.1034 1.31049 20.0008 1.19082C19.8983 1.07114 19.7592 1.00391 19.6141 1.00391C19.4691 1.00391 19.33 1.07114 19.2274 1.19082C19.1249 1.31049 19.0673 1.47281 19.0673 1.64205C19.0794 2.11676 18.9883 2.58732 18.8026 3.00988C18.5534 3.59656 18.4298 4.24493 18.4423 4.89952C18.4298 5.55447 18.5534 6.2032 18.8026 6.79026C18.9884 7.2132 19.0794 7.68413 19.0673 8.15918C19.0794 8.63436 18.9884 9.10541 18.8026 9.52846C18.5537 10.1151 18.43 10.7633 18.4423 11.4177V11.4177Z" fill="#4E337A" stroke="#4E337A" stroke-width="0.5"/>
<path d="M23.0829 11.4153C23.0829 11.5845 23.1405 11.7469 23.2431 11.8665C23.3457 11.9862 23.4848 12.0534 23.6298 12.0534C23.7748 12.0534 23.9139 11.9862 24.0165 11.8665C24.1191 11.7469 24.1767 11.5845 24.1767 11.4153C24.1644 10.9401 24.2554 10.469 24.4414 10.046C24.6904 9.45893 24.8139 8.8102 24.8014 8.15528C24.8139 7.50048 24.6904 6.85187 24.4414 6.2649C24.2556 5.84233 24.1646 5.37178 24.1767 4.89708C24.1641 4.42186 24.2552 3.95071 24.4414 3.52779C24.6904 2.94107 24.8139 2.29271 24.8014 1.63815C24.8014 1.4689 24.7437 1.30658 24.6412 1.18691C24.5386 1.06723 24.3995 1 24.2545 1C24.1094 1 23.9703 1.06723 23.8678 1.18691C23.7652 1.30658 23.7076 1.4689 23.7076 1.63815C23.7198 2.11285 23.6287 2.58341 23.4429 3.00597C23.1937 3.59312 23.0702 4.24202 23.0829 4.89708C23.0705 5.55202 23.1941 6.20075 23.4432 6.78782C23.629 7.21076 23.7201 7.68168 23.7079 8.15674C23.7201 8.63191 23.6291 9.10296 23.4432 9.52602C23.1943 10.1127 23.0707 10.7608 23.0829 11.4153V11.4153Z" fill="#4E337A" stroke="#4E337A" stroke-width="0.5"/>
</svg>
