<svg width="33" height="40" viewBox="0 0 33 40" fill="none" xmlns="http://www.w3.org/2000/svg">
<path d="M30.8276 35.451V31.0603C30.8276 28.7853 30.0636 26.5571 28.6719 24.7603V22.573C28.6719 21.3929 27.7119 20.4328 26.5317 20.4328H20.7198C19.7991 19.7734 19.9332 18.767 19.9217 18.7152C20.2869 18.4966 20.6388 18.2406 20.9752 17.9447C22.0726 16.9801 22.7693 15.6018 22.9356 14.097C23.7598 14.0007 24.4002 13.2914 24.3966 12.4373L24.3918 10.2028C24.391 10.0178 24.3589 9.83495 24.2984 9.66137C24.359 9.48927 24.3925 9.30574 24.3925 9.11629V5.17754C24.3925 4.0956 23.5124 3.20113 22.4307 3.18354C22.3224 3.18181 22.2362 3.09555 22.2345 2.98726C22.2174 1.8915 21.312 1 20.216 1H13.9968C11.1669 1 8.8646 3.30235 8.8646 6.13228V9.11637C8.8646 9.20732 8.87241 9.29694 8.88697 9.3846C8.58898 9.75552 8.42321 10.218 8.42354 10.7034L8.42452 12.0542C8.42535 13.1508 9.26834 14.0539 10.3401 14.1504C10.5189 15.6538 11.227 17.0264 12.3325 17.9817C12.5168 18.1409 12.7058 18.2873 12.8985 18.4237C12.8699 18.5804 13.1006 19.7163 12.1004 20.4329H6.28835C5.10831 20.4329 4.14814 21.3929 4.14814 22.5731V24.7604C2.75645 26.5571 1.99248 28.7855 1.99248 31.0604V35.451C1.40086 35.7831 1 36.4163 1 37.1417C1.00008 38.2102 1.8693 39.0794 2.93776 39.0794H29.8823C30.9508 39.0794 31.82 38.2101 31.82 37.1416C31.8201 36.4163 31.4192 35.7831 30.8276 35.451V35.451ZM28.6719 27.0871C29.2726 28.318 29.5942 29.679 29.5942 31.0603V35.2039H28.6719V27.0871ZM10.0979 6.13219C10.0979 3.98237 11.8469 2.23332 13.9968 2.23332H20.216C20.6424 2.23332 20.9946 2.58007 21.0012 3.00634V3.00642C21.0134 3.78462 21.6325 4.40403 22.4106 4.41669C22.8233 4.42344 23.1591 4.76468 23.1591 5.17746V9.11637C23.1591 9.64485 22.289 9.72296 22.0004 9.15009C21.9998 9.14902 21.9993 9.14795 21.9987 9.1468C21.7191 8.58617 21.0954 8.29813 20.4816 8.44639C17.8872 9.0732 15.9713 7.45851 15.0603 6.44022C13.8422 5.0787 11.5522 5.84234 11.4628 7.67633C11.4574 7.78841 11.4607 7.70223 11.4622 9.88511L10.3754 9.5067C10.2094 9.4489 10.0979 9.29209 10.0979 9.11629V6.13219ZM11.5304 13.5264C11.5219 13.192 11.2484 12.9254 10.9139 12.9254C10.9139 12.9254 10.9138 12.9254 10.9137 12.9254L10.5312 12.9255C10.531 12.9255 10.5309 12.9255 10.5308 12.9255C10.0497 12.9255 9.65826 12.5343 9.65793 12.0533C9.66319 10.6511 9.64329 10.6904 9.67429 10.5331C9.92262 10.6799 10.0083 10.6743 11.0822 11.0588C11.8647 11.3312 12.6971 10.752 12.6958 9.91036C12.6944 8.42731 12.6924 7.78709 12.6949 7.73611C12.7302 7.01268 13.6533 6.71724 14.1412 7.26273C15.0616 8.29155 16.8458 9.82443 19.3036 9.82435C19.7691 9.82435 20.259 9.76934 20.7715 9.6455C20.8222 9.63317 20.8725 9.65406 20.8944 9.69607C20.8947 9.69673 20.8951 9.69739 20.8954 9.69805C21.313 10.5354 22.2683 10.9532 23.1596 10.7096L23.1634 12.4414C23.1644 12.6794 22.9771 12.874 22.746 12.875L22.3543 12.8766C22.0188 12.878 21.746 13.1474 21.7403 13.4828C21.7167 14.8685 21.1411 16.1572 20.1611 17.0186C18.0608 18.8649 15.2158 18.8432 13.139 17.0486C12.1519 16.1955 11.5656 14.9118 11.5304 13.5264V13.5264ZM19.0996 20.4329H13.7206C13.9485 20.0319 14.0882 19.5815 14.1229 19.1137C15.5413 19.7224 17.1468 19.8217 18.714 19.2804C18.7665 19.6883 18.8988 20.0798 19.0996 20.4329ZM3.22597 31.0604C3.22597 29.6791 3.54756 28.3182 4.14823 27.0872V30.0837C4.14823 30.4243 4.42434 30.7004 4.76493 30.7004C5.10551 30.7004 5.38163 30.4243 5.38163 30.0837V22.5731C5.38163 22.073 5.78841 21.6663 6.28843 21.6663H26.5318C27.0318 21.6663 27.4386 22.073 27.4386 22.5731V35.204H5.38163V32.9676C5.38163 32.627 5.10551 32.3509 4.76493 32.3509C4.42434 32.3509 4.14823 32.627 4.14823 32.9676V35.204H3.22597V31.0604ZM29.8823 37.846H2.93776C2.5494 37.846 2.23349 37.53 2.23349 37.1416C2.23349 36.7474 2.55754 36.4373 2.93776 36.4373H29.8823C30.2617 36.4373 30.5866 36.7467 30.5866 37.1417C30.5867 37.5301 30.2708 37.846 29.8823 37.846Z" fill="#4E337A" stroke="#4E337A" stroke-width="0.4"/>
<path d="M16.4016 32.14C18.1644 32.14 19.5986 30.7059 19.5986 28.9431C19.5986 27.1803 18.1644 25.7461 16.4016 25.7461C14.6387 25.7461 13.2046 27.1802 13.2046 28.9431C13.2046 30.7059 14.6388 32.14 16.4016 32.14ZM16.4016 26.9795C17.4843 26.9795 18.3652 27.8603 18.3652 28.9431C18.3652 30.0258 17.4843 30.9066 16.4016 30.9066C15.3189 30.9066 14.438 30.0258 14.438 28.9431C14.438 27.8604 15.3189 26.9795 16.4016 26.9795Z" fill="#4E337A" stroke="#4E337A" stroke-width="0.4"/>
</svg>
