<svg width="32" height="36" viewBox="0 0 32 36" fill="none" xmlns="http://www.w3.org/2000/svg">
<path d="M3.68336 10.7033L1.24513 32.7801C1.11434 33.9644 2.04155 34.9996 3.23305 34.9996H28.7464C29.9452 34.9996 30.8747 33.9523 30.7323 32.762L28.0909 10.6853C27.9706 9.67976 27.1177 8.92285 26.105 8.92285H5.67127C4.65167 8.92285 3.79529 9.68986 3.68336 10.7033Z" stroke="#4E337A" stroke-width="1.8"/>
<path d="M10.1202 12.6496L10.3546 5.60226C10.3583 5.48888 10.3706 5.37618 10.398 5.26606C10.7933 3.67258 12.4127 0.8283 16.1202 1.00814C19.7701 1.18518 21.3963 3.7601 21.8232 5.21423C21.8655 5.35843 21.8802 5.50773 21.8802 5.65801V12.6496" stroke="#4E337A" stroke-width="1.8"/>
</svg>
