<svg width="35" height="34" viewBox="0 0 35 34" fill="none" xmlns="http://www.w3.org/2000/svg">
<path d="M11.5241 24.6699C9.22173 24.6699 7.35547 26.5362 7.35547 28.8386C7.35547 31.1406 9.22173 33.0069 11.5241 33.0069C13.8262 33.0069 15.6924 31.1406 15.6924 28.8386C15.6901 26.5374 13.8253 24.6723 11.5241 24.6699ZM11.5241 31.4744C10.0682 31.4744 8.88799 30.2942 8.88799 28.8386C8.88799 27.3827 10.0682 26.2024 11.5241 26.2024C12.9797 26.2024 14.1599 27.3827 14.1599 28.8386C14.1599 30.2942 12.9797 31.4744 11.5241 31.4744Z" fill="#4E337A"/>
<path d="M34.241 7.17654H7.18424L6.63259 4.08844C6.29256 2.18746 4.80254 0.700431 2.90096 0.364294L0.900898 0.0119934C0.483944 -0.0622381 0.086147 0.215831 0.0119155 0.632485C-0.0620168 1.04944 0.215753 1.44724 0.632707 1.52147L2.64025 1.87377C3.90698 2.09826 4.89863 3.08991 5.12312 4.35663L7.83556 19.6588C8.15583 21.4898 9.74672 22.8253 11.6055 22.8235H27.697C29.3876 22.8286 30.8806 21.722 31.3676 20.1033L34.969 8.16489C35.0357 7.93202 34.9935 7.68119 34.854 7.48304C34.7083 7.29117 34.4817 7.17803 34.241 7.17654ZM29.9039 19.651C29.6147 20.6232 28.7189 21.2883 27.7048 21.2832H11.6133C10.4971 21.2862 9.54169 20.4831 9.35282 19.3828L7.46021 8.70127H33.2141L29.9039 19.651Z" fill="#4E337A"/>
<path d="M27.6061 24.6699C25.3038 24.6699 23.4375 26.5362 23.4375 28.8386C23.4375 31.1406 25.3038 33.0069 27.6061 33.0069C29.9082 33.0069 31.7745 31.1406 31.7745 28.8386C31.7721 26.5374 29.9073 24.6723 27.6061 24.6699ZM27.6061 31.4744C26.1502 31.4744 24.97 30.2942 24.97 28.8386C24.97 27.3827 26.1502 26.2024 27.6061 26.2024C29.0617 26.2024 30.242 27.3827 30.242 28.8386C30.242 30.2942 29.0617 31.4744 27.6061 31.4744Z" fill="#4E337A"/>
</svg>
