<svg width="38" height="39" viewBox="0 0 38 39" fill="none" xmlns="http://www.w3.org/2000/svg">
<path d="M34.3382 1H3.63452C2.93654 1 2.26715 1.27727 1.7736 1.77082C1.28005 2.26437 1.00278 2.93376 1.00278 3.63174V34.774C0.9692 35.5473 1.2411 36.3027 1.75977 36.8772C2.27843 37.4516 3.00224 37.7991 3.77488 37.8444H27.3202C27.4353 37.8458 27.5493 37.8231 27.6551 37.7778C27.7609 37.7325 27.856 37.6655 27.9343 37.5812L36.7068 28.8088C36.791 28.7304 36.858 28.6353 36.9033 28.5296C36.9487 28.4238 36.9713 28.3097 36.9699 28.1947V3.63174C36.9699 2.93376 36.6927 2.26437 36.1991 1.77082C35.7056 1.27727 35.0362 1 34.3382 1V1ZM28.1975 34.8442V29.9492C28.1975 29.7165 28.2899 29.4934 28.4544 29.3289C28.6189 29.1644 28.842 29.0719 29.0747 29.0719H33.9698L28.1975 34.8442ZM29.0747 27.3174C28.3767 27.3174 27.7073 27.5947 27.2138 28.0883C26.7202 28.5818 26.443 29.2512 26.443 29.9492V36.0899H3.77488C3.46926 36.0421 3.19352 35.8791 3.00428 35.6344C2.81504 35.3897 2.72666 35.0819 2.75727 34.774V3.63174C2.75727 3.39908 2.8497 3.17595 3.01421 3.01144C3.17873 2.84692 3.40186 2.7545 3.63452 2.7545H34.3382C34.5709 2.7545 34.794 2.84692 34.9585 3.01144C35.123 3.17595 35.2154 3.39908 35.2154 3.63174V27.3174H29.0747Z" fill="#4E337A" stroke="#4E337A" stroke-width="0.4"/>
</svg>
