<svg width="42" height="42" viewBox="0 0 42 42" fill="none" xmlns="http://www.w3.org/2000/svg">
<path d="M12.2818 23.9157C12.2833 23.7668 12.2243 23.6199 12.1201 23.5135C12.0154 23.4067 11.8702 23.3452 11.7212 23.3437C11.5714 23.3421 11.4254 23.4012 11.3191 23.5054C11.2123 23.6101 11.1502 23.7548 11.1487 23.9047C11.1472 24.0536 11.2058 24.2001 11.3105 24.3069C11.4147 24.4132 11.5604 24.4753 11.7093 24.4768C11.8587 24.4778 12.0051 24.4192 12.112 24.3145C12.2183 24.2103 12.2799 24.0651 12.2818 23.9157Z" fill="#4E337A"/>
<path d="M24.2604 6.90383C24.2859 4.37385 23.0808 1.97318 21.0365 0.482128C20.8411 0.339653 20.5768 0.336982 20.3784 0.475632C18.3044 1.92475 17.051 4.30056 17.0254 6.83054L16.9681 12.4991L15.5482 13.648C15.4683 13.4902 15.3642 13.3438 15.237 13.2141C14.9117 12.8821 14.4765 12.6967 14.0119 12.692C13.5471 12.6874 13.1082 12.8639 12.7763 13.1891C12.4443 13.5144 12.2589 13.9495 12.2544 14.4143L12.2349 16.3281L10.8323 17.4628C10.5513 16.8918 9.96658 16.4953 9.28825 16.4884C8.32879 16.4789 7.54057 17.2513 7.53071 18.2108L7.51112 20.1497L5.69796 21.6165C5.56656 21.7229 5.48938 21.8822 5.48767 22.0512L5.45157 25.6227C5.44974 25.8033 5.53392 25.9736 5.67833 26.0817C5.82258 26.1901 6.00969 26.2229 6.18232 26.1705L9.72365 25.0963C9.81389 25.0689 9.89245 25.021 9.9555 24.9592C10.1014 24.8163 10.1646 24.5988 10.1013 24.3898C10.0106 24.0905 9.69423 23.9213 9.39479 24.0121L6.59216 24.8625L6.61777 22.3294L16.9534 13.9682L16.8748 21.7431L13.7312 22.6968C13.4319 22.7875 13.2628 23.1037 13.3537 23.4032C13.4445 23.7026 13.7608 23.8716 14.0602 23.7808L16.8627 22.9306L16.8501 24.1886C16.8374 25.4414 16.962 26.6768 17.2174 27.8787L13.7625 31.3918C13.6598 31.4962 13.6015 31.6366 13.5999 31.7832L13.5811 33.6455C13.5791 33.8413 13.6785 34.0243 13.844 34.1294C14.0095 34.2343 14.2176 34.2463 14.394 34.1611L18.7164 32.0729C19.0662 32.75 19.4638 33.4067 19.908 34.0396C20.0129 34.1889 20.1833 34.2784 20.3659 34.2804C20.5173 34.282 20.6617 34.2229 20.768 34.1187C20.7898 34.0973 20.8101 34.074 20.8285 34.0489C21.2854 33.4252 21.6961 32.7764 22.0596 32.1067L26.339 34.2818C26.5136 34.3706 26.7216 34.3628 26.8893 34.2611C26.9269 34.2385 26.9613 34.2116 26.9919 34.1816C27.098 34.0777 27.1604 33.9347 27.162 33.7826L27.1808 31.9206C27.1823 31.7739 27.1266 31.632 27.0257 31.5256L23.6415 27.9496C23.9222 26.751 24.0721 25.5165 24.0848 24.2619L24.0976 23.0039L34.7101 26.4589C34.8817 26.5148 35.0696 26.4855 35.216 26.3805C35.2396 26.3635 35.2617 26.345 35.2821 26.325C35.3886 26.2206 35.4503 26.0774 35.452 25.9262L35.4881 22.3543C35.4896 22.1855 35.4158 22.0245 35.2868 21.9156L33.5035 20.4123L33.5231 18.4733C33.5328 17.514 32.7602 16.7257 31.8007 16.7158C31.1222 16.7091 30.5296 17.0938 30.2371 17.6589L28.8578 16.4961L28.8771 14.5822C28.8818 14.1176 28.7052 13.6788 28.38 13.347C28.0547 13.0149 27.6197 12.8294 27.1549 12.8248C26.6901 12.82 26.2514 12.9966 25.9194 13.3219C25.7896 13.4491 25.6825 13.5933 25.5996 13.7496L24.2031 12.5724L24.2604 6.90383ZM13.3872 14.4256C13.3888 14.2636 13.4536 14.1118 13.5694 13.9983C13.6852 13.8848 13.8382 13.8231 14.0005 13.8249C14.1627 13.8264 14.3144 13.8912 14.4279 14.007C14.5359 14.1171 14.5962 14.2612 14.6006 14.4146L13.3773 15.404L13.3872 14.4256ZM8.66367 18.2222C8.66705 17.8874 8.94217 17.6178 9.27695 17.6212C9.61143 17.6246 9.88104 17.8997 9.87781 18.2343L9.8778 18.2353L8.65352 19.2256L8.66367 18.2222ZM14.7233 32.7439L14.7304 32.0232L17.5441 29.1623C17.7348 29.8039 17.964 30.4336 18.2311 31.0491L14.7233 32.7439ZM26.0457 32.1381L26.0384 32.8583L22.5653 31.0931C22.8442 30.4846 23.0857 29.8611 23.2891 29.225L26.0457 32.1381ZM22.9521 24.2504C22.9394 25.5095 22.7786 26.7467 22.4772 27.9438C22.4714 27.9622 22.4666 27.9811 22.4627 28.0001C22.0367 29.6648 21.3378 31.2506 20.3818 32.7063C18.7792 30.1555 17.9523 27.2317 17.9829 24.2002L18.1584 6.842C18.1763 5.0487 18.9154 3.34609 20.1772 2.10952C20.3414 1.94862 20.5143 1.79563 20.6955 1.65149C22.2459 2.93635 23.1481 4.86568 23.1276 6.89223L22.9727 22.2163C22.9727 22.2182 22.9726 22.2201 22.9726 22.222L22.9521 24.2504ZM31.1761 18.4496C31.1795 18.1148 31.4546 17.8455 31.7893 17.8488C32.1241 17.8521 32.3937 18.1273 32.3903 18.462L32.3801 19.4655L31.1761 18.4506L31.1761 18.4496ZM26.7124 14.1312C26.8282 14.0176 26.9812 13.956 27.1436 13.9576C27.3057 13.9593 27.4574 14.024 27.5709 14.1398C27.6845 14.2557 27.7461 14.4087 27.7443 14.5709L27.7344 15.5493L26.5315 14.5352C26.539 14.3819 26.6023 14.2391 26.7124 14.1312ZM34.3526 22.6099L34.327 25.143L24.1095 21.8164L24.1882 14.0413L34.3526 22.6099Z" fill="#4E337A"/>
<path d="M21.1259 15.7222C21.1292 15.4095 20.8782 15.1533 20.5653 15.1502C20.2524 15.147 19.9962 15.398 19.9931 15.7109L19.9285 22.1006C19.9252 22.4133 20.1762 22.6695 20.4891 22.6727C20.6455 22.6742 20.7877 22.6123 20.8912 22.5109C20.9949 22.4093 21.0597 22.2684 21.0613 22.1119L21.1259 15.7222Z" fill="#4E337A"/>
<path d="M20.9822 13.8596C21.0857 13.7582 21.1505 13.6173 21.1521 13.4608L21.152 13.4538C21.1553 13.141 20.9043 12.8849 20.5914 12.8817C20.2787 12.8784 20.0226 13.1294 20.0194 13.4423L20.0193 13.4492C20.0162 13.7621 20.2672 14.0182 20.5801 14.0214C20.7365 14.023 20.8787 13.9611 20.9822 13.8596Z" fill="#4E337A"/>
</svg>
