<svg width="42" height="42" viewBox="0 0 42 42" fill="none" xmlns="http://www.w3.org/2000/svg">
<path d="M15.9016 9.69336H12.071C11.526 9.69336 11.0826 10.1306 11.0826 10.6681V12.4634C11.0826 13.0008 11.526 13.4381 12.071 13.4381H15.9016C16.4465 13.4381 16.8899 13.0008 16.8899 12.4634V10.6681C16.8899 10.1306 16.4465 9.69336 15.9016 9.69336ZM15.7004 12.2648H12.2722V10.8665H15.7004V12.2648Z" fill="#4E337A" stroke="#4E337A" stroke-width="0.5"/>
<path d="M22.9097 9.69336H19.0791C18.5342 9.69336 18.0908 10.1306 18.0908 10.6681V12.4634C18.0908 13.0008 18.5342 13.4381 19.0791 13.4381H22.9097C23.4547 13.4381 23.8981 13.0008 23.8981 12.4634V10.6681C23.8981 10.1306 23.4547 9.69336 22.9097 9.69336ZM22.7085 12.2648H19.2804V10.8665H22.7085V12.2648Z" fill="#4E337A" stroke="#4E337A" stroke-width="0.5"/>
<path d="M29.9234 9.69336H26.0928C25.5479 9.69336 25.1045 10.1306 25.1045 10.6681V12.4634C25.1045 13.0008 25.5479 13.4381 26.0928 13.4381H29.9234C30.4683 13.4381 30.9117 13.0008 30.9117 12.4634V10.6681C30.9117 10.1306 30.4683 9.69336 29.9234 9.69336ZM29.7222 12.2648H26.2941V10.8665H29.7222V12.2648Z" fill="#4E337A" stroke="#4E337A" stroke-width="0.5"/>
<path d="M40.3837 38.7375C39.2146 38.7788 38.5545 39.0727 37.9722 39.3319C37.3749 39.5978 36.859 39.8274 35.7571 39.8274C34.6552 39.8274 34.1394 39.5978 33.5421 39.3319C32.9109 39.0509 32.1956 38.7324 30.8376 38.7324C29.4797 38.7324 28.7644 39.0508 28.1332 39.3319C27.536 39.5978 27.0201 39.8274 25.9183 39.8274C24.8165 39.8274 24.3008 39.5978 23.7035 39.3319C23.0723 39.0509 22.357 38.7324 20.9992 38.7324C19.6414 38.7324 18.9261 39.0508 18.295 39.3319C17.6978 39.5978 17.182 39.8274 16.0803 39.8274C14.9786 39.8274 14.4628 39.5978 13.8655 39.3319C13.2343 39.0509 12.519 38.7324 11.1612 38.7324C9.80339 38.7324 9.08801 39.0508 8.45691 39.3319C7.85962 39.5978 7.34384 39.8274 6.2421 39.8274C5.14036 39.8274 4.62457 39.5978 4.02737 39.3319C3.44505 39.0726 2.78512 38.7788 1.61605 38.7375C1.28791 38.7281 1.01211 38.979 1.00039 39.3027C0.98859 39.6265 1.24521 39.8984 1.57352 39.9099C2.50885 39.943 2.98574 40.1554 3.53796 40.4012C4.16914 40.6822 4.88444 41.0006 6.24226 41.0006C7.60007 41.0006 8.31537 40.6822 8.94655 40.4012C9.54384 40.1353 10.0596 39.9056 11.1614 39.9056C12.2633 39.9056 12.779 40.1353 13.3762 40.4012C14.0074 40.6822 14.7227 41.0006 16.0805 41.0006C17.4383 41.0006 18.1536 40.6822 18.7847 40.4012C19.3819 40.1353 19.8977 39.9056 20.9994 39.9056C22.1011 39.9056 22.6169 40.1353 23.2142 40.4012C23.8454 40.6822 24.5607 41.0006 25.9185 41.0006C27.2763 41.0006 27.9917 40.6822 28.6228 40.4012C29.2201 40.1353 29.736 39.9056 30.8378 39.9056C31.9397 39.9056 32.4555 40.1353 33.0528 40.4012C33.684 40.6822 34.3994 41.0006 35.7573 41.0006C37.1152 41.0006 37.8305 40.6822 38.4617 40.4012C39.014 40.1553 39.491 39.943 40.4265 39.9099C40.7548 39.8983 41.0113 39.6264 40.9996 39.3027C40.9877 38.979 40.7104 38.7248 40.3837 38.7375Z" fill="#4E337A" stroke="#4E337A" stroke-width="0.5"/>
<path d="M40.3565 36.1968C39.2037 36.2414 38.5488 36.533 37.9709 36.7902C37.3736 37.0561 36.8578 37.2857 35.756 37.2857C34.8437 37.2857 34.3331 37.1281 33.8454 36.9231L39.6868 23.2838C39.8525 22.897 39.8544 22.4702 39.6924 22.0818C39.5304 21.6935 39.2243 21.3917 38.8306 21.2319L34.3973 19.4329L33.8943 15.18C33.8562 14.8582 33.5612 14.6266 33.2346 14.6654C32.9084 14.7029 32.6747 14.9942 32.7127 15.316L33.1393 18.9225L21.2252 14.0878C21.0801 14.029 20.9175 14.029 20.7725 14.0878L8.85786 18.9225L9.96625 9.55113C10.0284 9.02503 10.4804 8.62829 11.0175 8.62829H13.7713H28.2257H30.9795C31.5166 8.62829 31.9684 9.02503 32.0307 9.55113L32.3963 12.6425C32.4344 12.9643 32.7294 13.1953 33.056 13.1571C33.3823 13.1196 33.6159 12.8284 33.5779 12.5065L33.2123 9.41514C33.0801 8.29771 32.1202 7.45508 30.9795 7.45508H28.8205V5.45011C28.8205 4.61624 28.1327 3.93797 27.2873 3.93797H23.5728V2.21125C23.5728 1.54337 23.0218 1 22.3446 1H19.6525C18.9753 1 18.4244 1.54337 18.4244 2.21125V3.93797H14.7099C13.8645 3.93797 13.1767 4.61632 13.1767 5.45011V7.45508H11.0177C9.87699 7.45508 8.9171 8.29771 8.78491 9.41514L7.59984 19.433L3.16658 21.2319C2.77285 21.3918 2.46681 21.6936 2.30475 22.0819C2.1427 22.4702 2.14468 22.8971 2.31038 23.2839L8.15166 36.9228C7.66384 37.128 7.15329 37.2858 6.24069 37.2858C5.13902 37.2858 4.62324 37.0562 4.02596 36.7903C3.44816 36.533 2.79329 36.2415 1.6407 36.1969C1.31081 36.1825 1.03581 36.4362 1.02306 36.76C1.01007 37.0837 1.26574 37.3565 1.59397 37.3692C2.51504 37.4049 2.98837 37.6155 3.53647 37.8596C4.16757 38.1406 4.88287 38.459 6.24061 38.459C7.59842 38.459 8.31372 38.1406 8.9449 37.8596C9.01888 37.8266 9.09167 37.7943 9.16446 37.7628C9.16478 37.7626 9.16509 37.7626 9.16549 37.7624C9.17753 37.7572 9.18965 37.7521 9.20168 37.7469C9.22323 37.7377 9.24477 37.7285 9.2664 37.7194C9.27606 37.7154 9.28596 37.7114 9.2957 37.7073C9.3235 37.6958 9.3513 37.6845 9.37942 37.6734C9.38528 37.6711 9.39114 37.6688 9.397 37.6666C9.42995 37.6537 9.46306 37.6409 9.49664 37.6286C9.49926 37.6277 9.50187 37.6266 9.50449 37.6257C9.65402 37.5709 9.8114 37.522 9.98597 37.4817C10.0002 37.4785 10.0152 37.4754 10.0297 37.4722C10.0569 37.4663 10.0842 37.4604 10.1122 37.4549C10.1336 37.4506 10.1556 37.4467 10.1776 37.4428C10.2001 37.4387 10.2226 37.4347 10.2455 37.431C10.2708 37.4268 10.2966 37.4229 10.3227 37.4192C10.3441 37.416 10.3658 37.4131 10.3879 37.4102C10.4155 37.4066 10.4435 37.4032 10.472 37.3999C10.4945 37.3974 10.5175 37.3951 10.5406 37.3928C10.5696 37.39 10.5986 37.3871 10.6286 37.3847C10.6544 37.3826 10.6811 37.3809 10.7077 37.379C10.7362 37.3771 10.7646 37.375 10.794 37.3735C10.8274 37.3717 10.8623 37.3705 10.897 37.3692C10.9215 37.3682 10.9453 37.3671 10.9704 37.3664C11.0316 37.3649 11.0945 37.3639 11.1597 37.3639C12.2615 37.3639 12.7772 37.5936 13.3745 37.8595C13.4228 37.881 13.4717 37.9026 13.5211 37.9244C14.119 38.1873 14.8247 38.459 16.0788 38.459C17.182 38.459 17.8611 38.2487 18.4154 38.0192C18.5434 37.9662 18.6647 37.9122 18.783 37.8595C19.3802 37.5936 19.896 37.3639 20.9978 37.3639C22.0995 37.3639 22.6153 37.5936 23.2126 37.8595C23.8438 38.1405 24.5591 38.459 25.9169 38.459C27.1668 38.459 27.872 38.1891 28.4686 37.9271C28.5201 37.9044 28.5711 37.8818 28.6212 37.8596C29.2185 37.5937 29.7344 37.364 30.8362 37.364C30.9015 37.364 30.9643 37.365 31.0256 37.3665C31.0508 37.3671 31.0745 37.3684 31.0991 37.3693C31.1337 37.3705 31.1685 37.3718 31.2019 37.3735C31.2316 37.375 31.2602 37.3771 31.289 37.3791C31.3152 37.3809 31.3416 37.3826 31.3671 37.3847C31.3975 37.3872 31.4268 37.39 31.4561 37.3929C31.4788 37.3952 31.5014 37.3974 31.5235 37.3999C31.5525 37.4032 31.5811 37.4067 31.6091 37.4104C31.6305 37.4132 31.6515 37.4161 31.6724 37.4192C31.6992 37.4231 31.7256 37.4271 31.7515 37.4313C31.7737 37.4349 31.7954 37.4388 31.8169 37.4426C31.8397 37.4467 31.8626 37.4507 31.8847 37.4551C31.9116 37.4604 31.9377 37.466 31.9637 37.4717C31.9795 37.4751 31.9956 37.4784 32.0111 37.482C32.1418 37.5122 32.263 37.5472 32.3784 37.5859C32.3786 37.5859 32.3787 37.586 32.379 37.586C32.4171 37.5988 32.4544 37.612 32.4914 37.6255C32.4944 37.6266 32.4975 37.6277 32.5004 37.6289C32.5337 37.6412 32.5666 37.6537 32.5992 37.6666C32.6051 37.6689 32.611 37.6712 32.617 37.6735C32.6454 37.6848 32.6736 37.6962 32.7017 37.7079C32.7109 37.7117 32.7203 37.7155 32.7294 37.7193C32.7533 37.7292 32.777 37.7394 32.8007 37.7495C32.811 37.7539 32.8212 37.7582 32.8315 37.7626C32.8317 37.7627 32.8319 37.7628 32.8322 37.7629C32.9049 37.7943 32.9775 37.8266 33.0514 37.8595C33.6826 38.1405 34.398 38.459 35.7559 38.459C37.1138 38.459 37.8291 38.1406 38.4603 37.8595C39.0085 37.6155 39.4819 37.4047 40.4031 37.3691C40.7314 37.3564 40.987 37.0837 40.9741 36.76C40.9613 36.4362 40.684 36.1853 40.3565 36.1968ZM19.6137 2.21125C19.6137 2.19023 19.6311 2.1732 19.6523 2.1732H22.3444C22.3657 2.1732 22.383 2.19023 22.383 2.21125V3.93797H19.6137V2.21125ZM14.3659 5.45011C14.3659 5.26319 14.5201 5.11117 14.7096 5.11117H19.0189H22.9778H27.2871C27.4767 5.11117 27.6308 5.26326 27.6308 5.45011V7.45508H14.3659V5.45011ZM32.7475 36.4706C32.4687 36.3781 32.1458 36.2972 31.7532 36.2465C31.7467 36.2456 31.7401 36.2448 31.7335 36.2439C31.671 36.236 31.607 36.2289 31.541 36.2226C31.5352 36.2221 31.5293 36.2216 31.5235 36.221C31.4625 36.2154 31.3998 36.2106 31.3356 36.2065C31.326 36.2059 31.3166 36.2052 31.3069 36.2046C31.2407 36.2006 31.1725 36.1975 31.1027 36.1953C31.0878 36.1948 31.0727 36.1944 31.0577 36.194C30.9856 36.1921 30.9122 36.1907 30.8361 36.1907C29.4782 36.1907 28.7629 36.5091 28.1318 36.7902C27.5345 37.0561 27.0186 37.2857 25.9168 37.2857C24.815 37.2857 24.2993 37.0561 23.702 36.7902C23.0708 36.5092 22.3555 36.1907 20.9977 36.1907C19.64 36.1907 18.9247 36.5091 18.2935 36.7902C17.6963 37.0561 17.1806 37.2857 16.0788 37.2857C14.9771 37.2857 14.4613 37.0561 13.864 36.7902C13.2723 36.5268 12.6066 36.2304 11.4069 36.1944C11.3269 36.192 11.2445 36.1907 11.1597 36.1907C11.0835 36.1907 11.0101 36.1921 10.9379 36.194C10.9231 36.1944 10.9082 36.1948 10.8935 36.1953C10.8235 36.1975 10.7551 36.2006 10.6888 36.2046C10.6794 36.2051 10.6703 36.2058 10.661 36.2064C10.596 36.2106 10.5326 36.2155 10.4709 36.2212C10.4659 36.2217 10.4607 36.2221 10.4557 36.2225C10.3888 36.2289 10.3241 36.2361 10.261 36.2441C10.2554 36.2448 10.2499 36.2455 10.2444 36.2462C9.8514 36.2969 9.52825 36.3777 9.24921 36.4702L4.308 24.9332L6.55006 24.0659C6.85587 23.9476 7.00652 23.6072 6.8866 23.3056C6.76661 23.004 6.42151 22.8555 6.1157 22.9737L3.84497 23.8521L3.4061 22.8275C3.36483 22.7313 3.36436 22.625 3.40467 22.5284C3.44499 22.4318 3.5211 22.3567 3.61908 22.3169L20.9984 15.2645L38.3776 22.3169C38.4756 22.3566 38.5517 22.4318 38.592 22.5284C38.6324 22.625 38.6319 22.7313 38.5907 22.8275L38.1518 23.8521L21.2156 17.3004C21.0759 17.2465 20.9209 17.2465 20.7812 17.3004L8.69208 21.9771C8.38627 22.0954 8.23562 22.4358 8.35554 22.7374C8.47553 23.039 8.82071 23.1875 9.12644 23.0693L20.9984 18.4767L37.6888 24.9332L32.7475 36.4706Z" fill="#4E337A" stroke="#4E337A" stroke-width="0.5"/>
</svg>
