<svg width="42" height="42" viewBox="0 0 42 42" fill="none" xmlns="http://www.w3.org/2000/svg">
<path d="M34.676 36.2958H7.32172C6.58087 36.295 5.8706 36.0004 5.34674 35.4765C4.82289 34.9527 4.52824 34.2424 4.52747 33.5016V3.79425C4.52824 3.05341 4.82289 2.34313 5.34674 1.81928C5.8706 1.29542 6.58087 1.00078 7.32172 1H34.676C35.4168 1.00078 36.1271 1.29542 36.6509 1.81928C37.1748 2.34313 37.4694 3.05341 37.4702 3.79425V33.5016C37.4694 34.2424 37.1748 34.9527 36.6509 35.4765C36.1271 36.0004 35.4168 36.295 34.676 36.2958ZM7.32172 2.17653C6.89281 2.17699 6.48161 2.34758 6.17833 2.65086C5.87505 2.95414 5.70446 3.36535 5.70399 3.79425V33.5016C5.70446 33.9305 5.87505 34.3417 6.17833 34.6449C6.48161 34.9482 6.89281 35.1188 7.32172 35.1193H34.676C35.1049 35.1188 35.5161 34.9482 35.8194 34.6449C36.1226 34.3417 36.2932 33.9305 36.2937 33.5016V3.79425C36.2932 3.36535 36.1226 2.95414 35.8194 2.65086C35.5161 2.34758 35.1049 2.17699 34.676 2.17653H7.32172Z" fill="#4E337A" stroke="#4E337A" stroke-width="0.6"/>
<path d="M37.4702 23.3561H4.52747V6.88477H37.4702V23.3561ZM5.70399 22.1796H36.2937V8.06129H5.70399V22.1796Z" fill="#4E337A" stroke="#4E337A" stroke-width="0.6"/>
<path d="M29.8232 32.1766C29.2414 32.1766 28.6727 32.0041 28.189 31.6809C27.7053 31.3577 27.3284 30.8983 27.1057 30.3609C26.8831 29.8234 26.8249 29.232 26.9384 28.6614C27.0518 28.0909 27.332 27.5668 27.7433 27.1554C28.1547 26.7441 28.6788 26.464 29.2493 26.3505C29.8199 26.237 30.4113 26.2952 30.9487 26.5178C31.4862 26.7405 31.9456 27.1175 32.2688 27.6012C32.592 28.0849 32.7645 28.6535 32.7645 29.2353C32.7635 30.0151 32.4533 30.7627 31.9019 31.3141C31.3505 31.8655 30.603 32.1756 29.8232 32.1766ZM29.8232 27.4705C29.4741 27.4705 29.1329 27.574 28.8427 27.7679C28.5525 27.9618 28.3263 28.2374 28.1927 28.5599C28.0591 28.8824 28.0242 29.2372 28.0923 29.5796C28.1604 29.9219 28.3284 30.2363 28.5753 30.4832C28.8221 30.73 29.1365 30.898 29.4789 30.9661C29.8212 31.0342 30.176 30.9993 30.4985 30.8657C30.821 30.7321 31.0966 30.5059 31.2905 30.2157C31.4844 29.9255 31.5879 29.5843 31.5879 29.2353C31.5879 28.7672 31.402 28.3183 31.071 27.9874C30.7401 27.6564 30.2912 27.4705 29.8232 27.4705Z" fill="#4E337A" stroke="#4E337A" stroke-width="0.6"/>
<path d="M12.1753 32.1766C11.5936 32.1766 11.0249 32.0041 10.5412 31.6809C10.0575 31.3577 9.68053 30.8983 9.4579 30.3609C9.23528 29.8234 9.17704 29.232 9.29053 28.6614C9.40402 28.0909 9.68415 27.5668 10.0955 27.1554C10.5069 26.7441 11.0309 26.464 11.6015 26.3505C12.1721 26.237 12.7635 26.2952 13.3009 26.5178C13.8384 26.7405 14.2977 27.1175 14.6209 27.6012C14.9441 28.0849 15.1166 28.6535 15.1166 29.2353C15.1157 30.0151 14.8055 30.7627 14.2541 31.3141C13.7027 31.8655 12.9551 32.1756 12.1753 32.1766ZM12.1753 27.4705C11.8263 27.4705 11.4851 27.574 11.1949 27.7679C10.9046 27.9618 10.6784 28.2374 10.5449 28.5599C10.4113 28.8824 10.3764 29.2372 10.4444 29.5796C10.5125 29.9219 10.6806 30.2363 10.9274 30.4832C11.1742 30.73 11.4887 30.898 11.831 30.9661C12.1734 31.0342 12.5282 30.9993 12.8507 30.8657C13.1732 30.7321 13.4488 30.5059 13.6427 30.2157C13.8366 29.9255 13.9401 29.5843 13.9401 29.2353C13.9401 28.7672 13.7542 28.3183 13.4232 27.9874C13.0923 27.6564 12.6434 27.4705 12.1753 27.4705Z" fill="#4E337A" stroke="#4E337A" stroke-width="0.6"/>
<path d="M32.0669 40.9988H28.1697C27.6726 40.9984 27.1959 40.8007 26.8443 40.4493C26.4927 40.0978 26.2949 39.6212 26.2943 39.1241V35.1162H33.9417V39.1241C33.9411 39.6211 33.7434 40.0976 33.3919 40.449C33.0405 40.8005 32.564 40.9982 32.0669 40.9988ZM27.4708 36.2927V39.1241C27.4712 39.3093 27.5449 39.4868 27.6759 39.6177C27.8069 39.7486 27.9845 39.8222 28.1697 39.8223H32.0669C32.252 39.822 32.4295 39.7483 32.5603 39.6175C32.6912 39.4866 32.7649 39.3091 32.7652 39.1241V36.2927H27.4708Z" fill="#4E337A" stroke="#4E337A" stroke-width="0.6"/>
<path d="M13.8327 40.9988H9.93544C9.4383 40.9984 8.96165 40.8007 8.61007 40.4493C8.25848 40.0978 8.06068 39.6212 8.06006 39.1241V35.1162H15.7075V39.1241C15.7069 39.6211 15.5091 40.0976 15.1577 40.449C14.8062 40.8005 14.3297 40.9982 13.8327 40.9988ZM9.23659 36.2927V39.1241C9.2369 39.3093 9.31065 39.4868 9.44166 39.6177C9.57267 39.7486 9.75024 39.8222 9.93544 39.8223H13.8327C14.0178 39.822 14.1952 39.7483 14.3261 39.6175C14.457 39.4866 14.5306 39.3091 14.531 39.1241V36.2927H9.23659Z" fill="#4E337A" stroke="#4E337A" stroke-width="0.6"/>
<path d="M41 16.9824H36.8822V15.8058H39.8235V9.82496H37.4705V8.64844H41V16.9824Z" fill="#4E337A" stroke="#4E337A" stroke-width="0.6"/>
<path d="M5.11784 16.9824H1V8.64844H4.52958V9.82496H2.17653V15.8058H5.11784V16.9824Z" fill="#4E337A" stroke="#4E337A" stroke-width="0.6"/>
<path d="M20.4136 7.47266H21.5901V22.7675H20.4136V7.47266Z" fill="#4E337A" stroke="#4E337A" stroke-width="0.6"/>
<path d="M17.4731 28.6494H24.5323V29.8259H17.4731V28.6494Z" fill="#4E337A" stroke="#4E337A" stroke-width="0.6"/>
</svg>
