<svg width="29" height="42" viewBox="0 0 29 42" fill="none" xmlns="http://www.w3.org/2000/svg">
<path d="M7.41859 14.165C7.53484 14.2788 7.69205 14.3412 7.85469 14.3385L7.85529 14.3385L11.2872 14.3418C11.4501 14.3424 11.6064 14.2782 11.7221 14.1635C11.8374 14.0487 11.9028 13.8927 11.9031 13.7298L11.9139 8.2427C11.9166 6.80248 13.0804 5.63422 14.5206 5.62609L14.5239 5.62609C15.9596 5.63392 17.1182 6.80188 17.1146 8.23758L17.1083 11.3144C17.1062 11.3361 17.1053 11.3578 17.1053 11.3794C17.1053 11.3978 17.1065 11.4168 17.108 11.4352L17.1038 13.7199C17.1032 13.8837 17.1679 14.0409 17.2836 14.1572C17.3992 14.2731 17.5564 14.3385 17.7206 14.3385L17.7221 14.3385L21.1537 14.3282C21.4928 14.327 21.7672 14.0518 21.7669 13.7126L21.7699 11.3722L21.7699 11.3707L21.7777 8.23638C21.7816 6.31639 21.0208 4.4741 19.6638 3.1164C18.3067 1.7587 16.4647 0.997033 14.545 1.00004L14.5224 1.00004C10.5189 1.00004 7.25475 4.26568 7.24571 8.2695L7.2418 11.1219C7.23698 11.1638 7.23698 11.2063 7.2418 11.2481L7.23818 13.7322C7.23788 13.8948 7.30263 14.0509 7.41859 14.165ZM8.4724 13.119L8.4742 11.7984L10.6734 11.7942L10.6707 13.1163L8.4724 13.119ZM18.3386 13.1028L18.3407 11.995L20.5387 11.9908L20.5363 13.0964L18.3386 13.1028ZM14.5257 2.23366L14.5444 2.23366C16.1373 2.23034 17.6661 2.86191 18.7925 3.9886C19.9188 5.1153 20.5498 6.64436 20.5462 8.23758L20.5411 10.7587L18.3431 10.762L18.3482 8.24601C18.3564 6.12574 16.6442 4.40031 14.5239 4.39248L14.5191 4.39248C12.3991 4.40302 10.6848 6.12243 10.6803 8.2427L10.6758 10.5542L8.47601 10.562L8.47932 8.27041C8.49167 4.93791 11.1929 2.24088 14.5257 2.23366Z" fill="#4E337A" stroke="#4E337A" stroke-width="0.4"/>
<path d="M19.6712 15.6476C19.3288 15.6542 19.0544 15.9337 19.0544 16.2764L19.0481 18.4238C19.0475 18.587 19.1119 18.7439 19.2273 18.8596C19.3429 18.9752 19.4995 19.04 19.6628 19.04L19.6649 19.04C19.8272 19.0421 19.9835 18.9792 20.0992 18.8656C20.2151 18.7518 20.2808 18.5967 20.2817 18.4343L20.2883 16.2755C20.2901 15.9331 20.0158 15.6527 19.6733 15.6476L19.6712 15.6476Z" fill="#4E337A" stroke="#4E337A" stroke-width="0.4"/>
<path d="M16.9679 14.5025L15.4491 16.0213C15.2081 16.2623 15.2081 16.6526 15.4491 16.8935C15.69 17.1345 16.0806 17.1345 16.3213 16.8935L17.8404 15.3747C18.081 15.1337 18.081 14.7434 17.8404 14.5025C17.5995 14.2615 17.2088 14.2615 16.9679 14.5025V14.5025Z" fill="#4E337A" stroke="#4E337A" stroke-width="0.4"/>
<path d="M21.1343 14.8862C20.8934 15.1268 20.8934 15.5174 21.1343 15.7584L22.6531 17.2772C22.8947 17.5136 23.2814 17.5115 23.5205 17.2724C23.7594 17.0335 23.7618 16.6468 23.5254 16.405L22.0065 14.8862C21.7656 14.6452 21.3753 14.6452 21.1343 14.8862V14.8862Z" fill="#4E337A" stroke="#4E337A" stroke-width="0.4"/>
<path d="M9.45168 15.7243C9.28994 15.7207 9.13363 15.7821 9.01768 15.8948C8.90173 16.0074 8.83577 16.1619 8.83487 16.3236L8.83126 18.449C8.83216 18.6098 8.89812 18.7634 9.01437 18.8749C9.13032 18.986 9.28663 19.0456 9.44716 19.0396L9.44836 19.0396C9.60979 19.0438 9.7661 18.983 9.88205 18.8707C9.99801 18.7586 10.064 18.6044 10.0652 18.443L10.0685 16.3161C10.0679 16.1553 10.0019 16.0014 9.88597 15.8899C9.76972 15.7782 9.61341 15.7186 9.45258 15.7243L9.45168 15.7243Z" fill="#4E337A" stroke="#4E337A" stroke-width="0.4"/>
<path d="M5.36905 16.2246C5.13293 16.4661 5.13503 16.8528 5.37387 17.0919C5.613 17.3308 5.99971 17.3329 6.24125 17.0968L7.76339 15.5746C8.00433 15.3337 8.00433 14.9431 7.76339 14.7021C7.52245 14.4612 7.13182 14.4612 6.89088 14.7021L5.36905 16.2246Z" fill="#4E337A" stroke="#4E337A" stroke-width="0.4"/>
<path d="M11.291 14.7326C11.0416 14.7326 10.8166 14.8829 10.7211 15.1133C10.6257 15.3437 10.6784 15.609 10.8549 15.7855L12.3737 17.3043C12.6152 17.5428 13.0037 17.5416 13.2435 17.3016C13.4832 17.0619 13.4844 16.6734 13.2462 16.4321L11.7271 14.9133C11.6117 14.7973 11.4548 14.7323 11.291 14.7326Z" fill="#4E337A" stroke="#4E337A" stroke-width="0.4"/>
<path d="M14.5546 30.4205H14.5588C16.4749 30.4193 18.0275 28.8652 18.0263 26.9489C18.025 25.0328 16.471 23.4802 14.5546 23.4814H14.5531C12.637 23.482 11.0842 25.0355 11.0845 26.9519C11.0848 28.868 12.6385 30.4211 14.5546 30.4205ZM14.5561 24.7151H14.5573C15.7921 24.7148 16.7935 25.7156 16.7938 26.9504C16.7941 28.1852 15.7933 29.1866 14.5585 29.1869H14.5561C14.5555 29.1869 14.5552 29.1755 14.5546 29.1758C13.3282 29.1679 12.338 28.1713 12.3383 26.9447C12.3386 25.718 13.3297 24.722 14.5561 24.7151Z" fill="#4E337A" stroke="#4E337A" stroke-width="0.4"/>
<path d="M22.6155 28.1824H22.6628C24.5578 28.1697 26.0835 26.6232 26.0706 24.7282C26.0579 22.8335 24.5114 21.3077 22.6164 21.3204H22.6149C20.7202 21.3207 19.1842 22.857 19.1842 24.7517C19.1845 26.6467 20.7208 28.1827 22.6155 28.1824V28.1824ZM22.6182 22.554H22.6191C23.2076 22.5534 23.7723 22.7868 24.1888 23.2027C24.605 23.619 24.8391 24.1834 24.8388 24.7722C24.8418 25.3516 24.612 25.9082 24.2012 26.3175C23.7907 26.7265 23.2332 26.9539 22.6534 26.9487H22.6164C21.403 26.9484 20.4196 25.9642 20.4199 24.7508C20.4202 23.537 21.4045 22.5537 22.6179 22.554H22.6182Z" fill="#4E337A" stroke="#4E337A" stroke-width="0.4"/>
<path d="M1.59027 38.5916H9.01875V40.2165C9.02899 40.5598 9.31239 40.8318 9.65603 40.8275H19.4542C19.6144 40.8278 19.768 40.7628 19.8791 40.6474C19.9905 40.5324 20.0499 40.3767 20.0442 40.2165V38.5916H27.5497C27.7072 38.5976 27.8602 38.538 27.972 38.4269C28.084 38.316 28.1446 38.1633 28.1397 38.0058V33.4846C28.1464 32.2212 27.6479 31.0074 26.7555 30.1133C25.8629 29.2188 24.6497 28.7185 23.3863 28.7227H21.9334C20.0652 28.723 18.3633 29.7964 17.558 31.4821C16.8622 31.0957 16.0813 30.8894 15.2859 30.8816H13.8312C13.0376 30.8894 12.2588 31.0948 11.5643 31.4785C10.7671 29.7946 9.07025 28.7212 7.20688 28.7227H5.76515C4.50233 28.7155 3.28859 29.2124 2.3941 30.1039C1.49931 30.9954 0.997557 32.207 1.00027 33.4698V38.0058C0.995448 38.1633 1.05598 38.316 1.16802 38.4269C1.27976 38.538 1.43275 38.5976 1.59027 38.5916V38.5916ZM21.9334 29.9563H23.3803C24.3175 29.9503 25.218 30.3202 25.8806 30.983C26.5432 31.6459 26.9124 32.5464 26.9061 33.4837V37.358H20.0442V35.6952C20.0538 34.4255 19.5553 33.2048 18.6597 32.3046C18.6286 32.2736 18.6036 32.2633 18.572 32.2335C19.1229 30.8596 20.4535 29.9585 21.9334 29.9563V29.9563ZM13.8321 32.1152H15.2847C16.2262 32.1161 17.1273 32.4958 17.7859 33.1684C18.4503 33.8403 18.8193 34.7495 18.8105 35.6943V39.5939H10.2524V35.6814C10.2641 33.7114 11.8621 32.1197 13.8321 32.1152ZM2.23388 33.4711C2.23087 32.5347 2.60282 31.6363 3.26631 30.9761C3.9301 30.3159 4.83031 29.9485 5.76636 29.9563H7.20537C8.67571 29.956 9.99606 30.8572 10.5309 32.2269C9.5714 33.1175 9.02387 34.3661 9.01875 35.6753V37.358H2.23388V33.4711Z" fill="#4E337A" stroke="#4E337A" stroke-width="0.4"/>
<path d="M6.48672 28.1823H6.48853C8.38924 28.1823 9.90626 26.6861 9.9427 24.7552C9.9427 24.7513 9.9427 24.7604 9.9427 24.7564C9.93819 22.853 8.39045 21.314 6.48672 21.3203H6.48521C4.57908 21.32 3.03345 22.8648 3.03345 24.7709C3.03556 25.6822 3.40118 26.5554 4.04961 27.1956C4.69804 27.8362 5.57536 28.1913 6.48672 28.1823ZM4.91639 23.1973C5.33322 22.781 5.89943 22.5491 6.48853 22.5539H6.48973C7.07732 22.5497 7.64233 22.7807 8.05855 23.1957C8.47478 23.6026 8.70939 24.1598 8.70909 24.742C8.68259 25.991 7.70829 26.9487 6.48853 26.9487H6.48702C5.90033 26.9526 5.33653 26.7222 4.91971 26.309C4.50318 25.8961 4.26826 25.3338 4.26736 24.7471C4.26555 24.164 4.49957 23.605 4.91639 23.1973Z" fill="#4E337A" stroke="#4E337A" stroke-width="0.4"/>
</svg>
