<svg width="40" height="40" viewBox="0 0 40 40" fill="none" xmlns="http://www.w3.org/2000/svg">
<path d="M27.8079 10.9862L27.8081 10.9859C27.808 10.986 27.8079 10.9861 27.8078 10.9863L27.8079 10.9862Z" fill="#4E337A" stroke="#4E337A" stroke-width="2"/>
<mask id="path-2-inside-1_2704_156" fill="white">
<path d="M37.5677 4.54043C37.287 4.24433 36.8324 4.24433 36.5518 4.54043L29.1042 12.4051C28.8237 12.7015 28.8237 13.1816 29.1041 13.4779C29.2444 13.626 29.4283 13.7 29.6121 13.7C29.7958 13.7 29.9797 13.626 30.12 13.4779L37.5677 5.61312C37.8482 5.31686 37.8482 4.83661 37.5677 4.54043Z"/>
</mask>
<path d="M37.5677 4.54043C37.287 4.24433 36.8324 4.24433 36.5518 4.54043L29.1042 12.4051C28.8237 12.7015 28.8237 13.1816 29.1041 13.4779C29.2444 13.626 29.4283 13.7 29.6121 13.7C29.7958 13.7 29.9797 13.626 30.12 13.4779L37.5677 5.61312C37.8482 5.31686 37.8482 4.83661 37.5677 4.54043Z" fill="#4E337A"/>
<path d="M37.5677 4.54043L39.0197 3.16505L39.0193 3.16464L37.5677 4.54043ZM36.5518 4.54043L35.1 3.16485L35.0996 3.16525L36.5518 4.54043ZM29.1042 12.4051L27.652 11.03L27.6516 11.0304L29.1042 12.4051ZM29.1041 13.4779L27.6515 14.8527L27.6523 14.8535L29.1041 13.4779ZM30.12 13.4779L31.5719 14.8535L31.5722 14.8531L30.12 13.4779ZM37.5677 5.61312L36.1155 4.23793L36.1155 4.23794L37.5677 5.61312ZM39.0193 3.16464C37.95 2.03638 36.1695 2.03608 35.1 3.16485L38.0036 5.91602C37.4952 6.45259 36.6241 6.45229 36.1161 5.91622L39.0193 3.16464ZM35.0996 3.16525L27.652 11.03L30.5564 13.7803L38.004 5.91562L35.0996 3.16525ZM27.6516 11.0304C26.6413 12.0978 26.6411 13.7851 27.6515 14.8527L30.5567 12.1031C31.0063 12.5782 31.006 13.3052 30.5567 13.7799L27.6516 11.0304ZM27.6523 14.8535C28.1739 15.404 28.8844 15.7 29.6121 15.7V11.7C29.9722 11.7 30.3149 11.848 30.5559 12.1023L27.6523 14.8535ZM29.6121 15.7C30.3397 15.7 31.0503 15.404 31.5719 14.8535L28.6682 12.1023C28.9092 11.848 29.2519 11.7 29.6121 11.7V15.7ZM31.5722 14.8531L39.0199 6.98829L36.1155 4.23794L28.6678 12.1027L31.5722 14.8531ZM39.0199 6.9883C40.0307 5.92084 40.031 4.2327 39.0197 3.16505L36.1157 5.91582C35.6655 5.44053 35.6657 4.71287 36.1155 4.23793L39.0199 6.9883Z" fill="#4E337A" mask="url(#path-2-inside-1_2704_156)"/>
<mask id="path-4-inside-2_2704_156" fill="white">
<path d="M30.5443 17.8177L39.7897 8.05464C40.0702 7.75829 40.0702 7.27813 39.7897 6.98187C39.509 6.68585 39.0543 6.68561 38.7738 6.98187L29.5286 16.7449C28.3896 17.9477 26.648 18.2632 25.1949 17.5304C24.9059 17.3847 24.5607 17.4584 24.3481 17.7114L21.2067 21.4489C21.2055 21.4503 21.2041 21.4516 21.2028 21.4531C21.2016 21.4545 21.2006 21.4561 21.1994 21.4576L7.62188 37.6112C7.61844 37.6153 7.615 37.6195 7.61164 37.6237C7.56688 37.6792 7.52461 37.728 7.4818 37.7733C6.5853 38.7199 5.12668 38.7198 4.23057 37.7733C3.79634 37.3148 3.55719 36.7051 3.55719 36.0566C3.55719 35.4081 3.79634 34.7984 4.23135 34.3391C4.27307 34.2948 4.31916 34.2503 4.37221 34.2026C4.37627 34.1991 4.38018 34.1954 4.38408 34.1918L12.8724 26.2358C13.1691 25.9577 13.196 25.4783 12.9328 25.1651C12.6694 24.8516 12.2153 24.823 11.9188 25.1013L3.4361 33.052C3.355 33.125 3.28242 33.1957 3.21477 33.2672C2.50921 34.0123 2.12061 35.0029 2.12061 36.0566C2.12061 37.1102 2.50913 38.1009 3.21469 38.846C3.94306 39.615 4.89956 39.9995 5.8563 39.9994C6.81265 39.9994 7.76938 39.6151 8.49721 38.8464C8.56619 38.7737 8.63299 38.697 8.70159 38.6122L19.048 26.3024L29.3946 38.6123C29.4631 38.6972 29.5299 38.7739 29.5985 38.8461C30.3267 39.6151 31.2833 39.9996 32.2398 39.9996C33.1965 39.9996 34.1532 39.6151 34.8814 38.8461C36.3377 37.308 36.3377 34.8055 34.8818 33.2679C34.8131 33.195 34.7403 33.1245 34.6601 33.0521L22.7543 21.893L25.0837 19.1216C26.971 19.8277 29.1065 19.3358 30.5443 17.8177ZM33.712 34.1919C33.7159 34.1955 33.7199 34.1992 33.7238 34.2027C33.7764 34.25 33.8226 34.2946 33.8655 34.3398C34.7618 35.2864 34.7618 36.8267 33.8656 37.7731C32.9691 38.7197 31.5105 38.7197 30.6138 37.7727C30.5714 37.7279 30.5289 37.6791 30.4842 37.6235C30.4808 37.6193 30.4774 37.6151 30.4739 37.611L20.0084 25.1597L21.8005 23.0274L33.712 34.1919Z"/>
</mask>
<path d="M30.5443 17.8177L39.7897 8.05464C40.0702 7.75829 40.0702 7.27813 39.7897 6.98187C39.509 6.68585 39.0543 6.68561 38.7738 6.98187L29.5286 16.7449C28.3896 17.9477 26.648 18.2632 25.1949 17.5304C24.9059 17.3847 24.5607 17.4584 24.3481 17.7114L21.2067 21.4489C21.2055 21.4503 21.2041 21.4516 21.2028 21.4531C21.2016 21.4545 21.2006 21.4561 21.1994 21.4576L7.62188 37.6112C7.61844 37.6153 7.615 37.6195 7.61164 37.6237C7.56688 37.6792 7.52461 37.728 7.4818 37.7733C6.5853 38.7199 5.12668 38.7198 4.23057 37.7733C3.79634 37.3148 3.55719 36.7051 3.55719 36.0566C3.55719 35.4081 3.79634 34.7984 4.23135 34.3391C4.27307 34.2948 4.31916 34.2503 4.37221 34.2026C4.37627 34.1991 4.38018 34.1954 4.38408 34.1918L12.8724 26.2358C13.1691 25.9577 13.196 25.4783 12.9328 25.1651C12.6694 24.8516 12.2153 24.823 11.9188 25.1013L3.4361 33.052C3.355 33.125 3.28242 33.1957 3.21477 33.2672C2.50921 34.0123 2.12061 35.0029 2.12061 36.0566C2.12061 37.1102 2.50913 38.1009 3.21469 38.846C3.94306 39.615 4.89956 39.9995 5.8563 39.9994C6.81265 39.9994 7.76938 39.6151 8.49721 38.8464C8.56619 38.7737 8.63299 38.697 8.70159 38.6122L19.048 26.3024L29.3946 38.6123C29.4631 38.6972 29.5299 38.7739 29.5985 38.8461C30.3267 39.6151 31.2833 39.9996 32.2398 39.9996C33.1965 39.9996 34.1532 39.6151 34.8814 38.8461C36.3377 37.308 36.3377 34.8055 34.8818 33.2679C34.8131 33.195 34.7403 33.1245 34.6601 33.0521L22.7543 21.893L25.0837 19.1216C26.971 19.8277 29.1065 19.3358 30.5443 17.8177ZM33.712 34.1919C33.7159 34.1955 33.7199 34.1992 33.7238 34.2027C33.7764 34.25 33.8226 34.2946 33.8655 34.3398C34.7618 35.2864 34.7618 36.8267 33.8656 37.7731C32.9691 38.7197 31.5105 38.7197 30.6138 37.7727C30.5714 37.7279 30.5289 37.6791 30.4842 37.6235C30.4808 37.6193 30.4774 37.6151 30.4739 37.611L20.0084 25.1597L21.8005 23.0274L33.712 34.1919Z" fill="#4E337A"/>
<path d="M30.5443 17.8177L31.9964 19.193L31.9965 19.1929L30.5443 17.8177ZM39.7897 8.05464L41.2419 9.42982L41.242 9.42962L39.7897 8.05464ZM39.7897 6.98187L41.2419 5.60669L41.2411 5.60588L39.7897 6.98187ZM38.7738 6.98187L37.3216 5.60669L37.3216 5.6067L38.7738 6.98187ZM29.5286 16.7449L30.9808 18.1202L30.9808 18.1201L29.5286 16.7449ZM25.1949 17.5304L26.0955 15.7447L26.0951 15.7445L25.1949 17.5304ZM24.3481 17.7114L25.8792 18.9982L25.8792 18.9981L24.3481 17.7114ZM21.2067 21.4489L22.6998 22.7796L22.7191 22.758L22.7378 22.7358L21.2067 21.4489ZM21.1994 21.4576L19.6693 20.1696L19.6684 20.1707L21.1994 21.4576ZM7.62188 37.6112L6.09085 36.3243L6.08544 36.3308L7.62188 37.6112ZM7.61164 37.6237L9.16863 38.879L9.17458 38.8716L7.61164 37.6237ZM7.4818 37.7733L8.93393 39.1485L8.93524 39.1471L7.4818 37.7733ZM4.23057 37.7733L5.68294 36.3983L5.68264 36.398L4.23057 37.7733ZM4.23135 34.3391L5.68355 35.7143L5.68738 35.7102L4.23135 34.3391ZM4.37221 34.2026L3.05671 32.6961L3.04587 32.7056L3.03517 32.7152L4.37221 34.2026ZM4.38408 34.1918L5.74556 35.6569L5.7518 35.651L4.38408 34.1918ZM12.8724 26.2358L11.5047 24.7766L11.5046 24.7766L12.8724 26.2358ZM12.9328 25.1651L11.4016 26.4517L11.4017 26.4519L12.9328 25.1651ZM11.9188 25.1013L13.2865 26.5605L13.2873 26.5598L11.9188 25.1013ZM3.4361 33.052L4.77431 34.5383L4.7892 34.5249L4.80382 34.5112L3.4361 33.052ZM3.21477 33.2672L4.66696 34.6424L4.66775 34.6416L3.21477 33.2672ZM3.21469 38.846L1.76249 40.2212L1.76264 40.2213L3.21469 38.846ZM5.8563 39.9994V37.9994H5.85613L5.8563 39.9994ZM8.49721 38.8464L7.04657 37.4696L7.04494 37.4713L8.49721 38.8464ZM8.70159 38.6122L7.17056 37.3253L7.15841 37.3398L7.14654 37.3545L8.70159 38.6122ZM19.048 26.3024L20.5791 25.0156L19.048 23.194L17.517 25.0156L19.048 26.3024ZM29.3946 38.6123L30.951 37.3562L30.9385 37.3407L30.9256 37.3255L29.3946 38.6123ZM29.5985 38.8461L31.0507 37.471L31.0491 37.4693L29.5985 38.8461ZM34.8814 38.8461L36.3336 40.2213L36.3338 40.2211L34.8814 38.8461ZM34.8818 33.2679L33.4273 34.6406L33.4295 34.6429L34.8818 33.2679ZM34.6601 33.0521L33.2924 34.5114L33.3064 34.5245L33.3207 34.5374L34.6601 33.0521ZM22.7543 21.893L21.2233 20.6061L20.0043 22.0565L21.3866 23.3522L22.7543 21.893ZM25.0837 19.1216L25.7845 17.2484L24.4615 16.7534L23.5526 17.8347L25.0837 19.1216ZM33.712 34.1919L32.3442 35.6511L32.3505 35.657L33.712 34.1919ZM33.7238 34.2027L35.061 32.7154L35.0538 32.709L33.7238 34.2027ZM33.8655 34.3398L35.3177 32.9647L35.3164 32.9633L33.8655 34.3398ZM33.8656 37.7731L35.3176 39.1484L35.3178 39.1483L33.8656 37.7731ZM30.4842 37.6235L28.9212 38.8714L28.9272 38.8789L30.4842 37.6235ZM30.4739 37.611L32.0104 36.3306L32.005 36.3242L30.4739 37.611ZM20.0084 25.1597L18.4773 23.8729L17.3957 25.1597L18.4773 26.4465L20.0084 25.1597ZM21.8005 23.0274L23.1682 21.5682L21.6278 20.1244L20.2695 21.7406L21.8005 23.0274ZM31.9965 19.1929L41.2419 9.42982L38.3375 6.67946L29.0921 16.4425L31.9965 19.1929ZM41.242 9.42962C42.2527 8.36213 42.2529 6.67437 41.2419 5.60669L38.3375 8.35705C37.8875 7.8819 37.8878 7.15446 38.3373 6.67966L41.242 9.42962ZM41.2411 5.60588C40.1726 4.47879 38.3919 4.4764 37.3216 5.60669L40.226 8.35705C39.7167 8.89482 38.8455 8.89292 38.3382 8.35786L41.2411 5.60588ZM37.3216 5.6067L28.0764 15.3698L30.9808 18.1201L40.226 8.35704L37.3216 5.6067ZM28.0765 15.3697C27.5299 15.9468 26.7404 16.0699 26.0955 15.7447L24.2944 19.3162C26.5556 20.4565 29.2493 19.9485 30.9808 18.1202L28.0765 15.3697ZM26.0951 15.7445C24.954 15.1693 23.6089 15.4824 22.817 16.4246L25.8792 18.9981C25.5126 19.4344 24.8578 19.6002 24.2948 19.3164L26.0951 15.7445ZM22.8171 16.4245L19.6757 20.1621L22.7378 22.7358L25.8792 18.9982L22.8171 16.4245ZM19.7137 20.1182C19.7396 20.0891 19.7611 20.0668 19.7724 20.0552C19.7782 20.0493 19.7827 20.0447 19.7845 20.0428C19.785 20.0423 19.7854 20.0419 19.7857 20.0417C19.7858 20.0416 19.7859 20.0415 19.786 20.0414C19.786 20.0414 19.786 20.0413 19.786 20.0413C19.7861 20.0413 19.7861 20.0413 19.7861 20.0413C19.7862 20.0411 19.7854 20.0419 19.7846 20.0427C19.7819 20.0454 19.7674 20.0601 19.7495 20.079C19.7308 20.0989 19.7038 20.1283 19.6727 20.1651L22.7329 22.741C22.7025 22.7771 22.6762 22.8058 22.6581 22.825C22.6408 22.8432 22.627 22.8572 22.625 22.8592C22.6243 22.8599 22.6237 22.8605 22.624 22.8602C22.6241 22.8601 22.625 22.8592 22.6261 22.8581C22.6282 22.8559 22.6331 22.851 22.6392 22.8447C22.6511 22.8324 22.6732 22.8094 22.6998 22.7796L19.7137 20.1182ZM19.6727 20.1651C19.6406 20.2034 19.6157 20.2358 19.6 20.2568C19.5921 20.2673 19.5858 20.2759 19.5819 20.2813C19.58 20.2841 19.5784 20.2863 19.5773 20.2877C19.5768 20.2884 19.5764 20.289 19.5761 20.2894C19.5759 20.2897 19.5757 20.29 19.5757 20.29C19.5755 20.2903 19.5762 20.2894 19.5769 20.2883C19.5778 20.2871 19.5793 20.285 19.5811 20.2825C19.5847 20.2775 19.5908 20.2692 19.5984 20.259C19.6135 20.2388 19.6377 20.2071 19.6693 20.1696L22.7295 22.7456C22.7617 22.7073 22.7865 22.6749 22.8022 22.6539C22.8101 22.6434 22.8164 22.6347 22.8203 22.6293C22.8223 22.6266 22.8239 22.6244 22.8249 22.623C22.8254 22.6223 22.8258 22.6217 22.8261 22.6213C22.8263 22.621 22.8265 22.6207 22.8265 22.6207C22.8267 22.6204 22.8261 22.6213 22.8253 22.6224C22.8244 22.6236 22.823 22.6257 22.8211 22.6282C22.8175 22.6332 22.8115 22.6415 22.8039 22.6516C22.7888 22.6718 22.7645 22.7035 22.7329 22.741L19.6727 20.1651ZM19.6684 20.1707L6.09087 36.3243L9.15289 38.898L22.7304 22.7445L19.6684 20.1707ZM6.08544 36.3308C6.07368 36.3449 6.06137 36.36 6.04871 36.3758L9.17458 38.8716C9.16864 38.879 9.16321 38.8857 9.15832 38.8915L6.08544 36.3308ZM6.05467 36.3684C6.03733 36.3899 6.02954 36.3982 6.02835 36.3994L8.93524 39.1471C9.01968 39.0578 9.09643 38.9686 9.16862 38.879L6.05467 36.3684ZM6.02966 36.398C5.96382 36.4676 5.90234 36.4832 5.85607 36.4832C5.8098 36.4832 5.74853 36.4676 5.68294 36.3983L2.77819 39.1483C4.46334 40.9283 7.24863 40.9281 8.93393 39.1485L6.02966 36.398ZM5.68264 36.398C5.61071 36.322 5.55719 36.2088 5.55719 36.0566H1.55719C1.55719 37.2013 1.98197 38.3076 2.77849 39.1486L5.68264 36.398ZM5.55719 36.0566C5.55719 35.905 5.61031 35.7916 5.68354 35.7143L2.77915 32.9639C1.98237 33.8053 1.55719 34.9113 1.55719 36.0566H5.55719ZM5.68738 35.7102C5.68278 35.7151 5.68737 35.7097 5.70925 35.69L3.03517 32.7152C2.95095 32.7909 2.86335 32.8745 2.77531 32.968L5.68738 35.7102ZM5.68771 35.7091C5.71878 35.682 5.74491 35.6575 5.74555 35.6569L3.02262 32.7267C3.01987 32.7293 3.0236 32.7258 3.02837 32.7215C3.03379 32.7165 3.04376 32.7075 3.05671 32.6961L5.68771 35.7091ZM5.7518 35.651L14.2401 27.6951L11.5046 24.7766L3.01637 32.7326L5.7518 35.651ZM14.2401 27.6951C15.3204 26.6825 15.4033 24.9961 14.4638 23.8782L11.4017 26.4519C10.9887 25.9605 11.0178 25.233 11.5047 24.7766L14.2401 27.6951ZM14.464 23.8784C13.4715 22.6973 11.694 22.5696 10.5502 23.6428L13.2873 26.5598C12.7366 27.0765 11.8673 27.006 11.4016 26.4517L14.464 23.8784ZM10.551 23.6421L2.06838 31.5927L4.80382 34.5112L13.2865 26.5605L10.551 23.6421ZM2.09788 31.5656C1.97994 31.6718 1.86876 31.7798 1.76178 31.8929L4.66775 34.6416C4.69608 34.6116 4.73006 34.5781 4.77431 34.5383L2.09788 31.5656ZM1.76257 31.892C0.694935 33.0195 0.120605 34.5065 0.120605 36.0566H4.12061C4.12061 35.4993 4.32348 35.0051 4.66696 34.6424L1.76257 31.892ZM0.120605 36.0566C0.120605 37.6065 0.694772 39.0936 1.76249 40.2212L4.66688 37.4708C4.32348 37.1082 4.12061 36.614 4.12061 36.0566H0.120605ZM1.76264 40.2213C2.8733 41.3939 4.35705 41.9996 5.85647 41.9994L5.85613 37.9994C5.44207 37.9995 5.01282 37.836 4.66674 37.4706L1.76264 40.2213ZM5.8563 41.9994C7.35476 41.9994 8.83897 41.3943 9.94948 40.2215L7.04494 37.4713C6.69979 37.8358 6.27053 37.9994 5.8563 37.9994V41.9994ZM9.94785 40.2232C10.0577 40.1075 10.1592 39.9904 10.2566 39.8699L7.14654 37.3545C7.10681 37.4036 7.07472 37.4399 7.04657 37.4696L9.94785 40.2232ZM10.2326 39.899L20.5791 27.5893L17.517 25.0156L7.17056 37.3253L10.2326 39.899ZM17.517 27.5893L27.8636 39.8992L30.9256 37.3255L20.5791 25.0156L17.517 27.5893ZM27.8383 39.8684C27.9364 39.99 28.0383 40.1076 28.1478 40.223L31.0491 37.4693C31.0216 37.4403 30.9899 37.4045 30.951 37.3562L27.8383 39.8684ZM28.1463 40.2213C29.2569 41.3942 30.7408 41.9996 32.2398 41.9996V37.9996C31.8257 37.9996 31.3964 37.8361 31.0507 37.471L28.1463 40.2213ZM32.2398 41.9996C33.739 41.9996 35.2229 41.3941 36.3336 40.2213L33.4293 37.4708C33.0834 37.836 32.654 37.9996 32.2398 37.9996V41.9996ZM36.3338 40.2211C38.5202 37.9119 38.5204 34.2019 36.3341 31.8928L33.4295 34.6429C34.155 35.4092 34.1553 36.7041 33.4291 37.471L36.3338 40.2211ZM36.3364 31.8952C36.2259 31.7781 36.114 31.6701 35.9995 31.5668L33.3207 34.5374C33.3667 34.5789 33.4003 34.6119 33.4273 34.6406L36.3364 31.8952ZM36.0278 31.5929L24.1221 20.4337L21.3866 23.3522L33.2924 34.5114L36.0278 31.5929ZM24.2854 23.1798L26.6147 20.4084L23.5526 17.8347L21.2233 20.6061L24.2854 23.1798ZM24.3828 20.9948C27.0372 21.9879 30.0169 21.2831 31.9964 19.193L29.0923 16.4424C28.1961 17.3886 26.9048 17.6675 25.7845 17.2484L24.3828 20.9948ZM32.3505 35.657C32.364 35.6695 32.3785 35.6827 32.3939 35.6964L35.0538 32.709C35.0612 32.7156 35.0677 32.7215 35.0734 32.7268L32.3505 35.657ZM32.3867 35.69C32.4061 35.7074 32.4134 35.7152 32.4145 35.7163L35.3164 32.9633C35.2318 32.8741 35.1467 32.7925 35.061 32.7154L32.3867 35.69ZM32.4132 35.7149C32.4844 35.7901 32.5378 35.9084 32.5378 36.0566C32.5378 36.2047 32.4844 36.3229 32.4134 36.3979L35.3178 39.1483C36.9445 37.4305 36.9443 34.6825 35.3177 32.9647L32.4132 35.7149ZM32.4135 36.3978C32.3476 36.4673 32.2862 36.483 32.2399 36.483C32.1937 36.483 32.1321 36.4673 32.066 36.3975L29.1616 39.1479C30.8471 40.9278 33.6321 40.9281 35.3176 39.1484L32.4135 36.3978ZM32.066 36.3975C32.0654 36.3969 32.0578 36.3889 32.0411 36.3682L28.9272 38.8789C29 38.9692 29.0773 39.0589 29.1616 39.1479L32.066 36.3975ZM32.0471 36.3757C32.0344 36.3597 32.0221 36.3447 32.0104 36.3306L28.9375 38.8914C28.9327 38.8856 28.9273 38.879 28.9212 38.8714L32.0471 36.3757ZM32.005 36.3242L21.5394 23.8728L18.4773 26.4465L28.9429 38.8979L32.005 36.3242ZM21.5394 26.4465L23.3315 24.3143L20.2695 21.7406L18.4773 23.8729L21.5394 26.4465ZM20.4328 24.4867L32.3443 35.6511L35.0797 32.7327L23.1682 21.5682L20.4328 24.4867Z" fill="#4E337A" mask="url(#path-4-inside-2_2704_156)"/>
<mask id="path-6-inside-3_2704_156" fill="white">
<path d="M33.3896 0.222074C33.109 -0.0740245 32.6543 -0.0740245 32.3737 0.222074L23.1286 9.98523C21.6906 11.5036 21.2249 13.7584 21.8936 15.7518L19.0486 18.4185L16.3144 15.8556C17.7284 12.9176 17.2122 9.3503 14.9689 6.98126C12.7409 4.62848 10.1602 2.97276 7.70224 2.31926C5.13634 1.63722 2.93645 2.09255 1.50721 3.60175C0.077962 5.11095 -0.353296 7.43436 0.292732 10.1438C0.91165 12.7392 2.47949 15.4644 4.70766 17.8171C6.95098 20.1862 10.329 20.7313 13.1114 19.238C13.1114 19.238 15.7853 22.4191 15.8192 22.4596C15.9611 22.6284 16.1584 22.7145 16.3567 22.7145C16.5263 22.7145 16.6965 22.6515 16.8333 22.5232L23.2292 16.5283C23.4686 16.3039 23.5384 15.9392 23.4005 15.6341C22.7064 14.0995 23.0053 12.2605 24.1444 11.0579L33.3896 1.29484C33.6702 0.998496 33.6702 0.518337 33.3896 0.222074ZM16.4168 20.8853L13.802 17.7745C13.5705 17.4991 13.1847 17.4388 12.8878 17.6325C10.5848 19.1321 7.63865 18.7672 5.7233 16.7445C3.67608 14.5827 2.24222 12.1071 1.68573 9.77337C1.16814 7.60217 1.46549 5.79126 2.52309 4.67452C3.58053 3.55761 5.2954 3.24378 7.35138 3.79043C9.56134 4.37801 11.9058 5.89208 13.9529 8.05395C15.8683 10.0765 16.2139 13.1876 14.7937 15.6196C14.6106 15.9332 14.6674 16.3404 14.9282 16.585L17.9664 19.4327L16.4168 20.8853Z"/>
</mask>
<path d="M33.3896 0.222074C33.109 -0.0740245 32.6543 -0.0740245 32.3737 0.222074L23.1286 9.98523C21.6906 11.5036 21.2249 13.7584 21.8936 15.7518L19.0486 18.4185L16.3144 15.8556C17.7284 12.9176 17.2122 9.3503 14.9689 6.98126C12.7409 4.62848 10.1602 2.97276 7.70224 2.31926C5.13634 1.63722 2.93645 2.09255 1.50721 3.60175C0.077962 5.11095 -0.353296 7.43436 0.292732 10.1438C0.91165 12.7392 2.47949 15.4644 4.70766 17.8171C6.95098 20.1862 10.329 20.7313 13.1114 19.238C13.1114 19.238 15.7853 22.4191 15.8192 22.4596C15.9611 22.6284 16.1584 22.7145 16.3567 22.7145C16.5263 22.7145 16.6965 22.6515 16.8333 22.5232L23.2292 16.5283C23.4686 16.3039 23.5384 15.9392 23.4005 15.6341C22.7064 14.0995 23.0053 12.2605 24.1444 11.0579L33.3896 1.29484C33.6702 0.998496 33.6702 0.518337 33.3896 0.222074ZM16.4168 20.8853L13.802 17.7745C13.5705 17.4991 13.1847 17.4388 12.8878 17.6325C10.5848 19.1321 7.63865 18.7672 5.7233 16.7445C3.67608 14.5827 2.24222 12.1071 1.68573 9.77337C1.16814 7.60217 1.46549 5.79126 2.52309 4.67452C3.58053 3.55761 5.2954 3.24378 7.35138 3.79043C9.56134 4.37801 11.9058 5.89208 13.9529 8.05395C15.8683 10.0765 16.2139 13.1876 14.7937 15.6196C14.6106 15.9332 14.6674 16.3404 14.9282 16.585L17.9664 19.4327L16.4168 20.8853Z" fill="#4E337A"/>
<path d="M33.3896 0.222074L34.8418 -1.15311L34.8412 -1.15372L33.3896 0.222074ZM32.3737 0.222074L30.9219 -1.15351L30.9215 -1.15309L32.3737 0.222074ZM23.1286 9.98523L24.5807 11.3605L24.5808 11.3604L23.1286 9.98523ZM21.8936 15.7518L23.2613 17.2111L24.1981 16.333L23.7898 15.1158L21.8936 15.7518ZM19.0486 18.4185L17.6809 19.8777L19.0486 21.1597L20.4164 19.8777L19.0486 18.4185ZM16.3144 15.8556L14.5122 14.9883L13.8756 16.311L14.9466 17.3149L16.3144 15.8556ZM14.9689 6.98126L16.4211 5.60611L16.4211 5.60608L14.9689 6.98126ZM7.70224 2.31926L8.21614 0.386412L8.21602 0.386382L7.70224 2.31926ZM0.292732 10.1438L-1.65273 10.6077L-1.65272 10.6077L0.292732 10.1438ZM4.70766 17.8171L6.1599 16.442L6.15978 16.4418L4.70766 17.8171ZM13.1114 19.238L14.6424 17.9512L13.5971 16.7075L12.1656 17.4758L13.1114 19.238ZM15.8192 22.4596L14.2868 23.7448L14.2882 23.7464L15.8192 22.4596ZM16.8333 22.5232L18.2009 23.9825L18.201 23.9825L16.8333 22.5232ZM23.2292 16.5283L24.5969 17.9876L24.597 17.9874L23.2292 16.5283ZM23.4005 15.6341L25.223 14.8104L25.2228 14.8099L23.4005 15.6341ZM24.1444 11.0579L25.5965 12.4332L25.5965 12.4331L24.1444 11.0579ZM33.3896 1.29484L34.8418 2.67002L34.842 2.66982L33.3896 1.29484ZM16.4168 20.8853L14.8858 22.1722L16.2443 23.7884L17.7846 22.3445L16.4168 20.8853ZM13.802 17.7745L15.3331 16.4877L15.333 16.4876L13.802 17.7745ZM12.8878 17.6325L13.9792 19.3085L13.9804 19.3077L12.8878 17.6325ZM5.7233 16.7445L7.17552 15.3693L7.17547 15.3693L5.7233 16.7445ZM1.68573 9.77337L-0.259757 10.2371L-0.259727 10.2373L1.68573 9.77337ZM2.52309 4.67452L3.97523 6.04976L3.97543 6.04954L2.52309 4.67452ZM7.35138 3.79043L6.83746 5.72328L6.83748 5.72328L7.35138 3.79043ZM13.9529 8.05395L12.5007 9.42908L12.5007 9.42916L13.9529 8.05395ZM14.7937 15.6196L16.5208 16.6282L16.5208 16.6281L14.7937 15.6196ZM14.9282 16.585L13.5602 18.0439L13.5605 18.0443L14.9282 16.585ZM17.9664 19.4327L19.3343 20.8918L20.8909 19.4325L19.3341 17.9734L17.9664 19.4327ZM34.8412 -1.15372C33.7719 -2.28198 31.9914 -2.28228 30.9219 -1.15351L33.8255 1.59766C33.3171 2.13423 32.446 2.13393 31.938 1.59786L34.8412 -1.15372ZM30.9215 -1.15309L21.6763 8.61006L24.5808 11.3604L33.8259 1.59724L30.9215 -1.15309ZM21.6764 8.60997C19.7122 10.6839 19.102 13.7184 19.9974 16.3879L23.7898 15.1158C23.3479 13.7985 23.6689 12.3232 24.5807 11.3605L21.6764 8.60997ZM20.5259 14.2926L17.6809 16.9592L20.4164 19.8777L23.2613 17.2111L20.5259 14.2926ZM20.4164 16.9592L17.6821 14.3964L14.9466 17.3149L17.6809 19.8777L20.4164 16.9592ZM18.1165 16.723C19.8815 13.0556 19.2488 8.59233 16.4211 5.60611L13.5166 8.35642C15.1755 10.1083 15.5752 12.7796 14.5122 14.9883L18.1165 16.723ZM16.4211 5.60608C14.0071 3.05693 11.1185 1.15808 8.21614 0.386412L7.18835 4.25212C9.20184 4.78744 11.4746 6.20003 13.5167 8.35645L16.4211 5.60608ZM8.21602 0.386382C5.17179 -0.422803 2.13268 0.0326707 0.0550502 2.22653L2.95936 4.97697C3.74023 4.15243 5.10089 3.69725 7.18847 4.25215L8.21602 0.386382ZM0.0550502 2.22653C-1.9903 4.3863 -2.39624 7.48938 -1.65273 10.6077L2.23819 9.67993C1.68965 7.37934 2.14622 5.83561 2.95936 4.97697L0.0550502 2.22653ZM-1.65272 10.6077C-0.936474 13.6113 0.837337 16.639 3.25554 19.1924L6.15978 16.4418C4.12165 14.2898 2.75977 11.8672 2.23818 9.67987L-1.65272 10.6077ZM3.25542 19.1922C6.10694 22.2037 10.464 22.9287 14.0572 21.0003L12.1656 17.4758C10.194 18.5339 7.79502 18.1688 6.1599 16.442L3.25542 19.1922ZM13.1114 19.238C11.5804 20.5249 11.5804 20.5249 11.5804 20.5249C11.5805 20.525 11.5805 20.525 11.5805 20.5251C11.5806 20.5252 11.5807 20.5253 11.5809 20.5255C11.5812 20.5259 11.5817 20.5265 11.5824 20.5272C11.5836 20.5287 11.5856 20.531 11.5881 20.534C11.5931 20.5401 11.6007 20.549 11.6105 20.5606C11.63 20.584 11.6588 20.6181 11.6954 20.6617C11.7686 20.7487 11.8731 20.8732 11.9987 21.0226C12.2499 21.3214 12.5852 21.7203 12.9216 22.1205C13.2579 22.5207 13.5953 22.9221 13.8508 23.226C13.9785 23.3779 14.0857 23.5055 14.1621 23.5963C14.2002 23.6418 14.2307 23.678 14.2521 23.7034C14.2628 23.7162 14.2712 23.7262 14.2772 23.7334C14.2802 23.7369 14.2826 23.7398 14.2843 23.7418C14.2862 23.7441 14.2869 23.7449 14.2868 23.7448L17.3516 21.1743C17.3337 21.153 16.6554 20.3461 15.9836 19.5468C15.6472 19.1466 15.3119 18.7477 15.0607 18.4488C14.9351 18.2994 14.8305 18.175 14.7574 18.0879C14.7208 18.0444 14.692 18.0102 14.6724 17.9869C14.6626 17.9752 14.6551 17.9663 14.6501 17.9603C14.6475 17.9573 14.6456 17.955 14.6443 17.9535C14.6437 17.9527 14.6432 17.9521 14.6429 17.9517C14.6427 17.9515 14.6426 17.9514 14.6425 17.9513C14.6425 17.9512 14.6425 17.9512 14.6424 17.9512C14.6424 17.9512 14.6424 17.9512 13.1114 19.238ZM14.2882 23.7464C14.8129 24.3706 15.572 24.7145 16.3567 24.7145V20.7145C16.7448 20.7145 17.1094 20.8863 17.3502 21.1727L14.2882 23.7464ZM16.3567 24.7145C17.0289 24.7145 17.6895 24.4618 18.2009 23.9825L15.4656 21.0639C15.7035 20.8411 16.0238 20.7145 16.3567 20.7145V24.7145ZM18.201 23.9825L24.5969 17.9876L21.8614 15.0691L15.4655 21.064L18.201 23.9825ZM24.597 17.9874C25.4783 17.1612 25.7034 15.8732 25.223 14.8104L21.578 16.4578C21.3734 16.0052 21.4589 15.4465 21.8613 15.0693L24.597 17.9874ZM25.2228 14.8099C24.8561 13.9991 25.0285 13.0329 25.5965 12.4332L22.6922 9.68263C20.9822 11.4882 20.5568 14.1999 21.5782 16.4583L25.2228 14.8099ZM25.5965 12.4331L34.8418 2.67002L31.9374 -0.0803357L22.6921 9.68274L25.5965 12.4331ZM34.842 2.66982C35.8526 1.60233 35.8529 -0.0854293 34.8418 -1.15311L31.9374 1.59726C31.4874 1.1221 31.4877 0.394663 31.9372 -0.08014L34.842 2.66982ZM17.9478 19.5985L15.3331 16.4877L12.271 19.0614L14.8858 22.1722L17.9478 19.5985ZM15.333 16.4876C14.4679 15.4585 12.9612 15.1968 11.7952 15.9573L13.9804 19.3077C13.4082 19.6808 12.673 19.5396 12.2711 19.0615L15.333 16.4876ZM11.7965 15.9565C10.3189 16.9186 8.44016 16.7049 7.17552 15.3693L4.27108 18.1197C6.83714 20.8295 10.8507 21.3456 13.9792 19.3085L11.7965 15.9565ZM7.17547 15.3693C5.3122 13.4017 4.08869 11.2281 3.63118 9.30946L-0.259727 10.2373C0.395752 12.9861 2.03996 15.7637 4.27113 18.1197L7.17547 15.3693ZM3.63121 9.30958C3.19411 7.47603 3.56982 6.47784 3.97523 6.04976L1.07094 3.29928C-0.638839 5.10468 -0.857834 7.72832 -0.259757 10.2371L3.63121 9.30958ZM3.97543 6.04954C4.34235 5.66199 5.18124 5.28291 6.83746 5.72328L7.8653 1.85759C5.40957 1.20464 2.81871 1.45323 1.07074 3.2995L3.97543 6.04954ZM6.83748 5.72328C8.59597 6.19082 10.6331 7.45683 12.5007 9.42908L15.4052 6.67882C13.1785 4.32733 10.5267 2.56519 7.86528 1.85758L6.83748 5.72328ZM12.5007 9.42916C13.7955 10.7964 14.0457 12.9345 13.0666 14.611L16.5208 16.6281C18.3821 13.4407 17.941 9.35655 15.4051 6.67874L12.5007 9.42916ZM13.0666 14.611C12.4234 15.7125 12.604 17.1473 13.5602 18.0439L16.2963 15.1261C16.7308 15.5335 16.7977 16.1539 16.5208 16.6282L13.0666 14.611ZM13.5605 18.0443L16.5987 20.8919L19.3341 17.9734L16.2959 15.1258L13.5605 18.0443ZM16.5986 17.9735L15.0489 19.4262L17.7846 22.3445L19.3343 20.8918L16.5986 17.9735Z" fill="#4E337A" mask="url(#path-6-inside-3_2704_156)"/>
</svg>
