<svg width="36" height="40" viewBox="0 0 36 40" fill="none" xmlns="http://www.w3.org/2000/svg">
<path d="M22.634 11.2508C22.4878 11.1758 22.3211 11.1367 22.1506 11.1367C21.8226 11.1367 21.5246 11.2766 21.3541 11.5109C21.2246 11.689 21.1855 11.8984 21.2441 12.1016C21.3019 12.3039 21.4518 12.4758 21.6642 12.5844C21.8105 12.6595 21.9772 12.6993 22.1486 12.6993C22.4766 12.6993 22.7737 12.5595 22.9442 12.3251C23.0737 12.147 23.1128 11.9368 23.0541 11.7344C22.9964 11.5313 22.8465 11.3594 22.634 11.2508Z" fill="#4E337A"/>
<path d="M35.1285 9.01195C34.9535 8.86375 34.7152 8.78031 34.4664 8.78031H25.5213L31.0481 1.18828C31.1776 1.01016 31.2168 0.8 31.1581 0.597578C31.0994 0.394453 30.9504 0.223359 30.7379 0.114063C30.5916 0.0398438 30.424 0 30.2535 0C29.9255 0 29.6284 0.139844 29.4579 0.374219L23.3386 8.78031H1.53355C1.28479 8.78031 1.04647 8.86367 0.871501 9.01195C-0.277069 9.98508 -0.290392 12.2736 0.831811 13.2771L7.02531 19.7912L15.8364 29.0584C15.8571 29.0802 15.8792 29.1011 15.9027 29.1209C16.2354 29.4027 16.6338 29.6087 17.0685 29.7298V38.4375H8.51497C8.0005 38.4375 7.58339 38.7873 7.58339 39.2188C7.58339 39.6502 8.0005 40 8.51497 40H27.4851C27.9996 40 28.4167 39.6502 28.4167 39.2188C28.4167 38.7873 27.9996 38.4375 27.4851 38.4375H18.9316V29.7298C19.3663 29.6086 19.7647 29.4027 20.0974 29.1209C20.1209 29.101 20.1429 29.0801 20.1637 29.0583L28.9748 19.7911C29.0834 19.6768 29.1486 19.5418 29.1697 19.4023C29.22 19.409 29.2681 19.4201 29.3147 19.4334L35.1683 13.277C36.2904 12.2736 36.2771 9.98508 35.1285 9.01195ZM18.7428 28.0466C18.5396 28.2062 18.2775 28.2937 18 28.2937C17.7224 28.2937 17.4604 28.2062 17.2572 28.0466L9.68777 20.0853H14.9012C15.6517 21.1259 16.991 21.774 18.465 21.774C19.9391 21.774 21.2783 21.1259 22.0287 20.0853H26.3121L18.7428 28.0466ZM16.1522 18.2434C16.1522 17.1583 17.1897 16.2755 18.465 16.2755C19.7404 16.2755 20.7779 17.1584 20.7779 18.2435C20.7779 18.5077 20.7175 18.7638 20.5983 19.005V19.0051C20.2364 19.738 19.399 20.2115 18.4651 20.2115C17.536 20.2115 16.703 19.7426 16.338 19.0163C16.33 18.9993 16.3224 18.9822 16.313 18.9659C16.2063 18.7361 16.1522 18.4932 16.1522 18.2434ZM33.8043 12.2124C33.7809 12.2323 33.7588 12.253 33.7381 12.2749L27.7977 18.5228H22.6281C22.6367 18.4302 22.641 18.3371 22.641 18.2435C22.641 17.0178 21.898 15.9366 20.7733 15.3033L21.0005 14.9914C21.13 14.8133 21.1691 14.6031 21.1104 14.4008C21.0526 14.1976 20.9027 14.0258 20.6903 13.9172C20.5441 13.8422 20.3763 13.8031 20.2059 13.8031C19.878 13.8031 19.5809 13.943 19.4104 14.1773L18.9987 14.7428C18.8238 14.7238 18.6459 14.713 18.4651 14.713C16.1625 14.713 14.2892 16.2967 14.2892 18.2434C14.2892 18.3371 14.2935 18.4302 14.3021 18.5227H8.20239L2.26203 12.2748C2.24125 12.253 2.21917 12.2322 2.19579 12.2123C1.8328 11.9048 1.77709 10.8728 2.02855 10.3427H33.9717C34.223 10.8729 34.1673 11.9049 33.8043 12.2124Z" fill="#4E337A"/>
</svg>
