<?xml version="1.0" encoding="utf-8"?>
<!-- Generator: Adobe Illustrator 14.0.0, SVG Export Plug-In  -->
<!DOCTYPE svg PUBLIC "-//W3C//DTD SVG 1.1//EN" "http://www.w3.org/Graphics/SVG/1.1/DTD/svg11.dtd" [
	<!ENTITY ns_flows "http://ns.adobe.com/Flows/1.0/">
]>
<svg version="1.1"
	 xmlns="http://www.w3.org/2000/svg" xmlns:xlink="http://www.w3.org/1999/xlink" xmlns:a="http://ns.adobe.com/AdobeSVGViewerExtensions/3.0/"
	 x="0px" y="0px" width="439px" height="233px" viewBox="0 0 439 233" enable-background="new 0 0 439 233" xml:space="preserve">
<defs>
</defs>
<linearGradient id="SVGID_1_" gradientUnits="userSpaceOnUse" x1="0" y1="104.0215" x2="136.6191" y2="104.0215">
	<stop  offset="0" style="stop-color:#ED2586"/>
	<stop  offset="1" style="stop-color:#4F479D"/>
</linearGradient>
<path fill-rule="evenodd" clip-rule="evenodd" fill="url(#SVGID_1_)" d="M101.0767,25.2725c0,0,28.7222,15.6162,34.5786,47.9629
	c0,0,6.1348,22.3096-12.5483,50.4746c0,0-52.9834,70.5527-55.4932,73.6201c-2.5107,3.0674-59.9551-82.543-59.9551-82.543
	s-18.1265-34.2998,1.394-65.2529c19.519-30.9541,41.3906-32.8154,56.6792-33.499c0,0-35.207,13.6982-43.8516,43.8164
	c0,0-9.2329,26.1475,3.543,46.6846c0,0-3.9526-35.4961,11.0889-53.9883c0,0,22.9321-36.3701,70.6455-41.916
	c0,0-27.8633,17.0127-29.7134,43.7656c0,0-3.7676,31.2549,9.4932,38.3428c0,0,26.2598,13.1533,28.2339-22.1934
	c0,0,0.6167-12.2041-10.9731-17.999c0,0-11.9585-3.4521-17.0137,7.0273C87.1846,59.5752,81.3506,41.4229,101.0767,25.2725z"/>
<path opacity="0.2" fill-rule="evenodd" clip-rule="evenodd" fill="#FFFFFF" d="M103.0996,12.1973
	c0,0-67.9917,14.6348-76.2275,81.3076c0,0-6.6563,34.457,40.7417,103.8252l38.8262-51.4404c0,0-43.1401-45.3076-40.3462-81.0391
	C66.0938,64.8506,66.374,32.1729,103.0996,12.1973z"/>
<linearGradient id="SVGID_2_" gradientUnits="userSpaceOnUse" x1="108.3604" y1="10.6309" x2="134.8584" y2="10.6309">
	<stop  offset="0" style="stop-color:#ED2586"/>
	<stop  offset="0.0954" style="stop-color:#CB338B"/>
	<stop  offset="0.2027" style="stop-color:#AC3C90"/>
	<stop  offset="0.3151" style="stop-color:#914193"/>
	<stop  offset="0.4314" style="stop-color:#7C4397"/>
	<stop  offset="0.5528" style="stop-color:#694599"/>
	<stop  offset="0.6817" style="stop-color:#5B469B"/>
	<stop  offset="0.8228" style="stop-color:#52479D"/>
	<stop  offset="1" style="stop-color:#4F479D"/>
</linearGradient>
<path fill-rule="evenodd" clip-rule="evenodd" fill="url(#SVGID_2_)" d="M134.8584,2.8545L108.3604,0l4.9897,9.1133l-0.3257,12.1475
	L134.8584,2.8545z"/>
<text transform="matrix(1 0 0 1 173.418 147.8877)" fill="#653D92" font-family="'On-My-Way'" font-size="132.1513" letter-spacing="-1">Tripiry</text>
</svg>
