<svg width="20" height="22" viewBox="0 0 20 22" fill="none" xmlns="http://www.w3.org/2000/svg">
<path d="M13.4799 3.4775C13.4799 1.56053 11.9194 0 10.0024 0C8.08543 0 6.5249 1.56053 6.5249 3.4775C6.5249 5.39448 8.08543 6.95501 10.0024 6.95501C11.9194 6.95501 13.4799 5.39448 13.4799 3.4775ZM10.0024 6.08563C8.56359 6.08563 7.39428 4.91632 7.39428 3.4775C7.39428 2.03869 8.56359 0.869376 10.0024 0.869376C11.4412 0.869376 12.6105 2.03869 12.6105 3.4775C12.6105 4.91632 11.4412 6.08563 10.0024 6.08563Z" fill="black"/>
<path d="M3.26451 16.0264C2.44295 15.9133 1.61269 16.1611 0.986742 16.7045C0.360791 17.2478 0.00434698 18.039 0.00434698 18.8649C0.00434698 19.6908 0.373832 20.5037 1.01282 21.047C1.53445 21.4904 2.19517 21.7295 2.86894 21.7295C3.02108 21.7295 3.17757 21.7164 3.32971 21.6947L9.99783 20.6167L16.6746 21.6947C16.8268 21.7208 16.9833 21.7295 17.1354 21.7295C17.8092 21.7295 18.4699 21.4904 18.9915 21.047C19.6349 20.4993 20 19.7038 20 18.8605C20 17.2826 18.7177 15.9959 17.1398 15.9959C16.9833 15.9959 16.8529 16.0046 16.7398 16.022L13.9144 16.4132V14.4832L18.3351 15.7438C18.4569 15.7786 18.5786 15.796 18.7003 15.796C18.9785 15.796 19.248 15.7047 19.4784 15.5352C19.8087 15.2874 20 14.9049 20 14.4919C20 13.9616 19.6696 13.4791 19.1784 13.2835L15.5749 11.8403L14.8881 9.55386C14.5012 8.25414 13.3319 7.38477 11.9757 7.38477H11.3062V8.25414H11.9757C12.9407 8.25414 13.7753 8.87575 14.0535 9.80598L14.8011 12.2924C14.8403 12.4185 14.9315 12.5228 15.0576 12.5706L18.8568 14.092C19.0219 14.1572 19.1306 14.318 19.1306 14.4919C19.1306 14.631 19.0654 14.7571 18.9567 14.8397C18.8481 14.9223 18.709 14.9483 18.5742 14.9092L13.7796 13.5399L12.5625 11.1013L11.7844 11.4882L13.0406 14.0051V16.5306L10.0022 16.9523L6.95501 16.5306V14.0094L8.21126 11.4926L7.43317 11.1057L6.21604 13.5443L1.43012 14.9092C1.36927 14.9266 1.3258 14.931 1.29972 14.931C1.06064 14.931 0.869376 14.7353 0.869376 14.4963C0.869376 14.3224 0.978048 14.1616 1.14323 14.0964L4.9424 12.5749C5.06412 12.5271 5.15975 12.4228 5.19887 12.2967L5.94653 9.81033C6.22473 8.88444 7.05934 8.25849 8.02434 8.25849H8.69376V7.38911H8.02434C6.67246 7.38911 5.50315 8.26284 5.11193 9.55821L4.42513 11.8447L0.821561 13.2878C0.330363 13.4834 0 13.9659 0 14.4963C0 15.2135 0.582482 15.8003 1.29972 15.8003C1.41274 15.8003 1.5301 15.7829 1.66051 15.7482L6.08563 14.4832V16.4132L3.26016 16.022L3.26451 16.0264ZM16.8659 16.887C16.9572 16.874 17.0485 16.8697 17.1398 16.8697C18.2395 16.8697 19.1306 17.7651 19.1306 18.8649C19.1306 19.4517 18.8742 20.0081 18.4264 20.3863C17.9787 20.7688 17.3919 20.9296 16.8137 20.8384L12.719 20.1733C13.4145 20.0516 13.9144 19.4604 13.9144 18.7519C13.9144 18.1563 13.5405 17.6304 13.0059 17.4174L16.8702 16.8827L16.8659 16.887ZM12.5494 18.1868C12.832 18.2259 13.045 18.4693 13.045 18.7562C13.045 19.0431 12.8407 19.2778 12.5625 19.3213L3.19061 20.8384C2.61248 20.934 2.0213 20.7688 1.57792 20.3863C1.13019 20.0038 0.873723 19.4517 0.873723 18.8649C0.873723 18.278 1.1215 17.739 1.56053 17.3565C1.92567 17.0392 2.39513 16.8653 2.87329 16.8653C2.96457 16.8653 3.05586 16.8697 3.14714 16.8827L12.5494 18.1824V18.1868Z" fill="black"/>
<path d="M9.56738 7.39062H10.4368V8.26H9.56738V7.39062Z" fill="black"/>
</svg>
