<svg width="20" height="20" viewBox="0 0 20 20" fill="none" xmlns="http://www.w3.org/2000/svg">
<path d="M19.6667 15.6571H19.1533C19.4836 15.2916 19.6665 14.8165 19.6667 14.3238V10.3238C19.6659 10.0641 19.6043 9.80818 19.4867 9.57661C19.3692 9.34505 19.1989 9.14429 18.9897 8.99046C19.3318 8.741 19.5656 8.37014 19.6431 7.95387C19.7206 7.53761 19.636 7.10746 19.4066 6.75156C19.1772 6.39567 18.8204 6.14099 18.4092 6.0397C17.9981 5.93841 17.5638 5.99819 17.1953 6.20679L14.573 3.14712C14.6564 2.93571 14.6843 2.7065 14.6542 2.48125C14.6241 2.256 14.5369 2.04219 14.4009 1.86012C14.2649 1.67804 14.0846 1.53375 13.8772 1.44093C13.6698 1.34811 13.442 1.30985 13.2157 1.32979C13.0734 1.20198 12.9051 1.10653 12.7224 1.05002C12.5397 0.993508 12.3469 0.977281 12.1573 1.00246C12.0416 0.797143 11.8735 0.626169 11.6702 0.506952C11.4669 0.387735 11.2357 0.324535 11 0.32379H10.9923C10.6958 0.107791 10.3369 -0.00578674 9.97009 0.000227084C9.60325 0.00624091 9.24833 0.131519 8.959 0.357123C8.68007 0.297188 8.3893 0.327389 8.12864 0.443372C7.86798 0.559356 7.65088 0.755127 7.50867 1.00246C7.31908 0.977101 7.12625 0.993241 6.94351 1.04976C6.76077 1.10628 6.5925 1.20183 6.45033 1.32979C6.20086 1.30674 5.94994 1.3547 5.72655 1.46813C5.50316 1.58156 5.31639 1.75584 5.1878 1.97086C5.0592 2.18588 4.99402 2.43288 4.99978 2.68335C5.00554 2.93383 5.082 3.17757 5.22033 3.38646L2.80467 6.20679C2.55946 6.0668 2.28235 5.9923 2 5.99046C1.64955 5.98945 1.30775 6.09926 1.02347 6.30421C0.739187 6.50915 0.526982 6.79873 0.417191 7.13155C0.3074 7.46436 0.305645 7.82336 0.412176 8.15723C0.518708 8.4911 0.728071 8.78274 1.01033 8.99046C0.801091 9.14429 0.630843 9.34505 0.513267 9.57661C0.39569 9.80818 0.334062 10.0641 0.333333 10.3238V14.3238C0.333467 14.8165 0.51638 15.2916 0.846667 15.6571H0.333333C0.244928 15.6571 0.160143 15.6922 0.0976311 15.7548C0.035119 15.8173 0 15.9021 0 15.9905C0 16.0789 0.035119 16.1636 0.0976311 16.2262C0.160143 16.2887 0.244928 16.3238 0.333333 16.3238H1.66667V19.3238H1C0.911595 19.3238 0.82681 19.3589 0.764298 19.4214C0.701786 19.4839 0.666667 19.5687 0.666667 19.6571C0.666667 19.7455 0.701786 19.8303 0.764298 19.8928C0.82681 19.9553 0.911595 19.9905 1 19.9905H3C3.08841 19.9905 3.17319 19.9553 3.2357 19.8928C3.29821 19.8303 3.33333 19.7455 3.33333 19.6571C3.33333 19.5687 3.29821 19.4839 3.2357 19.4214C3.17319 19.3589 3.08841 19.3238 3 19.3238H2.33333V16.3238H4V18.8238C4 19.1332 4.12292 19.43 4.34171 19.6488C4.5605 19.8675 4.85725 19.9905 5.16667 19.9905C5.47609 19.9905 5.77283 19.8675 5.99162 19.6488C6.21042 19.43 6.33333 19.1332 6.33333 18.8238V15.3238C6.33195 15.089 6.26797 14.8589 6.148 14.6571H8.33333V19.3238H7.33333C7.24493 19.3238 7.16014 19.3589 7.09763 19.4214C7.03512 19.4839 7 19.5687 7 19.6571C7 19.7455 7.03512 19.8303 7.09763 19.8928C7.16014 19.9553 7.24493 19.9905 7.33333 19.9905H12.6667C12.7551 19.9905 12.8399 19.9553 12.9024 19.8928C12.9649 19.8303 13 19.7455 13 19.6571C13 19.5687 12.9649 19.4839 12.9024 19.4214C12.8399 19.3589 12.7551 19.3238 12.6667 19.3238H11.6667V14.6571H13.852C13.732 14.8589 13.668 15.089 13.6667 15.3238V18.8238C13.6667 19.1332 13.7896 19.43 14.0084 19.6488C14.2272 19.8675 14.5239 19.9905 14.8333 19.9905C15.1428 19.9905 15.4395 19.8675 15.6583 19.6488C15.8771 19.43 16 19.1332 16 18.8238V16.3238H17.6667V19.3238H17C16.9116 19.3238 16.8268 19.3589 16.7643 19.4214C16.7018 19.4839 16.6667 19.5687 16.6667 19.6571C16.6667 19.7455 16.7018 19.8303 16.7643 19.8928C16.8268 19.9553 16.9116 19.9905 17 19.9905H19C19.0884 19.9905 19.1732 19.9553 19.2357 19.8928C19.2982 19.8303 19.3333 19.7455 19.3333 19.6571C19.3333 19.5687 19.2982 19.4839 19.2357 19.4214C19.1732 19.3589 19.0884 19.3238 19 19.3238H18.3333V16.3238H19.6667C19.7551 16.3238 19.8399 16.2887 19.9024 16.2262C19.9649 16.1636 20 16.0789 20 15.9905C20 15.9021 19.9649 15.8173 19.9024 15.7548C19.8399 15.6922 19.7551 15.6571 19.6667 15.6571ZM19 10.3238V13.9905H17V12.2745L17.5937 11.5321C17.6489 11.4631 17.6745 11.3749 17.6647 11.287C17.655 11.1991 17.6107 11.1187 17.5417 11.0635C17.4726 11.0082 17.3845 10.9826 17.2966 10.9924C17.2087 11.0021 17.1283 11.0464 17.073 11.1155L16.4063 11.9488L16.1397 12.2821C16.0464 12.3994 15.9278 12.494 15.7928 12.5589C15.6578 12.6239 15.5098 12.6574 15.36 12.6571H13.6667C13.6222 12.6572 13.5781 12.6482 13.5372 12.6306C13.4964 12.613 13.4595 12.5872 13.429 12.5548C13.3984 12.5247 13.3741 12.4887 13.3576 12.449C13.3412 12.4093 13.3329 12.3667 13.3333 12.3238C13.3333 12.2354 13.3685 12.1506 13.431 12.0881C13.4935 12.0256 13.5783 11.9905 13.6667 11.9905H14.6667C14.8218 11.9897 14.9747 11.9533 15.1134 11.8839C15.2521 11.8145 15.373 11.7141 15.4667 11.5905L16.6667 9.99046C16.8222 9.78375 17.0235 9.61595 17.2549 9.50027C17.4863 9.38459 17.7413 9.32418 18 9.32379C18.2652 9.32379 18.5196 9.42915 18.7071 9.61668C18.8946 9.80422 19 10.0586 19 10.3238ZM15.3333 13.9905V13.3238H15.36C15.7093 13.3246 16.05 13.215 16.3333 13.0108V13.9905H15.3333ZM11.3333 13.9905H5V13.3238H14.6667V13.9905H11.3333ZM4.33333 13.9905H3.66667V13.0108C3.86615 13.1535 4.0949 13.2501 4.33633 13.2935C4.33633 13.3038 4.33333 13.3135 4.33333 13.3238V13.9905ZM6.33333 11.3238H5.33333C5.28166 11.3234 5.23077 11.3111 5.18456 11.288C5.13834 11.2649 5.09801 11.2315 5.06667 11.1905L3.86667 9.59046C3.65585 9.31068 3.38469 9.08201 3.07333 8.92146C3.40355 8.64797 3.61339 8.25593 3.65782 7.82948C3.70225 7.40302 3.57774 6.97615 3.311 6.64046L5.713 3.83712C5.85767 3.91346 6.01521 3.96239 6.17767 3.98146C6.29347 4.1861 6.46141 4.35643 6.6644 4.47511C6.86739 4.59379 7.09819 4.65659 7.33333 4.65712C7.46558 4.6572 7.59704 4.63673 7.723 4.59646C7.88188 4.75615 8.07863 4.87298 8.29489 4.93605C8.51114 4.99912 8.73985 5.00637 8.95967 4.95712C9.16539 5.12228 9.40792 5.23537 9.66667 5.28679V6.02379C9.35634 6.0859 9.07025 6.23549 8.84218 6.45491C8.61411 6.67433 8.45358 6.95442 8.37953 7.26211C8.30548 7.56981 8.321 7.89227 8.42427 8.19143C8.52754 8.49059 8.71424 8.75396 8.96233 8.95046C8.66884 9.12831 8.42612 9.37878 8.25757 9.67771C8.08901 9.97664 8.0003 10.3139 8 10.6571V12.6571H7.27267C7.32792 12.5066 7.34585 12.3449 7.3249 12.1859C7.30396 12.0269 7.24477 11.8754 7.15242 11.7443C7.06006 11.6132 6.93729 11.5065 6.79464 11.4332C6.65198 11.36 6.49369 11.3224 6.33333 11.3238ZM10.9923 4.99046H11C11.1756 4.99072 11.3494 4.95602 11.5115 4.88837C11.6735 4.82072 11.8204 4.72149 11.9437 4.59646C12.0696 4.63673 12.2011 4.6572 12.3333 4.65712C12.5685 4.65659 12.7993 4.59379 13.0023 4.47511C13.2053 4.35643 13.3732 4.1861 13.489 3.98146C13.7369 3.95204 13.9714 3.85326 14.1657 3.69646L16.689 6.64046C16.4223 6.97615 16.2977 7.40302 16.3422 7.82948C16.3866 8.25593 16.5965 8.64797 16.9267 8.92146C16.6151 9.08175 16.3439 9.31046 16.1333 9.59046L14.9333 11.1905C14.9019 11.2315 14.8616 11.2648 14.8154 11.2879C14.7692 11.311 14.7183 11.3233 14.6667 11.3238H13.6667C13.5064 11.3226 13.3482 11.3603 13.2056 11.4336C13.063 11.5068 12.9403 11.6136 12.848 11.7446C12.7556 11.8756 12.6964 12.0271 12.6753 12.186C12.6542 12.3449 12.672 12.5066 12.727 12.6571H12V10.6571C11.9996 10.314 11.9109 9.97676 11.7424 9.6779C11.5738 9.37903 11.3311 9.12862 11.0377 8.95079C11.2859 8.75432 11.4727 8.49093 11.576 8.19172C11.6793 7.89251 11.6949 7.56998 11.6208 7.26222C11.5468 6.95446 11.3862 6.67431 11.158 6.45487C10.9299 6.23542 10.6437 6.08584 10.3333 6.02379V5.28512C10.5719 5.23622 10.7968 5.13564 10.9923 4.99046ZM10 9.32379C10.3536 9.32379 10.6928 9.46427 10.9428 9.71432C11.1929 9.96436 11.3333 10.3035 11.3333 10.6571V12.6571H8.66667V10.6571C8.66667 10.3035 8.80714 9.96436 9.05719 9.71432C9.30724 9.46427 9.64638 9.32379 10 9.32379ZM9 7.65712C9 7.45934 9.05865 7.266 9.16853 7.10155C9.27841 6.9371 9.43459 6.80893 9.61732 6.73324C9.80004 6.65756 10.0011 6.63775 10.1951 6.67634C10.3891 6.71492 10.5673 6.81016 10.7071 6.95002C10.847 7.08987 10.9422 7.26805 10.9808 7.46203C11.0194 7.65601 10.9996 7.85708 10.9239 8.03981C10.8482 8.22253 10.72 8.37871 10.5556 8.48859C10.3911 8.59848 10.1978 8.65712 10 8.65712C9.73478 8.65712 9.48043 8.55177 9.29289 8.36423C9.10536 8.17669 9 7.92234 9 7.65712ZM19 7.65712C19 7.85491 18.9414 8.04824 18.8315 8.21269C18.7216 8.37714 18.5654 8.50532 18.3827 8.581C18.2 8.65669 17.9989 8.67649 17.8049 8.63791C17.6109 8.59932 17.4327 8.50408 17.2929 8.36423C17.153 8.22438 17.0578 8.0462 17.0192 7.85221C16.9806 7.65823 17.0004 7.45717 17.0761 7.27444C17.1518 7.09171 17.28 6.93554 17.4444 6.82565C17.6089 6.71577 17.8022 6.65712 18 6.65712C18.2652 6.65712 18.5196 6.76248 18.7071 6.95002C18.8946 7.13755 19 7.39191 19 7.65712ZM6.33333 1.99046C6.38608 1.99145 6.43853 1.9985 6.48967 2.01146C6.55005 2.02583 6.61325 2.02305 6.67214 2.00344C6.73104 1.98383 6.78328 1.94816 6.823 1.90046C6.91193 1.79172 7.03325 1.71423 7.1693 1.67927C7.30535 1.64432 7.44901 1.65373 7.57933 1.70612C7.623 1.72367 7.66989 1.73178 7.71692 1.7299C7.76394 1.72803 7.81004 1.71621 7.85217 1.69524C7.8943 1.67427 7.93151 1.64462 7.96136 1.60823C7.99121 1.57184 8.01301 1.52954 8.02533 1.48412C8.05056 1.39358 8.09454 1.30935 8.15442 1.2369C8.21429 1.16445 8.28873 1.10539 8.3729 1.06356C8.45706 1.02173 8.54909 0.998052 8.64299 0.994072C8.7369 0.990092 8.83059 1.0059 8.918 1.04046C8.97954 1.06541 9.04713 1.0714 9.1121 1.05769C9.17707 1.04397 9.23647 1.01115 9.28267 0.963457C9.46103 0.776299 9.70568 0.666543 9.96407 0.657756C10.2225 0.648968 10.474 0.74185 10.6647 0.916457C10.6997 0.947913 10.7409 0.971601 10.7857 0.985964C10.8306 1.00033 10.8779 1.00504 10.9247 0.99979L10.9653 0.99479C10.9768 0.992673 10.9884 0.991226 11 0.990457C11.146 0.991296 11.2877 1.04005 11.4033 1.12924C11.519 1.21842 11.6021 1.3431 11.64 1.48412C11.6523 1.52954 11.6741 1.57184 11.704 1.60823C11.7338 1.64462 11.771 1.67427 11.8132 1.69524C11.8553 1.71621 11.9014 1.72803 11.9484 1.7299C11.9954 1.73178 12.0423 1.72367 12.086 1.70612C12.2164 1.65388 12.36 1.64456 12.496 1.67951C12.632 1.71445 12.7533 1.79185 12.8423 1.90046C12.882 1.94816 12.9343 1.98383 12.9932 2.00344C13.0521 2.02305 13.1153 2.02583 13.1757 2.01146C13.2272 1.99839 13.2801 1.99135 13.3333 1.99046C13.5101 1.98878 13.6804 2.0574 13.8066 2.18124C13.9328 2.30508 14.0047 2.47398 14.0063 2.65079C14.008 2.8276 13.9394 2.99784 13.8155 3.12405C13.6917 3.25026 13.5228 3.32211 13.346 3.32379C13.3363 3.32379 13.3 3.31879 13.2903 3.31812C13.2182 3.31345 13.1466 3.33284 13.0867 3.37326C13.0268 3.41368 12.982 3.47284 12.9593 3.54146C12.9273 3.63296 12.8756 3.71632 12.8078 3.78569C12.7401 3.85505 12.658 3.90873 12.5672 3.94295C12.4765 3.97718 12.3794 3.9911 12.2827 3.98376C12.1861 3.97642 12.0922 3.94798 12.0077 3.90046C11.9332 3.85825 11.8454 3.8463 11.7623 3.86709C11.6793 3.88788 11.6075 3.93981 11.5617 4.01212C11.5021 4.10739 11.4193 4.18596 11.3211 4.24048C11.2228 4.29499 11.1124 4.32366 11 4.32379C10.9888 4.32298 10.9777 4.32153 10.9667 4.31946L10.926 4.31446C10.8793 4.30956 10.832 4.31445 10.7872 4.32879C10.7425 4.34314 10.7012 4.36663 10.666 4.39779C10.4753 4.5724 10.2238 4.66528 9.9654 4.65649C9.70701 4.6477 9.46237 4.53795 9.284 4.35079C9.25278 4.31893 9.21547 4.29367 9.17431 4.27649C9.13314 4.25931 9.08894 4.25057 9.04433 4.25079C9.00145 4.25075 8.95898 4.25914 8.91933 4.27546C8.77462 4.3339 8.61399 4.33972 8.46543 4.29191C8.31687 4.24409 8.18979 4.14567 8.10633 4.01379C8.06055 3.94148 7.9887 3.88955 7.90567 3.86876C7.82264 3.84797 7.7348 3.85992 7.66033 3.90212C7.57582 3.94959 7.48193 3.97798 7.38527 3.98529C7.28861 3.9926 7.19152 3.97866 7.10082 3.94445C7.01012 3.91023 6.92802 3.85658 6.86027 3.78724C6.79252 3.71791 6.74078 3.63459 6.70867 3.54312C6.68576 3.47466 6.64091 3.41566 6.58107 3.37529C6.52122 3.33491 6.44973 3.3154 6.37767 3.31979C6.36279 3.31947 6.34792 3.32081 6.33333 3.32379C6.16198 3.32358 5.99737 3.25704 5.874 3.13812C5.77816 3.04615 5.71199 2.92765 5.68395 2.79781C5.65592 2.66797 5.66732 2.53272 5.71667 2.4094C5.76603 2.28608 5.8511 2.18032 5.96097 2.10567C6.07084 2.03103 6.20051 1.99091 6.33333 1.99046ZM1 7.65712C1 7.45934 1.05865 7.266 1.16853 7.10155C1.27841 6.9371 1.43459 6.80893 1.61732 6.73324C1.80004 6.65756 2.00111 6.63775 2.19509 6.67634C2.38907 6.71492 2.56725 6.81016 2.70711 6.95002C2.84696 7.08987 2.9422 7.26805 2.98079 7.46203C3.01937 7.65601 2.99957 7.85708 2.92388 8.03981C2.84819 8.22253 2.72002 8.37871 2.55557 8.48859C2.39112 8.59848 2.19778 8.65712 2 8.65712C1.73478 8.65712 1.48043 8.55177 1.29289 8.36423C1.10536 8.17669 1 7.92234 1 7.65712ZM1 10.3238C1 10.0586 1.10536 9.80422 1.29289 9.61668C1.48043 9.42915 1.73478 9.32379 2 9.32379C2.25866 9.32425 2.51369 9.3847 2.74504 9.50038C2.97639 9.61605 3.17777 9.78381 3.33333 9.99046L4.53333 11.5921C4.62713 11.7155 4.74809 11.8156 4.88683 11.8847C5.02557 11.9538 5.17835 11.99 5.33333 11.9905H6.33333C6.42174 11.9905 6.50652 12.0256 6.56904 12.0881C6.63155 12.1506 6.66667 12.2354 6.66667 12.3238C6.66675 12.3683 6.65772 12.4123 6.64012 12.4532C6.62252 12.4941 6.59673 12.5309 6.56433 12.5615C6.53423 12.5921 6.49826 12.6164 6.45857 12.6328C6.41889 12.6493 6.37629 12.6575 6.33333 12.6571H4.64C4.49017 12.6575 4.3422 12.6239 4.20718 12.559C4.07216 12.4941 3.95358 12.3994 3.86033 12.2821L3.59367 11.9488L2.927 11.1155C2.89964 11.0813 2.86582 11.0528 2.82746 11.0317C2.7891 11.0106 2.74696 10.9972 2.70344 10.9924C2.65992 10.9876 2.61587 10.9914 2.57382 11.0035C2.53176 11.0157 2.49252 11.0361 2.45833 11.0635C2.42415 11.0908 2.39568 11.1246 2.37457 11.163C2.35345 11.2014 2.3401 11.2435 2.33527 11.287C2.33044 11.3305 2.33423 11.3746 2.34642 11.4166C2.35862 11.4587 2.37897 11.4979 2.40633 11.5321L3 12.2745V13.9905H1V10.3238ZM5.66667 15.3238V18.8238C5.66667 18.9564 5.61399 19.0836 5.52022 19.1773C5.42645 19.2711 5.29927 19.3238 5.16667 19.3238C5.03406 19.3238 4.90688 19.2711 4.81311 19.1773C4.71935 19.0836 4.66667 18.9564 4.66667 18.8238V16.3238C4.66667 16.147 4.59643 15.9774 4.4714 15.8524C4.34638 15.7274 4.17681 15.6571 4 15.6571H2.33333C2.0386 15.656 1.75253 15.5573 1.51986 15.3764C1.28718 15.1954 1.12102 14.9425 1.04733 14.6571H5C5.17681 14.6571 5.34638 14.7274 5.4714 14.8524C5.59643 14.9774 5.66667 15.147 5.66667 15.3238ZM11 19.3238H9V14.6571H11V19.3238ZM15.3333 16.3238V18.8238C15.3333 18.9564 15.2807 19.0836 15.1869 19.1773C15.0931 19.2711 14.9659 19.3238 14.8333 19.3238C14.7007 19.3238 14.5735 19.2711 14.4798 19.1773C14.386 19.0836 14.3333 18.9564 14.3333 18.8238V15.3238C14.3333 15.147 14.4036 14.9774 14.5286 14.8524C14.6536 14.7274 14.8232 14.6571 15 14.6571H18.9527C18.879 14.9425 18.7128 15.1954 18.4801 15.3764C18.2475 15.5573 17.9614 15.656 17.6667 15.6571H16C15.8232 15.6571 15.6536 15.7274 15.5286 15.8524C15.4036 15.9774 15.3333 16.147 15.3333 16.3238Z" fill="black"/>
</svg>
