<?xml version="1.0" encoding="utf-8"?>
<svg viewBox="0 0 26 26" fill="none" xmlns="http://www.w3.org/2000/svg">
  <path d="M19.8808 9.33287C21.053 9.33287 22.0067 8.37914 22.0067 7.20696C22.0067 6.03478 21.053 5.08105 19.8808 5.08105C18.7086 5.08105 17.7549 6.03478 17.7549 7.20696C17.7549 8.37914 18.7086 9.33287 19.8808 9.33287ZM19.8808 5.90386C20.5993 5.90386 21.1839 6.48841 21.1839 7.20701C21.1839 7.92557 20.5994 8.51016 19.8808 8.51016C19.1622 8.51016 18.5776 7.92562 18.5776 7.20701C18.5776 6.48846 19.1623 5.90386 19.8808 5.90386Z" style="fill: rgb(125, 56, 145);" transform="matrix(0.9999999999999999, 0, 0, 0.9999999999999999, 0, 4.440892098500626e-16)"/>
  <path d="M25.0634 8.14846C25.1136 7.83148 25.1423 7.51562 25.1423 7.20525C25.1423 4.30427 22.7822 1.94416 19.8812 1.94416C19.868 1.94416 19.855 1.94457 19.8419 1.94467C17.79 0.672344 15.4273 0 13 0C9.52753 0 6.263 1.3522 3.80758 3.80763C1.3522 6.263 0 9.52758 0 13C0 16.4724 1.3522 19.737 3.80758 22.1924C6.263 24.6478 9.52753 26 13 26C16.4724 26 19.7369 24.6478 22.1924 22.1924C24.6478 19.7369 26 16.4724 26 13C26 11.322 25.6844 9.69059 25.0634 8.14846ZM11.5729 0.905734C10.2872 1.89566 9.17074 3.07577 8.26841 4.39725C7.61338 3.92133 7.0266 3.34405 6.53189 2.67785C8.05467 1.71955 9.76914 1.1149 11.5729 0.905734ZM4.38938 4.38938C4.84773 3.93103 5.33655 3.51447 5.85066 3.14006C6.40951 3.89888 7.07627 4.55421 7.8226 5.09046C7.68325 5.32096 7.5499 5.55501 7.42346 5.79282C6.31881 7.86967 5.70685 10.2108 5.64337 12.5884H0.830426C0.932648 9.4901 2.18674 6.59207 4.38938 4.38938ZM4.38938 21.6106C2.18659 19.4079 0.932496 16.5096 0.830324 13.4112H5.64332C5.70675 15.789 6.31866 18.1302 7.42341 20.2072C7.5499 20.4451 7.6833 20.6791 7.82255 20.9096C7.07622 21.4459 6.40946 22.1012 5.85056 22.86C5.33665 22.4854 4.84773 22.0689 4.38938 21.6106ZM6.53199 23.3222C7.02665 22.656 7.61343 22.0787 8.26846 21.6027C9.17074 22.9243 10.2872 24.1043 11.5729 25.0943C9.76919 24.885 8.05472 24.2804 6.53199 23.3222ZM12.5886 24.8195C11.1417 23.8063 9.92565 22.5791 8.95629 21.1542C10.0506 20.5188 11.2922 20.144 12.5886 20.0782V24.8195ZM12.5886 19.2546C11.1326 19.3216 9.73842 19.7425 8.51332 20.4603C8.38769 20.2506 8.26561 20.0382 8.14993 19.8207C7.10816 17.8623 6.52955 15.6545 6.46638 13.4111H12.5886V19.2546ZM12.5886 12.5884H6.46638C6.52961 10.3452 7.10826 8.13759 8.14993 6.17921C8.26556 5.96177 8.38769 5.7494 8.51332 5.53968C9.73847 6.25752 11.1326 6.67834 12.5886 6.74532V12.5884ZM12.5886 5.9218C11.2921 5.85604 10.0506 5.48123 8.95629 4.84575C9.92565 3.42098 11.1417 2.1937 12.5886 1.18046V5.9218ZM25.1696 12.5884H23.2618C23.7466 11.7894 24.3121 10.7274 24.6956 9.59882C24.9772 10.5677 25.136 11.568 25.1696 12.5884ZM19.8812 2.76692C22.3285 2.76692 24.3195 4.75795 24.3195 7.20525C24.3195 9.12595 23.0754 11.3612 22.3338 12.5226C21.2063 14.2883 20.1956 15.281 19.8812 15.4736C19.5669 15.2809 18.556 14.2884 17.4285 12.5226C16.6869 11.361 15.4428 9.1259 15.4428 7.20525C15.4428 4.75795 17.4339 2.76692 19.8812 2.76692ZM13.4114 1.17965C14.4029 1.8754 15.2943 2.67998 16.0711 3.58084C15.5019 4.17884 15.072 4.91039 14.833 5.72284C14.3677 5.83111 13.8917 5.89748 13.4114 5.92175V1.17965ZM18.4937 2.13017C17.8286 2.31222 17.2158 2.62168 16.6831 3.03078C16.01 2.25184 15.256 1.54131 14.4297 0.906699C15.8479 1.07321 17.2222 1.48667 18.4937 2.13017ZM13.4114 6.74538C13.8297 6.72618 14.2455 6.67845 14.655 6.60126C14.6322 6.79956 14.6201 7.00096 14.6201 7.20525C14.6201 9.11696 15.6775 11.2317 16.5007 12.5884H13.4114V6.74538H13.4114ZM13.4114 13.4112H17.0283C17.5153 14.1309 18.0397 14.8062 18.5246 15.3356C18.8146 15.6522 19.044 15.8663 19.2268 16.0118C18.8927 17.6079 18.3038 19.105 17.4887 20.4617C16.2631 19.7431 14.8682 19.3218 13.4114 19.2547V13.4112ZM13.4114 20.0782C14.7083 20.1441 15.9503 20.5193 17.0449 21.1552C16.0801 22.5672 14.8571 23.8067 13.4114 24.8212V20.0782ZM14.428 25.0942C15.7252 24.0984 16.8364 22.923 17.7346 21.6052C18.3883 22.0807 18.974 22.6572 19.4678 23.3223C17.9454 24.2803 16.2313 24.8848 14.428 25.0942ZM21.6106 21.6106C21.1522 22.069 20.6632 22.4856 20.1491 22.8601C19.5908 22.102 18.9249 21.4473 18.1795 20.9113C19.0277 19.5059 19.6465 17.9576 20.0062 16.3071C20.1916 16.2684 20.5405 16.0969 21.2378 15.3357C21.7227 14.8063 22.2472 14.131 22.7342 13.4112H25.1697C25.0675 16.5096 23.8134 19.4078 21.6106 21.6106Z" style="fill: rgb(125, 56, 145);" transform="matrix(0.9999999999999999, 0, 0, 0.9999999999999999, 0, 4.440892098500626e-16)"/>
</svg>